<svg xmlns="http://www.w3.org/2000/svg" xmlns:xlink="http://www.w3.org/1999/xlink" xml:space="preserve" id="Layer_1" x="0" y="0" version="1.1" viewBox="0 0 250 250">
  <style>
    .st6{fill:none;stroke:#60c;stroke-width:.5;stroke-miterlimit:10}
  </style>
  <path fill="#f90" fill-rule="evenodd" d="M174.2 102.7c-138.4 76.6-196.4 90.6-125 25.8-59.4 58.7-10 42.2 120.2-34l-1 3.1 2.4.3-2.4 2.7 4.8-1-2.1 3.4 3.1-.3z" clip-rule="evenodd"/>
  <defs>
    <path id="SVGID_1_" d="m168.7 104.4 1.7-3.1-5.8 1.4 3.8-3.8-1.7-.3.3-1c-18.5 10.6-37.1 21.3-56 31.6-7.9 4.5-16.1 8.6-24 12.7-6.9 3.4-13.4 6.9-20.3 10-5.5 2.4-11 5.2-16.5 7.2-4.1 1.7-8.2 3.1-12.7 4.5-2.7.7-5.8 1.4-8.6 1.4-1.7 0-4.1-.3-5.2-2.1-1-1.7-.7-3.8 0-5.2 0-.3.3-1 .7-1.4-2.4 2.7-5.8 8.2-4.5 10.6 2.1 2.7 10.3 1 12.7.7 4.5-1 8.9-2.4 13.4-3.8 5.8-2.1 12-4.5 17.9-6.9 7.2-3.1 14.4-6.2 21.6-9.6 8.6-4.1 17.2-8.2 25.8-12.4 19.3-9.9 38.5-20.2 57.4-30.5z"/>
  </defs>
  <clipPath id="SVGID_2_">
    <use xlink:href="#SVGID_1_" overflow="visible"/>
  </clipPath>
  <defs>
    <path id="SVGID_5_" d="m167.6 103.4-6.9 1 4.8-5.2h-.3c-17.9 10.3-35.7 20.6-53.9 30.6-14.8 7.9-29.5 15.8-44.3 22.7-5.5 2.4-11 5.2-16.5 7.2-4.1 1.7-8.2 3.1-12.7 4.5-4.1 1-12.4 3.4-15.1-1-.3 0-.7-.3-.7-1-.3.3-.3 1-.7 1.4-.3.7-.7 2.4-.3 2.7.3.7 2.1 1 2.7 1 2.7.3 6.2-.3 8.6-1 4.5-1 8.9-2.4 13.4-3.8 5.8-2.1 11.7-4.5 17.5-6.9 16.1-6.5 31.9-14.4 47.4-22 19.3-9.6 38.5-19.6 57-30.2z"/>
  </defs>
  <clipPath id="SVGID_6_">
    <use xlink:href="#SVGID_5_" overflow="visible"/>
  </clipPath>
  <path id="SVGID_9_" d="M168.7 121.9c6.2-2.7 10-8.9 9.6-15.5 9.3-2.1 19.9-5.2 29.5-9.6-1.4 2.4-3.1 4.8-4.8 6.9-9.6 11.7-19.6 15.1-34.3 18.2zm-18.6-32.3c5.5-3.8 12.7-4.1 18.5-.7 6.5-7.2 14.4-14.8 23.3-20.9-2.7 0-5.5.3-8.2.7-15.4 2.7-23.6 9.9-33.6 20.9zm27.5 12.4c32.3-7.2 50.5-19.6 53.9-37.8-17.5-5.8-37.4 3.4-59.7 27.8l5.8 10z" class="st6"/>
  <path id="SVGID_15_" d="M214.3 70.1c-.3-2.4-.7-4.5-1.4-6.5-6.2 1.4-12.4 4.5-18.9 9.3 2.4-1 5.2-1.7 7.9-2.4 3.8-.8 8.3-.8 12.4-.4z" class="st6"/>
  <path id="SVGID_17_" d="M227.4 74.5c-4.5-2.4-8.9-3.8-14.1-4.5 1 6.9-.3 13.7-3.4 20.3 8.2-4.4 14-9.6 17.5-15.8z" class="st6"/>
  <path fill="#06c" fill-rule="evenodd" d="M85.2 134.3c4.5-11 10-24 18.5-45l12 28.8c7.6-4.1 15.1-8.2 23.3-13l-20.3-45.3H89l-40.5 91.3c9.3-3.4 21.6-9.3 36.7-16.8z" clip-rule="evenodd"/>
  <path fill="#60c" fill-rule="evenodd" d="M77.7 152.1c-14.4 6.5-26.8 11.3-36.1 14.1l-10.6 24h30.9c7.2-17.1 11.7-28.1 15.8-38.1zm43.6-20.9 24.4 59.1h31.6l-31.9-71.8c-8.7 4.4-16.6 8.6-24.1 12.7z" clip-rule="evenodd"/>
</svg>
