<svg version="1.1" id="Layer_1" xmlns="http://www.w3.org/2000/svg" x="0" y="0" viewBox="0 0 1304.9 144" xml:space="preserve"><style>.st0{fill:#ffd1da}.st1{fill:#f6e16f}.st2{fill:#f9ea9b}.st3{fill:#fba1b7}.st4{fill:#ffdbaa}.st6{fill:#fbeeac}.st7{fill:#1d5d9b}</style><g id="Object"><path class="st0" d="m967.5 35.3 13.3 30c.2.5.7.9 1.2.9l32.2 6.1c1.3.3 1.8 1.9.8 2.8L990.6 97c-.4.4-.6.9-.5 1.4l4.2 32.5c.2 1.3-1.3 2.3-2.5 1.6L963.5 116c-.5-.3-1-.3-1.5-.1l-29.7 14c-1.2.6-2.6-.5-2.3-1.9l6.9-32c.1-.5-.1-1.1-.4-1.5L914 70.8c-.9-1-.3-2.6 1-2.8l32.6-3.3c.5-.1 1-.4 1.3-.8l15.8-28.7c.5-1.3 2.3-1.2 2.8.1z"/><path class="st1" d="M749.4 27.7 774 54.3c.4.5 1 .7 1.6.6l35.9-5.1c1.5-.2 2.6 1.4 1.9 2.7l-17.8 31.6c-.3.5-.3 1.1-.1 1.7l15.9 32.6c.7 1.3-.5 2.9-2 2.6l-35.6-7.1c-.6-.1-1.2.1-1.6.5l-26.1 25.2c-1.1 1-2.9.4-3.1-1.1l-4.2-36c-.1-.6-.4-1.1-1-1.4l-32.1-17c-1.3-.7-1.3-2.6.1-3.2l33-15.1c.6-.3.9-.8 1-1.3l6.2-35.7c.6-1.7 2.5-2.3 3.4-1.1zM677 71.2l1 17.1c0 .3.2.5.4.7l14.7 8.8c.6.4.5 1.3-.2 1.5l-15.9 6.3c-.3.1-.5.3-.5.6l-3.9 16.7c-.2.7-1 .9-1.5.4L660.2 110c-.2-.2-.5-.3-.7-.3l-17 1.5c-.7.1-1.2-.7-.8-1.3l9.2-14.4c.2-.3.2-.5.1-.8l-6.7-15.8c-.3-.7.3-1.3 1-1.2l16.6 4.3c.3.1.6 0 .8-.2l13-11.2c.4-.5 1.2-.2 1.3.6zM882.6 127c-.2 0-.5-.1-.6-.2l-7.9-4.7-8.4 3.8c-.4.2-.9.2-1.3-.2-.4-.3-.5-.8-.4-1.2l2.1-8.9-6.2-6.8c-.3-.4-.4-.8-.3-1.3s.6-.7 1-.8l9.2-.8 4.5-8c.3-.4.7-.7 1.1-.6.5 0 .9.3 1.1.8l3.6 8.4 9 1.8c.5.1.8.4 1 .9.1.5 0 .9-.4 1.2l-6.9 6.1 1.1 9.2c.1.5-.2.9-.6 1.2-.3 0-.5.1-.7.1zM866 115.4zm3.7-9.4z"/><path class="st2" d="m697.5 21.8-4.3 9.4c-.1.2-.1.4.1.5l5.3 8.9c.2.4-.1.8-.5.8l-10.3-1.2c-.2 0-.4.1-.5.2l-6.8 7.8c-.3.3-.8.2-.9-.3l-2.1-10.1c-.1-.2-.2-.3-.3-.4l-9.5-4.1c-.4-.2-.4-.7-.1-.9l9-5.1c.2-.1.3-.3.3-.4l.9-10.3c.1-.4.6-.6.9-.4l7.6 7c.1.1.3.2.5.1L697 21c.4 0 .7.4.5.8z"/><path class="st0" d="m792.6 24.1-.4 5.4c0 .1.1.2.1.3l4.3 3.4c.2.2.1.4-.1.5l-5.3 1.3c-.1 0-.2.1-.2.2l-1.9 5.1c-.1.2-.4.3-.5.1l-2.9-4.6c-.1-.1-.2-.1-.2-.1l-5.4-.2c-.2 0-.4-.3-.2-.5l3.5-4.2c.1-.1.1-.2.1-.3l-1.5-5.2c-.1-.2.2-.4.4-.3l5.1 2c.1.1.2 0 .3-.1l4.5-3c.1-.1.4 0 .3.2zm493.5 94.8-.4 5.4c0 .1.1.2.1.3l4.3 3.4c.2.2.1.4-.1.5l-5.3 1.3c-.1 0-.2.1-.2.2l-1.9 5.1c-.1.2-.4.3-.5.1l-2.9-4.6c-.1-.1-.2-.1-.2-.1l-5.4-.2c-.2 0-.4-.3-.2-.5l3.5-4.2c.1-.1.1-.2.1-.3l-1.5-5.2c-.1-.2.2-.4.4-.3l5.1 2c.1.1.2 0 .3-.1l4.5-3c.1-.1.4 0 .3.2z"/><path class="st3" d="m1199.9 110.8 7.4 1.5c.1 0 .3 0 .4-.1l5.4-5.2c.2-.2.6-.1.6.2l.8 7.5c0 .1.1.3.2.3l6.7 3.5c.3.2.3.6 0 .7l-6.9 3.1c-.1.1-.2.2-.2.3l-1.3 7.5c-.1.3-.5.4-.7.2l-5.1-5.6c-.1-.1-.2-.2-.3-.1l-7.5 1c-.3.1-.5-.3-.4-.6l3.8-6.6c.1-.1.1-.3 0-.4l-3.3-6.8c-.1-.2.1-.5.4-.4z"/><path class="st2" d="m591.8 91.8 6.1 5.8c.1.1.3.2.4.1l8.2-1.7c.4-.1.6.3.5.6l-3.6 7.6c-.1.1-.1.3 0 .4l4.2 7.2c.2.3-.1.7-.4.6l-8.3-1.1c-.2 0-.3.1-.4.2l-5.6 6.2c-.3.3-.7.2-.7-.2l-1.5-8.2c0-.2-.1-.3-.3-.3l-7.6-3.4c-.3-.2-.4-.6-.1-.8l7.4-4c.1-.1.2-.2.2-.3l.7-8.5c.1-.3.5-.5.8-.2z"/><path class="st3" d="m309.3 122.2-.2 2.8c0 .1 0 .1.1.1l2.2 1.7c.1.1.1.2-.1.3l-2.7.7c-.1 0-.1.1-.1.1l-1 2.6c-.1.1-.2.1-.3.1l-1.5-2.3c0-.1-.1-.1-.1-.1l-2.7-.2c-.1 0-.2-.2-.1-.2l1.7-2.1.1-.1-.8-2.7c-.1-.1.1-.2.2-.2l2.6 1h.1l2.3-1.5c.2-.2.3-.1.3 0z"/><path class="st2" d="m940.3 8.8 4.1 4.4c.1.1.2.1.3.1l6-.9c.3-.1.4.2.3.5l-2.9 5.2c-.1.1-.1.2 0 .3l2.7 5.4c.1.2-.1.5-.3.4l-5.9-1.2c-.1 0-.2 0-.3.1l-4.3 4.2c-.2.2-.5.1-.5-.2l-.7-6c0-.1-.1-.2-.2-.2l-5.3-2.8c-.2-.1-.2-.4 0-.6l5.5-2.5c.1-.1.2-.1.2-.2l1-6c-.3-.1.1-.1.3 0z"/><path class="st1" d="m1012.1 56.5-4.3-14.4c-.1-.3-.3-.4-.5-.5L993 37c-.6-.2-.7-1-.2-1.3l12.4-8.6c.2-.2.3-.4.3-.6V11.2c0-.6.7-1 1.2-.6l12 9.2c.2.2.5.2.7.1l14.3-4.7c.6-.2 1.1.4.9 1l-5 14.2c-.1.3-.1.5.1.7l8.9 12.2c.4.5 0 1.2-.6 1.2l-15.1-.4c-.3 0-.5.1-.6.3l-8.8 12.2c-.5.7-1.2.5-1.4-.1z"/><path class="st2" d="m629.6 126.4-1.2-2.7c0-.1-.1-.1-.1-.1l-2.9-.6c-.1 0-.2-.2-.1-.3l2.2-2c.1-.1.1-.1.1-.2l-.4-2.9c0-.1.1-.2.2-.2l2.6 1.5c.1 0 .1.1.2 0l2.7-1.2c.1-.1.3.1.2.2l-.7 2.9c0 .1 0 .1.1.2l2 2.2c.1.1.1.3-.1.3l-2.9.3c-.1 0-.1.1-.1.1l-1.4 2.6c-.2 0-.4 0-.4-.1z"/><path class="st4" d="m897.9 6.4.4 24.6c0 .4.2.8.6 1l20.5 13.7c.9.6.7 1.9-.3 2.2l-23.3 7.9c-.4.2-.7.5-.8.8l-6.7 23.7c-.3 1-1.5 1.2-2.2.4L871.3 61c-.3-.3-.6-.5-1-.5l-24.6 1c-1 .1-1.6-1.1-1.1-2l14.2-20.1c.3-.3.3-.8.2-1.1l-8.5-23.1c-.4-1 .6-1.9 1.5-1.6l23.5 7.3c.4.1.8.1 1.1-.2l19.3-15.3c.8-.6 2 0 2 1z"/><path class="st1" d="M841.9 98.9c-.3 0-.7-.2-.9-.4l-6.3-6.7-9.1 1.4c-.5.1-.9-.1-1.2-.5-.3-.4-.3-.9-.1-1.3l4.4-8.1-4.2-8.2c-.2-.4-.2-.9.1-1.3.3-.4.8-.6 1.2-.5l9 1.7 6.5-6.5c.4-.4.8-.5 1.3-.3s.8.6.8 1l1.2 9.1 8.2 4.2c.4.2.7.7.7 1.1 0 .5-.3.9-.7 1.1l-8.3 4-1.4 9.1c-.1.5-.4.8-.9 1-.1.1-.2.1-.3.1zm241.3-11.2c-.3 0-.6-.1-.9-.3l-9.6-8.1-12.1 3.3c-.5.2-1.1 0-1.4-.4s-.5-1-.3-1.4l4.7-11.7-6.9-10.5c-.3-.5-.3-1-.1-1.5.3-.5.8-.7 1.3-.7l12.5.9 7.8-9.8c.4-.4.9-.6 1.4-.5.5.1.9.5 1.1 1l3 12.2 11.8 4.4c.5.2.9.6.9 1.2s-.2 1-.7 1.3l-10.6 6.7-.5 12.5c0 .5-.4 1-.8 1.2-.2.2-.4.2-.6.2zm75.8-3.6 6.1 7.4c.1.1.3.2.4.2l9.5-.9c.4-.1.7.4.5.7l-5.1 8.1c-.1.2-.1.3-.1.5l3.8 8.8c.2.4-.2.8-.6.7l-9.3-2.3c-.2-.1-.3 0-.4.1l-7.2 6.3c-.3.3-.8.1-.8-.3l-.7-9.6c0-.2-.1-.3-.3-.4l-8.2-4.9c-.4-.2-.3-.7.1-.9l8.9-3.5c.2-.1.3-.2.3-.4l2.1-9.3c.2-.5.7-.6 1-.3z"/><path class="st2" d="m1036 87.5 7.6 8.9c.1.2.3.2.5.2l11.6-1.2c.5-.1.8.5.6.9l-6.1 10c-.1.2-.1.4-.1.6l4.8 10.7c.2.5-.2.9-.7.8l-11.4-2.7c-.2-.1-.4 0-.5.2l-8.7 7.8c-.4.3-.9.1-1-.4l-.9-11.7c0-.2-.1-.4-.3-.5l-10.1-5.9c-.4-.3-.4-.9.1-1l10.8-4.5c.2-.1.3-.2.4-.4l2.4-11.5c.1-.5.7-.7 1-.3z"/><path class="st3" d="m537.6 102.8.1 9c0 .2.1.3.2.4l7.5 5c.3.2.3.7-.1.8l-8.5 2.9c-.2.1-.3.2-.3.3l-2.4 8.6c-.1.4-.6.5-.8.2l-5.4-7.2c-.1-.1-.2-.2-.4-.2l-9 .4c-.4 0-.6-.4-.4-.7l5.2-7.4c.1-.1.1-.3.1-.4l-3.1-8.4c-.2-.4.2-.7.6-.6l8.6 2.7c.2.1.3 0 .4-.1l7-5.6c.3-.2.7 0 .7.3zm629.2-93.4.1 9c0 .2.1.3.2.4l7.5 5c.3.2.3.7-.1.8l-8.5 2.9c-.2.1-.3.2-.3.3l-2.4 8.6c-.1.4-.6.5-.8.2l-5.4-7.2c-.1-.1-.2-.2-.4-.2l-9 .4c-.4 0-.6-.4-.4-.7l5.2-7.4c.1-.1.1-.3.1-.4l-3.1-8.4c-.2-.4.2-.7.6-.6l8.6 2.7c.2.1.3 0 .4-.1l7-5.6c.3-.2.7 0 .7.3z"/><path class="st1" d="M1108.9 37.1h-.2c-.5-.1-.8-.4-1-.8l-2.7-7.5-7.7-2.1c-.4-.1-.8-.5-.9-.9-.1-.5.1-.9.5-1.2l6.3-4.8-.4-8c0-.5.2-.9.6-1.1.4-.2.9-.2 1.2.1l6.6 4.5 7.5-2.8c.4-.2.9-.1 1.2.3.3.3.5.8.3 1.2l-2.3 7.7 5 6.2c.3.4.4.8.2 1.2-.2.4-.6.7-1 .7l-8 .2-4.4 6.7c-.1.2-.4.4-.8.4zm5.4-7.4zm-9-.9zm12.7-7.1zm-14.7-1.7z"/><path class="st4" d="m1073.1 19.4-1.9 5.7c-.1.1 0 .2.1.3l3.6 4.8c.2.2 0 .5-.3.5l-6-.1c-.1 0-.2.1-.3.2l-3.4 4.9c-.2.2-.5.2-.5-.1l-1.9-5.8c-.1-.1-.1-.2-.2-.2l-5.8-1.7c-.3-.1-.3-.4-.1-.5l4.9-3.5c.1-.1.1-.2.1-.3l-.1-6c0-.3.3-.4.5-.3l4.8 3.6c.1.1.2.1.3.1l5.7-2c.4-.1.6.1.5.4z"/><path d="m128.4 115.7-13.3-30c-.2-.5-.7-.9-1.2-.9l-32.2-6.1c-1.3-.3-1.8-1.9-.8-2.8l24.4-21.8c.4-.4.6-.9.5-1.4L101.7 20c-.2-1.3 1.3-2.3 2.5-1.6L132.6 35c.5.3 1 .3 1.5.1l29.6-14c1.2-.6 2.6.5 2.3 1.9l-6.9 32.1c-.1.5.1 1.1.4 1.5L182 80.2c.9 1 .3 2.6-1 2.8l-32.6 3.3c-.5.1-1 .4-1.3.8l-15.8 28.7c-.6 1.2-2.4 1.1-2.9-.1z" fill="#f4d160"/><path class="st1" d="M501.7 115.7 477.2 89c-.4-.5-1-.7-1.6-.6l-35.9 5.1c-1.5.2-2.6-1.4-1.9-2.7l17.8-31.6c.3-.5.3-1.1.1-1.7l-15.9-32.6c-.7-1.3.5-2.9 2-2.6l35.6 7.1c.6.1 1.2-.1 1.6-.5l26.1-25.2c1.1-1 2.9-.4 3.1 1.1l4.2 36c.1.6.4 1.1 1 1.4l32.1 17c1.3.7 1.3 2.6-.1 3.2l-33 15.1c-.6.3-.9.8-1 1.3l-6.2 35.7c-.6 1.7-2.4 2.3-3.5 1.2z"/><path class="st6" d="m611.5 68.4-1-17.1c0-.3-.2-.5-.4-.7l-14.7-8.8c-.6-.4-.5-1.3.2-1.5l15.9-6.3c.3-.1.5-.3.5-.6l3.9-16.7c.2-.7 1-.9 1.5-.4l10.9 13.2c.2.2.5.3.7.3l17.1-1.5c.7-.1 1.2.7.8 1.3L637.7 44c-.2.3-.2.5-.1.8l6.7 15.8c.3.7-.3 1.3-1 1.2l-16.6-4.3c-.3-.1-.6 0-.8.2l-13 11.2c-.6.5-1.4.2-1.4-.5z"/><path class="st1" d="m1270.3 69.3.7 11.9c0 .2.1.4.3.5l10.2 6.2c.4.3.4.9-.1 1.1l-11.1 4.4c-.2.1-.3.2-.4.4l-2.7 11.6c-.1.5-.7.6-1 .3l-7.6-9.2c-.1-.1-.3-.2-.5-.2l-11.8 1c-.5 0-.8-.5-.5-.9l6.4-10.1c.1-.2.1-.4 0-.5l-4.7-11c-.2-.5.2-.9.7-.8l11.5 3c.2 0 .4 0 .5-.1l9-7.8c.5-.5 1-.3 1.1.2z"/><path class="st2" d="m1296.2 10.3-4.3 9.4c-.1.2-.1.4.1.5l5.3 8.9c.2.4-.1.8-.5.8l-10.3-1.2c-.2 0-.4.1-.5.2l-6.8 7.8c-.3.3-.8.2-.9-.3l-2.1-10.1c-.1-.2-.2-.3-.3-.4l-9.5-4.1c-.4-.2-.4-.7-.1-.9l9-5.1c.2-.1.3-.3.3-.4l.9-10.3c.1-.4.6-.6.9-.4l7.6 7c.1.1.3.2.5.1l10.1-2.3c.5 0 .8.4.6.8zM1228.3 115l-1.2-2.7c0-.1-.1-.1-.1-.1l-2.9-.6c-.1 0-.2-.2-.1-.3l2.2-2c.1-.1.1-.1.1-.2l-.4-2.9c0-.1.1-.2.2-.2l2.6 1.5c.1 0 .1.1.2 0l2.7-1.2c.1-.1.3.1.2.2l-.7 2.9c0 .1 0 .1.1.2l2 2.2c.1.1.1.3-.1.3l-2.9.3c-.1 0-.1.1-.1.1l-1.4 2.6c-.2 0-.4 0-.4-.1z"/><path class="st6" d="m1210.1 56.9-1-17.1c0-.3-.2-.5-.4-.7l-14.7-8.8c-.6-.4-.5-1.3.2-1.5l15.9-6.3c.3-.1.5-.3.5-.6l3.9-16.7c.2-.7 1-.9 1.5-.4l10.9 13.2c.2.2.5.3.7.3l17.1-1.5c.7-.1 1.2.7.8 1.3l-9.2 14.4c-.2.3-.2.5-.1.8l6.7 15.8c.3.7-.3 1.3-1 1.2l-16.6-4.3c-.3-.1-.6 0-.8.2l-13 11.2c-.5.6-1.3.2-1.4-.5z"/><path class="st1" d="M352.4 136.9c-.5 0-.9-.3-1.1-.8l-3.6-8.4-9-1.8c-.5-.1-.8-.4-1-.9-.1-.5 0-.9.4-1.2l6.9-6.1-1.1-9.2c-.1-.5.2-.9.6-1.2s.9-.3 1.3 0l7.9 4.7 8.4-3.8c.4-.2.9-.2 1.3.2.4.3.5.8.4 1.2l-2.1 8.9 6.2 6.8c.3.4.4.8.3 1.3s-.6.7-1 .8l-9.2.8-4.5 8c-.2.4-.6.7-1.1.7zm.3-1.4zm8.9-17zm-7.8-6.4z"/><path class="st2" d="m388.6 99 4.3-9.4c.1-.2.1-.4-.1-.5l-5.3-8.9c-.2-.4.1-.8.5-.8l10.3 1.2c.2 0 .4-.1.5-.2l6.8-7.8c.3-.3.8-.2.9.3l2.1 10.1c.1.2.2.3.3.4l9.5 4.1c.4.2.4.7.1.9l-9 5.1c-.2.1-.3.3-.3.4l-.9 10.3c-.1.4-.6.6-.9.4l-7.6-7c-.1-.1-.3-.2-.5-.1l-10.1 2.3c-.5-.1-.8-.5-.6-.8zm-10.5-42.3-1.9-16.1c-.1-.3-.2-.5-.4-.6l-14.3-7.6c-.6-.3-.6-1.2.1-1.4l14.7-6.8c.3-.1.4-.4.5-.6l2.8-15.9c.1-.7.9-.9 1.4-.4l11 11.9c.2.2.5.3.7.3l16-2.3c.7-.1 1.1.6.8 1.2l-7.9 14.1c-.2.3-.2.5 0 .8l7.1 14.5c.3.6-.2 1.3-.9 1.1l-15.9-3.2c-.3-.1-.5.1-.7.2l-11.6 11.3c-.7.4-1.5.1-1.5-.5z"/><path class="st7" d="m557.3 96.6.4-5.4c0-.1-.1-.2-.1-.3l-4.3-3.4c-.2-.2-.1-.4.1-.5l5.3-1.3c.1 0 .2-.1.2-.2l1.9-5.1c.1-.2.4-.3.5-.1l2.9 4.6c.1.1.2.1.2.1l5.4.2c.2 0 .4.3.2.5l-3.5 4.2c-.1.1-.1.2-.1.3l1.5 5.2c.1.2-.2.4-.4.3l-5.1-2c-.1-.1-.2 0-.3.1l-4.5 3c0 .2-.3 0-.3-.2zm541.6 27.7.4-5.4c0-.1-.1-.2-.1-.3l-4.3-3.4c-.2-.2-.1-.4.1-.5l5.3-1.3c.1 0 .2-.1.2-.2l1.9-5.1c.1-.2.4-.3.5-.1l2.9 4.6c.1.1.2.1.2.1l5.4.2c.2 0 .4.3.2.5l-3.5 4.2c-.1.1-.1.2-.1.3l1.5 5.2c.1.2-.2.4-.4.3l-5.1-2c-.1-.1-.2 0-.3.1l-4.5 3c0 .2-.3 0-.3-.2zM328.8 26.2l-7.4-1.5c-.1 0-.3 0-.4.1l-5.4 5.2c-.2.2-.6.1-.6-.2l-.8-7.5c0-.1-.1-.3-.2-.3l-6.7-3.5c-.3-.2-.3-.6 0-.7l6.9-3.1c.1-.1.2-.2.2-.3l1.3-7.5c.1-.3.5-.4.7-.2l5.1 5.6c.1.1.2.2.3.1l7.5-1c.3-.1.5.3.4.6l-3.8 6.6c-.1.1-.1.3 0 .4l3.3 6.8c.2.2-.1.5-.4.4z"/><path class="st1" d="m457.1 131.4-6.1-5.8c-.1-.1-.3-.2-.4-.1l-8.2 1.7c-.4.1-.6-.3-.5-.6l3.6-7.6c.1-.1.1-.3 0-.4l-4.2-7.2c-.2-.3.1-.7.4-.6l8.3 1.1c.2 0 .3-.1.4-.2l5.6-6.2c.3-.3.7-.2.7.2l1.5 8.2c0 .2.1.3.3.3l7.7 3.4c.3.2.4.6.1.8l-7.4 4c-.1.1-.2.2-.2.3l-.9 8.3c0 .5-.4.7-.7.4z"/><path d="m416.4 130.3.2-2.8c0-.1 0-.1-.1-.1l-2.2-1.7c-.1-.1-.1-.2.1-.3l2.7-.7c.1 0 .1-.1.1-.1l1-2.6c.1-.1.2-.1.3-.1l1.5 2.3c0 .1.1.1.1.1l2.8.1c.1 0 .2.2.1.2l-1.7 2.1-.1.1.8 2.7c.1.1-.1.2-.2.2l-2.6-1h-.1l-2.3 1.5c-.3.3-.4.2-.4.1z" fill="#fff"/><path class="st2" d="m220 126.2-4.1-4.4c-.1-.1-.2-.1-.3-.1l-6 .9c-.3.1-.4-.2-.3-.5l2.9-5.2c.1-.1.1-.2 0-.3l-2.7-5.4c-.1-.2.1-.5.3-.4l5.9 1.2c.1 0 .2 0 .3-.1l4.3-4.2c.2-.2.5-.1.5.2l.7 6c0 .1.1.2.2.2l5.3 2.8c.2.1.2.4 0 .6l-5.5 2.5c-.1.1-.2.1-.2.2l-1 6c.2.1-.1.1-.3 0zm992.1-35.6-4.1-4.4c-.1-.1-.2-.1-.3-.1l-6 .9c-.3.1-.4-.2-.3-.5l2.9-5.2c.1-.1.1-.2 0-.3l-2.7-5.4c-.1-.2.1-.5.3-.4l5.9 1.2c.1 0 .2 0 .3-.1l4.3-4.2c.2-.2.5-.1.5.2l.7 6c0 .1.1.2.2.2l5.3 2.8c.2.1.2.4 0 .6l-5.5 2.5c-.1.1-.2.1-.2.2l-1 6c.1.1-.2.1-.3 0z"/><path class="st1" d="m52.4 80.7 4.3 14.4c.1.3.3.4.5.5l14.3 4.6c.6.2.7 1 .2 1.3l-12.4 8.6c-.2.2-.3.4-.3.6V126c0 .6-.7 1-1.2.6l-12-9.2c-.2-.2-.5-.2-.7-.1L30.8 122c-.6.2-1.1-.4-.9-1l5-14.2c.1-.3.1-.5-.1-.7l-8.9-12.2c-.4-.5 0-1.2.6-1.2l15.1.4c.3 0 .5-.1.6-.3L51 80.6c.5-.6 1.3-.5 1.4.1z"/><path class="st2" d="m227.6 79.2 1.2 2.7c0 .1.1.1.1.1l2.9.6c.1 0 .2.2.1.3l-2.2 2c-.1.1-.1.1-.1.2l.4 2.9c0 .1-.1.2-.2.2l-2.6-1.5c-.1 0-.1-.1-.2 0l-2.7 1.2c-.1.1-.3-.1-.2-.2l.7-2.9c0-.1 0-.1-.1-.2l-2-2.2c-.1-.1-.1-.3.1-.3l2.9-.3c.1 0 .1-.1.1-.1l1.4-2.6c.2 0 .4 0 .4.1z"/><path d="m278.3 112.9-.4-24.6c0-.4-.2-.8-.6-1l-20.5-13.7c-.9-.6-.7-1.9.3-2.2l23.3-7.9c.4-.2.7-.5.8-.8l6.7-23.7c.3-1 1.5-1.2 2.2-.4l14.8 19.7c.3.3.6.5 1 .5l24.6-1c1-.1 1.6 1.1 1.1 2l-14.2 20.1c-.3.3-.3.8-.2 1.1l8.5 23.1c.4 1-.6 1.9-1.5 1.6l-23.5-7.3c-.4-.1-.8-.1-1.1.2l-19.3 15.3c-.8.6-2 0-2-1zm846.1-30.3-.2-16.8c0-.3-.1-.5-.4-.7l-14-9.3c-.6-.4-.5-1.3.2-1.5l15.9-5.4c.2-.1.5-.3.5-.6l4.6-16.2c.2-.7 1.1-.8 1.5-.3l10.1 13.5c.2.2.4.4.7.4l16.8-.7c.7 0 1.1.8.7 1.3l-9.7 13.7c-.2.2-.2.5-.1.8l5.8 15.8c.2.7-.4 1.3-1.1 1.1l-16.1-5c-.3-.1-.6 0-.8.1l-13.2 10.4c-.4.4-1.2.1-1.2-.6z" fill="#75c2f6"/><path class="st1" d="M558.4 41.9c-.2 0-.3 0-.4-.1-.5-.2-.8-.6-.8-1l-1.2-9.1-8.2-4.2c-.4-.2-.7-.7-.7-1.1 0-.5.3-.9.7-1.1l8.3-4 1.4-9.1c.1-.5.4-.8.9-1 .5-.2.9 0 1.3.3l6.3 6.7 9.1-1.4c.5-.1.9.1 1.2.5.3.4.3.9.1 1.3l-4.4 8.1 4.2 8.2c.2.4.2.9-.1 1.3-.3.4-.8.6-1.2.5l-9-1.7-6.5 6.5c-.3.3-.7.4-1 .4zm.3-1.3zm-311.3 2.6c-.1 0-.2 0-.3-.1-.5-.1-.9-.5-1.1-1L243 30l-11.8-4.4c-.5-.2-.9-.6-.9-1.2-.1-.5.2-1 .7-1.3l10.6-6.7.5-12.5c0-.5.4-1 .8-1.2.5-.2 1-.2 1.5.2L254 11l12.1-3.3c.5-.2 1.1 0 1.4.4.4.4.5 1 .3 1.4l-4.7 11.7 6.9 10.5c.3.5.3 1 .1 1.5s-.8.7-1.3.7l-12.5-.9-7.8 9.8c-.3.3-.6.4-1.1.4zm-44.8 21.9-6.1-7.4c-.1-.1-.3-.2-.4-.2l-9.5.9c-.4.1-.7-.4-.5-.7l5.1-8.1c.1-.2.1-.3.1-.5l-3.8-8.8c-.2-.4.2-.8.6-.7l9.3 2.3c.2.1.3 0 .4-.1l7.2-6.3c.3-.3.8-.1.8.3l.7 9.6c0 .2.1.3.3.4l8.2 4.9c.4.2.3.7-.1.9l-8.9 3.5c-.2.1-.3.2-.3.4l-2.1 9.3c-.2.5-.7.6-1 .3z"/><path class="st2" d="m60.9 51.7-7.6-8.9c-.1-.2-.3-.2-.5-.2l-11.6 1.2c-.5.1-.8-.5-.6-.9l6.1-10c.1-.2.1-.4.1-.6L42 21.6c-.2-.5.2-.9.7-.8L54 23.7c.2.1.4 0 .5-.2l8.7-7.8c.4-.3.9-.1 1 .4l.9 11.7c0 .2.1.4.3.5l10.1 5.8c.4.3.4.9-.1 1l-10.8 4.5c-.2.1-.3.2-.4.4l-2.4 11.5c0 .4-.6.6-.9.2z"/><path class="st7" d="m87.7 130.4-.1-9c0-.2-.1-.3-.2-.4l-7.5-5c-.3-.2-.3-.7.1-.8l8.5-2.9c.2-.1.3-.2.3-.3l2.4-8.6c.1-.4.6-.5.8-.2l5.4 7.2c.1.1.2.2.4.2l9-.4c.4 0 .6.4.4.7l-5.2 7.4c-.1.1-.1.3-.1.4l3.1 8.4c.2.4-.2.7-.6.6l-8.6-2.7c-.2-.1-.3 0-.4.1l-7 5.6c-.3.2-.7 0-.7-.3z"/><path class="st1" d="M170.9 139.7c-.3 0-.5-.1-.7-.2l-6.6-4.5-7.5 2.8c-.4.2-.9.1-1.2-.3-.3-.3-.5-.8-.3-1.2l2.3-7.6-5-6.2c-.3-.4-.4-.8-.2-1.2.2-.4.6-.7 1-.7l8-.2 4.4-6.7c.3-.4.7-.6 1.1-.5.5.1.8.4 1 .8l2.7 7.5 7.7 2.1c.4.1.8.5.9.9.1.5-.1.9-.5 1.2l-6.3 4.8.4 8c0 .5-.2.9-.6 1.1-.2 0-.4.1-.6.1zm-.4-1.2zm.6-.3zm-7.6-3.4zm8-4.2zm.2-.3zm-2-8.9zm-8.7-1zM4.8 59l1.9-5.7c.1-.1 0-.2-.1-.3L3 48.2c-.2-.2 0-.5.3-.5l6 .1c.1 0 .2-.1.3-.2l3.4-4.9c.2-.2.5-.2.5.1l1.9 5.8c.1.1.1.2.2.2l5.8 1.7c.3.1.3.4.1.5l-4.9 3.5c-.1.1-.1.2-.1.3l.1 6c0 .3-.3.4-.5.3l-4.8-3.6c-.1-.1-.2-.1-.3-.1l-5.8 2c-.2.1-.4-.1-.4-.4z"/></g></svg>