<svg version="1.1" id="Layer_1" xmlns="http://www.w3.org/2000/svg" x="0" y="0" viewBox="0 0 1206.3 144" xml:space="preserve"><style>.st0{fill:#00a89f}.st1{fill:#ff005e}.st2{fill:#0bdbd5}.st3{fill:#ffc101}.st4{fill:#e20560}</style><path class="st0" d="M98.7 113.9c-.1.1-.2.1-.3.2h.1c.1-.1.2-.1.2-.2zm1.7 22.2h-.2c-.1.1-.2.1-.2.2.2-.1.3-.2.4-.2z"/><path class="st0" d="M101.2 135.3c-.3.3-.7.6-1.2.9.1 0 .2 0 .2-.1.4-.3.7-.5 1-.8zm-10.4-17.2c.1 0 .1 0 0 0 .1-.1.2-.1.2-.1s-.1.1-.2.1z"/><path class="st0" d="M93.6 139.7c2.1-1.1 4.5-2 6.5-3.5-2.4 1.2-4.7 2.5-7.1 3.7.2 0 .4-.1.6-.2zm-2.2-21.9c-.1.1-.2.1-.3.2 2.4-1.3 4.9-2.6 7.3-3.9-2.4.9-4.8 2.5-7 3.7zm3.4-.3c8 .7 13.3 12.6 22.3 8.1 3.7-1.9 8-3.6 11-6.5 5.3-5.4.4-12.9-3.1-17.5-.3-.4-7.8 4.6-8 4.3 3.8 5 7.2 11.6 3.8 16.6 1.4.1 2.8-.2 4.3-1-2.5 1.3-5 2.7-7.5 4 1.4-.9 2.5-1.9 3.2-3-5-.2-9.2-5.1-13.4-7.7-3-1.9-6-1.6-8.8-.5-1.6.7-2.8 1.8-3.8 3.2z"/><path class="st0" d="M94.8 117.5c.9-1.4 2.2-2.5 3.7-3.4h-.1c-2.4 1.3-4.9 2.6-7.3 3.9-.1 0-.1.1-.2.1 1.4-.5 2.7-.7 3.9-.6zm-2.4 22.8.6-.3c-.2.1-.3.1-.4.2-.1 0-.1.1-.2.1z"/><path class="st0" d="M86.6 136.6c1.2 3.1 3.3 4.4 6 3.5l.6-.6c1.7-1.7 4.7-2.1 6.9-3.4-4.7 1.2-6.3-5.5-7-9.1-.7-3.4 0-6.9 1.8-9.6-1.2-.1-2.5 0-3.9.6-6.9 4.2-7.1 11.7-4.4 18.6z"/><path class="st0" d="M92.6 140.2c.1-.1.3-.1.4-.2 2.4-1.2 4.7-2.5 7.1-3.7.1-.1.2-.1.2-.2-.1 0-.2 0-.2.1-2.1 1.3-5.2 1.7-6.9 3.4l-.6.6zm25-14.9c2.5-1.3 5-2.7 7.5-4-1.5.8-2.9 1-4.3 1-.8 1.1-1.8 2.1-3.2 3z"/><path class="st1" d="M607.9 32.7c-1.5-1.1-2.9-2.5-4.6-3.4 2.4 1.8 4.7 3.6 7.1 5.4-.8-.7-1.7-1.4-2.5-2zm-4.6 8.2c-2 3.1-5.6 7.3-9.7 6.6 2.6.5 4.6 5 7.2 5.5 6.5 1.2 12.9-9.1 11.8-14.7-.3-1.5-1.2-2.6-2.2-3.5-.5-.4-1.1-.7-1.8-.8-1.7-.6-3-2.1-4.4-3.5 2.4 3.1 1.3 7.1-.9 10.4z"/><path class="st1" d="M601.4 28.4c1.1.4 2 1.1 2.9 2-.3-.4-.6-.8-1-1.1-.6-.4-1.2-.7-1.9-.9zm1.9.9zm7.2 5.5c0-.1-.1-.1 0 0-.1-.1-.1-.1 0 0 0-.1 0 0 0 0z"/><path class="st1" d="M608.6 33.9c.7.1 1.3.4 1.8.8-2.4-1.8-4.7-3.6-7.1-5.4.4.4.7.7 1 1.1 1.4 1.4 2.7 2.9 4.3 3.5z"/><path class="st2" d="M685.4 121.4c-.5.1.3 9 0 9.1 6.3-.9 7.8-5.9 8.2-11.1-.2-1.2-.5-2.4-1-3.5-1.3 2.9-3.7 5-7.2 5.5zm8.3-3.1c0-1 .1-2.1.1-3.1v-3.3 3.9c-.1.9-.1 1.7-.1 2.5zm0 1.5v-1.5c0 .3 0 .7-.1 1 0 .2.1.4.1.5zm0-7.9zm-10.4-5c4 2.1 7.5 5 9.3 9 .6-1.2.9-2.6 1.1-4-.1-1.6-.3-3.2-.9-4.9-1.5-4.3-5.6-7.2-9.5-9.2 1.2.6-1.2 8.4 0 9.1z"/><path class="st2" d="M693.6 119.4c0-.3 0-.7.1-1v-2.5.6-1.2.6-3.9c-.2 1.4-.5 2.7-1.1 4 .5 1 .8 2.1 1 3.4zm0-3v-1.2 1.2z"/><path class="st3" d="M12.1 50.4v-.6.6zm-.1-6.8c0 2.1-.1 4.2 0 6.3v-7.4c.1.3 0 .7 0 1.1zm.2 8c.5 4.8 6.2 7.1 10 8.7-1-.4 1.1-8.6 0-9.1-3.1-1.2-6.2-2.7-8.2-5.1-1 1.1-1.7 2.4-1.9 4.1 0 .5.1 1 .1 1.4zm-.1-10.3v1.1c0-.2 0-.5.1-.7-.1-.1-.1-.2-.1-.4zm3.6-5.9c-2.3 2-3.2 3.8-3.5 6.3.3 1.8.9 3.2 1.9 4.4.7-.8 1.6-1.6 2.5-2.4 2.7-2.3 4-5.4 4.2-8.9.3-4.4.6-9.9-1-14.1 1 2.6-1 6.4 0 9.1v.1c.5-1.2.8-2.6.9-4.2v8.9c0-1.8-.3-3.1-.9-4.8-.8 2.2-2.2 4-4.1 5.6z"/><path class="st3" d="M20.8 25.8c-.1 1.5-.4 2.9-.9 4.2.6 1.6.9 3 .9 4.8v-9zm-8.7 16.6v7.8c.2-1.8.9-3 1.9-4.1-1-1.2-1.6-2.6-1.9-4.4v.7z"/><path class="st1" d="m429.4 23.5 4 8 3.9-8 8.8-1.2-6.4-6.2 1.5-8.8-7.8 4.1-7.9-4.1 1.5 8.8-6.3 6.2zm766.2 5.3-4.4-5-1.2 6.5-6.1 2.7 5.8 3.2.7 6.5 4.8-4.5 6.4 1.4-2.8-5.9 3.4-5.7z"/><path class="st2" d="m660.9 56.5-2.7-5.2-2.5 5.4-5.8 1 4.4 4-.8 5.8 5.1-2.9 5.3 2.5-1.2-5.7 4.1-4.3z"/><path class="st1" d="M28.1 86.5c9.9-4.5 19.7-9.2 29.3-14 .6-.3 1.3-.1 1.8.4C66 81.2 72.9 89.5 80 97.7c.8.9 2.3.6 2.5-.5 4.6-24.2 9.2-48.3 13.8-72.5-17.7-3.3-35.3-7.1-52.9-11.4C37.6 37.2 31.8 61.1 26.1 85c-.3 1.1.9 2 2 1.5z"/><path class="st4" d="M82.5 22c-4.2-.9-8.4-1.7-12.6-2.6 7.9 6.2 15.8 12.4 23.9 18.5.4-2.1.8-4.2 1.2-6.2-4.2-3.3-8.4-6.4-12.5-9.7zm-.1 75.5-6.6-4.8c1.4 1.7 2.9 3.3 4.3 5 .6.8 1.9.7 2.3-.2zM90 58C73.4 45.8 57.3 33.2 41.7 20.2c-.5 2.1-1 4.1-1.5 6.2 15.7 13 31.9 25.6 48.5 37.8.5-2 .9-4.1 1.3-6.2zm2.5-13.2C80 35.5 67.8 26 55.9 16.3c-4.2-1-8.3-1.9-12.5-2.9C58.9 26.3 74.8 38.8 91.3 51c.4-2 .8-4.1 1.2-6.2zM29.1 72.5c-.5 2.1-1 4.1-1.5 6.2 2.1 1.7 4.3 3.4 6.5 5.1 2-.9 3.9-1.8 5.8-2.7-3.6-2.9-7.2-5.8-10.8-8.6zm3.2-13.1c-.5 2.1-1 4.1-1.5 6.2 5.2 4.1 10.4 8.3 15.6 12.3 1.9-.9 3.9-1.9 5.8-2.8-6.7-5.2-13.4-10.4-19.9-15.7zm52.7 25c-17-12.3-33.5-25-49.5-38-.5 2.1-1 4.1-1.5 6.2 16 13 32.7 25.7 49.8 38 .4-2 .8-4.1 1.2-6.2zm2.5-13.2C70.7 58.9 54.4 46.3 38.6 33.3c-.5 2.1-1 4.1-1.5 6.2 15.9 13 32.3 25.7 49.2 38l1.2-6.3z"/><path class="st0" d="M98.5 101.2c9.6-5.2 19-10.4 28.3-15.8.6-.3 1.3-.2 1.8.3 7.3 7.9 14.7 15.8 22.3 23.5.8.8 2.3.4 2.4-.7 3.1-24.4 6.2-48.8 9.4-73.2-17.8-2.3-35.6-5-53.4-8.2L96.4 99.7c-.2 1.2 1.1 2 2.1 1.5z"/><path class="st2" d="M108 34.7c-.5 2.8-1 5.7-1.5 8.5 2.1-.1 3.9-1.5 4.3-3.6.3-2.1-.9-4.1-2.8-4.9zm16.7 7.2c.4-2.4-1.3-4.7-3.8-5.1-2.5-.4-4.8 1.2-5.2 3.6-.4 2.4 1.3 4.7 3.8 5.1 2.5.4 4.8-1.2 5.2-3.6zm14 2.2c.4-2.4-1.4-4.7-3.8-5.1-2.5-.4-4.8 1.3-5.2 3.7-.4 2.4 1.3 4.7 3.8 5.1 2.5.3 4.8-1.3 5.2-3.7zm14 1.9c.3-2.4-1.4-4.7-3.9-5-2.5-.3-4.8 1.3-5.1 3.7-.4 2.4 1.4 4.7 3.9 5 2.4.5 4.7-1.2 5.1-3.7zm9-3.1c-2.1.2-3.8 1.7-4.1 3.8-.3 2.1 1 4.1 3 4.7.4-2.8.8-5.7 1.1-8.5zM119.4 31c.1-.7 0-1.4-.2-2.1-2.6-.4-5.2-.9-7.8-1.4-.4.5-.7 1.2-.9 1.9-.4 2.4 1.2 4.7 3.7 5.1 2.4.5 4.8-1.1 5.2-3.5zm13.8 2.2c.1-.7 0-1.4-.2-2.1-2.6-.4-5.2-.8-7.9-1.3-.4.6-.7 1.2-.9 1.9-.4 2.4 1.3 4.7 3.8 5.1 2.5.5 4.8-1.2 5.2-3.6zm13.9 2.1c.1-.7 0-1.4-.2-2.1-2.6-.4-5.2-.8-7.9-1.2-.4.6-.7 1.2-.8 1.9-.4 2.4 1.3 4.7 3.8 5 2.4.5 4.7-1.2 5.1-3.6zm13.8 1.8c.1-.7 0-1.4-.3-2.1-2.6-.3-5.3-.7-7.9-1.1-.4.6-.7 1.2-.8 2-.3 2.4 1.4 4.7 3.9 5 2.5.4 4.8-1.3 5.1-3.8zm-56.4 17.1c-.5 2.8-1 5.7-1.5 8.5 2.1-.1 4-1.5 4.3-3.6.4-2.1-.8-4.1-2.8-4.9zm17 7.3c.4-2.4-1.3-4.7-3.9-5.1-2.5-.4-4.9 1.2-5.3 3.6-.4 2.4 1.3 4.7 3.9 5.1 2.6.4 5-1.2 5.3-3.6zm14.3 2.2c.4-2.4-1.4-4.7-3.9-5.1-2.5-.4-4.9 1.3-5.3 3.7-.4 2.4 1.4 4.7 3.9 5.1 2.5.3 4.9-1.3 5.3-3.7zm14.2 2c.3-2.4-1.5-4.7-4-5-2.5-.4-4.9 1.3-5.2 3.7-.4 2.4 1.4 4.7 4 5 2.5.4 4.9-1.3 5.2-3.7zm9.2-3.2c-2.1.2-3.9 1.7-4.2 3.8-.3 2.1 1 4.1 3.1 4.8.4-2.8.7-5.7 1.1-8.6zm-43.1-12c.4-2.4-1.3-4.7-3.8-5.1-2.5-.4-4.9 1.2-5.3 3.6-.4 2.4 1.3 4.7 3.8 5.2 2.5.4 4.9-1.3 5.3-3.7zm14.1 2.3c.4-2.4-1.3-4.7-3.8-5.1-2.5-.4-4.8 1.2-5.2 3.6-.4 2.4 1.3 4.7 3.8 5.1 2.4.5 4.8-1.2 5.2-3.6zm14.1 2.1c.3-2.4-1.4-4.7-3.9-5-2.5-.4-4.8 1.3-5.2 3.7-.4 2.4 1.4 4.7 3.9 5.1 2.5.3 4.8-1.4 5.2-3.8zm14.1 1.9c.3-2.4-1.5-4.7-4-5-2.5-.3-4.8 1.3-5.1 3.8-.3 2.4 1.4 4.7 4 5 2.5.3 4.8-1.4 5.1-3.8zM101 73.7c-.5 2.8-1 5.7-1.5 8.5 2.2-.1 4-1.5 4.4-3.6.4-2.1-.9-4.1-2.9-4.9zm17.4 7.3c.4-2.4-1.4-4.7-3.9-5.1-2.6-.4-5 1.2-5.4 3.6-.4 2.4 1.3 4.7 3.9 5.2 2.6.4 5-1.3 5.4-3.7zm8.4 4.4c.6-.3 1.3-.2 1.8.3.4.4.7.8 1.1 1.2 1.6-.5 2.9-1.8 3.2-3.5.4-2.4-1.4-4.7-4-5.1-2.6-.4-5 1.2-5.3 3.7-.3 1.7.6 3.3 2 4.3.3-.4.8-.7 1.2-.9zm20.5-.1c.3-2.4-1.5-4.7-4.1-5-2.6-.4-4.9 1.3-5.3 3.7-.4 2.4 1.5 4.7 4.1 5 2.6.4 5-1.2 5.3-3.7zm9.4-3.1c-2.1.2-3.9 1.7-4.2 3.8-.3 2.1 1.1 4.1 3.1 4.8.4-2.9.7-5.7 1.1-8.6zm-43.9-12.1c.4-2.4-1.3-4.7-3.9-5.2-2.5-.4-4.9 1.2-5.4 3.6-.4 2.4 1.3 4.7 3.9 5.2 2.6.4 5-1.2 5.4-3.6zm14.3 2.3c.4-2.4-1.4-4.7-3.9-5.1-2.5-.4-4.9 1.2-5.3 3.6-.4 2.4 1.4 4.7 3.9 5.1 2.6.4 5-1.2 5.3-3.6zm14.4 2.1c.3-2.4-1.4-4.7-4-5.1-2.5-.4-4.9 1.3-5.3 3.7-.4 2.4 1.4 4.7 4 5.1 2.6.4 4.9-1.3 5.3-3.7zm14.3 2c.3-2.4-1.5-4.7-4.1-5-2.5-.3-4.9 1.3-5.2 3.8-.3 2.4 1.5 4.7 4 5 2.7.3 5-1.4 5.3-3.8zm-55.3 21.6c.4-2.1-.9-4.1-3-4.9l-1.2 6.6c-.2.9.7 1.6 1.6 1.5 1.4-.6 2.4-1.7 2.6-3.2zm7.1-1.9c.1 0 .1 0 0 0 .1 0 .1 0 0 0zm36 5.4c.1 0 .1.1 0 0 .1.1 0 0 0 0zm9.7 6.9c.3-2.2.6-4.4.8-6.6-2.2.2-4 1.7-4.3 3.8-.2 1.5.4 2.8 1.5 3.8.9.3 1.9-.1 2-1zm-43.8-18.9c.4-2.4-1.4-4.7-3.9-5.2-2.6-.4-5 1.1-5.4 3.5-.4 2.4 1.3 4.7 3.9 5.2 2.6.5 5-1.1 5.4-3.5zm10.6-2.7c-2.6-.4-5 1.2-5.4 3.6-.1.6-.1 1.2.1 1.7 2.6-1.4 5.1-2.9 7.6-4.3-.6-.5-1.4-.9-2.3-1zm14.5 2.2c-.9-.1-1.8 0-2.5.3 2 2.1 4 4.3 6 6.4.3-.5.5-1 .6-1.6.3-2.5-1.5-4.7-4.1-5.1zm18.7 7c.3-2.4-1.5-4.7-4.1-5-2.6-.3-5 1.3-5.3 3.8-.3 2.4 1.5 4.7 4.1 5 2.6.4 5-1.3 5.3-3.8z"/><path class="st1" d="M169 111.4c9.2-5.7 18.3-11.6 27.3-17.5.6-.4 1.3-.3 1.8.2 7.7 7.5 15.6 14.8 23.6 22.1.9.8 2.3.3 2.4-.8 1.6-24.5 3.3-49.1 4.9-73.6-17.9-1.2-35.8-2.8-53.7-4.9-2.8 24.4-5.7 48.8-8.5 73.3-.1 1 1.2 1.8 2.2 1.2z"/><path class="st4" d="M214.9 40.7c-4.3-.3-8.5-.7-12.8-1.1C210.6 44.8 219.2 50 228 55c.1-2.1.3-4.2.4-6.3-4.5-2.6-9-5.3-13.5-8zm9.1 75c-2.4-1.3-4.8-2.6-7.2-4 1.6 1.5 3.2 3 4.9 4.4.7.8 1.9.4 2.3-.4zm-49.5-71.8c-.2 2.1-.5 4.2-.7 6.3 17 10.9 34.6 21.5 52.5 31.6.1-2.1.3-4.2.4-6.3-17.9-10.1-35.3-20.7-52.2-31.6zm13.5-5.6c-4.2-.4-8.5-.9-12.7-1.4 16.8 10.9 34.1 21.5 51.9 31.6.1-2.1.3-4.2.4-6.3-13.5-7.8-26.7-15.8-39.6-23.9zm-19.7 59c-.2 2.1-.5 4.2-.7 6.3 2.3 1.4 4.7 2.9 7 4.3 1.8-1.1 3.6-2.3 5.4-3.4l-11.7-7.2zm1.5-13.4c-.2 2.1-.5 4.2-.7 6.3 5.6 3.5 11.2 6.9 16.9 10.3 1.8-1.2 3.6-2.3 5.4-3.5-7.3-4.2-14.5-8.6-21.6-13.1zm1.6-13.3c-.2 2.1-.5 4.2-.7 6.3 17.5 11 35.4 21.6 53.8 31.8.1-2.1.3-4.2.4-6.3-18.3-10.2-36.2-20.8-53.5-31.8zm1.5-13.4c-.2 2.1-.5 4.2-.7 6.3 17.3 11 35 21.6 53.2 31.7.1-2.1.3-4.2.4-6.3-18.1-10.1-35.7-20.7-52.9-31.7z"/><path class="st0" d="M240.3 117.3c8.9-6.3 17.6-12.6 26.1-19.1.5-.4 1.3-.4 1.8.1 8.2 7 16.5 13.9 24.9 20.7.9.7 2.3.1 2.3-1 .1-24.6.3-49.2.4-73.8-17.9-.1-35.9-.6-53.8-1.6-1.3 24.6-2.7 49.1-4 73.7 0 1 1.4 1.7 2.3 1z"/><path class="st2" d="M241.7 50.2c-.2 2.9-.3 5.8-.5 8.6 2.1-.3 3.7-2 3.8-4.1.1-2.1-1.3-4-3.3-4.5zm17.4 5.1c.1-2.4-1.9-4.5-4.4-4.6-2.5-.1-4.6 1.8-4.7 4.2-.1 2.4 1.8 4.5 4.4 4.6 2.5.2 4.6-1.7 4.7-4.2zm14.1.5c.1-2.4-1.9-4.5-4.4-4.6-2.5-.1-4.6 1.8-4.7 4.3-.1 2.4 1.9 4.5 4.4 4.6 2.5 0 4.6-1.9 4.7-4.3zm14.1.2c0-2.4-2-4.5-4.5-4.5s-4.6 1.9-4.6 4.3c-.1 2.4 1.9 4.5 4.5 4.5 2.5.1 4.5-1.8 4.6-4.3zm8.6-4.2c-2 .4-3.6 2.2-3.6 4.3 0 2.1 1.5 3.9 3.5 4.3 0-2.8.1-5.7.1-8.6zm-43.4-6.7c0-.7-.1-1.4-.4-2.1-2.6-.1-5.3-.3-7.9-.4-.4.6-.6 1.3-.6 2-.1 2.4 1.8 4.5 4.3 4.7 2.4.2 4.5-1.7 4.6-4.2zm14 .6c0-.7-.2-1.4-.5-2.1-2.6-.1-5.3-.2-7.9-.3-.4.6-.6 1.3-.6 2-.1 2.4 1.8 4.5 4.3 4.6 2.5.1 4.6-1.8 4.7-4.2zm13.9.3c0-.7-.2-1.4-.5-2.1-2.6-.1-5.3-.1-7.9-.2-.3.6-.6 1.3-.6 2-.1 2.4 1.9 4.5 4.4 4.5 2.5.2 4.6-1.7 4.6-4.2zm14 .2c0-.7-.2-1.4-.5-2-2.6 0-5.3 0-7.9-.1-.3.6-.5 1.3-.6 2 0 2.4 2 4.5 4.5 4.5 2.4 0 4.5-1.9 4.5-4.4zM240.6 70c-.2 2.9-.3 5.8-.5 8.6 2.1-.3 3.8-2 3.9-4.1.1-2.1-1.3-4-3.4-4.5zm17.7 5.1c.1-2.4-1.9-4.5-4.4-4.6-2.5-.1-4.7 1.8-4.8 4.2-.1 2.4 1.9 4.5 4.4 4.6 2.6.2 4.7-1.7 4.8-4.2zm14.4.5c.1-2.4-1.9-4.5-4.5-4.6-2.5-.1-4.7 1.8-4.8 4.3-.1 2.4 1.9 4.5 4.5 4.6 2.6.1 4.7-1.9 4.8-4.3zm14.3.3c0-2.4-2-4.5-4.5-4.5s-4.6 1.9-4.7 4.3c-.1 2.4 2 4.5 4.5 4.5 2.6.1 4.7-1.9 4.7-4.3zm8.8-4.3c-2.1.4-3.6 2.2-3.7 4.3 0 2.1 1.5 3.9 3.6 4.3 0-2.8 0-5.7.1-8.6zm-44.2-6.7c.1-2.4-1.8-4.5-4.4-4.6-2.5-.1-4.7 1.7-4.8 4.2-.1 2.4 1.8 4.5 4.4 4.7 2.6.1 4.7-1.8 4.8-4.3zm14.2.6c.1-2.4-1.9-4.5-4.4-4.6-2.5-.1-4.6 1.8-4.7 4.2-.1 2.4 1.9 4.5 4.4 4.6 2.5.1 4.6-1.8 4.7-4.2zm14.2.3c0-2.4-2-4.5-4.5-4.5-2.5-.1-4.6 1.9-4.7 4.3-.1 2.4 1.9 4.5 4.5 4.5 2.6.1 4.7-1.8 4.7-4.3zm14.3.2c0-2.4-2-4.4-4.5-4.5-2.5 0-4.6 1.9-4.6 4.4 0 2.4 2 4.5 4.5 4.5 2.5.1 4.5-1.9 4.6-4.4zm-54.8 23.8c-.2 2.9-.3 5.8-.5 8.6 2.1-.3 3.8-2 3.9-4.1.2-2.1-1.3-4-3.4-4.5zm18.1 5.1c.1-2.4-1.9-4.5-4.5-4.6-2.6-.1-4.8 1.8-4.9 4.2-.1 2.4 1.9 4.5 4.5 4.6 2.6.2 4.8-1.7 4.9-4.2zm8.9 3.3c.5-.4 1.3-.4 1.8.1.4.3.8.7 1.2 1 1.6-.7 2.7-2.1 2.7-3.9.1-2.4-2-4.5-4.6-4.6-2.6-.1-4.8 1.8-4.8 4.3-.1 1.7 1 3.2 2.5 4 .3-.3.7-.6 1.2-.9zm20.2-2.5c0-2.4-2-4.5-4.6-4.5-2.6 0-4.7 1.9-4.8 4.3-.1 2.4 2 4.5 4.6 4.5 2.7.1 4.8-1.9 4.8-4.3zm8.9-4.2c-2.1.4-3.7 2.2-3.7 4.3 0 2.1 1.6 3.9 3.7 4.3v-8.6zm-44.9-6.8c.1-2.4-1.9-4.5-4.4-4.6-2.6-.1-4.7 1.7-4.9 4.2-.1 2.4 1.9 4.5 4.4 4.7 2.6.1 4.8-1.8 4.9-4.3zm14.5.6c.1-2.4-1.9-4.5-4.5-4.6-2.6-.1-4.7 1.8-4.8 4.2-.1 2.4 1.9 4.5 4.5 4.6 2.5.2 4.7-1.8 4.8-4.2zm14.4.4c0-2.4-2-4.5-4.6-4.5-2.6-.1-4.7 1.9-4.8 4.3-.1 2.4 2 4.5 4.6 4.5 2.7.1 4.8-1.9 4.8-4.3zm14.5.2c0-2.4-2.1-4.4-4.6-4.5-2.6 0-4.7 1.9-4.7 4.4 0 2.4 2 4.5 4.6 4.5 2.6 0 4.7-2 4.7-4.4zm-54.3 31.6c1.2-.7 2.1-2 2.2-3.5.1-2.1-1.4-4-3.5-4.5-.1 2.2-.2 4.4-.4 6.7-.1.9.8 1.5 1.7 1.3zm9-6.2s0-.1 0 0c0-.1 0 0 0 0zm36.2 1c.1 0 .1 0 0 0 .1 0 .1 0 0 0zm10.5 5.6v-6.7c-2.1.4-3.8 2.2-3.8 4.3 0 1.5.8 2.8 2 3.6.8.3 1.8-.2 1.8-1.2zm-45.7-13.4c.1-2.4-1.9-4.5-4.5-4.6-2.6-.1-4.8 1.7-5 4.2-.1 2.4 1.9 4.5 4.5 4.7 2.7.1 4.9-1.8 5-4.3zm10.2-4c-2.6-.1-4.8 1.8-4.9 4.2 0 .6.1 1.2.3 1.7 2.4-1.7 4.7-3.5 7-5.2-.7-.4-1.5-.6-2.4-.7zm14.6.5c-.9 0-1.7.2-2.5.6 2.2 1.9 4.5 3.8 6.7 5.6.2-.5.4-1.1.4-1.7.1-2.5-2-4.5-4.6-4.5zm19.4 4.7c0-2.4-2.1-4.4-4.7-4.5-2.6 0-4.8 1.9-4.8 4.4 0 2.4 2.1 4.5 4.7 4.5s4.8-2 4.8-4.4z"/><path class="st1" d="M311.3 118.9c8.5-6.8 16.8-13.7 24.9-20.7.5-.4 1.3-.5 1.8-.1 8.6 6.5 17.3 12.8 26.1 19.1.9.7 2.3 0 2.3-1.1-1.3-24.6-2.7-49.1-4-73.7-17.9 1-35.9 1.5-53.8 1.6.1 24.6.3 49.2.4 73.8 0 1.2 1.4 1.8 2.3 1.1z"/><path class="st4" d="m362.8 49.5-14.4-6.3c-4.3.2-8.5.3-12.8.5 9.1 4.2 18.3 8.2 27.5 12.2-.1-2.2-.2-4.3-.3-6.4zm3.6 67.1c-2.5-1-5.1-2-7.6-3.1 1.8 1.3 3.6 2.6 5.4 3.8.8.6 2 .1 2.2-.7zm-2.2-40.3c-19-7.9-37.5-16.2-55.6-25.1v6.4c18.2 8.8 36.9 17.2 55.9 25 0-2-.1-4.1-.3-6.3zm-.7-13.4c-14.3-6-28.4-12.3-42.2-18.9-4.3.1-8.5.1-12.8.1 18 8.8 36.4 17.2 55.3 25.1-.1-2-.2-4.2-.3-6.3zm-42.1 47.8c-4.2-1.9-8.3-3.8-12.5-5.7v6.4c2.5 1.1 5 2.3 7.5 3.4 1.7-1.4 3.4-2.7 5-4.1zm10.4-8.7c-7.7-3.4-15.4-6.9-23-10.4V98c6 2.8 12 5.5 18 8.2 1.8-1.4 3.4-2.8 5-4.2zm33.9 1.2c-19.4-7.9-38.4-16.2-56.9-25v6.4c18.7 8.8 37.7 17.2 57.2 25-.1-2.2-.2-4.3-.3-6.4zm-.7-13.5c-19.2-7.9-37.9-16.2-56.3-25v6.4c18.4 8.8 37.3 17.2 56.6 25-.1-2.1-.2-4.2-.3-6.4z"/><path class="st0" d="M382.8 116.2c8-7.3 15.9-14.7 23.6-22.1.5-.5 1.2-.5 1.8-.2 9 5.9 18 11.8 27.3 17.5 1 .6 2.3-.1 2.2-1.2-2.8-24.4-5.7-48.8-8.5-73.3-17.9 2.1-35.7 3.7-53.7 4.9 1.6 24.5 3.3 49.1 4.9 73.6.1 1.1 1.6 1.6 2.4.8z"/><path class="st2" d="M379.9 53.4c-.1-2.1-1.8-3.8-3.9-4.1.2 2.9.4 5.7.6 8.6 2.1-.5 3.5-2.4 3.3-4.5zm14.1-1c-.2-2.4-2.4-4.2-4.9-4-2.5.2-4.4 2.3-4.2 4.8.2 2.4 2.4 4.3 4.9 4.1 2.5-.4 4.4-2.5 4.2-4.9zm14-1.3c-.2-2.4-2.4-4.2-4.9-4-2.5.2-4.3 2.4-4.1 4.8.2 2.4 2.4 4.2 4.9 4 2.5-.2 4.4-2.4 4.1-4.8zm10 3.5c2.5-.3 4.3-2.5 4.1-4.9-.3-2.4-2.5-4.2-5-3.9-2.5.3-4.3 2.4-4.1 4.9.3 2.4 2.5 4.1 5 3.9zm13.1-1.6c-.3-2.9-.7-5.7-1-8.6-2 .7-3.3 2.6-3.1 4.7.3 2.1 2 3.7 4.1 3.9zM382 47.8c2.5-.2 4.4-2.3 4.2-4.8-.1-.7-.3-1.4-.7-2-2.6.2-5.3.4-7.9.6-.3.6-.4 1.3-.4 2.1.2 2.4 2.3 4.3 4.8 4.1zm14-1.1c2.5-.2 4.3-2.4 4.1-4.8-.1-.7-.3-1.4-.7-2-2.6.2-5.3.5-7.9.7-.3.6-.4 1.3-.4 2.1.2 2.4 2.4 4.2 4.9 4zm14-1.3c2.5-.2 4.3-2.4 4.1-4.9-.1-.7-.3-1.4-.7-2-2.6.3-5.3.5-7.9.8-.3.6-.4 1.3-.3 2.1.1 2.5 2.3 4.3 4.8 4zm14-1.4c2.5-.3 4.3-2.5 4-4.9-.1-.7-.4-1.4-.8-2-2.6.3-5.3.6-7.9.9-.3.6-.4 1.4-.3 2.1.2 2.4 2.5 4.1 5 3.9zm-42.7 29.2c-.1-2.1-1.8-3.8-3.9-4.1.2 2.9.4 5.7.6 8.6 2-.5 3.5-2.4 3.3-4.5zm14.3-1.1c-.2-2.4-2.4-4.2-5-4-2.5.2-4.4 2.3-4.3 4.8.2 2.4 2.4 4.3 5 4.1 2.6-.3 4.5-2.4 4.3-4.9zm14.3-1.3c-.2-2.4-2.5-4.2-5-4-2.5.2-4.4 2.4-4.2 4.8.2 2.4 2.5 4.2 5 4 2.6-.2 4.4-2.3 4.2-4.8zm10.2 3.5c2.6-.3 4.4-2.5 4.1-4.9-.3-2.4-2.5-4.2-5.1-3.9-2.5.3-4.4 2.4-4.1 4.9.2 2.4 2.5 4.1 5.1 3.9zm13.3-1.6c-.3-2.9-.7-5.7-1-8.6-2 .7-3.4 2.6-3.1 4.7.2 2.1 2 3.7 4.1 3.9zm-45.7-9.9c-.2-2.4-2.4-4.3-4.9-4.1-2.5.2-4.4 2.3-4.3 4.7.2 2.4 2.4 4.3 4.9 4.1 2.6-.1 4.5-2.3 4.3-4.7zm14.2-1.2c-.2-2.4-2.4-4.2-4.9-4-2.5.2-4.4 2.4-4.2 4.8.2 2.4 2.4 4.2 4.9 4 2.5-.2 4.4-2.3 4.2-4.8zm10 3.5c2.5-.2 4.4-2.4 4.1-4.9-.2-2.4-2.5-4.2-5-4-2.5.2-4.4 2.4-4.1 4.8.2 2.6 2.5 4.4 5 4.1zm14.2-1.4c2.5-.3 4.4-2.5 4.1-4.9-.3-2.4-2.5-4.2-5.1-3.9-2.5.3-4.3 2.5-4.1 4.9.3 2.4 2.6 4.1 5.1 3.9zM382.7 93c-.1-2.1-1.8-3.8-4-4.1.2 2.9.4 5.7.6 8.6 2.1-.5 3.5-2.4 3.4-4.5zm14.5-1.1c-.2-2.4-2.5-4.2-5-4-2.6.2-4.5 2.3-4.3 4.8.2 2.4 2.4 4.3 5 4.1 2.6-.3 4.6-2.5 4.3-4.9zm9.3 2.1c.5-.5 1.2-.5 1.8-.2.4.3.9.6 1.3.9 1.5-.9 2.4-2.4 2.2-4.2-.2-2.4-2.5-4.2-5.1-4-2.6.2-4.5 2.4-4.3 4.8.2 1.7 1.3 3.1 2.9 3.7.4-.2.8-.6 1.2-1zm15.6 0c2.6-.3 4.5-2.5 4.2-4.9-.3-2.4-2.6-4.2-5.1-3.9-2.6.3-4.5 2.4-4.2 4.9.2 2.4 2.5 4.2 5.1 3.9zm13.6-1.6c-.3-2.9-.7-5.7-1-8.6-2 .7-3.4 2.6-3.2 4.7.2 2.1 2 3.7 4.2 3.9zm-46.5-9.8c-.2-2.4-2.4-4.3-5-4.1-2.6.2-4.5 2.3-4.3 4.7.2 2.4 2.4 4.3 5 4.1 2.6-.1 4.5-2.3 4.3-4.7zm14.4-1.2c-.2-2.4-2.5-4.2-5-4-2.6.2-4.5 2.4-4.3 4.8.2 2.4 2.4 4.2 5 4 2.6-.2 4.6-2.4 4.3-4.8zm10.2 3.5c2.6-.3 4.5-2.4 4.2-4.9-.2-2.4-2.5-4.2-5.1-3.9-2.6.3-4.4 2.4-4.2 4.9.3 2.4 2.6 4.1 5.1 3.9zm14.5-1.5c2.6-.3 4.4-2.5 4.2-4.9-.3-2.4-2.6-4.2-5.1-3.9-2.6.3-4.4 2.5-4.2 4.9.2 2.4 2.5 4.2 5.1 3.9zm-46 33.1c1.1-.9 1.8-2.2 1.7-3.7-.1-2.1-1.9-3.8-4-4.1.1 2.2.3 4.4.4 6.6.1 1 1.1 1.4 1.9 1.2zm8.2-7.3c0-.1 0-.1 0 0 0-.1 0-.1 0 0zm36.2-3.4zm9.4 5.7c.9.1 1.7-.5 1.6-1.4-.3-2.2-.5-4.4-.8-6.6-2.1.7-3.5 2.6-3.2 4.7.2 1.5 1.1 2.7 2.4 3.3zm-45.4-9.2c-.2-2.4-2.5-4.3-5.1-4.1-2.6.2-4.6 2.3-4.4 4.8.2 2.4 2.4 4.3 5.1 4.1 2.6-.2 4.6-2.3 4.4-4.8zm9.6-5.2c-2.6.2-4.6 2.4-4.4 4.8 0 .6.2 1.2.5 1.7 2.1-2 4.2-4 6.4-6-.8-.4-1.6-.5-2.5-.5zm14.6-1.3c-.9.1-1.7.4-2.4.9 2.4 1.6 4.9 3.2 7.3 4.8.2-.5.3-1.1.2-1.7-.2-2.5-2.5-4.3-5.1-4zm15.6 7.3c2.6-.3 4.5-2.5 4.2-4.9-.3-2.4-2.6-4.2-5.2-3.9-2.6.3-4.5 2.5-4.2 4.9.2 2.4 2.6 4.2 5.2 3.9z"/><path class="st1" d="M453.6 109.2c7.6-7.8 15-15.6 22.3-23.5.4-.5 1.2-.6 1.8-.3 9.3 5.4 18.8 10.6 28.3 15.8 1 .5 2.3-.3 2.1-1.4l-12.9-72.6c-17.7 3.2-35.5 5.9-53.4 8.2 3.1 24.4 6.2 48.8 9.4 73.2.1 1 1.6 1.4 2.4.6z"/><path class="st4" d="M496.4 34c-5.1-1.5-10.1-3-15.1-4.5-4.2.7-8.4 1.4-12.7 2 9.5 3 19.2 5.9 28.9 8.7-.4-2-.7-4.1-1.1-6.2zm11.7 66.1c-2.6-.7-5.3-1.4-7.9-2.1 1.9 1.1 3.9 2.1 5.8 3.1.9.5 2-.1 2.1-1zm-7-39.6c-19.8-5.5-39.3-11.6-58.4-18.1.3 2.1.5 4.2.8 6.3 19.2 6.5 38.8 12.6 58.7 18.1-.4-2.2-.7-4.2-1.1-6.3zm-2.4-13.3c-15-4.2-29.7-8.8-44.3-13.6-4.2.6-8.4 1.2-12.7 1.7 19 6.6 38.3 12.6 58 18.2-.2-2.1-.6-4.2-1-6.3zm-36.1 52.6c-4.4-1.4-8.8-2.7-13.1-4.1.3 2.1.5 4.2.8 6.3 2.6.8 5.2 1.7 7.8 2.5 1.6-1.6 3-3.2 4.5-4.7zm9.3-9.9c-8.1-2.4-16.1-5-24.1-7.6.3 2.1.5 4.2.8 6.3l18.9 6c1.5-1.6 3-3.1 4.4-4.7zm33.9-3c-20.3-5.4-40.2-11.4-59.7-17.9.3 2.1.5 4.2.8 6.3 19.6 6.5 39.6 12.4 60 17.9-.3-2.1-.7-4.2-1.1-6.3zm-2.3-13.2c-20.1-5.5-39.7-11.5-59-18 .3 2.1.5 4.2.8 6.3 19.4 6.5 39.2 12.5 59.3 18-.4-2.1-.8-4.2-1.1-6.3z"/><path class="st0" d="M524.5 97.7c7.1-8.2 14.1-16.5 20.9-24.9.4-.5 1.2-.7 1.8-.4 9.6 4.8 19.4 9.5 29.3 14 1.1.5 2.3-.4 2-1.5-5.8-23.9-11.6-47.8-17.3-71.7-17.6 4.2-35.2 8.1-52.9 11.4 4.6 24.2 9.2 48.3 13.8 72.5.1 1.2 1.6 1.5 2.4.6z"/><path class="st2" d="M513.9 35.8c-.4-2.1-2.2-3.5-4.3-3.6.5 2.8 1.1 5.7 1.6 8.5 2-.8 3.2-2.8 2.7-4.9zm10.3 2.5c2.5-.5 4.1-2.9 3.6-5.3-.5-2.4-2.9-3.9-5.4-3.4-2.5.5-4.1 2.8-3.6 5.2.6 2.5 3 4 5.4 3.5zm14-2.9c2.5-.5 4.1-2.9 3.5-5.3-.5-2.4-2.9-3.9-5.4-3.4-2.5.5-4 2.9-3.5 5.3s2.9 3.9 5.4 3.4zm13.8-3.1c2.5-.6 4-3 3.5-5.3-.6-2.4-3-3.8-5.4-3.3-2.5.6-4 2.9-3.5 5.3s3 3.9 5.4 3.3zm12.9-3.2c-.7-2.8-1.4-5.6-2-8.4-1.9.9-3 3-2.5 5 .5 2.1 2.4 3.5 4.5 3.4zm-49.5.9c2.5-.5 4.1-2.8 3.6-5.2-.1-.7-.5-1.4-.9-1.9l-7.8 1.5c-.2.7-.3 1.4-.1 2.1.3 2.4 2.7 4 5.2 3.5zm13.8-2.8c2.5-.5 4-2.9 3.5-5.3-.2-.7-.5-1.4-.9-1.9-2.6.6-5.2 1.1-7.8 1.6-.2.7-.3 1.4-.1 2.1.4 2.4 2.8 4 5.3 3.5zm13.7-3c2.5-.5 4-2.9 3.5-5.3-.2-.7-.5-1.3-1-1.9-2.6.6-5.2 1.2-7.8 1.7-.2.7-.2 1.4-.1 2.1.6 2.4 3 3.9 5.4 3.4zm13.8-3.2c2.4-.6 4-3 3.4-5.4-.2-.7-.5-1.3-1-1.9l-7.8 1.8c-.2.7-.2 1.4-.1 2.1.6 2.5 3.1 4 5.5 3.4zm-39 34.3c-.4-2.1-2.3-3.5-4.4-3.6.5 2.8 1.1 5.7 1.6 8.5 2-.8 3.2-2.8 2.8-4.9zm10.5 2.4c2.5-.5 4.2-2.9 3.7-5.3s-2.9-3.9-5.4-3.4c-2.5.5-4.2 2.9-3.7 5.3.4 2.4 2.8 3.9 5.4 3.4zm14.1-2.9c2.5-.5 4.1-2.9 3.6-5.3-.5-2.4-3-3.9-5.5-3.3-2.5.5-4.1 2.9-3.6 5.3.6 2.3 3 3.8 5.5 3.3zm14.2-3.2c2.5-.6 4.1-3 3.5-5.4-.6-2.4-3-3.8-5.5-3.3-2.5.6-4.1 3-3.5 5.3.5 2.5 3 4 5.5 3.4zm13.1-3.2c-.7-2.8-1.4-5.6-2-8.4-1.9.9-3 3-2.5 5.1.4 2 2.3 3.4 4.5 3.3zm-50.4 1c2.5-.5 4.1-2.8 3.7-5.2-.5-2.4-2.9-3.9-5.4-3.5-2.5.5-4.1 2.8-3.7 5.2.5 2.5 2.9 4 5.4 3.5zm14-2.8c2.5-.5 4.1-2.9 3.6-5.3-.5-2.4-2.9-3.9-5.4-3.4-2.5.5-4.1 2.9-3.6 5.3.5 2.4 2.9 3.9 5.4 3.4zm14.1-3.1c2.5-.6 4.1-3 3.5-5.3-.5-2.4-3-3.9-5.5-3.3-2.5.6-4.1 2.9-3.5 5.3.5 2.4 3 3.9 5.5 3.3zm14-3.2c2.5-.6 4-3 3.5-5.4-.6-2.4-3-3.8-5.5-3.2-2.5.6-4 3-3.5 5.4.5 2.4 3 3.8 5.5 3.2zm-39.8 34.4c-.4-2.1-2.3-3.5-4.5-3.5.5 2.8 1.1 5.7 1.6 8.5 2.1-.8 3.3-2.9 2.9-5zm10.6 2.5c2.6-.5 4.3-2.9 3.8-5.3s-3-3.9-5.5-3.4-4.2 2.9-3.8 5.3c.5 2.3 2.9 3.9 5.5 3.4zm12.2-3.1c.3-.4.7-.8 1-1.2.4-.5 1.2-.7 1.8-.4.5.2.9.5 1.4.7 1.4-1 2.1-2.7 1.7-4.4-.5-2.4-3-3.9-5.6-3.3-2.5.5-4.2 2.9-3.7 5.3.4 1.7 1.8 2.9 3.4 3.3zm16.6-3.2c2.6-.6 4.2-3 3.6-5.4-.6-2.4-3.1-3.8-5.6-3.2-2.5.6-4.2 3-3.6 5.4.5 2.4 3 3.8 5.6 3.2zm13.3-3.2c-.7-2.8-1.4-5.6-2-8.4-2 .9-3.1 3-2.6 5.1.5 2 2.5 3.4 4.6 3.3zM523 68.9c2.6-.5 4.2-2.9 3.7-5.3s-2.9-3.9-5.5-3.4c-2.5.5-4.2 2.8-3.7 5.2.5 2.4 2.9 4 5.5 3.5zm14.3-2.9c2.5-.5 4.2-2.9 3.7-5.3s-3-3.9-5.5-3.4-4.2 2.9-3.7 5.3 2.9 3.9 5.5 3.4zm14.3-3.1c2.5-.6 4.2-3 3.6-5.4-.5-2.4-3-3.9-5.5-3.3-2.5.6-4.1 2.9-3.6 5.3.4 2.5 2.9 4 5.5 3.4zm14.2-3.3c2.5-.6 4.1-3 3.6-5.4-.6-2.4-3.1-3.8-5.6-3.2-2.5.6-4.1 3-3.6 5.4.6 2.4 3.1 3.8 5.6 3.2zM524 98.1c1-1 1.6-2.4 1.3-3.9-.4-2.1-2.3-3.5-4.5-3.5.4 2.2.8 4.4 1.2 6.5.2.9 1.2 1.3 2 .9zm7.2-8.2c0-.1.1-.1 0 0 .1-.1 0-.1 0 0zm35.7-7.8zm10.1 4.5c.9 0 1.7-.7 1.5-1.6-.5-2.2-1-4.3-1.6-6.5-2 .9-3.2 3-2.7 5.1.3 1.5 1.4 2.5 2.8 3zm-50.2 1.7c2.6-.5 4.3-2.9 3.8-5.3s-3-3.9-5.5-3.4c-2.6.5-4.3 2.9-3.8 5.3.4 2.4 2.9 3.9 5.5 3.4zm15.3-11.5c-.8-.3-1.7-.3-2.5-.1-2.6.5-4.3 2.9-3.8 5.3.1.6.4 1.1.7 1.6 1.9-2.2 3.7-4.5 5.6-6.8zm17.5.1c-.5-2.4-3.1-3.8-5.6-3.3-.9.2-1.6.6-2.3 1.2 2.6 1.3 5.3 2.6 7.9 3.8.1-.5.1-1.1 0-1.7zm10.8 2c2.6-.6 4.2-3 3.6-5.4-.6-2.4-3.1-3.8-5.7-3.2-2.6.6-4.2 3-3.6 5.4.5 2.4 3.1 3.8 5.7 3.2z"/><path class="st3" d="M45.9 15.4c4.2 1 8.4 2 12.6 2.9 4.7 1.1 9.3 2.1 14 3.1 4.2.9 8.4 1.8 12.6 2.6 3.6.7 7.3 1.4 10.9 2.1 4.3.8 8.7 1.6 13 2.4l1.5.3c2.9.5 5.9 1 8.8 1.5 1.7.3 3.3.6 5 .8 2.9.5 5.9.9 8.8 1.4 1.7.3 3.3.5 5 .8 2.9.4 5.9.9 8.8 1.3 1.7.2 3.3.5 5 .7 2.9.4 5.9.8 8.9 1.2.5.1 1 .1 1.6.2l12.6 1.5c1 .1 1.9.2 2.9.3 4.2.5 8.5.9 12.7 1.4 4.7.5 9.5 1 14.2 1.4 4.3.4 8.5.7 12.8 1.1 3.7.3 7.4.6 11.1.8 4.4.3 8.8.6 13.2.8.5 0 1 .1 1.6.1 3 .2 5.9.3 8.9.4 1.7.1 3.4.2 5 .2 3 .1 5.9.2 8.9.3 1.7.1 3.4.1 5.1.2 3 .1 5.9.2 8.9.2 1.7 0 3.4.1 5.1.1 3 0 5.9.1 8.9.1h17.2c4.3 0 8.5-.1 12.8-.2 4.8-.1 9.5-.2 14.3-.4 4.3-.1 8.5-.3 12.8-.5 3.7-.2 7.4-.3 11.1-.6 4.4-.2 8.8-.5 13.2-.8.5 0 1-.1 1.5-.1 3-.2 5.9-.4 8.9-.7 1.7-.1 3.4-.3 5-.4 3-.2 5.9-.5 8.9-.8 1.7-.1 3.4-.3 5-.4 3-.3 5.9-.6 8.9-.9 1.7-.2 3.4-.3 5-.5 3-.3 5.9-.6 8.9-1 .5 0 1-.1 1.6-.2l12.6-1.5c1-.1 1.9-.2 2.9-.4 4.2-.6 8.5-1.1 12.7-1.7l14.1-2.1c4.2-.7 8.5-1.3 12.7-2 3.7-.6 7.3-1.2 11-1.9 4.4-.8 8.7-1.6 13-2.4l1.5-.3c2.9-.6 5.9-1.1 8.8-1.7 1.7-.3 3.3-.7 5-1 2.9-.6 5.9-1.2 8.8-1.8 1.6-.3 3.3-.7 4.9-1.1 2.9-.6 5.8-1.3 8.7-2 1.6-.4 3.3-.7 4.9-1.1l8.7-2.1c.5-.1 1-.2 1.5-.4 14-3.4 27.9-7 41.8-11V-.9C406.5 55.3 198 55.3 1.3-.8v4.5c13.9 3.9 27.8 7.6 41.8 11 .9.3 1.9.5 2.8.7z"/><path class="st1" d="M630 86.5c9.9-4.5 19.7-9.2 29.3-14 .6-.3 1.3-.1 1.8.4 6.8 8.4 13.8 16.6 20.9 24.9.8.9 2.3.6 2.5-.5 4.6-24.2 9.2-48.3 13.8-72.5-17.7-3.4-35.3-7.2-52.9-11.4-5.9 23.8-11.6 47.7-17.4 71.6-.3 1.1 1 2 2 1.5z"/><path class="st4" d="M684.4 22c-4.2-.9-8.4-1.7-12.6-2.6 7.9 6.2 15.8 12.4 23.9 18.5.4-2.1.8-4.2 1.2-6.2-4.2-3.3-8.4-6.4-12.5-9.7zm-.1 75.5-6.6-4.8c1.4 1.7 2.9 3.3 4.3 5 .6.8 1.9.7 2.3-.2zm7.6-39.5c-16.6-12.2-32.7-24.8-48.2-37.8-.5 2.1-1 4.1-1.5 6.2 15.7 13 31.9 25.6 48.5 37.8.4-2 .8-4.1 1.2-6.2zm2.5-13.2c-12.5-9.3-24.7-18.8-36.6-28.5-4.2-1-8.3-1.9-12.5-2.9 15.5 12.9 31.4 25.5 47.9 37.7l1.2-6.3zM631 72.5c-.5 2.1-1 4.1-1.5 6.2 2.1 1.7 4.3 3.4 6.5 5.1 2-.9 3.9-1.8 5.8-2.7-3.6-2.9-7.2-5.8-10.8-8.6zm3.2-13.1c-.5 2.1-1 4.1-1.5 6.2 5.2 4.1 10.4 8.3 15.6 12.3 1.9-.9 3.9-1.9 5.8-2.8-6.7-5.2-13.4-10.4-19.9-15.7zm52.7 25c-17-12.3-33.5-25-49.5-38-.5 2.1-1 4.1-1.5 6.2 16.1 13.1 32.7 25.8 49.8 38.1l1.2-6.3zm2.5-13.2c-16.8-12.3-33.1-24.9-48.9-37.9-.5 2.1-1 4.1-1.5 6.2 15.9 13 32.3 25.7 49.2 38l1.2-6.3z"/><path class="st0" d="M700.4 101.2c9.6-5.2 19-10.4 28.3-15.8.6-.3 1.3-.2 1.8.3 7.3 7.9 14.7 15.8 22.3 23.5.8.8 2.3.4 2.4-.7 3.1-24.4 6.2-48.8 9.4-73.2-17.8-2.3-35.6-5-53.4-8.2l-12.9 72.6c-.2 1.2 1.1 2 2.1 1.5z"/><path class="st2" d="M709.9 34.7c-.5 2.8-1 5.7-1.5 8.5 2.1-.1 3.9-1.5 4.3-3.6.4-2.1-.9-4.1-2.8-4.9zm16.7 7.2c.4-2.4-1.3-4.7-3.8-5.1-2.5-.4-4.8 1.2-5.2 3.6-.4 2.4 1.3 4.7 3.8 5.1 2.5.4 4.8-1.2 5.2-3.6zm14 2.2c.4-2.4-1.4-4.7-3.8-5.1-2.5-.4-4.8 1.3-5.2 3.7-.4 2.4 1.3 4.7 3.8 5.1 2.5.3 4.8-1.3 5.2-3.7zm14 1.9c.3-2.4-1.4-4.7-3.9-5-2.5-.3-4.8 1.3-5.1 3.7-.4 2.4 1.4 4.7 3.9 5 2.5.5 4.8-1.2 5.1-3.7zm9-3.1c-2.1.2-3.8 1.7-4.1 3.8-.3 2.1 1 4.1 3 4.7.4-2.8.8-5.7 1.1-8.5zM721.3 31c.1-.7 0-1.4-.2-2.1-2.6-.4-5.2-.9-7.8-1.4-.4.5-.7 1.2-.9 1.9-.4 2.4 1.2 4.7 3.7 5.1 2.5.5 4.8-1.1 5.2-3.5zm13.8 2.2c.1-.7 0-1.4-.2-2.1-2.6-.4-5.2-.8-7.9-1.3-.4.6-.7 1.2-.9 1.9-.4 2.4 1.3 4.7 3.8 5.1 2.5.5 4.9-1.2 5.2-3.6zm13.9 2.1c.1-.7 0-1.4-.2-2.1-2.6-.4-5.2-.8-7.9-1.2-.4.6-.7 1.2-.8 1.9-.4 2.4 1.3 4.7 3.8 5 2.4.5 4.7-1.2 5.1-3.6zm13.8 1.8c.1-.7 0-1.4-.3-2.1-2.6-.3-5.3-.7-7.9-1.1-.4.6-.7 1.2-.8 2-.3 2.4 1.4 4.7 3.9 5 2.6.4 4.8-1.3 5.1-3.8zm-56.4 17.1c-.5 2.8-1 5.7-1.5 8.5 2.1-.1 4-1.5 4.3-3.6.4-2.1-.8-4.1-2.8-4.9zm17.1 7.3c.4-2.4-1.3-4.7-3.9-5.1-2.5-.4-4.9 1.2-5.3 3.6-.4 2.4 1.3 4.7 3.9 5.1 2.5.4 4.9-1.2 5.3-3.6zm14.2 2.2c.4-2.4-1.4-4.7-3.9-5.1-2.5-.4-4.9 1.3-5.3 3.7-.4 2.4 1.4 4.7 3.9 5.1 2.6.3 4.9-1.3 5.3-3.7zm14.2 2c.3-2.4-1.5-4.7-4-5-2.5-.4-4.9 1.3-5.2 3.7-.4 2.4 1.4 4.7 4 5 2.6.4 4.9-1.3 5.2-3.7zm9.2-3.2c-2.1.2-3.9 1.7-4.2 3.8-.3 2.1 1 4.1 3.1 4.8.4-2.8.8-5.7 1.1-8.6zm-43.1-12c.4-2.4-1.3-4.7-3.8-5.1-2.5-.4-4.9 1.2-5.3 3.6-.4 2.4 1.3 4.7 3.8 5.2 2.5.4 4.9-1.3 5.3-3.7zm14.1 2.3c.4-2.4-1.3-4.7-3.8-5.1-2.5-.4-4.8 1.2-5.2 3.6-.4 2.4 1.3 4.7 3.8 5.1 2.5.5 4.8-1.2 5.2-3.6zm14.1 2.1c.3-2.4-1.4-4.7-3.9-5-2.5-.4-4.8 1.3-5.2 3.7-.4 2.4 1.4 4.7 3.9 5.1 2.5.3 4.8-1.4 5.2-3.8zm14.1 1.9c.3-2.4-1.5-4.7-4-5-2.5-.3-4.8 1.3-5.1 3.8-.3 2.4 1.4 4.7 4 5 2.5.3 4.8-1.4 5.1-3.8zM703 73.7c-.5 2.8-1 5.7-1.5 8.5 2.2-.1 4-1.5 4.4-3.6.3-2.1-.9-4.1-2.9-4.9zm17.3 7.3c.4-2.4-1.4-4.7-3.9-5.1-2.6-.4-5 1.2-5.4 3.6-.4 2.4 1.3 4.7 3.9 5.2 2.6.4 5-1.3 5.4-3.7zm8.5 4.4c.6-.3 1.3-.2 1.8.3.4.4.7.8 1.1 1.2 1.6-.5 2.9-1.8 3.2-3.5.4-2.4-1.4-4.7-4-5.1-2.6-.4-5 1.2-5.3 3.7-.3 1.7.6 3.3 2 4.3.3-.4.7-.7 1.2-.9zm20.4-.1c.3-2.4-1.5-4.7-4.1-5-2.6-.4-4.9 1.3-5.3 3.7-.4 2.4 1.5 4.7 4.1 5 2.7.4 5-1.2 5.3-3.7zm9.4-3.1c-2.1.2-3.9 1.7-4.2 3.8-.3 2.1 1.1 4.1 3.1 4.8.4-2.9.7-5.7 1.1-8.6zm-43.9-12.1c.4-2.4-1.3-4.7-3.9-5.2-2.5-.4-4.9 1.2-5.4 3.6-.4 2.4 1.3 4.7 3.9 5.2 2.6.4 5-1.2 5.4-3.6zm14.4 2.3c.4-2.4-1.4-4.7-3.9-5.1-2.5-.4-4.9 1.2-5.3 3.6-.4 2.4 1.4 4.7 3.9 5.1 2.5.4 4.9-1.2 5.3-3.6zm14.3 2.1c.3-2.4-1.4-4.7-4-5.1-2.5-.4-4.9 1.3-5.3 3.7-.4 2.4 1.4 4.7 4 5.1 2.6.4 5-1.3 5.3-3.7zm14.4 2c.3-2.4-1.5-4.7-4.1-5-2.5-.3-4.9 1.3-5.2 3.8-.3 2.4 1.5 4.7 4 5 2.6.3 5-1.4 5.3-3.8zm-55.3 21.6c.4-2.1-.9-4.1-3-4.9l-1.2 6.6c-.2.9.7 1.6 1.6 1.5 1.3-.6 2.3-1.7 2.6-3.2zm7.1-1.9zm35.9 5.4c.1 0 .1.1 0 0 .1.1.1 0 0 0zm9.8 6.9c.3-2.2.6-4.4.8-6.6-2.2.2-4 1.7-4.3 3.8-.2 1.5.4 2.8 1.5 3.8.8.3 1.8-.1 2-1zm-43.9-18.9c.4-2.4-1.4-4.7-3.9-5.2-2.6-.4-5 1.1-5.4 3.5-.4 2.4 1.3 4.7 3.9 5.2 2.6.5 5-1.1 5.4-3.5zm10.6-2.7c-2.6-.4-5 1.2-5.4 3.6-.1.6-.1 1.2.1 1.7 2.6-1.4 5.1-2.9 7.6-4.3-.6-.5-1.4-.9-2.3-1zm14.5 2.2c-.9-.1-1.8 0-2.5.3 2 2.1 4 4.3 6 6.4.3-.5.5-1 .6-1.6.4-2.5-1.5-4.7-4.1-5.1zm18.7 7c.3-2.4-1.5-4.7-4.1-5-2.6-.3-5 1.3-5.3 3.8-.3 2.4 1.5 4.7 4.1 5 2.6.4 5-1.3 5.3-3.8z"/><path class="st1" d="M770.9 111.4c9.2-5.7 18.3-11.6 27.3-17.5.6-.4 1.3-.3 1.8.2 7.7 7.5 15.6 14.8 23.6 22.1.9.8 2.3.3 2.4-.8 1.6-24.5 3.3-49.1 4.9-73.6-17.9-1.2-35.8-2.8-53.7-4.9-2.8 24.4-5.7 48.8-8.5 73.3-.1 1 1.2 1.8 2.2 1.2z"/><path class="st4" d="M816.9 40.7c-4.3-.3-8.5-.7-12.8-1.1C812.6 44.9 821.2 50 830 55c.1-2.1.3-4.2.4-6.3-4.5-2.6-9.1-5.3-13.5-8zm9 75c-2.4-1.3-4.8-2.6-7.2-4 1.6 1.5 3.2 3 4.9 4.4.7.8 2 .4 2.3-.4zm-49.5-71.8c-.2 2.1-.5 4.2-.7 6.3 17 10.9 34.6 21.5 52.5 31.6.1-2.1.3-4.2.4-6.3-17.9-10.1-35.3-20.7-52.2-31.6zm13.5-5.6c-4.2-.4-8.5-.9-12.7-1.4 16.8 10.9 34.1 21.5 51.9 31.6.1-2.1.3-4.2.4-6.3-13.5-7.8-26.7-15.8-39.6-23.9zm-19.7 59c-.2 2.1-.5 4.2-.7 6.3 2.3 1.4 4.7 2.9 7 4.3 1.8-1.1 3.6-2.3 5.4-3.4l-11.7-7.2zm1.5-13.4c-.2 2.1-.5 4.2-.7 6.3 5.6 3.5 11.2 6.9 16.9 10.3 1.8-1.2 3.6-2.3 5.4-3.5-7.3-4.2-14.5-8.6-21.6-13.1zm1.6-13.3c-.2 2.1-.5 4.2-.7 6.3 17.5 11 35.4 21.6 53.8 31.8.1-2.1.3-4.2.4-6.3-18.3-10.2-36.1-20.8-53.5-31.8zm1.5-13.4c-.2 2.1-.5 4.2-.7 6.3 17.3 11 35 21.6 53.2 31.7.1-2.1.3-4.2.4-6.3-18.1-10.1-35.7-20.7-52.9-31.7z"/><path class="st0" d="M842.3 117.3c8.9-6.3 17.6-12.6 26.1-19.1.5-.4 1.3-.4 1.8.1 8.2 7 16.5 13.9 24.9 20.7.9.7 2.3.1 2.3-1 .1-24.6.3-49.2.4-73.8-17.9-.1-35.9-.6-53.8-1.6-1.3 24.6-2.7 49.1-4 73.7-.1 1 1.3 1.7 2.3 1z"/><path class="st2" d="M843.6 50.2c-.2 2.9-.3 5.8-.5 8.6 2.1-.3 3.7-2 3.8-4.1.2-2.1-1.3-4-3.3-4.5zm17.4 5.1c.1-2.4-1.9-4.5-4.4-4.6-2.5-.1-4.6 1.8-4.7 4.2-.1 2.4 1.8 4.5 4.4 4.6 2.5.2 4.6-1.7 4.7-4.2zm14.1.5c.1-2.4-1.9-4.5-4.4-4.6-2.5-.1-4.6 1.8-4.7 4.3-.1 2.4 1.9 4.5 4.4 4.6 2.6 0 4.6-1.9 4.7-4.3zm14.1.2c0-2.4-2-4.5-4.5-4.5s-4.6 1.9-4.6 4.3c-.1 2.4 1.9 4.5 4.5 4.5 2.5.1 4.6-1.8 4.6-4.3zm8.6-4.2c-2 .4-3.6 2.2-3.6 4.3 0 2.1 1.5 3.9 3.5 4.3.1-2.8.1-5.7.1-8.6zm-43.4-6.7c0-.7-.1-1.4-.4-2.1-2.6-.1-5.3-.3-7.9-.4-.4.6-.6 1.3-.6 2-.1 2.4 1.8 4.5 4.3 4.7 2.4.2 4.5-1.7 4.6-4.2zm14 .6c0-.7-.2-1.4-.5-2.1-2.6-.1-5.3-.2-7.9-.3-.4.6-.6 1.3-.6 2-.1 2.4 1.8 4.5 4.3 4.6 2.5.1 4.6-1.8 4.7-4.2zm14 .3c0-.7-.2-1.4-.5-2.1-2.6-.1-5.3-.1-7.9-.2-.3.6-.6 1.3-.6 2-.1 2.4 1.9 4.5 4.4 4.5 2.4.2 4.5-1.7 4.6-4.2zm13.9.2c0-.7-.2-1.4-.5-2-2.6 0-5.3 0-7.9-.1-.3.6-.5 1.3-.6 2 0 2.4 2 4.5 4.5 4.5s4.5-1.9 4.5-4.4zM842.5 70c-.2 2.9-.3 5.8-.5 8.6 2.1-.3 3.8-2 3.9-4.1.1-2.1-1.3-4-3.4-4.5zm17.8 5.1c.1-2.4-1.9-4.5-4.4-4.6-2.5-.1-4.7 1.8-4.8 4.2-.1 2.4 1.9 4.5 4.4 4.6 2.5.2 4.7-1.7 4.8-4.2zm14.3.5c.1-2.4-1.9-4.5-4.5-4.6-2.5-.1-4.7 1.8-4.8 4.3-.1 2.4 1.9 4.5 4.5 4.6 2.6.1 4.7-1.9 4.8-4.3zm14.3.3c0-2.4-2-4.5-4.5-4.5s-4.6 1.9-4.7 4.3c-.1 2.4 2 4.5 4.5 4.5 2.6.1 4.7-1.9 4.7-4.3zm8.8-4.3c-2.1.4-3.6 2.2-3.7 4.3 0 2.1 1.5 3.9 3.6 4.3 0-2.8.1-5.7.1-8.6zm-44.2-6.7c.1-2.4-1.8-4.5-4.4-4.6-2.5-.1-4.7 1.7-4.8 4.2-.1 2.4 1.8 4.5 4.4 4.7 2.6.1 4.7-1.8 4.8-4.3zm14.2.6c.1-2.4-1.9-4.5-4.4-4.6-2.5-.1-4.6 1.8-4.7 4.2-.1 2.4 1.9 4.5 4.4 4.6 2.5.1 4.7-1.8 4.7-4.2zm14.3.3c0-2.4-2-4.5-4.5-4.5-2.5-.1-4.6 1.9-4.7 4.3-.1 2.4 1.9 4.5 4.5 4.5 2.5.1 4.6-1.8 4.7-4.3zm14.2.2c0-2.4-2-4.4-4.5-4.5-2.5 0-4.6 1.9-4.6 4.4 0 2.4 2 4.5 4.5 4.5 2.5.1 4.6-1.9 4.6-4.4zm-54.8 23.8c-.2 2.9-.3 5.8-.5 8.6 2.1-.3 3.8-2 3.9-4.1.2-2.1-1.3-4-3.4-4.5zm18.1 5.1c.1-2.4-1.9-4.5-4.5-4.6-2.6-.1-4.8 1.8-4.9 4.2-.1 2.4 1.9 4.5 4.5 4.6 2.6.2 4.8-1.7 4.9-4.2zm8.9 3.3c.5-.4 1.3-.4 1.8.1.4.3.8.7 1.2 1 1.6-.7 2.7-2.1 2.7-3.9.1-2.4-2-4.5-4.6-4.6-2.6-.1-4.8 1.8-4.8 4.3-.1 1.7 1 3.2 2.5 4 .3-.3.8-.6 1.2-.9zm20.3-2.5c0-2.4-2-4.5-4.6-4.5-2.6 0-4.7 1.9-4.8 4.3-.1 2.4 2 4.5 4.6 4.5 2.6.1 4.7-1.9 4.8-4.3zm8.9-4.2c-2.1.4-3.7 2.2-3.7 4.3 0 2.1 1.6 3.9 3.7 4.3-.1-2.9-.1-5.8 0-8.6zm-45-6.8c.1-2.4-1.9-4.5-4.4-4.6-2.6-.1-4.7 1.7-4.9 4.2-.1 2.4 1.9 4.5 4.4 4.7 2.6.1 4.8-1.8 4.9-4.3zm14.5.6c.1-2.4-1.9-4.5-4.5-4.6-2.6-.1-4.7 1.8-4.8 4.2-.1 2.4 1.9 4.5 4.5 4.6 2.6.2 4.7-1.8 4.8-4.2zm14.5.4c0-2.4-2-4.5-4.6-4.5-2.6-.1-4.7 1.9-4.8 4.3-.1 2.4 2 4.5 4.6 4.5 2.6.1 4.7-1.9 4.8-4.3zm14.4.2c0-2.4-2.1-4.4-4.6-4.5-2.6 0-4.7 1.9-4.7 4.4 0 2.4 2 4.5 4.6 4.5 2.6 0 4.7-2 4.7-4.4zm-54.3 31.6c1.2-.7 2.1-2 2.2-3.5.1-2.1-1.4-4-3.5-4.5-.1 2.2-.2 4.4-.4 6.7 0 .9.9 1.5 1.7 1.3zm9-6.2s0-.1 0 0c0-.1 0 0 0 0zm36.3 1zm10.4 5.6v-6.7c-2.1.4-3.8 2.2-3.8 4.3 0 1.5.8 2.8 2 3.6.9.3 1.8-.2 1.8-1.2zm-45.7-13.4c.1-2.4-1.9-4.5-4.5-4.6-2.6-.1-4.8 1.7-5 4.2-.1 2.4 1.9 4.5 4.5 4.7 2.7.1 4.9-1.8 5-4.3zm10.2-4c-2.6-.1-4.8 1.8-4.9 4.2 0 .6.1 1.2.3 1.7 2.4-1.7 4.7-3.5 7-5.2-.7-.4-1.5-.6-2.4-.7zm14.6.5c-.9 0-1.7.2-2.5.6 2.2 1.9 4.5 3.8 6.7 5.6.2-.5.4-1.1.4-1.7.1-2.5-2-4.5-4.6-4.5zm19.4 4.7c0-2.4-2.1-4.4-4.7-4.5-2.6 0-4.8 1.9-4.8 4.4 0 2.4 2.1 4.5 4.7 4.5s4.8-2 4.8-4.4z"/><path class="st1" d="M913.2 118.9c8.5-6.8 16.8-13.7 24.9-20.7.5-.4 1.3-.5 1.8-.1 8.6 6.5 17.3 12.8 26.1 19.1.9.7 2.3 0 2.3-1.1-1.3-24.6-2.7-49.1-4-73.7-17.9 1-35.9 1.5-53.8 1.6.1 24.6.3 49.2.4 73.8 0 1.2 1.4 1.8 2.3 1.1z"/><path class="st4" d="m964.7 49.5-14.4-6.3c-4.3.2-8.5.3-12.8.5 9.1 4.2 18.3 8.2 27.5 12.2-.1-2.2-.2-4.3-.3-6.4zm3.6 67.1c-2.5-1-5.1-2-7.6-3.1 1.8 1.3 3.6 2.6 5.4 3.8.8.6 2 .1 2.2-.7zm-2.1-40.3c-19-7.9-37.5-16.2-55.6-25.1v6.4c18.2 8.8 36.9 17.2 55.9 25-.1-2-.2-4.1-.3-6.3zm-.8-13.4c-14.3-6-28.4-12.3-42.2-18.9-4.3.1-8.5.1-12.8.1 18 8.8 36.4 17.2 55.3 25.1 0-2-.2-4.2-.3-6.3zm-42.1 47.8c-4.2-1.9-8.3-3.8-12.5-5.7v6.4c2.5 1.1 5 2.3 7.5 3.4 1.7-1.4 3.4-2.7 5-4.1zm10.4-8.7c-7.7-3.4-15.4-6.9-23-10.4V98c6 2.8 12 5.5 18 8.2 1.8-1.4 3.4-2.8 5-4.2zm33.9 1.2c-19.4-7.9-38.4-16.2-56.9-25v6.4c18.7 8.8 37.7 17.2 57.2 25 0-2.2-.2-4.3-.3-6.4zm-.7-13.5c-19.2-7.9-37.9-16.2-56.3-25v6.4c18.4 8.8 37.3 17.2 56.6 25-.1-2.1-.2-4.2-.3-6.4z"/><path class="st0" d="M984.8 116.2c8-7.3 15.9-14.7 23.6-22.1.5-.5 1.2-.5 1.8-.2 9 5.9 18 11.8 27.3 17.5 1 .6 2.3-.1 2.2-1.2-2.8-24.4-5.7-48.8-8.5-73.3-17.9 2.1-35.7 3.7-53.7 4.9 1.6 24.5 3.3 49.1 4.9 73.6.1 1.1 1.5 1.6 2.4.8z"/><path class="st2" d="M981.8 53.4c-.1-2.1-1.8-3.8-3.9-4.1.2 2.9.4 5.7.6 8.6 2.1-.5 3.5-2.4 3.3-4.5zm14.1-1c-.2-2.4-2.4-4.2-4.9-4-2.5.2-4.4 2.3-4.2 4.8.2 2.4 2.4 4.3 4.9 4.1 2.5-.4 4.4-2.5 4.2-4.9zm14.1-1.3c-.2-2.4-2.4-4.2-4.9-4-2.5.2-4.3 2.4-4.1 4.8.2 2.4 2.4 4.2 4.9 4 2.4-.2 4.3-2.4 4.1-4.8zm9.9 3.5c2.5-.3 4.3-2.5 4.1-4.9-.3-2.4-2.5-4.2-5-3.9-2.5.3-4.3 2.4-4.1 4.9.3 2.4 2.5 4.1 5 3.9zM1033 53c-.3-2.9-.7-5.7-1-8.6-2 .7-3.3 2.6-3.1 4.7.3 2.1 2 3.7 4.1 3.9zm-49.1-5.2c2.5-.2 4.4-2.3 4.2-4.8-.1-.7-.3-1.4-.7-2-2.6.2-5.3.4-7.9.6-.3.6-.4 1.3-.4 2.1.2 2.4 2.3 4.3 4.8 4.1zm14-1.1c2.5-.2 4.3-2.4 4.1-4.8-.1-.7-.3-1.4-.7-2-2.6.2-5.3.5-7.9.7-.3.6-.4 1.3-.4 2.1.3 2.4 2.4 4.2 4.9 4zm14-1.3c2.5-.2 4.3-2.4 4.1-4.9-.1-.7-.3-1.4-.7-2-2.6.3-5.3.5-7.9.8-.3.6-.4 1.3-.3 2.1.1 2.5 2.3 4.3 4.8 4zm14-1.4c2.5-.3 4.3-2.5 4-4.9-.1-.7-.4-1.4-.8-2-2.6.3-5.3.6-7.9.9-.3.6-.4 1.4-.3 2.1.3 2.4 2.5 4.1 5 3.9zm-42.7 29.2c-.1-2.1-1.8-3.8-3.9-4.1.2 2.9.4 5.7.6 8.6 2-.5 3.5-2.4 3.3-4.5zm14.3-1.1c-.2-2.4-2.4-4.2-5-4-2.5.2-4.4 2.3-4.3 4.8.2 2.4 2.4 4.3 5 4.1 2.6-.3 4.5-2.4 4.3-4.9zm14.3-1.3c-.2-2.4-2.5-4.2-5-4-2.5.2-4.4 2.4-4.2 4.8.2 2.4 2.5 4.2 5 4 2.6-.2 4.5-2.3 4.2-4.8zm10.2 3.5c2.6-.3 4.4-2.5 4.1-4.9-.3-2.4-2.5-4.2-5.1-3.9-2.5.3-4.4 2.4-4.1 4.9.2 2.4 2.5 4.1 5.1 3.9zm13.3-1.6c-.3-2.9-.7-5.7-1-8.6-2 .7-3.4 2.6-3.1 4.7.2 2.1 2 3.7 4.1 3.9zm-45.7-9.9c-.2-2.4-2.4-4.3-4.9-4.1-2.5.2-4.4 2.3-4.3 4.7.2 2.4 2.4 4.3 4.9 4.1 2.6-.1 4.5-2.3 4.3-4.7zm14.2-1.2c-.2-2.4-2.4-4.2-4.9-4-2.5.2-4.4 2.4-4.2 4.8.2 2.4 2.4 4.2 4.9 4 2.5-.2 4.4-2.3 4.2-4.8zm10 3.5c2.5-.2 4.4-2.4 4.1-4.9-.2-2.4-2.5-4.2-5-4-2.5.2-4.4 2.4-4.1 4.8.3 2.6 2.5 4.4 5 4.1zm14.3-1.4c2.5-.3 4.4-2.5 4.1-4.9-.3-2.4-2.5-4.2-5.1-3.9-2.5.3-4.3 2.5-4.1 4.9.3 2.4 2.5 4.1 5.1 3.9zM984.6 93c-.1-2.1-1.8-3.8-4-4.1.2 2.9.4 5.7.6 8.6 2.1-.5 3.6-2.4 3.4-4.5zm14.6-1.1c-.2-2.4-2.5-4.2-5-4-2.6.2-4.5 2.3-4.3 4.8.2 2.4 2.4 4.3 5 4.1 2.5-.3 4.5-2.5 4.3-4.9zm9.2 2.1c.5-.5 1.2-.5 1.8-.2.4.3.9.6 1.3.9 1.5-.9 2.4-2.4 2.2-4.2-.2-2.4-2.5-4.2-5.1-4-2.6.2-4.5 2.4-4.3 4.8.2 1.7 1.3 3.1 2.9 3.7.4-.2.8-.6 1.2-1zm15.6 0c2.6-.3 4.5-2.5 4.2-4.9-.3-2.4-2.6-4.2-5.1-3.9-2.6.3-4.5 2.4-4.2 4.9.2 2.4 2.5 4.2 5.1 3.9zm13.6-1.6c-.3-2.9-.7-5.7-1-8.6-2 .7-3.4 2.6-3.2 4.7.2 2.1 2 3.7 4.2 3.9zm-46.5-9.8c-.2-2.4-2.4-4.3-5-4.1-2.6.2-4.5 2.3-4.3 4.7.2 2.4 2.4 4.3 5 4.1 2.6-.1 4.5-2.3 4.3-4.7zm14.5-1.2c-.2-2.4-2.5-4.2-5-4-2.6.2-4.5 2.4-4.3 4.8.2 2.4 2.4 4.2 5 4 2.6-.2 4.5-2.4 4.3-4.8zm10.2 3.5c2.6-.3 4.5-2.4 4.2-4.9-.2-2.4-2.5-4.2-5.1-3.9-2.6.3-4.4 2.4-4.2 4.9.2 2.4 2.5 4.1 5.1 3.9zm14.4-1.5c2.6-.3 4.4-2.5 4.2-4.9-.3-2.4-2.6-4.2-5.1-3.9-2.6.3-4.4 2.5-4.2 4.9.3 2.4 2.6 4.2 5.1 3.9zm-45.9 33.1c1.1-.9 1.8-2.2 1.7-3.7-.1-2.1-1.9-3.8-4-4.1.1 2.2.3 4.4.4 6.6.1 1 1 1.4 1.9 1.2zm8.1-7.3c0-.1.1-.1 0 0 .1-.1 0-.1 0 0zm36.2-3.4zm9.4 5.7c.9.1 1.7-.5 1.6-1.4-.3-2.2-.5-4.4-.8-6.6-2.1.7-3.5 2.6-3.2 4.7.2 1.5 1.1 2.7 2.4 3.3zm-45.4-9.2c-.2-2.4-2.5-4.3-5.1-4.1-2.6.2-4.6 2.3-4.4 4.8.2 2.4 2.4 4.3 5.1 4.1 2.7-.2 4.6-2.3 4.4-4.8zm9.6-5.2c-2.6.2-4.6 2.4-4.4 4.8 0 .6.2 1.2.5 1.7 2.1-2 4.2-4 6.4-6-.7-.4-1.6-.5-2.5-.5zm14.6-1.3c-.9.1-1.7.4-2.4.9 2.4 1.6 4.9 3.2 7.3 4.8.2-.5.3-1.1.2-1.7-.2-2.5-2.5-4.3-5.1-4zm15.6 7.3c2.6-.3 4.5-2.5 4.2-4.9-.3-2.4-2.6-4.2-5.2-3.9-2.6.3-4.5 2.5-4.2 4.9.3 2.4 2.6 4.2 5.2 3.9z"/><path class="st1" d="M1055.5 109.2c7.6-7.8 15-15.6 22.3-23.5.4-.5 1.2-.6 1.8-.3 9.3 5.4 18.8 10.6 28.3 15.8 1 .5 2.3-.3 2.1-1.4l-12.9-72.6c-17.7 3.2-35.5 5.9-53.4 8.2 3.1 24.4 6.2 48.8 9.4 73.2.1 1 1.6 1.4 2.4.6z"/><path class="st4" d="M1098.3 34c-5.1-1.5-10.1-3-15.1-4.5-4.2.7-8.4 1.4-12.7 2 9.5 3 19.2 5.9 28.9 8.7-.3-2-.7-4.1-1.1-6.2zm11.7 66.1c-2.6-.7-5.3-1.4-7.9-2.1 1.9 1.1 3.9 2.1 5.8 3.1.9.5 2-.1 2.1-1zm-7-39.6c-19.8-5.5-39.3-11.6-58.4-18.1.3 2.1.5 4.2.8 6.3 19.2 6.5 38.8 12.6 58.7 18.1-.3-2.2-.7-4.2-1.1-6.3zm-2.3-13.3c-15-4.2-29.7-8.8-44.3-13.6-4.2.6-8.4 1.2-12.7 1.7 19 6.6 38.3 12.6 58 18.2-.3-2.1-.7-4.2-1-6.3zm-36.2 52.6c-4.4-1.4-8.8-2.7-13.1-4.1.3 2.1.5 4.2.8 6.3 2.6.8 5.2 1.7 7.8 2.5 1.6-1.6 3.1-3.2 4.5-4.7zm9.3-9.9c-8.1-2.4-16.1-5-24.1-7.6.3 2.1.5 4.2.8 6.3l18.9 6c1.5-1.6 3-3.1 4.4-4.7zm33.9-3c-20.3-5.4-40.2-11.4-59.7-17.9.3 2.1.5 4.2.8 6.3 19.6 6.5 39.6 12.4 60 17.9-.3-2.1-.7-4.2-1.1-6.3zm-2.3-13.2c-20.1-5.5-39.7-11.5-59-18 .3 2.1.5 4.2.8 6.3 19.4 6.5 39.2 12.5 59.3 18-.4-2.1-.8-4.2-1.1-6.3z"/><path class="st0" d="M1126.4 97.7c7.1-8.2 14.1-16.5 20.9-24.9.4-.5 1.2-.7 1.8-.4 9.6 4.8 19.4 9.5 29.3 14 1.1.5 2.3-.4 2-1.5-5.8-23.9-11.6-47.8-17.3-71.7-17.6 4.2-35.2 8.1-52.9 11.4 4.6 24.2 9.2 48.3 13.8 72.5.1 1.2 1.6 1.5 2.4.6z"/><path class="st2" d="M1115.9 35.8c-.4-2.1-2.2-3.5-4.3-3.6.5 2.8 1.1 5.7 1.6 8.5 1.9-.8 3.1-2.8 2.7-4.9zm10.3 2.5c2.5-.5 4.1-2.9 3.6-5.3-.5-2.4-2.9-3.9-5.4-3.4-2.5.5-4.1 2.8-3.6 5.2.5 2.5 2.9 4 5.4 3.5zm13.9-2.9c2.5-.5 4.1-2.9 3.5-5.3-.5-2.4-2.9-3.9-5.4-3.4-2.5.5-4 2.9-3.5 5.3s2.9 3.9 5.4 3.4zm13.9-3.1c2.5-.6 4-3 3.5-5.3-.6-2.4-3-3.8-5.4-3.3-2.5.6-4 2.9-3.5 5.3s2.9 3.9 5.4 3.3zm12.8-3.2c-.7-2.8-1.4-5.6-2-8.4-1.9.9-3 3-2.5 5 .5 2.1 2.4 3.5 4.5 3.4zm-49.5.9c2.5-.5 4.1-2.8 3.6-5.2-.1-.7-.5-1.4-.9-1.9l-7.8 1.5c-.2.7-.3 1.4-.1 2.1.3 2.4 2.7 4 5.2 3.5zm13.8-2.8c2.5-.5 4-2.9 3.5-5.3-.2-.7-.5-1.4-.9-1.9-2.6.6-5.2 1.1-7.8 1.6-.2.7-.3 1.4-.1 2.1.4 2.4 2.8 4 5.3 3.5zm13.8-3c2.5-.5 4-2.9 3.5-5.3-.2-.7-.5-1.3-1-1.9-2.6.6-5.2 1.2-7.8 1.7-.2.7-.2 1.4-.1 2.1.5 2.4 2.9 3.9 5.4 3.4zm13.7-3.2c2.4-.6 4-3 3.4-5.4-.2-.7-.5-1.3-1-1.9l-7.8 1.8c-.2.7-.2 1.4-.1 2.1.6 2.5 3.1 4 5.5 3.4zm-39 34.3c-.4-2.1-2.3-3.5-4.4-3.6.5 2.8 1.1 5.7 1.6 8.5 2-.8 3.2-2.8 2.8-4.9zm10.5 2.4c2.5-.5 4.2-2.9 3.7-5.3s-2.9-3.9-5.4-3.4c-2.5.5-4.2 2.9-3.7 5.3.4 2.4 2.9 3.9 5.4 3.4zm14.2-2.9c2.5-.5 4.1-2.9 3.6-5.3-.5-2.4-3-3.9-5.5-3.3-2.5.5-4.1 2.9-3.6 5.3.5 2.3 2.9 3.8 5.5 3.3zm14.1-3.2c2.5-.6 4.1-3 3.5-5.4-.6-2.4-3-3.8-5.5-3.3-2.5.6-4.1 3-3.5 5.3.5 2.5 3 4 5.5 3.4zm13.1-3.2c-.7-2.8-1.4-5.6-2-8.4-1.9.9-3 3-2.5 5.1.4 2 2.4 3.4 4.5 3.3zm-50.4 1c2.5-.5 4.1-2.8 3.7-5.2-.5-2.4-2.9-3.9-5.4-3.5-2.5.5-4.1 2.8-3.7 5.2.5 2.5 2.9 4 5.4 3.5zm14.1-2.8c2.5-.5 4.1-2.9 3.6-5.3-.5-2.4-2.9-3.9-5.4-3.4-2.5.5-4.1 2.9-3.6 5.3.4 2.4 2.9 3.9 5.4 3.4zm14-3.1c2.5-.6 4.1-3 3.5-5.3-.5-2.4-3-3.9-5.5-3.3-2.5.6-4.1 2.9-3.5 5.3.5 2.4 3 3.9 5.5 3.3zm14-3.2c2.5-.6 4-3 3.5-5.4-.6-2.4-3-3.8-5.5-3.2-2.5.6-4 3-3.5 5.4.5 2.4 3 3.8 5.5 3.2zm-39.8 34.4c-.4-2.1-2.3-3.5-4.5-3.5.5 2.8 1.1 5.7 1.6 8.5 2.1-.8 3.3-2.9 2.9-5zm10.6 2.5c2.6-.5 4.3-2.9 3.8-5.3s-3-3.9-5.5-3.4-4.2 2.9-3.8 5.3c.5 2.3 3 3.9 5.5 3.4zm12.3-3.1c.3-.4.7-.8 1-1.2.4-.5 1.2-.7 1.8-.4.5.2.9.5 1.4.7 1.4-1 2.1-2.7 1.7-4.4-.5-2.4-3-3.9-5.6-3.3-2.5.5-4.2 2.9-3.7 5.3.3 1.7 1.7 2.9 3.4 3.3zm16.5-3.2c2.6-.6 4.2-3 3.6-5.4-.6-2.4-3.1-3.8-5.6-3.2-2.5.6-4.2 3-3.6 5.4.6 2.4 3.1 3.8 5.6 3.2zm13.4-3.2c-.7-2.8-1.4-5.6-2-8.4-2 .9-3.1 3-2.6 5.1.4 2 2.4 3.4 4.6 3.3zm-51.3 1.2c2.6-.5 4.2-2.9 3.7-5.3s-2.9-3.9-5.5-3.4c-2.5.5-4.2 2.8-3.7 5.2.5 2.4 3 4 5.5 3.5zm14.3-2.9c2.5-.5 4.2-2.9 3.7-5.3s-3-3.9-5.5-3.4-4.2 2.9-3.7 5.3 3 3.9 5.5 3.4zm14.3-3.1c2.5-.6 4.2-3 3.6-5.4-.5-2.4-3-3.9-5.5-3.3-2.5.6-4.1 2.9-3.6 5.3.5 2.5 2.9 4 5.5 3.4zm14.2-3.3c2.5-.6 4.1-3 3.6-5.4-.6-2.4-3.1-3.8-5.6-3.2-2.5.6-4.1 3-3.6 5.4.6 2.4 3.1 3.8 5.6 3.2zm-41.8 38.5c1-1 1.6-2.4 1.3-3.9-.4-2.1-2.3-3.5-4.5-3.5.4 2.2.8 4.4 1.2 6.5.2.9 1.2 1.3 2 .9zm7.2-8.2c.1-.1.1-.1 0 0 .1-.1.1-.1 0 0zm35.7-7.8s.1 0 0 0c.1 0 0 0 0 0zm10.1 4.5c.9 0 1.7-.7 1.5-1.6-.5-2.2-1-4.3-1.6-6.5-2 .9-3.2 3-2.7 5.1.4 1.5 1.4 2.5 2.8 3zm-50.2 1.7c2.6-.5 4.3-2.9 3.8-5.3s-3-3.9-5.5-3.4c-2.6.5-4.3 2.9-3.8 5.3s2.9 3.9 5.5 3.4zm15.3-11.5c-.8-.3-1.7-.3-2.5-.1-2.6.5-4.3 2.9-3.8 5.3.1.6.4 1.1.7 1.6 1.9-2.2 3.8-4.5 5.6-6.8zm17.5.1c-.5-2.4-3.1-3.8-5.6-3.3-.9.2-1.6.6-2.3 1.2 2.6 1.3 5.3 2.6 7.9 3.8.1-.5.1-1.1 0-1.7zm10.8 2c2.6-.6 4.2-3 3.6-5.4-.6-2.4-3.1-3.8-5.7-3.2-2.6.6-4.2 3-3.6 5.4.6 2.4 3.1 3.8 5.7 3.2z"/><path class="st3" d="M647.8 15.4c4.2 1 8.4 2 12.6 2.9 4.7 1.1 9.3 2.1 14 3.1 4.2.9 8.4 1.8 12.6 2.6 3.6.7 7.3 1.4 10.9 2.1 4.3.8 8.7 1.6 13 2.4l1.5.3c2.9.5 5.9 1 8.8 1.5 1.7.3 3.3.6 5 .8 2.9.5 5.9.9 8.8 1.4 1.7.3 3.3.5 5 .8 2.9.4 5.9.9 8.8 1.3 1.7.2 3.3.5 5 .7 2.9.4 5.9.8 8.9 1.2.5.1 1 .1 1.6.2l12.6 1.5c1 .1 1.9.2 2.9.3 4.2.5 8.5.9 12.7 1.4 4.7.5 9.5 1 14.2 1.4 4.3.4 8.5.7 12.8 1.1 3.7.3 7.4.6 11.1.8 4.4.3 8.8.6 13.2.8.5 0 1 .1 1.6.1 3 .2 5.9.3 8.9.4 1.7.1 3.4.2 5 .2 3 .1 5.9.2 8.9.3 1.7.1 3.4.1 5.1.2 3 .1 5.9.2 8.9.2 1.7 0 3.4.1 5.1.1 3 0 5.9.1 8.9.1h17.2c4.3 0 8.5-.1 12.8-.2 4.8-.1 9.5-.2 14.3-.4 4.3-.1 8.5-.3 12.8-.5 3.7-.2 7.4-.3 11.1-.6 4.4-.2 8.8-.5 13.2-.8.5 0 1-.1 1.5-.1 3-.2 5.9-.4 8.9-.7 1.7-.1 3.4-.3 5-.4 3-.2 5.9-.5 8.9-.8 1.7-.1 3.4-.3 5-.4 3-.3 5.9-.6 8.9-.9 1.7-.2 3.4-.3 5-.5 3-.3 5.9-.6 8.9-1 .5 0 1-.1 1.6-.2l12.6-1.5c1-.1 1.9-.2 2.9-.4 4.2-.6 8.5-1.1 12.7-1.7l14.1-2.1c4.2-.7 8.5-1.3 12.7-2 3.7-.6 7.3-1.2 11-1.9 4.4-.8 8.7-1.6 13-2.4l1.5-.3c2.9-.6 5.9-1.1 8.8-1.7 1.7-.3 3.3-.7 5-1 2.9-.6 5.9-1.2 8.8-1.8 1.6-.3 3.3-.7 4.9-1.1 2.9-.6 5.8-1.3 8.7-2 1.6-.4 3.3-.7 4.9-1.1l8.7-2.1c.5-.1 1-.2 1.5-.4 14-3.4 27.9-7 41.8-11V-.9A1097.34 1097.34 0 0 1 603-.9v4.5c13.9 3.9 27.8 7.6 41.8 11 1.1.4 2.1.6 3 .8z"/></svg>