<svg version="1.1" id="Layer_1" xmlns="http://www.w3.org/2000/svg" x="0" y="0" viewBox="0 0 1180.9 144" xml:space="preserve"><style>.st0{opacity:.35;fill:#ffb680}.st7{fill-rule:evenodd;clip-rule:evenodd;fill:#e51954}.st8{opacity:.5;fill:#fff}.st10,.st12{fill-rule:evenodd;clip-rule:evenodd;fill:#9682cc}.st12{fill:#5637ab}.st13{opacity:.35;fill:#f8aefc}.st17,.st19{opacity:.35;fill:#e0befc}.st19{fill-rule:evenodd;clip-rule:evenodd;fill:#fce6b6}.st20{opacity:.35;fill:#bcbcbc}</style><path class="st0" d="m767.8 117-1-.2c.4-1.8.8-3.5 1.2-5.1 4.1-17 6.2-25.5-.7-55.7l1.1-.2c7 30.4 4.9 39 .7 56.2-.5 1.5-.9 3.2-1.3 5zm.4-62.8c-4.1 0-8.1-3.2-11.3-8.9-4.4-7.7-6.4-19.3-1.8-26.6 2.7-4.3 7.4-6.9 12.6-7 5.5-.1 10.6 2.4 13.6 6.8 4.8 7 2.8 18.8-1.7 26.8-3.3 5.7-7.3 8.9-11.4 8.9zm-.2-41.5h-.4c-4.9.1-9.3 2.5-11.8 6.5-4.3 6.9-2.2 18.3 1.9 25.5 1.8 3.1 5.4 8.3 10.4 8.3s8.7-5.2 10.4-8.3c4.2-7.5 6.3-19.1 1.8-25.7-2.7-3.9-7.3-6.3-12.3-6.3z"/><path fill-rule="evenodd" clip-rule="evenodd" fill="#ffb680" d="m768.1 52.4-1.5 4.8h2.9z"/><path class="st0" d="M756.9 25.5c-.3 0-.5-.2-.4-.5.3-3.5 2.8-7.1 6.1-8.8.2-.1.5 0 .6.2.1.2 0 .5-.2.6-3 1.6-5.4 4.9-5.7 8.1 0 .3-.2.4-.4.4zm9.6-9.4h-.2c-.2 0-.4-.2-.4-.4s.2-.4.4-.4h.2c.2 0 .4.2.4.5 0 .1-.2.3-.4.3z"/><g opacity=".35"><path d="M694.5 110.4c-.4-1.8-.8-3.5-1.2-5.1-4.1-17.2-6.2-25.8.7-56.2l1.1.2c-6.9 30.1-4.9 38.7-.7 55.7.4 1.6.8 3.3 1.2 5.1l-1.1.3zm.4-62.9c-4.1 0-8.1-3.2-11.3-8.9-4.4-7.7-6.4-19.3-1.8-26.6 2.7-4.3 7.4-6.9 12.6-7 5.5-.1 10.6 2.4 13.6 6.8 4.8 7 2.8 18.8-1.7 26.8-3.3 5.8-7.3 8.9-11.4 8.9zm-.2-41.4h-.4c-4.9.1-9.3 2.5-11.8 6.5-4.3 6.9-2.2 18.3 1.9 25.5 1.8 3.1 5.4 8.3 10.4 8.3s8.7-5.2 10.4-8.3c4.2-7.5 6.3-19.1 1.8-25.7-2.7-3.9-7.3-6.3-12.3-6.3z" fill="#fce792"/><path fill-rule="evenodd" clip-rule="evenodd" fill="#fce792" d="m694.8 45.7-1.5 4.8h2.9z"/></g><path d="M683.6 18.9c-.3 0-.5-.2-.4-.5.3-3.5 2.8-7.1 6.1-8.8.2-.1.5 0 .6.2.1.2 0 .5-.2.6-3 1.6-5.4 4.9-5.7 8.1 0 .2-.2.4-.4.4zm9.6-9.4h-.2c-.2 0-.4-.2-.4-.4s.2-.4.4-.4h.2c.2 0 .4.2.4.5 0 .1-.2.3-.4.3z" opacity=".35" fill="#fce792"/><path d="M713.6 134c-5.5-17.7-3.1-24.6-.6-31.9 2.3-6.6 4.7-13.4 1.1-29.2l1.1-.2c3.7 16.1 1.3 23.1-1.1 29.8-2.5 7.1-4.8 13.9.6 31.2l-1.1.3z" fill="#ffcadc"/><path class="st7" d="M715 70.6c-4.3 0-8.1-3.7-10.9-8.6-4.3-7.6-6.2-19.1-1.8-26.1 5.6-9 19.3-9 25.4-.1 4.7 6.8 2.6 18.6-1.8 26.2-2.8 4.9-6.6 8.6-10.9 8.6z"/><path class="st7" d="m714.9 69.3-1.5 4.8h2.9z"/><path class="st8" d="M703.7 43c-.6-.1-1-.5-1-1.1.3-3.7 2.9-7.5 6.4-9.3.5-.3 1.1-.1 1.3.4.3.5.1 1.1-.4 1.3-2.9 1.5-5.1 4.6-5.4 7.7.1.6-.4 1-.9 1zm9.6-9.4h-.2c-.6 0-1-.4-1-1s.4-1 1-1h.2c.6 0 1 .5 1 1 0 .6-.5 1-1 1z"/><path d="M744 141c-5.5-17.7-3.1-24.6-.6-31.9 2.3-6.6 4.7-13.4 1.1-29.2l1.1-.2c3.7 16.1 1.3 23.1-1.1 29.8-2.5 7.1-4.8 13.9.6 31.2l-1.1.3z" fill="#bdacfc"/><path class="st10" d="M745.4 77.6c-4.3 0-8.1-3.7-10.9-8.6-4.3-7.6-6.2-19.1-1.8-26.1 5.6-9 19.3-9 25.4-.1 4.7 6.8 2.6 18.6-1.8 26.2-2.8 4.9-6.6 8.6-10.9 8.6z"/><path class="st10" d="m745.3 76.3-1.5 4.8h3z"/><path class="st8" d="M734.1 50c-.6-.1-1-.5-1-1.1.3-3.7 2.9-7.5 6.4-9.3.5-.3 1.1-.1 1.3.4.3.5.1 1.1-.4 1.3-2.9 1.5-5.1 4.6-5.4 7.7.1.6-.3 1-.9 1zm9.6-9.4h-.2c-.6 0-1-.4-1-1s.4-1 1-1h.2c.6 0 1 .5 1 1 0 .6-.4 1-1 1z"/><path d="m104.3 102.8-1-.2c.4-1.7.8-3.3 1.1-4.8 3.8-15.8 5.7-23.7-.7-51.7l1-.2c6.5 28.2 4.5 36.2.7 52.2-.3 1.5-.7 3.1-1.1 4.7z" fill="#8e70fc"/><path class="st12" d="M104.7 43.9c-4 0-7.5-3.4-10.1-8-4-7.1-5.8-17.7-1.7-24.2 5.2-8.3 17.9-8.4 23.6-.1 4.4 6.4 2.4 17.3-1.6 24.4-2.7 4.5-6.2 7.9-10.2 7.9z"/><path class="st12" d="m104.6 42.8-1.4 4.4h2.7z"/><path class="st8" d="M94.2 18.4s-.1 0 0 0c-.6-.1-1-.5-1-1.1.3-3.5 2.7-7 6-8.7.5-.3 1.1-.1 1.3.4.3.5.1 1.1-.4 1.3-2.7 1.4-4.7 4.3-4.9 7.1-.1.6-.5 1-1 1zm8.9-8.7h-.2c-.6 0-1-.4-1-1s.4-1 1-1h.2c.6 0 1 .5 1 1 0 .6-.5 1-1 1z"/><path class="st13" d="m150.8 141.9-1-.2c.4-1.7.8-3.3 1.1-4.8 3.8-15.8 5.7-23.7-.7-51.7l1-.2c6.5 28.2 4.5 36.2.7 52.2-.3 1.4-.7 3-1.1 4.7zm.4-58.4c-3.8 0-7.5-2.9-10.5-8.3-4-7.2-5.9-18-1.7-24.8 2.5-4 6.9-6.4 11.8-6.5 5.1-.1 9.8 2.3 12.6 6.4 4.5 6.5 2.6 17.5-1.6 24.9-3.1 5.4-6.8 8.3-10.6 8.3zM151 45h-.3c-4.5.1-8.6 2.4-10.9 6-4 6.4-2.1 17 1.7 23.7 1.6 2.9 5.1 7.7 9.7 7.7s8-4.9 9.7-7.7c3.9-7 5.9-17.7 1.7-23.9-2.7-3.6-6.9-5.8-11.6-5.8z"/><path opacity=".35" fill-rule="evenodd" clip-rule="evenodd" fill="#f8aefc" d="m151.1 81.8-1.4 4.5h2.7z"/><path class="st13" d="M140.7 56.9c-.3 0-.4-.2-.4-.5.3-3.3 2.6-6.6 5.7-8.2.2-.1.5 0 .6.2.1.2 0 .5-.2.6-2.8 1.5-5 4.6-5.3 7.5 0 .2-.2.4-.4.4zm8.9-8.7h-.2c-.2 0-.4-.2-.4-.4s.2-.4.4-.4h.2c.2 0 .4.2.4.4s-.2.4-.4.4z"/><path d="M56.5 102.4C51.4 86 53.6 79.6 56 72.8c2.1-6.1 4.3-12.5 1-27.1l1-.2c3.4 14.9 1.2 21.4-1 27.7-2.3 6.6-4.5 12.9.5 29l-1 .2z" fill="#9682cc"/><path class="st10" d="M57.9 43.5c-4 0-7.5-3.4-10.1-8-4-7.1-5.8-17.7-1.7-24.2C51.3 3 64 2.9 69.7 11.2 74 17.5 72 28.4 68 35.5c-2.6 4.6-6.2 8-10.1 8z"/><path class="st10" d="m57.7 42.3-1.3 4.5h2.7z"/><path class="st8" d="M47.4 18c-.1 0-.1 0 0 0-.6-.1-1-.5-1-1.1.3-3.5 2.7-7 6-8.7.5-.3 1.1-.1 1.3.4.3.5.1 1.1-.4 1.3-2.7 1.4-4.7 4.3-4.9 7.1-.1.6-.5 1-1 1zm8.9-8.8s-.1 0 0 0h-.2c-.6 0-1-.4-1-1s.4-1 1-1h.2c.6 0 1 .5 1 1-.1.6-.5 1-1 1z"/><path d="m132.5 137.9-1-.3c5-16.1 2.9-22.4.5-29-2.2-6.3-4.4-12.8-1-27.7l1 .2c-3.4 14.7-1.2 21 1 27.1 2.4 6.9 4.7 13.3-.5 29.7z" fill="#fc8db2"/><path class="st7" d="M132.4 78.5c-4 0-7.5-3.4-10.1-8-4-7.1-5.8-17.7-1.7-24.2 5.2-8.3 17.9-8.4 23.6-.1 4.4 6.4 2.4 17.3-1.6 24.4-2.7 4.5-6.2 7.9-10.2 7.9z"/><path class="st7" d="m132.3 77.4-1.4 4.4h2.7z"/><path class="st8" d="M121.9 53s-.1 0 0 0c-.6-.1-1-.5-1-1.1.3-3.5 2.7-7 6-8.7.5-.3 1.1-.1 1.3.4.3.5.1 1.1-.4 1.3-2.7 1.4-4.7 4.3-4.9 7.1 0 .6-.5 1-1 1zm8.9-8.7h-.2c-.6 0-1-.4-1-1s.4-1 1-1h.2c.6 0 1 .5 1 1s-.5 1-1 1z"/><path class="st17" d="M492.9 142c-8.8-19.5-6-34-3.2-48.1 2-10.1 4.1-20.6 1.6-32.8l1.4-.3c2.5 12.5.4 23.1-1.6 33.4-2.7 13.8-5.6 28.2 3.1 47.2l-1.3.6z"/><path opacity=".35" fill-rule="evenodd" clip-rule="evenodd" fill="#e0befc" d="m492.5 56.4 2 6.3h-3.9z"/><path class="st17" d="M478.1 19.4c-.4 0-.6-.3-.6-.6.4-4.6 3.8-9.5 8.1-11.7.3-.2.7 0 .8.3.2.3 0 .7-.3.8-4 2.1-7.1 6.5-7.5 10.7.1.3-.2.5-.5.5zM490.8 7h-.2c-.3 0-.6-.3-.6-.6s.3-.6.6-.6h.2c.3 0 .6.3.6.6s-.3.6-.6.6z"/><path class="st17" d="M493.1 57.3c-5.4 0-10.7-4.2-15-11.8-5.8-10.2-8.4-25.6-2.4-35.3 3.5-5.7 9.8-9.1 16.7-9.3 7.3-.2 14 3.2 18 9.1 6.4 9.3 3.7 24.9-2.3 35.5-4.3 7.6-9.6 11.8-15 11.8zm-.2-54.9h-.5c-6.5.1-12.3 3.4-15.6 8.6-5.7 9.1-3 24.2 2.5 33.8 2.3 4.1 7.2 11 13.8 11 6.6 0 11.5-6.9 13.8-11 5.6-10 8.4-25.2 2.4-34-3.7-5.2-9.8-8.4-16.4-8.4zM521.1 143c-7.3-23.4-4.1-32.5-.8-42.2 3-8.7 6.2-17.8 1.4-38.7l1.4-.3c4.9 21.3 1.7 30.5-1.4 39.4-3.3 9.4-6.4 18.4.8 41.3l-1.4.5z"/><path class="st7" d="M522.9 59.1c-5.7 0-10.7-4.9-14.4-11.4-5.7-10.1-8.2-25.2-2.4-34.5 7.4-11.9 25.5-11.9 33.6-.2 6.2 9.1 3.4 24.6-2.3 34.7-3.7 6.5-8.8 11.4-14.5 11.4z"/><path class="st7" d="m522.8 57.4-2 6.4h3.9z"/><path class="st8" d="M508 22.3s-.1 0 0 0c-.6-.1-1-.5-1-1.1.4-4.8 3.8-9.7 8.3-12 .5-.3 1.1-.1 1.3.4.3.5.1 1.1-.4 1.3-3.9 2-6.9 6.3-7.3 10.4 0 .6-.4 1-.9 1zm12.7-12.4s-.1 0 0 0h-.2c-.6 0-1-.4-1-1s.4-1 1-1h.2c.6 0 1 .5 1 1-.1.5-.5 1-1 1z"/><path class="st19" d="m833.5 65.3-20 14.6-22 11.3 1.3 1.2c-.4.2-.9.4-1.3.6v-1.8l-23 9 1 1.1c-.4.1-.8.3-1.2.4l.2-1.5-24 5.9.9 1.3c-.4.1-.8.2-1.2.2l.4-1.5-24.6 2.8.8 1.6c-.5 0-1 .1-1.4.1l.6-1.7-24.7.2.6 1.5c-.5 0-.9-.1-1.4-.1l.8-1.4-24.4-3.6-1.2 1.9c.6.1 1.1.2 1.7.3l-.5-2.2-24.1-5.3-1 1.2c.4.1.8.3 1.2.4l-.2-1.6-23.4-8v.6c-2.8-1.3-5.6-2.6-8.4-4.1-8.2-4.2-16.2-9-23.9-14.4-.1-.2-.4-.3-.6-.2-.3.1-.5.4-.4.7 0 .1.1.3.2.3 7.8 5.5 15.9 10.4 24.2 14.6 3 1.5 6 3 9 4.3l1 33.4 20.6-25.1c.7.2 1.5.5 2.2.7l4.5 32 17.3-26.6c.9.2 1.8.3 2.7.5l6.7 31 15.6-28.3c.8.1 1.6.1 2.4.1l11.6 30.2 11-30.2c.8 0 1.6-.1 2.4-.2l14.6 28.7 7.9-31.4c.8-.1 1.5-.3 2.3-.4l18.3 26.8 3.7-32.2c.7-.2 1.5-.5 2.2-.7l21.6 24.1-.5-32.2c.7-.3 1.5-.7 2.2-1l23.8 21.6-3.8-32.1c.7-.4 1.4-.8 2.1-1.3l27 17.8-8.5-30.6c.7-.6 1.4-1.1 2.1-1.7l27.7 15.5-10.9-30.5 1.6-1.6L884.8 63l-14.7-30c2-2.6 4-5.3 5.9-8 5.3-7.6 10.2-15.7 14.6-24.2.1-.1.1-.3.1-.4-.1-.3-.4-.5-.7-.4-.2.1-.4.3-.4.5-4.3 8.4-9.2 16.4-14.4 23.9-1.8 2.6-3.6 5.1-5.5 7.5l-.2-.5-17 18-19 15.9zM853.8 50l-.9.9-.5-1.5 1.4.6zm-18.3 16.4c-.5.4-.9.7-1.4 1.1l-.6-2.2 2 1.1zm-22 13.5 1.4.9c-.4.2-.8.5-1.2.7l-.2-1.6z"/><path class="st19" d="m937.4 65.3 20 14.6 22 11.3-1.3 1.2c.4.2.9.4 1.3.6v-1.8l23 9-1 1.1c.4.1.8.3 1.2.4l-.2-1.5 24 5.9-.9 1.3c.4.1.8.2 1.2.2l-.4-1.5 24.6 2.8-.8 1.6c.5 0 1 .1 1.4.1l-.6-1.7 24.7.2-.6 1.5c.5 0 .9-.1 1.4-.1l-.8-1.4 24.4-3.6 1.2 1.9c-.6.1-1.1.2-1.7.3l.5-2.2 24.1-5.3 1 1.2c-.4.1-.8.3-1.2.4l.2-1.6 23.4-8v.6c2.8-1.3 5.6-2.6 8.4-4.1 8.2-4.2 16.2-9 23.9-14.4.1-.2.4-.3.6-.2.3.1.5.4.4.7 0 .1-.1.3-.2.3-7.8 5.5-15.9 10.4-24.2 14.6-3 1.5-6 3-9 4.3l-1 33.4-20.6-25.1c-.7.2-1.5.5-2.2.7l-4.5 32-17.3-26.6c-.9.2-1.8.3-2.7.5l-6.7 31-15.6-28.3c-.8.1-1.6.1-2.4.1L1063 142l-11-30.2c-.8 0-1.6-.1-2.4-.2l-14.6 28.7-7.9-31.4c-.8-.1-1.5-.3-2.3-.4l-18.3 26.8-3.7-32.2c-.7-.2-1.5-.5-2.2-.7L979 126.5l.5-32.2c-.7-.3-1.5-.7-2.2-1l-23.8 21.6 3.8-32.1c-.7-.4-1.4-.8-2.1-1.3l-27 17.8 8.5-30.6c-.7-.6-1.4-1.1-2.1-1.7l-27.7 15.5L917.8 52l-1.6-1.6L886.1 63l14.7-30c-2-2.6-4-5.3-5.9-8-5.3-7.6-10.2-15.7-14.6-24.2-.1-.1-.1-.3-.1-.4.1-.3.4-.5.7-.4.2.1.4.3.4.5 4.3 8.4 9.2 16.4 14.4 23.9 1.8 2.6 3.6 5.1 5.5 7.5l.2-.5 17 18 19 15.9zM917.2 50l.9.9.5-1.5-1.4.6zm18.3 16.4c.5.4.9.7 1.4 1.1l.6-2.2-2 1.1zm21.9 13.5-1.4.9c.4.2.8.5 1.2.7l.2-1.6z"/><path class="st20" d="M807.5 101.1c-40.8 0-80.3-8.3-117.3-24.6-38.5-17-72.2-41.8-100-73.8-.1-.1-.2-.3-.2-.5 0-.5.4-.9.8-.9.3 0 .6.2.8.5 54.1 62.1 132.8 97.7 215.9 97.7s161.9-35.6 216-97.7c.1-.2.4-.4.7-.4.5 0 .8.3.8.8v.1c0 .2-.1.4-.2.5-27.8 32-61.5 56.8-100 73.8-37 16.2-76.5 24.5-117.3 24.5z"/><path class="st12" d="M824.9 96.9h-34.7l17.3 46.4z"/><path class="st7" d="m859.3 92.4-34.4 4.5 23.2 43.7z"/><path class="st10" d="m893 84.4-33.7 8 27.6 41.1z"/><path class="st12" d="M925.2 71.3 893 84.4l33.6 36.4z"/><path class="st7" d="m956.3 55.9-31.1 15.4 36.1 33.8z"/><path class="st10" d="m985.5 37.1-29.2 18.8L996 85.5zM755.7 92.4l34.5 4.5-23.3 43.7z"/><path class="st7" d="m722 84.4 33.7 8-27.6 41.1z"/><path class="st12" d="M689.8 71.3 722 84.4l-33.6 36.4z"/><path class="st10" d="m658.7 55.9 31.1 15.4-36.1 33.8z"/><path class="st7" d="m629.6 37.1 29.1 18.8L619 85.5z"/><path class="st19" d="m243.5 65.3-20 14.6-22 11.3 1.3 1.2c-.4.2-.9.4-1.3.6v-1.8l-23 9 1 1.1c-.4.1-.8.3-1.2.4l.2-1.5-24 5.9.9 1.3c-.4.1-.8.2-1.2.2l.4-1.5-24.6 2.8.8 1.6c-.5 0-1 .1-1.4.1l.6-1.7-24.7.2.6 1.5c-.5 0-.9-.1-1.4-.1l.8-1.4-24.4-3.6-1.2 1.9c.6.1 1.1.2 1.7.3l-.5-2.2-24.1-5.3-1 1.2c.4.1.8.3 1.2.4l-.2-1.6-23.4-8v.6c-2.8-1.3-5.6-2.6-8.4-4.1-8.2-4.2-16.2-9-23.9-14.4-.1-.2-.4-.3-.6-.2-.3.1-.5.4-.4.7 0 .1.1.3.2.3 7.8 5.5 15.9 10.4 24.2 14.6 3 1.5 6 3 9 4.3l1 33.4 20.6-25.1c.7.2 1.5.5 2.2.7l4.5 32 17.3-26.6c.9.2 1.8.3 2.7.5l6.7 31 15.6-28.3c.8.1 1.6.1 2.4.1l11.6 30.2 11-30.2c.8 0 1.6-.1 2.4-.2l14.6 28.7 7.9-31.4c.8-.1 1.5-.3 2.3-.4l18.3 26.8 3.7-32.2c.7-.2 1.5-.5 2.2-.7l21.6 24.1-.5-32.2c.7-.3 1.5-.7 2.2-1l23.8 21.6-3.8-32.1c.7-.4 1.4-.8 2.1-1.3l27 17.8-8.5-30.6c.7-.6 1.4-1.1 2.1-1.7l27.7 15.5-10.9-30.5 1.6-1.6L294.8 63l-14.7-30c2-2.6 4-5.3 5.9-8 5.3-7.6 10.2-15.7 14.6-24.2.1-.1.1-.3.1-.4-.1-.3-.4-.5-.7-.4-.2.1-.4.3-.4.5-4.3 8.4-9.2 16.4-14.4 23.9-1.8 2.6-3.6 5.1-5.5 7.5l-.2-.5-17 18-19 15.9zM263.8 50l-.9.9-.5-1.5 1.4.6zm-18.3 16.4c-.5.4-.9.7-1.4 1.1l-.6-2.2 2 1.1zm-22 13.5 1.4.9c-.4.2-.8.5-1.2.7l-.2-1.6z"/><path class="st19" d="m347.4 65.3 20 14.6 22 11.3-1.3 1.2c.4.2.9.4 1.3.6v-1.8l23 9-1 1.1c.4.1.8.3 1.2.4l-.2-1.5 24 5.9-.9 1.3c.4.1.8.2 1.2.2l-.4-1.5 24.6 2.8-.8 1.6c.5 0 1 .1 1.4.1l-.6-1.7 24.7.2-.6 1.5c.5 0 .9-.1 1.4-.1l-.8-1.4 24.4-3.6 1.2 1.9c-.6.1-1.1.2-1.7.3l.5-2.2 24.1-5.3 1 1.2c-.4.1-.8.3-1.2.4l.2-1.6 23.4-8v.6c2.8-1.3 5.6-2.6 8.4-4.1 8.2-4.2 16.2-9 23.9-14.4.1-.2.4-.3.6-.2.3.1.5.4.4.7 0 .1-.1.3-.2.3-7.8 5.5-15.9 10.4-24.2 14.6-3 1.5-6 3-9 4.3l-1 33.4-20.4-25c-.7.2-1.5.5-2.2.7l-4.5 32-17.3-26.6c-.9.2-1.8.3-2.7.5l-6.7 31-15.6-28.3c-.8.1-1.6.1-2.4.1L473 142l-11-30.2c-.8 0-1.6-.1-2.4-.2L445 140.3l-7.9-31.4c-.8-.1-1.5-.3-2.3-.4l-18.3 26.8-3.7-32.2c-.7-.2-1.5-.5-2.2-.7L389 126.5l.5-32.2c-.7-.3-1.5-.7-2.2-1l-23.8 21.6 3.8-32.1c-.7-.4-1.4-.8-2.1-1.3l-27 17.8 8.5-30.6c-.7-.6-1.4-1.1-2.1-1.7l-27.7 15.5L327.8 52l-1.6-1.6L296.1 63l14.7-30c-2-2.6-4-5.3-5.9-8-5.3-7.6-10.2-15.7-14.6-24.2-.1-.1-.1-.3-.1-.4.1-.3.4-.5.7-.4.2.1.4.3.4.5 4.3 8.4 9.2 16.4 14.4 23.9 1.8 2.6 3.6 5.1 5.5 7.5l.2-.5 17 18 19 15.9zM327.2 50l.9.9.5-1.5-1.4.6zm18.3 16.4c.5.4.9.7 1.4 1.1l.6-2.2-2 1.1zm21.9 13.5-1.4.9c.4.2.8.5 1.2.7l.2-1.6z"/><path class="st20" d="M217.5 101.1c-40.8 0-80.3-8.3-117.3-24.6C61.7 59.5 28 34.6.2 2.7c-.1-.2-.2-.4-.2-.6 0-.5.4-.9.8-.9.3 0 .6.2.8.5 54.1 62.1 132.8 97.7 215.9 97.7s161.9-35.6 216-97.7c.1-.2.4-.4.7-.4.5 0 .8.3.8.8v.1c0 .2-.1.4-.2.5-27.8 32-61.5 56.8-100 73.8-37 16.3-76.5 24.6-117.3 24.6z"/><path class="st12" d="M234.9 96.9h-34.7l17.3 46.4z"/><path class="st7" d="m269.3 92.4-34.4 4.5 23.2 43.7z"/><path class="st10" d="m303 84.4-33.7 8 27.6 41.1z"/><path class="st12" d="M335.2 71.3 303 84.4l33.6 36.4z"/><path class="st7" d="m366.3 55.9-31.1 15.4 36.1 33.8z"/><path class="st10" d="m395.5 37.1-29.2 18.8L406 85.5zM165.7 92.4l34.5 4.5-23.3 43.7z"/><path class="st7" d="m132 84.4 33.7 8-27.6 41.1z"/><path class="st12" d="M99.8 71.3 132 84.4l-33.6 36.4z"/><path class="st10" d="m68.7 55.9 31.1 15.4-36.1 33.8z"/><path class="st7" d="m39.6 37.1 29.1 18.8L29 85.5z"/><path d="m450.2 143-1.4-.3c.5-2.3 1.1-4.5 1.6-6.6 5.3-21.9 7.9-32.9-1-71.7l1.4-.3c9 39.1 6.3 50.2 1 72.3-.5 2.1-1 4.3-1.6 6.6z" opacity=".35" fill="#beaff9"/><path class="st12" d="M450.7 61.4c-5.5 0-10.4-4.7-14-11.1-5.5-9.8-8-24.6-2.4-33.6 7.2-11.5 24.8-11.6 32.7-.2 6.1 8.8 3.3 23.9-2.3 33.8-3.5 6.4-8.5 11.1-14 11.1z"/><path class="st12" d="m450.5 59.8-1.9 6.2h3.8z"/><path class="st8" d="M436.2 25.2c-.1 0-.1 0 0 0-.4 0-.6-.3-.6-.6.4-4.5 3.7-9.2 7.9-11.4.3-.1.6 0 .8.3.1.3 0 .6-.3.8-3.9 2-6.9 6.3-7.3 10.5 0 .2-.2.4-.5.4zm12.3-12.1h-.2c-.3 0-.6-.3-.6-.6s.3-.6.6-.6h.2c.3 0 .6.3.6.6 0 .4-.3.6-.6.6z"/><path d="m1050.5 117.4-1.1-.3c.4-1.9.9-3.7 1.3-5.4 4.3-17.9 6.5-26.9-.8-58.7l1.1-.3c7.3 32 5.2 41.1.8 59.2-.4 1.8-.8 3.6-1.3 5.5zm.5-66.2c-4.3 0-8.6-3.3-12-9.4-4.6-8.1-6.7-20.4-1.9-28.1 2.8-4.5 7.8-7.3 13.3-7.4 5.8-.1 11.2 2.6 14.3 7.2 5.1 7.4 2.9 19.8-1.8 28.3-3.4 6.1-7.6 9.4-11.9 9.4zm-.2-43.7h-.4c-5.2.1-9.8 2.7-12.4 6.9-4.5 7.2-2.4 19.3 2 26.9 1.9 3.3 5.7 8.8 11 8.8s9.1-5.5 11-8.8c4.5-7.9 6.7-20.1 1.9-27.1-3-4.2-7.8-6.7-13.1-6.7z" fill="#fcc96d" opacity=".35"/><path opacity=".35" fill-rule="evenodd" clip-rule="evenodd" fill="#fcc96d" d="m1050.8 49.3-1.5 5.1h3.1z"/><path d="M1039 21c-.3 0-.5-.3-.5-.5.3-3.7 3-7.5 6.5-9.3.2-.1.5 0 .6.2.1.2 0 .5-.2.6-3.2 1.6-5.7 5.2-6 8.6.1.2-.1.4-.4.4zm10.1-9.9h-.2c-.3 0-.5-.2-.5-.5s.2-.5.5-.5h.2c.3 0 .5.2.5.5s-.2.5-.5.5z" opacity=".35" fill="#fcfaa2"/><path d="M1021.9 148.4c-5.8-18.6-3.3-25.9-.6-33.6 2.4-7 4.9-14.2 1.1-30.8l1.1-.3c3.9 17 1.3 24.3-1.1 31.4-2.6 7.5-5.1 14.6.6 32.9l-1.1.4z" opacity=".35" fill="#ff88b0"/><path class="st7" d="M1023.4 81.5c-4.5 0-8.5-3.9-11.5-9.1-4.5-8-6.5-20.1-1.9-27.5 5.9-9.5 20.3-9.5 26.7-.2 5 7.2 2.7 19.6-1.8 27.7-2.9 5.2-7 9.1-11.5 9.1z"/><path class="st7" d="m1023.3 80.2-1.6 5h3.1z"/><path class="st8" d="M1011.5 51.9c-.3 0-.5-.3-.5-.5.3-3.7 3-7.5 6.5-9.3.2-.1.5 0 .6.2.1.2 0 .5-.2.6-3.2 1.6-5.7 5.2-6 8.6.1.2-.1.4-.4.4zm10.1-9.9h-.2c-.3 0-.5-.2-.5-.5s.2-.5.5-.5h.2c.3 0 .5.2.5.5s-.2.5-.5.5z"/></svg>