<svg version="1.1" id="Layer_1" xmlns="http://www.w3.org/2000/svg" x="0" y="0" viewBox="0 0 1026.9 144" xml:space="preserve"><style>.st0,.st1{fill:#e2a4ff}.st1{opacity:.5;enable-background:new}.st15{opacity:.2}.st16{fill:#5c17a1}.st34,.st35{fill:#ffc500}.st35,.st40{opacity:.5;enable-background:new}.st40{fill:#5c17a1}.st43{fill:#fdc50a}.st44{fill:#614394}</style><g id="Layer_1_copy"><path class="st0" d="M269.9 95.5s9 37.8 19.4 38.7 27.5-31.6 27.5-31.6l-46.9-7.1z"/><path class="st1" d="M296.3 124.1c-6-1.8-12.3-6.9-14.3-12.9-1.6-4.7-1.7-9.5-.2-13.8l-11.9-1.8s9 37.8 19.4 38.7c3.8.3 8.5-3.8 12.9-9.1-1.9-.2-3.9-.5-5.9-1.1z"/><path class="st0" d="M306.9 116c-2.6 4.4-6.3 7-8.4 5.8s-1.7-5.7.9-10.1 6.3-7 8.4-5.8 1.7 5.7-.9 10.1zm-11.4 12.8c-1.4 1.6-3.1 2.4-3.8 1.8-.8-.6-.3-2.4 1.1-4 1.4-1.6 3.1-2.4 3.8-1.8.8.6.3 2.4-1.1 4zM87.2 37.1s.3 38.6 10.3 41.8 34.1-24.6 34.1-24.6L87.2 37.1z"/><path class="st1" d="M106.6 70.5c-5.5-3-10.5-9.3-11.1-15.6-.5-4.9.4-9.6 2.9-13.5l-11.2-4.3s.3 38.6 10.3 41.8c3.7 1.2 9.2-1.8 14.7-6.1-1.9-.5-3.8-1.3-5.6-2.3z"/><path class="st0" d="M118.8 65c-3.5 3.7-7.8 5.4-9.5 3.8-1.8-1.6-.3-5.9 3.2-9.6 3.5-3.7 7.8-5.4 9.5-3.8 1.7 1.6.3 5.9-3.2 9.6zm-14.1 9.9c-1.7 1.3-3.6 1.6-4.2.9-.6-.8.3-2.4 2-3.7 1.7-1.3 3.6-1.6 4.2-.9.6.8-.3 2.4-2 3.7z"/><linearGradient id="SVGID_1_" gradientUnits="userSpaceOnUse" x1="206.169" y1="2.937" x2="252.51" y2="2.937" gradientTransform="matrix(1 .0039 .0039 -1 16.741 106.832)"><stop offset=".118" stop-color="#ff33e8"/><stop offset="1" stop-color="#ff33e7"/></linearGradient><path d="M223 84.7s6.1 38.3 16.4 40c10.4 1.7 29.9-29.4 29.9-29.4L223 84.7z" fill="url(#SVGID_1_)"/><linearGradient id="SVGID_00000053524743050250094070000013112746544462318250_" gradientUnits="userSpaceOnUse" x1="231.79" y1="2.361" x2="244.431" y2="2.361" gradientTransform="matrix(1 .0039 .0039 -1 16.741 106.832)"><stop offset=".118" stop-color="#ff33e8"/><stop offset="1" stop-color="#ff33e7"/></linearGradient><path d="M258.4 107.8c-2.9 4.2-6.8 6.5-8.8 5.2s-1.2-5.8 1.7-10 6.8-6.5 8.8-5.2c2 1.3 1.2 5.8-1.7 10z" fill="url(#SVGID_00000053524743050250094070000013112746544462318250_)"/><linearGradient id="SVGID_00000116203699265310773000000016763711804966536619_" gradientUnits="userSpaceOnUse" x1="225.117" y1="-10.678" x2="231.046" y2="-10.678" gradientTransform="matrix(1 .0039 .0039 -1 16.741 106.832)"><stop offset=".118" stop-color="#ff33e8"/><stop offset="1" stop-color="#ff33e7"/></linearGradient><path d="M246.1 119.6c-1.5 1.5-3.3 2.1-4 1.5-.7-.7-.1-2.4 1.4-3.9s3.3-2.1 4-1.5c.7.7 0 2.5-1.4 3.9z" fill="url(#SVGID_00000116203699265310773000000016763711804966536619_)"/><linearGradient id="SVGID_00000047051222041166201700000013129691346477285006_" gradientUnits="userSpaceOnUse" x1="26.572" y1="67.449" x2="70.385" y2="67.449" gradientTransform="matrix(1 .0039 .0039 -1 16.741 106.832)"><stop offset=".118" stop-color="#ff33e8"/><stop offset="1" stop-color="#ff33e7"/></linearGradient><path d="M43.7 18.3s-1.3 38.6 8.6 42.1 35.1-23.3 35.1-23.3L43.7 18.3z" fill="url(#SVGID_00000047051222041166201700000013129691346477285006_)"/><linearGradient id="SVGID_00000111911741537488300810000009998512085931572131_" gradientUnits="userSpaceOnUse" x1="46.908" y1="62.694" x2="61.466" y2="62.694" gradientTransform="matrix(1 .0039 .0039 -1 16.741 106.832)"><stop offset=".118" stop-color="#ff33e8"/><stop offset="1" stop-color="#ff33e7"/></linearGradient><path d="M74.2 47.4c-3.7 3.6-8 5.1-9.7 3.4-1.7-1.7-.1-5.9 3.6-9.5s8-5.1 9.7-3.4c1.7 1.7.1 5.9-3.6 9.5z" fill="url(#SVGID_00000111911741537488300810000009998512085931572131_)"/><linearGradient id="SVGID_00000127024643958694834320000007163297454265931655_" gradientUnits="userSpaceOnUse" x1="38.457" y1="51.745" x2="45.1" y2="51.745" gradientTransform="matrix(1 .0039 .0039 -1 16.741 106.832)"><stop offset=".118" stop-color="#ff33e8"/><stop offset="1" stop-color="#ff33e7"/></linearGradient><path d="M59.7 56.7c-1.7 1.2-3.6 1.5-4.2.7-.6-.8.4-2.4 2.1-3.6 1.7-1.2 3.6-1.5 4.2-.7.7.8-.3 2.4-2.1 3.6z" fill="url(#SVGID_00000127024643958694834320000007163297454265931655_)"/><path class="st0" d="M176.4 70s3.1 38.6 13.3 41c10.2 2.5 32.1-27 32.1-27l-45.4-14z"/><path class="st1" d="M198.2 102c-5.7-2.6-11.2-8.6-12.2-14.8-.8-4.9-.3-9.6 2-13.7L176.4 70s3.1 38.6 13.3 41c3.7.9 9-2.5 14.2-7.1-1.9-.4-3.8-1-5.7-1.9z"/><path class="st0" d="M210 95.7c-3.2 3.9-7.3 5.9-9.2 4.5-1.9-1.5-.8-5.9 2.5-9.8 3.2-3.9 7.3-5.9 9.2-4.5 1.8 1.4.7 5.8-2.5 9.8zm-13.3 10.8c-1.6 1.4-3.4 1.9-4.1 1.2-.7-.7.1-2.4 1.7-3.8 1.6-1.4 3.4-1.9 4.1-1.2.7.8-.1 2.5-1.7 3.8zm267-3.1s20.1 33.7 30.3 31.5c10.2-2.2 16.3-38.5 16.3-38.5l-46.6 7z"/><path class="st1" d="M497.4 123c-6.2.1-13.8-3-17.5-8.1-2.9-4.1-4.6-8.6-4.4-13.3l-11.8 1.8s20.1 33.7 30.3 31.5c3.7-.8 6.9-6.1 9.4-12.6-1.9.5-3.9.7-6 .7z"/><path class="st0" d="M505 112.2c-1.1 5-3.8 8.6-6.1 8-2.3-.5-3.3-5-2.2-10 1.1-5 3.8-8.6 6.1-8 2.2.5 3.2 5 2.2 10zm-6.9 15.6c-.8 1.9-2.2 3.2-3.1 2.8s-1-2.3-.2-4.2c.8-1.9 2.2-3.2 3.1-2.8s1 2.3.2 4.2z"/><linearGradient id="SVGID_00000148630463402206509580000018443078312348293788_" gradientUnits="userSpaceOnUse" x1="399.252" y1="-13.336" x2="446.238" y2="-13.336" gradientTransform="matrix(1 .0039 .0039 -1 16.741 106.832)"><stop offset=".118" stop-color="#ff33e8"/><stop offset="1" stop-color="#ff33e7"/></linearGradient><path d="M416 106.8s17.5 35 27.8 33.6c10.3-1.4 19.2-37.1 19.2-37.1l-47 3.5z" fill="url(#SVGID_00000148630463402206509580000018443078312348293788_)"/><linearGradient id="SVGID_00000159452017312763616700000013172749433702401184_" gradientUnits="userSpaceOnUse" x1="430.893" y1="-8.818" x2="440.627" y2="-8.818" gradientTransform="matrix(1 .0039 .0039 -1 16.741 106.832)"><stop offset=".118" stop-color="#ff33e8"/><stop offset="1" stop-color="#ff33e7"/></linearGradient><path d="M456.6 118.6c-1.5 4.9-4.5 8.3-6.7 7.6-2.3-.7-2.9-5.2-1.5-10.1 1.5-4.9 4.5-8.3 6.7-7.6 2.3.7 2.9 5.2 1.5 10.1z" fill="url(#SVGID_00000159452017312763616700000013172749433702401184_)"/><linearGradient id="SVGID_00000073719629609756136640000003870130666154047881_" gradientUnits="userSpaceOnUse" x1="427.975" y1="-24.29" x2="432.621" y2="-24.29" gradientTransform="matrix(1 .0039 .0039 -1 16.741 106.832)"><stop offset=".118" stop-color="#ff33e8"/><stop offset="1" stop-color="#ff33e7"/></linearGradient><path d="M448.5 133.6c-.9 1.9-2.4 3-3.3 2.6s-.8-2.3.1-4.2 2.4-3 3.3-2.6c.9.5.9 2.4-.1 4.2z" fill="url(#SVGID_00000073719629609756136640000003870130666154047881_)"/><path class="st0" d="M367.4 106.5s14.8 36.2 25.2 35.5c10.4-.7 22.1-35.4 22.1-35.4l-47.3-.1z"/><path class="st1" d="M397.8 130.8c-6.2-.9-13.2-5-16.1-10.6-2.3-4.4-3.2-9.2-2.4-13.7h-11.9s14.8 36.2 25.2 35.5c3.8-.2 7.8-5 11.3-11-2 .1-4 .1-6.1-.2z"/><path class="st0" d="M407 121.2c-1.8 4.7-5.1 7.9-7.3 7-2.2-.9-2.5-5.4-.7-10.2 1.8-4.7 5.1-7.9 7.3-7 2.3.9 2.6 5.5.7 10.2zm-9.2 14.4c-1.1 1.8-2.7 2.8-3.5 2.3s-.6-2.4.5-4.1c1.1-1.8 2.7-2.8 3.5-2.3.8.5.6 2.3-.5 4.1zM1 0s-.5 38.6 9.5 41.9c10 3.3 34.6-24 34.6-24L1 0z"/><path class="st1" d="M19.8 33.7C14.4 30.6 9.4 24.2 9 17.9c-.4-4.9.6-9.5 3.1-13.4L1 0s-.5 38.6 9.5 41.9c3.6 1.2 9.2-1.6 14.8-5.8-1.8-.5-3.7-1.3-5.5-2.4z"/><path class="st0" d="M32.1 28.5c-3.6 3.6-7.9 5.3-9.6 3.6-1.7-1.6-.2-5.9 3.4-9.5s7.9-5.3 9.6-3.6c1.7 1.6.2 5.8-3.4 9.5zm-14.2 9.6c-1.7 1.2-3.6 1.6-4.2.8-.6-.8.3-2.4 2.1-3.6 1.7-1.2 3.6-1.6 4.2-.8.5.7-.4 2.4-2.1 3.6z"/><linearGradient id="SVGID_00000044140181472354330360000015248985389078585502_" gradientUnits="userSpaceOnUse" x1="302.235" y1="-12.697" x2="349.452" y2="-12.697" gradientTransform="matrix(1 .0039 .0039 -1 16.741 106.832)"><stop offset=".118" stop-color="#ff33e8"/><stop offset="1" stop-color="#ff33e7"/></linearGradient><path d="M319 101.9s11.1 37.3 21.6 37.7c10.5.3 25.6-33.1 25.6-33.1l-47.2-4.6z" fill="url(#SVGID_00000044140181472354330360000015248985389078585502_)"/><linearGradient id="SVGID_00000049209332625528389360000007182271332570178223_" gradientUnits="userSpaceOnUse" x1="330.884" y1="-10.305" x2="342.191" y2="-10.305" gradientTransform="matrix(1 .0039 .0039 -1 16.741 106.832)"><stop offset=".118" stop-color="#ff33e8"/><stop offset="1" stop-color="#ff33e7"/></linearGradient><path d="M357.1 120.4c-2.3 4.5-5.9 7.3-8 6.3-2.1-1.1-2-5.6.3-10.2 2.3-4.5 5.9-7.3 8-6.3 2.1 1.1 2 5.6-.3 10.2z" fill="url(#SVGID_00000049209332625528389360000007182271332570178223_)"/><linearGradient id="SVGID_00000145058844551618890540000003737083923436536453_" gradientUnits="userSpaceOnUse" x1="325.676" y1="-24.537" x2="331.06" y2="-24.537" gradientTransform="matrix(1 .0039 .0039 -1 16.741 106.832)"><stop offset=".118" stop-color="#ff33e8"/><stop offset="1" stop-color="#ff33e7"/></linearGradient><path d="M346.4 133.7c-1.3 1.7-2.9 2.6-3.7 2-.8-.6-.4-2.4.9-4.1 1.3-1.7 2.9-2.6 3.7-2 .8.7.4 2.5-.9 4.1z" fill="url(#SVGID_00000145058844551618890540000003737083923436536453_)"/><linearGradient id="SVGID_00000005976507923672537330000004155385046597332154_" gradientUnits="userSpaceOnUse" x1="115.152" y1="32.111" x2="160.112" y2="32.111" gradientTransform="matrix(1 .0039 .0039 -1 16.741 106.832)"><stop offset=".118" stop-color="#ff33e8"/><stop offset="1" stop-color="#ff33e7"/></linearGradient><path d="M132.1 54.4s1.6 38.6 11.8 41.4C154 98.6 177 70 177 70l-44.9-15.6z" fill="url(#SVGID_00000005976507923672537330000004155385046597332154_)"/><g class="st15"><path class="st16" d="M233.9 101.1c-1.2-4.8-1-9.6.9-13.8L223 84.7s6.1 38.3 16.4 40c3.8.6 8.8-3.1 13.6-8.1-1.9-.3-3.9-.8-5.9-1.5-5.8-2.3-11.7-7.8-13.2-14zM51.2 36.4c-.3-4.9.8-9.6 3.5-13.3l-11-4.8s-1.3 38.6 8.6 42.1c3.6 1.3 9.3-1.5 15-5.5-1.9-.6-3.7-1.5-5.5-2.6-5.4-3.2-10.2-9.7-10.6-15.9zm397 92.4c-6.2-.4-13.5-4-16.9-9.4-2.6-4.3-3.9-8.9-3.4-13.5l-11.9.9s17.5 35 27.8 33.6c3.8-.5 7.3-5.6 10.3-11.8-1.8.3-3.8.4-5.9.2zm-116.3-11.9c-1.8-4.6-2.3-9.4-1-13.8l-11.9-1.2s11.1 37.3 21.6 37.7c3.8.1 8.2-4.2 12.3-9.8-2 0-4-.3-6-.8-6-1.5-12.7-6.2-15-12.1zM141 71.9c-.6-4.9.1-9.6 2.5-13.6l-11.4-4s1.6 38.6 11.8 41.4c3.7 1 9.1-2.1 14.5-6.6-1.9-.5-3.8-1.2-5.7-2.2-5.6-2.6-10.9-8.8-11.7-15z"/></g><linearGradient id="SVGID_00000179618698853118598990000000102214301348439191_" gradientUnits="userSpaceOnUse" x1="137.651" y1="28.996" x2="151.46" y2="28.996" gradientTransform="matrix(1 .0039 .0039 -1 16.741 106.832)"><stop offset=".118" stop-color="#ff33e8"/><stop offset="1" stop-color="#ff33e7"/></linearGradient><path d="M164.7 81.2c-3.4 3.8-7.6 5.7-9.4 4.1-1.8-1.5-.5-5.9 2.8-9.7 3.4-3.8 7.6-5.7 9.4-4.1 1.8 1.5.6 5.9-2.8 9.7z" fill="url(#SVGID_00000179618698853118598990000000102214301348439191_)"/><linearGradient id="SVGID_00000090282207940098712910000006391334976224268192_" gradientUnits="userSpaceOnUse" x1="129.857" y1="17.101" x2="136.228" y2="17.101" gradientTransform="matrix(1 .0039 .0039 -1 16.741 106.832)"><stop offset=".118" stop-color="#ff33e8"/><stop offset="1" stop-color="#ff33e7"/></linearGradient><path d="M151 91.6c-1.6 1.3-3.5 1.8-4.1 1-.6-.7.2-2.4 1.9-3.7 1.7-1.3 3.5-1.8 4.1-1 .6.7-.3 2.4-1.9 3.7z" fill="url(#SVGID_00000090282207940098712910000006391334976224268192_)"/><path class="st16" d="M516.2 95.3s-.2.1-.7.2-1.2.2-2.2.4c-1.9.3-4.7.7-8.2 1.3-7.1 1-17.1 2.7-29.3 4.5-6.1 1-12.7 1.7-19.6 2.6-3.5.4-7.1.7-10.8 1.1-3.7.3-7.4.7-11.3.9-3.8.2-7.7.5-11.7.7s-8 .3-12 .4c-2 .1-4 .1-6.1.2h-18.4c-8.2-.3-16.4-.4-24.5-.9l-6-.3c-2-.1-4-.2-6-.4-4-.3-7.9-.7-11.7-1-1-.1-1.9-.2-2.9-.2-1-.1-1.9-.2-2.8-.3-1.9-.2-3.8-.4-5.6-.6-3.7-.4-7.3-.7-10.8-1.2s-6.9-.9-10.2-1.4c-1.7-.2-3.3-.4-4.9-.7-1.6-.3-3.1-.5-4.7-.7-3.1-.5-6-1-8.8-1.4-1.4-.2-2.7-.4-4.1-.7-1.3-.2-2.6-.5-3.8-.7-4.9-.9-9.3-1.7-12.8-2.4-7.1-1.5-11.1-2.3-11.1-2.3s-1-.2-2.9-.6c-.9-.2-2.1-.5-3.5-.7-1.4-.3-2.9-.7-4.7-1.1-3.5-.8-7.8-1.9-12.7-3-4.9-1.3-10.3-2.7-16.3-4.3-3-.9-6.1-1.7-9.3-2.7-3.2-.9-6.5-1.8-9.9-2.9-6.8-2.1-13.9-4.3-21.2-6.8s-14.9-4.9-22.5-7.8c-3.8-1.4-7.7-2.8-11.5-4.2l-2.9-1.1-2.9-1.1-5.8-2.3c-30.7-12-61-25.3-83.7-35-5.7-2.4-10.9-4.7-15.5-6.6s-8.7-3.6-12-5-5.9-2.5-7.7-3.3c-.9-.4-1.6-.7-2-.9-.4-.5-.6-.6-.6-.7 0 0 .3.1.7.2.5.2 1.1.5 2.1.8 1.8.7 4.4 1.7 7.8 3s7.4 3 12.1 4.8c4.6 1.9 9.9 4.1 15.6 6.4 22.9 9.4 53.2 22.4 84 34.2l5.8 2.2 2.9 1.1 2.9 1c3.9 1.4 7.7 2.8 11.5 4.2 7.6 2.8 15.2 5.2 22.5 7.7s14.5 4.6 21.2 6.7c3.4 1.1 6.7 1.9 9.9 2.9 3.2.9 6.3 1.8 9.3 2.6 6 1.5 11.4 3 16.3 4.2 4.9 1.1 9.1 2.1 12.6 3 1.7.4 3.3.8 4.7 1.1 1.4.3 2.5.5 3.5.7 1.9.4 2.9.6 2.9.6s4 .9 11.1 2.4c3.5.7 7.8 1.5 12.7 2.4 1.2.2 2.5.5 3.8.7s2.7.4 4 .7c2.8.5 5.7.9 8.7 1.4 1.5.2 3.1.5 4.7.8 1.6.2 3.2.4 4.8.7 3.3.5 6.7.9 10.2 1.4s7.1.8 10.8 1.3c1.8.2 3.7.4 5.6.6.9.1 1.9.2 2.8.3 1 .1 1.9.2 2.9.3 3.8.3 7.7.7 11.7 1 2 .2 4 .3 6 .4s4 .2 6 .4c8.1.6 16.3.8 24.4 1.1 4.1.1 8.2.1 12.3.1h6.1c2 0 4.1-.1 6.1-.1 4-.1 8-.1 12-.3l11.7-.6c3.8-.2 7.6-.5 11.3-.8 3.7-.3 7.3-.6 10.8-.9 7-.8 13.6-1.5 19.6-2.3 12.1-1.6 22.2-3.1 29.3-4 3.5-.4 6.3-.8 8.2-1 1-.1 1.7-.2 2.2-.2.3-.2.5-.2.5-.2z"/><path class="st0" d="M758 95.5s-9 37.8-19.4 38.7-27.5-31.6-27.5-31.6l46.9-7.1z"/><path class="st1" d="M731.6 124.1c6-1.8 12.3-6.9 14.3-12.9 1.6-4.7 1.7-9.5.2-13.8l11.9-1.8s-9 37.8-19.4 38.7c-3.8.3-8.5-3.8-12.9-9.1 1.9-.2 3.9-.5 5.9-1.1z"/><path class="st0" d="M721 116c2.6 4.4 6.3 7 8.4 5.8 2.1-1.2 1.7-5.7-.9-10.1-2.6-4.4-6.3-7-8.4-5.8-2.1 1.2-1.7 5.7.9 10.1zm11.4 12.8c1.4 1.6 3.1 2.4 3.8 1.8.8-.6.3-2.4-1.1-4-1.4-1.6-3.1-2.4-3.8-1.8-.8.6-.3 2.4 1.1 4zm208.3-91.7s-.3 38.6-10.3 41.8-34.1-24.6-34.1-24.6l44.4-17.2z"/><path class="st1" d="M921.3 70.5c5.5-3 10.5-9.3 11.1-15.6.5-4.9-.4-9.6-2.9-13.5l11.2-4.3s-.3 38.6-10.3 41.8c-3.7 1.2-9.2-1.8-14.7-6.1 1.9-.5 3.8-1.3 5.6-2.3z"/><path class="st0" d="M909.1 65c3.5 3.7 7.8 5.4 9.5 3.8 1.8-1.6.3-5.9-3.2-9.6-3.5-3.7-7.8-5.4-9.5-3.8-1.8 1.6-.3 5.9 3.2 9.6zm14 9.9c1.7 1.3 3.6 1.6 4.2.9.6-.8-.3-2.4-2-3.7-1.7-1.3-3.6-1.6-4.2-.9-.6.8.3 2.4 2 3.7z"/><linearGradient id="SVGID_00000132055477568660510590000001716829346201917071_" gradientUnits="userSpaceOnUse" x1="683.956" y1="4.8" x2="730.296" y2="4.8" gradientTransform="rotate(180 744.37 54.868)"><stop offset=".118" stop-color="#ff33e8"/><stop offset="1" stop-color="#ff33e7"/></linearGradient><path d="M804.9 84.7s-6.1 38.3-16.4 40c-10.4 1.7-29.9-29.4-29.9-29.4l46.3-10.6z" fill="url(#SVGID_00000132055477568660510590000001716829346201917071_)"/><linearGradient id="SVGID_00000062185662928611693000000014378990571029150900_" gradientUnits="userSpaceOnUse" x1="709.599" y1="4.224" x2="722.24" y2="4.224" gradientTransform="rotate(180 744.37 54.868)"><stop offset=".118" stop-color="#ff33e8"/><stop offset="1" stop-color="#ff33e7"/></linearGradient><path d="M769.5 107.8c2.9 4.2 6.8 6.5 8.8 5.2s1.2-5.8-1.7-10-6.8-6.5-8.8-5.2c-2 1.3-1.2 5.8 1.7 10z" fill="url(#SVGID_00000062185662928611693000000014378990571029150900_)"/><linearGradient id="SVGID_00000024690969961000411090000010935649856570045612_" gradientUnits="userSpaceOnUse" x1="702.923" y1="-8.815" x2="708.853" y2="-8.815" gradientTransform="rotate(180 744.37 54.868)"><stop offset=".118" stop-color="#ff33e8"/><stop offset="1" stop-color="#ff33e7"/></linearGradient><path d="M781.8 119.6c1.5 1.5 3.3 2.1 4 1.5.7-.7.1-2.4-1.4-3.9s-3.3-2.1-4-1.5c-.7.7-.1 2.5 1.4 3.9z" fill="url(#SVGID_00000024690969961000411090000010935649856570045612_)"/><linearGradient id="SVGID_00000127739871038581124500000000894127241302926991_" gradientUnits="userSpaceOnUse" x1="504.359" y1="69.313" x2="548.172" y2="69.313" gradientTransform="rotate(180 744.37 54.868)"><stop offset=".118" stop-color="#ff33e8"/><stop offset="1" stop-color="#ff33e7"/></linearGradient><path d="M984.2 18.3s1.3 38.6-8.6 42.1-35.1-23.3-35.1-23.3l43.7-18.8z" fill="url(#SVGID_00000127739871038581124500000000894127241302926991_)"/><linearGradient id="SVGID_00000035496980245296360170000008730143429001296309_" gradientUnits="userSpaceOnUse" x1="524.717" y1="64.557" x2="539.275" y2="64.557" gradientTransform="rotate(180 744.37 54.868)"><stop offset=".118" stop-color="#ff33e8"/><stop offset="1" stop-color="#ff33e7"/></linearGradient><path d="M953.7 47.4c3.7 3.6 8 5.1 9.7 3.4 1.7-1.7.1-5.9-3.6-9.5-3.7-3.6-8-5.1-9.7-3.4s-.1 5.9 3.6 9.5z" fill="url(#SVGID_00000035496980245296360170000008730143429001296309_)"/><linearGradient id="SVGID_00000155864840080072991390000016037435575060270737_" gradientUnits="userSpaceOnUse" x1="516.266" y1="53.609" x2="522.904" y2="53.609" gradientTransform="rotate(180 744.37 54.868)"><stop offset=".118" stop-color="#ff33e8"/><stop offset="1" stop-color="#ff33e7"/></linearGradient><path d="M968.1 56.7c1.7 1.2 3.6 1.5 4.2.7.6-.8-.4-2.4-2.1-3.6-1.7-1.2-3.6-1.5-4.2-.7-.6.8.4 2.4 2.1 3.6z" fill="url(#SVGID_00000155864840080072991390000016037435575060270737_)"/><path class="st0" d="M851.4 70s-3.1 38.6-13.3 41c-10.2 2.5-32.1-27-32.1-27l45.4-14z"/><path class="st1" d="M829.7 102c5.7-2.6 11.2-8.6 12.2-14.8.8-4.9.3-9.6-2-13.7l11.5-3.5s-3.1 38.6-13.3 41c-3.7.9-9-2.5-14.2-7.1 2-.4 3.9-1 5.8-1.9z"/><path class="st0" d="M817.9 95.7c3.2 3.9 7.3 5.9 9.2 4.5 1.9-1.5.8-5.9-2.5-9.8-3.2-3.9-7.3-5.9-9.2-4.5-1.8 1.4-.7 5.8 2.5 9.8zm13.3 10.8c1.6 1.4 3.4 1.9 4.1 1.2.7-.7-.1-2.4-1.7-3.8-1.6-1.4-3.4-1.9-4.1-1.2-.7.8.1 2.5 1.7 3.8zm-267-3.1s-20.1 33.7-30.3 31.5c-10.2-2.2-16.3-38.5-16.3-38.5l46.6 7z"/><path class="st1" d="M530.5 123c6.2.1 13.8-3 17.5-8.1 2.9-4.1 4.6-8.6 4.4-13.3l11.8 1.8s-20.1 33.7-30.3 31.5c-3.7-.8-6.9-6.1-9.4-12.6 1.9.5 3.9.7 6 .7z"/><path class="st0" d="M522.9 112.2c1.1 5 3.8 8.6 6.1 8 2.3-.5 3.3-5 2.2-10s-3.8-8.6-6.1-8c-2.3.5-3.3 5-2.2 10zm6.9 15.6c.8 1.9 2.2 3.2 3.1 2.8.9-.4 1-2.3.2-4.2-.8-1.9-2.2-3.2-3.1-2.8-.9.4-1 2.3-.2 4.2z"/><linearGradient id="SVGID_00000129191409219197588260000007300552329335735439_" gradientUnits="userSpaceOnUse" x1="877.039" y1="-11.473" x2="924.024" y2="-11.473" gradientTransform="rotate(180 744.37 54.868)"><stop offset=".118" stop-color="#ff33e8"/><stop offset="1" stop-color="#ff33e7"/></linearGradient><path d="M611.9 106.8s-17.5 35-27.8 33.6c-10.3-1.4-19.2-37.1-19.2-37.1l47 3.5z" fill="url(#SVGID_00000129191409219197588260000007300552329335735439_)"/><linearGradient id="SVGID_00000000928320344911184550000001002727506286696379_" gradientUnits="userSpaceOnUse" x1="908.702" y1="-6.955" x2="918.436" y2="-6.955" gradientTransform="rotate(180 744.37 54.868)"><stop offset=".118" stop-color="#ff33e8"/><stop offset="1" stop-color="#ff33e7"/></linearGradient><path d="M571.3 118.6c1.5 4.9 4.5 8.3 6.7 7.6 2.3-.7 2.9-5.2 1.5-10.1-1.5-4.9-4.5-8.3-6.7-7.6-2.3.7-3 5.2-1.5 10.1z" fill="url(#SVGID_00000000928320344911184550000001002727506286696379_)"/><linearGradient id="SVGID_00000008111667519887122450000016814593093168691108_" gradientUnits="userSpaceOnUse" x1="905.785" y1="-22.426" x2="910.43" y2="-22.426" gradientTransform="rotate(180 744.37 54.868)"><stop offset=".118" stop-color="#ff33e8"/><stop offset="1" stop-color="#ff33e7"/></linearGradient><path d="M579.3 133.6c.9 1.9 2.4 3 3.3 2.6.9-.4.8-2.3-.1-4.2-.9-1.9-2.4-3-3.3-2.6-.9.5-.8 2.4.1 4.2z" fill="url(#SVGID_00000008111667519887122450000016814593093168691108_)"/><path class="st0" d="M660.5 106.5s-14.8 36.2-25.2 35.5-22.1-35.4-22.1-35.4l47.3-.1z"/><path class="st1" d="M630.1 130.8c6.2-.9 13.2-5 16.1-10.6 2.3-4.4 3.2-9.2 2.4-13.7h11.9s-14.8 36.2-25.2 35.5c-3.8-.2-7.8-5-11.3-11 2 .1 4 .1 6.1-.2z"/><path class="st0" d="M620.8 121.2c1.8 4.7 5.1 7.9 7.3 7 2.2-.9 2.5-5.4.7-10.2-1.8-4.7-5.1-7.9-7.3-7s-2.5 5.5-.7 10.2zm9.3 14.4c1.1 1.8 2.7 2.8 3.5 2.3s.6-2.4-.5-4.1c-1.1-1.8-2.7-2.8-3.5-2.3s-.6 2.3.5 4.1zM1026.9 0s.5 38.6-9.5 41.9c-10 3.3-34.6-24-34.6-24L1026.9 0z"/><path class="st1" d="M1008.1 33.7c5.4-3.1 10.4-9.5 10.8-15.8.4-4.9-.6-9.6-3.2-13.4l11.1-4.5s.5 38.6-9.5 41.9c-3.6 1.2-9.2-1.6-14.8-5.8 1.9-.5 3.8-1.3 5.6-2.4z"/><path class="st0" d="M995.7 28.5c3.6 3.6 7.9 5.3 9.6 3.6 1.7-1.6.2-5.9-3.4-9.5-3.6-3.6-7.9-5.3-9.6-3.6-1.6 1.6-.1 5.8 3.4 9.5zm14.3 9.6c1.7 1.2 3.6 1.6 4.2.8.6-.8-.3-2.4-2.1-3.6-1.7-1.2-3.6-1.6-4.2-.8-.5.7.4 2.4 2.1 3.6z"/><linearGradient id="SVGID_00000085231637189197486500000003983747667753606530_" gradientUnits="userSpaceOnUse" x1="780.021" y1="-10.834" x2="827.238" y2="-10.834" gradientTransform="rotate(180 744.37 54.868)"><stop offset=".118" stop-color="#ff33e8"/><stop offset="1" stop-color="#ff33e7"/></linearGradient><path d="M708.9 101.9s-11.1 37.3-21.6 37.7c-10.5.3-25.6-33.1-25.6-33.1l47.2-4.6z" fill="url(#SVGID_00000085231637189197486500000003983747667753606530_)"/><linearGradient id="SVGID_00000119824389499095427890000007044291469367080366_" gradientUnits="userSpaceOnUse" x1="808.7" y1="-8.442" x2="820.009" y2="-8.442" gradientTransform="rotate(180 744.37 54.868)"><stop offset=".118" stop-color="#ff33e8"/><stop offset="1" stop-color="#ff33e7"/></linearGradient><path d="M670.8 120.4c2.3 4.5 5.9 7.3 8 6.3 2.1-1.1 2-5.6-.3-10.2-2.3-4.5-5.9-7.3-8-6.3-2.2 1.1-2 5.6.3 10.2z" fill="url(#SVGID_00000119824389499095427890000007044291469367080366_)"/><linearGradient id="SVGID_00000059997437175026907620000015777085545128762013_" gradientUnits="userSpaceOnUse" x1="803.486" y1="-22.673" x2="808.869" y2="-22.673" gradientTransform="rotate(180 744.37 54.868)"><stop offset=".118" stop-color="#ff33e8"/><stop offset="1" stop-color="#ff33e7"/></linearGradient><path d="M681.4 133.7c1.3 1.7 2.9 2.6 3.7 2s.4-2.4-.9-4.1c-1.3-1.7-2.9-2.6-3.7-2-.7.7-.3 2.5.9 4.1z" fill="url(#SVGID_00000059997437175026907620000015777085545128762013_)"/><linearGradient id="SVGID_00000160891550631460335140000005655577834196968882_" gradientUnits="userSpaceOnUse" x1="592.939" y1="33.974" x2="637.899" y2="33.974" gradientTransform="rotate(180 744.37 54.868)"><stop offset=".118" stop-color="#ff33e8"/><stop offset="1" stop-color="#ff33e7"/></linearGradient><path d="M895.8 54.4S894.2 93 884 95.8C873.9 98.6 850.9 70 850.9 70l44.9-15.6z" fill="url(#SVGID_00000160891550631460335140000005655577834196968882_)"/><g class="st15"><path class="st16" d="M794 101.1c1.2-4.8 1-9.6-.9-13.8l11.7-2.7s-6.1 38.3-16.4 40c-3.8.6-8.8-3.1-13.6-8.1 1.9-.3 3.9-.8 5.9-1.5 5.8-2.2 11.8-7.7 13.3-13.9zm182.6-64.7c.3-4.9-.8-9.6-3.5-13.3l11-4.8s1.3 38.6-8.6 42.1c-3.6 1.3-9.3-1.5-15-5.5 1.9-.6 3.7-1.5 5.5-2.6 5.5-3.2 10.3-9.7 10.6-15.9zm-396.9 92.4c6.2-.4 13.5-4 16.9-9.4 2.6-4.3 3.9-8.9 3.4-13.5l11.9.9s-17.5 35-27.8 33.6c-3.8-.5-7.3-5.6-10.3-11.8 1.8.3 3.8.4 5.9.2zM696 116.9c1.8-4.6 2.3-9.4 1-13.8l11.9-1.2s-11.1 37.3-21.6 37.7c-3.8.1-8.2-4.2-12.3-9.8 2 0 4-.3 6-.8 6-1.5 12.6-6.2 15-12.1zm190.9-45c.6-4.9-.1-9.6-2.5-13.6l11.4-4s-1.6 38.6-11.8 41.4c-3.7 1-9.1-2.1-14.5-6.6 1.9-.5 3.8-1.2 5.7-2.2 5.6-2.6 10.9-8.8 11.7-15z"/></g><linearGradient id="SVGID_00000084515415008257780410000005677623243441487023_" gradientUnits="userSpaceOnUse" x1="615.461" y1="30.859" x2="629.269" y2="30.859" gradientTransform="rotate(180 744.37 54.868)"><stop offset=".118" stop-color="#ff33e8"/><stop offset="1" stop-color="#ff33e7"/></linearGradient><path d="M863.2 81.2c3.4 3.8 7.6 5.7 9.4 4.1 1.8-1.5.5-5.9-2.8-9.7-3.4-3.8-7.6-5.7-9.4-4.1-1.8 1.5-.6 5.9 2.8 9.7z" fill="url(#SVGID_00000084515415008257780410000005677623243441487023_)"/><linearGradient id="SVGID_00000056397645911129403920000017271300686358868124_" gradientUnits="userSpaceOnUse" x1="607.666" y1="18.965" x2="614.04" y2="18.965" gradientTransform="rotate(180 744.37 54.868)"><stop offset=".118" stop-color="#ff33e8"/><stop offset="1" stop-color="#ff33e7"/></linearGradient><path d="M876.9 91.6c1.6 1.3 3.5 1.8 4.1 1 .6-.7-.2-2.4-1.9-3.7-1.7-1.3-3.5-1.8-4.1-1-.6.7.2 2.4 1.9 3.7z" fill="url(#SVGID_00000056397645911129403920000017271300686358868124_)"/><path class="st16" d="M511.6 95.3s.2.1.7.2c.5.1 1.2.2 2.2.4 1.9.3 4.7.7 8.2 1.3 7.1 1 17.1 2.7 29.3 4.5 6.1 1 12.7 1.7 19.6 2.6 3.5.4 7.1.7 10.8 1.1 3.7.3 7.4.7 11.3.9 3.8.2 7.7.5 11.7.7s8 .3 12 .4c2 .1 4 .1 6.1.2h18.4c8.2-.3 16.4-.4 24.5-.9l6-.3c2-.1 4-.2 6-.4 4-.3 7.9-.7 11.7-1 1-.1 1.9-.2 2.9-.2 1-.1 1.9-.2 2.8-.3 1.9-.2 3.8-.4 5.6-.6 3.7-.4 7.3-.7 10.8-1.2s6.9-.9 10.2-1.4c1.7-.2 3.3-.4 4.9-.7 1.6-.3 3.1-.5 4.7-.7 3.1-.5 6-1 8.8-1.4 1.4-.2 2.7-.4 4.1-.7 1.3-.2 2.6-.5 3.8-.7 4.9-.9 9.3-1.7 12.8-2.4 7.1-1.5 11.1-2.3 11.1-2.3s1-.2 2.9-.6c.9-.2 2.1-.5 3.5-.7 1.4-.3 2.9-.7 4.7-1.1 3.5-.8 7.8-1.9 12.7-3 4.9-1.3 10.3-2.7 16.3-4.3 3-.9 6.1-1.7 9.3-2.7 3.2-.9 6.5-1.8 9.9-2.9 6.8-2.1 13.9-4.3 21.2-6.8s14.9-4.9 22.5-7.8c3.8-1.4 7.7-2.8 11.5-4.2l2.9-1.1 2.9-1.1 5.8-2.3c30.7-12 61-25.3 83.7-35 5.7-2.4 10.9-4.7 15.5-6.6s8.7-3.6 12-5 5.9-2.5 7.7-3.3c.9-.4 1.6-.7 2-.9.5-.2.7-.3.7-.3s-.3.1-.7.2c-.5.2-1.2.4-2.1.8-1.8.7-4.4 1.7-7.8 3-3.4 1.3-7.4 3-12.1 4.8-4.6 1.9-9.9 4.1-15.6 6.4-22.9 9.4-53.2 22.4-84 34.2l-5.8 2.2-2.9 1.1-2.9 1c-3.9 1.4-7.7 2.8-11.5 4.2-7.6 2.8-15.2 5.2-22.5 7.7s-14.5 4.6-21.2 6.7c-3.4 1.1-6.7 1.9-9.9 2.9-3.2.9-6.3 1.8-9.3 2.6-6 1.5-11.4 3-16.3 4.2-4.9 1.1-9.1 2.1-12.6 3-1.7.4-3.3.8-4.7 1.1-1.4.3-2.5.5-3.5.7-1.9.4-2.9.6-2.9.6s-4 .9-11.1 2.4c-3.5.7-7.8 1.5-12.7 2.4-1.2.2-2.5.5-3.8.7s-2.7.4-4 .7c-2.8.5-5.7.9-8.7 1.4-1.5.2-3.1.5-4.7.8-1.6.2-3.2.4-4.8.7-3.3.5-6.7.9-10.2 1.4s-7.1.8-10.8 1.3c-1.8.2-3.7.4-5.6.6-.9.1-1.9.2-2.8.3-1 .1-1.9.2-2.9.3-3.8.3-7.7.7-11.7 1-2 .2-4 .3-6 .4s-4 .2-6 .4c-8.1.6-16.3.8-24.4 1.1-4.1.1-8.2.1-12.3.1h-6.1c-2 0-4.1-.1-6.1-.1-4-.1-8-.1-12-.3l-11.7-.6c-3.8-.2-7.6-.5-11.3-.8s-7.3-.6-10.8-.9c-7-.8-13.6-1.5-19.6-2.3-12.1-1.6-22.2-3.1-29.3-4-3.5-.4-6.3-.8-8.2-1-1-.1-1.7-.2-2.2-.2-.3-.6-.5-.6-.6-.6z"/></g><g id="Layer_1_00000117658326980559777990000004525287335298767009_"><path class="st34" d="M536 46.6s15.7 37.5 26.4 36.4 22.4-38.2 22.4-38.2L536 46.6z"/><path class="st35" d="M567.6 71c-6.4-.7-13.7-4.7-16.7-10.6-2.4-4.6-3.4-9.5-2.6-14.3l-12.3.5s15.7 37.5 26.4 36.4c3.9-.4 7.9-5.6 11.5-12-2.1.2-4.1.2-6.3 0z"/><linearGradient id="SVGID_00000042702572324442706760000002940599670516560554_" gradientUnits="userSpaceOnUse" x1="453.556" y1="-268.371" x2="476.524" y2="-304.975" gradientTransform="scale(1 -1) rotate(-12.093 1532.112 -711.653)"><stop offset="0" stop-color="#ffc500"/><stop offset="1" stop-color="#ffc500" stop-opacity="0"/></linearGradient><path d="M577 60.6c-1.8 5.1-5.2 8.5-7.5 7.7s-2.7-5.6-.8-10.7c1.8-5.1 5.2-8.5 7.5-7.7 2.3.8 2.7 5.6.8 10.7z" fill="url(#SVGID_00000042702572324442706760000002940599670516560554_)"/><linearGradient id="SVGID_00000039854026526184833140000015717863917135856000_" gradientUnits="userSpaceOnUse" x1="526.697" y1="-354.462" x2="588.787" y2="-429.831" gradientTransform="scale(1 -1) rotate(-21.168 1383.809 -270.55)"><stop offset="0" stop-color="#ffc500"/><stop offset="1" stop-color="#ffc500" stop-opacity="0"/></linearGradient><path d="M567.7 76.1c-1.1 1.9-2.7 3.1-3.6 2.6-.9-.5-.7-2.5.4-4.4 1.1-1.9 2.7-3.1 3.6-2.6s.7 2.4-.4 4.4z" fill="url(#SVGID_00000039854026526184833140000015717863917135856000_)"/><path class="st34" d="M340.7 21.7s7 40.1 17.7 41.4c10.7 1.3 30.3-32.3 30.3-32.3l-48-9.1z"/><path class="st35" d="M366.1 52.5c-6.1-2.1-12.3-7.6-14-14-1.3-5-1.2-10.1.6-14.6l-12.1-2.3s7 40.1 17.7 41.4c3.9.5 9-3.7 13.9-9.2-2-.2-4-.6-6.1-1.3z"/><linearGradient id="SVGID_00000075124189275582207760000016818276159275538341_" gradientUnits="userSpaceOnUse" x1="392.775" y1="-419.608" x2="415.742" y2="-456.21" gradientTransform="scale(1 -1) rotate(-24.866 1255.533 -182.258)"><stop offset="0" stop-color="#ffc500"/><stop offset="1" stop-color="#ffc500" stop-opacity="0"/></linearGradient><path d="M377.6 44.4c-2.9 4.5-6.9 7.1-9 5.8s-1.4-6.1 1.6-10.6c2.9-4.5 6.9-7.1 9-5.8 2 1.3 1.3 6.1-1.6 10.6z" fill="url(#SVGID_00000075124189275582207760000016818276159275538341_)"/><linearGradient id="SVGID_00000067223392387854219360000009326307213324784282_" gradientUnits="userSpaceOnUse" x1="490.361" y1="-513.774" x2="552.451" y2="-589.143" gradientTransform="scale(1 -1) rotate(-33.94 1236.52 -52.648)"><stop offset="0" stop-color="#ffc500"/><stop offset="1" stop-color="#ffc500" stop-opacity="0"/></linearGradient><path d="M365 57.5c-1.5 1.6-3.3 2.4-4.1 1.7-.7-.7-.1-2.6 1.4-4.2s3.3-2.4 4.1-1.7.1 2.5-1.4 4.2z" fill="url(#SVGID_00000067223392387854219360000009326307213324784282_)"/><path class="st16" d="M486.6 44.5s12.8 38.6 23.6 38.3c10.8-.3 25.2-36.4 25.2-36.4l-48.8-1.9z"/><path class="st40" d="M516.3 71.2c-6.3-1.1-13.3-5.7-15.9-11.8-2-4.7-2.7-9.8-1.5-14.5l-12.3-.5s12.8 38.6 23.6 38.3c3.9-.1 8.3-5 12.4-11.1-2.1.1-4.2 0-6.3-.4z"/><path class="st16" d="M526.5 61.5c-2.2 4.9-5.8 8.1-8 7.1s-2.2-5.8 0-10.7 5.8-8.1 8-7.1 2.2 5.8 0 10.7zM516 76.3c-1.2 1.8-2.9 2.9-3.8 2.3-.8-.6-.5-2.5.7-4.3s2.9-2.9 3.8-2.3c.9.5.5 2.4-.7 4.3zM293.4 10.6s5.3 40.3 16 42.1c10.7 1.7 31.5-31 31.5-31l-47.5-11.1z"/><path class="st40" d="M317.6 42.5c-6-2.3-12-8.1-13.4-14.5-1.1-5-.8-10.1 1.2-14.5l-12-2.8s5.3 40.3 16 42.1c3.9.6 9.1-3.3 14.2-8.6-2-.4-4-.9-6-1.7z"/><path class="st16" d="M329.3 34.9c-3.1 4.4-7.2 6.9-9.2 5.5s-1.1-6.1 2-10.5 7.2-6.9 9.2-5.5c2 1.4 1.1 6.1-2 10.5zm-13 12.5c-1.6 1.6-3.4 2.3-4.1 1.6s0-2.6 1.5-4.1c1.6-1.6 3.4-2.3 4.1-1.6.8.7.1 2.5-1.5 4.1z"/><path class="st34" d="M436.8 38.4s9.8 39.5 20.6 40 27.9-34.3 27.9-34.3l-48.5-5.7z"/><path class="st35" d="M464.4 67.3c-6.2-1.6-12.8-6.7-14.9-13-1.7-4.9-1.9-9.9-.4-14.6l-12.2-1.4s9.8 39.5 20.6 40c3.9.2 8.7-4.3 13.2-10.1-2.1 0-4.2-.3-6.3-.9z"/><path class="st34" d="M475.3 58.4c-2.6 4.7-6.4 7.6-8.5 6.4-2.1-1.2-1.8-5.9.8-10.7 2.6-4.7 6.4-7.6 8.5-6.4 2.1 1.2 1.8 6-.8 10.7zm-11.6 13.9c-1.4 1.7-3.1 2.6-3.9 2s-.3-2.5 1.1-4.3c1.4-1.7 3.1-2.6 3.9-2 .8.7.3 2.6-1.1 4.3zm270-55.5s26.2 31.1 36.1 26.8c9.9-4.3 9.8-43.1 9.8-43.1l-45.9 16.3z"/><path class="st35" d="M771.2 30.5c-6.3 1.3-14.5-.4-19.1-5-3.7-3.6-6.1-8.1-6.8-12.9l-11.6 4.1s26.2 31.1 36.1 26.8c3.6-1.6 5.9-7.7 7.3-14.9-1.8.9-3.8 1.5-5.9 1.9z"/><linearGradient id="SVGID_00000007414235616087707390000014113379093277656966_" gradientUnits="userSpaceOnUse" x1="513.267" y1="10.137" x2="536.234" y2="-26.465" gradientTransform="scale(1 -1) rotate(5.445 871.682 2679.102)"><stop offset="0" stop-color="#ffc500"/><stop offset="1" stop-color="#ffc500" stop-opacity="0"/></linearGradient><path d="M777 17.8c-.2 5.4-2.4 9.7-4.8 9.6-2.4-.1-4.2-4.5-4-9.9s2.4-9.7 4.8-9.6c2.5 0 4.3 4.5 4 9.9z" fill="url(#SVGID_00000007414235616087707390000014113379093277656966_)"/><linearGradient id="SVGID_00000132090397946963264130000004407022370037632675_" gradientUnits="userSpaceOnUse" x1="542.244" y1="-68.967" x2="604.338" y2="-144.34" gradientTransform="scale(1 -1) rotate(-3.635 1664.123 -3292.647)"><stop offset="0" stop-color="#ffc500"/><stop offset="1" stop-color="#ffc500" stop-opacity="0"/></linearGradient><path d="M772.8 35.4c-.5 2.2-1.6 3.8-2.6 3.5-1-.2-1.4-2.1-.9-4.3s1.7-3.8 2.6-3.5c1 .2 1.4 2.1.9 4.3z" fill="url(#SVGID_00000132090397946963264130000004407022370037632675_)"/><path class="st16" d="M686 29.6s23.8 32.9 34 29.4 13-42.3 13-42.3l-47 12.9z"/><path class="st40" d="M722.4 46.2c-6.4.8-14.4-1.5-18.7-6.4-3.4-3.9-5.5-8.5-5.8-13.4L686 29.6s23.8 32.9 34 29.4c3.7-1.3 6.5-7.3 8.4-14.3-1.9.7-3.9 1.2-6 1.5z"/><path class="st16" d="M729.1 33.9c-.6 5.3-3.1 9.5-5.5 9.2s-3.9-4.9-3.3-10.2c.6-5.3 3.1-9.5 5.5-9.2 2.5.3 3.9 4.8 3.3 10.2zm-5.5 17.2c-.6 2.1-1.9 3.6-2.9 3.3s-1.2-2.2-.6-4.4c.6-2.1 1.9-3.6 2.9-3.3.9.3 1.2 2.3.6 4.4z"/><path class="st34" d="M636.7 38.8s21.2 34.7 31.7 32c10.4-2.7 16.2-41.2 16.2-41.2l-47.9 9.2z"/><path class="st35" d="M671.7 58.1c-6.4.3-14.2-2.6-18.1-7.9-3.1-4.2-4.8-8.9-4.8-13.8l-12.1 2.3s21.2 34.7 31.7 32c3.8-1 7-6.7 9.5-13.6-2 .6-4 .9-6.2 1z"/><path class="st34" d="M679.4 46.4c-1 5.3-3.8 9.2-6.2 8.7s-3.5-5.1-2.5-10.4 3.8-9.2 6.2-8.7c2.4.4 3.5 5.1 2.5 10.4zm-6.9 16.7c-.8 2.1-2.2 3.5-3.1 3.1-.9-.4-1.1-2.3-.3-4.4.8-2.1 2.2-3.5 3.1-3.1 1 .4 1.1 2.3.3 4.4zM246.9 0s6.2 40.2 16.9 41.7S294.7 10 294.7 10L246.9 0z"/><path class="st35" d="M271.8 31.3c-6-2.2-12.2-7.9-13.7-14.3-1.2-5-1-10.1.9-14.5L246.9 0s6.2 40.2 16.9 41.7c3.9.6 9.1-3.5 14-8.9-1.9-.3-4-.7-6-1.5z"/><path class="st34" d="M283.4 23.5c-3 4.5-7.1 7-9.1 5.6s-1.2-6.1 1.8-10.6 7.1-7 9.1-5.7c2 1.5 1.2 6.2-1.8 10.7zm-12.8 12.8c-1.5 1.6-3.4 2.3-4.1 1.6s-.1-2.6 1.5-4.2c1.5-1.6 3.4-2.3 4.1-1.6.7.7.1 2.6-1.5 4.2z"/><path class="st16" d="M586.9 43.5s17.7 36.6 28.4 34.9S635.5 39 635.5 39l-48.6 4.5z"/><path class="st40" d="M619.8 66.2c-6.4-.3-13.9-4-17.3-9.6-2.6-4.4-3.9-9.3-3.4-14.2l-12.3 1.1s17.7 36.6 28.4 34.9c3.9-.6 7.6-6 10.8-12.6-2 .4-4 .5-6.2.4z"/><path class="st16" d="M628.6 55.3c-1.6 5.2-4.7 8.8-7 8.1-2.3-.7-3-5.5-1.4-10.6 1.5-5.2 4.7-8.8 7-8.1 2.3.6 3 5.4 1.4 10.6zm-8.5 15.9c-1 2-2.5 3.2-3.4 2.8-.9-.4-.8-2.4.2-4.4s2.5-3.2 3.4-2.8c.9.5.8 2.5-.2 4.4zM389.2 30.8s8.3 39.8 19.1 40.7c10.8.9 29.1-33.3 29.1-33.3l-48.2-7.4z"/><path class="st40" d="M415.7 60.8c-6.1-1.8-12.6-7.2-14.5-13.5-1.5-4.9-1.6-10 .1-14.6l-12.2-1.9s8.3 39.8 19.1 40.7c3.9.3 8.9-4 13.5-9.6-1.9-.1-3.9-.5-6-1.1z"/><path class="st16" d="M426.9 52.3c-2.8 4.6-6.7 7.4-8.8 6.1-2.1-1.2-1.6-6 1.2-10.6s6.7-7.4 8.8-6.1c2.1 1.2 1.5 6-1.2 10.6zm-12.1 13.4c-1.4 1.7-3.2 2.5-4 1.9-.8-.7-.2-2.5 1.2-4.2 1.4-1.7 3.2-2.5 4-1.9.8.7.2 2.6-1.2 4.2zM785.5-2s-.2.1-.7.3-1.2.5-2.1.8c-1.9.7-4.6 1.7-8.1 2.9-7 2.5-16.9 6.2-28.9 10.4-6 2.2-12.5 4.2-19.5 6.5-3.5 1.1-7.1 2.1-10.7 3.2-3.7 1.1-7.4 2.2-11.3 3.2-3.8 1-7.8 2-11.7 3-4 1-8 1.8-12.1 2.8-2 .5-4.1.9-6.1 1.4-2.1.4-4.1.8-6.2 1.2-4.1.8-8.3 1.6-12.5 2.4-8.4 1.3-16.7 2.8-25 3.9-2.1.3-4.1.6-6.2.8-2 .3-4.1.6-6.1.7-4.1.4-8.1.9-12 1.3l-3 .3c-1 .1-2 .2-2.9.2-1.9.2-3.9.3-5.8.5-3.8.3-7.5.7-11.2.8-3.6.2-7.2.4-10.6.6-1.7.1-3.4.2-5 .3-1.7 0-3.3.1-4.9.1-3.2.1-6.2.2-9.1.3-1.4 0-2.9.1-4.2.1h-4c-5.2 0-9.7 0-13.4.1-7.4-.1-11.7-.2-11.7-.2s-1.1 0-3-.1c-1 0-2.2-.1-3.7-.1-1.4-.1-3.1-.1-4.9-.2-3.7-.2-8.2-.4-13.4-.7-5.1-.4-11-.8-17.3-1.3-3.2-.3-6.5-.6-9.9-1s-6.9-.6-10.5-1.1c-7.2-.9-14.8-1.7-22.7-2.9-7.9-1.1-16-2.2-24.2-3.7-4.1-.7-8.2-1.4-12.4-2.1l-3.1-.5-3.1-.6-6.2-1.2C352.9 24 320 16.1 295.2 10.5c-6.2-1.4-11.9-2.7-16.9-3.8s-9.4-2.1-13-2.9-6.4-1.5-8.4-1.9c-1-.2-1.7-.4-2.2-.5s-.8-.2-.7-.2c0 0 .3 0 .8.1s1.3.2 2.2.4c1.9.4 4.8.9 8.4 1.6s8 1.6 13.1 2.6c5 1.1 10.7 2.3 16.9 3.6 24.8 5.3 57.8 12.9 91 19.1l6.2 1.2 3.1.6 3.1.5c4.2.7 8.3 1.4 12.4 2.1 8.2 1.5 16.3 2.4 24.2 3.5 7.8 1.1 15.4 1.9 22.7 2.8 3.6.5 7.1.7 10.5 1s6.7.6 9.8.9c6.3.4 12.1.8 17.2 1.2 5.1.2 9.6.4 13.3.6 1.8.1 3.5.2 4.9.2s2.7.1 3.6.1c2 0 3 .1 3 .1s4.2.1 11.6.3h17.3c1.4 0 2.8-.1 4.2-.1 2.9-.1 5.9-.1 9.1-.2 1.6 0 3.2-.1 4.8-.1 1.6-.1 3.3-.2 5-.2 3.4-.2 6.9-.3 10.6-.5 3.6-.2 7.3-.5 11.1-.8 1.9-.1 3.8-.3 5.8-.4 1-.1 1.9-.1 2.9-.2s2-.2 2.9-.3c3.9-.4 8-.8 12-1.2 2-.2 4.1-.4 6.1-.7s4.1-.5 6.2-.8c8.3-1 16.6-2.4 25-3.7 4.2-.7 8.3-1.5 12.5-2.3 2.1-.4 4.1-.8 6.2-1.2 2-.4 4.1-.9 6.1-1.3 4.1-.9 8.1-1.7 12.1-2.7s7.9-2 11.7-2.9c3.9-.9 7.6-2 11.3-3.1s7.3-2 10.7-3.1c6.9-2.2 13.5-4.2 19.5-6.3 12-4 22-7.6 29-9.9 3.5-1.2 6.3-2.1 8.2-2.7.9-.3 1.7-.5 2.2-.7.8-.2 1-.3 1-.3z"/><path class="st43" d="M469.2 21.1c-1.4 1.4-7.1 2.9-7.1 2.9s5.7 1.4 7.1 2.9c1.4 1.4 2.9 8.8 2.9 8.8s1.4-7.4 2.9-8.8c1.4-1.4 7.1-2.9 7.1-2.9s-5.7-1.4-7.1-2.9c-1.4-1.4-2.9-8.8-2.9-8.8s-1.2 7.4-2.9 8.8zm-349-2c-1.4 1.4-6.3 2.6-6.3 2.6s4.8 1.1 6.3 2.6 2.6 7.7 2.6 7.7 1.1-6.6 2.6-7.7c1.4-1.4 6.3-2.6 6.3-2.6s-4.8-1.1-6.3-2.6-2.6-7.7-2.6-7.7-1.2 6.3-2.6 7.7z"/><path class="st44" d="M281.3 73.5c0 2-1.4 3.4-3.4 3.4s-3.4-1.4-3.4-3.4 1.4-3.4 3.4-3.4 3.4 1.4 3.4 3.4zm-114.8-48c0 2.9-2.3 5.1-5.1 5.1s-5.1-2.3-5.1-5.1 2.3-5.1 5.1-5.1c2.6 0 5.1 2.3 5.1 5.1zM41.3 82.8c0 2.9-2.3 5.1-5.1 5.1s-5.1-2.3-5.1-5.1 2.3-5.1 5.1-5.1c2.9-.3 5.1 2.2 5.1 5.1zm115.1 44.9c0 3.7-2.9 6.6-6.6 6.6-3.7 0-6.6-2.9-6.6-6.6 0-3.7 2.9-6.6 6.6-6.6 3.8 0 6.6 2.8 6.6 6.6zm213.5-43c0 1.7-1.4 3.1-3.1 3.1s-3.1-1.4-3.1-3.1 1.4-3.1 3.1-3.1 3.1 1.4 3.1 3.1zm494.4 32c0 2-1.4 3.4-3.4 3.4s-3.4-1.4-3.4-3.4 1.4-3.4 3.4-3.4 3.4 1.4 3.4 3.4zm88.5 11.2c0 1.7-1.4 3.1-3.1 3.1-1.7 0-3.1-1.4-3.1-3.1 0-1.7 1.4-3.1 3.1-3.1 1.7-.1 3.1 1.3 3.1 3.1z"/><circle class="st44" cx="429.3" cy="12.5" r="3.1"/><path class="st44" d="M599.3 18.3c0 3.7-2.9 6.6-6.6 6.6-3.7 0-6.6-2.9-6.6-6.6s2.9-6.6 6.6-6.6c3.8 0 6.6 3.2 6.6 6.6z"/><circle transform="rotate(-78.018 513.407 22.202)" class="st44" cx="513.4" cy="22.2" r="3.1"/><path class="st43" d="M970.3 99.2c-1.4 1.4-7.1 2.9-7.1 2.9s5.7 1.4 7.1 2.9 2.9 8.8 2.9 8.8 1.4-7.4 2.9-8.8 7.1-2.9 7.1-2.9-5.7-1.4-7.1-2.9-2.9-8.8-2.9-8.8-1.2 7.4-2.9 8.8z"/><circle class="st44" cx="930.4" cy="90.6" r="3.1"/><path class="st43" d="M866.5 31.3c-1.4 1.4-7.1 2.9-7.1 2.9s5.7 1.4 7.1 2.9 2.9 8.8 2.9 8.8 1.4-7.4 2.9-8.8 7.1-2.9 7.1-2.9-5.7-1.4-7.1-2.9-2.9-8.8-2.9-8.8-1.2 7.4-2.9 8.8zM61.6 108.4c-1.4 1.4-7.1 2.9-7.1 2.9s5.7 1.4 7.1 2.9 2.9 8.8 2.9 8.8 1.4-7.4 2.9-8.8 7.1-2.9 7.1-2.9-5.7-1.4-7.1-2.9-2.9-8.8-2.9-8.8-1.2 7.3-2.9 8.8z"/><circle class="st44" cx="826.7" cy="22.7" r="3.1"/><circle class="st44" cx="1014.5" cy="100.3" r="3.1"/><circle class="st44" cx="691.9" cy="79.1" r="3.1"/></g></svg>