<svg version="1.1" id="Layer_1" xmlns="http://www.w3.org/2000/svg" x="0" y="0" viewBox="0 0 1233.8 144" xml:space="preserve"><style>.st0{fill:none;stroke:#b09670;stroke-width:3;stroke-miterlimit:10}.st1{fill:#8bd2d7}.st2{fill:#e9a8ce}.st12,.st17{fill-rule:evenodd;clip-rule:evenodd;fill:#8bd2d7}.st17{fill:#e9a8ce}</style><path class="st0" d="M0 88.4S163.3 170.8 372.5 0"/><path class="st1" d="m93 140.8 21.6-34.2-40.5-1.6zm105.6-11.5 10.9-38.9-39.2 10zm95.6-37 1.6-40.5L260 70.6z"/><path class="st2" d="m145.7 138.9 16.1-37.1-40.2 4.6zm100.9-25.4 6.4-40L215.2 88zm91.2-46.8-2-40.4-34 22z"/><path d="M1129.5 110.9h-3.5c-39.1-.4-79-8-118.7-22.5-49.6-18.1-99-47.1-146.9-86.1l1.9-2.3c107.7 87.9 202.8 107.2 263.6 107.9 65.9.7 106.9-19.5 107.3-19.7l1.4 2.7c-.5.1-40.6 20-105.1 20z" fill="#b09670"/><path class="st1" d="m1140.8 142-21.6-34.2 40.4-1.6zm-105.6-11.5-10.9-39 39.2 10.1zm-95.6-37.1L938 53l35.8 18.8z"/><path class="st2" d="m1088 140.1-16.1-37.1 40.2 4.6zm-100.8-25.5-6.4-39.9 37.8 14.4zm-91.3-46.7 2.1-40.4 34 22z"/><path class="st0" d="M508 89.4S671.3 171.8 880.5 1"/><path class="st1" d="m706.6 130.3 10.9-38.9-39.2 10zm95.6-37 1.6-40.5L768 71.6z"/><path class="st2" d="m754.6 114.5 6.4-40L723.2 89zm91.2-46.8-2-40.4-34 22z"/><path class="st0" d="M724.8 89.5S561.5 171.9 352.3 1.1"/><path class="st1" d="m631.8 142-21.6-34.2 40.4-1.6zm-105.6-11.5-10.9-39 39.2 10.1zm-95.6-37.1L429 53l35.8 18.8z"/><path class="st2" d="M579 140.1 562.9 103l40.2 4.6zm-100.8-25.5-6.4-39.9 37.8 14.4zm-91.3-46.7 2.1-40.4 34 22z"/><path class="st1" d="M752.5 23.2s-13.8 1.5-19.8 10.6l4.8.7-1.9 5.5s8.9-13 22.1-10.7l-5.2-6.1z"/><path class="st2" d="M793.5 103.8s-12.3 9.9-12.4 22.3l5-2.3 1.6 6.4s.4-17.9 14.6-23.8l-8.8-2.6z"/><path fill="#a0b959" d="m441.6 124.7 2.6-7-4.4-6.2 7.5.3 4.5-6.1 2.1 7.3 7.2 2.4-6.3 4.2-.1 7.6-5.9-4.7z"/><linearGradient id="SVGID_1_" gradientUnits="userSpaceOnUse" x1="1401.764" y1="-443.741" x2="1418.156" y2="-443.741" gradientTransform="scale(-1 1) rotate(31.113 -655.184 -4664.221)"><stop offset="0" stop-color="#e0886e"/><stop offset=".099" stop-color="#d4846a"/><stop offset=".238" stop-color="#cc8167"/><stop offset=".462" stop-color="#c98066"/><stop offset=".774" stop-color="#de9763"/><stop offset="1" stop-color="#e8a262"/></linearGradient><path fill="url(#SVGID_1_)" d="m1059.5 18.2 4.7-3.3-.1-5.7 4.6 3.5 5.5-1.9-1.9 5.5 3.4 4.6-5.7-.1-3.4 4.6-1.6-5.4z"/><linearGradient id="SVGID_00000139985216523380391170000001087401202095742886_" gradientUnits="userSpaceOnUse" x1="368.294" y1="-79.252" x2="382.233" y2="-79.252" gradientTransform="rotate(21.045 508.906 2145.928)"><stop offset="0" stop-color="#82c1ef"/><stop offset=".208" stop-color="#84adf3"/><stop offset=".449" stop-color="#8791f9"/><stop offset=".614" stop-color="#8289e1"/><stop offset=".861" stop-color="#7b7fc3"/><stop offset="1" stop-color="#787bb8"/></linearGradient><path d="M1176.3 22.4s-1.7-7 8.4-8.2c0 0 1 4.7 5.7 7.9 0 0-9.3-2.2-8.5 6.1l-5.6-5.8z" fill="url(#SVGID_00000139985216523380391170000001087401202095742886_)"/><linearGradient id="SVGID_00000016035045388293646030000003848216180726254520_" gradientUnits="userSpaceOnUse" x1="804.814" y1="-614.75" x2="818.753" y2="-614.75" gradientTransform="rotate(-81.46 1244.108 -256.11)"><stop offset="0" stop-color="#82c1ef"/><stop offset=".208" stop-color="#84adf3"/><stop offset=".449" stop-color="#8791f9"/><stop offset=".614" stop-color="#8289e1"/><stop offset=".861" stop-color="#7b7fc3"/><stop offset="1" stop-color="#787bb8"/></linearGradient><path d="M827.9 124.7s-6.5 3.2-9.8-6.4c0 0 4.4-2 6.5-7.3 0 0-.2 9.5 7.8 7l-4.5 6.7z" fill="url(#SVGID_00000016035045388293646030000003848216180726254520_)"/><linearGradient id="SVGID_00000060744608049981931820000017116168428944284569_" gradientUnits="userSpaceOnUse" x1="431.966" y1="-767.298" x2="445.905" y2="-767.298" gradientTransform="matrix(-.02324 -1.3871 1.2045 .6077 1270.863 1154.889)"><stop offset="0" stop-color="#82c1ef"/><stop offset=".208" stop-color="#84adf3"/><stop offset=".449" stop-color="#8791f9"/><stop offset=".614" stop-color="#8289e1"/><stop offset=".861" stop-color="#7b7fc3"/><stop offset="1" stop-color="#787bb8"/></linearGradient><path d="M340.9 90.3s-7 2.1-12.9-13.2c0 0 4.8-1.2 6.2-8.1 0 0 1.7 13.9 10.7 13.3l-4 8z" fill="url(#SVGID_00000060744608049981931820000017116168428944284569_)"/><linearGradient id="SVGID_00000009557607138628748680000018158052510618435518_" gradientUnits="userSpaceOnUse" x1="-54.545" y1="1559.259" x2="-43.937" y2="1559.259" gradientTransform="scale(1 -1) rotate(44.303 2008.274 1045.287)"><stop offset="0" stop-color="#dd7d68"/><stop offset=".014" stop-color="#db7c67"/><stop offset=".122" stop-color="#cc7762"/><stop offset=".252" stop-color="#c4745f"/><stop offset=".462" stop-color="#c1735e"/><stop offset=".801" stop-color="#db905b"/><stop offset="1" stop-color="#e59b5a"/></linearGradient><path d="M180.6 20.3c2 2.1 2 5.5-.1 7.5s-5.5 2-7.5-.1-2-5.5.1-7.5c2.1-2.1 5.5-2 7.5.1z" fill-rule="evenodd" clip-rule="evenodd" fill="url(#SVGID_00000009557607138628748680000018158052510618435518_)"/><linearGradient id="SVGID_00000008129942905835829950000011919177125638391710_" gradientUnits="userSpaceOnUse" x1="52.09" y1="1382.15" x2="62.464" y2="1382.15" gradientTransform="scale(1 -1) rotate(44.303 2008.274 1045.287)"><stop offset="0" stop-color="#dd7d68"/><stop offset=".014" stop-color="#db7c67"/><stop offset=".122" stop-color="#cc7762"/><stop offset=".252" stop-color="#c4745f"/><stop offset=".462" stop-color="#c1735e"/><stop offset=".801" stop-color="#db905b"/><stop offset="1" stop-color="#e59b5a"/></linearGradient><path d="M380.5 72.7c2 2.1 2 5.3-.1 7.3-2 2-5.3 2-7.3-.1s-2-5.3.1-7.3c2-2 5.3-1.9 7.3.1z" fill-rule="evenodd" clip-rule="evenodd" fill="url(#SVGID_00000008129942905835829950000011919177125638391710_)"/><path d="M1122.5 43.4c1.9 2 1.9 5.2-.1 7.1-2 1.9-5.2 1.9-7.1-.1s-1.9-5.2.1-7.1c1.9-2 5.1-1.9 7.1.1z" fill-rule="evenodd" clip-rule="evenodd" fill="#a0b959"/><path class="st12" d="M176 45.8c1.3 1.3 1.3 3.5-.1 4.8-1.3 1.3-3.5 1.3-4.8-.1-1.3-1.3-1.3-3.5.1-4.8 1.3-1.3 3.5-1.2 4.8.1zm224.7 45.5c1.3 1.3 1.3 3.5-.1 4.8-1.3 1.3-3.5 1.3-4.8-.1-1.3-1.3-1.3-3.5.1-4.8 1.3-1.3 3.5-1.2 4.8.1z"/><linearGradient id="SVGID_00000023272613226890278540000010933609982216138942_" gradientUnits="userSpaceOnUse" x1="-91.439" y1="1558.999" x2="-84.682" y2="1558.999" gradientTransform="scale(1 -1) rotate(44.303 2008.274 1045.287)"><stop offset="0" stop-color="#dd7d68"/><stop offset=".014" stop-color="#db7c67"/><stop offset=".122" stop-color="#cc7762"/><stop offset=".252" stop-color="#c4745f"/><stop offset=".462" stop-color="#c1735e"/><stop offset=".801" stop-color="#db905b"/><stop offset="1" stop-color="#e59b5a"/></linearGradient><path d="M151.7 48.9c1.3 1.3 1.3 3.5-.1 4.8-1.3 1.3-3.5 1.3-4.8-.1-1.3-1.3-1.3-3.5.1-4.8 1.3-1.2 3.4-1.2 4.8.1z" fill-rule="evenodd" clip-rule="evenodd" fill="url(#SVGID_00000023272613226890278540000010933609982216138942_)"/><path class="st12" d="M741.8 120.4c1.3 1.3 1.3 3.5-.1 4.8-1.3 1.3-3.5 1.3-4.8-.1-1.3-1.3-1.3-3.5.1-4.8 1.3-1.2 3.5-1.2 4.8.1zM315.6 72.5c1.3 1.3 1.3 3.5-.1 4.8-1.3 1.3-3.5 1.3-4.8-.1-1.3-1.3-1.3-3.5.1-4.8s3.5-1.3 4.8.1z"/><linearGradient id="SVGID_00000160870041535315578730000010753952824938132642_" gradientUnits="userSpaceOnUse" x1="316.664" y1="1156.671" x2="324.431" y2="1156.671" gradientTransform="scale(1 -1) rotate(44.303 2008.274 1045.287)"><stop offset="0" stop-color="#e18c6f"/><stop offset=".094" stop-color="#d6896c"/><stop offset=".235" stop-color="#ce8669"/><stop offset=".462" stop-color="#cb8568"/><stop offset=".763" stop-color="#dd9a65"/><stop offset="1" stop-color="#e7a564"/></linearGradient><path d="M725.5 51.1c1.5 1.5 1.5 4-.1 5.5-1.5 1.5-4 1.5-5.5-.1-1.5-1.5-1.5-4 .1-5.5 1.5-1.4 4-1.4 5.5.1z" fill-rule="evenodd" clip-rule="evenodd" fill="url(#SVGID_00000160870041535315578730000010753952824938132642_)"/><radialGradient id="SVGID_00000033367411756887048240000004121338515304884119_" cx="291.471" cy="-469.547" r="14.327" gradientTransform="matrix(.5402 -1.2554 .951 .3281 1192.226 617.578)" gradientUnits="userSpaceOnUse"><stop offset="0" stop-color="#efc97d"/><stop offset=".167" stop-color="#eec276"/><stop offset=".462" stop-color="#edc073"/><stop offset=".6" stop-color="#e9ad65"/><stop offset=".855" stop-color="#e38f4e"/><stop offset="1" stop-color="#e18445"/></radialGradient><path d="M909.3 113.6s-19.1-4.9-22.9-22.4l7.3-.5.2-10.2s5.8 25.1 26.2 23l-10.8 10.1z" fill="url(#SVGID_00000033367411756887048240000004121338515304884119_)"/><path class="st1" d="M307.1 107.8S292 120 291.8 135.3l6.2-2.8 1.9 7.9s.5-22.1 17.9-29.4l-10.7-3.2zM667.5 51s-6.9-12-17.7-13.8l1.3 4.7-5.8.5s15.5 2.8 18.7 15.9l3.5-7.3zm292.6 51.7s-6.9-12-17.7-13.8l1.3 4.7-5.8.5s15.5 2.8 18.7 15.9l3.5-7.3z"/><linearGradient id="SVGID_00000100377365462920868550000011655087597549002904_" gradientUnits="userSpaceOnUse" x1="-385.408" y1="319.89" x2="-367.303" y2="319.89" gradientTransform="rotate(21.045 508.906 2145.928)"><stop offset="0" stop-color="#f6e58e"/><stop offset=".477" stop-color="#e2c37d"/><stop offset="1" stop-color="#b89759"/></linearGradient><path d="M329.4 125.3s-2.2-9.1 10.9-10.6c0 0 1.3 6.2 7.4 10.3 0 0-12.1-2.9-11.1 7.9l-7.2-7.6z" opacity=".9" fill="url(#SVGID_00000100377365462920868550000011655087597549002904_)"/><path class="st2" d="M513.8 66.9s-4.1-6.1 8.7-16.3c0 0 2.6 4.3 9.6 3.5 0 0-12.7 5.9-9.5 14.2l-8.8-1.4z"/><path class="st17" d="M503.7 38.2c2 2.1 2 5.5-.1 7.5s-5.5 2-7.5-.1-2-5.5.1-7.5 5.5-2 7.5.1z"/><path class="st12" d="M635.5 24.8c1.3 1.3 1.3 3.5-.1 4.8-1.3 1.3-3.5 1.3-4.8-.1-1.3-1.3-1.3-3.5.1-4.8 1.3-1.3 3.5-1.2 4.8.1zM517.3 27c1.3 1.3 1.3 3.5-.1 4.8-1.3 1.3-3.5 1.3-4.8-.1-1.3-1.3-1.3-3.5.1-4.8 1.3-1.3 3.5-1.3 4.8.1zm39.1 20.7c1.3 1.3 1.3 3.5-.1 4.8-1.3 1.3-3.5 1.3-4.8-.1-1.3-1.3-1.3-3.5.1-4.8 1.3-1.3 3.5-1.3 4.8.1z"/><radialGradient id="SVGID_00000017509782789529925140000013348273612224884925_" cx="252.674" cy="-766.184" r="14.32" gradientTransform="matrix(.5402 -1.2554 .951 .3281 1192.226 617.578)" gradientUnits="userSpaceOnUse"><stop offset="0" stop-color="#efc97d"/><stop offset=".167" stop-color="#eec276"/><stop offset=".462" stop-color="#edc073"/><stop offset=".6" stop-color="#e9ad65"/><stop offset=".855" stop-color="#e38f4e"/><stop offset="1" stop-color="#e18445"/></radialGradient><path d="M606.3 65s-19.1-4.9-22.9-22.4l7.3-.5.2-10.2s5.8 25.1 26.2 23L606.3 65z" fill="url(#SVGID_00000017509782789529925140000013348273612224884925_)"/><radialGradient id="SVGID_00000122719554724507337410000001699103299564771726_" cx="359.169" cy="-361.594" r="8.938" gradientTransform="matrix(.3744 -1.2537 .667 .3311 1272.834 616.734)" gradientUnits="userSpaceOnUse"><stop offset="0" stop-color="#efc97d"/><stop offset=".167" stop-color="#eec276"/><stop offset=".462" stop-color="#edc073"/><stop offset=".6" stop-color="#e9ad65"/><stop offset=".855" stop-color="#e38f4e"/><stop offset="1" stop-color="#e18445"/></radialGradient><path d="M1168.9 56.8s-8.3-3.1-10-14l3.2-.3.1-6.4s2.6 15.6 11.5 14.4l-4.8 6.3z" fill="url(#SVGID_00000122719554724507337410000001699103299564771726_)"/><path class="st12" d="M769.4 54c.6.8.6 2.2 0 3s-1.5.8-2.1 0-.6-2.2 0-3c.6-.9 1.6-.8 2.1 0z"/><radialGradient id="SVGID_00000026149984337118763750000009547663703541533834_" cx="206.318" cy="-745.003" r="8.938" gradientTransform="matrix(.3744 -1.2537 .667 .3311 1272.834 616.734)" gradientUnits="userSpaceOnUse"><stop offset="0" stop-color="#efc97d"/><stop offset=".167" stop-color="#eec276"/><stop offset=".462" stop-color="#edc073"/><stop offset=".6" stop-color="#e9ad65"/><stop offset=".855" stop-color="#e38f4e"/><stop offset="1" stop-color="#e18445"/></radialGradient><path d="M855.9 121.4s-8.3-3.1-10-14l3.2-.3.1-6.4s2.6 15.6 11.5 14.4l-4.8 6.3z" fill="url(#SVGID_00000026149984337118763750000009547663703541533834_)"/><path class="st2" d="M688.9 36.8s-1.8-3.8 3.7-10.2c0 0 1.1 2.7 4.2 2.2 0 0-5.5 3.6-4.1 8.9l-3.8-.9z"/><radialGradient id="SVGID_00000060727095155247401260000007111831516063558280_" cx="240.685" cy="-884.44" r="8.935" gradientTransform="matrix(.3744 -1.2537 .667 .3311 1272.834 616.734)" gradientUnits="userSpaceOnUse"><stop offset="0" stop-color="#efc97d"/><stop offset=".167" stop-color="#eec276"/><stop offset=".462" stop-color="#edc073"/><stop offset=".6" stop-color="#e9ad65"/><stop offset=".855" stop-color="#e38f4e"/><stop offset="1" stop-color="#e18445"/></radialGradient><path d="M775.8 32.2s-8.3-3.1-10-14l3.2-.3.1-6.4s2.6 15.6 11.5 14.4l-4.8 6.3z" fill="url(#SVGID_00000060727095155247401260000007111831516063558280_)"/><path class="st12" d="M386.3 12c.6.8.6 2.2 0 3s-1.5.8-2.1 0-.6-2.2 0-3c.6-.9 1.5-.8 2.1 0z"/><linearGradient id="SVGID_00000118387472157166632150000015532936471132666799_" gradientUnits="userSpaceOnUse" x1="-104.103" y1="1583.259" x2="-99.951" y2="1583.259" gradientTransform="scale(1 -1) rotate(44.303 2008.274 1045.287)"><stop offset="0" stop-color="#e18c6f"/><stop offset=".094" stop-color="#d6896c"/><stop offset=".235" stop-color="#ce8669"/><stop offset=".462" stop-color="#cb8568"/><stop offset=".763" stop-color="#dd9a65"/><stop offset="1" stop-color="#e7a564"/></linearGradient><path d="M123.5 42c.7 1 .6 2.5 0 3.4-.7.9-1.7.9-2.4-.1s-.6-2.5 0-3.4c.7-.9 1.8-.8 2.4.1z" fill-rule="evenodd" clip-rule="evenodd" fill="url(#SVGID_00000118387472157166632150000015532936471132666799_)"/><radialGradient id="SVGID_00000096771682771428908150000014635690056942571707_" cx="-18.541" cy="-1730.695" r="8.934" gradientTransform="matrix(.3744 -1.2537 .667 .3311 1272.834 616.734)" gradientUnits="userSpaceOnUse"><stop offset="0" stop-color="#efc97d"/><stop offset=".167" stop-color="#eec276"/><stop offset=".462" stop-color="#edc073"/><stop offset=".6" stop-color="#e9ad65"/><stop offset=".855" stop-color="#e38f4e"/><stop offset="1" stop-color="#e18445"/></radialGradient><path d="M114.3 77s-8.3-3.1-10-14l3.2-.3.1-6.4s2.6 15.6 11.5 14.4l-4.8 6.3z" fill="url(#SVGID_00000096771682771428908150000014635690056942571707_)"/><path class="st1" d="M98.2 41.8s-3.1-7.5-7.8-8.7L91 36l-2.5.3s6.8 1.8 8.2 10l1.5-4.5z"/><path class="st2" d="M31.1 51.4s-1.8-3.8 3.7-10.2c0 0 1.1 2.7 4.2 2.2 0 0-5.5 3.6-4.1 8.8l-3.8-.8z"/><radialGradient id="SVGID_00000138545127055028314670000005007516227882945152_" cx="-14.868" cy="-1796.956" r="8.938" gradientTransform="matrix(.3744 -1.2537 .667 .3311 1272.834 616.734)" gradientUnits="userSpaceOnUse"><stop offset="0" stop-color="#efc97d"/><stop offset=".167" stop-color="#eec276"/><stop offset=".462" stop-color="#edc073"/><stop offset=".6" stop-color="#e9ad65"/><stop offset=".855" stop-color="#e38f4e"/><stop offset="1" stop-color="#e18445"/></radialGradient><path d="M71.5 50.5s-8.3-3.1-10-14l3.2-.3.1-6.4s2.6 15.6 11.5 14.4l-4.8 6.3z" fill="url(#SVGID_00000138545127055028314670000005007516227882945152_)"/><path class="st2" d="M1140.4 67.7s7.1 1.7 4.7 17.9c0 0-4.8-1.4-9.4 3.9 0 0 5.4-12.9-2.6-16.9l7.3-4.9z"/><path class="st17" d="M1084 79.1c-2.9-.2-5.2-2.7-5-5.6s2.7-5.2 5.6-5 5.2 2.7 5 5.6c-.2 3-2.7 5.2-5.6 5z"/><path class="st12" d="M1035.1 41.6c-1.9-.1-3.3-1.7-3.2-3.6.1-1.9 1.7-3.3 3.6-3.2s3.3 1.7 3.2 3.6c-.2 1.9-1.8 3.3-3.6 3.2zm-42.9 11.2c-1.9-.1-3.3-1.7-3.2-3.6.1-1.9 1.7-3.3 3.6-3.2 1.9.1 3.3 1.7 3.2 3.6-.1 1.9-1.7 3.3-3.6 3.2z"/><radialGradient id="SVGID_00000057862760268063972150000006519062442901695617_" cx="30.221" cy="-496.236" r="8.152" gradientTransform="matrix(.8271 -1.088 .8436 .5478 816.684 407.597)" gradientUnits="userSpaceOnUse"><stop offset="0" stop-color="#efc97d"/><stop offset=".167" stop-color="#eec276"/><stop offset=".462" stop-color="#edc073"/><stop offset=".6" stop-color="#e9ad65"/><stop offset=".855" stop-color="#e38f4e"/><stop offset="1" stop-color="#e18445"/></radialGradient><path d="M424.2 112.6s-9.9-5.4-9.6-15.5l4.1.7 1.5-5.6s-.2 14.6 11.3 16.3l-7.3 4.1z" fill="url(#SVGID_00000057862760268063972150000006519062442901695617_)"/><path class="st1" d="M204.6 30.7s6.4 18.4 20.8 23.6l-.5-6.8 8.1.8s-20.6-7.9-21.7-26.7l-6.7 9.1z"/></svg>