<svg version="1.1" id="Layer_1" xmlns="http://www.w3.org/2000/svg" x="0" y="0" viewBox="0 0 1057.6 144" xml:space="preserve"><style>.st5{fill:#c6c6c6}.st6{fill:#f6a654}.st7{fill:#c13a2a}.st8{fill:#f8ab08}.st9{fill:#259dab}.st10{fill:#d995c1}.st11{fill:#13a086}.st12{fill:#7c5da4}.st13{fill:#95c11f}</style><path d="M145.6 57.4c0-12.5-10.2-22.7-22.7-22.7-5.4 0-10.3 1.9-14.2 5-3.9-6.8-11.3-11.4-19.7-11.4-12.5 0-22.7 10.2-22.7 22.7 0 2.2.3 4.4.9 6.4h-.9c-12.5 0-22.7 10.2-22.7 22.7s10.2 22.7 22.7 22.7c7.3 0 13.8-3.5 18-8.9.5 12.1 10.5 21.8 22.7 21.8 11.5 0 21-8.5 22.5-19.6 4.1 4.1 9.8 6.7 16.1 6.7 12.5 0 22.7-10.2 22.7-22.7s-10.2-22.7-22.7-22.7z" opacity=".3" fill="#d1ebf2"/><path d="M871.3 61c0 12.5 10.2 22.7 22.7 22.7 6.3 0 12-2.6 16.1-6.7 1.5 11.1 11 19.6 22.5 19.6 12.2 0 22.2-9.7 22.7-21.8 4.2 5.4 10.7 8.9 18 8.9 12.5 0 22.7-10.2 22.7-22.7s-10.2-22.7-22.7-22.7h-.9c.6-2 .9-4.2.9-6.4 0-12.5-10.2-22.7-22.7-22.7-8.4 0-15.8 4.6-19.7 11.4-3.9-3.1-8.8-5-14.2-5-12.5 0-22.7 10.2-22.7 22.7-12.5 0-22.7 10.2-22.7 22.7z" opacity=".3" fill="#caf4ff"/><path d="M554.1 82c0-12.5-10.2-22.7-22.7-22.7-5.4 0-10.3 1.9-14.2 5-3.9-6.8-11.3-11.4-19.7-11.4-12.5 0-22.7 10.2-22.7 22.7 0 2.2.3 4.4.9 6.4h-.9c-12.5 0-22.7 10.2-22.7 22.7s10.2 22.7 22.7 22.7c7.3 0 13.8-3.5 18-8.9.5 12.1 10.5 21.8 22.7 21.8 11.5 0 21-8.5 22.5-19.6 4.1 4.1 9.8 6.7 16.1 6.7 12.5 0 22.7-10.2 22.7-22.7S566.6 82 554.1 82z" opacity=".3" fill="#daf5ff"/><path d="M389.7 38.3c0-12.5-10.2-22.7-22.7-22.7-5.4 0-10.3 1.9-14.2 5-3.9-6.8-11.3-11.4-19.7-11.4-12.5 0-22.7 10.2-22.7 22.7 0 2.2.3 4.4.9 6.4h-.9c-12.5 0-22.7 10.2-22.7 22.7s10.2 22.7 22.7 22.7c7.3 0 13.8-3.5 18-8.9.5 12.1 10.5 21.8 22.7 21.8 11.5 0 21-8.5 22.5-19.6 4.1 4.1 9.8 6.7 16.1 6.7 12.5 0 22.7-10.2 22.7-22.7 0-12.6-10.2-22.7-22.7-22.7z" fill="#b9e9fc"/><path d="M807.8 75.7c0-12.5-10.2-22.7-22.7-22.7-5.4 0-10.3 1.9-14.2 5-3.9-6.8-11.3-11.4-19.7-11.4-12.5 0-22.7 10.2-22.7 22.7 0 2.2.3 4.4.9 6.4h-.9c-12.5 0-22.7 10.2-22.7 22.7s10.2 22.7 22.7 22.7c7.3 0 13.8-3.5 18-8.9.5 12.1 10.5 21.8 22.7 21.8 11.5 0 21-8.5 22.5-19.6 4.1 4.1 9.8 6.7 16.1 6.7 12.5 0 22.7-10.2 22.7-22.7 0-12.6-10.2-22.7-22.7-22.7z" fill="#d2f9ff"/><path class="st5" d="M156.6 2.2C130.7 67.1 69 109.4 1.2 112.2v.7c68.2-2.8 130.3-45.5 156.3-110.8h-.9z"/><path class="st6" d="M1.2 112.2v23.5c4.3-8 8.1-16.1 11.3-24.3-3.8.4-7.5.7-11.3.8z"/><path class="st7" d="M38.5 137.7c-8.1-8.5-15.4-17.5-21.9-26.7 10.3-1.3 20.5-3.6 30.3-6.8-1.9 11.1-4.7 22.3-8.4 33.5z"/><path class="st8" d="M77.5 124.8c-9.6-6.7-18.5-14.1-26.7-21.9 9.8-3.4 19.1-7.5 28.1-12.5.4 11.2 0 22.7-1.4 34.4z"/><path class="st9" d="M111.4 105.6c-10.7-4.8-20.9-10.3-30.3-16.6a176 176 0 0 0 25.3-17.6c2.6 11 4.2 22.4 5 34.2z"/><path class="st10" d="M142.6 78.8c-11.5-2.6-22.5-6-33-10.1 7.8-6.8 14.9-14.3 21.4-22.4 4.6 10.4 8.5 21.2 11.6 32.5z"/><path class="st11" d="M168.1 46.1c-11.8-.1-23.3-1.2-34.5-3.1 6.3-8.3 11.9-17.2 16.7-26.7 6.6 9.2 12.6 19.2 17.8 29.8z"/><path class="st12" d="M156.6 2.2c-1.4 3.5-2.8 6.9-4.4 10.2 11.4-.5 22.9-2 34.6-4.5-1.5-1.9-3-3.8-4.5-5.6l-25.7-.1z"/><path class="st5" d="M311.8 2.2C243 85 131.5 84.7 63.3 2.2h-1.1c68.6 83.8 181.5 84 250.8 0h-1.2z"/><path class="st13" d="M63.3 2.2h-2.7c-3.1 12.4-5.5 25.3-7.2 38.5 11.4-4.1 22.3-9.4 32.5-15.5-8.1-6.8-15.6-14.5-22.6-23z"/><path class="st6" d="M88.2 69.9c-.5-14.2-.2-28.2 1.2-41.7 8.8 7.2 18.1 13.2 27.6 18.3-8.9 8.5-18.6 16.4-28.8 23.4z"/><path class="st7" d="M126.3 89.4c-2.8-13.7-4.6-27.4-5.6-41 9.6 4.7 19.5 8.4 29.6 11-7.1 10.6-15.2 20.6-24 30z"/><path class="st8" d="M166.5 99.2c-5-12.8-8.9-25.8-12.1-38.7 10.1 2.3 20.4 3.6 30.6 3.7-5.2 12-11.5 23.7-18.5 35z"/><path class="st9" d="M205.6 99.5c-6.9-11.4-12.8-23.3-18-35.4 10.3 0 20.5-1.1 30.6-3.2-3.3 13-7.5 25.9-12.6 38.6z"/><path class="st10" d="M245.9 90.3c-8.7-9.5-16.6-19.7-23.6-30.3 10.1-2.5 20-6 29.7-10.6-1 13.6-3.1 27.2-6.1 40.9z"/><path class="st11" d="M284.3 71.4c-10.2-7.2-19.6-15.2-28.4-23.8 9.6-4.9 19-10.8 27.9-17.9 1.1 13.5 1.3 27.5.5 41.7z"/><path class="st12" d="M311.8 2.2c-7.6 9.2-15.8 17.4-24.4 24.5 10.1 6.3 20.9 11.7 32.2 16-1.6-13.9-3.9-27.5-7-40.5h-.8z"/><path class="st5" d="M227.9 2.2h-.8c19 59.3 67.7 102.9 126.1 117.1v-.8C295.3 104.4 247 61 227.9 2.2z"/><path class="st13" d="M196.8 2.2c11.3 3.5 22.5 5.9 33.7 7.4-.9-2.4-1.7-4.9-2.6-7.4h-31.1z"/><path class="st6" d="M211.7 41.8c6.1-10.1 13-19.5 20.3-28.2 4 9.9 8.8 19.3 14.3 28.2-11.2.8-22.8.9-34.6 0z"/><path class="st7" d="M234.3 76.6c4.1-11 8.9-21.5 14.4-31.5 5.8 8.7 12.3 16.7 19.4 24.2-10.8 3.3-22.1 5.7-33.8 7.3z"/><path class="st8" d="M263 105.9c1.8-11.6 4.5-22.8 7.9-33.5 7.3 7.3 15.2 13.8 23.6 19.7-9.8 5.3-20.4 9.9-31.5 13.8z"/><path class="st9" d="M295.3 127.9c-.4-11.8.2-23.3 1.5-34.4 8.5 5.7 17.6 10.8 26.9 14.9-8.8 7.1-18.3 13.7-28.4 19.5z"/><path class="st10" d="M353.2 118.5c-8.9-2.2-17.4-5-25.8-8.4.9 11.3 2.7 22.7 5.5 34.1 7.3-6.5 14.1-13.2 20.3-20.3v-5.4z"/><path class="st5" d="M860.9 2.2c-25.8 64.9-87.6 107.2-155.4 110v.7c68.2-2.8 130.3-45.5 156.3-110.8h-.9z"/><path class="st6" d="M705.5 112.2v23.5c4.3-8 8.1-16.1 11.3-24.3-3.7.4-7.5.7-11.3.8z"/><path class="st7" d="M742.9 137.7c-8.1-8.5-15.4-17.5-21.9-26.7 10.3-1.3 20.5-3.6 30.3-6.8-1.9 11.1-4.7 22.3-8.4 33.5z"/><path class="st8" d="M781.9 124.8c-9.6-6.7-18.5-14.1-26.7-21.9 9.8-3.4 19.1-7.5 28.1-12.5.4 11.2 0 22.7-1.4 34.4z"/><path class="st9" d="M815.8 105.6c-10.7-4.8-20.9-10.3-30.3-16.6a176 176 0 0 0 25.3-17.6c2.5 11 4.2 22.4 5 34.2z"/><path class="st10" d="M846.9 78.8c-11.5-2.6-22.5-6-33-10.1 7.8-6.8 14.9-14.3 21.4-22.4 4.7 10.4 8.6 21.2 11.6 32.5z"/><path class="st11" d="M872.4 46.1c-11.8-.1-23.3-1.2-34.5-3.1 6.3-8.3 11.9-17.2 16.7-26.7 6.7 9.2 12.6 19.2 17.8 29.8z"/><path class="st12" d="M860.9 2.2c-1.4 3.5-2.8 6.9-4.4 10.2 11.4-.5 22.9-2 34.6-4.5-1.5-1.9-3-3.8-4.5-5.6l-25.7-.1z"/><path class="st5" d="M1016.2 2.2c-68.8 82.8-180.3 82.6-248.6 0h-1.1c68.6 83.8 181.5 84 250.8 0h-1.1z"/><path class="st13" d="M767.6 2.2h-2.7c-3.1 12.4-5.5 25.3-7.2 38.5 11.4-4.1 22.3-9.4 32.5-15.5-8-6.8-15.5-14.5-22.6-23z"/><path class="st6" d="M792.5 69.9c-.5-14.2-.2-28.2 1.2-41.7 8.8 7.2 18.1 13.2 27.6 18.3-8.9 8.5-18.5 16.4-28.8 23.4z"/><path class="st7" d="M830.7 89.4c-2.8-13.7-4.6-27.4-5.6-41 9.6 4.7 19.5 8.4 29.6 11-7.2 10.6-15.2 20.6-24 30z"/><path class="st8" d="M870.9 99.2c-5-12.8-8.9-25.8-12.1-38.7 10.1 2.3 20.4 3.6 30.6 3.7-5.3 12-11.5 23.7-18.5 35z"/><path class="st9" d="M910 99.5c-6.9-11.4-12.8-23.3-18-35.4 10.3 0 20.5-1.1 30.6-3.2-3.3 13-7.5 25.9-12.6 38.6z"/><path class="st10" d="M950.3 90.3c-8.7-9.5-16.6-19.7-23.6-30.3 10.1-2.5 20-6 29.7-10.6-1.1 13.6-3.1 27.2-6.1 40.9z"/><path class="st11" d="M988.7 71.4c-10.2-7.2-19.6-15.2-28.4-23.8 9.6-4.9 19-10.8 27.9-17.9 1.1 13.5 1.2 27.5.5 41.7z"/><path class="st12" d="M1016.2 2.2c-7.6 9.2-15.8 17.4-24.4 24.5 10.1 6.3 20.9 11.7 32.2 16-1.6-13.9-3.9-27.5-7-40.5h-.8z"/><path class="st5" d="M932.3 2.2h-.8c19 59.3 67.7 102.9 126.1 117.1v-.8C999.7 104.4 951.4 61 932.3 2.2z"/><path class="st13" d="M901.2 2.2c11.3 3.5 22.5 5.9 33.7 7.4-.9-2.4-1.7-4.9-2.6-7.4h-31.1z"/><path class="st6" d="M916.1 41.8c6.1-10.1 13-19.5 20.3-28.2 4 9.9 8.8 19.3 14.3 28.2-11.2.8-22.9.9-34.6 0z"/><path class="st7" d="M938.7 76.6c4.1-11 8.9-21.5 14.4-31.5 5.8 8.7 12.3 16.7 19.4 24.2-10.9 3.3-22.1 5.7-33.8 7.3z"/><path class="st8" d="M967.4 105.9c1.8-11.6 4.5-22.8 7.9-33.5 7.3 7.3 15.2 13.8 23.6 19.7-9.9 5.3-20.4 9.9-31.5 13.8z"/><path class="st9" d="M999.6 127.9c-.4-11.8.2-23.3 1.5-34.4 8.5 5.7 17.6 10.8 26.9 14.9-8.7 7.1-18.3 13.7-28.4 19.5z"/><path class="st10" d="M1057.6 118.5c-8.9-2.2-17.4-5-25.8-8.4.9 11.3 2.7 22.7 5.5 34.1 7.3-6.5 14.1-13.2 20.3-20.3v-5.4z"/><path class="st5" d="M549 2.2c26 65.3 88.1 108 156.3 110.8v-.7c-67.8-2.8-129.6-45.1-155.4-110h-.9z"/><path class="st6" d="M693.9 111.4c3.2 8.2 7 16.3 11.3 24.3v-23.5c-3.7-.1-7.5-.4-11.3-.8z"/><path class="st7" d="M659.6 104.2c9.9 3.1 20 5.5 30.3 6.8-6.5 9.3-13.8 18.2-21.9 26.7-3.8-11.2-6.6-22.4-8.4-33.5z"/><path class="st8" d="M627.5 90.4c8.9 5 18.3 9.1 28.1 12.5-8.2 7.9-17.1 15.2-26.7 21.9-1.4-11.7-1.8-23.2-1.4-34.4z"/><path class="st9" d="M600 71.4A176 176 0 0 0 625.3 89c-9.4 6.2-19.6 11.8-30.3 16.6.8-11.8 2.5-23.2 5-34.2z"/><path class="st10" d="M575.4 46.3c6.5 8.1 13.7 15.6 21.4 22.4-10.5 4.1-21.5 7.5-33 10.1 3.1-11.3 7-22.1 11.6-32.5z"/><path class="st11" d="M556.2 16.3c4.8 9.5 10.4 18.5 16.7 26.7-11.2 1.9-22.7 3-34.5 3.1 5.2-10.6 11.1-20.6 17.8-29.8z"/><path class="st12" d="M549.9 2.3h-25.8c-1.5 1.8-3 3.7-4.5 5.6 11.7 2.5 23.2 4 34.6 4.5-1.5-3.3-2.9-6.7-4.3-10.1z"/><path class="st5" d="M393.5 2.2c69.3 84 182.2 83.8 250.8 0h-1.1C575 84.7 463.4 85 394.6 2.2h-1.1z"/><path class="st13" d="M620.7 25.2c10.2 6.1 21 11.3 32.5 15.5-1.7-13.2-4.1-26.1-7.2-38.5h-2.7c-7.2 8.5-14.7 16.2-22.6 23z"/><path class="st6" d="M589.5 46.5c9.5-5.1 18.8-11.1 27.6-18.3 1.3 13.6 1.7 27.6 1.2 41.7-10.3-7-19.9-14.9-28.8-23.4z"/><path class="st7" d="M556.2 59.5c10-2.6 20-6.3 29.6-11-1 13.6-2.8 27.2-5.6 41-8.9-9.5-16.9-19.5-24-30z"/><path class="st8" d="M521.4 64.2c10.3-.2 20.5-1.4 30.6-3.7-3.1 13-7.1 26-12.1 38.7-7-11.3-13.2-23-18.5-35z"/><path class="st9" d="M488.2 61c10.1 2.2 20.4 3.2 30.6 3.2-5.1 12.1-11.1 23.9-18 35.4-5.1-12.8-9.3-25.7-12.6-38.6z"/><path class="st10" d="M454.4 49.4c9.7 4.6 19.6 8.1 29.7 10.6-7 10.6-14.9 20.8-23.6 30.3-3-13.7-5-27.3-6.1-40.9z"/><path class="st11" d="M422.6 29.7c8.9 7 18.3 13 27.9 17.9-8.8 8.7-18.2 16.6-28.4 23.8-.7-14.2-.6-28.2.5-41.7z"/><path class="st12" d="M393.9 2.2c-3.1 13-5.5 26.6-7 40.5 11.3-4.3 22.1-9.7 32.2-16-8.6-7.1-16.8-15.3-24.4-24.5h-.8z"/><path class="st5" d="M353.2 118.4v.8C411.6 105 460.3 61.4 479.3 2.1h-.8C459.4 61 411.1 104.4 353.2 118.4z"/><path class="st13" d="M478.5 2.2c-.8 2.5-1.7 5-2.6 7.4 11.2-1.5 22.4-3.9 33.7-7.4h-31.1z"/><path class="st6" d="M460.1 41.7c5.5-8.9 10.3-18.2 14.3-28.2 7.3 8.7 14.2 18.1 20.3 28.2-11.7 1-23.4.9-34.6 0z"/><path class="st7" d="M438.3 69.3c7.1-7.5 13.6-15.5 19.4-24.2 5.5 9.9 10.3 20.5 14.4 31.5-11.7-1.6-22.9-4-33.8-7.3z"/><path class="st8" d="M411.8 92.1c8.4-5.9 16.3-12.4 23.6-19.7 3.5 10.8 6.1 21.9 7.9 33.5-11-3.9-21.5-8.5-31.5-13.8z"/><path class="st9" d="M382.8 108.4c9.4-4.1 18.4-9.2 26.9-14.9 1.3 11.2 1.9 22.7 1.5 34.4-10.1-5.8-19.6-12.4-28.4-19.5z"/><path class="st10" d="M353.2 123.9c6.2 7 13 13.8 20.3 20.3 2.7-11.4 4.6-22.9 5.5-34.1-8.4 3.5-16.9 6.3-25.8 8.4v5.4z"/></svg>