<svg version="1.1" id="Layer_1" xmlns="http://www.w3.org/2000/svg" x="0" y="0" viewBox="0 0 1304.9 144" xml:space="preserve"><style>.st0{fill:#2b778c}.st1{fill:#e16a69}.st2{fill:#f6ba40}</style><path class="st0" d="M.7 89.6c57.4 6.1 116.1 5.8 173.8 4.1 133.7-4 267.6-22.3 396.6-57.9 35.2-9.7 69.8-20.8 104.2-33.2 1-.4.5-1.8-.4-1.5-136.5 49.7-280.8 76.8-425.6 87.3-79.3 5.6-159.6 7.1-239 .5-3.1-.3-6.3-.5-9.6-.9-.9-.1-.9 1.5 0 1.6z"/><path class="st1" d="m64.4 90.6-29.2-.7L63 140.5l30.6-49.1z"/><path class="st2" d="m140.7 91.2-29.2.4 29.8 49.5 28.6-50.3z"/><path class="st0" d="m218.6 88.9-29.1 1.7 32.1 48.1 26.2-51.6z"/><path class="st1" d="m299 83.3-29.1 2.8 34.1 46.8 24.1-52.5z"/><path class="st2" d="m374.7 74.2-28.9 4 35.9 45.4L403.6 70z"/><path class="st0" d="M451.7 61.7 423 67.2l38 43.6 19.4-54.4z"/><path class="st1" d="m523.7 45.4-28.2 7.3 40.7 41.1 15.9-55.7z"/><path class="st2" d="m597.2 25-27.9 8.4 42.3 39.4 13.6-56.2z"/><path class="st0" d="M674.4.8c50.2 19.9 103.2 34.4 155.5 47.4 121.5 30.1 246.8 47.3 372 47.7 34.2.1 68.2-1.1 102.3-3.8.9-.1.9-1.5 0-1.4-135.5 10.4-272.4-1.5-405.4-28.6-73-14.7-145.8-33.7-215.7-59.4-2.8-1-5.6-2-8.4-3.2-.8-.4-1.1 1-.3 1.3z"/><path class="st1" d="m731.4 17.8-26.1-8.1 12.3 52.6 40-36.4z"/><path class="st2" d="m800.1 37.5-26.4-7.1L788 82.6l38.5-38z"/><path class="st0" d="m870.9 54.9-26.8-5.7 16.9 51.4 36.5-39.9z"/><path class="st1" d="m944.8 70.2-27-4.8 18.9 50.8 35-41.3z"/><path class="st2" d="m1015.3 81-27.1-3.6 20.9 49.8 33.3-42.7z"/><path class="st0" d="m1087.8 89.3-27.2-2.4 23.2 48.9 31.2-44.2z"/><path class="st1" d="m1156.8 92.6-27.3-.6 26.4 47.3 28.3-46.1z"/><path class="st2" d="m1228.2 92.7-27.3.5 28.2 46.2 26.4-47.2z"/><g opacity=".5"><path class="st2" d="m230.9 76.7 17.3-35.2-2.5-.7-60.4-18.4-15.6 31.8c-1.3-1.6-3.8-2.7-6.6-2.5-4 .3-7 2.9-6.8 5.9.2 3 3.6 5.2 7.6 4.9 3-.2 5.4-1.8 6.4-3.8l12.7-26 27.9 7.9-10.8 22.1c-1.3-1.6-3.8-2.6-6.5-2.4-2.7.2-4.9 1.5-6.1 3.2-.8 1-1.2 2.1-1.2 3.3.2 3 3.6 5.2 7.6 4.9 2.7-.2 5-1.5 6.1-3.3.3-.3.5-.7.7-1.1l12.4-25.4 27.9 7.9-10.9 22.1c-1.3-1.6-3.8-2.7-6.6-2.5-4 .3-7 2.9-6.8 5.9.2 3 3.6 5.2 7.6 4.9 3.1.1 5.6-1.4 6.6-3.5z"/><path class="st1" d="m324.2 70 3.1-.3-3.8-35.9c2.4.9 5.6.3 8.4-1.6 4-2.8 5.4-7.5 3.3-10.5-2.1-3-7-3.1-11-.3-3 2.1-4.5 5.3-4.2 8l4.2 40.6z"/><path class="st0" d="m979.1 10.8-19.5 16.4 14.5 24.5c-1.7.2-3.5 1.4-4.5 3.3-1.6 2.8-1.1 6 1 7.2 2.1 1.2 5.1-.1 6.6-2.9 1.2-2.1 1.2-4.4.3-6l-9.2-15.5 18-14.9 7.1 12c-1.7.2-3.5 1.4-4.5 3.3-1.6 2.8-1.1 6 1 7.2 2.1 1.2 5.1-.1 6.6-2.9 1.2-2.1 1.2-4.4.3-6L980.7 9.4l-1.6 1.4zm-12 24.9-1.4-2.4 17.7-15.4 1.5 2.5-17.8 15.3z"/><path class="st1" d="M583.4 105.2s.8-6.1-1-9.1c0 0 .3-6.6-1.7-10.4-2-3.8-5.1-7.4-8.1-9.6-3-2.2-7.8-4.2-8.6-6.4l-.2-1.3-2.7.3 6.2 53.6c-2.4-1.9-5.8-1.7-9.5.9-4.3 3-6.1 7.8-4 10.7 2.1 2.9 7.2 2.9 11.5-.1 3.5-2.5 5.4-6.2 4.7-9.1l-3.1-27s4.2 2.9 7.4 3.9 13.8 6.3 8 20.3c0 .2 6.4-8.2 1.1-16.7zm-1.7-1.9c-.3-.7-.9-1.5-4.2-3.6-3.3-2.1-5.1-3.3-7.8-5.5-2.7-2.3-3.2-6.7-3.2-6.7 4.6 1.6 11.2 6.1 13.1 9.1 2 3 2.1 6.7 2.1 6.7zm-1.2-10.8c-.3-.7-.9-1.5-4.2-3.6-3.3-2.1-5.1-3.3-7.8-5.5-2.7-2.3-3.2-6.7-3.2-6.7 4.6 1.6 11.2 6.1 13.1 9.1 1.9 3 2.1 6.7 2.1 6.7z"/><path class="st2" d="M423.6 10.3c-5.1-2.4-12.5-1.7-16.9 2.6-4.4 4.4-4.3 12 2 12.8.6.3 1.3.4 2 .4.2 0 .4 0 .6-.1h.1c2.2-.5 3.7-2.5 3.6-4.7-.1-2.5-2.3-4.5-4.8-4.3-.8 0-1.4.3-2.1.6 0 0-1.6-.5-.8-2.4s4.4-4.8 9-4.4c4.6.5 7.7 6.4 6.8 14.2-.9 7.8-6.4 16.9-19.3 25.6l.2 1.4s10.8-4.6 18.4-12.5c7.6-7.9 9.2-15.3 8.5-19.1-.8-3.8-2.2-7.8-7.3-10.1zm11.5 7.5c1.6-.1 2.8-1.4 2.7-3-.1-1.6-1.4-2.8-3-2.7-1.6.1-2.8 1.4-2.7 3 .1 1.5 1.4 2.7 3 2.7zm.3 5.6c-1.6.1-2.8 1.4-2.7 3 .1 1.6 1.4 2.8 3 2.7 1.6-.1 2.8-1.4 2.7-3-.1-1.6-1.4-2.8-3-2.7z"/><path class="st0" d="m420.3 92.3-2.8-1.3-14.3 33.1c-1.7-1.9-4.8-3.1-8.1-2.7-4.8.5-8.4 3.9-8 7.5.4 3.6 4.6 6.2 9.4 5.6 3.6-.4 6.6-2.4 7.6-4.9l16.2-37.3z"/><path class="st1" d="M105.5 52.2 104 21.4l-2 .4-48.6 10.4L54.7 60c-1.5-.6-3.6-.4-5.5.8-2.6 1.7-3.7 4.7-2.4 6.7 1.3 2 4.5 2.2 7.1.5 2-1.3 3.1-3.3 3-5l-1.1-22.7L78 35l1 19.3c-1.5-.6-3.6-.3-5.4.8-1.8 1.2-2.8 2.9-2.9 4.5-.2 1-.1 1.9.4 2.7 1.3 2 4.5 2.2 7.1.5 1.8-1.2 2.9-3 3-4.6.1-.3.1-.7.1-1L80.2 35l22.3-5.2 1 19.4c-1.5-.6-3.6-.4-5.5.8-2.6 1.7-3.7 4.7-2.4 6.7 1.3 2 4.4 2.2 7.1.5 1.8-1.2 2.9-3.2 2.8-5z"/><path class="st2" d="m713.7 102.7-6.1-42.2-2.7.9L639.3 82l5.5 38.1c-2.2-.7-5-.1-7.4 1.8-3.4 2.7-4.5 6.9-2.5 9.5 2 2.6 6.4 2.4 9.8-.2 2.6-2 3.8-4.9 3.4-7.3l-4.5-31.2 30-10 3.8 26.5c-2.2-.6-5 0-7.3 1.9-2.3 1.8-3.5 4.4-3.5 6.6-.1 1.3.2 2.6 1 3.7 2 2.6 6.4 2.4 9.8-.2 2.3-1.9 3.6-4.5 3.5-6.7v-1.4l-4.4-30.4 30-10 3.8 26.6c-2.2-.7-5-.1-7.4 1.8-3.4 2.7-4.5 6.9-2.5 9.5 2 2.6 6.4 2.5 9.8-.2 2.7-2.4 3.9-5.3 3.5-7.7zm517.1-77.6c-5.1-2.4-12.5-1.7-16.9 2.6-4.4 4.4-4.3 12 2 12.8.6.3 1.3.4 2 .4.2 0 .4 0 .6-.1h.1c2.2-.5 3.7-2.5 3.6-4.7-.1-2.5-2.3-4.5-4.8-4.3-.8 0-1.4.3-2.1.6 0 0-1.6-.5-.8-2.4s4.4-4.8 9-4.4c4.6.5 7.7 6.4 6.8 14.2-.9 7.8-6.4 16.9-19.3 25.6l.1 1.3s10.8-4.6 18.4-12.5c7.6-7.9 9.2-15.3 8.5-19.1s-2.1-7.6-7.2-10zm11.5 7.5c1.6-.1 2.8-1.4 2.7-3-.1-1.6-1.4-2.8-3-2.7-1.6.1-2.8 1.4-2.7 3 .1 1.6 1.4 2.8 3 2.7zm.3 5.6c-1.6.1-2.8 1.4-2.7 3 .1 1.6 1.4 2.8 3 2.7 1.6-.1 2.8-1.4 2.7-3-.1-1.6-1.4-2.8-3-2.7zm-98.9 36.3 17.3-35.2-2.5-.7-60.4-18.4-15.6 31.8c-1.3-1.6-3.8-2.7-6.6-2.5-4 .3-7 2.9-6.8 5.9.2 3 3.6 5.2 7.6 4.9 3-.2 5.4-1.8 6.4-3.8l12.7-26 27.9 7.9-10.8 22.1c-1.3-1.6-3.8-2.6-6.5-2.4-2.7.2-4.9 1.5-6.1 3.2-.8 1-1.2 2.1-1.2 3.3.2 3 3.6 5.2 7.6 4.9 2.7-.2 5-1.5 6.1-3.3.3-.3.5-.7.7-1.1l12.4-25.4 27.9 8-10.9 22.1c-1.3-1.6-3.8-2.7-6.6-2.5-4 .3-7 2.9-6.8 5.9.2 3 3.6 5.2 7.6 4.9 3.2 0 5.6-1.6 6.6-3.6z"/><path class="st0" d="M826.3 114.6s4-4.7 4-8.2c0 0 3.8-5.4 4.1-9.6.3-4.3-.4-8.9-1.7-12.4-1.4-3.5-4.4-7.7-3.8-10l.5-1.3L827 72l-23.4 48.7c-1-2.9-4-4.5-8.5-4.3-5.2.3-9.3 3.4-9.1 7 .2 3.6 4.5 6.3 9.7 6 4.3-.2 7.9-2.4 8.8-5.2l11.8-24.5s2 4.7 4.2 7.3c2.2 2.6 8.3 12.7-4.1 21.4-.1-.1 9.8-3.8 9.9-13.8zm-.5-2.5c.1-.8.1-1.8-1.6-5.3-1.7-3.5-2.6-5.5-3.7-8.8-1.1-3.4.9-7.4.9-7.4 3 3.8 6.2 11.1 6.2 14.7.1 3.6-1.8 6.8-1.8 6.8zm4.8-9.8c.1-.8.1-1.8-1.6-5.3-1.7-3.5-2.6-5.5-3.7-8.8-1.1-3.4.9-7.4.9-7.4 3 3.8 6.2 11.1 6.2 14.7 0 3.6-1.8 6.8-1.8 6.8z"/></g></svg>