<?xml version="1.0" encoding="utf-8"?>
<!-- Generator: Adobe Illustrator 26.0.3, SVG Export Plug-In . SVG Version: 6.00 Build 0)  -->
<svg version="1.1" id="Layer_1" xmlns="http://www.w3.org/2000/svg" xmlns:xlink="http://www.w3.org/1999/xlink" x="0px" y="0px"
	 viewBox="0 0 100 100" style="enable-background:new 0 0 100 100;" xml:space="preserve">
<style type="text/css">
	.st0{fill:#F68E00;}
	.st1{fill:#CE0000;}
</style>
<g>
	<path class="st0" d="M49.1,28.6L42.5,32c-1.2,0.6-2.6-0.4-2.4-1.7l1.3-7.4c0.1-0.5-0.1-1-0.5-1.4l-5.4-5.2c-1-0.9-0.4-2.6,0.9-2.8
		l7.4-1c0.5-0.1,1-0.4,1.3-0.9l3.3-6.7c0.6-1.3,2.3-1.3,2.9,0l3.3,6.7c0.3,0.5,0.6,0.8,1.3,0.9l7.4,1c1.3,0.3,1.9,1.8,0.9,2.8
		l-5.4,5.2c-0.4,0.4-0.5,0.9-0.5,1.4l1.3,7.4c0.3,1.3-1.2,2.3-2.4,1.7l-6.5-3.5C50.3,28.3,49.6,28.3,49.1,28.6z M83.3,54.4l-6.7,3.5
		c-1.2,0.6-2.6-0.4-2.4-1.7l1.3-7.4c0.1-0.5-0.1-1-0.5-1.4l-5.2-5.2c-1-0.9-0.4-2.6,0.9-2.8l7.4-1c0.5-0.1,1-0.4,1.3-0.9l3.3-6.7
		c0.6-1.3,2.3-1.3,2.9,0l3.3,6.7c0.3,0.5,0.6,0.8,1.3,0.9l7.4,1c1.3,0.3,1.9,1.8,0.9,2.8l-5.4,5.2c-0.4,0.4-0.5,0.9-0.5,1.4l1.3,7.4
		c0.3,1.3-1.2,2.3-2.4,1.7l-6.7-3.5C84.3,54.2,83.8,54.2,83.3,54.4z M15.1,54.4l-6.7,3.5c-1.2,0.6-2.6-0.4-2.4-1.7l1.3-7.4
		c0.1-0.5-0.1-1-0.5-1.4l-5.2-5.2c-1-0.9-0.4-2.6,0.9-2.8l7.4-1c0.5-0.1,1-0.4,1.3-0.9l3.3-6.7c0.6-1.3,2.3-1.3,2.9,0l3.3,6.7
		c0.3,0.5,0.6,0.8,1.3,0.9l7.4,1c1.3,0.3,1.9,1.8,0.9,2.8l-5.4,5.2c-0.4,0.4-0.5,0.9-0.5,1.4l1.3,7.4c0.3,1.3-1.2,2.3-2.4,1.7
		l-6.7-3.5C16.1,54.2,15.5,54.2,15.1,54.4z M28.8,92.4l-6.7,3.5c-1.2,0.6-2.6-0.4-2.4-1.7l1.3-7.4c0.1-0.5-0.1-1-0.5-1.4l-5.4-5.2
		c-1-0.9-0.4-2.6,0.9-2.8l7.4-1c0.5-0.1,1-0.4,1.3-0.9l3.3-6.7c0.6-1.3,2.3-1.3,2.9,0l3.3,6.7c0.3,0.5,0.6,0.8,1.3,0.9l7.4,1
		c1.3,0.3,1.9,1.8,0.9,2.8l-5.4,5.2c-0.4,0.4-0.5,0.9-0.5,1.4l1.3,7.4c0.3,1.3-1.2,2.3-2.4,1.7l-6.7-3.5
		C29.8,92.2,29.3,92.2,28.8,92.4z M69.6,92.4l-6.7,3.5c-1.2,0.6-2.6-0.4-2.4-1.7l1.3-7.4c0.1-0.5-0.1-1-0.5-1.4l-5.4-5.2
		c-1-0.9-0.4-2.6,0.9-2.8l7.4-1c0.5-0.1,1-0.4,1.3-0.9l3.3-6.7c0.6-1.3,2.3-1.3,2.9,0l3.3,6.7c0.3,0.5,0.6,0.8,1.3,0.9l7.4,1
		c1.3,0.3,1.9,1.8,0.9,2.8l-5.4,5.2c-0.4,0.4-0.5,0.9-0.5,1.4l1.3,7.4c0.3,1.3-1.2,2.3-2.4,1.7l-6.5-3.5
		C70.6,92.2,70,92.2,69.6,92.4z"/>
	<path class="st1" d="M46.2,71.9c-2.7,0-4.7-0.6-6.3-1.8c-1.4-1.2-2.2-2.8-2.2-5c0-1.9,0.5-3.5,1.7-4.6c1.2-1.2,2.6-1.8,4.4-1.8
		c1.9,0,2.9,0.8,3.3,2.3c-1.3,0.1-2.3,0.6-3.1,1.4c-0.8,0.8-1.2,1.7-1.2,2.9c0,1,0.4,1.9,1,2.6c0.6,0.6,1.5,0.9,2.6,0.9
		c1.8,0,3.2-0.8,4.4-2.4c1.2-1.7,1.7-3.6,1.7-6.1c0-2.2-0.4-3.7-1.3-4.9c-0.9-1.2-2.2-1.8-3.7-1.8c-1.7,0-3.6,0.6-6,2l-0.6-0.4
		l3.6-17.4c3.5,0.4,6,0.6,7.7,0.6c2.8,0,5.5-0.4,8.1-1.3c0,0.6,0.1,1.2,0.1,1.5c0,1.5-0.4,2.9-1.3,3.8c-0.8,1-2.2,1.5-4,1.5
		c-0.8,0-1.5-0.1-2.6-0.3s-1.9-0.4-2.8-0.5L47.3,43l-1.8,8.3c2-0.9,3.8-1.4,5.8-1.4c2.6,0,4.5,0.9,5.9,2.6c1.5,1.7,2.2,4,2.2,6.9
		c0,2.4-0.5,4.7-1.7,6.5c-1,1.9-2.6,3.5-4.6,4.5C51,71.4,48.7,71.9,46.2,71.9L46.2,71.9z"/>
</g>
</svg>
