<?xml version="1.0" encoding="utf-8"?>
<!-- Generator: Adobe Illustrator 26.0.3, SVG Export Plug-In . SVG Version: 6.00 Build 0)  -->
<svg version="1.1" id="Layer_1" xmlns="http://www.w3.org/2000/svg" xmlns:xlink="http://www.w3.org/1999/xlink" x="0px" y="0px"
	 viewBox="0 0 100 100" style="enable-background:new 0 0 100 100;" xml:space="preserve">
<style type="text/css">
	.st0{fill:#FF9900;}
	.st1{fill:#9901FF;}
	.st2{fill:#FFF5EF;}
</style>
<g>
	<g>
		<path class="st0" d="M84.6,65.1H59c-0.4-0.1-1.4,0.9-1.4,1.4c0,0,0,25.4,0,25.4c-0.1,0.4,0.9,1.4,1.4,1.4c0,0,25.6,0,25.6,0
			c0.4,0.1,1.4-0.9,1.4-1.4c0,0,0-25.4,0-25.4c0-0.2-0.2-0.6-0.5-0.9C85.2,65.2,84.8,65.1,84.6,65.1z"/>
		<path class="st0" d="M33.6,65.1H8C7.6,65,6.6,66,6.7,66.4v25.4c-0.1,0.4,0.9,1.4,1.4,1.4c0,0,25.6,0,25.6,0
			c0.4,0.1,1.4-0.9,1.4-1.4c0,0,0-25.4,0-25.4c0-0.2-0.1-0.5-0.5-0.9C34.2,65.2,33.8,65.1,33.6,65.1z"/>
		<path class="st0" d="M33.6,14.1H8C7.6,14,6.6,15,6.7,15.4v25.6c-0.1,0.4,0.9,1.4,1.4,1.3c0,0,25.6,0,25.6,0
			c0.4,0.1,1.4-0.9,1.4-1.3c0,0,0-25.6,0-25.6c0-0.2-0.1-0.5-0.5-0.9C34.2,14.2,33.8,14.1,33.6,14.1z"/>
		<g>
			<path class="st1" d="M33.6,59.4H8c-3.5-0.1-7.1,3.5-7,7v25.4c0,1.7,0.8,3.5,2.1,4.9s3.1,2.1,4.9,2.1h25.6c3.5,0.1,7.1-3.5,7-7
				V66.4c0-1.7-0.8-3.5-2.1-4.9C37.2,60.2,35.4,59.4,33.6,59.4z M35,91.8c0.1,0.4-0.9,1.4-1.4,1.4c0,0-25.6,0-25.6,0
				c-0.4,0.1-1.4-0.9-1.4-1.4V66.4C6.6,66,7.6,65,8,65.1h25.6c0.2,0,0.5,0.2,0.9,0.5c0.3,0.3,0.5,0.7,0.5,0.9
				C35,66.4,35,91.8,35,91.8z"/>
			<path class="st1" d="M89.5,61.5c-1.4-1.4-3.1-2.1-4.9-2.1H59c-3.5-0.1-7.1,3.5-7,7v25.4c0,1.7,0.8,3.5,2.1,4.9
				c1.4,1.4,3.1,2.1,4.9,2.1h25.6c3.5,0.1,7.1-3.5,7-7V66.4C91.6,64.7,90.9,62.9,89.5,61.5z M86,91.8c0.1,0.4-0.9,1.4-1.4,1.4
				c0,0-25.6,0-25.6,0c-0.4,0.1-1.4-0.9-1.4-1.4c0,0,0-25.4,0-25.4C57.6,66,58.6,65,59,65.1h25.6c0.2,0,0.5,0.2,0.9,0.5
				c0.3,0.3,0.5,0.7,0.5,0.9C86,66.4,86,91.8,86,91.8z"/>
			<path class="st1" d="M33.6,8.4H8c-3.5-0.1-7.1,3.5-7,7v25.6c0,1.7,0.8,3.5,2.1,4.9c1.4,1.4,3.1,2.1,4.9,2.1h25.6
				c3.5,0.1,7.1-3.5,7-7V15.4c0-1.7-0.8-3.5-2.1-4.9C37.2,9.2,35.4,8.4,33.6,8.4z M35,41.1c0.1,0.4-0.9,1.4-1.4,1.3
				c0,0-25.6,0-25.6,0c-0.4,0.1-1.4-0.9-1.4-1.3V15.4C6.6,15,7.6,14,8,14.1h25.6c0.2,0,0.5,0.1,0.9,0.5c0.3,0.3,0.5,0.7,0.5,0.9
				C35,15.4,35,41.1,35,41.1z"/>
		</g>
	</g>
	<path class="st0" d="M73.4,52.3C87.5,52.3,99,40.8,99,26.7c-1.4-34-49.8-34-51.2,0C47.8,41.1,59.3,52.3,73.4,52.3z"/>
	<path class="st2" d="M73.4,46.8c11,0,19.9-8.9,19.9-19.9c-1-26.3-38.7-26.3-39.7,0C53.5,37.9,62.4,46.8,73.4,46.8z"/>
	<path class="st1" d="M74.7,26.9c-0.1,0.7-0.7,1.6-1.6,1.6c-0.8,0-1.5-0.8-1.6-1.6c0,0,0-15.7,0-15.7c0-0.3,0.3-0.8,0.5-1
		c0.9-1.2,2.5-0.1,2.6,1C74.7,11.3,74.7,26.9,74.7,26.9z"/>
	<path class="st1" d="M85.7,34c0,0.3-0.3,0.3-0.3,0.5c-0.3,0-0.3,0.3-0.5,0.3c-0.4,0-0.7,0.1-1-0.3c0,0-11-6.3-11-6.3l-0.8-0.8
		c-0.1-0.9,0.5-1.3,1-1.8c0.3,0,0.8,0,1,0.3l11,6.3c0.3,0,0.3,0.3,0.5,0.3c0,0.3,0.3,0.3,0.3,0.5v0.5C85.7,33.5,85.7,33.7,85.7,34z"
		/>
</g>
</svg>
