<?xml version="1.0" encoding="utf-8"?>
<!-- Generator: Adobe Illustrator 26.0.3, SVG Export Plug-In . SVG Version: 6.00 Build 0)  -->
<svg version="1.1" id="Layer_1" xmlns="http://www.w3.org/2000/svg" xmlns:xlink="http://www.w3.org/1999/xlink" x="0px" y="0px"
	 viewBox="0 0 100 100" style="enable-background:new 0 0 100 100;" xml:space="preserve">
<style type="text/css">
	.st0{fill-rule:evenodd;clip-rule:evenodd;fill:#FF9900;}
</style>
<path class="st0" d="M99,2.9V30c0,0.3,0,0.6-0.3,0.8c-0.3,0.3-0.6,0.6-0.8,0.6c-0.3,0-0.6,0.3-0.8,0s-0.6-0.3-0.8-0.6L86.1,20.8
	L61.5,45.4c-0.6,0.6-1.1,0.8-1.7,1.1c-0.6,0.3-1.1,0.3-2,0.6c-0.6,0-1.4,0-2-0.3s-1.1-0.6-1.7-1.1c-0.6-0.6-0.8-1.1-1.1-1.7
	c-0.3-0.6-0.3-1.4-0.3-2s0.3-1.4,0.6-2c0.3-0.6,0.6-1.1,1.1-1.7l24.6-24.6L69,3.7c-0.3-0.3-0.3-0.6-0.6-0.8V2c0-0.3,0.3-0.6,0.6-0.8
	c0.3-0.3,0.6-0.3,0.8-0.3H97c0.6,0,0.8,0.3,1.1,0.6C99,2,99,2.3,99,2.9z M12.5,17.4c-0.3,0-0.8,0.3-1.1,0.6
	c-0.3,0.3-0.6,0.8-0.6,1.1v49c0,0.8,0.8,1.7,1.7,1.7h13.2c1.4,0,2.5,0.6,3.4,1.4c0.8,0.8,1.4,2.2,1.4,3.4v14.3L48,71.2
	c0.8-0.8,2.2-1.4,3.4-1.4h29.4c0.6,0,0.8-0.3,1.1-0.6c0.3-0.3,0.6-0.8,0.6-1.1V51.9c0-1.4,0.6-2.5,1.4-3.4c0.8-0.8,2.2-1.4,3.4-1.4
	s2.5,0.6,3.4,1.4c0.8,0.8,1.4,2.2,1.4,3.4v16.2c0,3.1-1.1,5.9-3.4,8.1s-5,3.4-8.1,3.4H53.6L36.8,96.4c-1.4,1.4-3.1,2.2-4.8,2.5
	c-2,0.3-3.6,0.3-5.6-0.6c-1.7-0.8-3.4-2-4.2-3.6c-1.1-1.7-1.7-3.4-1.7-5.3V79.3h-8.1c-3.1,0-5.9-1.1-8.1-3.4c-2.2-2.2-3.4-5-3.4-8.1
	V19.1C1,13,6.3,7.6,12.5,7.6h35.8c1.4,0,2.5,0.6,3.4,1.4c0.8,0.8,1.4,2.2,1.4,3.4c0,1.4-0.6,2.5-1.4,3.4c-0.8,0.8-2.2,1.4-3.4,1.4
	H12.5V17.4z"/>
</svg>
