<?xml version="1.0" encoding="utf-8"?>
<!-- Generator: Adobe Illustrator 26.0.3, SVG Export Plug-In . SVG Version: 6.00 Build 0)  -->
<svg version="1.1" id="Layer_1" xmlns="http://www.w3.org/2000/svg" xmlns:xlink="http://www.w3.org/1999/xlink" x="0px" y="0px"
	 viewBox="0 0 100 100" style="enable-background:new 0 0 100 100;" xml:space="preserve">
<style type="text/css">
	.st0{fill:#9901FF;}
	.st1{fill:#FF9900;}
</style>
<g>
	<path class="st0" d="M82.7,11.6H71.6V8c0-1.8-0.8-3.5-2.3-5c-1-1.3-3-2-4.8-2H35.2c-2,0-3.8,0.8-5.3,2c-1.3,1.3-2.3,3-2.3,5v3.5
		H16.8c-2,0-3.8,0.8-5.3,2c-1.3,1.3-2,3.3-2,5V92c0,1.8,0.8,3.5,2.3,5c1.3,1.3,3,2,5,2h66.1c2,0,3.8-0.8,5.3-2c1.3-1.3,2.3-3,2.3-5
		V18.6c0-1.8-0.8-3.5-2.3-5C86.7,12.3,84.7,11.6,82.7,11.6z M35.2,4.3h29.4v9.3H35.2V4.3z M86.7,95.7H13.1V16.3h14.8v1.5h44v-1.5
		h14.8V95.7z"/>
	<path class="st1" d="M49.5,83.9c-3.5,0-6.8-1-9.8-2.8c-3-1.8-5.3-4.3-7-7h-6c-1,0-1.8-0.3-2.3-1c-0.8-0.5-1-1.3-1-2.3
		s0.3-1.8,1-2.3c0.8-0.8,1.5-1,2.3-1h3.5c-0.3-1.3-0.3-2.3-0.3-3.3v-3.3h-3.3c-1,0-1.8-0.3-2.3-1c-0.8-0.5-1-1.3-1-2.3
		s0.3-1.8,1-2.3c0.8-0.5,1.5-1,2.3-1h3.3v-3.8c0-1,0-2,0.3-3h-3.5c-1,0-1.8-0.3-2.3-1c-0.8-0.3-1-1-1-2s0.3-1.8,1-2.3
		c0.8-0.5,1.5-1,2.3-1h5.8c0.8-1.3,1.5-2.5,2.5-3.5s2-2,3.3-2.8l-3-3c-0.5-0.8-1-1.5-0.8-2.3c0-1,0.3-1.8,1-2.3c0.5-0.5,1.3-1,2.3-1
		c1,0,1.8,0.3,2.3,1l4.8,4.8c1.3-0.5,2.8-0.8,4.8-0.8c1.8,0,3.5,0.3,4.8,0.8l5-4.8c0.8-0.5,1.5-1,2.3-0.8c1,0,1.8,0.3,2.3,1
		c0.5,0.5,1,1.3,1,2.3c0,1-0.3,1.8-1,2.3l-3,3c1.3,0.8,2.5,1.8,3.5,2.8c1,1,2,2.3,2.8,3.5h6c1,0,1.8,0.3,2.3,1s1,1.5,1,2.3
		c0,1-0.3,1.8-1,2.3c-0.5,0.8-1.5,1-2.3,1h-3.5c0.3,1.3,0.3,2.3,0.3,3v3.5h3.3c1,0,1.8,0.3,2.3,1c0.5,0.8,1,1.5,1,2.3
		c0,1-0.3,1.8-1,2.3c-0.5,0.8-1.5,1-2.3,1h-3.3v3.3c0,1,0,2-0.3,3.3h3.8c1,0,1.8,0.3,2.3,1c0.5,0.5,1,1.5,1,2.3c0,1-0.3,1.8-1,2.3
		c-0.5,0.8-1.5,1-2.3,1h-5.8c-1.8,3-4,5.3-7,7C56.5,83.2,53,83.9,49.5,83.9z M46.2,67.6h6.5c1,0,1.8-0.3,2.3-1c0.5-0.5,1-1.5,1-2.3
		c0-1-0.3-1.8-1-2.3c-0.8-0.5-1.5-1-2.3-1h-6.5c-1,0-1.8,0.3-2.3,1c-0.5,0.8-1,1.5-1,2.3c0,1,0.3,1.8,1,2.3
		C44.5,67.3,45.2,67.6,46.2,67.6z M46.2,54.5h6.5c1,0,1.8-0.3,2.3-1c0.5-0.5,1-1.5,1-2.3c0-1-0.3-1.8-1-2.3c-0.8-0.5-1.5-1-2.3-1
		h-6.5c-1,0-1.8,0.3-2.3,1s-1,1.5-1,2.3c0,1,0.3,1.8,1,2.3C44.5,54.3,45.2,54.5,46.2,54.5z"/>
</g>
</svg>
