<?xml version="1.0" encoding="utf-8"?>
<!-- Generator: Adobe Illustrator 26.0.3, SVG Export Plug-In . SVG Version: 6.00 Build 0)  -->
<svg version="1.1" id="Layer_1" xmlns="http://www.w3.org/2000/svg" xmlns:xlink="http://www.w3.org/1999/xlink" x="0px" y="0px"
	 viewBox="0 0 100 100" style="enable-background:new 0 0 100 100;" xml:space="preserve">
<style type="text/css">
	.st0{fill:#9901FF;}
	.st1{fill:#FF9900;}
</style>
<g>
	<path class="st0" d="M93,1h-4c-7.1,0-11.8,4.7-11.8,11.8v3.8h-1.9c-2.2,0-4,1.8-4,4s1.8,4,4,4h1.9v11.8c0,2.2,1.8,4,4,4
		c2.2,0,4-1.8,4-4V24.6h3.8c2.2,0,4-1.8,4-4s-1.8-4-4-4h-3.8v-3.8c0-2.6,1.2-3.8,3.8-3.8h4c2.2,0,4-1.8,4-4S95.2,1,93,1z"/>
	<path class="st0" d="M87.9,48c-3.2,0-5.6,2.4-5.6,5.6v29.5c0,3.2-2.4,5.6-5.6,5.6H19.9c-3.2,0-5.6-2.4-5.6-5.6V25.4
		c0-3.2,2.4-5.6,5.6-5.6h28.5c3.2,0,5.6-2.4,5.6-5.6c0-3.2-2.4-5.6-5.6-5.6H14.3C8.1,8.5,3,13.6,3,19.8v67.9C3,93.9,8.1,99,14.3,99
		h67.9c6.2,0,11.3-5.1,11.3-11.3V53.6C93.5,50.7,91.1,48,87.9,48z"/>
	<path class="st1" d="M65,31.1H31.2c-3.2,0-5.6,2.4-5.6,5.6s2.4,5.6,5.6,5.6h34.1c3.2,0,5.6-2.4,5.6-5.6S68.3,31.1,65,31.1z M65,48
		H31.2c-3.2,0-5.6,2.4-5.6,5.6s2.4,5.6,5.6,5.6h34.1c3.2,0,5.6-2.4,5.6-5.6S68.3,48,65,48z M65,65.2H31.2c-3.2,0-5.6,2.4-5.6,5.6
		c0,3.2,2.4,5.6,5.6,5.6h34.1c3.2,0,5.6-2.4,5.6-5.6C70.9,67.6,68.3,65.2,65,65.2z"/>
</g>
</svg>
