<?xml version="1.0" encoding="utf-8"?>
<!-- Generator: Adobe Illustrator 26.0.3, SVG Export Plug-In . SVG Version: 6.00 Build 0)  -->
<svg version="1.1" id="Layer_1" xmlns="http://www.w3.org/2000/svg" xmlns:xlink="http://www.w3.org/1999/xlink" x="0px" y="0px"
	 viewBox="0 0 100 100" style="enable-background:new 0 0 100 100;" xml:space="preserve">
<style type="text/css">
	.st0{fill:#FF9900;}
	.st1{fill:#9901FF;}
	.st2{fill:#FFFFFF;}
</style>
<g>
	<g>
		<path class="st0" d="M86.8,3.5H13.2c-5.3,0-9.7,4.4-9.7,9.7v73.6c0,5.3,4.4,9.7,9.7,9.7h73.6c5.3,0,9.7-4.4,9.7-9.7V13.2
			C96.5,7.9,92.1,3.5,86.8,3.5z"/>
		<path class="st1" d="M86.8,99H13.2C6.5,99,1,93.5,1,86.8V13.2C1,6.5,6.5,1,13.2,1h73.6C93.5,1,99,6.5,99,13.2v73.6
			C99,93.5,93.5,99,86.8,99z M13.2,5.9c-3.9,0-7.3,3.3-7.3,7.3v73.6c0,3.9,3.3,7.3,7.3,7.3h73.6c3.9,0,7.3-3.3,7.3-7.3V13.2
			c0-3.9-3.3-7.3-7.3-7.3H13.2z"/>
	</g>
	<path class="st2" d="M84.8,50.3c0-4.4-3.5-6.5-8.2-6.5H62.7c0.9-3.8,1.5-7.1,1.5-10.3c0-11.8-3.2-14.4-6.2-14.4
		c-1.8,0-3.2,0.3-5,1.2c-0.6,0.3-0.9,0.9-0.9,1.5L50,32.9c-2.4,5.6-7.7,10.9-12.4,14.4v29.2c1.8,0,3.2,0.9,5.3,1.8
		c2.4,0.9,4.4,2.4,7.1,2.4h19.4c4.1,0,7.1-3.2,7.1-6.2c0-0.6,0-0.9-0.3-1.5c2.4-0.9,4.4-2.9,4.4-5.6c0-1.2-0.3-2.4-0.6-3.2
		c1.8-0.9,2.9-2.9,2.9-5c0-1.2-0.6-2.4-1.2-3.5C83.6,54.4,84.8,52.4,84.8,50.3z M80.3,50.3c0,2.7-2.7,2.9-2.9,4.1
		c-0.3,1.5,1.8,1.8,1.8,4.4c0,2.4-2.9,2.4-3.5,3.8c-0.6,1.8,0.9,2.1,0.9,4.4v0.6c-0.3,2.1-3.5,2.4-4.1,2.9c-0.6,0.9,0,1.5,0,3.5
		c0,1.2-1.5,2.1-2.9,2.1H50c-1.8,0-3.2-0.9-5.3-1.8c-1.8-0.9-3.2-1.8-5-2.1V50.9c5-3.8,11.8-9.7,14.1-16.8v-0.3l1.8-10.3h2.7
		c0.3,0,2.1,2.4,2.1,10.3c0,2.9-0.6,6.5-1.8,10.3h-0.3c-1.2,0-2.1,0.9-2.1,2.1s0.9,2.1,2.1,2.1h18.3C78.6,47.9,80.3,49.1,80.3,50.3z
		"/>
	<path class="st2" d="M35.6,80.6H23.5c-2.4,0-4.1-1.8-4.1-4.1V47.9c0-2.4,1.8-4.1,4.1-4.1h12.4c2.4,0,4.1,1.8,4.1,4.1v28.6
		C39.7,78.9,37.9,80.6,35.6,80.6z M23.5,47.9v28.6h12.4V47.9H23.5z"/>
</g>
</svg>
