<?xml version="1.0" encoding="utf-8"?>
<!-- Generator: Adobe Illustrator 26.0.3, SVG Export Plug-In . SVG Version: 6.00 Build 0)  -->
<svg version="1.1" id="Layer_1" xmlns="http://www.w3.org/2000/svg" xmlns:xlink="http://www.w3.org/1999/xlink" x="0px" y="0px"
	 viewBox="0 0 100 100" style="enable-background:new 0 0 100 100;" xml:space="preserve">
<style type="text/css">
	.st0{fill:#FF9900;}
	.st1{fill-rule:evenodd;clip-rule:evenodd;fill:#9901FF;}
</style>
<g>
	<path class="st0" d="M71.9,28.8c8.8,4.1,18.3-2.4,18.3-11.5c0-6.8-5.6-12.7-12.7-12.7c-7.7,0-13.6,6.5-12.7,14.1
		C65.4,23.2,68.1,26.7,71.9,28.8z M12.4,58C23,68.9,38,58.8,34.8,46.5c-0.9-3.2-2.9-5.9-5.9-7.7C17.1,32.6,4.1,45.3,12.4,58z
		 M71.9,71.2c8.8-4.1,18.3,2.4,18.3,11.5c0,6.8-5.6,12.7-12.7,12.7c-7.7,0-13.6-6.5-12.7-14.1C65.4,76.8,68.1,73.3,71.9,71.2z"/>
	<path class="st1" d="M61.3,19.2C60.1,9.3,67.7,1,77.5,1c9.1,0,16.3,7.6,16.3,16.3c0,11.7-12.1,20-23.4,14.8c-0.1,0-0.1-0.1-0.2-0.1
		c-1.9-1-3.5-2.3-4.9-3.9L37.9,44.3c0.1,0.4,0.3,0.8,0.4,1.3l0,0c0.9,3.5,0.7,6.8-0.3,9.7l27.4,16.6c1.4-1.5,3-2.8,4.9-3.8
		c0.1,0,0.1-0.1,0.2-0.1c11.3-5.3,23.4,3.1,23.4,14.8c0,8.7-7.2,16.3-16.3,16.3c-9.8,0-17.4-8.3-16.3-18.2l0-0.1
		c0.1-0.9,0.3-1.7,0.5-2.6L34.1,61.4c-1,1.1-2.2,2-3.5,2.7c-6.1,3.5-14.3,3-20.8-3.6c-0.2-0.2-0.3-0.4-0.4-0.5
		c-5-7.7-3.7-15.9,1.1-21.1c4.7-5.1,12.7-7.1,20.1-3.2c0.1,0,0.1,0.1,0.2,0.1c1.2,0.7,2.3,1.5,3.2,2.5l27.8-16.4
		C61.6,21,61.4,20.1,61.3,19.2L61.3,19.2z M68.4,18.3c0.4,3.1,2.3,5.7,5.1,7.2c6.4,2.9,13-1.7,13-8.3c0-4.8-4-9.1-9.1-9.1
		C72,8.2,67.8,12.8,68.4,18.3z M15.2,55.7c-3-4.8-2-9.2,0.5-11.9c2.6-2.8,7-4,11.3-1.8c2.1,1.3,3.6,3.2,4.2,5.4
		c1.2,4.5-0.9,8.5-4.3,10.4C23.8,59.6,19.3,59.7,15.2,55.7z M73.6,74.4c-2.8,1.6-4.7,4.1-5.1,7.2c-0.6,5.5,3.6,10.1,9.1,10.1
		c5,0,9.1-4.2,9.1-9.1C86.6,76.2,79.9,71.6,73.6,74.4z"/>
</g>
</svg>
