<?xml version="1.0" encoding="utf-8"?>
<!-- Generator: Adobe Illustrator 26.0.3, SVG Export Plug-In . SVG Version: 6.00 Build 0)  -->
<svg version="1.1" id="Layer_1" xmlns="http://www.w3.org/2000/svg" xmlns:xlink="http://www.w3.org/1999/xlink" x="0px" y="0px"
	 viewBox="0 0 100 100" style="enable-background:new 0 0 100 100;" xml:space="preserve">
<style type="text/css">
	.st0{fill:#FF0000;}
	.st1{fill:#FFFFFF;}
</style>
<g>
	<path class="st0" d="M96.8,26.5c-0.7-2.2-1.7-3.9-3.3-5.4c-1.5-1.5-3.5-2.6-5.4-3.3C80.5,15.6,50,15.6,50,15.6s-30.6,0-38.2,2.2
		c-2.2,0.7-3.9,1.7-5.4,3.3c-1.5,1.5-2.6,3.5-3.3,5.4c-2.4,13.4-3.3,34,0,47.1c0.7,2.2,1.7,3.9,3.3,5.4c1.5,1.5,3.5,2.6,5.4,3.3
		c7.6,2.2,38.2,2.2,38.2,2.2s30.6,0,38.2-2.2c2.2-0.7,3.9-1.7,5.4-3.3c1.5-1.5,2.6-3.5,3.3-5.4C99.4,59.9,100.1,39.5,96.8,26.5z"/>
	<path class="st1" d="M38.7,60.5c0,3.3,3.5,5.2,6.3,3.7l18.4-10.8c2.8-1.5,2.8-5.6,0-7.4L45,35.1c-2.8-1.7-6.3,0.4-6.3,3.7
		C38.7,38.8,38.7,60.5,38.7,60.5z"/>
	<path class="st1" d="M89.9,27.4h-3.1v-3.1c0-1.2-0.9-2.1-2.1-2.1s-2.1,0.9-2.1,2.1v3.1h-3.1c-1.2,0-2.1,0.9-2.1,2.1
		c0,1.2,0.9,2.1,2.1,2.1h3.1v3.1c0,1.2,0.9,2.1,2.1,2.1s2.1-0.9,2.1-2.1v-3.1h3.1c1.2,0,2.1-0.9,2.1-2.1C92,28.3,91,27.4,89.9,27.4z
		"/>
</g>
</svg>
