<svg xmlns="http://www.w3.org/2000/svg" fill-rule="evenodd" viewBox="0 0 360 360"><path fill="#90f" d="M46 57.6a541.9 541.9 0 0 0 133.9-29 542 542 0 0 0 134 29c2.9 127.5-41.8 218.8-134 273.9C87.8 276.4 43 185 45.9 57.6z"/><path fill="#fff" d="M193 128.8a13 13 0 0 0-12.9-13.2c-3.6 0-6.7 1.3-9.3 3.9-2.6 2.5-3.9 5.6-3.9 9.3s1.3 6.6 3.9 9a9.9 9.9 0 0 0 4 2.8l-9.9 24.1h29.3l-9.7-23.8c1.8-.6 3.3-1.6 4.7-3 2.5-2.5 3.8-5.5 3.8-9.1zm10.7 59.1h-48.5l-17.1 41.4h-30.7l72.3-162.6 72.9 162.6h-31.7l-17.2-41.4z"/></svg>