<svg xmlns="http://www.w3.org/2000/svg" viewBox="0 0 280 360" xml:space="preserve"><path d="M199.3 158.2h-42.7c-5.5 0-10 4.5-10 10v36.3c0 4.6 3.2 8.5 7.4 9.7v118.5c0 5.5 4.5 10 10 10h35.2c5.5 0 10-4.5 10-10V168.2c.1-5.5-4.4-10-9.9-10zm-84.3-.4H81.4c.9-2.8 1.9-5.6 3.2-8.2 6.6-14.7 16.1-26.9 28.8-37.4.8-.6 1.4-1.1 2-1.6 2.1-1.8 3.4-4.4 3.6-7.2.1-2.8-.9-5.5-2.9-7.5L90.3 69.8c-3.6-3.7-9.5-4-13.5-.7-27.6 22.8-46.3 54-53.7 88.7h.1c-1.4 7.9-2.3 16-2.5 24.2-.1.6-.2 1.2-.2 1.9v148.7c0 2.6 1 5.2 2.9 7.1s4.6 3 7.3 3h36.8c4.6 0 8.6-3.1 9.7-7.6.4-1.5.4-2.9.4-3.6V214H115c5.5 0 10-4.5 10-10v-36.2c0-5.5-4.5-10-10-10z" fill="#90f"/><path d="M254.6 49.2c-8.3-8-17.3-14.4-26.9-19.3C213 22 196.9 17.5 180.4 17c-21.7-.9-43.1 4.7-61.9 16.2-7.6 4.5-14.8 10-21.4 16.5-6 5.9-5.9 12.1 0 18l69.8 69.8c6.2 6.3 12.2 6.3 18.5-.1 23.2-23.3 46.4-46.4 69.5-69.6 6.2-6.3 6.2-12.4-.3-18.6z" fill="#f30"/></svg>