<svg xmlns="http://www.w3.org/2000/svg" id="Layer_1" x="0" y="0" version="1.1" viewBox="0 0 280 360" xml:space="preserve">
  <defs/>
  <style>
    .st0{fill:#9900ff}
  </style>
  <path d="M197.3 157.9h-42.7c-5.5 0-10 4.5-10 10v36.3c0 4.6 3.2 8.5 7.4 9.7v118.5c0 5.5 4.5 10 10 10h35.2c5.5 0 10-4.5 10-10V167.9c.1-5.5-4.4-10-9.9-10zM114 158H80c1.1-4.6 2.6-9 4.6-13.3 6.6-14.7 16.1-26.9 28.8-37.4.8-.6 1.4-1.1 2-1.6 2.1-1.8 3.4-4.4 3.6-7.2.1-2.8-.9-5.5-2.9-7.5L90.3 64.9c-3.6-3.7-9.5-4-13.5-.7-35.2 29-55.9 71.8-57.1 118-.1.6-.2 1.2-.2 1.9v148.7c0 2.6 1 5.2 2.9 7.1s4.6 3 7.3 3h36.8c4.6 0 8.6-3.1 9.7-7.6.4-1.5.4-2.9.4-3.6V214.2H114c5.5 0 10-4.5 10-10V168c0-5.5-4.5-10-10-10z" class="st0"/>
  <path fill="#FF3300" d="M254.6 51.1c-8.3-8-17.3-14.4-26.9-19.3-14.7-7.9-30.8-12.4-47.3-12.9-21.7-.9-43.1 4.7-61.9 16.2-7.6 4.5-14.8 10-21.4 16.5-6 5.9-5.9 12.1 0 18l69.8 69.8c6.2 6.3 12.2 6.3 18.5-.1 23.2-23.3 46.4-46.4 69.5-69.6 6.2-6.3 6.2-12.4-.3-18.6z"/>
</svg>
