<svg xmlns="http://www.w3.org/2000/svg" xml:space="preserve" id="Layer_1" x="0" y="0" version="1.1" viewBox="0 0 1099.1 391.8"><style>.st0{fill:#90f}.st1{fill:#f30}</style><path d="M1041.9 65.6v18.3h3.8v64.6h17.8V65.6zm-19.3 0v18.3h-23.9v64.9h-18.6v-29.4c0-.2 0-.3-.1-.5V88.3c0-.2.1-.3.1-.5V74.2c.1-22.1 10-43 27-57.1l13 13.1-.8.7a57.55 57.55 0 0 0-16.1 20.8c-1.4 3.1-2.4 6.4-3.1 9.7-.2 1.2-.3 2.4-.5 3.7v.5h23z" class="st0"/><path d="M1099.1 14.9c-.1.1-.2.2-.4.3l-12.4 12.4c-.1.1-.2.3-.3.4l-.5-.3c-4.9-3.3-10.3-5.8-16-7.5a51.47 51.47 0 0 0-17-1.9 61.73 61.73 0 0 0-29.1 9.5l-13.2-13.2c.5-.3 1-.7 1.5-1.1 7.8-5.5 16.5-9.4 25.8-11.5 2.7-.7 5.4-1.1 8.1-1.4 2.2-.2 4.5-.3 6.8-.5.1 0 .2 0 .3-.1h4.1c.2 0 .4.1.6.1a75.25 75.25 0 0 1 22.4 4.2c6.7 2.4 13 5.8 18.7 10 .2.1.4.2.6.4v.2z" class="st1"/><path d="m1036.5 40.9-6.2-6.2a35.73 35.73 0 0 1 48.9 0l-6.2 6.2a27.36 27.36 0 0 0-36.5 0zm17.9.9c4.1 0 8 1.5 10.9 4.3.9.8.9 1.6 0 2.5l-9.3 9.3c-.4.7-1.4.9-2.1.4-.2-.1-.3-.3-.4-.4l-9.4-9.4c-.7-.5-.8-1.4-.3-2.1l.3-.3c2.2-2.3 5.2-3.7 8.3-4.1.8-.1 1.6-.2 2-.2z" class="st1"/><linearGradient id="SVGID_1_" x1="542.29" x2="967.71" y1="228.3" y2="228.3" gradientUnits="userSpaceOnUse"><stop offset="0" stop-color="#fcfc08"/><stop offset=".08" stop-color="#fcf908"/><stop offset=".13" stop-color="#fbf00a"/><stop offset=".18" stop-color="#f9e00c"/><stop offset=".22" stop-color="#f7cb0f"/><stop offset=".26" stop-color="#f5b412"/><stop offset=".35" stop-color="#f4ae13"/><stop offset=".47" stop-color="#f39c15"/><stop offset=".58" stop-color="#f18618"/><stop offset=".64" stop-color="#f07b19"/><stop offset=".74" stop-color="#ed5c1d"/><stop offset=".78" stop-color="#f30"/></linearGradient><path fill="url(#SVGID_1_)" d="M639 388.8h42l93-106 17 36 91 1-47-110 124-142h-38z"/><linearGradient id="SVGID_2_" x1="489.66" x2="1240.91" y1="666.4" y2="666.4" gradientTransform="translate(-123.3 -438.1)" gradientUnits="userSpaceOnUse"><stop offset="0" stop-color="#fcfc08"/><stop offset=".21" stop-color="#f7c90f"/><stop offset=".49" stop-color="#f5b312"/><stop offset=".72" stop-color="#f30"/></linearGradient><path fill="url(#SVGID_2_)" d="M692 94.8h94l18 43 61-70h38l-277 321h-37l154-180z"/><linearGradient id="SVGID_3_" x1="607.41" x2="753.57" y1="-218.43" y2="-281.07" gradientTransform="matrix(.9994 .03528 .03528 -.9994 -124.6 115.37)" gradientUnits="userSpaceOnUse"><stop offset="0" stop-color="#fcfc08"/><stop offset=".23" stop-color="#fcf908"/><stop offset=".39" stop-color="#fbf00a"/><stop offset=".52" stop-color="#fae10c"/><stop offset=".64" stop-color="#f8cc0e"/><stop offset=".75" stop-color="#f5b012"/><stop offset=".85" stop-color="#f28e17"/><stop offset=".95" stop-color="#ee671c"/><stop offset="1" stop-color="#f30"/></linearGradient><path fill="url(#SVGID_3_)" d="m424.1 372.8 172.2-2-14.7 17.5z" opacity=".73"/><linearGradient id="SVGID_4_" x1="533.55" x2="691.8" y1="70.91" y2="86.53" gradientTransform="matrix(.9993 .03656 .03656 -.9993 -13.07 379.4)" gradientUnits="userSpaceOnUse"><stop offset="0" stop-color="#fcf908"/><stop offset=".23" stop-color="#fcf608"/><stop offset=".39" stop-color="#fbed0a"/><stop offset=".52" stop-color="#f9de0c"/><stop offset=".64" stop-color="#f7c90f"/><stop offset=".75" stop-color="#f5ad12"/><stop offset=".86" stop-color="#f28b17"/><stop offset=".96" stop-color="#ee641c"/><stop offset="1" stop-color="#f30"/></linearGradient><path fill="url(#SVGID_4_)" d="m470.4 318.5 157.5 15.8 14.7-17.5z" opacity=".73"/><linearGradient id="SVGID_5_" x1="372.6" x2="1280.31" y1="888.14" y2="430.43" gradientTransform="translate(-123.3 -438.1)" gradientUnits="userSpaceOnUse"><stop offset=".36" stop-color="#fcfc08"/><stop offset=".82" stop-color="#f30"/></linearGradient><path fill="url(#SVGID_5_)" d="m678.7 275 14.9-17.1-159 6.8v1z"/><linearGradient id="SVGID_6_" x1="541.5" x2="888.89" y1="212.05" y2="212.05" gradientUnits="userSpaceOnUse"><stop offset=".28" stop-color="#fcfc08"/><stop offset="1" stop-color="#f30"/></linearGradient><path fill="url(#SVGID_6_)" d="m541.5 208.3 190.5-6.5 3 6.5-10.8 14z"/><linearGradient id="SVGID_7_" x1="328.33" x2="1236.04" y1="814.16" y2="356.45" gradientTransform="translate(-123.3 -438.1)" gradientUnits="userSpaceOnUse"><stop offset=".43" stop-color="#fcfc08"/><stop offset=".79" stop-color="#f30"/></linearGradient><path fill="url(#SVGID_7_)" d="m540.5 156 169.2-7.2 8.3 19.5z"/><linearGradient id="SVGID_8_" x1="307.14" x2="1214.85" y1="760.24" y2="302.52" gradientTransform="translate(-123.3 -438.1)" gradientUnits="userSpaceOnUse"><stop offset=".4" stop-color="#fcfc08"/><stop offset=".82" stop-color="#f30"/></linearGradient><path fill="url(#SVGID_8_)" d="m692.9 112.9-8-18-160 7.8"/><path d="M462 376.8h38l49-274h-38zm-51-274H269l-5 34h39l-40 33-36 207h136l41-34 35-207-28-33zm-46 239h-64l-34 29 40-234h94l-36 205zm-194-132h-23l26-25 8-47-29-34H43l-6 33 37 2-38 32-36 206h135l43-37 17-100-24-30zm-33 132H45l36-205h63l-12 73H98l-33 30h90l-17 102z" class="st0"/></svg>