<svg xmlns="http://www.w3.org/2000/svg" xml:space="preserve" viewBox="0 0 1099.1 391.8"><linearGradient id="a" x1="543.26" x2="912" y1="909.8" y2="909.8" gradientTransform="translate(0 -686)" gradientUnits="userSpaceOnUse"><stop offset="0" stop-color="#fcfc08"/><stop offset=".08" stop-color="#fcf908"/><stop offset=".13" stop-color="#fbf00a"/><stop offset=".18" stop-color="#f9e00c"/><stop offset=".22" stop-color="#f7cb0f"/><stop offset=".26" stop-color="#f5b412"/><stop offset=".35" stop-color="#f4ae13"/><stop offset=".47" stop-color="#f39c15"/><stop offset=".58" stop-color="#f18618"/><stop offset=".64" stop-color="#f07b19"/><stop offset=".74" stop-color="#ed5c1d"/><stop offset=".78" stop-color="#f30"/></linearGradient><path fill="url(#a)" d="M627.1 362.9h36.4l80.6-91.9 14.7 31.2 78.9.9-40.7-95.4 107.4-123h-32.9L627.1 362.9z"/><linearGradient id="b" x1="514.07" x2="1165.23" y1="1347.9" y2="1347.9" gradientTransform="translate(-123.3 -1124.1)" gradientUnits="userSpaceOnUse"><stop offset="0" stop-color="#fcfc08"/><stop offset=".21" stop-color="#f7c90f"/><stop offset=".49" stop-color="#f5b312"/><stop offset=".72" stop-color="#f30"/></linearGradient><path fill="url(#b)" d="M673 108.1h81.5l15.6 37.3L823 84.7h32.9L615.8 362.9h-32.1l133.5-156-44.2-98.8z"/><linearGradient id="c" x1="640.29" x2="766.98" y1="-853.36" y2="-907.66" gradientTransform="matrix(.9994 .03528 .03528 -.9994 -125.09 -541.77)" gradientUnits="userSpaceOnUse"><stop offset="0" stop-color="#fcfc08"/><stop offset=".23" stop-color="#fcf908"/><stop offset=".39" stop-color="#fbf00a"/><stop offset=".52" stop-color="#fae10c"/><stop offset=".64" stop-color="#f8cc0e"/><stop offset=".75" stop-color="#f5b012"/><stop offset=".85" stop-color="#f28e17"/><stop offset=".95" stop-color="#ee671c"/><stop offset="1" stop-color="#f30"/></linearGradient><path fill="url(#c)" d="m440.8 349 149.3-1.7-12.7 15.2L440.8 349z" opacity=".73"/><linearGradient id="d" x1="561.04" x2="698.2" y1="-566.85" y2="-553.31" gradientTransform="matrix(.9993 .03656 .03656 -.9993 -13.64 -276.7)" gradientUnits="userSpaceOnUse"><stop offset="0" stop-color="#fcf908"/><stop offset=".23" stop-color="#fcf608"/><stop offset=".39" stop-color="#fbed0a"/><stop offset=".52" stop-color="#f9de0c"/><stop offset=".64" stop-color="#f7c90f"/><stop offset=".75" stop-color="#f5ad12"/><stop offset=".86" stop-color="#f28b17"/><stop offset=".96" stop-color="#ee641c"/><stop offset="1" stop-color="#f30"/></linearGradient><path fill="url(#d)" d="m480.9 302 136.5 13.7 12.7-15.2-149.2 1.5z" opacity=".73"/><linearGradient id="e" x1="412.63" x2="1199.4" y1="1540.13" y2="1143.4" gradientTransform="translate(-123.3 -1124.1)" gradientUnits="userSpaceOnUse"><stop offset=".36" stop-color="#fcfc08"/><stop offset=".82" stop-color="#f30"/></linearGradient><path fill="url(#e)" d="m661.5 264.3 12.9-14.8-137.8 5.9v.9l124.9 8z"/><linearGradient id="f" x1="542.6" x2="843.71" y1="895.65" y2="895.65" gradientTransform="translate(0 -686)" gradientUnits="userSpaceOnUse"><stop offset=".28" stop-color="#fcfc08"/><stop offset="1" stop-color="#f30"/></linearGradient><path fill="url(#f)" d="m542.6 206.4 165.1-5.6 2.6 5.6-9.4 12.1-158.3-12.1z"/><linearGradient id="g" x1="374.24" x2="1161.01" y1="1475.97" y2="1079.24" gradientTransform="translate(-123.3 -1124.1)" gradientUnits="userSpaceOnUse"><stop offset=".43" stop-color="#fcfc08"/><stop offset=".79" stop-color="#f30"/></linearGradient><path fill="url(#g)" d="m541.7 161.1 146.7-6.2 7.2 16.9-153.9-10.7z"/><linearGradient id="h" x1="355.89" x2="1142.67" y1="1429.27" y2="1032.54" gradientTransform="translate(-123.3 -1124.1)" gradientUnits="userSpaceOnUse"><stop offset=".41" stop-color="#fcfc08"/><stop offset=".82" stop-color="#f30"/></linearGradient><path fill="url(#h)" d="m673.8 123.8-6.9-15.6-138.7 6.8"/><path fill="#90f" d="M473.7 352.5h32.9L549.1 115h-32.9l-42.5 237.5zM429.5 115H306.4l-4.3 29.5h33.8l-34.7 28.6L270 352.5h117.9l35.5-29.5 30.3-179.4-24.2-28.6zm-39.9 207.2h-55.5l-29.5 25.1 34.7-202.8h81.5l-31.2 177.7zM221.4 207.7h-19.9L224 186l6.9-40.7-25.1-29.5h-95.3l-5.2 28.6 32.1 1.7-32.9 27.7-31.3 178.7h117l37.3-32.1 14.7-86.7-20.8-26zm-28.6 114.5h-80.6l31.2-177.7H198l-10.4 63.3h-29.5l-28.6 26h78l-14.7 88.4zM999 85h-20a4.7 4.7 0 0 0-4.7 4.7v16.9c0 2.1 1.5 4 3.5 4.5v55.3c0 2.6 2.1 4.7 4.7 4.7h16.4c2.6 0 4.7-2.1 4.7-4.7V89.6c0-2.5-2.1-4.6-4.6-4.6zm-39.4-.2H944c.4-1.3.9-2.6 1.5-3.8a46.6 46.6 0 0 1 13.4-17.4c.4-.3.7-.5.9-.7a4.6 4.6 0 0 0 .3-6.9l-12-12.2a4.63 4.63 0 0 0-6.3-.3 73.46 73.46 0 0 0-25.1 41.4 71 71 0 0 0-1.2 11.3c0 .3-.1.6-.1.9v69.4a4.76 4.76 0 0 0 4.8 4.7h17.2c2.1 0 4-1.4 4.5-3.5.2-.7.2-1.4.2-1.7v-54.8h17.4c2.6 0 4.7-2.1 4.7-4.7v-17c.1-2.6-2-4.7-4.6-4.7z"/><path fill="#f30" d="M1024.8 34.1c-3.9-3.7-8.1-6.7-12.6-9a49.4 49.4 0 0 0-22.1-6c-10.1-.4-20.1 2.2-28.9 7.6-3.5 2.1-6.9 4.7-10 7.7-2.8 2.8-2.8 5.6 0 8.4l32.6 32.6c2.9 2.9 5.7 2.9 8.6 0 10.8-10.9 21.6-21.6 32.4-32.5 3-3 3-5.9 0-8.8z"/></svg>