<svg xmlns="http://www.w3.org/2000/svg" xml:space="preserve" id="Layer_1" x="0" y="0" version="1.1" viewBox="0 0 1844 200"><style>.st0{fill:#f1e672}.st1{fill:#ffee85}.st2{fill:#ffe773}.st3{fill:#fdd748}.st4{fill:#f9d21f}.st5{fill:#fff}</style><path d="M1844 0H0v199h1844V0z" class="st0"/><path d="M1047.3 199h75.9c-4-22-6.1-44.6-6.1-67.7 0-46.2 8.4-90.4 23.7-131.3H1062c-12.9 41.5-19.9 85.6-19.9 131.3 0 23 1.8 45.6 5.2 67.7z" class="st1"/><path d="M1221.4 0h-80.6c-15.3 40.9-23.7 85.2-23.7 131.3 0 23.1 2.1 45.8 6.1 67.7h76c-4.9-21.8-7.6-44.4-7.6-67.7.1-47 10.8-91.5 29.8-131.3zm554.8 0c19.1 39.8 29.7 84.3 29.7 131.3 0 23.3-2.6 45.9-7.6 67.7h45.7V0h-67.8z" class="st2"/><path d="M1300.1 0h-78.7c-19.1 39.8-29.7 84.3-29.7 131.3 0 23.3 2.6 45.9 7.6 67.7h70.7c-6.4-21.5-9.9-44.2-9.9-67.7 0-48.6 14.7-93.8 40-131.3zm476.1 0h-81.4c25.3 37.5 40 82.7 40 131.3 0 23.5-3.5 46.3-9.9 67.7h73.5c4.9-21.8 7.6-44.4 7.6-67.7-.1-47-10.8-91.5-29.8-131.3z" class="st3"/><path d="M1694.7 0h-394.6c-25.3 37.5-40 82.7-40 131.3 0 23.5 3.5 46.3 9.9 67.7h454.9c6.4-21.5 9.9-44.2 9.9-67.7 0-48.6-14.8-93.8-40.1-131.3z" class="st4"/><path d="m947.3 48.7 4.4 8 8.1 4.4-8.1 4.4-4.4 8.1-4.4-8.1-8.1-4.4 8.1-4.4 4.4-8zm-227.8 5.2 5 9 9 5-9 4.9-5 9.1-4.9-9.1-9.1-4.9 9.1-5 4.9-9zm453.6-52.5 5.1 9.3 9.2 5-9.2 5.1-5.1 9.3-5.1-9.3-9.3-5.1 9.3-5 5.1-9.3zm58 39.9 2.8 5.2 5.2 2.8-5.2 2.8-2.8 5.2-2.9-5.2-5.1-2.8 5.1-2.8 2.9-5.2zM1303.8 1l4.9 8.9 8.9 4.9-8.9 4.9-4.9 9-4.9-9-8.9-4.9 8.9-4.9 4.9-8.9zm49.6 14.2 2.8 4.9 4.9 2.8-4.9 2.7-2.8 5-2.7-5-5-2.7 5-2.8 2.7-4.9zM1300.6 191l1.6 2.9 2.9 1.6-2.9 1.6-1.6 2.9-1.6-2.9-2.9-1.6 2.9-1.6 1.6-2.9zM384 163.9l5.9 10.7 10.8 5.9-10.8 6-5.9 10.7-6-10.7-10.8-6 10.8-5.9 6-10.7zM856.5 42.4l2.8 5.2 5.1 2.8-5.1 2.8-2.8 5.1-2.9-5.1-5.1-2.8 5.1-2.8 2.9-5.2z" class="st5"/></svg>