<svg xmlns="http://www.w3.org/2000/svg" xmlns:xlink="http://www.w3.org/1999/xlink" xml:space="preserve" id="Layer_1" x="0" y="0" version="1.1" viewBox="0 0 1844 200"><style>.st0{fill:#ffffd7}</style><path d="M1843.9.1H-.1v200h1844V.1z" class="st0"/><defs><path id="SVGID_1_" d="M-.1.1h1844v200H-.1z"/></defs><clipPath id="SVGID_00000049913586122306692700000003506152493342281655_"><use xlink:href="#SVGID_1_" overflow="visible"/></clipPath><path fill="#fff1a8" d="m331.2 266.9 226.3-85.2 226.3 85.2 124-47.1v1.1l105.2-39.2 226.4 85.2 226.3-85.2 226.3 85.2 151.7-57.6c-.2-18.2-.5-36.4-.7-54.6l-147 55.6-230.3-85-226.3 85.2-226.3-85.2-78.3 29.7v-.3l-147 55.6-230.3-85-226.3 85.2-226.4-85.2L.2 164.9c-.3 18.6-.5 37.3-.5 55.9l105.2-39.2 226.3 85.3zm0-95.8 226.3-85.2 226.3 85.2 125.3-47.6v1.1L1013 85.7l226.4 85.2 226.3-85.2 226.3 85.2 150.5-57.2c-.2-18.2-.3-36.5-.4-54.7L1696 114.3l-230.3-84.9-226.3 85.2-226.3-85.2-79.1 30v-.3l-146 55.3-230.4-85-226.3 85.2-226.5-85.2-102.5 39c-.5 18.7-.9 37.4-1.3 56.2l103.9-38.8 226.3 85.3zm0-95.9L557.5-10 784 75.2l127.7-48.5v1.1l101.5-37.9 226.4 85.3L1465.8-10l226.3 85.2 150-57c0-18.3 0-36.6.2-54.9l-146.2 55.3-230.4-85-226.3 85.2-226.3-85.2-79.1 30v-.3L787.8 18.7 557.5-66.4 331.2 18.9 104.8-66.4 5.2-28.5C4.6-9.6 4 9.2 3.5 27.8L105-10.1l226.2 85.3z" clip-path="url(#SVGID_00000049913586122306692700000003506152493342281655_)"/></svg>