<svg xmlns="http://www.w3.org/2000/svg" xmlns:xlink="http://www.w3.org/1999/xlink" xml:space="preserve" id="mid" x="0" y="0" version="1.1" viewBox="0 0 1844 200"><style>.st2{fill:#f4f4f4}</style><defs><path id="SVGID_00000140732247269774960300000003389268297189582483_" d="M0 0h1844v200H0z"/></defs><clipPath id="SVGID_00000118376567276571217970000015976301440740560524_"><use xlink:href="#SVGID_00000140732247269774960300000003389268297189582483_" overflow="visible"/></clipPath><path id="SVGID_1_" fill="#e8e8e8" d="M0 0h1844v200H0z" clip-path="url(#SVGID_00000118376567276571217970000015976301440740560524_)"/><g clip-path="url(#SVGID_00000118376567276571217970000015976301440740560524_)"><path d="M1652.2-58.7c-76.8 21.6-166.5 77.2-269.2 13.1v-.3c-50.9-35-114.8-41-191.7-12.8-76.8 21.6-166.5 77.2-269.2 13.1v-.3c-50.9-35-114.8-41-191.7-12.8-76.7 21.5-166.5 77.2-269.1 13v-.3c-50.9-35-114.8-41-191.7-12.8C192.9-37.1 103 18.7.1-46v42.5C93 78.2 177.9 17.7 254.8-14.2 331.5-51.6 400.2-60.6 460.9-4v.5c92.9 81.7 177.8 21.2 254.7-10.7C792.3-51.6 861-60.6 921.7-4v.5c92.9 81.7 177.8 21.2 254.7-10.7 76.7-37.4 145.4-46.4 206.2 10.3v.5c92.9 81.7 177.8 21.2 254.7-10.7 76.9-37.5 145.8-46.5 206.7 10.7v-42.5C1793-81 1729.1-87 1652.2-58.7z" class="st2"/><path d="M1621.6 32.8c-76.7 40-156.3 91.6-238.6 4.9v-.5c-71.3-77.4-145.4-46.7-222.3-4.4-76.7 40-156.3 91.6-238.6 4.9v-.5c-71.3-77.4-145.4-46.7-222.3-4.4-76.7 40-156.3 91.6-238.6 4.9v-.5C390-40.2 315.9-9.5 239 32.8 162.3 72.9 82.6 124.6.1 37.2v42.4c71.3 83.1 145.4 50.1 222.3 4.7C299.1 41.4 378.7-13.9 461 79v.6c71.3 83.1 145.4 50.1 222.3 4.7C760 41.4 839.6-13.9 921.9 79v.6c71.3 83.1 145.4 50.1 222.3 4.7 76.7-42.9 156.3-98.2 238.6-5.3v.6c71.3 83.1 145.4 50.1 222.3 4.7 76.9-43 156.6-98.5 239.1-4.7V37.2c-71.6-77.4-145.7-46.7-222.6-4.4z" class="st2"/><path d="M1589.2 133.7c-76.7 46.6-145.4 57.8-206.2-12.8v-.6c-92.9-101.9-177.8-26.5-254.7 13.4-76.7 46.6-145.4 57.8-206.2-12.8v-.6c-92.9-101.9-177.8-26.5-254.7 13.4-76.7 46.6-145.4 57.8-206.2-12.8v-.6c-92.9-101.9-177.8-26.5-254.7 13.4C129.9 180.5 61 191.6.1 120.3v42.5c50.9 54.5 114.8 63.8 191.7 19.9 76.8-33.6 166.5-120.2 269.2-20.4v.5c50.9 54.5 114.8 63.8 191.7 19.9 76.8-33.6 166.5-120.2 269.2-20.4v.5c50.9 54.5 114.8 63.8 191.7 19.9 76.8-33.6 166.5-120.2 269.2-20.4v.5c50.9 54.5 114.8 63.8 191.7 19.9 76.9-33.6 166.8-120.5 269.7-19.9v-42.5c-93.2-101.8-178.1-26.4-255 13.4z" class="st2"/><path d="M1690.2 171.6c-47 13.9-89.7 38.8-128.1 54.4-38.4 16.3-72.6 23.1-102.6 17.2-29.7-5.1-55.2-22.8-76.5-39.3v-.4c-55.5-47-106.7-45-153.7-31.9-47 13.9-89.7 38.8-128.1 54.4-38.4 16.3-72.6 23.1-102.6 17.2-29.7-5.1-55.2-22.8-76.5-39.3v-.4c-55.5-47-106.7-45-153.7-31.9-47 13.9-89.7 38.8-128.1 54.4-38.4 16.3-72.6 23.1-102.6 17.2-29.7-5.1-55.2-22.8-76.5-39.3v-.4c-55.5-47-106.7-45-153.7-31.9-47 13.9-89.7 38.8-128.1 54.4-38.2 16.3-72.4 23.1-102.4 17.2-29.9-5.2-55.6-23.1-77-39.7V246c36.5 26.7 93.2 42.5 170.1 19.3 38.4-10.1 81.9-28.6 130.5-41.3 48.4-11.6 101.8-17.5 160.3 21.7v.3c36.5 26.7 93.2 42.5 170.1 19.3 38.4-10.1 81.9-28.6 130.5-41.3 48.4-11.6 101.8-17.5 160.3 21.7v.3c36.5 26.7 93.2 42.5 170.1 19.3 38.4-10.1 81.9-28.6 130.5-41.3 48.4-11.6 101.8-17.5 160.3 21.7v.3c36.5 26.7 93.2 42.5 170.1 19.3 38.4-10.1 81.9-28.6 130.5-41.3 48.5-11.7 102.1-17.5 160.8 22v-42.5c-55.7-47-106.9-45-153.9-31.9z" class="st2"/></g></svg>