<svg xmlns="http://www.w3.org/2000/svg" xmlns:xlink="http://www.w3.org/1999/xlink" xml:space="preserve" id="mid" x="0" y="0" version="1.1" viewBox="0 0 1844 200"><style>.st0{opacity:.2}.st2{fill:#fdd9dc}</style><g class="st0"><defs><path id="SVGID_1_" d="M0 0h1844v200H0z" class="st0"/></defs><clipPath id="SVGID_00000135655250512498893890000017256352277553319834_"><use xlink:href="#SVGID_1_" overflow="visible"/></clipPath><g clip-path="url(#SVGID_00000135655250512498893890000017256352277553319834_)"><g id="_x32__00000132770831221592869640000011830296092067124924_"><path d="M922.1-22.6 864.4-82l-57.6 59.4L749.1-82l-57.6 59.4L633.8-82l-57.6 59.4L518.5-82l-57.6 59.4v55.7l57.6-59.4 57.7 59.4 57.6-59.4 57.7 59.4 57.6-59.4 57.7 59.4 57.6-59.4 57.7 59.4zm0 248.9-57.7-59.4-57.6 59.4-57.7-59.4-57.6 59.4-57.7-59.4-57.6 59.4-57.7-59.4-57.6 59.4V282l57.6-59.4 57.7 59.4 57.6-59.4 57.7 59.4 57.6-59.4 57.7 59.4 57.6-59.4 57.7 59.4z" class="st2"/><path d="M922.1 143.4 864.4 84l-57.6 59.4L749.1 84l-57.6 59.4L633.8 84l-57.6 59.4L518.5 84l-57.6 59.4V199l57.6-59.4 57.7 59.4 57.6-59.4 57.7 59.4 57.6-59.4 57.7 59.4 57.6-59.4 57.7 59.4z" class="st2"/><path d="M922.1 60.4 864.4 1l-57.6 59.4L749.1 1l-57.6 59.4L633.8 1l-57.6 59.4L518.5 1l-57.6 59.4V116l57.6-59.4 57.7 59.4 57.6-59.4 57.7 59.4 57.6-59.4 57.7 59.4 57.6-59.4 57.7 59.4z" class="st2"/></g><g id="_x31__00000134221032955765794340000003204201074517885104_"><path d="M461.2-22.6 403.6-82l-57.7 59.4L288.3-82l-57.7 59.4L173-82l-57.7 59.4L57.7-82 0-22.6v55.7l57.7-59.4 57.6 59.4L173-26.3l57.6 59.4 57.7-59.4 57.6 59.4 57.7-59.4 57.6 59.4zm0 248.9-57.6-59.4-57.7 59.4-57.6-59.4-57.7 59.4-57.6-59.4-57.7 59.4-57.6-59.4L0 226.3V282l57.7-59.4 57.6 59.4 57.7-59.4 57.6 59.4 57.7-59.4 57.6 59.4 57.7-59.4 57.6 59.4z" class="st2"/><path d="M461.2 143.4 403.6 84l-57.7 59.4L288.3 84l-57.7 59.4L173 84l-57.7 59.4L57.7 84 0 143.4V199l57.7-59.4 57.6 59.4 57.7-59.4 57.6 59.4 57.7-59.4 57.6 59.4 57.7-59.4 57.6 59.4z" class="st2"/><path d="M461.2 60.4 403.6 1l-57.7 59.4L288.3 1l-57.7 59.4L173 1l-57.7 59.4L57.7 1 0 60.4V116l57.7-59.4 57.6 59.4L173 56.6l57.6 59.4 57.7-59.4 57.6 59.4 57.7-59.4 57.6 59.4z" class="st2"/></g><g id="_x32_"><path d="M1844-22.6 1786.3-82l-57.6 59.4L1671-82l-57.6 59.4-57.7-59.4-57.6 59.4-57.7-59.4-57.6 59.4v55.7l57.6-59.4 57.7 59.4 57.6-59.4 57.7 59.4 57.6-59.4 57.7 59.4 57.6-59.4 57.7 59.4zm0 248.9-57.7-59.4-57.6 59.4-57.7-59.4-57.6 59.4-57.7-59.4-57.6 59.4-57.7-59.4-57.6 59.4V282l57.6-59.4 57.7 59.4 57.6-59.4 57.7 59.4 57.6-59.4 57.7 59.4 57.6-59.4L1844 282z" class="st2"/><path d="M1844 143.4 1786.3 84l-57.6 59.4L1671 84l-57.6 59.4-57.7-59.4-57.6 59.4-57.7-59.4-57.6 59.4V199l57.6-59.4 57.7 59.4 57.6-59.4 57.7 59.4 57.6-59.4 57.7 59.4 57.6-59.4L1844 199z" class="st2"/><path d="M1844 60.4 1786.3 1l-57.6 59.4L1671 1l-57.6 59.4L1555.7 1l-57.6 59.4L1440.4 1l-57.6 59.4V116l57.6-59.4 57.7 59.4 57.6-59.4 57.7 59.4 57.6-59.4 57.7 59.4 57.6-59.4L1844 116z" class="st2"/></g><g id="_x31_"><path d="M1383.1-22.6 1325.5-82l-57.7 59.4-57.6-59.4-57.7 59.4-57.6-59.4-57.7 59.4L979.6-82l-57.7 59.4v55.7l57.7-59.4 57.6 59.4 57.7-59.4 57.6 59.4 57.7-59.4 57.6 59.4 57.7-59.4 57.6 59.4zm0 248.9-57.6-59.4-57.7 59.4-57.6-59.4-57.7 59.4-57.6-59.4-57.7 59.4-57.6-59.4-57.7 59.4V282l57.7-59.4 57.6 59.4 57.7-59.4 57.6 59.4 57.7-59.4 57.6 59.4 57.7-59.4 57.6 59.4z" class="st2"/><path d="M1383.1 143.4 1325.5 84l-57.7 59.4-57.6-59.4-57.7 59.4-57.6-59.4-57.7 59.4L979.6 84l-57.7 59.4V199l57.7-59.4 57.6 59.4 57.7-59.4 57.6 59.4 57.7-59.4 57.6 59.4 57.7-59.4 57.6 59.4z" class="st2"/><path d="M1383.1 60.4 1325.5 1l-57.7 59.4L1210.2 1l-57.7 59.4L1094.9 1l-57.7 59.4L979.6 1l-57.7 59.4V116l57.7-59.4 57.6 59.4 57.7-59.4 57.6 59.4 57.7-59.4 57.6 59.4 57.7-59.4 57.6 59.4z" class="st2"/></g></g></g></svg>