<svg version="1.1" id="Layer_1" xmlns="http://www.w3.org/2000/svg" x="0" y="0" viewBox="0 0 1211.2 144" xml:space="preserve"><style>.st0{stroke-linecap:round;stroke-linejoin:round}.st0,.st1{fill:none;stroke:#585eab;stroke-width:4;stroke-miterlimit:10}.st2{fill:#72cee0}.st3{fill:#4ec2ba}.st4{fill:#f27cb1}.st5{fill:#e7e7e8}.st6{fill:#585eab}.st7{fill:#f9c9de}.st8{fill:#ffd872}</style><path class="st0" d="m15.9 67.8 9.3 3.5 3.4-9.4 9.4 3.5 3.4-9.4 9.3 3.6m160.6-13.7 12.3 12.6"/><path class="st1" d="M269.2 70.2c0-3.6-2.9-6.5-6.5-6.5s-6.5 2.9-6.5 6.5 2.9 6.5 6.5 6.5c3.6-.1 6.5-3 6.5-6.5z"/><path class="st0" d="m85.4 56.7-8.1 13.9h16.1z"/><path class="st2" d="m172 36.2-13.9 8 13.9 8z"/><path class="st0" d="m311 48.7 5.3 8.5 8.4-5.4 5.3 8.5 8.4-5.4 5.3 8.5"/><path class="st3" d="M383.8 57.9c0-3.6-2.9-6.5-6.5-6.5s-6.5 2.9-6.5 6.5 2.9 6.5 6.5 6.5 6.5-2.9 6.5-6.5z"/><path class="st4" d="M106.3 30.9c0-3.6-2.9-6.5-6.5-6.5s-6.5 2.9-6.5 6.5 2.9 6.5 6.5 6.5c3.6-.1 6.5-3 6.5-6.5z"/><path class="st0" d="M141.2 62v14.8m-7.4-7.4h14.8"/><path class="st5" d="M245.5 20.3c0-3.6-2.9-6.5-6.5-6.5s-6.5 2.9-6.5 6.5 2.9 6.5 6.5 6.5 6.5-2.9 6.5-6.5z"/><path class="st6" d="M385.6 22.8c3.9 0 3.9-6 0-6s-3.9 6 0 6zm-98 22.5c3.9 0 3.9-6 0-6s-3.9 6 0 6z"/><path class="st0" d="m340.4 3.8 6.5 16.3m-284-4.9L46.6 8.7M191 4.8v14.9m-7.4-7.4h14.8"/><path class="st7" d="M274.2 12.2 262.1 1.7l-3 15.8z"/><path class="st5" d="m423.1 56.7-1.4-16-13.2 9.2z"/><path class="st3" d="m1.5 19.8 8 13.9 8-13.9z"/><path class="st6" d="M133.8 13.5c3.9 0 3.9-6 0-6s-3.9 6 0 6zm303.5 66.3c3.9 0 3.9-6 0-6s-3.9 6 0 6z"/><path class="st0" d="m787.9 31.5-13.9 8 13.9 8z"/><path class="st1" d="M536.1 16.2c0-3.6-2.9-6.5-6.5-6.5s-6.5 2.9-6.5 6.5 2.9 6.5 6.5 6.5 6.5-2.9 6.5-6.5z"/><path class="st0" d="m835.2 31.9-2.6-9.6-9.7 2.7-2.6-9.6-9.6 2.8-2.6-9.7m-203 17.7-8.9-4.6-4.4 9.1-8.9-4.6-4.4 9.1-8.9-4.6"/><circle class="st2" cx="627.2" cy="41.2" r="6.5"/><path class="st4" d="m445 1.3 1.4 15.9L459.6 8z"/><path class="st0" d="m742.9 23.9-17.1-3.8m-60.1 5.7v14.8m-7.5-7.4h14.9M483.9 31v14.8m-7.4-7.4h14.9"/><path class="st8" d="m739.8 49-.7 16 14.3-7.4z"/><path class="st0" d="m489.9 85.3 9.6-14.7"/><path class="st7" d="m583.9 87.7-12.2-10.6-3 15.8z"/><path class="st6" d="M691.1 57.9c3.9 0 3.9-6 0-6s-3.9 6 0 6zM443.4 46.6c3.9 0 3.9-6 0-6s-3.9 6 0 6zm173 31c3.9 0 3.9-6 0-6s-3.9 6 0 6zm192-9c3.9 0 3.9-6 0-6s-3.9 6 0 6z"/><path class="st0" d="M692.3 84.8 676.2 92m95-17.4v14.8m-7.4-7.4h14.8"/><path class="st8" d="M465.5 93c0-3.6-2.9-6.5-6.5-6.5s-6.5 2.9-6.5 6.5 2.9 6.5 6.5 6.5 6.5-2.9 6.5-6.5z"/><path class="st4" d="M856.1 60.4c0-3.6-2.9-6.5-6.5-6.5s-6.5 2.9-6.5 6.5 2.9 6.5 6.5 6.5 6.5-2.9 6.5-6.5z"/><path class="st5" d="m840.1 92.4-13-9.4-1.7 15.9z"/><path class="st3" d="m533 67.7 13 9.4 1.7-15.9z"/><path class="st0" d="m926 54.3 7.1 16.1m-54.4 13.1 15.3-4.8-11.8-10.8z"/><circle class="st7" cx="956" cy="26.7" r="6.5"/><path class="st0" d="M886 31.2h14.8m-7.4 7.4V23.8"/><path class="st6" d="M970.7 56.8c0-3.9-6-3.9-6 0s6 3.9 6 0z"/><path class="st8" d="m921.4 1.7 4 15.5L936.9 6z"/><path class="st0" d="m1022.1 11.1-17.2-3.3m59.5 32.5-7 16.1"/><path class="st8" d="M1090.3 72.4c0-3.6-2.9-6.5-6.5-6.5s-6.5 2.9-6.5 6.5 2.9 6.5 6.5 6.5 6.5-2.9 6.5-6.5z"/><path class="st0" d="M1036.2 85.8v14.9m-7.5-7.4h14.9"/><path class="st6" d="M1059.7 7.1c3.9 0 3.9-6 0-6s-3.9 6 0 6z"/><path class="st7" d="m1039.7 51.9-1.4-16-13.2 9.2z"/><path class="st0" d="m81.4 109.4 13.9-8-13.9-8z"/><path class="st1" d="M333.2 124.7c0 3.6 2.9 6.5 6.5 6.5s6.5-2.9 6.5-6.5-2.9-6.5-6.5-6.5-6.5 2.9-6.5 6.5z"/><path class="st0" d="m34.1 109 2.6 9.6 9.7-2.7 2.6 9.6 9.6-2.8 2.6 9.7m203-17.7 8.9 4.6 4.4-9.1 8.9 4.6 4.4-9.1 8.9 4.6"/><circle class="st2" cx="242.1" cy="99.7" r="6.5"/><path class="st4" d="m424.3 139.6-1.4-15.9-13.2 9.2z"/><path class="st0" d="m126.4 117 17.1 3.8m60.1-5.7v-14.8m7.5 7.4h-14.9m189.2 2.2V95.1m7.4 7.4h-14.9"/><path class="st6" d="M12.4 128.4c-3.9 0-3.9 6 0 6 3.8 0 3.8-6 0-6zm413.5-34.1c-3.9 0-3.9 6 0 6s3.9-6 0-6z"/><path class="st0" d="m471.4 117.3-11.9 12.9m471.6-19.5 12.3 12.6"/><path class="st1" d="M989 135c0-3.6-2.9-6.5-6.5-6.5s-6.5 2.9-6.5 6.5 2.9 6.5 6.5 6.5c3.6-.1 6.5-3 6.5-6.5z"/><path class="st2" d="m891.8 101-13.9 8 13.9 8z"/><path class="st0" d="m1030.8 113.5 5.3 8.5 8.4-5.4 5.3 8.5 8.4-5.4 5.3 8.5"/><path class="st3" d="M1103.6 122.7c0-3.6-2.9-6.5-6.5-6.5s-6.5 2.9-6.5 6.5 2.9 6.5 6.5 6.5 6.5-2.9 6.5-6.5z"/><path class="st0" d="M861 126.8v14.8m-7.4-7.4h14.8"/><path class="st5" d="M606.4 126.4c0-3.6-2.9-6.5-6.5-6.5s-6.5 2.9-6.5 6.5 2.9 6.5 6.5 6.5 6.5-2.9 6.5-6.5z"/><path class="st6" d="M746.5 128.9c3.9 0 3.9-6 0-6s-3.9 6 0 6zm260.9-18.8c3.9 0 3.9-6 0-6s-3.9 6 0 6z"/><path class="st0" d="m701.3 109.9 6.5 16.3m-155.9-15.3v14.9m-7.4-7.4h14.8"/><path class="st7" d="M635.1 118.3 623 107.8l-3 15.8z"/><path class="st5" d="m1142.9 121.5-1.4-16-13.2 9.2z"/><path class="st6" d="M494.7 119.6c3.9 0 3.9-6 0-6s-3.9 6 0 6z"/><path class="st4" d="m805.8 107.4 1.4 15.9 13.2-9.2z"/><path class="st0" d="M1203.7 113.8v14.8m-7.4-7.4h14.9"/><path class="st6" d="M1163.2 129.4c3.9 0 3.9-6 0-6s-3.9 6 0 6z"/><path class="st0" d="m1155 29.5-13.9 8 13.9 8zm47.3.4-2.6-9.5-9.7 2.6-2.6-9.6-9.6 2.8-2.6-9.7M1110 21.9l-17.1-3.8"/><path class="st8" d="m1106.9 47-.7 16 14.3-7.4z"/><circle class="st7" cx="1197.9" cy="88" r="6.5"/><path class="st0" d="M1127.9 83.4h14.8m-7.4 7.4V76"/><path class="st8" d="m1163.3 62.9 4 15.5 11.5-11.2z"/></svg>