<svg version="1.1" id="Layer_1" xmlns="http://www.w3.org/2000/svg" x="0" y="0" viewBox="0 0 1070 144" xml:space="preserve"><style>.st0{fill:#eb3a27}.st1{fill:#ef9e20}.st2{fill:#f05a28}</style><path class="st0" d="m669.8 61.4-34.1-7.2 31.7 22.3z"/><path class="st1" d="m595.7 53.7-2.1 34.7L611 53.7zM52 .8l-5.3 34.1L67.3 2.1z"/><path class="st0" d="m453.7 87 23.8 25.6-13.1-36.7z"/><path class="st1" d="m190.6 37.3-18.7 29.2L204 44.6z"/><path class="st0" d="m239.9 21-18.7 29.4 32.3-22z"/><path class="st1" d="m350.4 95.3-18.6 29.6 32.1-21.9z"/><path class="st0" d="m470.9 46.7 34.6 2.2-34.6-17.7zm113.7-34.9 20.7 28L596.5 2z"/><path class="st1" d="m655.1 2-18.4 29.5 32-22.1z"/><path class="st0" d="M54.1 84.5 38.9 71.4l6-5.3 12 15.7zm103.3 25.2-15.2-13.3 5.9-5.2 12.2 15.9zm-47-74L95.1 22.6l5.8-5.3 12.3 15.9z"/><path class="st1" d="m428.4 85.8-15.3-13.4 5.9-5.2L431.3 83z"/><path class="st0" d="M556.3 49.3 541.2 36l5.8-5.2 12.2 15.9zm-259.4-7.1-20.1 1.3.4-7.8 19.9 2.5zm-49.4 85.1-20.3 1.5.4-8 19.9 2.7zM203 105.9l10-13.2 4 5.1-11.9 10.2zm119.8-29.6 9.8-13.1 4.1 5.2-11.9 10.1zm46.8-1.5 10-12.8 4 4.9-11.9 10.4zm254-33.9 16.1-.8-1.2 6.3-15.6-2.2zm-102 14.9 11.1 11.9-5.8 3-8.2-13.4zM560 79.2l11.1 12-5.8 3.2-8.2-13.5zm88.3-2.4 9.6 13.2-5.9 2.3-6.8-14.2zm-533.1-8.2 9.9-12.9 4 4.9L117.2 71zM144 34.5l15.4 5.8-3.6 5.3-13.4-8.3zm124.4 42 8.4 13.9-6.1 1.9-5.3-14.7zM7.2 115.3l8.3 13.9-6.1 2.1L4 116.2zm69.4-83.7L85 45.9l-6.2 1.7-5.3-14.9zm-31.3 83.7 8.4 13.9-6.2 2.1-5.3-15.1z"/><path class="st1" d="M9.8 88.8-.5 91.6l-.4-4.1 10.6-.8z"/><path class="st0" d="m501.4 96.2 9.4 5.2-2.7 3.2-7.9-6.5zm80.9 19.5 9.4 5.1-2.6 3.2-8-6.7zM379.5 22.5l9.4 4.9-2.5 3.4-8.2-6.7zm246.7 52.3 9.4 5.2-2.6 3.3-8.1-6.5zm3.5 33.7-6.4 8.6-3-2.9 7.8-7.1zM515.5 25.9l-6.3 8.6-3.2-3 7.8-7zm-24.4 43.5-6.2 8.6-2.9-2.9 7.5-7.1zm-268-10.3 9.5 5.2-2.8 3.3-7.9-6.8zm-44.7 25.2 9.5 5.2-2.5 3.2-8.2-6.8zm-6.9-61.8 9.4 4.9-2.5 3.4-8.2-6.7zm224.1 20.9 9.4 5.1-2.6 3.2-8-6.7zm-48.5-9.3.8 10.7-4.2-.2 1.2-10.5zM19.6 26.6l5.2 9.4-3.9 1.4-3.3-10z"/><path class="st1" d="m97.3 117.3 9.8-12.9 4.1 5.2-12 10.2z"/><path class="st0" d="m389 96 13 9.9-4.9 4.1-10.5-11.9z"/><path class="st1" d="m356.5 125.5 13.1 10-5.2 4-10.2-11.9z"/><path class="st0" d="M58.2 104.6 86 87.8l5 4.5-27.5 19.8zm84.6 19.4 31.8-7.1 3.3 5.9-32.4 10.1z"/><path class="st2" d="m283.9 115.8 17.5-27.6 6.6 2.1-15.9 29.9z"/><path class="st0" d="m430 45 1.1-32.6 6.6-1.7 1.6 33.9z"/><path class="st2" d="m653.5 142.8-24.2-22.5 3.3-5.8 26.5 21z"/><path class="st0" d="M314.6 29.6 331.9 2l6.6 2-16 30z"/><path class="st1" d="m583.9 127-32.4-6.9 30.2 21.3z"/><path class="st0" d="m941.4 13.7-28.3 17.5 36.7-5.4z"/><path class="st1" d="m680.5 74.9 32.8-4.7-35.7-9.7z"/><path class="st0" d="m747.9 26.5-5.2 32.8 19.9-31.4zm46 26.1 21.8 24.9-11.6-35.1zm149 52.7-17.7 28.1 30.5-21z"/><path class="st2" d="m691.1 39.6 12.6-14.7 5 5.8-15.2 11.7z"/><path class="st0" d="m976.3 33.9-14.7-12.6 5.7-5.1 11.7 15zm21.9 28.8L979 64l.4-7.6 18.9 2.5z"/><path class="st2" d="m1009.2 133.1 9.5-12.2 3.8 4.7-11.3 9.8z"/><path class="st0" d="m514.7 125.4 9.1 12.5-5.6 2.4-6.3-13.7zM809 149.3l-4.1-15.1 6.1-.1.9 15zm-363.7-14.8 14.5 5.4-3.3 5-12.9-7.8z"/><path class="st2" d="m912.3 71.3 14.5 5.4-3.5 4.8-12.6-7.8z"/><path class="st0" d="m1055.8 22.6 9.4-12.2 3.9 4.8-11.5 9.7zm-33.2 60.9 9.7-12.2 3.6 4.8-11.3 9.7zm32.9-24.6 9.7-12.2 3.6 4.6-11.3 9.9zM811.8 22.6l9 4.9-2.4 3.2-7.8-6.5zm188.7 77.8 9 5-2.4 3.1-7.8-6.3zm-193 0 9 5-2.3 3.1-7.9-6.3zm206.3-70.5 8.8 4.8-2.3 3.1-7.7-6.4zM858.4 67.1l9 4.9-2.4 3.3-7.8-6.4zm101.8 13.3-6.1 8.2-2.9-2.8 7.5-6.9zm-51-67.6-5.8 8.2-2.9-2.7 7.3-6.9zm152.5 113.5-6 8.2-3-3 7.4-6.6zm-292-49.8.7 10.1-4.1-.1 1.4-10zm12.6-65.4.8 10.2-4.1-.3 1.3-9.9zm105.9 105.5 9.6 3.5-1.9 3.5-8.6-5.5z"/><path class="st1" d="m855.7 30 9.6-12.2 3.6 4.7-11.3 9.8z"/><path class="st0" d="m722 83.5 9.7-12.2 3.6 4.8-11.3 9.7zm121.4 47.4 12.3 9.3-4.7 3.9-9.9-11.3z"/><path class="st1" d="m394.7 121.5 12.5 9.4-5 3.9-9.7-11.3z"/><path class="st0" d="m768.5 123.8-4.7 14.9-5.3-3.2 7.2-13.2zm115.4-73.1 10.8-10.9 6.3 5.4L889 56zm-151.7 56.7 30.4-6.6 2.9 5.7-30.7 9.4z"/><path class="st1" d="m850.9 99.6 30.3-6.7 3 5.8-30.9 9.4zm122.8 35.3 4.7-30.8 6.4-.7-2.5 32zm85.8-13.7-14.6-12.6 5.6-5.1 11.7 15.2z"/></svg>