<svg version="1.1" id="Layer_1" xmlns="http://www.w3.org/2000/svg" x="0" y="0" viewBox="0 0 1069.2 144" xml:space="preserve"><style>.st0{fill:#ff197c}.st1{fill:#7200cf}.st2{fill:#ff6730}.st3{fill:#6cf}</style><g id="left"><path class="st0" d="m858.8 79-36 61.9H813L850 79z"/><path class="st1" d="m750.2 70.8-40.8 70.1h-11.1l41.9-70.1z"/><path class="st2" d="m868.7 39.9-58.7 101h-15.8l60.2-101z"/><path class="st0" d="M619.2 95.7v34.1l65.3-113.7L674.2-.2zm48.2 9-21 36.2h1.8l54.6-94.1-10-17.2-25.4 44z"/><path class="st2" d="m685.2 94.8 26.6 46.1h-53.2z"/><path class="st3" d="M946.8 20.8c0 .6-.2 1.1-.6 1.5s-.9.6-1.5.6-1.1-.2-1.5-.6l-.3-.3c-.1-.1-.2-.3-.2-.4-.1-.1-.1-.3-.1-.4-.2-.7.1-1.4.6-1.9.4-.4.9-.6 1.5-.6s1.1.2 1.5.6l.3.3c.1.1.2.3.2.4s.1.3.1.4v.4zm-3.9 7.3c-.6 1-1.9 1.4-2.9.7-1-.6-1.4-1.8-.8-2.9.6-1 1.8-1.4 2.9-.7.7.4 1 1.1 1 1.8.1.4 0 .7-.2 1.1zm-3.6 6.2c-.6 1-1.9 1.4-2.9.7-1-.6-1.3-1.8-.7-2.9.6-1 1.9-1.4 2.9-.7.7.4 1 1.1 1 1.8-.1.4-.1.8-.3 1.1zm-3.6 6.2c-.6 1-1.8 1.4-2.9.8-1-.6-1.4-1.9-.8-2.9.6-1 1.9-1.4 2.9-.8.7.4 1 1.1 1 1.8 0 .4 0 .8-.2 1.1zm-3.7 6.2c-.6 1-1.9 1.4-2.9.8-1-.6-1.4-1.8-.7-2.9.6-1 1.9-1.4 2.9-.8.7.4 1 1.1 1 1.8.1.4 0 .8-.3 1.1zm-3.6 6.2c-.6 1-1.9 1.4-2.9.7-1-.6-1.4-1.8-.8-2.9.6-1 1.9-1.4 2.9-.7.7.4 1 1.1 1 1.8.1.4 0 .8-.2 1.1zm-3.6 6.3c-.6 1-1.9 1.4-2.9.7-1-.6-1.4-1.9-.8-2.9.6-1 1.9-1.4 2.9-.8.7.4 1 1.1 1 1.8.1.5 0 .8-.2 1.2zm-3.6 6.1c-.6 1-1.9 1.3-2.9.7-1-.6-1.4-1.9-.8-2.9.6-1 1.9-1.4 2.9-.8.7.4 1 1.1 1 1.8.1.6 0 .9-.2 1.2zm-3.6 6.3c-.6 1-1.9 1.3-2.9.7-1-.6-1.4-1.8-.8-2.9.6-1 1.9-1.4 2.9-.8.7.4 1 1.1 1 1.8.1.5 0 .9-.2 1.2zm-3.6 6.2c-.6 1-1.9 1.4-2.9.7-1-.6-1.4-1.8-.8-2.9.6-1 1.9-1.4 2.9-.7.7.4 1 1.1 1 1.8.1.4 0 .8-.2 1.1zm-3.6 6.2c-.6 1-1.8 1.3-2.9.7-1-.6-1.4-1.9-.8-2.9.6-1 1.9-1.4 2.9-.8.7.4 1 1.1 1 1.8.1.5 0 .9-.2 1.2zm-3.6 6.2c-.6 1-1.9 1.3-2.9.7-1-.6-1.4-1.8-.8-2.9.6-1 1.8-1.4 2.9-.8.7.4 1 1.1 1 1.8.1.6 0 .9-.2 1.2zm-3.6 6.2c-.6 1-1.9 1.4-2.9.7-1-.6-1.4-1.8-.7-2.9.6-1 1.9-1.4 2.9-.7.7.4 1 1.1 1 1.8-.1.4-.1.8-.3 1.1zm-3.6 6.3c-.6 1-1.9 1.4-2.9.7-1-.6-1.4-1.9-.8-2.9.6-1 1.9-1.4 2.9-.7.7.4 1 1.1 1 1.8 0 .4 0 .7-.2 1.1zm-3.7 6.2c-.6 1-1.9 1.3-2.9.7-1-.6-1.4-1.9-.8-2.9.6-1 1.9-1.4 2.9-.8.7.4 1 1.1 1 1.8.1.5.1.8-.2 1.2zm-3.6 6.2c-.6 1-1.9 1.4-2.9.7-1-.6-1.4-1.8-.7-2.9.6-1 1.9-1.4 2.9-.8.7.4 1 1.1 1 1.8 0 .5-.1.9-.3 1.2zm-3.6 6.2c-.6 1-1.9 1.4-2.9.7-1-.6-1.4-1.8-.8-2.9.6-1 1.9-1.4 2.9-.7.7.4 1 1.1 1 1.8.1.4 0 .7-.2 1.1zm-3.6 6.2c-.6 1-1.9 1.4-2.9.7-1-.6-1.4-1.9-.8-2.9.6-1 1.9-1.4 2.9-.8.7.4 1 1.1 1 1.8.1.5 0 .9-.2 1.2zm-3.6 6.2c-.6 1-1.9 1.4-2.9.7-1-.6-1.4-1.9-.7-2.9.6-1 1.9-1.4 2.9-.8.7.4 1 1.1 1 1.8 0 .5-.1.9-.3 1.2zm-3.3 5.2c0 .5-.2 1.1-.6 1.5l-.3.3c-.1.1-.2.2-.4.2-.1.1-.3.1-.4.1-.2 0-.3.1-.4.1-.2 0-.3 0-.4-.1-.2-.1-.3-.1-.4-.1-.1-.1-.3-.1-.4-.2l-.3-.3c-.5-.5-.7-1.2-.6-1.9 0-.1.1-.3.1-.4.1-.1.1-.3.2-.4l.3-.3.3-.3c.1-.1.3-.2.4-.2h.3c.1 0 .3-.1.4-.1s.3 0 .4.1c.1.1.3.1.4.1.1.1.3.1.4.2l.3.3.3.3c.1.1.2.2.2.4.1.1.1.3.1.4.1 0 .1.1.1.3z"/><path class="st2" d="M847.8 20.5c0 .6-.2 1.1-.6 1.5s-.9.6-1.5.6-1.1-.2-1.5-.6l-.3-.3c-.1-.1-.2-.3-.2-.4s-.1-.3-.1-.4c-.2-.7.1-1.4.6-1.9.4-.4.9-.6 1.5-.6s1.1.2 1.5.6l.3.3c.1.1.2.3.2.4.1.1.1.3.1.4v.4zm-3.9 7.3c-.6 1-1.9 1.4-2.9.7-1-.6-1.4-1.8-.8-2.9.6-1 1.8-1.4 2.9-.7.7.4 1 1.1 1 1.8 0 .4-.1.8-.2 1.1zm-3.6 6.3c-.6 1-1.9 1.4-2.9.7-1-.6-1.3-1.8-.7-2.9.6-1 1.9-1.4 2.9-.7.7.4 1 1.1 1 1.8-.1.3-.2.7-.3 1.1zm-3.7 6.1c-.6 1-1.8 1.4-2.9.8-1-.6-1.4-1.9-.8-2.9.6-1 1.9-1.4 2.9-.8.7.4 1 1.1 1 1.8.1.5.1.8-.2 1.1zm-3.6 6.3c-.6 1-1.9 1.4-2.9.8-1-.6-1.4-1.8-.7-2.9.6-1 1.9-1.4 2.9-.8.7.4 1 1.1 1 1.8 0 .4-.1.7-.3 1.1zm-3.6 6.2c-.6 1-1.9 1.4-2.9.7-1-.6-1.4-1.8-.8-2.9.6-1 1.9-1.4 2.9-.7.7.4 1 1.1 1 1.8.1.4 0 .7-.2 1.1zm-3.6 6.2c-.6 1-1.9 1.4-2.9.7-1-.6-1.4-1.9-.8-2.9.6-1 1.9-1.4 2.9-.8.7.4 1 1.1 1 1.8.1.5 0 .9-.2 1.2zm-3.6 6.2c-.6 1-1.9 1.3-2.9.7-1-.6-1.4-1.9-.8-2.9.6-1 1.9-1.4 2.9-.8.7.4 1 1.1 1 1.8.1.5 0 .9-.2 1.2zm-3.6 6.2c-.6 1-1.9 1.3-2.9.7-1-.6-1.4-1.8-.8-2.9.6-1 1.9-1.4 2.9-.8.7.4 1 1.1 1 1.8.1.5 0 .9-.2 1.2zm-3.6 6.2c-.6 1-1.9 1.4-2.9.7-1-.6-1.4-1.8-.8-2.9.6-1 1.9-1.4 2.9-.7.7.4 1 1.1 1 1.8.1.5 0 .8-.2 1.1zm-3.7 6.2c-.6 1-1.8 1.3-2.9.7-1-.6-1.4-1.9-.8-2.9.6-1 1.9-1.4 2.9-.8.7.4 1 1.1 1 1.8.2.5 0 .9-.2 1.2zm-3.5 6.3c-.6 1-1.9 1.3-2.9.7-1-.6-1.4-1.8-.8-2.9.6-1 1.8-1.4 2.9-.8.7.4 1 1.1 1 1.8 0 .5-.1.9-.2 1.2zm-3.6 6.2c-.6 1-1.9 1.4-2.9.7-1-.6-1.4-1.8-.7-2.9.6-1 1.9-1.4 2.9-.7.7.4 1 1.1 1 1.8-.1.4-.2.7-.3 1.1zm-3.7 6.2c-.6 1-1.9 1.4-2.9.7-1-.6-1.4-1.9-.8-2.9.6-1 1.9-1.4 2.9-.7.7.4 1 1.1 1 1.8.1.4 0 .8-.2 1.1zm-3.6 6.2c-.6 1-1.9 1.3-2.9.7-1-.6-1.4-1.9-.8-2.9.6-1 1.9-1.4 2.9-.8.7.4 1 1.1 1 1.8.1.5 0 .9-.2 1.2zm-3.6 6.2c-.6 1-1.9 1.4-2.9.7-1-.6-1.4-1.8-.7-2.9.6-1 1.9-1.4 2.9-.8.7.4 1 1.1 1 1.8 0 .5-.1.9-.3 1.2zm-3.6 6.2c-.6 1-1.9 1.4-2.9.7-1-.6-1.4-1.8-.8-2.9.6-1 1.9-1.4 2.9-.7.7.4 1 1.1 1 1.8.1.5 0 .8-.2 1.1zm-3.6 6.3c-.6 1-1.9 1.4-2.9.7-1-.6-1.4-1.9-.8-2.9.6-1 1.9-1.4 2.9-.8.7.4 1 1.1 1 1.8.1.4 0 .8-.2 1.2zm-3.6 6.2c-.6 1-1.9 1.4-2.9.7-1-.6-1.4-1.9-.7-2.9.6-1 1.9-1.4 2.9-.8.7.4 1 1.1 1 1.8 0 .5-.1.8-.3 1.2zm-3.3 5.1c0 .5-.2 1.1-.6 1.5l-.3.3c-.1.1-.2.2-.4.2-.1.1-.3.1-.4.1-.2 0-.3.1-.4.1-.1 0-.3 0-.4-.1-.1-.1-.3-.1-.4-.1-.1-.1-.3-.1-.4-.2l-.3-.3c-.5-.5-.7-1.2-.6-1.9 0-.1.1-.3.1-.4.1-.1.1-.3.2-.4l.3-.3.3-.3c.1-.1.3-.2.4-.2.1-.1.3-.1.4-.1.1 0 .3-.1.4-.1.1 0 .3 0 .4.1.1.1.3.1.4.1.1.1.3.1.4.2l.3.3.3.3c.1.1.2.2.2.4.1.1.1.3.1.4-.1.1 0 .3 0 .4z"/><path class="st1" d="m743.8 39.8-58.7 101h-15.9l60.2-101z"/><path class="st3" d="m959.9 58.5-47.5 81.8 1.4.8 46.1-79.4zm93.4 1.8-46.5 80.6h11l35.5-61.6z"/><path class="st0" d="m1015.3 140.8 53.9-93.4v35l-33.8 58.4zm-9.7-49.5-28.8 49.5h1.8l27-46.4zm13.2 1.2-28.1 48.3h1.9l26.2-45.1z"/><path class="st2" d="m967.4 103.8.6 2.4 2.1-1.3-1.4 2.1 2.5.6-2.5.5 1.4 2.2-2.1-1.4-.6 2.5-.5-2.5-2.2 1.4 1.4-2.2-2.6-.5 2.6-.6-1.4-2.1 2.2 1.3zm-315.6 3.9.6 2.4 2.1-1.3-1.3 2.1 2.5.6-2.5.5 1.3 2.2-2.1-1.4-.6 2.5-.5-2.5-2.2 1.4 1.4-2.2-2.5-.5 2.5-.6-1.4-2.1 2.2 1.3zm110.6-5.6.5 2.4 2.2-1.3-1.4 2.1 2.5.5-2.5.6 1.4 2.1-2.2-1.3-.5 2.4-.6-2.4-2.1 1.3 1.4-2.1-2.5-.6 2.5-.5-1.4-2.1 2.1 1.3z"/><path class="st3" d="m1008.2 63 .5 2.6 2.2-1.4-1.4 2.1 2.5.6-2.5.5 1.4 2.2-2.2-1.4-.5 2.5-.6-2.5-2.1 1.4 1.3-2.2-2.4-.5 2.4-.6-1.3-2.1 2.1 1.4z"/><path class="st1" d="m879.7 74.7.5 2.4 2.2-1.3-1.4 2.1 2.5.6-2.5.5 1.4 2.2-2.2-1.4-.5 2.5-.6-2.5-2.1 1.4 1.4-2.2-2.5-.5 2.5-.6-1.4-2.1 2.1 1.3z"/><path class="st0" d="m810.2 20.3-43.5 75.4h11.4l43.5-75.4zM871.4 99l-1.4-4.9-4.9 1.3-1.2 2 5-1.3 1.3 5zm-3.5 6.1-1.3-5-5 1.3-1.2 2 5-1.3 1.3 5zm-3.5 6-1.3-5-5 1.4-1.2 2 5-1.3 1.3 4.9zm-3.5 6-1.3-4.9-5 1.3-1.2 2 4.9-1.3 1.4 5zm-3.5 6-1.4-4.9-4.9 1.3-1.2 2.1 5-1.3 1.3 4.9z"/></g><path class="st3" d="m308.3 118.9 51.5-88.6 5.9 10.9-46.4 77.7z"/><path class="st2" d="m314.3 141 66.6-114.5 7.6 14.1L328.6 141z"/><path class="st3" d="m392.6 138.8 58.3-100.3h15.8l-59.9 100.3zm-7.1-20.1 46.6-80.2h12.6l-47.8 80.2z"/><path class="st2" d="m528.4 88.5-29.5 51.2H558zm-78.6 47.7c0-.6.2-1.2.7-1.6.5-.5 1-.7 1.6-.7s1.2.2 1.6.7l.3.3c.1.1.2.3.2.4.2.2.2.3.2.5.2.8-.1 1.6-.6 2.1-.4.5-1 .7-1.6.7s-1.2-.2-1.6-.7l-.3-.3c-.1-.1-.2-.3-.2-.4 0-.1-.1-.3-.1-.5-.1-.2-.2-.3-.2-.5zm4.4-8.1c.6-1.1 2.1-1.5 3.2-.8 1.1.6 1.5 2 .9 3.2-.6 1.1-2 1.5-3.2.8-.8-.4-1.2-1.2-1.2-2-.1-.4.1-.8.3-1.2zm4-6.8c.6-1.1 2.1-1.5 3.2-.8 1.1.6 1.5 2 .8 3.2-.6 1.1-2.1 1.5-3.2.8-.8-.4-1.2-1.2-1.2-2 .1-.5.2-.9.4-1.2zm4-7c.6-1.1 2-1.5 3.2-.9 1.1.6 1.5 2.1.9 3.2s-2.1 1.5-3.2.9c-.8-.4-1.2-1.2-1.2-2 0-.4.1-.8.3-1.2zm4-6.9c.6-1.1 2.1-1.5 3.2-.9s1.5 2 .8 3.2c-.6 1.1-2.1 1.5-3.2.9-.8-.4-1.2-1.2-1.2-2 .1-.4.2-.8.4-1.2zm4-6.9c.6-1.1 2.1-1.5 3.2-.8 1.1.6 1.5 2 .9 3.2-.6 1.1-2.1 1.5-3.2.8-.8-.4-1.2-1.2-1.2-2 0-.4.1-.8.3-1.2zm4-6.9c.6-1.1 2.1-1.5 3.2-.8 1.1.6 1.5 2.1.9 3.2s-2.1 1.5-3.2.9c-.8-.4-1.2-1.2-1.2-2 0-.5.1-.9.3-1.3zm4-6.9c.6-1.1 2.1-1.5 3.2-.8 1.1.6 1.5 2.1.9 3.2s-2.1 1.5-3.2.9c-.8-.4-1.2-1.2-1.2-2 0-.5.2-.9.3-1.3zm4.1-6.9c.6-1.1 2.1-1.5 3.2-.8 1.1.6 1.5 2 .9 3.2-.6 1.1-2.1 1.5-3.2.9-.8-.4-1.2-1.2-1.2-2 0-.5 0-.9.3-1.3zm4-6.9c.6-1.1 2.1-1.5 3.2-.8 1.1.6 1.5 2 .9 3.2-.6 1.1-2.1 1.5-3.2.8-.8-.4-1.2-1.2-1.2-2 0-.4 0-.8.3-1.2zm4-6.9c.6-1.1 2-1.5 3.2-.8 1.1.6 1.5 2.1.9 3.2s-2.1 1.5-3.2.9c-.8-.4-1.2-1.2-1.2-2 0-.5.1-.9.3-1.3zm4-6.9c.6-1.1 2.1-1.5 3.2-.8 1.1.6 1.5 2 .9 3.2-.6 1.1-2 1.5-3.2.9-.8-.4-1.2-1.2-1.2-2 0-.6.1-.9.3-1.3zm4-6.9c.6-1.1 2.1-1.5 3.2-.8 1.1.6 1.5 2 .8 3.2-.6 1.1-2.1 1.5-3.2.8-.8-.4-1.2-1.2-1.2-2 .1-.4.2-.8.4-1.2zm4-6.9c.6-1.1 2.1-1.5 3.2-.8 1.1.6 1.5 2.1.9 3.2s-2.1 1.5-3.2.8c-.8-.4-1.2-1.2-1.2-2 0-.5.1-.9.3-1.2zm4.1-6.9c.6-1.1 2.1-1.5 3.2-.8 1.1.6 1.5 2.1.9 3.2s-2.1 1.5-3.2.9c-.8-.4-1.2-1.2-1.2-2-.1-.5 0-.9.3-1.3zm4-6.9c.6-1.1 2.1-1.5 3.2-.8 1.1.6 1.5 2 .8 3.2-.6 1.1-2.1 1.5-3.2.9-.8-.4-1.2-1.2-1.2-2 0-.6.1-1 .4-1.3zm3.9-6.9c.6-1.1 2.1-1.5 3.2-.8 1.1.6 1.5 2 .9 3.2-.6 1.1-2.1 1.5-3.2.8-.8-.4-1.2-1.2-1.2-2 0-.5.2-.8.3-1.2zm4-6.9c.6-1.1 2.1-1.5 3.2-.8 1.1.6 1.5 2.1.9 3.2s-2.1 1.5-3.2.9c-.8-.4-1.2-1.2-1.2-2 .1-.5.2-1 .3-1.3zm4.1-6.9c.6-1.1 2.1-1.5 3.2-.8 1.1.6 1.5 2.1.8 3.2-.6 1.1-2.1 1.5-3.2.9-.8-.4-1.2-1.2-1.2-2 .1-.6.2-1 .4-1.3zm3.7-5.8c0-.6.2-1.2.7-1.6l.3-.3c.1-.1.2-.2.4-.2.1-.1.3-.1.5-.1s.3-.1.5-.1.3 0 .5.1.3.1.5.1c.1.1.3.1.4.2l.3.3c.5.5.8 1.3.6 2.1 0 .1-.1.3-.1.4-.1.1-.1.3-.2.4l-.3.3-.3.3c-.1.1-.3.2-.4.2-.1.1-.3.1-.5.1-.1 0-.3.1-.5.1s-.3 0-.5-.1c-.1-.1-.3-.1-.5-.1-.1-.1-.3-.1-.4-.2l-.3-.3-.3-.3c-.1-.1-.2-.2-.2-.4-.1-.1-.1-.3-.1-.4-.1-.1-.1-.3-.1-.5zm-58.2 133.3c0-.6.2-1.2.7-1.6.5-.5 1-.7 1.6-.7s1.2.2 1.6.7l.3.3c.1.1.2.3.2.4.1.1.1.3.1.5.2.8-.1 1.6-.6 2.1-.4.5-1 .7-1.6.7s-1.2-.2-1.6-.7l-.3-.3c-.1-.1-.2-.3-.2-.4-.1-.1-.1-.3-.1-.5-.1-.2-.1-.4-.1-.5zm4.3-8.1c.6-1.1 2.1-1.5 3.2-.8 1.1.6 1.5 2 .9 3.2-.6 1.1-2 1.5-3.2.8-.8-.4-1.2-1.2-1.2-2 0-.4.1-.8.3-1.2zm4.1-6.9c.6-1.1 2.1-1.5 3.2-.8 1.1.6 1.5 2 .8 3.2-.6 1.1-2.1 1.5-3.2.8-.8-.4-1.2-1.2-1.2-2 0-.4.1-.8.4-1.2zm3.9-6.9c.6-1.1 2-1.5 3.2-.9 1.1.6 1.5 2.1.9 3.2s-2.1 1.5-3.2.9c-.8-.4-1.2-1.2-1.2-2 0-.4.1-.8.3-1.2zm4-6.9c.6-1.1 2.1-1.5 3.2-.9s1.5 2 .8 3.2c-.6 1.1-2.1 1.5-3.2.9-.8-.4-1.2-1.2-1.2-2 .1-.4.3-.8.4-1.2zm4-6.9c.6-1.1 2.1-1.5 3.2-.8 1.1.6 1.5 2 .9 3.2-.6 1.1-2.1 1.5-3.2.8-.8-.4-1.2-1.2-1.2-2l.3-1.2zm4.1-6.9c.6-1.1 2.1-1.5 3.2-.8 1.1.6 1.5 2.1.9 3.2s-2.1 1.5-3.2.9c-.8-.4-1.2-1.2-1.2-2 0-.5.1-.9.3-1.3zm4-6.9c.6-1.1 2.1-1.5 3.2-.8 1.1.6 1.5 2.1.9 3.2s-2.1 1.5-3.2.9c-.8-.4-1.2-1.2-1.2-2 0-.5 0-.9.3-1.3zm4-6.9c.6-1.1 2.1-1.5 3.2-.8 1.1.6 1.5 2 .9 3.2-.6 1.1-2.1 1.5-3.2.9-.8-.4-1.2-1.2-1.2-2 0-.5.1-.9.3-1.3zm4-6.9c.6-1.1 2.1-1.5 3.2-.8 1.1.6 1.5 2 .9 3.2-.6 1.1-2.1 1.5-3.2.8-.8-.4-1.2-1.2-1.2-2 0-.5.1-.8.3-1.2zm4-6.9c.6-1.1 2-1.5 3.2-.8 1.1.6 1.5 2.1.9 3.2s-2.1 1.5-3.2.9c-.8-.4-1.2-1.2-1.2-2 0-.5.1-.9.3-1.3zm4-6.9c.6-1.1 2.1-1.5 3.2-.8 1.1.6 1.5 2 .9 3.2-.6 1.1-2 1.5-3.2.9-.8-.4-1.2-1.2-1.2-2 0-.6.1-1 .3-1.3zm4.1-6.9c.6-1.1 2.1-1.5 3.2-.8 1.1.6 1.5 2 .8 3.2-.6 1.1-2.1 1.5-3.2.8-.8-.4-1.2-1.2-1.2-2 0-.4.1-.8.4-1.2zm4-6.9c.6-1.1 2.1-1.5 3.2-.8 1.1.6 1.5 2.1.9 3.2s-2.1 1.5-3.2.8c-.8-.4-1.2-1.2-1.2-2-.1-.5 0-.9.3-1.2zm3.9-6.9c.6-1.1 2.1-1.5 3.2-.8 1.1.6 1.5 2.1.9 3.2s-2.1 1.5-3.2.9c-.8-.4-1.2-1.2-1.2-2 0-.6.2-.9.3-1.3zm4.1-6.9c.6-1.1 2.1-1.5 3.2-.8 1.1.6 1.5 2 .8 3.2-.6 1.1-2.1 1.5-3.2.9-.8-.4-1.2-1.2-1.2-2 .1-.6.2-1 .4-1.3zm4-6.9c.6-1.1 2.1-1.5 3.2-.8 1.1.6 1.5 2 .9 3.2-.6 1.1-2.1 1.5-3.2.8-.8-.4-1.2-1.2-1.2-2 0-.5.1-.9.3-1.2zm4-7c.6-1.1 2.1-1.5 3.2-.8 1.1.6 1.5 2.1.9 3.2s-2.1 1.5-3.2.9c-.8-.4-1.2-1.2-1.2-2 0-.5.1-.9.3-1.3zm4-6.8c.6-1.1 2.1-1.5 3.2-.8 1.1.6 1.5 2.1.8 3.2-.6 1.1-2.1 1.5-3.2.9-.8-.4-1.2-1.2-1.2-2 .1-.6.2-1 .4-1.3zm3.7-5.8c0-.6.2-1.2.7-1.6l.3-.3c.1-.1.2-.2.4-.2.1-.1.3-.1.5-.1s.3-.1.5-.1.3 0 .5.1.3.1.5.1c.1.1.3.1.4.2l.3.3c.5.5.8 1.3.6 2.1 0 .1-.1.3-.1.4s-.1.3-.2.4l-.3.3-.3.3c-.1.1-.3.2-.4.2-.1.1-.3.1-.5.1-.1 0-.3.1-.5.1s-.3 0-.5-.1c-.1-.1-.3-.1-.5-.1-.1-.1-.3-.1-.4-.2l-.3-.3-.3-.3c-.1-.1-.2-.2-.2-.4-.1-.1-.1-.3-.1-.4-.1-.2-.1-.3-.1-.5z"/><path class="st1" d="m389.6 93.8-27.1 46.9h54.2zm33.6 31.3 27.2-46.9h-54.2z"/><path class="st3" d="M540.1 139.7 601.8 32v26.2l-46.6 81.5zm39-80.4v-3.4l-48.7 83.8h2z"/><path class="st0" d="M327.1 61.1v-3.4l-47.6 82h2z"/><path class="st3" d="m16.8 126.8 51.7-89.6H56.3l-39.5 68.5z"/><path class="st0" d="M59.1 37.3-.8 141.1v-38.8l37.6-65zm10.8 55.1 32-55.1h-2l-30 51.6zM55.1 91l31.2-53.7h-2L55.1 87.5z"/><path class="st1" d="m238.6 109.6-17.3 30.1H256z"/><path class="st0" d="M206.8 90.1v-3.4l-30.8 53h2zm17.2-2.7v-3.5l-32.4 55.8h2z"/><path class="st1" d="M141.4 123.4v-14.3h-.1l-17.6 30.6h8.3z"/><path class="st2" d="m151.2 56.1-48.3 83.6h22.4l25.9-44.8zm-16.4 12.6v-3.5l-33 56.8v3.5z"/><path class="st0" d="m535.8 71.1-.6-2.7-2.3 1.5 1.5-2.4-2.8-.6 2.8-.6-1.5-2.4 2.3 1.5.6-2.8.7 2.8 2.4-1.5-1.6 2.4 2.8.6-2.8.6 1.6 2.4-2.4-1.5z"/><path class="st2" d="m324.5 30.3-.6-2.8-2.4 1.5 1.6-2.4-2.8-.5 2.8-.7-1.6-2.4 2.4 1.5.6-2.7.7 2.7 2.3-1.5-1.5 2.4 2.8.7-2.8.5 1.5 2.4-2.3-1.5zm-50.9 85.2-.6-2.7-2.3 1.5 1.5-2.4-2.8-.6 2.8-.6-1.5-2.4 2.3 1.5.6-2.7.6 2.7 2.4-1.5-1.5 2.4 2.7.6-2.7.6 1.5 2.4-2.4-1.5zM184.2 92l-.7-2.8-2.3 1.5 1.5-2.4-2.7-.6 2.7-.6-1.5-2.4 2.3 1.5.7-2.7.5 2.7 2.4-1.5-1.5 2.4 2.7.6-2.7.6 1.5 2.4-2.4-1.5z"/><path class="st1" d="m207.8 25.2.5-.3 57.7 99.9h115v.6H265.6l-.1-.2z"/><path class="st2" d="M507.1 20H499l-44.9 77.8h8z"/><path class="st3" d="m525 76.5-1.5-5.4-5.5 1.4-1.3 2.3 5.6-1.5 1.4 5.5zm-3.8 6.8-1.6-5.6-5.4 1.5-1.4 2.3 5.6-1.5 1.4 5.5zm-3.9 6.7-1.5-5.6-5.5 1.5-1.4 2.3 5.6-1.5 1.4 5.5zm-3.9 6.7-1.5-5.6-5.5 1.5-1.4 2.3 5.6-1.5 1.4 5.5zm-3.9 6.7-1.5-5.6-5.5 1.5-1.3 2.3 5.5-1.5 1.5 5.5z"/><path class="st1" d="m115.8 67.4 1.5 5.5 5.4-1.4 1.4-2.3-5.5 1.4-1.5-5.5zm3.9-6.7 1.4 5.5 5.5-1.4 1.4-2.3-5.5 1.4-1.5-5.5zm3.9-6.7 1.4 5.5 5.5-1.4 1.4-2.3-5.5 1.5-1.5-5.6zm3.9-6.7 1.4 5.5 5.5-1.4 1.3-2.3-5.4 1.5-1.6-5.6zm3.9-6.7 1.4 5.5 5.5-1.5 1.3-2.2-5.5 1.5-1.5-5.6z"/></svg>