<svg version="1.1" id="Layer_1" xmlns="http://www.w3.org/2000/svg" x="0" y="0" viewBox="0 0 1211.2 144" xml:space="preserve"><style>.st0{fill:#dbdbdb}.st1{fill:#e7b565}.st2{fill:#574e51}.st3{fill:#bf6a58}.st5{fill:#fed401}.st10{fill:#c780fa}</style><path class="st0" d="M56.9 78C20.4 78-.9 77-1.3 77l.1-1.2c.8 0 79.1 3.9 194.2-3.3C299.3 65.8 459.7 47.9 620 .9l.3 1.2C459.9 49 299.4 66.9 193 73.6 137.6 77.1 90.7 78 56.9 78z"/><path class="st1" d="m70.5 128.7-24.9-12.5-24.9 12.4.2-52.9 49.7.2z"/><path class="st2" d="M146.2 126.9 121 115l-24.6 13.1L95 75.2l49.8-1.2z"/><path class="st3" d="M223.5 122.3 198 111.5l-24.1 14-3.3-52.8 49.6-3.1z"/><path class="st1" d="m300.7 114.8-26.1-9.7-23.5 14.9-5.4-52.6 49.4-5.1z"/><path class="st2" d="m378 105.3-26.3-8.9-23 15.6-7.2-52.4 49.3-6.7z"/><path class="st3" d="M452.6 92.6 426 84.5l-22.3 16.4-8.8-52.3 49-8.2z"/><path class="st1" d="m528.6 77.3-26.9-7.1L480 87.4l-10.8-51.7 48.6-10.2z"/><path class="st2" d="m603.9 59-27.1-6-21.1 18-12.8-51.3 48.1-12z"/><path class="st0" d="M527.5 92.9c-131.8 0-253.2-15-338.3-29.2C75.7 44.8.5 23.3-.2 23.1l.3-1.2c.8.2 75.9 21.7 189.4 40.6C294.2 79.9 454 98.6 620.3 89l.1 1.2c-31.3 1.9-62.4 2.7-92.9 2.7z"/><path fill="#146c94" d="M57.8 89.6 36.5 72 9.6 78.2l12.1-51.3 48.2 11.4z"/><path class="st5" d="m131.8 104.8-21.9-17.2-26.7 7.2 10.6-51.6 48.5 9.8z"/><path fill="#19a7ce" d="m207.8 117.8-22.3-16.3-26.5 8.2 8.6-52 48.8 8.2z"/><path fill="#afd3e2" d="m284.5 127.8-23.2-15.3-26.1 9.2 6.6-52.2 49.1 6.1z"/><path class="st5" d="m361.7 135.9-23.6-14.5-25.8 10 4.9-52.4 49.2 4.4z"/><path class="st1" d="m437 140.5-24-14-25.5 11 3.3-52.7 49.5 3.1z"/><path fill="#f4d160" d="m514.2 142.8-24.5-13-25 11.8 1.2-52.8 49.6 1.3z"/><path fill="#75c2f6" d="m591.5 141.9-25-11.9-24.6 12.8-.9-52.7 49.6-.9z"/><g id="_x3C_Group2_x3E_"><path class="st0" d="M1154.1 78c36.5 0 57.8-1.1 58.2-1.1l-.1-1.2c-.8 0-79.1 3.9-194.2-3.3C911.7 65.7 751.3 47.8 591 .8l-.3 1.2C751.1 49 911.6 66.9 1018 73.6c55.4 3.5 102.3 4.4 136.1 4.4z"/><path class="st1" d="m1140.3 75.9 49.8-.2.1 52.9-24.8-12.4-24.9 12.5z"/><path class="st2" d="m1066.2 74 49.7 1.2-1.4 52.9L1090 115l-25.2 11.9z"/><path class="st3" d="m990.8 69.6 49.6 3.1-3.3 52.8-24.1-14-25.5 10.8z"/><path class="st1" d="m915.9 62.3 49.4 5.1-5.5 52.6-23.4-14.9-26.1 9.7z"/><path class="st2" d="m840.2 52.9 49.3 6.7-7.2 52.4-23-15.6-26.3 8.9z"/><path class="st3" d="m767.1 40.4 49 8.2-8.8 52.3L785 84.5l-26.6 8.1z"/><path class="st1" d="m693.1 25.5 48.7 10.2L731 87.4l-21.7-17.2-26.9 7.1z"/><path class="st2" d="m619.9 7.7 48.2 12L655.3 71l-21.1-18-27.1 6z"/><path class="st0" d="M683.5 92.9c131.8 0 253.2-15 338.3-29.2 113.6-18.9 188.7-40.3 189.5-40.5l-.3-1.2c-.7.2-75.9 21.6-189.4 40.5C916.8 79.9 757 98.6 590.7 89l-.1 1.2c31.3 1.9 62.4 2.7 92.9 2.7z"/><path class="st10" d="m1141.1 38.3 48.2-11.4 12.1 51.3-27-6.2-21.2 17.6z"/><path fill="#f86f03" d="m1068.7 53 48.5-9.8 10.6 51.6-26.7-7.2-21.9 17.2z"/><path fill="#525fe1" d="m994.6 65.9 48.8-8.2 8.6 52-26.5-8.2-22.3 16.3z"/><path fill="#b8dfd8" d="m920.1 75.6 49.1-6.1 6.6 52.2-26.1-9.2-23.2 15.3z"/><path fill="#fada9d" d="m844.6 83.4 49.2-4.4 4.9 52.4-25.8-10-23.6 14.5z"/><path class="st10" d="m770.7 87.9 49.5-3.1 3.2 52.7-25.5-11-23.9 14z"/><path fill="#ff6793" d="m695.5 90.1 49.6-1.3 1.2 52.8-25-11.8-24.6 13z"/><path fill="#1d5d9b" d="m620.4 89.2 49.6.9-.9 52.7-24.6-12.8-25 11.9z"/></g></svg>