<svg version="1.1" id="Layer_1" xmlns="http://www.w3.org/2000/svg" x="0" y="0" viewBox="0 0 1110 144" xml:space="preserve"><style>.st2{fill:#9a5eab}.st3{fill:#f98d47}</style><linearGradient id="SVGID_1_" gradientUnits="userSpaceOnUse" x1="277.505" y1="-.594" x2="277.505" y2="89.024"><stop offset="0" stop-color="#f9d5b1"/><stop offset="1" stop-color="#fff"/></linearGradient><path fill="url(#SVGID_1_)" d="M555 142V15.2h-12v30.7h-18V58h-24.2V2h-19.1v39h-9.9l-8.6-8.6h-9.7V16.5h-27.4v29.7h-27.9v10.2h-10.8V41h-21.7v17h-23.1V34.6h-36.3V58h-23.1V41h-21.7v15.4h-10.8V46.2h-28V3.9h-27.3v28.5h-9.7l-8.6 8.6h-10V28.6h-19V58h-24.2V34.6h-18V22.5H84.7v47.1h-9.2l-9.1-21.1h-23V41H19.8v38.2H7.1v48.2H0V142z"/><linearGradient id="SVGID_00000176016963966353727960000011907119400939652004_" gradientUnits="userSpaceOnUse" x1="832.515" y1="-.594" x2="832.515" y2="89.024"><stop offset="0" stop-color="#f9d5b1"/><stop offset="1" stop-color="#fff"/></linearGradient><path fill="url(#SVGID_00000176016963966353727960000011907119400939652004_)" d="M1110 142V15.2h-12v30.7h-18V58h-24.2V2h-19v39h-10l-8.6-8.6h-9.7V16.5h-27.4v29.7h-27.9v10.2h-10.8V41h-21.7v17h-23.1V34.6h-36.3V58h-23.1V41h-21.7v15.4h-10.8V46.2h-27.9V3.9h-27.4v28.5h-9.7l-8.6 8.6h-10V28.6h-19V58h-24.2V34.6h-18V22.5h-21.2v47.1h-9.2l-9.1-21.1h-23V41h-23.6v38.2h-12.6v48.2H555V142z"/><g id="_x31_"><path class="st2" d="M86.8 19.8 68 65.4l44.9-32.2s-15-5.5-26.1-13.4z"/><path class="st3" d="m112.9 33.2-10.4 52.3 40.4-40.2c0 .1-25.9-8.5-30-12.1z"/><path class="st2" d="m142.9 45.4-2.2 55.4 34.2-45.7z"/><path class="st3" d="m174.9 55.1 4.1 56 31.5-48.7z"/><path class="st2" d="m210.5 62.4 9 54 28.6-50z"/><path class="st3" d="m248.1 66.4 16.9 54.7 19.4-54.2z"/><path class="st2" d="m284.4 66.9 25 52.8L325 63.6z"/><path class="st3" d="m325 63.6 31.1 48.6 6.6-55.5z"/><path class="st2" d="m362.7 56.7 40.9 44.5-5.3-54.7z"/><path class="st3" d="m398.3 46.5 45.2 37.9L433 32.8z"/><path class="st2" d="m433 32.8 46.2 31.9-18.8-45.9z"/><path class="st3" d="M460.4 18.8 502.6 43 485 1.1zm-373.6 1L44 43.1l18.5-42z"/></g><g id="_x31__00000177449731672306814270000014514975834641999533_"><path class="st2" d="m649.7 19.8-18.8 45.7 44.9-32.2c0-.1-15-5.6-26.1-13.5z"/><path class="st3" d="m675.8 33.2-10.4 52.3 40.4-40.2c.1.1-25.9-8.5-30-12.1z"/><path class="st2" d="m705.9 45.4-2.2 55.4 34.1-45.7z"/><path class="st3" d="m737.8 55.1 4.1 56 31.5-48.7z"/><path class="st2" d="m773.4 62.4 9 54 28.7-50z"/><path class="st3" d="m811.1 66.4 16.8 54.7 19.4-54.2z"/><path class="st2" d="m847.3 66.9 25 52.8 15.6-56.1z"/><path class="st3" d="m887.9 63.6 31.2 48.6 6.5-55.5z"/><path class="st2" d="m925.6 56.7 40.9 44.5-5.2-54.7z"/><path class="st3" d="m961.3 46.5 45.2 37.9-10.6-51.6z"/><path class="st2" d="m995.9 32.8 46.2 31.9-18.8-45.9z"/><path class="st3" d="m1023.3 18.8 42.2 24.2-17.6-41.9zm-373.6 1-42.8 23.3 18.6-42z"/></g><path d="m527.8 55.6 10.4-13.8-9.9-14.1 16.3 5.6L555 19.5l-.3 17.2 16.3 5.7-16.5 5-.3 17.3-9.9-14.2zm-37.3 33.6 12.2-1.6 2.2-12.1 5.3 11.1 12.2-1.6-8.9 8.5 5.3 11.1-10.8-5.9-8.9 8.5 2.2-12.1zm52.6 33.9 13.2-6.5-2.1-14.4 10.2 10.4 13.1-6.4-6.8 12.9 10.2 10.5-14.4-2.5-6.9 13-2-14.5zM589 85.9l14.3-9.2-4.4-16.3 13.2 10.7 14.2-9.2-6.1 15.8 13.1 10.7-16.9-1-6.1 15.8-4.4-16.3zM482.8 53.4l8.7-4.4-1.5-9.6 6.9 6.9 8.7-4.3-4.5 8.6 6.9 7-9.7-1.6-4.5 8.6-1.4-9.6zm146.5 82.3 6.8-5.2-2.8-8.1 7.1 4.9 6.8-5.2-2.5 8.3 7.1 4.9-8.6.1-2.5 8.3-2.8-8.1z" fill="#fccb9d"/></svg>