<svg version="1.1" id="Layer_1" xmlns="http://www.w3.org/2000/svg" x="0" y="0" viewBox="0 0 1529.8 144" xml:space="preserve"><style>.st0,.st1{stroke-width:.4799;stroke-linecap:round;stroke-linejoin:round;stroke-miterlimit:22.9256;fill-rule:evenodd;clip-rule:evenodd}.st0{fill:#e51954;stroke:#e51954}.st1{stroke:#fcb15b}.st1,.st2{fill:#fcb15b}.st2,.st3,.st4{fill-rule:evenodd;clip-rule:evenodd}.st3{fill:#e51954}.st4{opacity:.5;fill:#6748bd;enable-background:new}.st5{fill:#ddd}</style><path class="st0" d="M137.1 3.8c.3-.1.7.1.8.4.1.3-.1.7-.4.8-1.9.6-3.3 1.6-4.3 2.8-.9 1.1-1.4 2.5-1.5 3.8-.1 1.4.3 2.7 1.1 4 .1.1.2.3.3.4 1.1-.9 2.3-1.7 3.8-2.1 2.5-.8 4.2-.2 5.3.9.7.8 1.1 1.8 1.1 2.8s-.5 2-1.3 2.6c-1.1.8-2.9 1.1-5.4 0-1.4-.6-2.6-1.4-3.5-2.4-.5.5-.9 1.1-1.2 1.7-.5.9-.8 1.9-.9 3-.1 1 0 2.1.3 3.1.3.9.8 1.8 1.4 2.6 1.1-1.2 2.5-2.1 4-2.4 2.5-.5 4.3.4 5.3 1.7.6.8.9 1.9.8 2.8-.1 1-.6 1.9-1.5 2.4-1.2.7-3.1.7-5.8-.7-1.1-.6-2.1-1.2-2.9-2v.1c-.7 1.1-1.3 2.3-1.6 3.6s-.4 2.7-.1 4c.4 1.9 1.4 3.6 3.4 5 .3.2.3.6.2.8-.2.3-.6.3-.8.2-2.2-1.5-3.4-3.6-3.9-5.7-.3-1.5-.2-3.1.1-4.5.3-1.5 1-2.9 1.8-4.1l.2-.3c-.8-1-1.4-2.1-1.8-3.2-.4-1.2-.5-2.4-.4-3.6s.5-2.3 1-3.4c.4-.7.9-1.5 1.4-2.1-.1-.2-.3-.4-.4-.6-.9-1.5-1.3-3.1-1.3-4.7.1-1.6.7-3.2 1.7-4.5 1.3-1.4 2.9-2.6 5-3.2h0zm-3.2 13c.8.8 1.8 1.6 3.1 2.1 2 .9 3.4.8 4.2.2.5-.4.8-1.1.9-1.7 0-.7-.2-1.4-.7-1.9-.7-.8-2.1-1.2-4.1-.5-1.4.3-2.5 1-3.4 1.8h0zm-.4 12.1c.7.7 1.6 1.3 2.7 1.9 2.3 1.2 3.8 1.2 4.6.7.5-.3.8-.8.9-1.4.1-.7-.2-1.4-.6-2-.7-1-2.1-1.7-4.1-1.3-1.3.2-2.5 1-3.5 2.1z"/><path class="st1" d="M548.5 101.7c.3-.1.7.1.8.4.1.3-.1.7-.4.8-1.9.6-3.3 1.6-4.3 2.8-.9 1.1-1.4 2.5-1.5 3.8-.1 1.4.3 2.7 1.1 4 .1.1.2.3.3.4 1.1-.9 2.3-1.7 3.8-2.1 2.5-.8 4.2-.2 5.3.9.7.8 1.1 1.8 1.1 2.8s-.5 2-1.3 2.6c-1.1.8-2.9 1.1-5.4 0-1.4-.6-2.6-1.4-3.5-2.4-.5.5-.9 1.1-1.2 1.7-.5.9-.8 1.9-.9 3-.1 1 0 2.1.3 3.1.3.9.8 1.8 1.4 2.6 1.1-1.2 2.5-2.1 4-2.4 2.5-.5 4.3.4 5.3 1.7.6.8.9 1.9.8 2.8-.1 1-.6 1.9-1.5 2.4-1.2.7-3.1.7-5.8-.7-1.1-.6-2.1-1.2-2.9-2v.1c-.7 1.1-1.3 2.3-1.6 3.6-.3 1.3-.4 2.7-.1 4h0c.4 1.9 1.4 3.6 3.4 5 .3.2.3.6.2.8-.2.3-.6.3-.8.2-2.2-1.5-3.4-3.5-3.9-5.7h0c-.3-1.5-.2-3.1.1-4.5.3-1.5 1-2.9 1.8-4.1l.2-.3c-.8-1-1.4-2.1-1.8-3.2-.4-1.2-.5-2.4-.4-3.6.1-1.2.5-2.3 1-3.4.4-.7.9-1.5 1.4-2.1-.1-.2-.3-.4-.4-.6-.9-1.5-1.3-3.1-1.3-4.7.1-1.6.7-3.2 1.7-4.5 1.3-1.4 2.9-2.6 5-3.2h0zm-3.3 13c.8.8 1.8 1.6 3.1 2.1 2 .9 3.4.8 4.2.2.5-.4.8-1.1.9-1.7 0-.7-.2-1.4-.7-1.9-.7-.8-2.1-1.2-4.1-.5-1.3.3-2.5 1-3.4 1.8h0zm-.3 12.1c.7.7 1.6 1.3 2.7 1.9 2.3 1.2 3.8 1.2 4.6.7.5-.3.8-.8.9-1.4.1-.7-.2-1.4-.6-2-.7-1-2.1-1.7-4.1-1.3-1.3.2-2.5 1-3.5 2.1zM258.4 52.6c-.3-.1-.5-.4-.4-.8.1-.3.4-.5.8-.4 2.1.7 3.7 1.8 4.8 3.2 1.1 1.3 1.7 2.9 1.7 4.5.1 1.6-.3 3.2-1.3 4.7-.1.2-.3.4-.4.6.6.6 1.1 1.3 1.4 2.1.5 1.1.9 2.2 1 3.4s0 2.4-.4 3.6c-.7 2.3-2.5 4.5-5.5 6-.3.1-.7 0-.8-.3-.1-.3 0-.7.3-.8 2.7-1.4 4.2-3.3 4.9-5.3.3-1 .4-2.1.3-3.1s-.4-2-.9-3c-.3-.6-.7-1.2-1.2-1.7-.9.9-2 1.7-3.5 2.4-2.5 1.1-4.3.9-5.4 0-.9-.6-1.3-1.6-1.3-2.6s.3-2 1.1-2.8c1-1.1 2.8-1.6 5.3-.9 1.5.5 2.7 1.2 3.8 2.1.1-.1.2-.3.3-.4.8-1.3 1.1-2.6 1.1-4-.1-1.3-.6-2.7-1.5-3.8-.9-1.1-2.3-2.1-4.2-2.7h0zm.5 14c1.3-.6 2.3-1.3 3.1-2.1-.9-.8-2.1-1.5-3.4-1.9-2-.6-3.3-.2-4.1.5-.5.5-.7 1.2-.7 1.9s.3 1.3.9 1.7c.9.7 2.3.8 4.2-.1z"/><path class="st0" d="M952.7 87.7c-.3-.1-.5-.4-.4-.8.1-.3.4-.5.8-.4 2.1.7 3.7 1.8 4.8 3.2 1.1 1.3 1.7 2.9 1.7 4.5.1 1.6-.3 3.2-1.3 4.7-.1.2-.3.4-.4.6.6.6 1.1 1.3 1.4 2.1.5 1.1.9 2.2 1 3.4.1 1.2 0 2.4-.4 3.6-.7 2.3-2.5 4.5-5.5 6-.3.1-.7 0-.8-.3-.1-.3 0-.7.3-.8 2.7-1.4 4.2-3.3 4.9-5.3.3-1 .4-2.1.3-3.1-.1-1-.4-2-.9-3-.3-.6-.7-1.2-1.2-1.7-.9.9-2 1.7-3.5 2.4-2.5 1.1-4.3.9-5.4 0-.9-.6-1.3-1.6-1.3-2.6s.3-2 1.1-2.8c1-1.1 2.8-1.6 5.3-.9 1.5.5 2.7 1.2 3.8 2.1.1-.1.2-.3.3-.4.8-1.3 1.1-2.6 1.1-4-.1-1.3-.6-2.7-1.5-3.8-.9-1.1-2.3-2.1-4.2-2.7h0zm.6 14c1.3-.6 2.3-1.3 3.1-2.1-.9-.8-2.1-1.5-3.4-1.9-2-.6-3.3-.2-4.1.5-.5.5-.7 1.2-.7 1.9s.3 1.3.9 1.7c.8.7 2.2.8 4.2-.1zm534-72.5c.3.1.4.5.3.8s-.5.4-.8.3c-2-1-3.4-2.3-4.3-3.9-.9-1.5-1.2-3.1-1.1-4.7s.8-3.1 1.9-4.5c.2-.2.3-.4.5-.5-.5-.7-.8-1.5-1.1-2.3-.4-1.1-.6-2.3-.5-3.5.1-1.2.4-2.4.9-3.5 1.1-2.2 3.1-4.1 6.3-5.2.3-.1.7.1.8.4.1.3-.1.7-.4.8-2.9 1-4.7 2.6-5.6 4.6-.5 1-.7 2-.8 3-.1 1 .1 2.1.4 3.1.2.7.5 1.3.9 1.9 1-.8 2.3-1.4 3.8-1.8 2.6-.7 4.3-.2 5.3.8.7.8 1 1.8.9 2.8s-.6 2-1.5 2.6c-1.2.9-3 1.2-5.3.1-1.4-.7-2.5-1.6-3.4-2.7l-.3.3c-1 1.1-1.5 2.4-1.6 3.8-.1 1.3.2 2.7.9 4 .8 1.2 2.1 2.4 3.8 3.3h0zm1.6-13.9c-1.3.4-2.5 1-3.4 1.6.8 1 1.8 1.8 3 2.4 1.8.9 3.2.7 4.1.1.6-.4.9-1.1 1-1.8.1-.7-.1-1.3-.6-1.8-.7-.8-2-1.1-4.1-.5z"/><path class="st2" d="M347.5.9c.3-.1.7.1.8.4.1.3-.1.7-.4.8-1.9.6-3.3 1.6-4.3 2.8-.9 1.1-1.4 2.5-1.5 3.8-.1 1.4.3 2.7 1.1 4 .1.1.2.3.3.4 1.1-.9 2.3-1.7 3.8-2.1 2.5-.8 4.2-.2 5.3.9.7.8 1.1 1.8 1.1 2.8s-.5 2-1.3 2.6c-1.1.8-2.9 1.1-5.4 0-1.4-.6-2.6-1.4-3.5-2.4-.5.5-.9 1.1-1.2 1.7-.5.9-.8 1.9-.9 3-.1 1 0 2.1.3 3.1.3.9.8 1.8 1.4 2.6 1.1-1.2 2.5-2.1 4-2.4 2.5-.5 4.3.4 5.3 1.7.6.8.9 1.9.8 2.8-.1 1-.6 1.9-1.5 2.4-1.2.7-3.1.7-5.8-.7-1.1-.6-2.1-1.2-2.9-2v.1c-.7 1.1-1.3 2.3-1.6 3.6-.3 1.3-.4 2.7-.1 4 .4 1.9 1.4 3.6 3.4 5 .3.2.3.6.2.8-.2.3-.6.3-.8.2-2.2-1.5-3.4-3.6-3.9-5.7-.3-1.5-.2-3.1.1-4.5.3-1.5 1-2.9 1.8-4.1l.2-.3c-.8-1-1.4-2.1-1.8-3.2-.4-1.2-.5-2.4-.4-3.6s.5-2.3 1-3.4c.4-.7.9-1.5 1.4-2.1-.1-.2-.3-.4-.4-.6-.9-1.5-1.3-3.1-1.3-4.7.1-1.6.7-3.2 1.7-4.5 1.3-1.3 2.9-2.5 5-3.2zM344.2 14c.8.8 1.8 1.6 3.1 2.1 2 .9 3.4.8 4.2.2.5-.4.8-1.1.9-1.7 0-.7-.2-1.4-.7-1.9-.7-.8-2.1-1.2-4.1-.5-1.3.3-2.5.9-3.4 1.8zm-.3 12.1c.7.7 1.6 1.3 2.7 1.9 2.3 1.2 3.8 1.2 4.6.7.5-.3.8-.8.9-1.4.1-.7-.2-1.4-.6-2-.7-1-2.1-1.7-4.1-1.3-1.3.2-2.5 1-3.5 2.1z"/><path class="st3" d="M501.9 2.3c-.3-.1-.5-.4-.4-.8.1-.3.4-.5.8-.4 2.1.7 3.7 1.8 4.8 3.2 1.1 1.3 1.7 2.9 1.7 4.5.1 1.6-.3 3.2-1.3 4.7-.1.2-.3.4-.4.6.6.6 1.1 1.3 1.4 2.1.5 1.1.9 2.2 1 3.4.1 1.2 0 2.4-.4 3.6-.7 2.3-2.5 4.5-5.5 6-.3.1-.7 0-.8-.3s0-.7.3-.8c2.7-1.4 4.2-3.3 4.9-5.3.3-1 .4-2.1.3-3.1s-.4-2-.9-3c-.3-.6-.7-1.2-1.2-1.7-.9.9-2 1.7-3.5 2.4-2.5 1.1-4.3.9-5.4 0-.9-.6-1.3-1.6-1.3-2.6s.3-2 1.1-2.8c1-1.1 2.8-1.6 5.3-.9 1.5.5 2.7 1.2 3.8 2.1.1-.1.2-.3.3-.4.8-1.3 1.1-2.6 1.1-4-.1-1.3-.6-2.7-1.5-3.8-.9-1.1-2.3-2.1-4.2-2.7zm.6 14.1c1.3-.6 2.3-1.3 3.1-2.1-.9-.8-2.1-1.5-3.4-1.9-2-.6-3.3-.2-4.1.5-.5.5-.7 1.2-.7 1.9s.3 1.3.9 1.7c.8.6 2.2.8 4.2-.1z"/><path class="st2" d="M1412 40.5c.3-.1.7.1.8.4s-.1.7-.4.8c-1.9.6-3.3 1.6-4.3 2.8-.9 1.1-1.4 2.5-1.5 3.8-.1 1.4.3 2.7 1.1 4 .1.1.2.3.3.4 1.1-.9 2.3-1.7 3.8-2.1 2.5-.8 4.2-.2 5.3.9.7.8 1.1 1.8 1.1 2.8s-.5 2-1.3 2.6c-1.1.8-2.9 1.1-5.4 0-1.4-.6-2.6-1.4-3.5-2.4-.5.5-.9 1.1-1.2 1.7-.5.9-.8 1.9-.9 3-.1 1 0 2.1.3 3.1.6 2 2.2 4 4.9 5.3.3.1.4.5.3.8-.1.3-.5.4-.8.3-3-1.5-4.7-3.7-5.5-6-.4-1.2-.5-2.4-.4-3.6.1-1.2.5-2.3 1-3.4.4-.7.9-1.5 1.4-2.1-.1-.2-.3-.4-.4-.6-.9-1.5-1.3-3.1-1.3-4.7.1-1.6.7-3.2 1.7-4.5 1.2-1.5 2.8-2.6 4.9-3.3zm-3.3 13c.8.8 1.8 1.6 3.1 2.1 2 .9 3.4.8 4.2.2.5-.4.8-1.1.9-1.7 0-.7-.2-1.4-.7-1.9-.7-.8-2.1-1.2-4.1-.5-1.3.4-2.5 1-3.4 1.8zm-1129.4.8c.7 0 1.3-.6 1.3-1.3s-.6-1.3-1.3-1.3-1.3.6-1.3 1.3c-.1.7.5 1.3 1.3 1.3zM164.8 67.8c.7 0 1.3-.6 1.3-1.3 0-.7-.6-1.3-1.3-1.3s-1.3.6-1.3 1.3c0 .7.6 1.3 1.3 1.3z"/><path class="st3" d="M918.7 116.6c.7 0 1.3-.6 1.3-1.3s-.6-1.3-1.3-1.3c-.7 0-1.3.6-1.3 1.3 0 .7.6 1.3 1.3 1.3z"/><path class="st2" d="M802.3 59.7c.7 0 1.3-.6 1.3-1.3s-.6-1.3-1.3-1.3-1.3.6-1.3 1.3.6 1.3 1.3 1.3zM558 28.4c.7 0 1.3-.6 1.3-1.3s-.6-1.3-1.3-1.3-1.3.6-1.3 1.3.6 1.3 1.3 1.3z"/><path class="st3" d="M524.1 96.8c.7 0 1.3-.6 1.3-1.3s-.6-1.3-1.3-1.3-1.3.6-1.3 1.3c0 .7.6 1.3 1.3 1.3zm63.3 38.4c.7 0 1.3-.6 1.3-1.3s-.6-1.3-1.3-1.3c-.7 0-1.3.6-1.3 1.3s.6 1.3 1.3 1.3z"/><path class="st2" d="M1011.8 116.3c.7 0 1.3-.6 1.3-1.3 0-.7-.6-1.3-1.3-1.3-.7 0-1.3.6-1.3 1.3 0 .7.6 1.3 1.3 1.3z"/><path class="st3" d="M1091.7 118.8c.7 0 1.3-.6 1.3-1.3 0-.7-.6-1.3-1.3-1.3-.7 0-1.3.6-1.3 1.3 0 .7.6 1.3 1.3 1.3z"/><path class="st2" d="M999 45.3c.7 0 1.3-.6 1.3-1.3 0-.7-.6-1.3-1.3-1.3s-1.3.6-1.3 1.3c0 .7.6 1.3 1.3 1.3zM875.2 91.7c.7 0 1.3-.6 1.3-1.3s-.6-1.3-1.3-1.3c-.7 0-1.3.6-1.3 1.3 0 .7.6 1.3 1.3 1.3zM629.7 29c.7 0 1.3-.6 1.3-1.3s-.6-1.3-1.3-1.3c-.7 0-1.3.6-1.3 1.3-.1.7.5 1.3 1.3 1.3zM178.9 51.8c.7 0 1.3-.6 1.3-1.3s-.6-1.3-1.3-1.3-1.3.6-1.3 1.3c-.1.7.5 1.3 1.3 1.3zm197.6-20.5c.7 0 1.3-.6 1.3-1.3 0-.7-.6-1.3-1.3-1.3s-1.3.6-1.3 1.3c-.1.7.5 1.3 1.3 1.3z"/><path class="st3" d="M93.8 31.3c.7 0 1.3-.6 1.3-1.3 0-.7-.6-1.3-1.3-1.3-.7 0-1.3.6-1.3 1.3 0 .7.6 1.3 1.3 1.3z"/><path class="st2" d="M26 35.2c.7 0 1.3-.6 1.3-1.3s-.6-1.3-1.3-1.3-1.3.6-1.3 1.3c0 .7.6 1.3 1.3 1.3zm399.7 83.7c.7 0 1.3-.6 1.3-1.3 0-.7-.6-1.3-1.3-1.3s-1.3.6-1.3 1.3c0 .7.6 1.3 1.3 1.3zm-58.8 7.7c.7 0 1.3-.6 1.3-1.3 0-.7-.6-1.3-1.3-1.3-.7 0-1.3.6-1.3 1.3s.6 1.3 1.3 1.3zM97 121.5c.7 0 1.3-.6 1.3-1.3 0-.7-.6-1.3-1.3-1.3-.7 0-1.3.6-1.3 1.3s.6 1.3 1.3 1.3zm497.5-62.4c.7 0 1.3-.6 1.3-1.3s-.6-1.3-1.3-1.3-1.3.6-1.3 1.3c-.1.7.5 1.3 1.3 1.3zm146.4-28.8c.7 0 1.3-.6 1.3-1.3s-.6-1.3-1.3-1.3-1.3.6-1.3 1.3c0 .7.6 1.3 1.3 1.3zm-19.2 39.6c.7 0 1.3-.6 1.3-1.3s-.6-1.3-1.3-1.3c-.7 0-1.3.6-1.3 1.3s.6 1.3 1.3 1.3zM852.8 36c.7 0 1.3-.6 1.3-1.3s-.6-1.3-1.3-1.3c-.7 0-1.3.6-1.3 1.3 0 .7.6 1.3 1.3 1.3zM208.3 59.5c.7 0 1.3-.6 1.3-1.3s-.6-1.3-1.3-1.3-1.3.6-1.3 1.3c-.1.7.5 1.3 1.3 1.3zM295 44.1c.7 0 1.3-.6 1.3-1.3s-.6-1.3-1.3-1.3-1.3.6-1.3 1.3.6 1.3 1.3 1.3zM59.8 81c.7 0 1.3-.6 1.3-1.3 0-.7-.6-1.3-1.3-1.3-.7 0-1.3.6-1.3 1.3-.1.7.5 1.3 1.3 1.3zm27.9 58.9c.7 0 1.3-.6 1.3-1.3s-.6-1.3-1.3-1.3c-.7 0-1.3.6-1.3 1.3 0 .7.6 1.3 1.3 1.3zm-51.1-30.3c.7 0 1.3-.6 1.3-1.3 0-.7-.6-1.3-1.3-1.3s-1.3.6-1.3 1.3c-.1.7.5 1.3 1.3 1.3zM372.1 53c.7 0 1.3-.6 1.3-1.3s-.6-1.3-1.3-1.3-1.3.6-1.3 1.3c0 .7.6 1.3 1.3 1.3zM218.3 35.3c.7 0 1.3-.6 1.3-1.3s-.6-1.3-1.3-1.3-1.3.6-1.3 1.3c0 .7.6 1.3 1.3 1.3z"/><path class="st3" d="M181.5 32.9c.7 0 1.3-.6 1.3-1.3 0-.7-.6-1.3-1.3-1.3s-1.3.6-1.3 1.3c0 .7.6 1.3 1.3 1.3z"/><path class="st2" d="M208.8 83.3c.7 0 1.3-.6 1.3-1.3 0-.7-.6-1.3-1.3-1.3s-1.3.6-1.3 1.3c-.1.7.5 1.3 1.3 1.3zM647 39.5c.7 0 1.3-.6 1.3-1.3s-.6-1.3-1.3-1.3c-.7 0-1.3.6-1.3 1.3-.1.7.5 1.3 1.3 1.3zm-489.4 77.6c.7 0 1.3-.6 1.3-1.3 0-.7-.6-1.3-1.3-1.3s-1.3.6-1.3 1.3.6 1.3 1.3 1.3z"/><path class="st3" d="M696.4 26.6c.7 0 1.3-.6 1.3-1.3s-.6-1.3-1.3-1.3c-.7 0-1.3.6-1.3 1.3s.6 1.3 1.3 1.3z"/><path class="st2" d="M300.2 134.1c.7 0 1.3-.6 1.3-1.3s-.6-1.3-1.3-1.3c-.7 0-1.3.6-1.3 1.3-.1.7.5 1.3 1.3 1.3zm104-46c.7 0 1.3-.6 1.3-1.3 0-.7-.6-1.3-1.3-1.3s-1.3.6-1.3 1.3c-.1.7.5 1.3 1.3 1.3zm10.5 17.4c.7 0 1.3-.6 1.3-1.3 0-.7-.6-1.3-1.3-1.3-.7 0-1.3.6-1.3 1.3 0 .7.6 1.3 1.3 1.3z"/><path class="st4" d="M442.2 40.4c.7 0 1.3-.6 1.3-1.3s-.6-1.3-1.3-1.3-1.3.6-1.3 1.3c0 .7.6 1.3 1.3 1.3z"/><path class="st2" d="M920.7 43.3c.7 0 1.3-.6 1.3-1.3s-.6-1.3-1.3-1.3c-.7 0-1.3.6-1.3 1.3-.1.7.5 1.3 1.3 1.3zM903.6 57c.7 0 1.3-.6 1.3-1.3s-.6-1.3-1.3-1.3-1.3.6-1.3 1.3c0 .7.6 1.3 1.3 1.3zm-67.7 30.7c.7 0 1.3-.6 1.3-1.3s-.6-1.3-1.3-1.3-1.3.6-1.3 1.3.6 1.3 1.3 1.3zm42.1 26.7c.7 0 1.3-.6 1.3-1.3s-.6-1.3-1.3-1.3c-.7 0-1.3.6-1.3 1.3s.6 1.3 1.3 1.3zm-331.5-50c.7 0 1.3-.6 1.3-1.3s-.6-1.3-1.3-1.3-1.3.6-1.3 1.3c-.1.7.5 1.3 1.3 1.3zM1054 3.8c.7 0 1.3-.6 1.3-1.3 0-.7-.6-1.3-1.3-1.3-.7 0-1.3.6-1.3 1.3-.1.7.5 1.3 1.3 1.3zm-63.2 21.6c.7 0 1.3-.6 1.3-1.3 0-.7-.6-1.3-1.3-1.3-.7 0-1.3.6-1.3 1.3s.6 1.3 1.3 1.3zm57.5 79.6c.7 0 1.3-.6 1.3-1.3 0-.7-.6-1.3-1.3-1.3-.7 0-1.3.6-1.3 1.3-.1.7.5 1.3 1.3 1.3zm315-37.5c.7 0 1.3-.6 1.3-1.3 0-.7-.6-1.3-1.3-1.3-.7 0-1.3.6-1.3 1.3s.6 1.3 1.3 1.3zm-162.8 7.7c.7 0 1.3-.6 1.3-1.3 0-.7-.6-1.3-1.3-1.3-.7 0-1.3.6-1.3 1.3-.1.7.5 1.3 1.3 1.3zm-509 64.8c.7 0 1.3-.6 1.3-1.3 0-.7-.6-1.3-1.3-1.3-.7 0-1.3.6-1.3 1.3-.1.7.5 1.3 1.3 1.3zm603.6-126c.7 0 1.3-.6 1.3-1.3 0-.7-.6-1.3-1.3-1.3-.7 0-1.3.6-1.3 1.3s.6 1.3 1.3 1.3zM831.4 139.4c.7 0 1.3-.6 1.3-1.3 0-.7-.6-1.3-1.3-1.3s-1.3.6-1.3 1.3c-.1.7.5 1.3 1.3 1.3zm-177.5 2.9c.7 0 1.3-.6 1.3-1.3 0-.7-.6-1.3-1.3-1.3-.7 0-1.3.6-1.3 1.3s.6 1.3 1.3 1.3zm695.8-14c.7 0 1.3-.6 1.3-1.3 0-.7-.6-1.3-1.3-1.3-.7 0-1.3.6-1.3 1.3 0 .7.6 1.3 1.3 1.3zM236.8 68.8c.7 0 1.3-.6 1.3-1.3 0-.7-.6-1.3-1.3-1.3s-1.3.6-1.3 1.3c-.1.7.5 1.3 1.3 1.3zM110 41.7c.7 0 1.3-.6 1.3-1.3s-.6-1.3-1.3-1.3c-.7 0-1.3.6-1.3 1.3 0 .7.6 1.3 1.3 1.3zm-53.7 80.2c.7 0 1.3-.6 1.3-1.3 0-.7-.6-1.3-1.3-1.3-.7 0-1.3.6-1.3 1.3s.6 1.3 1.3 1.3z"/><path class="st3" d="M372.5 141.2c.7 0 1.3-.6 1.3-1.3s-.6-1.3-1.3-1.3-1.3.6-1.3 1.3c0 .7.6 1.3 1.3 1.3zm-60.3-17.5c.7 0 1.3-.6 1.3-1.3 0-.7-.6-1.3-1.3-1.3-.7 0-1.3.6-1.3 1.3 0 .7.6 1.3 1.3 1.3z"/><path class="st2" d="M747.5 62.2c.7 0 1.3-.6 1.3-1.3s-.6-1.3-1.3-1.3c-.7 0-1.3.6-1.3 1.3s.6 1.3 1.3 1.3zM203 130.4c.7 0 1.3-.6 1.3-1.3s-.6-1.3-1.3-1.3-1.3.6-1.3 1.3c-.1.7.5 1.3 1.3 1.3zm-54.4-2.4c.7 0 1.3-.6 1.3-1.3 0-.7-.6-1.3-1.3-1.3s-1.3.6-1.3 1.3.6 1.3 1.3 1.3zm617.6-85.1c.7 0 1.3-.6 1.3-1.3s-.6-1.3-1.3-1.3c-.7 0-1.3.6-1.3 1.3 0 .7.6 1.3 1.3 1.3zm-511.3 82.6c.7 0 1.3-.6 1.3-1.3 0-.7-.6-1.3-1.3-1.3s-1.3.6-1.3 1.3c-.1.7.5 1.3 1.3 1.3zm551.7-94.7c.7 0 1.3-.6 1.3-1.3s-.6-1.3-1.3-1.3c-.7 0-1.3.6-1.3 1.3 0 .7.6 1.3 1.3 1.3zM329.7 63.4c.7 0 1.3-.6 1.3-1.3s-.6-1.3-1.3-1.3c-.7 0-1.3.6-1.3 1.3 0 .7.6 1.3 1.3 1.3zm-75.4-33.2c.7 0 1.3-.6 1.3-1.3 0-.7-.6-1.3-1.3-1.3s-1.3.6-1.3 1.3c-.1.7.5 1.3 1.3 1.3z"/><path class="st3" d="M241.6 50.7c.7 0 1.3-.6 1.3-1.3s-.6-1.3-1.3-1.3-1.3.6-1.3 1.3c0 .7.6 1.3 1.3 1.3z"/><path class="st2" d="M144.4 66.4c.7 0 1.3-.6 1.3-1.3 0-.7-.6-1.3-1.3-1.3s-1.3.6-1.3 1.3c0 .7.6 1.3 1.3 1.3zm385.8-16.9c.7 0 1.3-.6 1.3-1.3s-.6-1.3-1.3-1.3c-.7 0-1.3.6-1.3 1.3 0 .7.6 1.3 1.3 1.3zm49-8c.7 0 1.3-.6 1.3-1.3s-.6-1.3-1.3-1.3c-.7 0-1.3.6-1.3 1.3 0 .7.6 1.3 1.3 1.3zm.5 61.1c.7 0 1.3-.6 1.3-1.3s-.6-1.3-1.3-1.3c-.7 0-1.3.6-1.3 1.3s.6 1.3 1.3 1.3z"/><path class="st3" d="M510.9 143.7c.7 0 1.3-.6 1.3-1.3 0-.7-.6-1.3-1.3-1.3-.7 0-1.3.6-1.3 1.3s.6 1.3 1.3 1.3zM858.5 67c.7 0 1.3-.6 1.3-1.3s-.6-1.3-1.3-1.3c-.7 0-1.3.6-1.3 1.3 0 .7.6 1.3 1.3 1.3z"/><path class="st2" d="M848.3 115.3c.7 0 1.3-.6 1.3-1.3s-.6-1.3-1.3-1.3c-.7 0-1.3.6-1.3 1.3-.1.7.5 1.3 1.3 1.3z"/><path class="st3" d="M895.4 93.6c.7 0 1.3-.6 1.3-1.3s-.6-1.3-1.3-1.3-1.3.6-1.3 1.3c-.1.7.5 1.3 1.3 1.3z"/><path class="st2" d="M921.9 144.3c.7 0 1.3-.6 1.3-1.3 0-.7-.6-1.3-1.3-1.3s-1.3.6-1.3 1.3.6 1.3 1.3 1.3zm447.2-113.5c.7 0 1.3-.6 1.3-1.3 0-.7-.6-1.3-1.3-1.3-.7 0-1.3.6-1.3 1.3 0 .7.6 1.3 1.3 1.3zm26 73.7c.7 0 1.3-.6 1.3-1.3 0-.7-.6-1.3-1.3-1.3-.7 0-1.3.6-1.3 1.3-.1.7.5 1.3 1.3 1.3zm91.9-23.8c.7 0 1.3-.6 1.3-1.3 0-.7-.6-1.3-1.3-1.3s-1.3.6-1.3 1.3c0 .7.6 1.3 1.3 1.3zm-178.8 52.1c.7 0 1.3-.6 1.3-1.3 0-.7-.6-1.3-1.3-1.3-.7 0-1.3.6-1.3 1.3-.1.7.5 1.3 1.3 1.3zm-44.1-38.6c.7 0 1.3-.6 1.3-1.3 0-.7-.6-1.3-1.3-1.3-.7 0-1.3.6-1.3 1.3s.6 1.3 1.3 1.3zM1234 10.9c.7 0 1.3-.6 1.3-1.3 0-.7-.6-1.3-1.3-1.3s-1.3.6-1.3 1.3c-.1.7.5 1.3 1.3 1.3zm-193.8 58.6c.7 0 1.3-.6 1.3-1.3 0-.7-.6-1.3-1.3-1.3-.7 0-1.3.6-1.3 1.3s.6 1.3 1.3 1.3zm-15.7-33.8c.7 0 1.3-.6 1.3-1.3 0-.7-.6-1.3-1.3-1.3-.7 0-1.3.6-1.3 1.3s.6 1.3 1.3 1.3zM1007 93.6c.7 0 1.3-.6 1.3-1.3 0-.7-.6-1.3-1.3-1.3s-1.3.6-1.3 1.3.6 1.3 1.3 1.3zm509.3 37.7c.7 0 1.3-.6 1.3-1.3 0-.7-.6-1.3-1.3-1.3-.7 0-1.3.6-1.3 1.3s.6 1.3 1.3 1.3zM665.4 53.7c.7 0 1.3-.6 1.3-1.3s-.6-1.3-1.3-1.3c-.7 0-1.3.6-1.3 1.3s.6 1.3 1.3 1.3zm161.4-9.1c.7 0 1.3-.6 1.3-1.3s-.6-1.3-1.3-1.3-1.3.6-1.3 1.3c-.1.7.5 1.3 1.3 1.3zm-551-3.6c.7 0 1.3-.6 1.3-1.3s-.6-1.3-1.3-1.3c-.7 0-1.3.6-1.3 1.3-.1.7.5 1.3 1.3 1.3zm-168 15.3c.7 0 1.3-.6 1.3-1.3s-.6-1.3-1.3-1.3c-.7 0-1.3.6-1.3 1.3s.6 1.3 1.3 1.3zm-58.4 78.3c.7 0 1.3-.6 1.3-1.3s-.6-1.3-1.3-1.3-1.3.6-1.3 1.3c0 .7.6 1.3 1.3 1.3zm472-69.5c.7 0 1.3-.6 1.3-1.3 0-.7-.6-1.3-1.3-1.3-.7 0-1.3.6-1.3 1.3 0 .7.6 1.3 1.3 1.3zm79.7 53.1c.7 0 1.3-.6 1.3-1.3s-.6-1.3-1.3-1.3-1.3.6-1.3 1.3c-.1.7.5 1.3 1.3 1.3zm407.1-51.3c.7 0 1.3-.6 1.3-1.3 0-.7-.6-1.3-1.3-1.3s-1.3.6-1.3 1.3c-.1.7.5 1.3 1.3 1.3z"/><path class="st3" d="M897.8 75.1c.7 0 1.3-.6 1.3-1.3s-.6-1.3-1.3-1.3c-.7 0-1.3.6-1.3 1.3s.6 1.3 1.3 1.3z"/><path class="st2" d="M776.3 67.8c.7 0 1.3-.6 1.3-1.3s-.6-1.3-1.3-1.3-1.3.6-1.3 1.3c0 .7.6 1.3 1.3 1.3zm618.2-43.4c.7 0 1.3-.6 1.3-1.3 0-.7-.6-1.3-1.3-1.3s-1.3.6-1.3 1.3c0 .7.6 1.3 1.3 1.3zM885.9 132.8c.7 0 1.3-.6 1.3-1.3s-.6-1.3-1.3-1.3c-.7 0-1.3.6-1.3 1.3-.1.7.5 1.3 1.3 1.3zm344-38c.7 0 1.3-.6 1.3-1.3 0-.7-.6-1.3-1.3-1.3s-1.3.6-1.3 1.3c-.1.7.5 1.3 1.3 1.3zm-121.3-6.9c.7 0 1.3-.6 1.3-1.3 0-.7-.6-1.3-1.3-1.3-.7 0-1.3.6-1.3 1.3s.6 1.3 1.3 1.3zm374.8 27.6c.7 0 1.3-.6 1.3-1.3 0-.7-.6-1.3-1.3-1.3-.7 0-1.3.6-1.3 1.3-.1.7.5 1.3 1.3 1.3zm38.7-44.9c.7 0 1.3-.6 1.3-1.3 0-.7-.6-1.3-1.3-1.3s-1.3.6-1.3 1.3c-.1.7.5 1.3 1.3 1.3zm-149.5 34.8c.7 0 1.3-.6 1.3-1.3 0-.7-.6-1.3-1.3-1.3-.7 0-1.3.6-1.3 1.3s.6 1.3 1.3 1.3zm-43.1-.6c.7 0 1.3-.6 1.3-1.3 0-.7-.6-1.3-1.3-1.3s-1.3.6-1.3 1.3c-.1.7.5 1.3 1.3 1.3zM302.3 70.9c.7 0 1.3-.6 1.3-1.3 0-.7-.6-1.3-1.3-1.3-.7 0-1.3.6-1.3 1.3s.6 1.3 1.3 1.3zm-116.8 8.6c.7 0 1.3-.6 1.3-1.3 0-.7-.6-1.3-1.3-1.3s-1.3.6-1.3 1.3.6 1.3 1.3 1.3zm-5.4 9.9c.7 0 1.3-.6 1.3-1.3 0-.7-.6-1.3-1.3-1.3s-1.3.6-1.3 1.3.6 1.3 1.3 1.3z"/><path class="st3" d="M110.4 144c.7 0 1.3-.6 1.3-1.3s-.6-1.3-1.3-1.3c-.7 0-1.3.6-1.3 1.3-.1.7.5 1.3 1.3 1.3z"/><path class="st2" d="M62.1 108.2c.7 0 1.3-.6 1.3-1.3 0-.7-.6-1.3-1.3-1.3-.7 0-1.3.6-1.3 1.3 0 .7.6 1.3 1.3 1.3zm239.8-28.3c.7 0 1.3-.6 1.3-1.3 0-.7-.6-1.3-1.3-1.3s-1.3.6-1.3 1.3.6 1.3 1.3 1.3z"/><path class="st3" d="M312.5 26c.7 0 1.3-.6 1.3-1.3 0-.7-.6-1.3-1.3-1.3-.7 0-1.3.6-1.3 1.3-.1.7.5 1.3 1.3 1.3z"/><path class="st2" d="M395.8 33.2c.7 0 1.3-.6 1.3-1.3 0-.7-.6-1.3-1.3-1.3-.7 0-1.3.6-1.3 1.3s.6 1.3 1.3 1.3zM431.6 98c.7 0 1.3-.6 1.3-1.3 0-.7-.6-1.3-1.3-1.3-.7 0-1.3.6-1.3 1.3 0 .7.6 1.3 1.3 1.3zm-79.5 8.7c.7 0 1.3-.6 1.3-1.3 0-.7-.6-1.3-1.3-1.3-.7 0-1.3.6-1.3 1.3-.1.7.5 1.3 1.3 1.3zm-303.2-5.6c.7 0 1.3-.6 1.3-1.3 0-.7-.6-1.3-1.3-1.3s-1.3.6-1.3 1.3c0 .7.6 1.3 1.3 1.3zm66.4-35.5c.7 0 1.3-.6 1.3-1.3 0-.7-.6-1.3-1.3-1.3-.7 0-1.3.6-1.3 1.3-.1.7.5 1.3 1.3 1.3zm1394.8-20.2c.7 0 1.3-.6 1.3-1.3 0-.7-.6-1.3-1.3-1.3-.7 0-1.3.6-1.3 1.3s.6 1.3 1.3 1.3zm-407.9-7.7c.7 0 1.3-.6 1.3-1.3 0-.7-.6-1.3-1.3-1.3-.7 0-1.3.6-1.3 1.3-.1.7.5 1.3 1.3 1.3z"/><path class="st3" d="m859.4 78.9 1 2.9h3.1l-2.5 1.8.9 3-2.5-1.8-2.4 1.8.9-3-2.5-1.8h3.1zM149.4 39l.9 2.9h3.1l-2.5 1.8 1 2.9-2.5-1.8-2.5 1.8.9-2.9-2.5-1.8h3.1z"/><path class="st2" d="m571.3 59.6 1 3h3.1l-2.5 1.8.9 2.9-2.5-1.8-2.5 1.8 1-2.9-2.5-1.8h3.1z"/><path class="st3" d="m514 112.8 1 3h3l-2.5 1.8 1 2.9-2.5-1.8-2.5 1.8 1-2.9-2.5-1.8h3.1z"/><path class="st2" d="m1054.1 29.9 1 3 3-.1-2.5 1.9 1 2.9-2.5-1.8-2.5 1.8 1-2.9-2.5-1.9 3.1.1zM1367.6 43l1 3h3.1l-2.5 1.8.9 2.9-2.5-1.8-2.4 1.8.9-2.9-2.5-1.8h3.1zm-737.8 4.7.9 2.9h3.1l-2.5 1.8.9 2.9-2.4-1.8-2.5 1.8.9-2.9-2.5-1.8h3.1zM80.2 37l1 2.9h3.1l-2.5 1.8.9 2.9-2.5-1.8-2.5 1.8 1-2.9-2.5-1.8h3.1zm243.1-.8 1 2.9h3.1l-2.5 1.8.9 3-2.5-1.8-2.5 1.8 1-3-2.5-1.8h3.1zM981.9 103l1 3h3l-2.5 1.8 1 2.9-2.5-1.8-2.5 1.8 1-2.9-2.5-1.8h3.1zm403.7 25.1 1 2.9h3l-2.4 1.8.9 2.9-2.5-1.8-2.5 1.8 1-2.9-2.5-1.8h3.1z"/><path class="st3" d="m1092.7 5.4 1 3h3.1l-2.5 1.8.9 2.9-2.5-1.8-2.5 1.8 1-2.9-2.5-1.8h3.1z"/><path class="st2" d="m700.1 39.1 1 2.9h3.1l-2.5 1.8.9 3-2.5-1.8-2.5 1.8 1-3-2.5-1.8h3.1zm528.7-20.8.9 2.9h3.1l-2.5 1.8 1 2.9-2.5-1.8-2.5 1.8.9-2.9-2.5-1.8h3.1zM247.3 86l1 3h3l-2.5 1.8 1 2.9-2.5-1.8-2.5 1.8 1-2.9-2.5-1.8h3.1zm316.3 8 .9 3h3.1l-2.5 1.8 1 2.9-2.5-1.8-2.5 1.8.9-2.9-2.4-1.8h3zm357.2-11.9 1 3h3.1l-2.5 1.8.9 2.9-2.5-1.8-2.5 1.8 1-2.9-2.5-1.8h3.1z"/><path class="st3" d="m1045.6 134.3.9 2.9h3.1l-2.5 1.8 1 2.9-2.5-1.8-2.5 1.8.9-2.9-2.4-1.8h3z"/><path class="st2" d="m1153.8 24.3 1 3 3.1-.1-2.5 1.9.9 2.9-2.5-1.8-2.5 1.8 1-2.9-2.5-1.9 3.1.1z"/><path class="st1" d="M1278 49.2c.2-.3.5-.4.8-.2.3.2.4.5.2.8-2.1 4 .4 6.6 2.8 9.1 1.9 2 3.7 3.9 3.6 6.4-.2 2.9-2.2 5.4-4.2 7.9-1.9 2.3-3.8 4.6-3.8 7 0 2.2 1.9 3.5 3.8 4.8 2.2 1.5 4.4 3 4.5 6 0 .3-.2.6-.6.6-.3 0-.6-.2-.6-.6-.1-2.4-2.1-3.8-4-5.1-2.2-1.5-4.3-2.9-4.3-5.8 0-2.8 2-5.2 4.1-7.7 1.9-2.3 3.8-4.7 4-7.2.1-2-1.5-3.7-3.2-5.5-2.8-2.8-5.6-5.8-3.1-10.5zM604.7 72.3c-.2-.3 0-.7.2-.8.3-.2.7 0 .8.2 2.6 4.8-.3 7.7-3 10.5-1.7 1.8-3.3 3.5-3.2 5.5.1 2.5 2.1 4.9 4 7.2 2 2.5 4.1 4.9 4.1 7.7 0 2.9-2.1 4.3-4.3 5.8-1.9 1.3-3.9 2.7-4 5.1 0 .3-.3.6-.6.6s-.6-.3-.6-.6c.2-3 2.4-4.5 4.5-6 1.9-1.3 3.8-2.6 3.8-4.8 0-2.4-1.9-4.7-3.8-7-2-2.5-4.1-5-4.2-7.9-.1-2.5 1.7-4.4 3.6-6.4 2.3-2.5 4.9-5.1 2.7-9.1z"/><path class="st2" d="M1026.1 92.4c-.2-.3 0-.7.2-.8.3-.2.7 0 .8.2 2.6 4.8-.3 7.7-3 10.5-1.7 1.8-3.3 3.5-3.2 5.5.1 2.5 2.1 4.9 4 7.2 2 2.5 4.1 4.9 4.1 7.7 0 2.9-2.1 4.3-4.3 5.8-1.9 1.3-3.9 2.7-4 5.1 0 .3-.3.6-.6.6s-.6-.3-.6-.6c.2-3 2.4-4.5 4.5-6 1.9-1.3 3.8-2.6 3.8-4.8 0-2.4-1.9-4.7-3.8-7-2-2.5-4.1-5-4.2-7.9-.1-2.5 1.7-4.4 3.6-6.4 2.4-2.5 4.9-5.1 2.7-9.1zm-51.9-40.3 1 2.9h3.1l-2.5 1.8.9 2.9-2.5-1.8-2.5 1.8 1-2.9-2.5-1.8h3.1zm-29.8-19.2.9 2.9h3.1l-2.5 1.8 1 2.9-2.5-1.8-2.5 1.8.9-2.9-2.5-1.8h3.1zm-470.9-2.3 1 2.9h3.1l-2.5 1.8.9 3-2.5-1.9-2.5 1.9 1-3-2.5-1.8h3.1z"/><path class="st3" d="m891.3 18.1 1 2.9h3.1l-2.5 1.8.9 2.9-2.5-1.8-2.5 1.8 1-2.9-2.5-1.8h3.1z"/><path class="st2" d="m491.4 59.5 1 2.9h3l-2.5 1.8 1 2.9-2.5-1.8-2.5 1.8 1-2.9-2.5-1.8h3.1zM6.2 30.5l1 2.9h3l-2.5 1.8 1 3-2.5-1.8-2.5 1.8 1-3-2.5-1.8h3.1zm1423.7 48.1.9 3h3.1l-2.5 1.8 1 2.9-2.5-1.8-2.5 1.8.9-2.9-2.5-1.8h3.1zm31.5-1.3 1 2.9h3l-2.5 1.8 1 2.9-2.5-1.8-2.5 1.8 1-2.9-2.5-1.8h3.1zm-291.7 1.6 1 2.9h3l-2.5 1.8 1 2.9-2.5-1.8-2.5 1.8 1-2.9-2.5-1.8h3.1zm-42.5-46.5.9 2.9h3.1l-2.5 1.9 1 2.9-2.5-1.8-2.5 1.8 1-2.9-2.5-1.9h3zM1076 78.5l.9 2.9h3.1l-2.5 1.8 1 3-2.5-1.9-2.5 1.9.9-3-2.5-1.8h3.1zM327.8 90.6c.7 0 1.3-.6 1.3-1.3 0-.7-.6-1.3-1.3-1.3s-1.3.6-1.3 1.3.6 1.3 1.3 1.3z"/><path class="st4" d="M115.3 65.6c.7 0 1.3-.6 1.3-1.3 0-.7-.6-1.3-1.3-1.3-.7 0-1.3.6-1.3 1.3-.1.7.5 1.3 1.3 1.3zm-3.2 25c.7 0 1.3-.6 1.3-1.3 0-.7-.6-1.3-1.3-1.3-.7 0-1.3.6-1.3 1.3 0 .7.6 1.3 1.3 1.3zM44.8 31.8c.7 0 1.3-.6 1.3-1.3 0-.7-.6-1.3-1.3-1.3s-1.3.6-1.3 1.3c0 .7.6 1.3 1.3 1.3z"/><path class="st2" d="m158 78.8.9 2.9h3.1l-2.5 1.8 1 2.9-2.5-1.8-2.5 1.8.9-2.9-2.5-1.8h3.1zm251.7-36 1 2.9h3.1l-2.5 1.8.9 3-2.5-1.9-2.4 1.9.9-3-2.5-1.8h3.1z"/><path class="st4" d="m290.6 94.7 1 2.9h3.1l-2.5 1.8.9 2.9-2.5-1.8-2.5 1.8 1-2.9-2.5-1.8h3.1z"/><path class="st3" d="m1192.6 14.1 1 2.9h3l-2.5 1.8 1 2.9-2.5-1.8-2.5 1.8 1-2.9-2.5-1.8h3.1zm31.5 119.2.9 2.9h3.1l-2.5 1.8.9 2.9-2.4-1.8-2.5 1.8.9-2.9-2.5-1.8h3.1zm205.7-86.9.9 2.9h3.1l-2.5 1.8 1 3-2.5-1.9-2.5 1.9 1-3-2.5-1.8h3zm-227.7 43 1 2.9h3l-2.5 1.8 1 2.9-2.5-1.8-2.5 1.8 1-2.9-2.5-1.8h3.1zm45.6 28.2c.7 0 1.3-.6 1.3-1.3 0-.7-.6-1.3-1.3-1.3-.7 0-1.3.6-1.3 1.3s.6 1.3 1.3 1.3zm-102.5-18.1c.7 0 1.3-.6 1.3-1.3 0-.7-.6-1.3-1.3-1.3-.7 0-1.3.6-1.3 1.3s.6 1.3 1.3 1.3zm357.8 41.9c.7 0 1.3-.6 1.3-1.3 0-.7-.6-1.3-1.3-1.3-.7 0-1.3.6-1.3 1.3 0 .7.6 1.3 1.3 1.3zm-54.1-32.9c.7 0 1.3-.6 1.3-1.3 0-.7-.6-1.3-1.3-1.3-.7 0-1.3.6-1.3 1.3s.6 1.3 1.3 1.3zm-956-12.4c.7 0 1.3-.6 1.3-1.3s-.6-1.3-1.3-1.3c-.7 0-1.3.6-1.3 1.3s.6 1.3 1.3 1.3zm-480-6.8c.7 0 1.3-.6 1.3-1.3 0-.7-.6-1.3-1.3-1.3-.7 0-1.3.6-1.3 1.3-.1.7.5 1.3 1.3 1.3zm68-72.4c.7 0 1.3-.6 1.3-1.3s-.6-1.3-1.3-1.3c-.7 0-1.3.6-1.3 1.3s.6 1.3 1.3 1.3zm144 0c.7 0 1.3-.6 1.3-1.3s-.6-1.3-1.3-1.3-1.3.6-1.3 1.3c0 .7.6 1.3 1.3 1.3zM468.5 131c.7 0 1.3-.6 1.3-1.3 0-.7-.6-1.3-1.3-1.3s-1.3.6-1.3 1.3c-.1.7.5 1.3 1.3 1.3zm-2.2-54.9c.7 0 1.3-.6 1.3-1.3 0-.7-.6-1.3-1.3-1.3-.7 0-1.3.6-1.3 1.3-.1.7.5 1.3 1.3 1.3zm-291.1 56.3c.7 0 1.3-.6 1.3-1.3s-.6-1.3-1.3-1.3-1.3.6-1.3 1.3c0 .7.6 1.3 1.3 1.3zm785.7 11.2c.7 0 1.3-.6 1.3-1.3 0-.7-.6-1.3-1.3-1.3-.7 0-1.3.6-1.3 1.3s.6 1.3 1.3 1.3z"/><path class="st4" d="M251.9 1.5c.1-.4.4-.6.8-.7.6-.1 1.1.3 1.2.9 0 .3 0 .6-.2.8-3.2 5.3-6.6 10.3-10.2 15.1l17.4 32.7L226.3 37c-.6.6-1.2 1.1-1.8 1.7L235.9 74l-31.6-19.1c-.7.5-1.4.9-2.1 1.4l5.7 36.5-28.5-23.9c-.7.3-1.4.6-2.1 1l-.4 37.1-24.2-28.4-2.1.6-6.8 36.7-19-32.1c-.7.1-1.5.1-2.2.2l-12.9 35-13.1-34.8c-.8 0-1.5-.1-2.3-.2l-18.5 32.2L68.6 80l-2.4-.6-23.1 28.9-1.5-37c-.7-.3-1.5-.6-2.2-1L11.5 94.7l5-36.7c-5.1-3.3-10-6.8-14.9-10.7-.2-.2-.3-.4-.4-.6-.1-.6.3-1.1.9-1.2.4-.1.8.1 1 .4 4.4 3.6 9 6.9 13.7 9.9l.1-.5 24.6 13.1v.4l-.4-.2.3-.3L68 77.1l-.4.5.5.1-.1-.6 27.6 4.5 28-.2-.1.2h.2l-.1-.2 27.5-4.9v.2h.2l-.1-.1 26.3-9.5 24.3-13.7.5.3-.4.3-.1-.6L223.7 36l18.5-20.9.2.4c3.4-4.4 6.5-9.1 9.5-14zm-74.5 66 .3-.1-.3-.2v.3zm46.4-31 .3-.3-.4-.2.1.5zM95.6 81.7l-.2.3h.3l-.1-.3z"/><path class="st4" d="M259.9 1.5c-.1-.4-.4-.6-.8-.7-.6-.1-1.1.3-1.2.9 0 .3 0 .6.2.8 3.2 5.3 6.6 10.3 10.2 15.1l-17.4 32.7L285.5 37c.6.6 1.2 1.1 1.8 1.7L275.9 74l31.6-19.1c.7.5 1.4.9 2.1 1.4l-5.7 36.5 28.5-23.9c.7.3 1.4.6 2.1 1l.4 37.2 24.2-28.4 2.1.6L368 116l19-32.1c.7.1 1.5.1 2.2.2l12.9 35 13.2-34.7c.8 0 1.5-.1 2.3-.2l18.5 32.2 7.2-36.2 2.4-.6 23.1 28.8 1.5-37c.7-.3 1.5-.6 2.2-1l27.9 24.4-5-36.7c5.1-3.3 10-6.8 14.9-10.7.2-.2.3-.4.4-.6.1-.6-.3-1.1-.9-1.2-.4-.1-.8.1-1 .4-4.4 3.6-9 6.9-13.7 9.9l-.1-.5-24.7 13v.4l.4-.2-.3-.3-26.6 8.8.4.5-.5.1.1-.6-27.6 4.5-28-.2.1.2h-.2l.1-.2-27.5-4.9v.2h-.2l.1-.1-26.3-9.5L310 53.4l-.5.3.4.3.1-.6L288.1 36l-18.5-20.9-.2.4c-3.4-4.4-6.5-9.1-9.5-14zm74.5 66-.3-.1.3-.2v.3zm-46.4-31-.3-.3.4-.2-.1.5zm128.2 45.2.2.3h-.3l.1-.3z"/><path class="st5" d="M255.4 100.8c-40.8 0-80.2-8.3-117.2-24.6-38.5-17-72.2-41.8-100-73.8-.1-.1-.2-.3-.2-.5 0-.5.4-.9.9-.9.4 0 .7.2.8.5 54.1 62 132.7 97.6 215.8 97.6 83.2 0 161.9-35.7 216-97.9.3-.3.8-.4 1.2-.1.3.3.4.8.1 1.2-27.8 32-61.4 56.8-100 73.8-37.1 16.4-76.5 24.7-117.4 24.7.1 0 0 0 0 0z"/><path class="st3" d="M272.8 96.7h-34.7l17.4 46.3z"/><path class="st2" d="m307.2 92.2-34.4 4.5 23.2 43.7z"/><path class="st3" d="m341 84.2-33.8 8 27.6 41.1z"/><path class="st2" d="M373.1 71 341 84.2l33.6 36.3z"/><path class="st3" d="M404.2 55.6 373.1 71l36.1 33.9z"/><path class="st2" d="m433.4 36.9-29.2 18.7 39.6 29.6zM203.7 92.2l34.4 4.5-23.2 43.7z"/><path class="st3" d="m169.9 84.2 33.8 8-27.6 41.1z"/><path class="st2" d="m137.8 71 32.1 13.2-33.6 36.3z"/><path class="st3" d="m106.8 55.6 31 15.4-36.1 33.9z"/><path class="st2" d="m77.5 36.9 29.3 18.7-39.7 29.6z"/><path class="st4" d="M761.4 1.5c.1-.4.4-.6.8-.7.6-.1 1.1.3 1.2.9 0 .3 0 .6-.2.8-3.2 5.3-6.6 10.3-10.2 15.1l17.4 32.7L735.8 37c-.6.6-1.2 1.1-1.8 1.7L745.4 74l-31.6-19.1c-.7.5-1.4.9-2.1 1.4l5.7 36.5-28.5-23.9c-.7.3-1.4.6-2.1 1l-.4 37.1-24.2-28.4-2.1.6-6.8 36.7-19-32.1c-.7.1-1.5.1-2.2.2l-12.9 35-13.1-34.8c-.8 0-1.5-.1-2.3-.2l-18.5 32.2-7.2-36.2-2.4-.6-23.1 28.9-1.5-37c-.7-.3-1.5-.6-2.2-1L521 94.7l5-36.7c-5.1-3.3-10-6.8-14.9-10.7-.2-.2-.3-.4-.4-.6-.1-.6.3-1.1.9-1.2.4-.1.8.1 1 .4 4.4 3.6 9 6.9 13.7 9.9l.1-.5L551 68.4v.4l-.4-.2.3-.3 26.6 8.8-.4.5.5.1-.1-.6 27.6 4.5 28-.2-.1.2h.2l-.1-.2 27.5-4.9v.2h.2l-.1-.1 26.3-9.5 24.3-13.7.5.3-.4.3-.1-.6L733.2 36l18.5-20.9.2.4c3.4-4.4 6.5-9.1 9.5-14zm-74.5 66 .3-.1-.3-.2v.3zm46.4-31 .3-.3-.4-.2.1.5zM605.1 81.7l-.2.3h.3l-.1-.3z"/><path class="st4" d="M769.4 1.5c-.1-.4-.4-.6-.8-.7-.6-.1-1.1.3-1.2.9 0 .3 0 .6.2.8 3.2 5.3 6.6 10.3 10.2 15.1l-17.4 32.7L795 37c.6.6 1.2 1.1 1.8 1.7L785.4 74 817 54.9c.7.5 1.4.9 2.1 1.4l-5.7 36.5 28.5-23.9c.7.3 1.4.6 2.1 1l.4 37.2 24.2-28.4 2.1.6 6.8 36.7 19-32.1c.7.1 1.5.1 2.2.2l12.9 35 13.2-34.7c.8 0 1.5-.1 2.3-.2l18.5 32.2 7.2-36.2 2.4-.6 23.1 28.8 1.5-37c.7-.3 1.5-.6 2.2-1l27.9 24.4-5-36.7c5.1-3.3 10-6.8 14.9-10.7.2-.2.3-.4.4-.6.1-.6-.3-1.1-.9-1.2-.4-.1-.8.1-1 .4-4.4 3.6-9 6.9-13.7 9.9l-.1-.5-24.7 13v.4l.4-.2-.3-.3-26.6 8.8.4.5-.5.1.1-.6-27.6 4.5-28-.2.1.2h-.2l.1-.2-27.5-4.9v.2h-.2l.1-.1-26.3-9.5-24.3-13.7-.5.3.4.3.1-.6L797.6 36l-18.5-20.9-.2.4c-3.4-4.4-6.5-9.1-9.5-14zm74.5 66-.3-.1.3-.2v.3zm-46.4-31-.3-.3.4-.2-.1.5zm128.2 45.2.2.3h-.3l.1-.3z"/><path class="st5" d="M765 100.8c-40.8 0-80.2-8.3-117.2-24.6-38.5-17-72.2-41.8-100-73.8-.1-.1-.2-.3-.2-.5 0-.5.4-.8.8-.8s.7.2.8.5c54.1 62 132.7 97.6 215.8 97.6 83.2 0 161.9-35.7 216-97.9.3-.3.8-.4 1.2-.1.3.3.4.8.1 1.2-27.8 32-61.4 56.8-100 73.8-37.1 16.3-76.5 24.6-117.3 24.6z"/><path class="st3" d="M782.4 96.7h-34.8L765 143z"/><path class="st2" d="m816.7 92.2-34.3 4.5 23.1 43.7z"/><path class="st3" d="m850.5 84.2-33.8 8 27.6 41.1z"/><path class="st2" d="m882.7 71-32.2 13.2 33.6 36.3z"/><path class="st3" d="m913.7 55.6-31 15.4 36 33.9z"/><path class="st2" d="m942.9 36.9-29.2 18.7 39.7 29.6zM713.3 92.2l34.3 4.5-23.1 43.7z"/><path class="st3" d="m679.5 84.2 33.8 8-27.7 41.1z"/><path class="st2" d="m647.3 71 32.2 13.2-33.6 36.3z"/><path class="st3" d="m616.3 55.6 31 15.4-36.1 33.9z"/><path class="st2" d="m587 36.9 29.3 18.7-39.7 29.6z"/><path class="st4" d="M1271 1.5c.1-.4.4-.6.8-.7.6-.1 1.1.3 1.2.9 0 .3 0 .6-.2.8-3.2 5.3-6.6 10.3-10.2 15.1l17.4 32.7-34.6-13.3c-.6.6-1.2 1.1-1.8 1.7L1255 74l-31.6-19.1c-.7.5-1.4.9-2.1 1.4l5.7 36.5-28.5-23.9c-.7.3-1.4.6-2.1 1l-.4 37.1-24.2-28.4-2.1.6-6.8 36.7-19-32.1c-.7.1-1.5.1-2.2.2l-12.9 35-13.1-34.8c-.8 0-1.5-.1-2.3-.2l-18.5 32.2-7.2-36.2-2.4-.6-23.1 28.9-1.5-37c-.7-.3-1.5-.6-2.2-1l-27.9 24.4 5-36.7c-5.1-3.3-10-6.8-14.9-10.7-.2-.2-.3-.4-.4-.6-.1-.6.3-1.1.9-1.2.4-.1.8.1 1 .4 4.4 3.6 9 6.9 13.7 9.9l.1-.5 24.6 13.1v.4l-.4-.2.3-.3 26.6 8.8-.4.5.5.1-.1-.6 27.6 4.5 28-.2-.1.2h.2l-.1-.2 27.5-4.9v.2h.2l-.1-.1 26.3-9.5 24.3-13.7.5.3-.4.3-.1-.6 21.9-17.4 18.5-20.9.2.4c3.4-4.4 6.5-9.1 9.5-14zm-74.5 66 .3-.1-.3-.2v.3zm46.4-31 .3-.3-.4-.2.1.5zm-128.2 45.2-.2.3h.3l-.1-.3z"/><path class="st4" d="M1279 1.5c-.1-.4-.4-.6-.8-.7-.6-.1-1.1.3-1.2.9 0 .3 0 .6.2.8 3.2 5.3 6.6 10.3 10.2 15.1L1270 50.3l34.6-13.3c.6.6 1.2 1.1 1.8 1.7L1295 74l31.6-19.1c.7.5 1.4.9 2.1 1.4l-5.7 36.5 28.5-23.9c.7.3 1.4.6 2.1 1l.4 37.2 24.2-28.4 2.1.6 6.8 36.7 19-32.1c.7.1 1.5.1 2.2.2l12.9 35 13.2-34.7c.8 0 1.5-.1 2.3-.2l18.5 32.2 7.2-36.2 2.4-.6 23.1 28.8 1.5-37c.7-.3 1.5-.6 2.2-1l27.9 24.4-5-36.7c5.1-3.3 10-6.8 14.9-10.7.2-.2.3-.4.4-.6.1-.6-.3-1.1-.9-1.2-.4-.1-.8.1-1 .4-4.4 3.6-9 6.9-13.7 9.9l-.1-.5-24.7 13v.4l.4-.2-.3-.3-26.6 8.8.4.5-.5.1.1-.6-27.6 4.5-28-.2.1.2h-.2l.1-.2-27.5-4.9v.2h-.2l.1-.1-26.3-9.5-24.3-13.7-.5.3.4.3.1-.6-21.9-17.4-18.5-20.9-.2.4c-3.4-4.4-6.5-9.1-9.5-14zm74.5 66-.3-.1.3-.2v.3zm-46.4-31-.3-.3.4-.2-.1.5zm128.2 45.2.2.3h-.3l.1-.3z"/><path class="st5" d="M1274.5 100.8c-40.8 0-80.2-8.3-117.2-24.6-38.5-17-72.2-41.8-100-73.8-.1-.1-.2-.3-.2-.5 0-.5.4-.8.8-.8s.7.2.8.5c54.1 62 132.7 97.6 215.8 97.6 83.2 0 161.9-35.7 216-97.9.3-.3.8-.4 1.2-.1.3.3.4.8.1 1.2-27.8 32-61.4 56.8-100 73.8-37 16.3-76.5 24.6-117.3 24.6z"/><path class="st3" d="M1291.9 96.7h-34.7l17.3 46.3z"/><path class="st2" d="m1326.3 92.2-34.4 4.5 23.2 43.7z"/><path class="st3" d="m1360 84.2-33.7 8 27.6 41.1z"/><path class="st2" d="M1392.2 71 1360 84.2l33.6 36.3z"/><path class="st3" d="m1423.2 55.6-31 15.4 36.1 33.9z"/><path class="st2" d="m1452.5 36.9-29.3 18.7 39.7 29.6zm-229.7 55.3 34.4 4.5-23.2 43.7z"/><path class="st3" d="m1189 84.2 33.8 8-27.6 41.1z"/><path class="st2" d="m1156.9 71 32.1 13.2-33.6 36.3z"/><path class="st3" d="m1125.8 55.6 31.1 15.4-36.1 33.9z"/><path class="st2" d="m1096.6 36.9 29.2 18.7-39.7 29.6z"/></svg>