<svg xmlns="http://www.w3.org/2000/svg" viewBox="0 0 1189.5 144" xml:space="preserve"><style>.st0{fill:#ffd739}.st0,.st1,.st2{fill-rule:evenodd;clip-rule:evenodd}.st1{fill:#9852f9}.st2{fill:#dd3453}.st3{fill:#0f80d6}.st3,.st4,.st5,.st6,.st7{fill-rule:evenodd;clip-rule:evenodd}.st4{fill:#4baaf2}.st5{fill:#f77b92}.st6{fill:#fff4d4}.st7{fill:#ffc288}</style><g id="Layer_1_copy_2"><path class="st0" d="m1156.8 97.9 32.7 2.3-19.4 40.4z"/><path class="st1" d="m1124.5 91.9 32.3 6-23.7 38z"/><path class="st2" d="m1092.7 81.9 31.8 10-28.4 34z"/><path class="st0" d="m1062.4 67.8 30.3 14.1-32.6 30z"/><path class="st3" d="m1034.6 49.4 27.8 18.4-36.6 24.9z"/><path class="st1" d="m1010 26.7 24.6 22.7-40.2 18.7z"/><path class="st2" d="m990.5-.3 19.5 27-43.1 10.4z"/><path class="st1" d="m826.5 100.1-32.8 1.2 18 41.1z"/><path class="st0" d="m859.4 94.7-32.9 5.4 23.3 37.7z"/><path class="st2" d="m891.4 85.1-32 9.6 28 34.4z"/><path class="st1" d="m921.6 70.9-30.2 14.2 32.7 29.9z"/><path class="st3" d="m949.1 52-27.5 18.9 37.1 24.2z"/><path class="st0" d="m972.4 28-23.3 24 41.2 16.4z"/></g><g id="Layer_1_copy"><path class="st3" d="m761 98.8 32.7 2.5-19.5 40.4z"/><path class="st1" d="m728.8 92.8 32.2 6-23.8 38z"/><path class="st2" d="m697 82.6 31.8 10.2-28.6 33.9z"/><path class="st0" d="M666.8 68.4 697 82.6l-32.7 29.9z"/><path class="st3" d="m639 49.9 27.8 18.5L630 93.2z"/><path class="st1" d="M614.5 27.2 639 49.9l-40.3 18.5z"/><path class="st2" d="m595.1 0 19.4 27.2-43.1 10.2z"/><path class="st3" d="m430 99.5-32.8 1 17.6 41.2z"/><path class="st0" d="m463 94.4-33 5.1 22.9 37.9z"/><path class="st2" d="M495.1 85.1 463 94.4l27.6 34.7z"/><path class="st1" d="m525.4 71.1-30.3 14 32.4 30.2z"/><path class="st3" d="m553.1 52.5-27.7 18.6 36.9 24.6z"/><path class="st0" d="m576.5 28.7-23.4 23.8 41 16.8z"/></g><g id="Layer_1"><path class="st2" d="m364.8 97.9 32.7 2.3-19.4 40.4z"/><path class="st1" d="m332.5 91.9 32.3 6-23.7 38z"/><path class="st2" d="m300.7 81.9 31.8 10-28.4 34z"/><path class="st0" d="m270.4 67.8 30.3 14.1-32.6 30z"/><path class="st3" d="m242.6 49.4 27.8 18.4-36.6 24.9z"/><path class="st1" d="m218 26.7 24.6 22.7-40.2 18.7z"/><path class="st2" d="m198.5-.3 19.5 27-43.1 10.4z"/><path class="st3" d="M32.8 98.8 0 99.4l17.2 41.4z"/><path class="st0" d="m65.8 94.1-33 4.7L55.3 137z"/><path class="st2" d="m98 85.1-32.2 9L93.1 129z"/><path class="st1" d="M128.5 71.4 98 85.1l32.1 30.5z"/><path class="st3" d="m156.4 53.1-27.9 18.4 36.6 24.9z"/><path class="st0" d="m180.1 29.6-23.7 23.5 40.8 17.2zM387 14.5l3.1 5.4 6.1-1.3-4.3 4.6 3.1 5.5-5.7-2.7-4.2 4.6.8-6.1-5.7-2.6 6.1-1.3z"/><path class="st1" d="m90.6 34.8 5.5 3.1 4.5-4.2-1.2 6.1 5.4 3-6.2.7-1.2 6.1-2.6-5.6-6.2.7 4.6-4.2z"/><path class="st3" d="M748.7 5.4h9.5l-4.8 32.7z"/><path class="st4" d="m778.7 13.9 6.8 6.8L759 40.4z"/><path class="st3" d="M794 41.2v9.6L761.4 46z"/><path class="st4" d="m785.5 71.3-6.8 6.8L759 51.6z"/><path class="st3" d="M758.2 86.6h-9.5l4.7-32.7z"/><path class="st4" d="m728.1 78.1-6.7-6.8 26.4-19.7z"/><path class="st3" d="M712.9 50.8v-9.6l32.6 4.8z"/><path class="st4" d="m721.4 20.7 6.7-6.8 19.7 26.5z"/><path class="st5" d="m760.4 20.1 5.2 1.9-9.3 16.6z"/><path class="st2" d="m776.7 32.6 2.3 5.1-18.3 5.1z"/><path class="st5" d="m779.4 53-2 5.2-16.6-9.4z"/><path class="st2" d="m766.8 69.3-5 2.2-5.1-18.3z"/><path class="st5" d="m746.4 71.9-5.1-1.9 9.3-16.6z"/><path class="st2" d="m730.1 59.4-2.2-5 18.3-5.2z"/><path class="st5" d="m727.5 39 2-5.1 16.5 9.3z"/><path class="st2" d="m740.1 22.7 5-2.2 5.1 18.3z"/><path class="st1" d="m623.1 114.3-1.4 6 5.3 3.3-6.2.5-1.5 6-2.4-5.7-6.2.5 4.8-4.1-2.4-5.7 5.3 3.2z"/><path class="st2" d="M33.8 28.4h5.3l-2.7 18.2z"/><path class="st5" d="m50.5 33.2 3.8 3.7-14.7 11z"/><path class="st2" d="M59 48.3v5.3L40.9 51z"/><path class="st5" d="m54.3 65.1-3.8 3.7-10.9-14.7z"/><path class="st2" d="M39.1 73.6h-5.3l2.6-18.2z"/><path class="st5" d="m22.4 68.8-3.8-3.7 14.7-11z"/><path class="st2" d="M13.9 53.6v-5.3L32 51z"/><path class="st5" d="m18.6 36.9 3.8-3.7 10.9 14.7z"/><path class="st6" d="m40.3 36.6 2.9 1.1-5.2 9.2zm9.1 6.9 1.3 2.8-10.2 2.9zm1.5 11.4-1.1 2.8-9.2-5.1zm-7 9-2.8 1.3L38.2 55zm-11.3 1.5-2.9-1.1 5.2-9.2zm-9.1-7-1.3-2.8 10.2-2.8zM22 47.1l1.1-2.9 9.2 5.2zm7-9.1 2.8-1.2L34.7 47z"/><path class="st7" d="M484.8 25.3h5.4l-2.7 18.2zm16.8 4.7 3.7 3.8-14.7 11zm8.5 15.2v5.3l-18.2-2.6zm-4.8 16.7-3.7 3.8-11-14.7zm-15.1 8.5h-5.4l2.7-18.1zm-16.8-4.7-3.7-3.8L484.4 51zm-8.5-15.2v-5.3l18.2 2.7zm4.8-16.7 3.7-3.8 11 14.8z"/><path class="st3" d="m491.4 33.4 2.9 1.1-5.2 9.3z"/><path class="st4" d="m500.5 40.4 1.2 2.8-10.2 2.9z"/><path class="st3" d="m501.9 51.8-1.1 2.8-9.2-5.2z"/><path class="st4" d="m495 60.8-2.8 1.3-2.9-10.2z"/><path class="st3" d="m483.6 62.3-2.9-1.1 5.2-9.2z"/><path class="st4" d="m474.5 55.3-1.2-2.8 10.2-2.8z"/><path class="st3" d="m473.1 44 1.1-2.9 9.2 5.2z"/><path class="st4" d="m480.1 34.9 2.8-1.2 2.8 10.1z"/><path class="st3" d="M350.1 33.7h9.6l-4.8 32.6z"/><path class="st7" d="m371.1 47.6 5 4-16.3 15zm-32.5 0-4.9 4 16.2 15z"/><path d="M934.2 38c.9.5 1.2 1.6.7 2.4-.5.9-1.6 1.2-2.4.7-1.6-.9-2.3-.1-3 .7-1.7 1.9-3.4 3.9-7.8 1.5-.9-.5-1.2-1.6-.7-2.4.5-.9 1.6-1.2 2.4-.7 1.8 1 2.6.2 3.3-.7 1.7-2 3.4-3.9 7.5-1.5z" fill-rule="evenodd" clip-rule="evenodd" fill="#269df9"/><path class="st3" d="M153.7 16.7c1 .1 1.7.9 1.7 1.9-.1 1-.9 1.7-1.9 1.7-1.8-.1-2.1.9-2.3 2-.7 2.5-1.3 5-6.3 4.8-1 0-1.7-.9-1.7-1.9 0-1 .9-1.7 1.9-1.7 2.1.1 2.4-1 2.7-2.1.6-2.5 1.2-5 5.9-4.7z"/><path class="st2" d="M991.3 109.9c0 1-.7 1.8-1.7 1.9-1 0-1.8-.7-1.9-1.7-.1-1.8-1.1-2-2.2-2.1-2.6-.4-5.2-.8-5.4-5.8 0-1 .7-1.8 1.7-1.9 1 0 1.8.7 1.9 1.7.1 2.1 1.3 2.3 2.4 2.4 2.5.5 5 .8 5.2 5.5z"/><path class="st7" d="M214.8 118.5c.7.7.6 1.8-.1 2.5s-1.8.6-2.5-.1c-1.2-1.3-2.1-.7-3.1-.2-2.2 1.4-4.4 2.8-7.9-.9-.7-.7-.7-1.8.1-2.5.7-.7 1.8-.7 2.5.1 1.4 1.5 2.4.9 3.4.3 2.2-1.3 4.4-2.6 7.6.8z"/><path class="st6" d="M828.3 69.4c.1 1-.8 1.8-1.9 1.9-1.2.1-2.2-.7-2.3-1.6-.2-1.8-1.4-1.9-2.7-2.1-3-.3-6.1-.7-6.6-5.6-.1-1 .8-1.8 1.9-1.9 1.2-.1 2.2.7 2.3 1.6.2 2.1 1.6 2.2 2.9 2.4 3.1.3 6 .6 6.4 5.3zm234-53.7c.8-.6 1.9-.5 2.5.3.6.8.5 1.9-.3 2.5-1.4 1.1-.9 2.1-.5 3 1.2 2.3 2.3 4.7-1.6 7.8-.8.6-1.9.5-2.5-.3-.6-.8-.5-1.9.3-2.5 1.6-1.3 1.1-2.3.6-3.4-1-2.2-2.2-4.5 1.5-7.4z"/><path d="M1019 82.8c-.6.8-1.7 1-2.5.4s-1-1.7-.4-2.5c1.1-1.4.3-2.2-.4-3-1.7-1.9-3.5-3.9-.6-7.9.6-.8 1.7-1 2.5-.4s1 1.7.4 2.5c-1.2 1.7-.4 2.5.3 3.4 1.8 1.8 3.5 3.7.7 7.5zm105.9-47.1c.6.8.4 1.9-.4 2.5-.8.6-1.9.4-2.5-.4-1.1-1.4-2-1-3-.5-2.3 1.1-4.7 2.2-7.7-1.7-.6-.8-.4-1.9.3-2.5.8-.6 1.9-.4 2.5.3 1.3 1.7 2.3 1.2 3.3.7 2.4-1.1 4.6-2.2 7.5 1.6zm-578.6 96.6c-.5.8-1.6 1.1-2.5.6-.8-.5-1.1-1.6-.6-2.5.9-1.5.2-2.3-.6-3-1.9-1.8-3.8-3.6-1.2-7.8.5-.8 1.6-1.1 2.5-.6.8.5 1.1 1.6.6 2.5-1.1 1.8-.2 2.6.6 3.4 1.8 1.7 3.7 3.4 1.2 7.4z" fill="#e0b63a" fill-rule="evenodd" clip-rule="evenodd"/><path d="M313.6 40.3c1 0 1.8.7 1.9 1.7 0 1-.7 1.8-1.7 1.9-1.8.1-2 1.1-2.1 2.2-.4 2.6-.8 5.1-5.8 5.4-1 0-1.8-.7-1.9-1.7 0-1 .7-1.8 1.7-1.9 2.1-.1 2.3-1.2 2.5-2.4.3-2.6.7-5 5.4-5.2zm542.8-16.5c1 0 1.8.7 1.9 1.7 0 1-.7 1.8-1.7 1.9-1.8.1-2 1.1-2.1 2.2-.4 2.6-.8 5.1-5.8 5.4-1 0-1.8-.7-1.9-1.7 0-1 .7-1.8 1.7-1.9 2.1-.1 2.3-1.2 2.5-2.4.3-2.5.7-5 5.4-5.2zm121.5 103.9c1 0 1.8.7 1.9 1.7 0 1-.7 1.8-1.7 1.9-1.8.1-2 1.1-2.1 2.2-.4 2.6-.8 5.1-5.8 5.4-1 0-1.8-.7-1.9-1.7 0-1 .7-1.8 1.7-1.9 2.1-.1 2.3-1.2 2.5-2.4.3-2.5.7-5 5.4-5.2zM403.5 74.9c.9.4 1.3 1.5.9 2.4-.4.9-1.5 1.3-2.4.9-1.6-.8-2.3.1-2.9 1-1.5 2.1-3.1 4.2-7.6 2.1-.9-.4-1.3-1.5-.9-2.4.4-.9 1.5-1.3 2.4-.9 1.9.9 2.6-.1 3.3-1 1.5-2.1 3-4.1 7.2-2.1z" fill="#ffd863" fill-rule="evenodd" clip-rule="evenodd"/></g></svg>