<svg version="1.1" id="Layer_1" xmlns="http://www.w3.org/2000/svg" x="0" y="0" viewBox="0 0 1223.6 144" xml:space="preserve"><style>.st0{fill:#ffaa9c}.st1{fill:#ff664a}.st2{fill:#ffd500}.st3{fill:#ff4b2e}.st4{fill:#f6be00}.st5{fill:#ff5333}.st6{fill:#ffd100}</style><path class="st0" d="m509.8 88.9-9.7-.5 3.8-11.3z"/><path class="st1" d="m443.6 110.6 2.7 7.4-11.3-3.9z"/><path class="st2" d="m370.6 91.3 7.5 13.1-17.1-3.5z"/><path class="st1" d="m1051.2 127.4-14.5-10 14.5.8z"/><path class="st2" d="m851.6 81.9 17.1 2.6-12.3 5.9zm80.4 45.7 10.1 1.6-7.2 3.4z"/><path class="st1" d="m990.3 92.4-14.4-10.1 14.4.9z"/><path class="st2" d="m734.4 85.3 17 2.6-12.2 5.9zm288.5-1.7 10.1 1.6-7.2 3.5z"/><path class="st1" d="m624 122.4-14.5-10.1 14.5.9z"/><path class="st2" d="m587.6 69.9 17.1 2.6-12.2 5.9zm80.5 45.7 10 1.6-7.2 3.4z"/><path class="st0" d="m799 94 13.9-4.5-7.6 9.3z"/><path class="st1" d="m326.1 80.9-10 14.4.8-14.4z"/><path class="st0" d="m56 95.9 9.6-.5-3.7-11.3z"/><path class="st1" d="m135.6 103.6-2.7 7.4 11.3-3.9z"/><path class="st2" d="m191.1 91.3-7.5 13.1 17.2-3.5z"/><path class="st1" d="m255.6 109.9 10.1 14.4-.9-14.4z"/><path class="st2" d="m1167 104.3 7.5-13.1-17.2 3.5zm-27.5-32.6 4.7-8.2-10.7 2.2z"/><path class="st1" d="m1192.5 48.5-14.4 10.1 14.4-.9z"/><path class="st3" d="M1056.1 32.4c4.7.4 9.3.6 13.9.7-1.7-3.6-3.2-7.3-4.6-11.1-3.2 3.3-6.3 6.8-9.3 10.4z"/><path class="st4" d="M1062.2 45.6c4.7 0 9.3-.2 13.9-.4-1.9-3.5-3.7-7-5.4-10.6-2.9 3.6-5.7 7.2-8.5 11z"/><path class="st3" d="M1069 57.8c4.7-.4 9.3-.9 13.8-1.5-2.2-3.3-4.2-6.6-6.2-10.1-2.5 3.8-5.1 7.7-7.6 11.6z"/><path class="st4" d="M1077 69.8c4.6-.7 9.2-1.6 13.7-2.6-2.4-3.1-4.7-6.3-6.9-9.5-2.4 3.9-4.7 8-6.8 12.1z"/><path class="st3" d="M1085.5 80.7c4.5-1.1 9-2.3 13.4-3.6-2.6-2.9-5.1-5.9-7.5-9-2.1 4.1-4.1 8.3-5.9 12.6z"/><path class="st4" d="M1095.1 91.3c4.4-1.4 8.8-3 13.1-4.7-2.8-2.7-5.6-5.5-8.2-8.3-1.7 4.2-3.4 8.5-4.9 13z"/><path class="st3" d="M1105.1 100.7c4.3-1.8 8.5-3.6 12.7-5.6-3-2.5-5.9-5-8.8-7.7-1.4 4.3-2.7 8.8-3.9 13.3z"/><path class="st4" d="M1116.2 109.7c4.2-2.1 8.2-4.3 12.2-6.6-3.2-2.2-6.3-4.6-9.3-7-1.1 4.4-2.1 9-2.9 13.6z"/><path class="st3" d="M1127.5 117.5c4-2.4 7.9-4.9 11.7-7.5-3.4-2-6.6-4.1-9.8-6.3-.8 4.6-1.4 9.2-1.9 13.8z"/><path class="st4" d="M1139.8 124.7c3.8-2.7 7.5-5.5 11.1-8.3-3.5-1.7-6.9-3.6-10.3-5.5-.4 4.5-.7 9.2-.8 13.8z"/><path class="st3" d="M1152.2 130.8c3.6-3 7.1-6 10.5-9.1-3.6-1.5-7.2-3.1-10.7-4.8-.1 4.6 0 9.2.2 13.9z"/><path class="st4" d="M1165.6 136.1c3.4-3.2 6.6-6.5 9.8-9.9-3.8-1.2-7.5-2.5-11.1-3.9.2 4.6.7 9.2 1.3 13.8z"/><path class="st3" d="M1178.9 140.3c3.1-3.5 6.2-7 9-10.6-3.9-.9-7.7-1.9-11.5-3.1.8 4.5 1.6 9.1 2.5 13.7z"/><path class="st4" d="M1193.1 143.5c2.9-3.7 5.6-7.5 8.2-11.3-4-.6-7.9-1.3-11.8-2.2 1.1 4.5 2.3 9 3.6 13.5z"/><path class="st4" d="M1223.6 134.8c-79.2-1.7-147.2-56.8-165.3-134 .5-.1.9-.2 1.4-.3 17.9 76.5 85.3 131.2 163.9 132.9v1.4z"/><path class="st3" d="M983.1 32.4c-4.7.4-9.3.6-13.9.7 1.7-3.6 3.2-7.3 4.6-11.1 3.1 3.3 6.3 6.8 9.3 10.4z"/><path class="st4" d="M977 45.6c-4.7 0-9.3-.2-13.9-.4 1.9-3.5 3.7-7 5.4-10.6 2.9 3.6 5.7 7.2 8.5 11z"/><path class="st3" d="M970.1 57.8c-4.7-.4-9.3-.9-13.8-1.5 2.2-3.3 4.2-6.6 6.2-10.1 2.6 3.8 5.2 7.7 7.6 11.6z"/><path class="st4" d="M962.2 69.8c-4.6-.7-9.2-1.6-13.7-2.6 2.4-3.1 4.7-6.3 6.9-9.5 2.4 3.9 4.6 8 6.8 12.1z"/><path class="st3" d="M953.7 80.7c-4.5-1.1-9-2.3-13.4-3.6 2.6-2.9 5.1-5.9 7.5-9 2.1 4.1 4 8.3 5.9 12.6z"/><path class="st4" d="M944.1 91.3c-4.4-1.4-8.8-3-13.1-4.7 2.8-2.7 5.6-5.5 8.2-8.3 1.7 4.2 3.4 8.5 4.9 13z"/><path class="st3" d="M934.1 100.7c-4.3-1.8-8.5-3.6-12.7-5.6 3-2.5 5.9-5 8.8-7.7 1.4 4.3 2.7 8.8 3.9 13.3z"/><path class="st4" d="M923 109.7c-4.2-2.1-8.2-4.3-12.2-6.6 3.2-2.2 6.3-4.6 9.3-7 1.1 4.4 2.1 9 2.9 13.6z"/><path class="st3" d="M911.7 117.5c-4-2.4-7.9-4.9-11.7-7.5 3.4-2 6.6-4.1 9.8-6.3.8 4.6 1.4 9.2 1.9 13.8z"/><path class="st4" d="M899.4 124.7c-3.8-2.7-7.5-5.5-11.1-8.3 3.5-1.7 6.9-3.6 10.3-5.5.4 4.5.7 9.2.8 13.8z"/><path class="st3" d="M887 130.8c-3.6-3-7.1-6-10.5-9.1 3.6-1.5 7.2-3.1 10.7-4.8.1 4.6 0 9.2-.2 13.9z"/><path class="st4" d="M873.6 136.1c-3.4-3.2-6.6-6.5-9.8-9.9 3.8-1.2 7.5-2.5 11.1-3.9-.3 4.6-.7 9.2-1.3 13.8z"/><path class="st3" d="M860.2 140.3c-3.1-3.5-6.2-7-9-10.6 3.9-.9 7.7-1.9 11.5-3.1-.7 4.5-1.5 9.1-2.5 13.7z"/><path class="st4" d="M846 143.5c-2.9-3.7-5.6-7.5-8.2-11.3 4-.6 7.9-1.3 11.8-2.2-1 4.5-2.2 9-3.6 13.5z"/><path class="st4" d="M815.6 134.8C894.8 133.1 962.8 78 980.9.8c-.5-.1-.9-.2-1.4-.3-17.9 76.5-85.4 131.2-163.9 132.9v1.4z"/><path class="st3" d="M648.1 32.4c4.7.4 9.3.6 13.9.7-1.7-3.6-3.2-7.3-4.6-11.1-3.2 3.3-6.3 6.8-9.3 10.4z"/><path class="st4" d="M654.2 45.6c4.7 0 9.3-.2 13.9-.4-1.9-3.5-3.7-7-5.4-10.6-2.9 3.6-5.7 7.2-8.5 11z"/><path class="st3" d="M661 57.8c4.7-.4 9.3-.9 13.8-1.5-2.2-3.3-4.2-6.6-6.2-10.1-2.5 3.8-5.1 7.7-7.6 11.6z"/><path class="st4" d="M669 69.8c4.6-.7 9.2-1.6 13.7-2.6-2.4-3.1-4.7-6.3-6.9-9.5-2.4 3.9-4.7 8-6.8 12.1z"/><path class="st3" d="M677.5 80.7c4.5-1.1 9-2.3 13.4-3.6-2.6-2.9-5.1-5.9-7.5-9-2.1 4.1-4.1 8.3-5.9 12.6z"/><path class="st4" d="M687.1 91.3c4.4-1.4 8.8-3 13.1-4.7-2.8-2.7-5.6-5.5-8.2-8.3-1.7 4.2-3.4 8.5-4.9 13z"/><path class="st3" d="M697.1 100.7c4.3-1.8 8.5-3.6 12.7-5.6-3-2.5-5.9-5-8.8-7.7-1.4 4.3-2.7 8.8-3.9 13.3z"/><path class="st4" d="M708.2 109.7c4.2-2.1 8.2-4.3 12.2-6.6-3.2-2.2-6.3-4.6-9.3-7-1.1 4.4-2.1 9-2.9 13.6z"/><path class="st3" d="M719.5 117.5c4-2.4 7.9-4.9 11.7-7.5-3.4-2-6.6-4.1-9.8-6.3-.8 4.6-1.4 9.2-1.9 13.8z"/><path class="st4" d="M731.8 124.7c3.8-2.7 7.5-5.5 11.1-8.3-3.5-1.7-6.9-3.6-10.3-5.5-.4 4.5-.7 9.2-.8 13.8z"/><path class="st3" d="M744.2 130.8c3.6-3 7.1-6 10.5-9.1-3.6-1.5-7.2-3.1-10.7-4.8-.1 4.6 0 9.2.2 13.9z"/><path class="st4" d="M757.6 136.1c3.4-3.2 6.6-6.5 9.8-9.9-3.8-1.2-7.5-2.5-11.1-3.9.2 4.6.7 9.2 1.3 13.8z"/><path class="st3" d="M770.9 140.3c3.1-3.5 6.2-7 9-10.6-3.9-.9-7.7-1.9-11.5-3.1.8 4.5 1.6 9.1 2.5 13.7z"/><path class="st4" d="M785.1 143.5c2.9-3.7 5.6-7.5 8.2-11.3-4-.6-7.9-1.3-11.8-2.2 1.1 4.5 2.3 9 3.6 13.5z"/><path class="st4" d="M815.6 134.8C736.4 133.1 668.4 78 650.3.8c.5-.1.9-.2 1.4-.3C669.6 77 737 131.7 815.6 133.4v1.4z"/><path class="st3" d="M575.1 32.4c-4.7.4-9.3.6-13.9.7 1.7-3.6 3.2-7.3 4.6-11.1 3.1 3.3 6.3 6.8 9.3 10.4z"/><path class="st4" d="M569 45.6c-4.7 0-9.3-.2-13.9-.4 1.9-3.5 3.7-7 5.4-10.6 2.9 3.6 5.7 7.2 8.5 11z"/><path class="st3" d="M562.1 57.8c-4.7-.4-9.3-.9-13.8-1.5 2.2-3.3 4.2-6.6 6.2-10.1 2.6 3.8 5.2 7.7 7.6 11.6z"/><path class="st4" d="M554.2 69.8c-4.6-.7-9.2-1.6-13.7-2.6 2.4-3.1 4.7-6.3 6.9-9.5 2.4 3.9 4.6 8 6.8 12.1z"/><path class="st3" d="M545.7 80.7c-4.5-1.1-9-2.3-13.4-3.6 2.6-2.9 5.1-5.9 7.5-9 2.1 4.1 4 8.3 5.9 12.6z"/><path class="st4" d="M536.1 91.3c-4.4-1.4-8.8-3-13.1-4.7 2.8-2.7 5.6-5.5 8.2-8.3 1.7 4.2 3.4 8.5 4.9 13z"/><path class="st3" d="M526.1 100.7c-4.3-1.8-8.5-3.6-12.7-5.6 3-2.5 5.9-5 8.8-7.7 1.4 4.3 2.7 8.8 3.9 13.3z"/><path class="st4" d="M515 109.7c-4.2-2.1-8.2-4.3-12.2-6.6 3.2-2.2 6.3-4.6 9.3-7 1.1 4.4 2.1 9 2.9 13.6z"/><path class="st3" d="M503.7 117.5c-4-2.4-7.9-4.9-11.7-7.5 3.4-2 6.6-4.1 9.8-6.3.8 4.6 1.4 9.2 1.9 13.8z"/><path class="st4" d="M491.4 124.7c-3.8-2.7-7.5-5.5-11.1-8.3 3.5-1.7 6.9-3.6 10.3-5.5.4 4.5.7 9.2.8 13.8z"/><path class="st3" d="M479 130.8c-3.6-3-7.1-6-10.5-9.1 3.6-1.5 7.2-3.1 10.7-4.8.1 4.6 0 9.2-.2 13.9z"/><path class="st4" d="M465.6 136.1c-3.4-3.2-6.6-6.5-9.8-9.9 3.8-1.2 7.5-2.5 11.1-3.9-.3 4.6-.7 9.2-1.3 13.8z"/><path class="st3" d="M452.2 140.3c-3.1-3.5-6.2-7-9-10.6 3.9-.9 7.7-1.9 11.5-3.1-.7 4.5-1.5 9.1-2.5 13.7z"/><path class="st4" d="M438 143.5c-2.9-3.7-5.6-7.5-8.2-11.3 4-.6 7.9-1.3 11.8-2.2-1 4.5-2.2 9-3.6 13.5z"/><path class="st4" d="M407.6 134.8C486.8 133.1 554.8 78 572.9.8c-.5-.1-.9-.2-1.4-.3-17.9 76.5-85.4 131.2-163.9 132.9v1.4z"/><path class="st3" d="M240.1 32.4c4.7.4 9.3.6 13.9.7-1.7-3.6-3.2-7.3-4.6-11.1-3.2 3.3-6.3 6.8-9.3 10.4z"/><path class="st4" d="M246.2 45.6c4.7 0 9.3-.2 13.9-.4-1.9-3.5-3.7-7-5.4-10.6-2.9 3.6-5.7 7.2-8.5 11z"/><path class="st3" d="M253 57.8c4.7-.4 9.3-.9 13.8-1.5-2.2-3.3-4.2-6.6-6.2-10.1-2.5 3.8-5.1 7.7-7.6 11.6z"/><path class="st4" d="M261 69.8c4.6-.7 9.2-1.6 13.7-2.6-2.4-3.1-4.7-6.3-6.9-9.5-2.4 3.9-4.7 8-6.8 12.1z"/><path class="st3" d="M269.5 80.7c4.5-1.1 9-2.3 13.4-3.6-2.6-2.9-5.1-5.9-7.5-9-2.1 4.1-4.1 8.3-5.9 12.6z"/><path class="st4" d="M279.1 91.3c4.4-1.4 8.8-3 13.1-4.7-2.8-2.7-5.6-5.5-8.2-8.3-1.7 4.2-3.4 8.5-4.9 13z"/><path class="st3" d="M289.1 100.7c4.3-1.8 8.5-3.6 12.7-5.6-3-2.5-5.9-5-8.8-7.7-1.4 4.3-2.7 8.8-3.9 13.3z"/><path class="st4" d="M300.2 109.7c4.2-2.1 8.2-4.3 12.2-6.6-3.2-2.2-6.3-4.6-9.3-7-1.1 4.4-2.1 9-2.9 13.6z"/><path class="st3" d="M311.5 117.5c4-2.4 7.9-4.9 11.7-7.5-3.4-2-6.6-4.1-9.8-6.3-.8 4.6-1.4 9.2-1.9 13.8z"/><path class="st4" d="M323.8 124.7c3.8-2.7 7.5-5.5 11.1-8.3-3.5-1.7-6.9-3.6-10.3-5.5-.4 4.5-.7 9.2-.8 13.8z"/><path class="st3" d="M336.2 130.8c3.6-3 7.1-6 10.5-9.1-3.6-1.5-7.2-3.1-10.7-4.8-.1 4.6 0 9.2.2 13.9z"/><path class="st4" d="M349.6 136.1c3.4-3.2 6.6-6.5 9.8-9.9-3.8-1.2-7.5-2.5-11.1-3.9.2 4.6.7 9.2 1.3 13.8z"/><path class="st3" d="M362.9 140.3c3.1-3.5 6.2-7 9-10.6-3.9-.9-7.7-1.9-11.5-3.1.8 4.5 1.6 9.1 2.5 13.7z"/><path class="st4" d="M377.1 143.5c2.9-3.7 5.6-7.5 8.2-11.3-4-.6-7.9-1.3-11.8-2.2 1.1 4.5 2.3 9 3.6 13.5z"/><path class="st4" d="M407.6 134.8C328.4 133.1 260.4 78 242.3.8c.5-.1.9-.2 1.4-.3C261.6 77 329 131.7 407.6 133.4v1.4z"/><path class="st3" d="M167.1 32.4c-4.7.4-9.3.6-13.9.7 1.7-3.6 3.2-7.3 4.6-11.1 3.1 3.3 6.3 6.8 9.3 10.4z"/><path class="st4" d="M161 45.6c-4.7 0-9.3-.2-13.9-.4 1.9-3.5 3.7-7 5.4-10.6 2.9 3.6 5.7 7.2 8.5 11z"/><path class="st3" d="M154.1 57.8c-4.7-.4-9.3-.9-13.8-1.5 2.2-3.3 4.2-6.6 6.2-10.1 2.6 3.8 5.2 7.7 7.6 11.6z"/><path class="st4" d="M146.2 69.8c-4.6-.7-9.2-1.6-13.7-2.6 2.4-3.1 4.7-6.3 6.9-9.5 2.4 3.9 4.6 8 6.8 12.1z"/><path class="st3" d="M137.7 80.7c-4.5-1.1-9-2.3-13.4-3.6 2.6-2.9 5.1-5.9 7.5-9 2.1 4.1 4 8.3 5.9 12.6z"/><path class="st4" d="M128.1 91.3c-4.4-1.4-8.8-3-13.1-4.7 2.8-2.7 5.6-5.5 8.2-8.3 1.7 4.2 3.4 8.5 4.9 13z"/><path class="st3" d="M118.1 100.7c-4.3-1.8-8.5-3.6-12.7-5.6 3-2.5 5.9-5 8.8-7.7 1.4 4.3 2.7 8.8 3.9 13.3z"/><path class="st4" d="M107 109.7c-4.2-2.1-8.2-4.3-12.2-6.6 3.2-2.2 6.3-4.6 9.3-7 1.1 4.4 2.1 9 2.9 13.6z"/><path class="st3" d="M95.7 117.5c-4-2.4-7.9-4.9-11.7-7.5 3.4-2 6.6-4.1 9.8-6.3.8 4.6 1.4 9.2 1.9 13.8z"/><path class="st4" d="M83.4 124.7c-3.8-2.7-7.5-5.5-11.1-8.3 3.5-1.7 6.9-3.6 10.3-5.5.4 4.5.7 9.2.8 13.8z"/><path class="st3" d="M71 130.8c-3.6-3-7.1-6-10.5-9.1 3.6-1.5 7.2-3.1 10.7-4.8.1 4.6 0 9.2-.2 13.9z"/><path class="st4" d="M57.6 136.1c-3.4-3.2-6.6-6.5-9.8-9.9 3.8-1.2 7.5-2.5 11.1-3.9-.3 4.6-.7 9.2-1.3 13.8z"/><path class="st3" d="M44.2 140.3c-3.1-3.5-6.2-7-9-10.6 3.9-.9 7.7-1.9 11.5-3.1-.7 4.5-1.5 9.1-2.5 13.7z"/><path class="st4" d="M30 143.5c-2.9-3.7-5.6-7.5-8.2-11.3 4-.6 7.9-1.3 11.8-2.2-1 4.5-2.2 9-3.6 13.5z"/><path class="st4" d="M-.4 134.8C78.8 133.1 146.8 78 164.9.8c-.5-.1-.9-.2-1.4-.3C145.6 77 78.1 131.7-.4 133.4v1.4z"/><path class="st5" d="M987.2 30.7c4.4-3 8.7-6.1 12.8-9.4-4.1-2-8.1-4.2-12-6.5-.4 5.2-.7 10.5-.8 15.9z"/><path class="st6" d="M1002.1 38c4.1-3.4 8.1-6.8 12-10.4-4.2-1.7-8.3-3.5-12.4-5.5 0 5.3.1 10.6.4 15.9z"/><path class="st5" d="M1016.8 43.9c3.9-3.7 7.6-7.4 11.1-11.3-4.3-1.4-8.5-2.9-12.7-4.5.5 5.2 1 10.5 1.6 15.8z"/><path class="st6" d="M1032.4 48.8c3.5-4 6.9-8 10.2-12.1-4.3-1-8.6-2.2-12.9-3.5.8 5.2 1.7 10.4 2.7 15.6z"/><path class="st5" d="M1047.8 52.3c3.2-4.2 6.3-8.5 9.2-12.8-4.4-.7-8.7-1.5-13.1-2.5 1.1 5.1 2.4 10.2 3.9 15.3z"/><path class="st6" d="M1063.8 54.7c2.9-4.4 5.6-8.9 8.2-13.5-4.4-.3-8.8-.8-13.2-1.5 1.5 5 3.2 10 5 15z"/><path class="st5" d="M1079.4 55.9c2.6-4.6 4.9-9.3 7.2-14.1-4.4 0-8.8-.2-13.3-.5 1.9 4.9 3.9 9.8 6.1 14.6z"/><path class="st6" d="M1095.6 55.9c2.2-4.8 4.2-9.7 6.1-14.6-4.4.3-8.8.5-13.3.5 2.3 4.8 4.7 9.5 7.2 14.1z"/><path class="st5" d="M1111.2 54.7c1.8-5 3.5-10 5-15-4.4.6-8.8 1.1-13.2 1.5 2.6 4.6 5.3 9.1 8.2 13.5z"/><path class="st6" d="M1127.3 52.3c1.4-5.1 2.7-10.2 3.8-15.3-4.3 1-8.7 1.8-13.1 2.5 3 4.3 6 8.6 9.3 12.8z"/><path class="st5" d="M1142.6 48.8c1.1-5.2 2-10.4 2.7-15.6-4.3 1.3-8.6 2.5-12.9 3.5 3.3 4.1 6.7 8.1 10.2 12.1z"/><path class="st6" d="M1158.2 43.9c.7-5.3 1.2-10.5 1.5-15.8-4.2 1.7-8.4 3.2-12.7 4.5 3.7 3.9 7.4 7.6 11.2 11.3z"/><path class="st5" d="M1173 38c.3-5.3.4-10.6.4-15.9-4.1 2-8.2 3.8-12.4 5.5 3.9 3.6 7.8 7 12 10.4z"/><path class="st6" d="M1187.9 30.7c-.1-5.3-.4-10.6-.8-15.9-3.9 2.3-7.9 4.5-12 6.5 4.1 3.2 8.4 6.4 12.8 9.4z"/><path class="st6" d="M1208.5 1.2c-71.2 55.2-170.8 55.2-242 0 .3-.4.7-.9 1-1.3 70.6 54.8 169.4 54.8 240 0 .3.4.7.9 1 1.3z"/><path class="st5" d="M744.2 30.7c4.4-3 8.7-6.1 12.8-9.4-4.1-2-8.1-4.2-12-6.5-.4 5.2-.7 10.5-.8 15.9z"/><path class="st6" d="M759.1 38c4.1-3.4 8.1-6.8 12-10.4-4.2-1.7-8.3-3.5-12.4-5.5 0 5.3.1 10.6.4 15.9z"/><path class="st5" d="M773.8 43.9c3.9-3.7 7.6-7.4 11.1-11.3-4.3-1.4-8.5-2.9-12.7-4.5.5 5.2 1 10.5 1.6 15.8z"/><path class="st6" d="M789.4 48.8c3.5-4 6.9-8 10.2-12.1-4.3-1-8.6-2.2-12.9-3.5.8 5.2 1.7 10.4 2.7 15.6z"/><path class="st5" d="M804.8 52.3c3.2-4.2 6.3-8.5 9.2-12.8-4.4-.7-8.7-1.5-13.1-2.5 1.1 5.1 2.4 10.2 3.9 15.3z"/><path class="st6" d="M820.8 54.7c2.9-4.4 5.6-8.9 8.2-13.5-4.4-.3-8.8-.8-13.2-1.5 1.5 5 3.2 10 5 15z"/><path class="st5" d="M836.4 55.9c2.6-4.6 4.9-9.3 7.2-14.1-4.4 0-8.8-.2-13.3-.5 1.9 4.9 3.9 9.8 6.1 14.6z"/><path class="st6" d="M852.6 55.9c2.2-4.8 4.2-9.7 6.1-14.6-4.4.3-8.8.5-13.3.5 2.3 4.8 4.7 9.5 7.2 14.1z"/><path class="st5" d="M868.2 54.7c1.8-5 3.5-10 5-15-4.4.6-8.8 1.1-13.2 1.5 2.6 4.6 5.3 9.1 8.2 13.5z"/><path class="st6" d="M884.3 52.3c1.4-5.1 2.7-10.2 3.8-15.3-4.3 1-8.7 1.8-13.1 2.5 3 4.3 6 8.6 9.3 12.8z"/><path class="st5" d="M899.6 48.8c1.1-5.2 2-10.4 2.7-15.6-4.3 1.3-8.6 2.5-12.9 3.5 3.3 4.1 6.7 8.1 10.2 12.1z"/><path class="st6" d="M915.2 43.9c.7-5.3 1.2-10.5 1.5-15.8-4.2 1.7-8.4 3.2-12.7 4.5 3.7 3.9 7.4 7.6 11.2 11.3z"/><path class="st5" d="M930 38c.3-5.3.4-10.6.4-15.9-4.1 2-8.2 3.8-12.4 5.5 3.9 3.6 7.8 7 12 10.4z"/><path class="st6" d="M944.9 30.7c-.1-5.3-.4-10.6-.8-15.9-3.9 2.3-7.9 4.5-12 6.5 4.1 3.2 8.4 6.4 12.8 9.4z"/><path class="st6" d="M965.5 1.2c-71.2 55.2-170.8 55.2-242 0 .3-.4.7-.9 1-1.3 70.6 54.8 169.4 54.8 240 0 .3.4.7.9 1 1.3z"/><path class="st5" d="M503.2 30.7c4.4-3 8.7-6.1 12.8-9.4-4.1-2-8.1-4.2-12-6.5-.4 5.2-.7 10.5-.8 15.9z"/><path class="st6" d="M518.1 38c4.1-3.4 8.1-6.8 12-10.4-4.2-1.7-8.3-3.5-12.4-5.5 0 5.3.1 10.6.4 15.9z"/><path class="st5" d="M532.8 43.9c3.9-3.7 7.6-7.4 11.1-11.3-4.3-1.4-8.5-2.9-12.7-4.5.5 5.2 1 10.5 1.6 15.8z"/><path class="st6" d="M548.4 48.8c3.5-4 6.9-8 10.2-12.1-4.3-1-8.6-2.2-12.9-3.5.8 5.2 1.7 10.4 2.7 15.6z"/><path class="st5" d="M563.8 52.3c3.2-4.2 6.3-8.5 9.2-12.8-4.4-.7-8.7-1.5-13.1-2.5 1.1 5.1 2.4 10.2 3.9 15.3z"/><path class="st6" d="M579.8 54.7c2.9-4.4 5.6-8.9 8.2-13.5-4.4-.3-8.8-.8-13.2-1.5 1.5 5 3.2 10 5 15z"/><path class="st5" d="M595.4 55.9c2.6-4.6 4.9-9.3 7.2-14.1-4.4 0-8.8-.2-13.3-.5 1.9 4.9 3.9 9.8 6.1 14.6z"/><path class="st6" d="M611.6 55.9c2.2-4.8 4.2-9.7 6.1-14.6-4.4.3-8.8.5-13.3.5 2.3 4.8 4.7 9.5 7.2 14.1z"/><path class="st5" d="M627.2 54.7c1.8-5 3.5-10 5-15-4.4.6-8.8 1.1-13.2 1.5 2.6 4.6 5.3 9.1 8.2 13.5z"/><path class="st6" d="M643.3 52.3c1.4-5.1 2.7-10.2 3.8-15.3-4.3 1-8.7 1.8-13.1 2.5 3 4.3 6 8.6 9.3 12.8z"/><path class="st5" d="M658.6 48.8c1.1-5.2 2-10.4 2.7-15.6-4.3 1.3-8.6 2.5-12.9 3.5 3.3 4.1 6.7 8.1 10.2 12.1z"/><path class="st6" d="M674.2 43.9c.7-5.3 1.2-10.5 1.5-15.8-4.2 1.7-8.4 3.2-12.7 4.5 3.7 3.9 7.4 7.6 11.2 11.3z"/><path class="st5" d="M689 38c.3-5.3.4-10.6.4-15.9-4.1 2-8.2 3.8-12.4 5.5 3.9 3.6 7.8 7 12 10.4z"/><path class="st6" d="M703.9 30.7c-.1-5.3-.4-10.6-.8-15.9-3.9 2.3-7.9 4.5-12 6.5 4.1 3.2 8.4 6.4 12.8 9.4z"/><path class="st6" d="M724.5 1.2c-71.2 55.2-170.8 55.2-242 0 .3-.4.7-.9 1-1.3 70.6 54.8 169.4 54.8 240 0 .3.4.7.9 1 1.3z"/><path class="st5" d="M262.2 30.7c4.4-3 8.7-6.1 12.8-9.4-4.1-2-8.1-4.2-12-6.5-.4 5.2-.7 10.5-.8 15.9z"/><path class="st6" d="M277.1 38c4.1-3.4 8.1-6.8 12-10.4-4.2-1.7-8.3-3.5-12.4-5.5 0 5.3.1 10.6.4 15.9z"/><path class="st5" d="M291.8 43.9c3.9-3.7 7.6-7.4 11.1-11.3-4.3-1.4-8.5-2.9-12.7-4.5.5 5.2 1 10.5 1.6 15.8z"/><path class="st6" d="M307.4 48.8c3.5-4 6.9-8 10.2-12.1-4.3-1-8.6-2.2-12.9-3.5.8 5.2 1.7 10.4 2.7 15.6z"/><path class="st5" d="M322.8 52.3c3.2-4.2 6.3-8.5 9.2-12.8-4.4-.7-8.7-1.5-13.1-2.5 1.1 5.1 2.4 10.2 3.9 15.3z"/><path class="st6" d="M338.8 54.7c2.9-4.4 5.6-8.9 8.2-13.5-4.4-.3-8.8-.8-13.2-1.5 1.5 5 3.2 10 5 15z"/><path class="st5" d="M354.4 55.9c2.6-4.6 4.9-9.3 7.2-14.1-4.4 0-8.8-.2-13.3-.5 1.9 4.9 3.9 9.8 6.1 14.6z"/><path class="st6" d="M370.6 55.9c2.2-4.8 4.2-9.7 6.1-14.6-4.4.3-8.8.5-13.3.5 2.3 4.8 4.7 9.5 7.2 14.1z"/><path class="st5" d="M386.2 54.7c1.8-5 3.5-10 5-15-4.4.6-8.8 1.1-13.2 1.5 2.6 4.6 5.3 9.1 8.2 13.5z"/><path class="st6" d="M402.3 52.3c1.4-5.1 2.7-10.2 3.8-15.3-4.3 1-8.7 1.8-13.1 2.5 3 4.3 6 8.6 9.3 12.8z"/><path class="st5" d="M417.6 48.8c1.1-5.2 2-10.4 2.7-15.6-4.3 1.3-8.6 2.5-12.9 3.5 3.3 4.1 6.7 8.1 10.2 12.1z"/><path class="st6" d="M433.2 43.9c.7-5.3 1.2-10.5 1.5-15.8-4.2 1.7-8.4 3.2-12.7 4.5 3.7 3.9 7.4 7.6 11.2 11.3z"/><path class="st5" d="M448 38c.3-5.3.4-10.6.4-15.9-4.1 2-8.2 3.8-12.4 5.5 3.9 3.6 7.8 7 12 10.4z"/><path class="st6" d="M462.9 30.7c-.1-5.3-.4-10.6-.8-15.9-3.9 2.3-7.9 4.5-12 6.5 4.1 3.2 8.4 6.4 12.8 9.4z"/><path class="st6" d="M483.5 1.2c-71.2 55.2-170.8 55.2-242 0 .3-.4.7-.9 1-1.3 70.6 54.8 169.4 54.8 240 0 .3.4.7.9 1 1.3z"/><path class="st5" d="M20.2 30.7c4.4-3 8.7-6.1 12.8-9.4-4.1-2-8.1-4.2-12-6.5-.4 5.2-.7 10.5-.8 15.9z"/><path class="st6" d="M35.1 38c4.1-3.4 8.1-6.8 12-10.4-4.2-1.7-8.3-3.5-12.4-5.5 0 5.3.1 10.6.4 15.9z"/><path class="st5" d="M49.8 43.9c3.9-3.7 7.6-7.4 11.1-11.3-4.3-1.4-8.5-2.9-12.7-4.5.5 5.2 1 10.5 1.6 15.8z"/><path class="st6" d="M65.4 48.8c3.5-4 6.9-8 10.2-12.1-4.3-1-8.6-2.2-12.9-3.5.8 5.2 1.7 10.4 2.7 15.6z"/><path class="st5" d="M80.8 52.3c3.2-4.2 6.3-8.5 9.2-12.8-4.4-.7-8.7-1.5-13.1-2.5 1.1 5.1 2.4 10.2 3.9 15.3z"/><path class="st6" d="M96.8 54.7c2.9-4.4 5.6-8.9 8.2-13.5-4.4-.3-8.8-.8-13.2-1.5 1.5 5 3.2 10 5 15z"/><path class="st5" d="M112.4 55.9c2.6-4.6 4.9-9.3 7.2-14.1-4.4 0-8.8-.2-13.3-.5 1.9 4.9 3.9 9.8 6.1 14.6z"/><path class="st6" d="M128.6 55.9c2.2-4.8 4.2-9.7 6.1-14.6-4.4.3-8.8.5-13.3.5 2.3 4.8 4.7 9.5 7.2 14.1z"/><path class="st5" d="M144.2 54.7c1.8-5 3.5-10 5-15-4.4.6-8.8 1.1-13.2 1.5 2.6 4.6 5.3 9.1 8.2 13.5z"/><path class="st6" d="M160.3 52.3c1.4-5.1 2.7-10.2 3.8-15.3-4.3 1-8.7 1.8-13.1 2.5 3 4.3 6 8.6 9.3 12.8z"/><path class="st5" d="M175.6 48.8c1.1-5.2 2-10.4 2.7-15.6-4.3 1.3-8.6 2.5-12.9 3.5 3.3 4.1 6.7 8.1 10.2 12.1z"/><path class="st6" d="M191.2 43.9c.7-5.3 1.2-10.5 1.5-15.8-4.2 1.7-8.4 3.2-12.7 4.5 3.7 3.9 7.4 7.6 11.2 11.3z"/><path class="st5" d="M206 38c.3-5.3.4-10.6.4-15.9-4.1 2-8.2 3.8-12.4 5.5 3.9 3.6 7.8 7 12 10.4z"/><path class="st6" d="M220.9 30.7c-.1-5.3-.4-10.6-.8-15.9-3.9 2.3-7.9 4.5-12 6.5 4.1 3.2 8.4 6.4 12.8 9.4z"/><path class="st6" d="M241.5 1.2c-71.2 55.2-170.8 55.2-242 0C-.2.8.2.3.5-.1c70.6 54.8 169.4 54.8 240 0 .3.4.7.9 1 1.3z"/></svg>