<svg version="1.1" id="Layer_1" xmlns="http://www.w3.org/2000/svg" x="0" y="0" viewBox="0 0 1152 144" xml:space="preserve"><style>.st0{fill:#dca3bc}.st1{fill:#eb8ac1}.st2{fill:#f0dc78}.st3{fill:#60b3b3}</style><path class="st0" d="M510.4 49.6c0-.8-.7-1.5-1.5-1.5s-1.5.7-1.5 1.5.7 1.5 1.5 1.5c.9.1 1.5-.6 1.5-1.5zm2.4-23.8c0-1-.7-1.6-1.6-1.6-1 0-1.6.7-1.6 1.6 0 1 .7 1.6 1.6 1.6 1 0 1.6-.7 1.6-1.6zm20.1-4.5c0-.5-.4-1.1-1.1-1.1-.5 0-1.1.4-1.1 1.1 0 .5.4 1.1 1.1 1.1.6 0 1.1-.4 1.1-1.1zm7.8 5.1c0-1-.8-1.7-1.7-1.7-1 0-1.7.8-1.7 1.7 0 .8.8 1.7 1.7 1.7s1.7-.8 1.7-1.7zm-4.4 33c0-.4-.3-.8-.8-.8s-.8.3-.8.8c0 .4.3.8.8.8.5.1.8-.3.8-.8zm35 22c0-.8-.5-1.4-1.4-1.4-.8 0-1.4.5-1.4 1.4 0 .8.5 1.4 1.4 1.4.6 0 1.4-.5 1.4-1.4zm4 29c0-.4-.4-1-1-1-.4 0-1 .4-1 1 0 .4.4 1 1 1 .7-.3 1-.6 1-1z"/><circle class="st0" cx="589.2" cy="92.1" r="1.4"/><circle class="st0" cx="616.5" cy="107.1" r=".8"/><path class="st0" d="M614.2 62.3c0-.8-.7-1.5-1.5-1.5-.7 0-1.5.7-1.5 1.5s.7 1.5 1.5 1.5c.8-.1 1.5-.8 1.5-1.5z"/><circle class="st0" cx="640.6" cy="96.6" r="1.2"/><path class="st0" d="M617.3 52.1c0-.4-.3-1-1-1-.5 0-1 .3-1 1 0 .4.3 1 1 1s1-.5 1-1zm24.2-22.3c0-.7-.5-1.2-1.2-1.2s-1.2.5-1.2 1.2.5 1.2 1.2 1.2c.5 0 1.2-.6 1.2-1.2z"/><circle class="st0" cx="664.5" cy=".8" r=".8"/><path class="st0" d="M702.9 29.7c0-.8-.7-1.5-1.5-1.5s-1.5.7-1.5 1.5.7 1.5 1.5 1.5c.8.1 1.5-.7 1.5-1.5zm8.4-21c0-.4-.3-1-1-1-.4 0-1 .3-1 1 0 .5.3 1 1 1 .5 0 1-.5 1-1z"/><circle class="st0" cx="721.7" cy="41.9" r="1"/><circle class="st0" cx="755.2" cy="9" r=".8"/><circle class="st0" cx="777.6" cy="17" r="1.1"/><path class="st0" d="M852.1 10.4c0 .8.5 1.4 1.4 1.4s1.4-.5 1.4-1.4-.6-1.4-1.4-1.4-1.4.7-1.4 1.4z"/><circle class="st0" cx="820.7" cy="1.6" r="1.6"/><circle class="st0" cx="882.2" cy="61.5" r="1.5"/><circle class="st0" cx="864" cy="45.5" r="1.3"/><circle class="st0" cx="834.8" cy="66.8" r="1.5"/><path class="st0" d="M830.9 90.8c0 1 .7 1.6 1.6 1.6s1.6-.7 1.6-1.6c0-1-.7-1.6-1.6-1.6-1 0-1.6.6-1.6 1.6zm-20 4.3c0 .5.4 1.1 1.1 1.1s1.1-.4 1.1-1.1c0-.5-.4-1.1-1.1-1.1s-1.1.6-1.1 1.1zm-7.9-5c0 1 .8 1.7 1.7 1.7.8 0 1.7-.8 1.7-1.7s-.8-1.7-1.7-1.7c-.9.2-1.7.9-1.7 1.7zm4.4-32.9c0 .4.3.8.8.8.4 0 .8-.3.8-.8 0-.4-.3-.8-.8-.8-.3-.1-.8.2-.8.8zm-35-22.1c0 .8.5 1.4 1.4 1.4s1.4-.5 1.4-1.4-.5-1.4-1.4-1.4c-.6-.1-1.4.6-1.4 1.4zm-4-28.8c0 .4.4 1 1 1 .4 0 1-.4 1-1s-.4-1-1-1c-.5 0-1 .4-1 1z"/><circle class="st0" cx="754.5" cy="24.5" r="1.4"/><circle class="st0" cx="727.5" cy="9.5" r=".8"/><path class="st0" d="M729.6 54.3c0 .8.7 1.5 1.5 1.5s1.5-.7 1.5-1.5-.7-1.5-1.5-1.5c-.9.1-1.5.8-1.5 1.5z"/><circle class="st0" cx="703.1" cy="19.9" r="1.2"/><path class="st0" d="M726.5 64.4c0 .4.3 1 1 1 .4 0 1-.3 1-1 0-.4-.3-1-1-1-.7.1-1 .5-1 1zm-24.3 22.5c0 .7.5 1.2 1.2 1.2s1.2-.5 1.2-1.2-.5-1.2-1.2-1.2c-.5-.1-1.2.4-1.2 1.2z"/><circle class="st0" cx="679.3" cy="115.7" r=".8"/><path class="st0" d="M640.8 86.9c0 .8.7 1.5 1.5 1.5s1.5-.7 1.5-1.5-.7-1.5-1.5-1.5c-.8-.1-1.5.6-1.5 1.5zm-8.2 21c0 .4.3 1 1 1 .4 0 1-.3 1-1 0-.4-.3-1-1-1-.6.1-1 .4-1 1zm-10.5-34.1c.5 0 1 .4 1 1 0 .5-.4 1-1 1-.5 0-1-.4-1-1s.4-1 1-1zm-34.4 33.6c0 .4.3.8.8.8s.8-.3.8-.8c0-.4-.3-.8-.8-.8s-.8.5-.8.8zm-22.6-7.8c0 .5.4 1.1 1.1 1.1s1.1-.4 1.1-1.1c0-.5-.4-1.1-1.1-1.1s-1.1.6-1.1 1.1z"/><path class="st1" d="M626.9 8.4c.2 10.6 0 37.8 0 37.8s-1.2-27.1-1.4-37.8c.2-.9 1.4-.9 1.4 0zm13.3 6.7c-1.2 1.9-2.5 4.6-3.9 7.6s-2.5 6.5-3.5 9.8-1.4 6.4-1.6 8.6c-.1 1.2-.2 2.1-.2 2.7s-.1 1.1-.1 1.1v-1.1c0-.7 0-1.5.1-2.7.1-2.3.4-5.3 1.2-8.7s1.7-7 3-10.1c1.3-3.2 2.7-5.9 3.8-7.8.4-.7 1.5 0 1.2.6zm12.3 11.6c-1.5 1.1-3.5 2.5-5.7 4.2-2.1 1.9-4.2 3.9-6 6-1.9 2.1-3.4 4.1-4.5 5.8-.4.8-1 1.4-1.2 1.9-.2.4-.4.7-.4.7s.1-.2.3-.7c.2-.4.5-1.2 1.1-2 1-1.6 2.3-3.8 4-6s3.8-4.6 5.8-6.5c2.1-2 4-3.6 5.6-4.7.7-.1 1.4 1 1 1.3zm6.8 16.6c-1.5-.1-3.7-.2-6-.1s-4.9.4-7.2 1.1c-2.3.5-4.5 1.3-5.9 1.9-.7.3-1.4.5-1.7.7-.4.2-.7.2-.7.2s.2-.1.5-.3 1-.5 1.7-1c1.4-.7 3.5-1.6 5.8-2.3s4.9-1.3 7.3-1.5c2.4-.2 4.7-.2 6.3-.1.5.1.4 1.4-.1 1.4zm10.8 14.2c-1.9-1-4.7-2.1-7.6-3.2-3-1.1-6.5-1.9-9.8-2.4s-6.3-.7-8.5-.8h-3.5s.3 0 1-.1c.6-.1 1.5-.1 2.5-.1 2.2-.1 5.2 0 8.5.3s6.9 1.1 10 2.1c3.2 1 5.9 2.1 7.8 3 .8.2.2 1.4-.4 1.2zm-9 12.3c-1.1-1.2-2.7-2.8-4.6-4.5-1.9-1.6-3.9-3.4-5.9-4.8-2-1.4-3.9-2.7-5.4-3.5-.7-.4-1.3-.7-1.7-1-.4-.2-.7-.3-.7-.3s.2.1.7.3c.4.2 1.1.4 1.9.8 1.5.7 3.6 1.7 5.7 3.2 2.1 1.3 4.5 2.9 6.3 4.6 2 1.6 3.6 3.2 4.8 4.5.2 0-.8 1-1.1.7zm-6 20c-.4-2.1-1.2-5.1-2.2-8.3-1.1-3.2-2.4-6.5-3.8-9.5-1.5-3-3.2-5.7-4.2-7.5-.5-1-1.2-1.7-1.5-2.2-.3-.4-.5-.8-.5-.8s.2.2.5.8c.4.4 1 1.2 1.6 2.1 1.4 1.9 3.2 4.5 4.8 7.3 1.6 2.9 3.3 6.3 4.2 9.5 1.2 3.2 2 6.2 2.4 8.4 0 .8-1.2 1-1.3.2zm-12.9-8.2c-.4-2.7-1.4-7.5-2.5-11.6-.5-2-1.3-3.8-1.7-5.2-.2-.7-.4-1.2-.5-1.5s-.2-.5-.2-.5.1.2.2.5c.2.3.4 1 .7 1.5.5 1.3 1.4 3 2.2 5.1.8 2 1.5 4.1 2.1 6.3.5 2.1 1 3.9 1.2 5.3-.1.4-1.4.6-1.5.1zm-10.7 12.6c-.3-8.7-.7-31.2-.7-31.2s1.6 22.4 2 31.2c0 .6-1.3.6-1.3 0zm4.8-10.8c-.1-2.7-.4-7.5-1.2-11.8-.3-2.1-.7-3.9-1.1-5.3-.1-.7-.2-1.3-.3-1.6-.1-.3-.1-.5-.1-.5s.1.2.2.5.3 1 .5 1.6c.4 1.4 1 3.3 1.5 5.2 1.1 4 1.6 8.9 1.7 11.8.2.4-1.1.4-1.2.1zm-8.6-1.4c-.1-5.1.2-18.3.2-18.3s1 13.2 1.1 18.3c0 .3-1.3.4-1.3 0zm10.7-75.2c-1 2.1-2.1 4.9-3.3 8.1s-2.3 6.7-3.2 10c-1 3.3-1.5 6.4-2 8.6-.2 1.2-.3 2.1-.4 2.7-.1.5-.1 1.1-.1 1.1s0-.3.1-1.1c.1-.7.1-1.5.3-2.7.3-2.3.8-5.3 1.5-8.7s1.6-7 2.8-10.2c1.1-3.3 2.2-6.2 3.2-8.3.3-.7 1.4-.3 1.1.5zm24.1 5.5c-2 1-4.8 2.3-7.6 4.1-2.9 1.9-5.8 4-8.4 6.5-2.5 2.3-4.7 4.8-6 6.5-.7 1-1.3 1.6-1.6 2.2-.3.5-.5.8-.5.8s.2-.3.5-.8.8-1.4 1.5-2.3c1.4-1.9 3.3-4.5 5.7-6.9s5.3-5 8.2-6.9c2.9-2 5.7-3.5 7.7-4.5.5-.2 1 1 .5 1.3zm9.9 26.4c-1.9-.4-4.5-1-7.2-1.3-2.9-.3-6-.3-8.9 0-2.9.2-5.4.8-7.4 1.3-1 .2-1.7.4-2.2.7-.5.1-.8.2-.8.2s.2-.1.8-.3c.4-.2 1.3-.4 2.2-.8 1.9-.5 4.5-1.3 7.4-1.7s6.2-.5 9-.4c2.9.1 5.6.5 7.4 1.1.7 0 .4 1.3-.3 1.2zm6.3 17.7c-1.5-.7-3.6-1.7-6-2.7-2.3-1-5-1.9-7.5-2.7-2.4-.7-4.8-1.3-6.5-1.6-.8-.2-1.5-.3-2-.4-.4-.1-.7-.1-.7-.1s.2 0 .8.1c.4 0 1.2.1 2.1.2 1.7.2 4 .7 6.6 1.3 2.5.5 5.2 1.4 7.6 2.2s4.7 1.7 6.2 2.5c.5.2-.1 1.4-.6 1.2zm-4.8 12.3c-1-1-2.2-2.2-3.7-3.6s-3.2-2.8-4.8-3.9c-1.6-1.3-3.2-2.3-4.1-3-.5-.3-1.1-.7-1.4-.8-.3-.2-.4-.3-.4-.3s.2.1.5.2.8.4 1.4.7c1.2.5 2.8 1.5 4.6 2.7 1.7 1.1 3.5 2.4 5.1 3.7 1.6 1.3 2.9 2.5 3.8 3.5.3.3-.5 1-1 .8zm-9.8 16.1c-.5-1.5-1.5-3.6-2.7-5.8-1.2-2.2-2.7-4.5-4.2-6.4-1.5-2-3.2-3.6-4.5-4.8-.5-.5-1.2-1.1-1.5-1.4s-.5-.4-.5-.4.2.1.5.4c.3.2 1 .7 1.6 1.3 1.3 1.1 3 2.7 4.8 4.6s3.4 4 4.8 6.3c1.4 2.2 2.3 4.2 3 5.8 0 .4-1.2.9-1.3.4zm-18.2-5.4c-1-2.4-2.9-8.7-2.9-8.7s3.2 5.9 4 8.3c.2.1-1 .6-1.1.4zm-38.4-53.7c1.5 1.1 3.6 2.7 5.6 4.7 2.1 2 4.1 4.1 5.8 6.5 1.7 2.2 3.2 4.5 4 6 .4.8.8 1.5 1.1 2 .2.4.3.7.3.7s-.1-.2-.4-.7c-.2-.4-.7-1.1-1.2-1.9-1.1-1.5-2.5-3.6-4.5-5.8-1.9-2.1-3.9-4.2-6-6-2.1-1.9-4.1-3.4-5.7-4.2-.1-.6.6-1.7 1-1.3zM599.8 42c1.6-.1 3.8-.1 6.3.1 2.4.2 5 .8 7.3 1.5s4.5 1.6 5.8 2.3c.7.3 1.3.7 1.7 1 .3.2.5.3.5.3s-.2-.1-.7-.2c-.4-.2-1.1-.4-1.7-.7-1.5-.5-3.6-1.3-5.9-1.9-2.3-.6-4.9-1-7.2-1.1s-4.6 0-6 .1c-.4-.1-.5-1.4-.1-1.4zm-11.1 14.3c2-1 4.8-2.1 7.8-3s6.7-1.6 10-2.1c3.3-.3 6.3-.4 8.5-.3 1.1 0 2 .1 2.5.1s1 .1 1 .1H615c-2.2 0-5.2.2-8.5.8-3.3.5-6.6 1.4-9.8 2.4-3 1.1-5.8 2.2-7.6 3.2-.4.2-1-1-.4-1.2zm8.6 12.5c1.2-1.2 2.8-2.8 4.8-4.5 2-1.6 4.1-3.2 6.3-4.6 2.1-1.3 4.1-2.4 5.7-3.2.8-.3 1.4-.5 1.9-.8.4-.2.7-.3.7-.3s-.2.1-.7.3c-.4.2-1.1.5-1.7 1-1.4.8-3.4 2-5.4 3.5-2 1.4-4 3.2-5.9 4.8-1.9 1.6-3.4 3.3-4.6 4.5-.4.6-1.5-.4-1.1-.7zm5.8 20.8c.4-2.2 1.3-5.2 2.4-8.4 1.2-3.2 2.7-6.5 4.2-9.5 1.6-3 3.4-5.6 4.8-7.3.7-1 1.3-1.6 1.6-2.1.3-.4.5-.8.5-.8s-.2.2-.5.8c-.3.4-1 1.3-1.5 2.2-1.3 1.9-2.9 4.6-4.2 7.5-1.5 3-2.9 6.4-3.9 9.5-1.1 3.2-1.7 6.2-2.2 8.3-.2.8-1.4.6-1.2-.2zm12.7-8.3c.2-1.4.7-3.3 1.2-5.3.5-2.1 1.3-4.2 2.1-6.3s1.6-3.7 2.2-5.1c.3-.7.5-1.2.7-1.5s.2-.5.2-.5-.1.2-.2.5-.3 1-.5 1.5c-.4 1.3-1.2 3.2-1.7 5.2-1.3 4-2.2 8.8-2.5 11.6-.3.7-1.6.5-1.5-.1zm6 1.9c.1-2.8.8-7.6 1.7-11.8.4-2.1 1.1-3.9 1.5-5.2.2-.7.3-1.2.5-1.6.1-.3.2-.5.2-.5s0 .2-.1.5-.2 1-.3 1.6c-.3 1.4-.7 3.3-1.1 5.3-.7 4.1-1.1 8.9-1.2 11.8 0 .4-1.2.4-1.2-.1zM597.5 11c2.1 1 4.9 2.4 7.7 4.5s5.7 4.5 8.2 6.9c2.4 2.4 4.5 5 5.7 6.9.7 1 1.2 1.7 1.5 2.3s.5.8.5.8-.2-.3-.5-.8-1-1.3-1.6-2.2c-1.4-1.9-3.5-4.1-6-6.5-2.5-2.3-5.4-4.7-8.4-6.5-2.9-1.9-5.7-3.3-7.6-4.1-.7-.3-.2-1.5.5-1.3zm-11 26.4c1.9-.4 4.6-1 7.4-1.1 2.9-.2 6.2 0 9 .4 2.9.4 5.6 1.2 7.4 1.7 1 .3 1.6.5 2.2.8.4.2.8.3.8.3s-.3-.1-.8-.2c-.4-.2-1.3-.3-2.2-.7-1.9-.4-4.6-1.1-7.4-1.3-2.9-.2-6-.2-8.9 0s-5.4.8-7.2 1.3c-.5.2-.8-1.1-.3-1.2zm-6.4 17.9c1.5-.7 3.7-1.6 6.2-2.5 2.4-.8 5.2-1.6 7.6-2.2 2.5-.5 4.9-1.1 6.6-1.3.8-.1 1.5-.2 2.1-.2.4 0 .8-.1.8-.1s-.2 0-.7.1c-.4.1-1.2.2-2 .4-1.7.3-4 1-6.5 1.6-2.4.7-5.1 1.6-7.5 2.7-2.4 1-4.6 2-6 2.7-.5.1-1-1.1-.6-1.2zm4.3 12.5c1-1 2.3-2.2 3.8-3.5 1.6-1.3 3.4-2.5 5.1-3.7 1.7-1.2 3.4-2 4.6-2.7.5-.3 1.1-.5 1.4-.7.3-.2.5-.2.5-.2s-.2.1-.4.3c-.3.2-.8.4-1.4.8-1.2.7-2.7 1.7-4.1 3-1.6 1.3-3.3 2.7-4.8 3.9-1.5 1.4-2.8 2.7-3.7 3.6-.3.3-1.3-.4-1-.8zm9.6 16.6c.5-1.5 1.6-3.7 3-5.8 1.3-2.2 3-4.5 4.8-6.3 1.7-1.9 3.5-3.5 4.8-4.6.7-.5 1.2-1 1.6-1.3.3-.2.5-.4.5-.4s-.2.1-.5.4-1 .8-1.5 1.4c-1.3 1.2-2.9 2.8-4.5 4.8-1.5 2-3.2 4.1-4.2 6.4-1.2 2.2-2.1 4.2-2.7 5.8-.3.5-1.4 0-1.3-.4zm18.2-5.5c1-2.4 4-8.3 4-8.3s-1.9 6.4-2.9 8.7c.1.3-1.2-.2-1.1-.4zm6.3-65.7c1.2 2.5 2.8 7.3 3.7 11.3.4 2.1.8 4 1.1 5.4.1.7.2 1.3.2 1.6s.1.5.1.5 0-.2-.1-.5-.2-1-.3-1.6c-.3-1.4-.8-3.3-1.5-5.3-1.3-4-3.2-8.6-4.2-11-.3-.2.9-.8 1-.4z"/><path class="st2" d="M738.3 53.2c.1 6.2 0 21.8 0 21.8s-.7-15.7-.8-21.8c.1-.4.8-.4.8 0zm7.6 4c-.7 1.1-1.5 2.7-2.3 4.5s-1.5 3.8-2 5.7c-.4 1.9-.8 3.7-1 5-.1.7-.1 1.2-.1 1.5v.5-.5c0-.3 0-1 .1-1.5.1-1.3.2-3.2.7-5.1.4-2 1.1-3.9 1.7-5.8.7-1.9 1.5-3.5 2.2-4.6.2-.5.9-.2.7.3zm7.1 6.6c-.8.5-2.1 1.5-3.3 2.5-1.3 1.1-2.4 2.3-3.5 3.5-1.1 1.3-2 2.4-2.5 3.4-.3.4-.5.8-.7 1.1-.1.2-.2.3-.2.3s.1-.1.2-.4c.1-.2.3-.7.5-1.2.5-1 1.4-2.2 2.3-3.5 1.1-1.3 2.2-2.7 3.4-3.7 1.2-1.2 2.3-2.1 3.3-2.7.4-.1.9.6.5.7zm4.1 9.7c-1-.1-2.1-.1-3.5 0s-2.8.2-4.1.5-2.5.7-3.4 1.1c-.4.1-.8.3-1.1.4-.2.1-.3.1-.3.1s.1-.1.3-.2.5-.3 1-.4c.8-.3 2-1 3.4-1.3 1.4-.4 2.8-.7 4.1-.8 1.4-.1 2.7-.1 3.6-.1.3-.1.2.7 0 .7zm6.1 8.1c-1.1-.5-2.7-1.3-4.5-1.9-1.7-.5-3.7-1.1-5.6-1.4-1.9-.3-3.6-.4-4.9-.4h-2 .5c.3 0 1-.1 1.5-.1 1.3 0 3 0 4.9.2s3.9.5 5.8 1.2c1.9.6 3.5 1.2 4.6 1.7.4.2 0 1-.3.7zm-5.2 7.2c-1.3-1.4-3.6-3.7-6-5.3-1.2-.8-2.3-1.5-3.2-2-.4-.2-.8-.4-1.1-.5s-.3-.2-.3-.2.1.1.3.1c.2.1.5.2 1.1.4 1 .4 2.1 1.1 3.3 1.7 2.4 1.5 5.1 3.7 6.4 5.1.3.3-.3.9-.5.7zm-3.5 11.6c-.2-1.3-.7-2.9-1.3-4.8s-1.4-3.7-2.2-5.4c-.8-1.7-1.7-3.3-2.5-4.2-.3-.5-.7-1-1-1.3.2.2.5.7 1 1.3.8 1.1 1.9 2.5 2.8 4.2.8 1.7 1.9 3.6 2.5 5.4.7 1.9 1.2 3.6 1.4 4.9.1.1-.6.2-.7-.1zm-7.4-4.7c-.2-1.5-.8-4.2-1.5-6.7-.3-1.2-.7-2.2-1.1-3-.3-.8-.4-1.3-.4-1.3s.2.4.5 1.2.8 1.7 1.3 2.9c1 2.3 1.6 5.1 1.9 6.7 0 .3-.6.4-.7.2zM741 103c-.2-5.1-.3-18.1-.3-18.1s1 13 1.2 18c-.2.4-.9.4-.9.1zm2.7-6.4c-.1-1.6-.2-4.5-.7-6.7-.3-2.4-1-4.5-1-4.5s.7 1.9 1.3 4.2 1 5.2 1.1 6.9c.1.3-.7.3-.7.1zm-5-.7c-.1-3 .1-10.6.1-10.6s.5 7.6.5 10.6c.2.1-.6.2-.6 0zm6.2-43.5c-1.1 2.3-2.7 6.6-3.7 10.4-.4 1.9-1 3.7-1.2 5-.1.7-.2 1.2-.2 1.5-.1.3-.1.5-.1.5s0-.2.1-.5c0-.3.1-1 .2-1.5.2-1.3.4-3.2 1-5.1.8-3.9 2.3-8.3 3.4-10.7.1-.4.7-.1.5.4zm13.9 3.1c-1.2.5-2.8 1.4-4.5 2.4-1.6 1.1-3.4 2.4-4.8 3.7-1.5 1.4-2.7 2.8-3.5 3.8-.4.5-.7 1-1 1.3-.2.3-.3.4-.3.4s.1-.2.3-.4c.2-.3.4-.8 1-1.3.8-1.1 1.9-2.5 3.4-3.9 1.4-1.4 3-2.9 4.8-3.9 1.6-1.2 3.3-2 4.5-2.5.2-.4.5.3.1.4zm5.8 15.3c-1.1-.2-2.5-.5-4.1-.7-1.6-.1-3.5-.1-5.1 0s-3.2.4-4.2.7c-.5.1-1 .2-1.3.3-.3.1-.4.1-.4.1s.1-.1.4-.2.7-.2 1.3-.4c1.1-.3 2.5-.8 4.2-1.1 1.6-.2 3.5-.3 5.2-.2 1.7.1 3.3.3 4.2.5.2.3.1 1-.2 1zm3.6 10.2c-1.7-.8-5-2.2-7.7-3-1.4-.4-2.8-.7-3.7-1-1-.2-1.6-.3-1.6-.3s.5.1 1.6.2 2.3.3 3.8.7c2.9.7 6.3 1.9 8.1 2.8 0 0-.2.7-.5.6zm-2.6 7.2c-1.1-1.1-3-2.9-4.9-4.2-1-.7-1.7-1.3-2.4-1.7-.7-.4-1.1-.7-1.1-.7s.4.2 1.2.5 1.6 1 2.5 1.5c2 1.3 4 3 5.1 4.1.2 0-.3.6-.4.5zm-5.9 9.3c-.3-1-1-2.1-1.6-3.4s-1.5-2.5-2.4-3.7c-1-1.2-1.9-2.1-2.5-2.8-.3-.3-.7-.5-.8-.8-.2-.2-.3-.2-.3-.2s.1.1.3.2.5.3 1 .7c.8.5 1.7 1.5 2.8 2.7 1.1 1.1 2 2.3 2.8 3.6.8 1.3 1.4 2.4 1.7 3.4-.1.3-.9.6-1 .3zm-10.4-3.1c-.5-1.4-1.6-5.1-1.6-5.1s1.9 3.4 2.3 4.8c0 .1-.7.4-.7.3zm-22.1-31.1c1 .5 2.1 1.5 3.3 2.7s2.4 2.4 3.4 3.7c1.1 1.3 1.9 2.5 2.3 3.5.2.4.4.8.5 1.2l.2.4s-.1-.1-.2-.3c-.1-.2-.3-.5-.7-1.1-.5-1-1.5-2.1-2.5-3.4s-2.3-2.4-3.5-3.5-2.4-2-3.3-2.5c-.3-.3.1-1 .5-.7zm-4.6 9.3c1-.1 2.2-.1 3.6.1 1.4.1 2.9.4 4.1.8 1.4.3 2.5 1 3.4 1.3.4.2.8.3 1 .4s.3.2.3.2-.1-.1-.3-.1c-.2-.1-.5-.2-1.1-.4-.8-.3-2.1-.8-3.4-1.1-1.4-.3-2.8-.5-4.1-.5-1.4-.1-2.5 0-3.5 0-.2.2-.2-.6 0-.7zm-6.4 8.4c1.2-.5 2.8-1.3 4.6-1.7 1.9-.5 3.8-1 5.8-1.2 1.9-.2 3.6-.2 4.9-.2.5 0 1.2 0 1.5.1h.5-2c-1.3 0-3 .1-4.9.4s-3.8.8-5.6 1.4c-1.8.5-3.4 1.3-4.5 1.9-.4.2-.7-.6-.3-.7zm5 7.2c1.3-1.4 3.8-3.6 6.4-5.1 1.3-.8 2.4-1.4 3.3-1.7.4-.2.8-.3 1.1-.4.2-.1.3-.1.3-.1s-.1.1-.3.2-.5.3-1.1.5c-.8.4-2 1.2-3.2 2-2.3 1.6-4.8 3.9-6 5.3-.2.1-.7-.5-.5-.7zm3.2 12.1c.2-1.3.7-3 1.4-4.9s1.5-3.7 2.5-5.4c1-1.7 2-3.3 2.8-4.2.3-.4.7-1 1-1.3.2-.2.3-.4.3-.4s-.1.1-.3.4-.4.7-1 1.3c-.7 1.1-1.6 2.5-2.5 4.2-.8 1.7-1.6 3.7-2.2 5.4-.5 1.9-1.1 3.5-1.3 4.8.1.5-.8.4-.7.1zm7.4-4.7c.2-1.6 1-4.5 1.9-6.7.4-1.2 1-2.2 1.3-2.9.3-.7.5-1.2.5-1.2s-.2.4-.4 1.3c-.3.8-.7 1.9-1.1 3-.7 2.3-1.3 5.1-1.5 6.7.1.1-.8 0-.7-.2zm3.4 1c.1-1.6.4-4.5 1.1-6.9.5-2.3 1.3-4.2 1.3-4.2s-.5 2-1 4.5c-.3 2.4-.5 5.2-.7 6.7.2.1-.7.1-.7-.1zm-14-41.8c1.2.5 2.8 1.4 4.5 2.5 1.7 1.2 3.4 2.5 4.8 3.9s2.5 2.9 3.4 3.9c.3.5.7 1.1 1 1.3.2.3.3.4.3.4s-.1-.1-.3-.4-.5-.7-1-1.3c-.8-1.1-2-2.4-3.5-3.8s-3.2-2.7-4.8-3.7c-1.6-1.1-3.3-1.9-4.5-2.4-.6.2-.3-.5.1-.4zM715 70c1.1-.2 2.7-.5 4.2-.5 1.7-.1 3.6 0 5.2.2 1.7.2 3.2.7 4.2 1.1.5.2 1 .3 1.3.4s.4.2.4.2-.1 0-.4-.1-.7-.2-1.3-.3c-1.1-.2-2.5-.5-4.2-.7-1.6-.1-3.5-.1-5.1 0s-3.2.4-4.1.7c-.3-.2-.7-.9-.2-1zm-3.7 10.3c1.7-.8 5.1-2.1 8.1-2.8 1.5-.3 2.8-.5 3.8-.7 1.1-.1 1.6-.2 1.6-.2s-.5.1-1.6.3c-1 .2-2.3.5-3.7 1-2.9.8-6 2.2-7.7 3-.5.2-1-.5-.5-.6zm2.4 7.3c1.1-1.2 3.2-2.9 5.1-4.1 1-.7 2-1.2 2.5-1.5.7-.3 1.2-.5 1.2-.5s-.4.2-1.1.7c-.7.4-1.5 1.1-2.4 1.7-1.9 1.4-3.8 3.3-4.9 4.2 0 .2-.5-.4-.4-.5zm5.5 9.5c.3-1 1-2.1 1.7-3.4s1.7-2.5 2.8-3.6c1-1.1 2-2 2.8-2.7.3-.3.7-.5 1-.7.2-.1.3-.2.3-.2s-.1.1-.3.2l-.8.8c-.7.7-1.6 1.6-2.5 2.8-1 1.2-1.7 2.4-2.4 3.7-.7 1.3-1.3 2.4-1.6 3.4-.4.4-1.1.1-1-.3zm10.6-2.9c.5-1.4 2.3-4.8 2.3-4.8s-1.2 3.7-1.6 5.1l-.7-.3zm3.6-38.1c.7 1.5 1.6 4.1 2.2 6.6.2 1.2.4 2.3.5 3.2.1.8.2 1.3.2 1.3s-.1-.4-.3-1.3c-.2-.8-.4-1.9-.8-3-.7-2.3-1.9-5-2.5-6.4 0-.3.6-.7.7-.4z"/><path class="st1" d="M815.9 20c1.9 1.5 4.2 3.8 6.6 6.5 2.3 2.8 4.6 6 6.3 9.1 1.7 3.2 2.9 6.3 3.7 8.6.2.5.3 1.1.4 1.5l.3 1.2c.2.7.2 1.1.2 1.1s-.1-.3-.3-1.1c-.1-.3-.2-.7-.3-1.2-.1-.4-.3-1-.5-1.5-.8-2.3-2.1-5.3-3.8-8.5s-4-6.4-6.4-9c-2.3-2.7-4.8-4.9-6.6-6.4-.5-.3-.2-.7.4-.3zm55.5 6.7c-2.3 2-5.4 4.8-8.7 8.2-3.3 3.3-6.5 7.1-9.4 10.8s-5.2 7.3-6.9 9.9c-.8 1.3-1.5 2.4-1.9 3.2s-.7 1.2-.7 1.2.2-.4.7-1.2c.4-.8 1.1-1.9 1.9-3.3 1.6-2.7 3.9-6.3 6.7-10s6-7.6 9.3-11 6.4-6.3 8.7-8.3c.6-.5.9-.1.3.5zM557.1 80c-1.9 3.2-4.2 7.7-6.6 12.8-2.3 5.1-4.6 10.9-6.2 16.3-1.6 5.4-2.8 10.6-3.5 14.3-.1 1-.3 1.7-.4 2.5-.1.7-.2 1.4-.2 2-.1 1.1-.2 1.6-.2 1.6s.1-.5.2-1.6c.1-.5.1-1.2.2-2 .1-.7.2-1.6.3-2.5.5-3.7 1.6-8.9 3.3-14.4 1.6-5.4 3.6-11.2 5.9-16.4 2.3-5.2 4.8-9.8 6.6-13 .7-.9 1.2-.6.6.4zm.8 27.2c-3.2 4.2-11.2 15.1-11.2 15.1s7.6-11.1 10.8-15.5c.2-.2.6.1.4.4zm-33.1-29c1 2.4 2.1 5.8 3.3 9.5s2.2 7.8 3.2 11.8c1 3.8 1.5 7.4 2 10 .2 1.3.3 2.3.4 3.2.1.7.1 1.2.1 1.2s-.1-.3-.2-1.2c-.1-.7-.3-1.7-.5-3.2-.4-2.5-1.2-6.2-2.1-10-1-3.8-2.1-7.8-3.4-11.6-1.2-3.7-2.4-7.1-3.4-9.4-.2-.9.4-1.1.6-.3zm137.3 39.5c1.4 3.7 4.9 13.5 4.9 13.5s-3.9-9.5-5.4-13.3c-.3-.3.3-.4.5-.2zm9.4-3.8c-.5 2.4-2.4 8.7-2.4 8.7s1.3-6.4 1.9-8.8c.1-.3.6-.2.5.1z"/><path class="st2" d="M651.4 111.6c2.2 5.1 7.7 18.5 7.7 18.5l-8.4-18.2c0-.5.6-.9.7-.3zm121.3 4.1c-1.7 5.1-6.5 18.2-6.5 18.2s4.1-13.4 5.9-18.5c.1-.2.7 0 .6.3zm-12-2.8c1 4.2 3.2 15.5 3.2 15.5s-2.8-10.9-3.7-15.2c-.2-.5.5-.6.5-.3zm-201.9 6c-1.2.7-2.7 1.6-4.2 2.8-1.6 1.2-3.3 2.5-4.7 3.9s-2.7 2.8-3.5 3.8c-.4.4-.7 1-1 1.3-.2.3-.3.4-.3.4s.1-.1.3-.4.5-.7 1-1.3c.8-1.1 2-2.5 3.4-3.9s3-2.9 4.6-4.1c1.6-1.3 3.2-2.2 4.2-2.9.2-.5.5.2.2.4zm-4.9 7.3c-1.9 1.5-6.6 5-6.6 5s4.5-3.9 6.3-5.4c.1-.2.4.3.3.4zM680.7 115c-1.1 1-2.3 2.4-3.6 4-1.3 1.7-2.4 3.7-3.4 5.7s-1.5 3.8-1.9 5.2c-.2.7-.3 1.3-.3 1.6-.1.3-.1.5-.1.5s0-.2.1-.5.1-1 .3-1.6c.3-1.4.8-3.4 1.7-5.3.8-2 2-4 3.3-5.8 1.3-1.7 2.5-3.3 3.6-4.1.2-.5.6-.2.3.3zm93.4-90.7c2.2 1.7 6 5 9 8.2 1.5 1.5 2.8 3 3.7 4.1 1 1.1 1.5 1.9 1.5 1.9s-.5-.7-1.5-1.8-2.3-2.5-3.8-3.9c-3-3-7-6.2-9.1-7.8-.5-.6-.2-1 .2-.7zm7.6 1.5c1.2 1.6 3.8 6 3.8 6s-3.2-4-4.2-5.7c-.3-.2.3-.4.4-.3zm5.8-1.8c-.2.4-.5 1.1-.8 1.9-.2.7-.4 1.6-.4 2.4-.1.8 0 1.5 0 2.1 0 .2.1.4.1.5v.2s0-.1-.1-.2c0-.1-.1-.3-.1-.5-.1-.5-.2-1.3-.2-2.1s.1-1.7.3-2.5.4-1.5.7-2c.1-.3.6 0 .5.2zm7.1 7c-.4.8-2 2.8-2 2.8l1.5-3c.1-.2.5.2.5.2zM535.2 93.9c.5 2.7 1.4 7.3 1.5 11.5.1 2.1.1 3.9 0 5.3 0 .7 0 1.3-.1 1.6v.5-2.1c0-1.4 0-3.3-.2-5.3-.2-4-1.2-8.8-1.7-11.3-.2-.5.3-.6.5-.2zm5.3 11.5c-.5 2.1-2.3 7.2-2.3 7.2s1.2-5.3 1.7-7.4c.1-.2.6.1.6.2zm-16.6-4.1c1 1.6 2.4 4.7 3.5 7.3.4 1.4 1 2.7 1.2 3.6s.3 1.5.3 1.5-.1-.5-.4-1.5c-.3-1-.8-2.2-1.3-3.5-1.1-2.7-2.7-5.6-3.7-7.2-.2 0 .3-.4.4-.2z"/><path class="st3" d="M491.4 124.9c1 2.3 2.4 6.5 3.3 10.2.4 1.9.7 3.6 1 4.8.2 1.3.2 2.1.2 2.1s-.1-.8-.3-2c-.2-1.3-.5-2.9-1.2-4.8-1-3.7-2.4-7.7-3.5-10-.2-.4.3-.7.5-.3zm8.7-11.3c-.7 3.3-1.7 9-2.3 14-.3 2.5-.4 4.9-.7 6.5-.1 1.7-.2 2.8-.2 2.8s0-1.1.1-2.8.2-4 .4-6.5c.4-5 1.4-10.9 2.1-14.2.2-.4.7-.2.6.2zm1 14.1c-.8 1.9-3.2 6.3-3.2 6.3s1.9-4.8 2.7-6.5c-.1-.1.5.1.5.2zm-13.1 6.2c.5 1.9 1.7 6.9 1.7 6.9s-1.7-4.8-2.3-6.6c.1-.3.6-.4.6-.3zm66.1-37.7c-1 1.7-2.1 4.2-3.4 7.1-1.3 2.8-2.4 5.8-3.5 8.7s-1.9 5.6-2.4 7.5c-.2 1-.4 1.7-.7 2.3-.1.5-.2.8-.2.8s.1-.3.2-1c.1-.5.3-1.4.5-2.3.5-2 1.3-4.7 2.2-7.5 1-2.9 2.1-6 3.4-8.8 1.2-2.8 2.3-5.3 3.3-7.1.4-.5.9-.2.6.3zm-34.2-15.1c1.1 1.7 2.3 4.2 3.6 7.2 1.3 2.9 2.5 6 3.5 9 1.1 3 1.7 5.8 2.3 7.7.2 1.1.4 1.9.5 2.4l.2 1s-.1-.3-.2-1c-.1-.5-.3-1.4-.5-2.4-.5-2-1.4-4.8-2.4-7.7-1.1-2.9-2.3-6-3.7-8.9-1.3-2.8-2.7-5.3-3.6-7.1-.4-.4 0-.7.3-.2zm140.9 40.2c.5 2.8 2 10 2 10s-1.9-7.1-2.5-9.9c-.2-.2.4-.3.5-.1zm3.7-12.3c.3 2.5 1.1 7.1 1.7 11 .7 3.9 1.5 7.2 1.5 7.2s-1-3.3-1.9-7.1c-1-3.8-1.7-8.5-2.1-11 0-.5.7-.5.8-.1zm91.3 3.5c1.7 4.8 5.7 17 5.7 17s-4.7-12.1-6.3-16.8c-.1-.5.5-.6.6-.2zm20.4 6.4c-.8 2.2-2.5 5.9-4.5 8.9-1 1.5-1.7 2.9-2.4 3.9s-1.1 1.6-1.1 1.6.3-.5 1.1-1.6c.5-1.1 1.4-2.4 2.2-3.9 1.6-3.2 3.3-6.9 4-9 .3-.4.9-.3.7.1zm44.9-84.6c1.3 1.2 2.9 2.9 4.7 5 1.6 2.1 3.3 4.5 4.7 6.7 1.3 2.3 2.3 4.6 3 6.2.3.8.5 1.5.8 2 .1.4.2.7.2.7s-.1-.2-.2-.7c-.2-.4-.4-1.2-.8-2-.7-1.6-1.9-3.8-3.2-6-1.4-2.2-3-4.6-4.8-6.5-1.6-2-3.4-3.7-4.7-4.9-.4-.4 0-.9.3-.5zm13.9-1.1c0 2.4 0 6.9.1 10.6s.4 7 .4 7-.4-3.2-.8-6.9c-.3-3.7-.4-8.2-.4-10.7.2-.4.7-.3.7 0zm11.5 2c-.8.7-1.9 1.7-2.9 2.9-1.1 1.2-2.1 2.5-3 3.9-1 1.4-1.6 2.7-2.1 3.6-.2.4-.4 1-.5 1.2l-.2.4s.1-.1.2-.4c.1-.2.2-.7.4-1.2.4-1.1 1.2-2.3 2-3.7s1.9-2.9 2.9-4c1.1-1.3 2.1-2.3 2.9-3 0-.4.5.1.3.3zm-21.9 13.2c1 .7 2.4 2 3.5 3.3 1.2 1.3 1.9 2.5 1.9 2.5s-.8-1.2-2.1-2.3c-1.2-1.2-2.8-2.4-3.6-3-.2-.1.2-.6.3-.5zm34.4 1.5c-1.7 1.2-4.8 3.4-7.1 5.6-1.2 1.1-2.2 2.2-2.9 3-.3.3-.7.7-.8 1l-.3.3s.1-.1.2-.3c.2-.2.4-.5.8-1.1.7-.8 1.6-2 2.8-3.2 2.2-2.3 5.2-4.7 7-5.8.3-.2.6.2.3.5zm18.2 25.2c-1.2 1.5-3.3 4.5-4.8 7.1-.8 1.3-1.4 2.5-1.9 3.5-.4 1-.7 1.5-.7 1.5s.2-.5.5-1.5 1-2.2 1.6-3.6c1.4-2.8 3.4-5.7 4.6-7.3.4-.4.9 0 .7.3zm3.4 8.8c-1.2.4-3 1.4-4.6 2.4-.8.5-1.4 1.1-1.9 1.5l-.7.7s.2-.3.7-.7c.4-.4 1.1-1.1 1.7-1.6 1.4-1.2 3.4-2.3 4.6-2.8.1 0 .3.4.2.5zm1.2 5.4c-.5.1-1.6.3-2.4.8-.8.4-1.4 1.1-1.4 1.1l.3-.3c.2-.2.5-.5 1-.8.8-.5 1.9-1.1 2.5-1.1 0-.4.1.2 0 .3zm-14.9-10.9c.1 1.4 0 5 0 5s-.4-3.6-.5-5c0-.1.5-.1.5 0z"/><path class="st0" d="M6.5 13.1c0-.7-.5-1.2-1.2-1.2s-1.2.5-1.2 1.2.5 1.2 1.2 1.2c.6-.1 1.2-.5 1.2-1.2zM10 35.9c0-.8-.5-1.3-1.3-1.3s-1.3.5-1.3 1.3.5 1.3 1.3 1.3c.7.1 1.3-.5 1.3-1.3zm6.8-35c0-.4-.4-.9-.9-.9-.4 0-.9.4-.9.9s.4.9.9.9c.4 0 .9-.4.9-.9zm11.6 16.5c0-.5-.4-1.1-1.1-1.1-.5 0-1.1.4-1.1 1.1 0 .5.4 1.1 1.1 1.1.6 0 1.1-.5 1.1-1.1z"/><circle class="st0" cx="46.9" cy="38.2" r="1.1"/><circle class="st0" cx="42.1" cy="61.1" r="1.4"/><circle class="st0" cx="61.9" cy="75.5" r="1.2"/><path class="st0" d="M73.4 84.5c0-.8-.5-1.3-1.3-1.3s-1.3.5-1.3 1.3.5 1.3 1.3 1.3c.6 0 1.3-.6 1.3-1.3z"/><circle class="st0" cx="88.6" cy="100.8" r="1.5"/><circle class="st0" cx="98" cy="60" r="1.4"/><circle class="st0" cx="115.2" cy="75.1" r="1.2"/><path class="st0" d="M143.9 54.9c0-.8-.7-1.4-1.4-1.4-.8 0-1.4.7-1.4 1.4 0 .8.7 1.4 1.4 1.4.8.1 1.4-.6 1.4-1.4zm2.3-22.5c0-.9-.7-1.5-1.5-1.5-.9 0-1.5.7-1.5 1.5 0 .9.7 1.5 1.5 1.5.9 0 1.5-.6 1.5-1.5zm18.9-4.2c0-.5-.4-1-1-1-.5 0-1 .4-1 1 0 .5.4 1 1 1 .5 0 1-.4 1-1zm7.4 4.8c0-.9-.8-1.6-1.6-1.6-.9 0-1.6.8-1.6 1.6s.8 1.6 1.6 1.6 1.6-.8 1.6-1.6zm-4.2 31.1c0-.4-.3-.8-.8-.8s-.8.3-.8.8c0 .4.3.8.8.8.5.1.8-.3.8-.8zm33 20.8c0-.8-.5-1.3-1.3-1.3s-1.3.5-1.3 1.3.5 1.3 1.3 1.3c.6 0 1.3-.5 1.3-1.3zm3.8 27.3c0-.4-.4-.9-.9-.9-.4 0-.9.4-.9.9 0 .4.4.9.9.9.6-.2.9-.5.9-.9z"/><circle class="st0" cx="218.2" cy="94.9" r="1.3"/><circle class="st0" cx="243.9" cy="109.1" r=".8"/><path class="st0" d="M241.8 66.8c0-.8-.7-1.4-1.4-1.4s-1.4.7-1.4 1.4c0 .8.7 1.4 1.4 1.4s1.4-.7 1.4-1.4z"/><circle class="st0" cx="266.7" cy="99.2" r="1.1"/><path class="st0" d="M244.7 57.2c0-.4-.3-.9-.9-.9-.5 0-.9.3-.9.9 0 .4.3.9.9.9s.9-.4.9-.9zm22.8-21c0-.7-.5-1.1-1.1-1.1-.7 0-1.1.5-1.1 1.1 0 .7.5 1.1 1.1 1.1.5 0 1.1-.5 1.1-1.1z"/><circle class="st0" cx="289.2" cy="8.9" r=".8"/><path class="st0" d="M325.4 36.1c0-.8-.7-1.4-1.4-1.4-.8 0-1.4.7-1.4 1.4s.7 1.4 1.4 1.4c.8.1 1.4-.6 1.4-1.4zm7.9-19.8c0-.4-.3-.9-.9-.9-.4 0-.9.3-.9.9 0 .5.3.9.9.9.5 0 .9-.4.9-.9z"/><circle class="st0" cx="343.1" cy="47.6" r=".9"/><circle class="st0" cx="374.7" cy="16.6" r=".8"/><circle class="st0" cx="395.9" cy="24.1" r="1"/><path class="st0" d="M466.1 17.9c0 .8.5 1.3 1.3 1.3s1.3-.5 1.3-1.3-.5-1.3-1.3-1.3-1.3.6-1.3 1.3z"/><circle class="st0" cx="436.5" cy="9.6" r="1.5"/><circle class="st0" cx="494.5" cy="66.1" r="1.4"/><circle class="st0" cx="477.3" cy="51" r="1.2"/><circle class="st0" cx="449.8" cy="71.1" r="1.4"/><path class="st0" d="M446.1 93.7c0 .9.7 1.5 1.5 1.5s1.5-.7 1.5-1.5c0-.9-.7-1.5-1.5-1.5-.9 0-1.5.6-1.5 1.5zm-18.8 4.1c0 .5.4 1 1 1s1-.4 1-1c0-.5-.4-1-1-1s-1 .5-1 1zm-7.5-4.7c0 .9.8 1.6 1.6 1.6s1.6-.8 1.6-1.6-.8-1.6-1.6-1.6c-.8.1-1.6.8-1.6 1.6zM424 62c0 .4.3.8.8.8.4 0 .8-.3.8-.8 0-.4-.3-.8-.8-.8-.4 0-.8.3-.8.8zm-33-20.8c0 .8.5 1.3 1.3 1.3s1.3-.5 1.3-1.3-.5-1.3-1.3-1.3c-.6-.1-1.3.5-1.3 1.3zM387.2 14c0 .4.4.9.9.9.4 0 .9-.4.9-.9s-.4-.9-.9-.9c-.4 0-.9.4-.9.9z"/><circle class="st0" cx="374.1" cy="31.2" r="1.3"/><circle class="st0" cx="348.6" cy="17.1" r=".8"/><path class="st0" d="M350.6 59.3c0 .8.7 1.4 1.4 1.4.8 0 1.4-.7 1.4-1.4 0-.8-.7-1.4-1.4-1.4-.8.1-1.4.7-1.4 1.4z"/><circle class="st0" cx="325.6" cy="26.9" r="1.1"/><path class="st0" d="M347.7 68.8c0 .4.3.9.9.9.4 0 .9-.3.9-.9 0-.4-.3-.9-.9-.9-.6.1-.9.5-.9.9zM324.8 90c0 .7.5 1.1 1.1 1.1.7 0 1.1-.5 1.1-1.1 0-.7-.5-1.1-1.1-1.1-.5-.1-1.1.4-1.1 1.1z"/><circle class="st0" cx="303.2" cy="117.2" r=".8"/><path class="st0" d="M266.9 90c0 .8.7 1.4 1.4 1.4.8 0 1.4-.7 1.4-1.4s-.7-1.4-1.4-1.4c-.8-.1-1.4.6-1.4 1.4zm-7.8 19.8c0 .4.3.9.9.9.4 0 .9-.3.9-.9 0-.4-.3-.9-.9-.9-.5.1-.9.4-.9.9zm-9.9-32.1c.5 0 .9.4.9.9s-.4.9-.9.9-.9-.4-.9-.9.4-.9.9-.9zm-32.4 31.7c0 .4.3.8.8.8s.8-.3.8-.8c0-.4-.3-.8-.8-.8s-.8.5-.8.8zm-21.3-7.4c0 .5.4 1 1 1s1-.4 1-1c0-.5-.4-1-1-1s-1 .5-1 1z"/><path class="st1" d="M253.8 16c.2 10 0 35.6 0 35.6S252.7 26 252.5 16c.1-.8 1.3-.8 1.3 0zm12.5 6.3c-1.1 1.8-2.4 4.3-3.7 7.2-1.3 2.8-2.4 6.1-3.3 9.2-.9 3.1-1.3 6-1.5 8.1-.1 1.1-.2 2-.2 2.5s-.1 1-.1 1v-1c0-.7 0-1.4.1-2.5.1-2.2.4-5 1.1-8.2s1.6-6.6 2.8-9.5c1.2-3 2.5-5.6 3.6-7.4.4-.6 1.5.1 1.2.6zm11.6 11c-1.4 1-3.3 2.4-5.4 4-2 1.8-4 3.7-5.7 5.7-1.8 2-3.2 3.9-4.2 5.5-.4.8-.9 1.3-1.1 1.8-.2.4-.4.7-.4.7s.1-.2.3-.7c.2-.4.5-1.1 1-1.9.9-1.5 2.2-3.6 3.8-5.7s3.6-4.3 5.5-6.1c2-1.9 3.8-3.4 5.3-4.4.6-.2 1.3.8.9 1.1zm6.4 15.6c-1.4-.1-3.5-.2-5.7-.1s-4.6.4-6.8 1c-2.2.5-4.2 1.2-5.6 1.8-.7.3-1.3.5-1.6.7-.4.2-.7.2-.7.2s.2-.1.5-.3.9-.5 1.6-.9c1.3-.7 3.3-1.5 5.5-2.2s4.6-1.2 6.9-1.4 4.4-.2 5.9-.1c.6.1.5 1.3 0 1.3zm10.2 13.4c-1.8-.9-4.4-2-7.2-3s-6.1-1.8-9.2-2.3-5.9-.7-8-.8h-3.3s.3 0 .9-.1 1.4-.1 2.4-.1c2.1-.1 4.9 0 8 .3s6.5 1 9.4 2c3 .9 5.6 2 7.4 2.8.7.3.2 1.4-.4 1.2zM286 73.9c-1-1.1-2.5-2.6-4.3-4.2-1.8-1.5-3.7-3.2-5.6-4.5-1.9-1.3-3.7-2.5-5.1-3.3-.7-.4-1.2-.7-1.6-.9s-.7-.3-.7-.3.2.1.7.3c.4.2 1 .4 1.8.8 1.4.7 3.4 1.6 5.4 3 2 1.2 4.2 2.7 5.9 4.3 1.9 1.5 3.4 3 4.5 4.2.2 0-.7.9-1 .6zm-5.7 18.9c-.4-2-1.1-4.8-2.1-7.8s-2.3-6.1-3.6-9c-1.4-2.8-3-5.4-4-7.1-.5-.9-1.1-1.6-1.4-2.1-.3-.4-.5-.8-.5-.8s.2.2.5.8c.4.4.9 1.1 1.5 2 1.3 1.8 3 4.2 4.5 6.9s3.1 5.9 4 9c1.1 3 1.9 5.8 2.3 7.9.1.7-1.1.9-1.2.2zM268.2 85c-.4-2.5-1.3-7.1-2.4-10.9-.5-1.9-1.2-3.6-1.6-4.9-.2-.7-.4-1.1-.5-1.4s-.2-.5-.2-.5.1.2.2.5c.2.3.4.9.7 1.4.5 1.2 1.3 2.8 2.1 4.8.8 1.9 1.4 3.9 2 5.9.5 2 .9 3.7 1.1 5-.1.4-1.3.6-1.4.1zm-10.1 11.9c-.3-8.2-.7-29.4-.7-29.4s1.5 21.1 1.9 29.4c0 .6-1.2.6-1.2 0zm4.5-10.2c-.1-2.5-.4-7.1-1.1-11.1-.3-2-.7-3.7-1-5-.1-.7-.2-1.2-.3-1.5-.1-.3-.1-.5-.1-.5s.1.2.2.5l.5 1.5c.4 1.3.9 3.1 1.4 4.9 1 3.8 1.5 8.4 1.6 11.1.1.4-1.1.4-1.2.1zm-8.1-1.3c-.1-4.8.2-17.3.2-17.3s.9 12.4 1 17.3c0 .3-1.2.4-1.2 0zm10.1-70.9c-.9 2-2 4.6-3.1 7.6s-2.2 6.3-3 9.4c-.9 3.1-1.4 6-1.9 8.1-.2 1.1-.3 2-.4 2.5s-.1 1-.1 1 0-.3.1-1 .1-1.4.3-2.5c.3-2.2.8-5 1.4-8.2.7-3.2 1.5-6.6 2.6-9.6 1-3.1 2.1-5.8 3-7.8.3-.6 1.4-.2 1.1.5zm22.7 5.2c-1.9.9-4.5 2.2-7.2 3.9-2.7 1.8-5.5 3.8-7.9 6.1-2.4 2.2-4.4 4.5-5.7 6.1-.7.9-1.2 1.5-1.5 2.1-.3.5-.5.8-.5.8s.2-.3.5-.8.8-1.3 1.4-2.2c1.3-1.8 3.1-4.2 5.4-6.5s5-4.7 7.7-6.5c2.7-1.9 5.4-3.3 7.3-4.2.5-.2 1 .9.5 1.2zm9.4 24.9c-1.8-.4-4.2-.9-6.8-1.2-2.7-.3-5.7-.3-8.4 0-2.7.2-5.1.8-7 1.2-.9.2-1.6.4-2.1.7-.5.1-.8.2-.8.2s.2-.1.8-.3c.4-.2 1.2-.4 2.1-.8 1.8-.5 4.2-1.2 7-1.6 2.7-.4 5.8-.5 8.5-.4s5.3.5 7 1c.6.1.3 1.3-.3 1.2zm5.9 16.7c-1.4-.7-3.4-1.6-5.7-2.5-2.2-.9-4.7-1.8-7.1-2.5-2.3-.7-4.5-1.2-6.1-1.5-.8-.2-1.4-.3-1.9-.4-.4-.1-.7-.1-.7-.1s.2 0 .8.1c.4 0 1.1.1 2 .2 1.6.2 3.8.7 6.2 1.2 2.4.5 4.9 1.3 7.2 2.1s4.4 1.6 5.8 2.4c.5 0 0 1.2-.5 1zm-4.5 11.6c-.9-.9-2.1-2.1-3.5-3.4s-3-2.6-4.5-3.7c-1.5-1.2-3-2.2-3.9-2.8-.5-.3-1-.7-1.3-.8-.3-.2-.4-.3-.4-.3s.2.1.5.2.8.4 1.3.7c1.1.5 2.6 1.4 4.3 2.5 1.6 1 3.3 2.3 4.8 3.5s2.7 2.4 3.6 3.3c.3.3-.5 1-.9.8zm-9.3 15.2c-.5-1.4-1.4-3.4-2.5-5.5s-2.5-4.2-4-6c-1.4-1.9-3-3.4-4.2-4.5-.5-.5-1.1-1-1.4-1.3s-.5-.4-.5-.4.2.1.5.4c.3.2.9.7 1.5 1.2 1.2 1 2.8 2.5 4.5 4.3s3.2 3.8 4.5 5.9 2.2 4 2.8 5.5c.1.4-1.1.8-1.2.4zM271.7 83c-.9-2.3-2.7-8.2-2.7-8.2s3 5.6 3.8 7.8c.1.1-1 .6-1.1.4zm-36.2-50.7c1.4 1 3.4 2.5 5.3 4.4 2 1.9 3.9 3.9 5.5 6.1 1.6 2.1 3 4.2 3.8 5.7.4.8.8 1.4 1 1.9.2.4.3.7.3.7s-.1-.2-.4-.7c-.2-.4-.7-1-1.1-1.8-1-1.4-2.4-3.4-4.2-5.5-1.8-2-3.7-4-5.7-5.7-2-1.8-3.9-3.2-5.4-4-.2-.4.5-1.4.9-1.1zm-7.3 15.4c1.5-.1 3.6-.1 5.9.1 2.3.2 4.7.8 6.9 1.4 2.2.7 4.2 1.5 5.5 2.2.7.3 1.2.7 1.6.9.3.2.5.3.5.3s-.2-.1-.7-.2c-.4-.2-1-.4-1.6-.7-1.4-.5-3.4-1.2-5.6-1.8s-4.6-.9-6.8-1-4.3 0-5.7.1c-.3-.1-.4-1.3 0-1.3zm-10.5 13.5c1.9-.9 4.5-2 7.4-2.8s6.3-1.5 9.4-2c3.1-.3 5.9-.4 8-.3 1 0 1.9.1 2.4.1s.9.1.9.1h-3.3c-2.1 0-4.9.2-8 .8-3.1.5-6.2 1.3-9.2 2.3-2.8 1-5.5 2.1-7.2 3-.4.1-.9-1-.4-1.2zm8.1 11.8c1.1-1.1 2.6-2.6 4.5-4.2 1.9-1.5 3.9-3 5.9-4.3 2-1.2 3.9-2.3 5.4-3 .8-.3 1.3-.5 1.8-.8.4-.2.7-.3.7-.3s-.2.1-.7.3c-.4.2-1 .5-1.6.9-1.3.8-3.2 1.9-5.1 3.3-1.9 1.3-3.8 3-5.6 4.5s-3.2 3.1-4.3 4.2c-.3.6-1.3-.3-1-.6zm5.5 19.6c.4-2.1 1.2-4.9 2.3-7.9s2.5-6.1 4-9c1.5-2.8 3.2-5.3 4.5-6.9.7-.9 1.2-1.5 1.5-2 .3-.4.5-.8.5-.8s-.2.2-.5.8c-.3.4-.9 1.2-1.4 2.1-1.2 1.8-2.7 4.3-4 7.1-1.4 2.8-2.7 6-3.7 9s-1.6 5.8-2.1 7.8c-.1.7-1.3.5-1.1-.2zm12-7.8c.2-1.3.7-3.1 1.1-5 .5-2 1.2-4 2-5.9s1.5-3.5 2.1-4.8c.3-.7.5-1.1.7-1.4s.2-.5.2-.5-.1.2-.2.5-.3.9-.5 1.4c-.4 1.2-1.1 3-1.6 4.9-1.2 3.8-2.1 8.3-2.4 10.9-.3.6-1.5.4-1.4-.1zm5.6 1.8c.1-2.6.8-7.2 1.6-11.1.4-2 1-3.7 1.4-4.9.2-.7.3-1.1.5-1.5.1-.3.2-.5.2-.5s0 .2-.1.5-.2.9-.3 1.5c-.3 1.3-.7 3.1-1 5-.7 3.9-1 8.4-1.1 11.1 0 .3-1.2.3-1.2-.1zM226 18.5c2 .9 4.6 2.3 7.3 4.2 2.7 1.9 5.4 4.2 7.7 6.5s4.2 4.7 5.4 6.5c.7.9 1.1 1.6 1.4 2.2s.5.8.5.8-.2-.3-.5-.8-.9-1.2-1.5-2.1c-1.3-1.8-3.3-3.9-5.7-6.1s-5.1-4.4-7.9-6.1c-2.7-1.8-5.4-3.1-7.2-3.9-.6-.3-.1-1.4.5-1.2zm-10.3 24.9c1.8-.4 4.3-.9 7-1 2.7-.2 5.8 0 8.5.4s5.3 1.1 7 1.6c.9.3 1.5.5 2.1.8.4.2.8.3.8.3s-.3-.1-.8-.2c-.4-.2-1.2-.3-2.1-.7-1.8-.4-4.3-1-7-1.2s-5.7-.2-8.4 0-5.1.8-6.8 1.2c-.5.1-.8-1.1-.3-1.2zm-6.1 16.8c1.4-.7 3.5-1.5 5.8-2.4 2.3-.8 4.9-1.5 7.2-2.1 2.4-.5 4.6-1 6.2-1.2.8-.1 1.4-.2 2-.2.4 0 .8-.1.8-.1s-.2 0-.7.1c-.4.1-1.1.2-1.9.4-1.6.3-3.8.9-6.1 1.5-2.3.7-4.8 1.5-7.1 2.5-2.3.9-4.3 1.9-5.7 2.5-.4.3-.9-.9-.5-1zm4.1 11.8c.9-.9 2.2-2.1 3.6-3.3 1.5-1.2 3.2-2.4 4.8-3.5s3.2-1.9 4.3-2.5c.5-.3 1-.5 1.3-.7s.5-.2.5-.2-.2.1-.4.3c-.3.2-.8.4-1.3.8-1.1.7-2.5 1.6-3.9 2.8-1.5 1.2-3.1 2.5-4.5 3.7-1.4 1.3-2.6 2.5-3.5 3.4-.3.3-1.2-.4-.9-.8zm9 15.7c.5-1.4 1.5-3.5 2.8-5.5 1.2-2.1 2.8-4.2 4.5-5.9 1.6-1.8 3.3-3.3 4.5-4.3.7-.5 1.1-.9 1.5-1.2.3-.2.5-.4.5-.4s-.2.1-.5.4-.9.8-1.4 1.3c-1.2 1.1-2.7 2.6-4.2 4.5-1.4 1.9-3 3.9-4 6-1.1 2.1-2 4-2.5 5.5-.2.4-1.3 0-1.2-.4zm17.2-5.2c.9-2.3 3.8-7.8 3.8-7.8s-1.8 6-2.7 8.2c0 .3-1.2-.2-1.1-.4zm5.9-62c1.1 2.4 2.6 6.9 3.5 10.7.4 2 .8 3.8 1 5.1.1.7.2 1.2.2 1.5s.1.5.1.5 0-.2-.1-.5-.2-.9-.3-1.5c-.3-1.3-.8-3.1-1.4-5-1.2-3.8-3-8.1-4-10.4-.2-.2.9-.7 1-.4z"/><path class="st3" d="M28.7 66.9c.1 6.5 0 23 0 23s-.7-16.5-.9-23c.1-.4.9-.5.9 0zm8 4.1c-.7 1.1-1.5 2.7-2.4 4.6s-1.5 3.9-2.1 5.9c-.5 2-.9 3.8-1 5.3-.1.7-.1 1.2-.1 1.6v.7-.7c0-.5 0-1 .1-1.6.1-1.4.3-3.3.8-5.4.4-2.1 1.1-4.2 1.9-6.1.8-2 1.6-3.6 2.3-4.8.1-.3.7.2.5.5zm7.4 7.1c-.9.7-2.2 1.5-3.4 2.6-1.3 1.1-2.6 2.4-3.7 3.7-1.1 1.3-2.1 2.5-2.7 3.5-.3.4-.5.9-.8 1.1-.2.3-.2.4-.2.4s.1-.1.2-.4c.1-.3.3-.7.7-1.2.5-1 1.4-2.3 2.5-3.7 1.1-1.3 2.3-2.7 3.6-3.9 1.2-1.2 2.5-2.2 3.4-2.8.3-.2.8.5.4.7zm4.3 10.1c-1-.1-2.3-.1-3.7 0s-3 .3-4.4.7c-1.4.3-2.7.8-3.6 1.1-.4.2-.8.3-1.1.4l-.4.2s.1-.1.3-.2.5-.3 1-.5c.9-.4 2.1-1 3.5-1.4s3-.8 4.5-.9c1.4-.1 2.8-.1 3.8-.1.4-.1.3.7.1.7zm6.5 8.6c-1.2-.5-2.8-1.3-4.7-2s-3.9-1.2-5.9-1.5-3.8-.4-5.1-.4h-2 .5c.3 0 .9-.1 1.5-.1 1.3 0 3.2 0 5.1.2s4.2.7 6 1.2c2 .5 3.6 1.3 4.8 1.9.5.2.2.8-.2.7zm-5.5 7.5c-.7-.8-1.6-1.8-2.7-2.7a52 52 0 0 0-3.6-3c-1.2-.9-2.4-1.6-3.3-2.1-.4-.2-.8-.4-1.1-.5l-.4-.2s.1.1.4.2c.2.1.7.3 1.1.5.9.4 2.2 1.1 3.5 1.9s2.6 1.8 3.8 2.7c1.2 1 2.2 2 2.8 2.6.4.2-.3.8-.5.6zm-3.6 12.2c-.2-1.3-.7-3.1-1.3-5-.7-2-1.4-3.9-2.4-5.8-.9-1.9-1.9-3.4-2.6-4.6-.3-.5-.7-1-.9-1.3s-.3-.4-.3-.4.1.2.3.4c.2.3.5.8 1 1.3.8 1.1 1.9 2.6 2.8 4.5 1 1.8 2 3.8 2.6 5.8.7 2 1.2 3.7 1.4 5 .3.3-.5.4-.6.1zm-7.8-5c-.2-1.6-.9-4.6-1.5-7-.3-1.2-.8-2.3-1.1-3.2-.3-.8-.5-1.3-.5-1.3s.2.4.7 1.2c.3.8.9 1.9 1.3 3.1 1 2.4 1.8 5.4 2 7-.1.3-.9.4-.9.2zm-6.6 7.6c-.2-5.4-.4-19-.4-19s1 13.7 1.2 18.9c0 .5-.8.5-.8.1zm3-6.6c-.1-1.6-.3-4.6-.8-7.1-.2-1.2-.4-2.4-.7-3.3-.2-.9-.3-1.3-.3-1.3s.2.5.4 1.3.5 2 .9 3.2c.7 2.5 1 5.5 1.1 7.1.2.3-.6.4-.6.1zm-5.4-.8c-.1-3.2.1-11.2.1-11.2l.7 11.2c.1.2-.8.2-.8 0zM35.6 66c-.5 1.2-1.3 3-2 4.9-.7 2-1.4 4-2 6.1-.5 2-1 3.8-1.2 5.3-.1.7-.2 1.2-.3 1.6s-.1.5-.1.5 0-.2.1-.7c0-.4.1-1 .2-1.6.2-1.4.4-3.3.9-5.4.4-2.1 1-4.3 1.6-6.2.7-2 1.3-3.7 1.9-5 .4-.3 1.1 0 .9.5zm14.7 3.3c-1.2.5-3 1.4-4.7 2.5-1.8 1.1-3.5 2.5-5 3.9s-2.8 2.8-3.7 3.9c-.4.5-.8 1-1 1.3s-.3.5-.3.5.1-.2.3-.5.5-.8.9-1.4c.8-1.1 2-2.7 3.5-4.2s3.2-3 4.9-4.2 3.4-2.1 4.7-2.7c.4 0 .7.7.4.9zm6 16c-1.1-.3-2.6-.5-4.4-.8-1.8-.2-3.6-.2-5.4 0-1.8.1-3.4.4-4.5.8-.5.1-1 .3-1.3.4s-.5.1-.5.1l.4-.2c.3-.1.8-.3 1.3-.4 1.1-.3 2.7-.8 4.5-1.1 1.8-.2 3.7-.3 5.5-.2 1.8.1 3.4.3 4.5.7.4.1.3.8-.1.7zm3.8 10.9c-1.9-.9-5.1-2.3-8.2-3.2-1.5-.4-3-.8-3.9-1-1-.2-1.6-.3-1.6-.3s.7.1 1.8.2 2.5.4 4 .8c3.1.7 6.6 2 8.4 2.8.2 0-.2.8-.5.7zm-2.8 7.4c-1.1-1.1-3.2-3.1-5.1-4.6-1-.8-1.9-1.4-2.6-1.9-.7-.4-1.1-.8-1.1-.8s.4.2 1.2.7c.8.4 1.8 1 2.7 1.6 2.1 1.3 4.3 3.2 5.5 4.4.1.3-.4.8-.6.6zm-6.1 9.9c-.3-.9-.9-2.2-1.6-3.5-.8-1.3-1.6-2.7-2.6-3.9-1-1.2-2-2.2-2.6-3-.3-.3-.7-.7-.9-.8-.3-.2-.4-.2-.4-.2s.1.1.3.2c.2.2.5.4 1 .8.8.7 1.9 1.6 2.8 2.7 1 1.1 2.1 2.5 2.8 3.8.8 1.3 1.4 2.6 1.9 3.5.2.4-.5.6-.7.4zm-11-3.3c-.5-1.4-1.8-5.4-1.8-5.4s1.9 3.6 2.5 5c.1.1-.7.5-.7.4zM16.9 77.4c.9.7 2.2 1.6 3.4 2.8 1.2 1.2 2.5 2.5 3.6 3.9 1.1 1.3 1.9 2.7 2.5 3.7.3.5.5.9.7 1.2.1.3.2.4.2.4s-.1-.1-.2-.4c-.2-.3-.4-.7-.8-1.1-.7-1-1.5-2.2-2.7-3.5-1.1-1.3-2.4-2.6-3.7-3.7s-2.5-2-3.4-2.6c-.4-.2.2-.9.4-.7zm-4.7 10c1-.1 2.3-.1 3.8.1 1.4.1 3.1.4 4.5.9 1.4.4 2.6 1 3.5 1.4l1 .5c.2.1.3.2.3.2s-.1-.1-.4-.2c-.2-.1-.7-.2-1.1-.4-.9-.3-2.2-.8-3.6-1.1-1.4-.3-3-.5-4.4-.7-1.4-.1-2.7 0-3.7 0-.1.1-.2-.7.1-.7zm-6.8 8.7c1.2-.5 2.8-1.3 4.8-1.9 2-.5 4-1 6-1.2s3.8-.2 5.1-.2c.7 0 1.2.1 1.5.1h.5-2c-1.3 0-3.2.1-5.1.4-2 .3-4 .9-5.9 1.5-1.9.7-3.5 1.3-4.7 2-.2.1-.5-.5-.2-.7zm5.2 7.6c.7-.8 1.6-1.8 2.8-2.6 1.2-1 2.5-2 3.8-2.7 1.3-.8 2.5-1.4 3.5-1.9.4-.2.9-.4 1.1-.5l.4-.2s-.1.1-.4.2c-.2.1-.7.3-1.1.5-.9.5-2.1 1.2-3.3 2.1-1.2.9-2.5 1.9-3.6 3-1.1 1-2.1 2-2.7 2.7-.1.2-.7-.4-.5-.6zm3.6 12.6c.2-1.3.8-3.2 1.4-5 .7-2 1.6-3.9 2.6-5.8 1-1.8 2.1-3.4 2.8-4.5.4-.5.8-1 1-1.3s.3-.4.3-.4-.1.2-.3.4c-.2.3-.5.8-.9 1.3-.8 1.1-1.8 2.7-2.6 4.6s-1.8 3.8-2.4 5.8c-.7 2-1.1 3.7-1.3 5 0 .4-.8.3-.6-.1zm7.7-4.9c.2-1.6 1-4.6 2-7 .4-1.2 1-2.3 1.3-3.1.3-.8.7-1.2.7-1.2s-.2.5-.5 1.3-.7 2-1.1 3.2c-.8 2.4-1.3 5.4-1.5 7-.1.1-1 0-.9-.2zm3.6 1.1c.1-1.6.4-4.7 1.1-7.1.3-1.2.7-2.4.9-3.2.2-.8.4-1.3.4-1.3s-.1.5-.3 1.3c-.2.9-.4 2-.7 3.3-.4 2.5-.7 5.5-.7 7.1.1.2-.8.1-.7-.1zM10.8 68.6c1.3.5 3 1.5 4.7 2.7 1.8 1.2 3.5 2.7 4.9 4.2 1.5 1.5 2.6 3.1 3.5 4.2.4.5.8 1.1.9 1.4.2.3.3.5.3.5s-.1-.2-.3-.5c-.2-.3-.5-.8-1-1.3-.9-1.1-2.1-2.5-3.7-3.9-1.5-1.4-3.3-2.8-5-3.9-1.8-1.1-3.4-2-4.7-2.5-.4-.4-.1-1.1.4-.9zm-6.7 16c1.1-.3 2.7-.5 4.5-.7 1.8-.1 3.7 0 5.5.2s3.4.7 4.5 1.1c.5.2 1 .3 1.3.4s.4.2.4.2-.2-.1-.5-.1c-.3-.1-.8-.2-1.3-.4-1.1-.3-2.7-.7-4.5-.8-1.8-.1-3.6-.1-5.4 0-1.8.2-3.3.4-4.4.8-.2.1-.4-.6-.1-.7zm-4 10.8c1.9-.9 5.4-2.2 8.4-2.8 1.5-.3 3-.7 4-.8 1.1-.1 1.8-.2 1.8-.2s-.7.1-1.6.3c-1 .2-2.4.5-3.9 1-3.1.9-6.3 2.3-8.2 3.2-.3.2-.8-.6-.5-.7zm2.7 7.7c1.1-1.2 3.4-3.1 5.5-4.4 1-.7 2-1.2 2.7-1.6.8-.4 1.2-.7 1.2-.7s-.4.2-1.1.8c-.7.4-1.6 1.1-2.6 1.9-2 1.4-3.9 3.4-5.1 4.6-.2.1-.7-.4-.6-.6zm5.9 10c.3-1 1-2.2 1.9-3.5.8-1.3 1.9-2.6 2.8-3.8 1-1.2 2.1-2.1 2.8-2.7.4-.3.8-.5 1-.8.2-.2.3-.2.3-.2l-.3.3c-.2.2-.5.4-.9.8-.8.7-1.8 1.8-2.6 3-1 1.2-1.9 2.5-2.6 3.9-.8 1.3-1.3 2.6-1.6 3.5-.2.1-.9-.1-.8-.5zm11-3.3c.5-1.4 2.5-5 2.5-5s-1.2 3.8-1.8 5.4c0 .1-.8-.3-.7-.4zm3.9-40c.8 1.5 1.8 4.4 2.3 6.9.3 1.3.5 2.4.7 3.3.1.9.2 1.4.2 1.4s-.1-.5-.3-1.4c-.2-.9-.5-2-.9-3.2-.8-2.5-2-5.3-2.6-6.7-.3-.2.5-.5.6-.3z"/><path class="st2" d="M358.8 58.3c.1 5.8 0 20.6 0 20.6s-.7-14.8-.8-20.6c.1-.4.8-.4.8 0zM366 62c-.7 1-1.4 2.5-2.2 4.2s-1.4 3.6-1.9 5.4c-.4 1.8-.8 3.5-.9 4.7-.1.7-.1 1.1-.1 1.4v.5-.5c0-.3 0-.9.1-1.4.1-1.2.2-3 .7-4.8.4-1.9 1-3.7 1.6-5.5.7-1.8 1.4-3.3 2.1-4.3.1-.4.8-.1.6.3zm6.7 6.3c-.8.5-2 1.4-3.1 2.4-1.2 1-2.3 2.2-3.3 3.3-1 1.2-1.9 2.3-2.4 3.2-.3.4-.5.8-.7 1-.1.2-.2.3-.2.3s.1-.1.2-.4c.1-.2.3-.7.5-1.1.5-.9 1.3-2.1 2.2-3.3 1-1.2 2.1-2.5 3.2-3.5 1.1-1.1 2.2-2 3.1-2.5.4-.2.8.5.5.6zm3.8 9.1c-.9-.1-2-.1-3.3 0s-2.6.2-3.9.5-2.4.7-3.2 1c-.4.1-.8.3-1 .4s-.3.1-.3.1.1-.1.3-.2c.2-.1.5-.3.9-.4.8-.3 1.9-.9 3.2-1.2 1.3-.4 2.6-.7 3.9-.8 1.3-.1 2.5-.1 3.4-.1.3 0 .2.7 0 .7zm5.8 7.6c-1-.5-2.5-1.2-4.2-1.8-1.6-.5-3.5-1-5.3-1.3s-3.4-.4-4.6-.4h-1.9.5c.3 0 .9-.1 1.4-.1 1.2 0 2.8 0 4.6.2 1.8.2 3.7.5 5.5 1.1s3.3 1.1 4.3 1.6c.3.3 0 1-.3.7zm-4.9 6.8c-1.2-1.3-3.4-3.5-5.7-5-1.1-.8-2.2-1.4-3-1.9l-1-.5c-.2-.1-.3-.2-.3-.2s.1.1.3.1c.2.1.5.2 1 .4.9.4 2 1 3.1 1.6 2.3 1.4 4.8 3.5 6 4.8.3.4-.2.9-.4.7zm-3.3 11c-.2-1.2-.7-2.7-1.2-4.5s-1.3-3.5-2.1-5.1c-.8-1.6-1.6-3.1-2.4-4-.3-.5-.7-.9-.9-1.2.2.2.5.7.9 1.2.8 1 1.8 2.4 2.6 4s1.8 3.4 2.4 5.1c.7 1.8 1.1 3.4 1.3 4.6.1.1-.5.2-.6-.1zm-7-4.5c-.2-1.4-.8-4-1.4-6.3-.3-1.1-.7-2.1-1-2.8-.3-.8-.4-1.2-.4-1.2s.2.4.5 1.1.8 1.6 1.2 2.7c.9 2.2 1.5 4.8 1.8 6.3 0 .3-.6.4-.7.2zm-5.8 6.9c-.2-4.8-.3-17.1-.3-17.1s.9 12.3 1.1 17c-.1.4-.8.4-.8.1zm2.6-6c-.1-1.5-.2-4.2-.7-6.3-.3-2.3-.9-4.2-.9-4.2s.7 1.8 1.2 4 .9 4.9 1 6.5c.1.2-.6.2-.6 0zm-4.7-.7c-.1-2.8.1-10 .1-10s.5 7.2.5 10c.1.1-.6.2-.6 0zm5.8-41c-1 2.2-2.5 6.2-3.5 9.8-.4 1.8-.9 3.5-1.1 4.7-.1.7-.2 1.1-.2 1.4-.1.3-.1.5-.1.5s0-.2.1-.5c0-.3.1-.9.2-1.4.2-1.2.4-3 .9-4.8.8-3.7 2.2-7.8 3.2-10.1.1-.3.7-.1.5.4zm13.1 2.9c-1.1.5-2.6 1.3-4.2 2.3-1.5 1-3.2 2.3-4.5 3.5-1.4 1.3-2.5 2.6-3.3 3.6-.4.5-.7.9-.9 1.2s-.3.4-.3.4.1-.2.3-.4c.2-.3.4-.8.9-1.2.8-1 1.8-2.4 3.2-3.7 1.3-1.3 2.8-2.7 4.5-3.7 1.5-1.1 3.1-1.9 4.2-2.4.2-.3.5.3.1.4zm5.5 14.5c-1-.2-2.4-.5-3.9-.7-1.5-.1-3.3-.1-4.8 0s-3 .4-4 .7c-.5.1-.9.2-1.2.3-.3.1-.4.1-.4.1s.1-.1.4-.2.7-.2 1.2-.4c1-.3 2.4-.8 4-1 1.5-.2 3.3-.3 4.9-.2s3.1.3 4 .5c.2.2.1.9-.2.9zm3.4 9.6c-1.6-.8-4.7-2.1-7.3-2.8-1.3-.4-2.6-.7-3.5-.9-.9-.2-1.5-.3-1.5-.3s.5.1 1.5.2 2.2.3 3.6.7c2.7.7 5.9 1.8 7.6 2.6.1-.1-.1.6-.4.5zm-2.5 6.8c-1-1-2.8-2.7-4.6-4-.9-.7-1.6-1.2-2.3-1.6-.7-.4-1-.7-1-.7s.4.2 1.1.5 1.5.9 2.4 1.4c1.9 1.2 3.8 2.8 4.8 3.9.2 0-.3.6-.4.5zM379 100c-.3-.9-.9-2-1.5-3.2s-1.4-2.4-2.3-3.5-1.8-2-2.4-2.6c-.3-.3-.7-.5-.8-.8-.2-.2-.3-.2-.3-.2s.1.1.3.2c.2.1.5.3.9.7.8.5 1.6 1.4 2.6 2.5 1 1 1.9 2.2 2.6 3.4.8 1.2 1.3 2.3 1.6 3.2.1.3-.6.6-.7.3zm-9.8-2.9c-.5-1.3-1.5-4.8-1.5-4.8s1.8 3.2 2.2 4.5c-.1.1-.7.4-.7.3zm-20.9-29.3c.9.5 2 1.4 3.1 2.5s2.3 2.3 3.2 3.5c1 1.2 1.8 2.4 2.2 3.3.2.4.4.8.5 1.1l.2.4s-.1-.1-.2-.3c-.1-.2-.3-.5-.7-1-.5-.9-1.4-2-2.4-3.2s-2.2-2.3-3.3-3.3c-1.1-1-2.3-1.9-3.1-2.4-.2-.2.2-.9.5-.6zm-4.3 8.8c.9-.1 2.1-.1 3.4.1 1.3.1 2.7.4 3.9.8 1.3.3 2.4.9 3.2 1.2.4.2.8.3.9.4.2.1.3.2.3.2s-.1-.1-.3-.1c-.2-.1-.5-.2-1-.4-.8-.3-2-.8-3.2-1-1.3-.3-2.6-.5-3.9-.5-1.3-.1-2.4 0-3.3 0-.2.1-.2-.6 0-.7zm-6 7.9c1.1-.5 2.6-1.2 4.3-1.6 1.8-.5 3.6-.9 5.5-1.1 1.8-.2 3.4-.2 4.6-.2.5 0 1.1 0 1.4.1h.5-1.9c-1.2 0-2.8.1-4.6.4-1.8.3-3.6.8-5.3 1.3s-3.2 1.2-4.2 1.8c-.4.1-.7-.6-.3-.7zm4.7 6.8c1.2-1.3 3.6-3.4 6-4.8 1.2-.8 2.3-1.3 3.1-1.6.4-.2.8-.3 1-.4s.3-.1.3-.1-.1.1-.3.2c-.2.1-.5.3-1 .5-.8.4-1.9 1.1-3 1.9-2.2 1.5-4.5 3.7-5.7 5-.1 0-.6-.5-.4-.7zm3 11.4c.2-1.2.7-2.8 1.3-4.6.7-1.8 1.4-3.5 2.4-5.1.9-1.6 1.9-3.1 2.6-4 .3-.4.7-.9.9-1.2.2-.2.3-.4.3-.4s-.1.1-.3.4c-.2.3-.4.7-.9 1.2-.7 1-1.5 2.4-2.4 4-.8 1.6-1.5 3.5-2.1 5.1-.5 1.8-1 3.3-1.2 4.5.1.5-.7.4-.6.1zm7-4.5c.2-1.5.9-4.2 1.8-6.3.4-1.1.9-2.1 1.2-2.7.3-.7.5-1.1.5-1.1s-.2.4-.4 1.2c-.3.8-.7 1.8-1 2.8-.7 2.2-1.2 4.8-1.4 6.3 0 .1-.8 0-.7-.2zm3.2 1c.1-1.5.4-4.2 1-6.5.5-2.2 1.2-4 1.2-4s-.5 1.9-.9 4.2c-.3 2.3-.5 4.9-.7 6.3.2.2-.6.2-.6 0zm-13.2-39.4c1.1.5 2.6 1.3 4.2 2.4 1.6 1.1 3.2 2.4 4.5 3.7s2.4 2.7 3.2 3.7c.3.5.7 1 .9 1.2.2.3.3.4.3.4s-.1-.1-.3-.4c-.2-.3-.5-.7-.9-1.2-.8-1-1.9-2.3-3.3-3.6-1.4-1.3-3-2.5-4.5-3.5s-3.1-1.8-4.2-2.3c-.6.1-.3-.5.1-.4zm-5.9 14.3c1-.2 2.5-.5 4-.5 1.6-.1 3.4 0 4.9.2 1.6.2 3 .7 4 1 .5.2.9.3 1.2.4.3.1.4.2.4.2s-.1 0-.4-.1-.7-.2-1.2-.3c-1-.2-2.4-.5-4-.7-1.5-.1-3.3-.1-4.8 0s-3 .4-3.9.7c-.3-.1-.6-.8-.2-.9zm-3.5 9.7c1.6-.8 4.8-2 7.6-2.6 1.4-.3 2.6-.5 3.6-.7 1-.1 1.5-.2 1.5-.2l-1.5.3c-.9.2-2.2.5-3.5.9-2.7.8-5.7 2.1-7.3 2.8-.4.3-.8-.4-.4-.5zm2.3 6.9c1-1.1 3-2.7 4.8-3.9.9-.7 1.9-1.1 2.4-1.4.7-.3 1.1-.5 1.1-.5s-.4.2-1 .7c-.7.4-1.4 1-2.3 1.6-1.8 1.3-3.6 3.1-4.6 4 0 .2-.5-.4-.4-.5zm5.2 9c.3-.9.9-2 1.6-3.2s1.6-2.4 2.6-3.4c.9-1 1.9-1.9 2.6-2.5.3-.3.7-.5.9-.7.2-.1.3-.2.3-.2s-.1.1-.3.2l-.8.8c-.7.7-1.5 1.5-2.4 2.6s-1.6 2.3-2.3 3.5c-.7 1.2-1.2 2.3-1.5 3.2-.1.3-.8 0-.7-.3zm10-2.8c.5-1.3 2.2-4.5 2.2-4.5s-1.1 3.5-1.5 4.8c-.1 0-.7-.3-.7-.3zm3.4-35.9c.7 1.4 1.5 3.9 2.1 6.2.2 1.1.4 2.2.5 3s.2 1.2.2 1.2l-.3-1.2c-.2-.8-.4-1.8-.8-2.8-.7-2.2-1.8-4.7-2.4-6 0-.3.6-.7.7-.4z"/><path class="st1" d="M432 27c1.8 1.4 4 3.6 6.2 6.1 2.2 2.6 4.3 5.7 5.9 8.6 1.6 3 2.7 5.9 3.5 8.1.2.5.3 1 .4 1.4s.2.8.3 1.1c.2.7.2 1 .2 1s-.1-.3-.3-1c-.1-.3-.2-.7-.3-1.1-.1-.4-.3-.9-.5-1.4-.8-2.2-2-5-3.6-8s-3.8-6-6-8.5-4.5-4.6-6.2-6c-.5-.3-.2-.7.4-.3zm52.3 6.3c-2.2 1.9-5.1 4.5-8.2 7.7-3.1 3.1-6.1 6.7-8.9 10.2-2.7 3.5-4.9 6.9-6.5 9.3-.8 1.2-1.4 2.3-1.8 3-.4.8-.7 1.1-.7 1.1s.2-.4.7-1.1c.4-.8 1-1.8 1.8-3.1 1.5-2.5 3.7-5.9 6.3-9.4s5.7-7.2 8.8-10.4c3.1-3.2 6-5.9 8.2-7.8.6-.5.9-.1.3.5zM187.9 83.5c-1.8 3-4 7.3-6.2 12.1s-4.3 10.3-5.8 15.4-2.6 10-3.3 13.5c-.1.9-.3 1.6-.4 2.4-.1.7-.2 1.3-.2 1.9-.1 1-.2 1.5-.2 1.5s.1-.5.2-1.5c.1-.5.1-1.1.2-1.9.1-.7.2-1.5.3-2.4.5-3.5 1.5-8.4 3.1-13.6 1.5-5.1 3.4-10.6 5.6-15.5 2.2-4.9 4.5-9.2 6.2-12.3.6-.8 1.1-.5.5.4zm.8 25.7c-3 4-10.6 14.2-10.6 14.2s7.2-10.5 10.2-14.6c.2-.2.6.1.4.4zm-31.2-27.4c.9 2.3 2 5.5 3.1 9s2.1 7.4 3 11.1c.9 3.6 1.4 7 1.9 9.4.2 1.2.3 2.2.4 3 .1.7.1 1.1.1 1.1s-.1-.3-.2-1.1c-.1-.7-.3-1.6-.5-3-.4-2.4-1.1-5.8-2-9.4s-2-7.4-3.2-10.9c-1.1-3.5-2.3-6.7-3.2-8.9-.2-.8.4-1 .6-.3zm129.4 37.3c1.3 3.5 4.6 12.7 4.6 12.7s-3.7-9-5.1-12.5c-.2-.3.4-.4.5-.2zm8.9-3.6c-.5 2.3-2.3 8.2-2.3 8.2s1.2-6 1.8-8.3c.1-.3.6-.2.5.1z"/><path class="st2" d="M276.9 113.3c2.1 4.8 7.3 17.4 7.3 17.4s-5.7-12.3-7.9-17.2c-.1-.4.5-.7.6-.2zm114.3 3.9c-1.6 4.8-6.1 17.2-6.1 17.2s3.9-12.6 5.6-17.4c.1-.3.6-.1.5.2zm-11.3-2.6c.9 4 3 14.6 3 14.6s-2.6-10.3-3.5-14.3c-.1-.5.5-.6.5-.3zM67 40.7c.9.8 2.1 2.1 3.1 3.6 1.1 1.5 2 3.4 2.5 5.1.7 1.8.9 3.4 1.1 4.7.1.7.1 1.1.1 1.4v.5-.5c0-.3-.1-.9-.2-1.4-.2-1.2-.5-2.8-1.2-4.6s-1.6-3.5-2.6-4.9c-1.1-1.5-2.2-2.7-3.1-3.5-.2-.2.1-.6.3-.4zm-3.2 5.5c.8.3 1.8 1 2.6 1.8.9.8 1.8 1.9 2.4 3 .7 1.1 1 2.1 1.2 2.8.1.4.2.8.2 1s.1.3.1.3 0-.1-.1-.3c0-.2-.1-.5-.2-.9-.2-.8-.7-1.8-1.3-2.7-.7-1-1.5-2-2.4-2.7-.9-.8-1.9-1.3-2.5-1.6-.4-.4-.2-.8 0-.7zm15.6 2.2c-.8.7-2 2.2-2.6 3.6-.3.8-.7 1.4-.8 2-.1.2-.1.4-.2.7 0 .1-.1.2-.1.2v-.2c0-.1.1-.3.1-.7.1-.5.3-1.3.5-2.1.3-.8.7-1.5 1.2-2.3.4-.7 1-1.3 1.3-1.6.2-.2.7.3.6.4zm4 8.8c-.4-.2-1.2-.3-2-.3s-1.6.2-2.4.5-1.3.9-1.6 1.2c-.2.2-.3.3-.4.5-.1.1-.1.2-.1.2s0-.1.1-.2.2-.3.3-.5c.3-.4.9-1 1.6-1.4.8-.4 1.6-.8 2.4-.8.9-.1 1.6 0 2.2.2.4.2.1.8-.1.6zm-20.2-.7c1 .2 2.7 1 4 1.8 1.4.8 2.4 1.5 2.4 1.5s-1.1-.7-2.5-1.3c-1.4-.7-3.2-1.2-4.2-1.4.1-.2.2-.6.3-.6zM78.3 38c-.7 1.3-1.8 3.7-2.3 5.9-.3 1.1-.4 2.1-.5 2.8-.1.8-.1 1.2-.1 1.2s0-.4.1-1.2.2-1.9.4-3c.4-2.3 1.3-4.8 2.1-6.1-.2 0 .4.2.3.4zM58.5 50.9c.8.2 2.2.8 3.3 1.4 1.1.6 1.9 1.3 1.9 1.3s-.9-.7-2-1.1c-1.1-.5-2.5-.9-3.3-1.1-.3-.1-.1-.5.1-.5zm131 69.3c-1.1.7-2.5 1.5-4 2.6s-3.1 2.4-4.4 3.7c-1.3 1.3-2.5 2.6-3.3 3.6-.4.4-.7.9-.9 1.2s-.3.4-.3.4.1-.1.3-.4c.2-.3.5-.7.9-1.2.8-1 1.9-2.4 3.2-3.7s2.8-2.7 4.3-3.9c1.5-1.2 3-2.1 4-2.7.2-.4.5.2.2.4zm-4.6 6.9c-1.8 1.4-6.2 4.7-6.2 4.7s4.2-3.7 5.9-5.1c.1-.2.4.3.3.4zm119.6-10.6c-1 .9-2.2 2.3-3.4 3.8-1.2 1.6-2.3 3.5-3.2 5.4-.9 1.9-1.4 3.6-1.8 4.9-.2.7-.3 1.2-.3 1.5-.1.3-.1.5-.1.5s0-.2.1-.5.1-.9.3-1.5c.3-1.3.8-3.2 1.6-5 .8-1.9 1.9-3.8 3.1-5.5 1.2-1.6 2.4-3.1 3.4-3.9.2-.4.6-.1.3.3zM392.6 31c2.1 1.6 5.7 4.7 8.5 7.7 1.4 1.4 2.6 2.8 3.5 3.9.9 1 1.4 1.8 1.4 1.8s-.5-.7-1.4-1.7-2.2-2.4-3.6-3.7c-2.8-2.8-6.6-5.8-8.6-7.4-.5-.5-.2-.9.2-.6zm7.1 1.4c1.1 1.5 3.6 5.7 3.6 5.7s-3-3.8-4-5.4c-.2-.2.3-.4.4-.3zm5.5-1.7c-.2.4-.5 1-.8 1.8-.2.7-.4 1.5-.4 2.3-.1.8 0 1.4 0 2 0 .2.1.4.1.5v.2s0-.1-.1-.2c0-.1-.1-.3-.1-.5a9.863 9.863 0 0 1 .1-4.4c.2-.8.4-1.4.7-1.9.1-.2.6 0 .5.2zm6.7 6.6c-.4.8-1.9 2.6-1.9 2.6s1-2.1 1.4-2.8c.1-.1.5.2.5.2zM167.3 96.6c.5 2.5 1.3 6.9 1.4 10.8.1 2 .1 3.7 0 5 0 .7 0 1.2-.1 1.5v.5-2c0-1.3 0-3.1-.2-5-.2-3.8-1.1-8.3-1.6-10.7-.2-.3.3-.4.5-.1zm5 10.9c-.5 2-2.2 6.8-2.2 6.8s1.1-5 1.6-7c.1-.2.6.1.6.2zm-15.7-3.9c.9 1.5 2.3 4.4 3.3 6.9.4 1.3.9 2.5 1.1 3.4.2.9.3 1.4.3 1.4s-.1-.5-.4-1.4c-.3-.9-.8-2.1-1.2-3.3-1-2.5-2.5-5.3-3.5-6.8-.1 0 .3-.4.4-.2z"/><path class="st3" d="M126 125.9c.9 2.2 2.3 6.1 3.1 9.6.4 1.8.7 3.4.9 4.5.2 1.2.2 2 .2 2s-.1-.8-.3-1.9c-.2-1.2-.5-2.7-1.1-4.5-.9-3.5-2.3-7.3-3.3-9.4-.2-.4.3-.7.5-.3zm8.2-10.7c-.7 3.1-1.6 8.5-2.2 13.2-.3 2.4-.4 4.6-.7 6.1-.1 1.6-.2 2.6-.2 2.6s0-1 .1-2.6.2-3.8.4-6.1c.4-4.7 1.3-10.3 2-13.4.2-.3.7-.2.6.2zm.9 13.3c-.8 1.8-3 5.9-3 5.9s1.8-4.5 2.5-6.1c0-.1.5.1.5.2zm-12.3 5.9c.5 1.8 1.6 6.5 1.6 6.5s-1.6-4.5-2.2-6.2c.1-.3.6-.4.6-.3zm62.3-35.6c-.9 1.6-2 4-3.2 6.7-1.2 2.6-2.3 5.5-3.3 8.2s-1.8 5.3-2.3 7.1c-.2.9-.4 1.6-.7 2.2-.1.5-.2.8-.2.8s.1-.3.2-.9c.1-.5.3-1.3.5-2.2.5-1.9 1.2-4.4 2.1-7.1.9-2.7 2-5.7 3.2-8.3 1.1-2.6 2.2-5 3.1-6.7.4-.5.9-.3.6.2zm-32.2-14.2c1 1.6 2.2 4 3.4 6.8 1.2 2.7 2.4 5.7 3.3 8.5 1 2.8 1.6 5.5 2.2 7.3.2 1 .4 1.8.5 2.3s.2.9.2.9-.1-.3-.2-.9c-.1-.5-.3-1.3-.5-2.3-.5-1.9-1.3-4.5-2.3-7.3-1-2.7-2.2-5.7-3.5-8.4-1.2-2.6-2.5-5-3.4-6.7-.4-.4 0-.7.3-.2zm132.8 37.9c.5 2.6 1.9 9.4 1.9 9.4s-1.8-6.7-2.4-9.3c-.1-.2.4-.3.5-.1zm3.5-11.6c.3 2.4 1 6.7 1.6 10.4.7 3.7 1.4 6.8 1.4 6.8s-.9-3.1-1.8-6.7-1.6-8-2-10.4c.1-.5.7-.5.8-.1zm86.1 3.3c1.6 4.5 5.4 16 5.4 16s-4.4-11.4-5.9-15.8c-.2-.5.4-.6.5-.2zm19.2 6c-.8 2.1-2.4 5.6-4.2 8.4-.9 1.4-1.6 2.7-2.3 3.7-.7.9-1 1.5-1 1.5s.3-.5 1-1.5c.5-1 1.3-2.3 2.1-3.7 1.5-3 3.1-6.5 3.8-8.5.3-.4.8-.3.6.1zm42.4-79.8c1.2 1.1 2.7 2.7 4.4 4.7 1.5 2 3.1 4.2 4.4 6.3 1.2 2.2 2.2 4.3 2.8 5.8.3.8.5 1.4.8 1.9.1.4.2.7.2.7s-.1-.2-.2-.7c-.2-.4-.4-1.1-.8-1.9-.7-1.5-1.8-3.6-3-5.7-1.3-2.1-2.8-4.3-4.5-6.1-1.5-1.9-3.2-3.5-4.4-4.6-.4-.3 0-.7.3-.4zm13.1-1c0 2.3 0 6.5.1 10s.4 6.6.4 6.6-.4-3-.8-6.5c-.3-3.5-.4-7.7-.4-10.1.2-.4.7-.3.7 0zm10.8 1.9c-.8.7-1.8 1.6-2.7 2.7-1 1.1-2 2.4-2.8 3.7-.9 1.3-1.5 2.5-2 3.4-.2.4-.4.9-.5 1.1l-.2.4s.1-.1.2-.4c.1-.2.2-.7.4-1.1.4-1 1.1-2.2 1.9-3.5s1.8-2.7 2.7-3.8c1-1.2 2-2.2 2.7-2.8 0-.4.5.1.3.3zm-20.6 12.4c.9.7 2.3 1.9 3.3 3.1 1.1 1.2 1.8 2.4 1.8 2.4s-.8-1.1-2-2.2c-1.1-1.1-2.6-2.3-3.4-2.8-.2-.1.2-.6.3-.5zm32.4 1.5c-1.6 1.1-4.5 3.2-6.7 5.3-1.1 1-2.1 2.1-2.7 2.8-.3.3-.7.7-.8.9l-.3.3s.1-.1.2-.3c.2-.2.4-.5.8-1 .7-.8 1.5-1.9 2.6-3 2.1-2.2 4.9-4.4 6.6-5.5.3-.2.6.2.3.5zm17.2 23.7c-1.1 1.4-3.1 4.2-4.5 6.7-.8 1.2-1.3 2.4-1.8 3.3-.4.9-.7 1.4-.7 1.4s.2-.5.5-1.4.9-2.1 1.5-3.4c1.3-2.6 3.2-5.4 4.3-6.9.4-.3.9 0 .7.3zm3.2 8.3c-1.1.4-2.8 1.3-4.3 2.3-.8.5-1.3 1-1.8 1.4l-.7.7s.2-.3.7-.7c.4-.4 1-1 1.6-1.5 1.3-1.1 3.2-2.2 4.3-2.6.1-.1.3.3.2.4zm1.1 5.1c-.5.1-1.5.3-2.3.8-.8.4-1.3 1-1.3 1l.3-.3c.2-.2.5-.5.9-.8.8-.5 1.8-1 2.4-1 0-.4.1.2 0 .3zm-14-10.3c.1 1.3 0 4.7 0 4.7s-.4-3.4-.5-4.7c0-.1.5-.1.5 0z"/><path class="st0" d="M893.5 13.1c0-.7-.5-1.2-1.2-1.2s-1.2.5-1.2 1.2.5 1.2 1.2 1.2c.6-.1 1.2-.5 1.2-1.2zm3.5 22.8c0-.8-.5-1.3-1.3-1.3s-1.3.5-1.3 1.3.5 1.3 1.3 1.3c.7.1 1.3-.5 1.3-1.3zm6.8-35c0-.4-.4-.9-.9-.9-.4 0-.9.4-.9.9s.4.9.9.9c.4 0 .9-.4.9-.9zm11.6 16.5c0-.5-.4-1.1-1.1-1.1-.5 0-1.1.4-1.1 1.1 0 .5.4 1.1 1.1 1.1.6 0 1.1-.5 1.1-1.1z"/><circle class="st0" cx="933.9" cy="38.2" r="1.1"/><circle class="st0" cx="929.1" cy="61.1" r="1.4"/><circle class="st0" cx="948.9" cy="75.5" r="1.2"/><path class="st0" d="M960.4 84.5c0-.8-.5-1.3-1.3-1.3s-1.3.5-1.3 1.3.5 1.3 1.3 1.3c.6 0 1.3-.6 1.3-1.3z"/><circle class="st0" cx="975.6" cy="100.8" r="1.5"/><circle class="st0" cx="985" cy="60" r="1.4"/><circle class="st0" cx="1002.2" cy="75.1" r="1.2"/><path class="st0" d="M1030.9 54.9c0-.8-.7-1.4-1.4-1.4-.8 0-1.4.7-1.4 1.4 0 .8.7 1.4 1.4 1.4.8.1 1.4-.6 1.4-1.4zm2.3-22.5c0-.9-.7-1.5-1.5-1.5-.9 0-1.5.7-1.5 1.5 0 .9.7 1.5 1.5 1.5.9 0 1.5-.6 1.5-1.5zm18.9-4.2c0-.5-.4-1-1-1-.5 0-1 .4-1 1 0 .5.4 1 1 1 .5 0 1-.4 1-1zm7.4 4.8c0-.9-.8-1.6-1.6-1.6-.9 0-1.6.8-1.6 1.6s.8 1.6 1.6 1.6 1.6-.8 1.6-1.6zm-4.2 31.1c0-.4-.3-.8-.8-.8s-.8.3-.8.8c0 .4.3.8.8.8.5.1.8-.3.8-.8zm33 20.8c0-.8-.5-1.3-1.3-1.3s-1.3.5-1.3 1.3.5 1.3 1.3 1.3c.6 0 1.3-.5 1.3-1.3zm3.8 27.3c0-.4-.4-.9-.9-.9-.4 0-.9.4-.9.9 0 .4.4.9.9.9.6-.2.9-.5.9-.9z"/><circle class="st0" cx="1105.2" cy="94.9" r="1.3"/><circle class="st0" cx="1130.9" cy="109.1" r=".8"/><path class="st0" d="M1128.8 66.8c0-.8-.7-1.4-1.4-1.4s-1.4.7-1.4 1.4c0 .8.7 1.4 1.4 1.4s1.4-.7 1.4-1.4zm2.9-9.6c0-.4-.3-.9-.9-.9-.5 0-.9.3-.9.9 0 .4.3.9.9.9s.9-.4.9-.9zm14.4 52.6c0 .4.3.9.9.9.4 0 .9-.3.9-.9 0-.4-.3-.9-.9-.9-.5.1-.9.4-.9.9zm-9.9-32.1c.5 0 .9.4.9.9s-.4.9-.9.9-.9-.4-.9-.9.4-.9.9-.9zm-32.4 31.7c0 .4.3.8.8.8s.8-.3.8-.8c0-.4-.3-.8-.8-.8s-.8.5-.8.8zm-21.3-7.4c0 .5.4 1 1 1s1-.4 1-1c0-.5-.4-1-1-1s-1 .5-1 1z"/><path class="st1" d="M1102 2.8c.2 10 0 35.6 0 35.6s-1.1-25.6-1.3-35.6c.1-.8 1.3-.8 1.3 0zm12.5 6.3c-1.1 1.8-2.4 4.3-3.7 7.2-1.3 2.8-2.4 6.1-3.3 9.2s-1.3 6-1.5 8.1c-.1 1.1-.2 2-.2 2.5s-.1 1-.1 1v-1c0-.7 0-1.4.1-2.5.1-2.2.4-5 1.1-8.2s1.6-6.6 2.8-9.5c1.2-3 2.5-5.6 3.6-7.4.4-.6 1.5.1 1.2.6zm11.6 11c-1.4 1-3.3 2.4-5.4 4-2 1.8-4 3.7-5.7 5.7-1.8 2-3.2 3.9-4.2 5.5-.4.8-.9 1.3-1.1 1.8-.2.4-.4.7-.4.7s.1-.2.3-.7c.2-.4.5-1.1 1-1.9.9-1.5 2.2-3.6 3.8-5.7s3.6-4.3 5.5-6.1c2-1.9 3.8-3.4 5.3-4.4.6-.2 1.3.8.9 1.1zm6.4 15.6c-1.4-.1-3.5-.2-5.7-.1s-4.6.4-6.8 1c-2.2.5-4.2 1.2-5.6 1.8-.7.3-1.3.5-1.6.7-.4.2-.7.2-.7.2s.2-.1.5-.3.9-.5 1.6-.9c1.3-.7 3.3-1.5 5.5-2.2s4.6-1.2 6.9-1.4 4.4-.2 5.9-.1c.6.1.5 1.3 0 1.3zm10.2 13.4c-1.8-.9-4.4-2-7.2-3s-6.1-1.8-9.2-2.3-5.9-.7-8-.8h-3.3s.3 0 .9-.1 1.4-.1 2.4-.1c2.1-.1 4.9 0 8 .3s6.5 1 9.4 2c3 .9 5.6 2 7.4 2.8.7.3.2 1.4-.4 1.2zm-8.5 11.6c-1-1.1-2.5-2.6-4.3-4.2-1.8-1.5-3.7-3.2-5.6-4.5s-3.7-2.5-5.1-3.3c-.7-.4-1.2-.7-1.6-.9s-.7-.3-.7-.3.2.1.7.3c.4.2 1 .4 1.8.8 1.4.7 3.4 1.6 5.4 3 2 1.2 4.2 2.7 5.9 4.3 1.9 1.5 3.4 3 4.5 4.2.2 0-.7.9-1 .6zm-5.7 18.9c-.4-2-1.1-4.8-2.1-7.8s-2.3-6.1-3.6-9c-1.4-2.8-3-5.4-4-7.1-.5-.9-1.1-1.6-1.4-2.1-.3-.4-.5-.8-.5-.8s.2.2.5.8c.4.4.9 1.1 1.5 2 1.3 1.8 3 4.2 4.5 6.9s3.1 5.9 4 9c1.1 3 1.9 5.8 2.3 7.9.1.7-1.1.9-1.2.2zm-12.1-7.8c-.4-2.5-1.3-7.1-2.4-10.9-.5-1.9-1.2-3.6-1.6-4.9-.2-.7-.4-1.1-.5-1.4s-.2-.5-.2-.5.1.2.2.5c.2.3.4.9.7 1.4.5 1.2 1.3 2.8 2.1 4.8.8 1.9 1.4 3.9 2 5.9.5 2 .9 3.7 1.1 5-.1.4-1.3.6-1.4.1zm-10.1 11.9c-.3-8.2-.7-29.4-.7-29.4s1.5 21.1 1.9 29.4c0 .6-1.2.6-1.2 0zm4.5-10.2c-.1-2.5-.4-7.1-1.1-11.1-.3-2-.7-3.7-1-5-.1-.7-.2-1.2-.3-1.5s-.1-.5-.1-.5.1.2.2.5l.5 1.5c.4 1.3.9 3.1 1.4 4.9 1 3.8 1.5 8.4 1.6 11.1.1.4-1.1.4-1.2.1zm-8.1-1.3c-.1-4.8.2-17.3.2-17.3s.9 12.4 1 17.3c0 .3-1.2.4-1.2 0zm10.1-70.9c-.9 2-2 4.6-3.1 7.6s-2.2 6.3-3 9.4c-.9 3.1-1.4 6-1.9 8.1-.2 1.1-.3 2-.4 2.5s-.1 1-.1 1 0-.3.1-1 .1-1.4.3-2.5c.3-2.2.8-5 1.4-8.2.7-3.2 1.5-6.6 2.6-9.6 1-3.1 2.1-5.8 3-7.8.3-.6 1.4-.2 1.1.5zm22.7 5.2c-1.9.9-4.5 2.2-7.2 3.9-2.7 1.8-5.5 3.8-7.9 6.1-2.4 2.2-4.4 4.5-5.7 6.1-.7.9-1.2 1.5-1.5 2.1-.3.5-.5.8-.5.8s.2-.3.5-.8.8-1.3 1.4-2.2c1.3-1.8 3.1-4.2 5.4-6.5s5-4.7 7.7-6.5c2.7-1.9 5.4-3.3 7.3-4.2.5-.2 1 .9.5 1.2zm9.4 24.9c-1.8-.4-4.2-.9-6.8-1.2-2.7-.3-5.7-.3-8.4 0-2.7.2-5.1.8-7 1.2-.9.2-1.6.4-2.1.7-.5.1-.8.2-.8.2s.2-.1.8-.3c.4-.2 1.2-.4 2.1-.8 1.8-.5 4.2-1.2 7-1.6 2.7-.4 5.8-.5 8.5-.4s5.3.5 7 1c.6.1.3 1.3-.3 1.2zm5.9 16.7c-1.4-.7-3.4-1.6-5.7-2.5-2.2-.9-4.7-1.8-7.1-2.5-2.3-.7-4.5-1.2-6.1-1.5-.8-.2-1.4-.3-1.9-.4-.4-.1-.7-.1-.7-.1s.2 0 .8.1c.4 0 1.1.1 2 .2 1.6.2 3.8.7 6.2 1.2 2.4.5 4.9 1.3 7.2 2.1s4.4 1.6 5.8 2.4c.5 0 0 1.2-.5 1zm-4.5 11.6c-.9-.9-2.1-2.1-3.5-3.4s-3-2.6-4.5-3.7c-1.5-1.2-3-2.2-3.9-2.8-.5-.3-1-.7-1.3-.8-.3-.2-.4-.3-.4-.3s.2.1.5.2.8.4 1.3.7c1.1.5 2.6 1.4 4.3 2.5 1.6 1 3.3 2.3 4.8 3.5s2.7 2.4 3.6 3.3c.3.3-.5 1-.9.8zm-9.3 15.2c-.5-1.4-1.4-3.4-2.5-5.5s-2.5-4.2-4-6c-1.4-1.9-3-3.4-4.2-4.5-.5-.5-1.1-1-1.4-1.3s-.5-.4-.5-.4.2.1.5.4c.3.2.9.7 1.5 1.2 1.2 1 2.8 2.5 4.5 4.3s3.2 3.8 4.5 5.9 2.2 4 2.8 5.5c.1.4-1.1.8-1.2.4zm-17.1-5.1c-.9-2.3-2.7-8.2-2.7-8.2s3 5.6 3.8 7.8c.1.1-1 .6-1.1.4zm-36.2-50.7c1.4 1 3.4 2.5 5.3 4.4 2 1.9 3.9 3.9 5.5 6.1 1.6 2.1 3 4.2 3.8 5.7.4.8.8 1.4 1 1.9.2.4.3.7.3.7s-.1-.2-.4-.7c-.2-.4-.7-1-1.1-1.8-1-1.4-2.4-3.4-4.2-5.5-1.8-2-3.7-4-5.7-5.7-2-1.8-3.9-3.2-5.4-4-.2-.4.5-1.4.9-1.1zm-7.3 15.4c1.5-.1 3.6-.1 5.9.1 2.3.2 4.7.8 6.9 1.4 2.2.7 4.2 1.5 5.5 2.2.7.3 1.2.7 1.6.9.3.2.5.3.5.3s-.2-.1-.7-.2c-.4-.2-1-.4-1.6-.7-1.4-.5-3.4-1.2-5.6-1.8s-4.6-.9-6.8-1c-2.2-.1-4.3 0-5.7.1-.3-.1-.4-1.3 0-1.3zM1065.9 48c1.9-.9 4.5-2 7.4-2.8s6.3-1.5 9.4-2c3.1-.3 5.9-.4 8-.3 1 0 1.9.1 2.4.1s.9.1.9.1h-3.3c-2.1 0-4.9.2-8 .8-3.1.5-6.2 1.3-9.2 2.3-2.8 1-5.5 2.1-7.2 3-.4.1-.9-1-.4-1.2zm8.1 11.8c1.1-1.1 2.6-2.6 4.5-4.2 1.9-1.5 3.9-3 5.9-4.3 2-1.2 3.9-2.3 5.4-3 .8-.3 1.3-.5 1.8-.8.4-.2.7-.3.7-.3s-.2.1-.7.3c-.4.2-1 .5-1.6.9-1.3.8-3.2 1.9-5.1 3.3-1.9 1.3-3.8 3-5.6 4.5-1.8 1.5-3.2 3.1-4.3 4.2-.3.6-1.3-.3-1-.6zm5.5 19.6c.4-2.1 1.2-4.9 2.3-7.9s2.5-6.1 4-9c1.5-2.8 3.2-5.3 4.5-6.9.7-.9 1.2-1.5 1.5-2 .3-.4.5-.8.5-.8s-.2.2-.5.8c-.3.4-.9 1.2-1.4 2.1-1.2 1.8-2.7 4.3-4 7.1-1.4 2.8-2.7 6-3.7 9s-1.6 5.8-2.1 7.8c-.1.7-1.3.5-1.1-.2zm12-7.8c.2-1.3.7-3.1 1.1-5 .5-2 1.2-4 2-5.9s1.5-3.5 2.1-4.8c.3-.7.5-1.1.7-1.4s.2-.5.2-.5-.1.2-.2.5-.3.9-.5 1.4c-.4 1.2-1.1 3-1.6 4.9-1.2 3.8-2.1 8.3-2.4 10.9-.3.6-1.5.4-1.4-.1zm5.6 1.8c.1-2.6.8-7.2 1.6-11.1.4-2 1-3.7 1.4-4.9.2-.7.3-1.1.5-1.5.1-.3.2-.5.2-.5s0 .2-.1.5-.2.9-.3 1.5c-.3 1.3-.7 3.1-1 5-.7 3.9-1 8.4-1.1 11.1 0 .3-1.2.3-1.2-.1zm-22.9-68.1c2 .9 4.6 2.3 7.3 4.2 2.7 1.9 5.4 4.2 7.7 6.5s4.2 4.7 5.4 6.5c.7.9 1.1 1.6 1.4 2.2s.5.8.5.8-.2-.3-.5-.8-.9-1.2-1.5-2.1c-1.3-1.8-3.3-3.9-5.7-6.1-2.4-2.2-5.1-4.4-7.9-6.1-2.7-1.8-5.4-3.1-7.2-3.9-.6-.3-.1-1.4.5-1.2zm-10.3 24.9c1.8-.4 4.3-.9 7-1 2.7-.2 5.8 0 8.5.4s5.3 1.1 7 1.6c.9.3 1.5.5 2.1.8.4.2.8.3.8.3s-.3-.1-.8-.2c-.4-.2-1.2-.3-2.1-.7-1.8-.4-4.3-1-7-1.2s-5.7-.2-8.4 0-5.1.8-6.8 1.2c-.5.1-.8-1.1-.3-1.2zm-6.1 16.8c1.4-.7 3.5-1.5 5.8-2.4 2.3-.8 4.9-1.5 7.2-2.1 2.4-.5 4.6-1 6.2-1.2.8-.1 1.4-.2 2-.2.4 0 .8-.1.8-.1s-.2 0-.7.1c-.4.1-1.1.2-1.9.4-1.6.3-3.8.9-6.1 1.5-2.3.7-4.8 1.5-7.1 2.5-2.3.9-4.3 1.9-5.7 2.5-.4.3-.9-.9-.5-1zm4.1 11.8c.9-.9 2.2-2.1 3.6-3.3 1.5-1.2 3.2-2.4 4.8-3.5s3.2-1.9 4.3-2.5c.5-.3 1-.5 1.3-.7s.5-.2.5-.2-.2.1-.4.3c-.3.2-.8.4-1.3.8-1.1.7-2.5 1.6-3.9 2.8-1.5 1.2-3.1 2.5-4.5 3.7-1.4 1.3-2.6 2.5-3.5 3.4-.3.3-1.2-.4-.9-.8zm9 15.7c.5-1.4 1.5-3.5 2.8-5.5 1.2-2.1 2.8-4.2 4.5-5.9 1.6-1.8 3.3-3.3 4.5-4.3.7-.5 1.1-.9 1.5-1.2.3-.2.5-.4.5-.4s-.2.1-.5.4c-.3.3-.9.8-1.4 1.3-1.2 1.1-2.7 2.6-4.2 4.5-1.4 1.9-3 3.9-4 6-1.1 2.1-2 4-2.5 5.5-.2.4-1.3 0-1.2-.4zm17.2-5.2c.9-2.3 3.8-7.8 3.8-7.8s-1.8 6-2.7 8.2c0 .3-1.2-.2-1.1-.4zm5.9-62c1.1 2.4 2.6 6.9 3.5 10.7.4 2 .8 3.8 1 5.1.1.7.2 1.2.2 1.5s.1.5.1.5 0-.2-.1-.5-.2-.9-.3-1.5c-.3-1.3-.8-3.1-1.4-5-1.2-3.8-3-8.1-4-10.4-.2-.2.9-.7 1-.4z"/><path class="st3" d="M915.7 66.9c.1 6.5 0 23 0 23s-.7-16.5-.9-23c.1-.4.9-.5.9 0zm8 4.1c-.7 1.1-1.5 2.7-2.4 4.6s-1.5 3.9-2.1 5.9c-.5 2-.9 3.8-1 5.3-.1.7-.1 1.2-.1 1.6v.7-.7c0-.5 0-1 .1-1.6.1-1.4.3-3.3.8-5.4.4-2.1 1.1-4.2 1.9-6.1.8-2 1.6-3.6 2.3-4.8.1-.3.7.2.5.5zm7.4 7.1c-.9.7-2.2 1.5-3.4 2.6-1.3 1.1-2.6 2.4-3.7 3.7-1.1 1.3-2.1 2.5-2.7 3.5-.3.4-.5.9-.8 1.1-.2.3-.2.4-.2.4s.1-.1.2-.4c.1-.3.3-.7.7-1.2.5-1 1.4-2.3 2.5-3.7 1.1-1.3 2.3-2.7 3.6-3.9 1.2-1.2 2.5-2.2 3.4-2.8.3-.2.8.5.4.7zm4.3 10.1c-1-.1-2.3-.1-3.7 0s-3 .3-4.4.7c-1.4.3-2.7.8-3.6 1.1-.4.2-.8.3-1.1.4l-.4.2s.1-.1.3-.2.5-.3 1-.5c.9-.4 2.1-1 3.5-1.4s3-.8 4.5-.9c1.4-.1 2.8-.1 3.8-.1.4-.1.3.7.1.7zm6.5 8.6c-1.2-.5-2.8-1.3-4.7-2s-3.9-1.2-5.9-1.5-3.8-.4-5.1-.4h-2 .5c.3 0 .9-.1 1.5-.1 1.3 0 3.2 0 5.1.2 1.9.2 4.2.7 6 1.2 2 .5 3.6 1.3 4.8 1.9.5.2.2.8-.2.7zm-5.5 7.5c-.7-.8-1.6-1.8-2.7-2.7a52 52 0 0 0-3.6-3c-1.2-.9-2.4-1.6-3.3-2.1-.4-.2-.8-.4-1.1-.5l-.4-.2s.1.1.4.2c.2.1.7.3 1.1.5.9.4 2.2 1.1 3.5 1.9s2.6 1.8 3.8 2.7c1.2 1 2.2 2 2.8 2.6.4.2-.3.8-.5.6zm-3.6 12.2c-.2-1.3-.7-3.1-1.3-5-.7-2-1.4-3.9-2.4-5.8-.9-1.9-1.9-3.4-2.6-4.6-.3-.5-.7-1-.9-1.3s-.3-.4-.3-.4.1.2.3.4c.2.3.5.8 1 1.3.8 1.1 1.9 2.6 2.8 4.5 1 1.8 2 3.8 2.6 5.8.7 2 1.2 3.7 1.4 5 .3.3-.5.4-.6.1zm-7.8-5c-.2-1.6-.9-4.6-1.5-7-.3-1.2-.8-2.3-1.1-3.2-.3-.8-.5-1.3-.5-1.3s.2.4.7 1.2c.3.8.9 1.9 1.3 3.1 1 2.4 1.8 5.4 2 7-.1.3-.9.4-.9.2zm-6.6 7.6c-.2-5.4-.4-19-.4-19s1 13.7 1.2 18.9c0 .5-.8.5-.8.1zm3-6.6c-.1-1.6-.3-4.6-.8-7.1-.2-1.2-.4-2.4-.7-3.3-.2-.9-.3-1.3-.3-1.3s.2.5.4 1.3.5 2 .9 3.2c.7 2.5 1 5.5 1.1 7.1.2.3-.6.4-.6.1zm-5.4-.8c-.1-3.2.1-11.2.1-11.2l.7 11.2c.1.2-.8.2-.8 0zm6.6-45.7c-.5 1.2-1.3 3-2 4.9-.7 2-1.4 4-2 6.1-.5 2-1 3.8-1.2 5.3-.1.7-.2 1.2-.3 1.6s-.1.5-.1.5 0-.2.1-.7c0-.4.1-1 .2-1.6.2-1.4.4-3.3.9-5.4.4-2.1 1-4.3 1.6-6.2.7-2 1.3-3.7 1.9-5 .4-.3 1.1 0 .9.5zm14.7 3.3c-1.2.5-3 1.4-4.7 2.5-1.8 1.1-3.5 2.5-5 3.9s-2.8 2.8-3.7 3.9c-.4.5-.8 1-1 1.3s-.3.5-.3.5.1-.2.3-.5.5-.8.9-1.4c.8-1.1 2-2.7 3.5-4.2s3.2-3 4.9-4.2 3.4-2.1 4.7-2.7c.4 0 .7.7.4.9zm6 16c-1.1-.3-2.6-.5-4.4-.8-1.8-.2-3.6-.2-5.4 0-1.8.1-3.4.4-4.5.8-.5.1-1 .3-1.3.4s-.5.1-.5.1l.4-.2c.3-.1.8-.3 1.3-.4 1.1-.3 2.7-.8 4.5-1.1 1.8-.2 3.7-.3 5.5-.2 1.8.1 3.4.3 4.5.7.4.1.3.8-.1.7zm3.8 10.9c-1.9-.9-5.1-2.3-8.2-3.2-1.5-.4-3-.8-3.9-1-1-.2-1.6-.3-1.6-.3s.7.1 1.8.2 2.5.4 4 .8c3.1.7 6.6 2 8.4 2.8.2 0-.2.8-.5.7zm-2.8 7.4c-1.1-1.1-3.2-3.1-5.1-4.6-1-.8-1.9-1.4-2.6-1.9-.7-.4-1.1-.8-1.1-.8s.4.2 1.2.7c.8.4 1.8 1 2.7 1.6 2.1 1.3 4.3 3.2 5.5 4.4.1.3-.4.8-.6.6zm-6.1 9.9c-.3-.9-.9-2.2-1.6-3.5-.8-1.3-1.6-2.7-2.6-3.9-1-1.2-2-2.2-2.6-3-.3-.3-.7-.7-.9-.8-.3-.2-.4-.2-.4-.2s.1.1.3.2c.2.2.5.4 1 .8.8.7 1.9 1.6 2.8 2.7 1 1.1 2.1 2.5 2.8 3.8.8 1.3 1.4 2.6 1.9 3.5.2.4-.5.6-.7.4zm-11-3.3c-.5-1.4-1.8-5.4-1.8-5.4s1.9 3.6 2.5 5c.1.1-.7.5-.7.4zm-23.3-32.8c.9.7 2.2 1.6 3.4 2.8 1.2 1.2 2.5 2.5 3.6 3.9 1.1 1.3 1.9 2.7 2.5 3.7.3.5.5.9.7 1.2.1.3.2.4.2.4s-.1-.1-.2-.4c-.2-.3-.4-.7-.8-1.1-.7-1-1.5-2.2-2.7-3.5-1.1-1.3-2.4-2.6-3.7-3.7s-2.5-2-3.4-2.6c-.4-.2.2-.9.4-.7zm-4.7 10c1-.1 2.3-.1 3.8.1 1.4.1 3.1.4 4.5.9 1.4.4 2.6 1 3.5 1.4l1 .5c.2.1.3.2.3.2s-.1-.1-.4-.2c-.2-.1-.7-.2-1.1-.4-.9-.3-2.2-.8-3.6-1.1-1.4-.3-3-.5-4.4-.7-1.4-.1-2.7 0-3.7 0-.1.1-.2-.7.1-.7zm-6.8 8.7c1.2-.5 2.8-1.3 4.8-1.9 2-.5 4-1 6-1.2s3.8-.2 5.1-.2c.7 0 1.2.1 1.5.1h.5-2c-1.3 0-3.2.1-5.1.4-2 .3-4 .9-5.9 1.5-1.9.7-3.5 1.3-4.7 2-.2.1-.5-.5-.2-.7zm5.2 7.6c.7-.8 1.6-1.8 2.8-2.6 1.2-1 2.5-2 3.8-2.7 1.3-.8 2.5-1.4 3.5-1.9.4-.2.9-.4 1.1-.5l.4-.2s-.1.1-.4.2c-.2.1-.7.3-1.1.5-.9.5-2.1 1.2-3.3 2.1s-2.5 1.9-3.6 3c-1.1 1-2.1 2-2.7 2.7-.1.2-.7-.4-.5-.6zm3.6 12.6c.2-1.3.8-3.2 1.4-5 .7-2 1.6-3.9 2.6-5.8 1-1.8 2.1-3.4 2.8-4.5.4-.5.8-1 1-1.3s.3-.4.3-.4-.1.2-.3.4c-.2.3-.5.8-.9 1.3-.8 1.1-1.8 2.7-2.6 4.6s-1.8 3.8-2.4 5.8c-.7 2-1.1 3.7-1.3 5 0 .4-.8.3-.6-.1zm7.7-4.9c.2-1.6 1-4.6 2-7 .4-1.2 1-2.3 1.3-3.1.3-.8.7-1.2.7-1.2s-.2.5-.5 1.3-.7 2-1.1 3.2c-.8 2.4-1.3 5.4-1.5 7-.1.1-1 0-.9-.2zm3.6 1.1c.1-1.6.4-4.7 1.1-7.1.3-1.2.7-2.4.9-3.2.2-.8.4-1.3.4-1.3s-.1.5-.3 1.3c-.2.9-.4 2-.7 3.3-.4 2.5-.7 5.5-.7 7.1.1.2-.8.1-.7-.1zm-14.7-43.9c1.3.5 3 1.5 4.7 2.7 1.8 1.2 3.5 2.7 4.9 4.2 1.5 1.5 2.6 3.1 3.5 4.2.4.5.8 1.1.9 1.4.2.3.3.5.3.5s-.1-.2-.3-.5-.5-.8-1-1.3c-.9-1.1-2.1-2.5-3.7-3.9-1.5-1.4-3.3-2.8-5-3.9-1.8-1.1-3.4-2-4.7-2.5-.4-.4-.1-1.1.4-.9zm-6.7 16c1.1-.3 2.7-.5 4.5-.7 1.8-.1 3.7 0 5.5.2s3.4.7 4.5 1.1c.5.2 1 .3 1.3.4s.4.2.4.2-.2-.1-.5-.1c-.3-.1-.8-.2-1.3-.4-1.1-.3-2.7-.7-4.5-.8-1.8-.1-3.6-.1-5.4 0-1.8.2-3.3.4-4.4.8-.2.1-.4-.6-.1-.7zm-4 10.8c1.9-.9 5.4-2.2 8.4-2.8 1.5-.3 3-.7 4-.8 1.1-.1 1.8-.2 1.8-.2s-.7.1-1.6.3c-1 .2-2.4.5-3.9 1-3.1.9-6.3 2.3-8.2 3.2-.3.2-.8-.6-.5-.7zm2.7 7.7c1.1-1.2 3.4-3.1 5.5-4.4 1-.7 2-1.2 2.7-1.6.8-.4 1.2-.7 1.2-.7s-.4.2-1.1.8c-.7.4-1.6 1.1-2.6 1.9-2 1.4-3.9 3.4-5.1 4.6-.2.1-.7-.4-.6-.6zm5.9 10c.3-1 1-2.2 1.9-3.5.8-1.3 1.9-2.6 2.8-3.8 1-1.2 2.1-2.1 2.8-2.7.4-.3.8-.5 1-.8.2-.2.3-.2.3-.2l-.3.3c-.2.2-.5.4-.9.8-.8.7-1.8 1.8-2.6 3-1 1.2-1.9 2.5-2.6 3.9-.8 1.3-1.3 2.6-1.6 3.5-.2.1-.9-.1-.8-.5zm11-3.3c.5-1.4 2.5-5 2.5-5s-1.2 3.8-1.8 5.4c0 .1-.8-.3-.7-.4zm3.9-40c.8 1.5 1.8 4.4 2.3 6.9.3 1.3.5 2.4.7 3.3.1.9.2 1.4.2 1.4s-.1-.5-.3-1.4-.5-2-.9-3.2c-.8-2.5-2-5.3-2.6-6.7-.3-.2.5-.5.6-.3z"/><path class="st2" d="M840.1 94.8c.1 5.8 0 20.6 0 20.6s-.7-14.8-.8-20.6c.1-.4.8-.4.8 0zm7.2 3.7c-.7 1-1.4 2.5-2.2 4.2s-1.4 3.6-1.9 5.4c-.4 1.8-.8 3.5-.9 4.7-.1.7-.1 1.1-.1 1.4v.5-.5c0-.3 0-.9.1-1.4.1-1.2.2-3 .7-4.8.4-1.9 1-3.7 1.6-5.5.7-1.8 1.4-3.3 2.1-4.3.1-.4.8-.1.6.3zm6.7 6.3c-.8.5-2 1.4-3.1 2.4-1.2 1-2.3 2.2-3.3 3.3-1 1.2-1.9 2.3-2.4 3.2-.3.4-.5.8-.7 1-.1.2-.2.3-.2.3s.1-.1.2-.4c.1-.2.3-.7.5-1.1.5-.9 1.3-2.1 2.2-3.3 1-1.2 2.1-2.5 3.2-3.5 1.1-1.1 2.2-2 3.1-2.5.4-.2.8.5.5.6zm3.8 9.1c-.9-.1-2-.1-3.3 0s-2.6.2-3.9.5-2.4.7-3.2 1c-.4.1-.8.3-1 .4s-.3.1-.3.1.1-.1.3-.2.5-.3.9-.4c.8-.3 1.9-.9 3.2-1.2 1.3-.4 2.6-.7 3.9-.8 1.3-.1 2.5-.1 3.4-.1.3 0 .2.7 0 .7zm5.8 7.6c-1-.5-2.5-1.2-4.2-1.8-1.6-.5-3.5-1-5.3-1.3s-3.4-.4-4.6-.4h-1.9.5c.3 0 .9-.1 1.4-.1 1.2 0 2.8 0 4.6.2s3.7.5 5.5 1.1 3.3 1.1 4.3 1.6c.3.3 0 1-.3.7zm-4.9 6.8c-1.2-1.3-3.4-3.5-5.7-5-1.1-.8-2.2-1.4-3-1.9l-1-.5c-.2-.1-.3-.2-.3-.2s.1.1.3.1c.2.1.5.2 1 .4.9.4 2 1 3.1 1.6 2.3 1.4 4.8 3.5 6 4.8.3.4-.2.9-.4.7zm-3.3 11c-.2-1.2-.7-2.7-1.2-4.5s-1.3-3.5-2.1-5.1-1.6-3.1-2.4-4c-.3-.5-.7-.9-.9-1.2.2.2.5.7.9 1.2.8 1 1.8 2.4 2.6 4s1.8 3.4 2.4 5.1c.7 1.8 1.1 3.4 1.3 4.6.1.1-.5.2-.6-.1zm-7-4.5c-.2-1.4-.8-4-1.4-6.3-.3-1.1-.7-2.1-1-2.8-.3-.8-.4-1.2-.4-1.2s.2.4.5 1.1.8 1.6 1.2 2.7c.9 2.2 1.5 4.8 1.8 6.3 0 .3-.6.4-.7.2zm-5.8 6.9c-.2-4.8-.3-17.1-.3-17.1s.9 12.3 1.1 17c-.1.4-.8.4-.8.1zm2.6-6c-.1-1.5-.2-4.2-.7-6.3-.3-2.3-.9-4.2-.9-4.2s.7 1.8 1.2 4 .9 4.9 1 6.5c.1.2-.6.2-.6 0zm-4.7-.7c-.1-2.8.1-10 .1-10s.5 7.2.5 10c.1.1-.6.2-.6 0zm5.8-41c-1 2.2-2.5 6.2-3.5 9.8-.4 1.8-.9 3.5-1.1 4.7-.1.7-.2 1.1-.2 1.4-.1.3-.1.5-.1.5s0-.2.1-.5c0-.3.1-.9.2-1.4.2-1.2.4-3 .9-4.8.8-3.7 2.2-7.8 3.2-10.1.1-.3.7-.1.5.4zm13.1 2.9c-1.1.5-2.6 1.3-4.2 2.3-1.5 1-3.2 2.3-4.5 3.5-1.4 1.3-2.5 2.6-3.3 3.6-.4.5-.7.9-.9 1.2-.2.3-.3.4-.3.4s.1-.2.3-.4c.2-.3.4-.8.9-1.2.8-1 1.8-2.4 3.2-3.7 1.3-1.3 2.8-2.7 4.5-3.7 1.5-1.1 3.1-1.9 4.2-2.4.2-.3.5.3.1.4zm5.5 14.5c-1-.2-2.4-.5-3.9-.7-1.5-.1-3.3-.1-4.8 0s-3 .4-4 .7c-.5.1-.9.2-1.2.3-.3.1-.4.1-.4.1s.1-.1.4-.2.7-.2 1.2-.4c1-.3 2.4-.8 4-1 1.5-.2 3.3-.3 4.9-.2 1.6.1 3.1.3 4 .5.2.2.1.9-.2.9zm3.4 9.6c-1.6-.8-4.7-2.1-7.3-2.8-1.3-.4-2.6-.7-3.5-.9-.9-.2-1.5-.3-1.5-.3s.5.1 1.5.2 2.2.3 3.6.7c2.7.7 5.9 1.8 7.6 2.6.1-.1-.1.6-.4.5zm-2.5 6.8c-1-1-2.8-2.7-4.6-4-.9-.7-1.6-1.2-2.3-1.6s-1-.7-1-.7.4.2 1.1.5 1.5.9 2.4 1.4c1.9 1.2 3.8 2.8 4.8 3.9.2 0-.3.6-.4.5zm-5.5 8.7c-.3-.9-.9-2-1.5-3.2s-1.4-2.4-2.3-3.5c-.9-1.1-1.8-2-2.4-2.6-.3-.3-.7-.5-.8-.8-.2-.2-.3-.2-.3-.2s.1.1.3.2.5.3.9.7c.8.5 1.6 1.4 2.6 2.5 1 1 1.9 2.2 2.6 3.4.8 1.2 1.3 2.3 1.6 3.2.1.3-.6.6-.7.3zm-9.8-2.9c-.5-1.3-1.5-4.8-1.5-4.8s1.8 3.2 2.2 4.5c-.1.1-.7.4-.7.3zm-20.9-29.3c.9.5 2 1.4 3.1 2.5s2.3 2.3 3.2 3.5c1 1.2 1.8 2.4 2.2 3.3.2.4.4.8.5 1.1l.2.4s-.1-.1-.2-.3c-.1-.2-.3-.5-.7-1-.5-.9-1.4-2-2.4-3.2s-2.2-2.3-3.3-3.3-2.3-1.9-3.1-2.4c-.2-.2.2-.9.5-.6zm-4.3 8.8c.9-.1 2.1-.1 3.4.1 1.3.1 2.7.4 3.9.8 1.3.3 2.4.9 3.2 1.2.4.2.8.3.9.4.2.1.3.2.3.2s-.1-.1-.3-.1c-.2-.1-.5-.2-1-.4-.8-.3-2-.8-3.2-1-1.3-.3-2.6-.5-3.9-.5-1.3-.1-2.4 0-3.3 0-.2.1-.2-.6 0-.7zm-6 7.9c1.1-.5 2.6-1.2 4.3-1.6 1.8-.5 3.6-.9 5.5-1.1 1.8-.2 3.4-.2 4.6-.2.5 0 1.1 0 1.4.1h.5-1.9c-1.2 0-2.8.1-4.6.4s-3.6.8-5.3 1.3-3.2 1.2-4.2 1.8c-.4.1-.7-.6-.3-.7zm4.7 6.8c1.2-1.3 3.6-3.4 6-4.8 1.2-.8 2.3-1.3 3.1-1.6.4-.2.8-.3 1-.4s.3-.1.3-.1-.1.1-.3.2-.5.3-1 .5c-.8.4-1.9 1.1-3 1.9-2.2 1.5-4.5 3.7-5.7 5-.1 0-.6-.5-.4-.7zm3 11.4c.2-1.2.7-2.8 1.3-4.6.7-1.8 1.4-3.5 2.4-5.1.9-1.6 1.9-3.1 2.6-4 .3-.4.7-.9.9-1.2.2-.2.3-.4.3-.4s-.1.1-.3.4-.4.7-.9 1.2c-.7 1-1.5 2.4-2.4 4-.8 1.6-1.5 3.5-2.1 5.1-.5 1.8-1 3.3-1.2 4.5.1.5-.7.4-.6.1zm7-4.5c.2-1.5.9-4.2 1.8-6.3.4-1.1.9-2.1 1.2-2.7.3-.7.5-1.1.5-1.1s-.2.4-.4 1.2c-.3.8-.7 1.8-1 2.8-.7 2.2-1.2 4.8-1.4 6.3 0 .1-.8 0-.7-.2zm3.2 1c.1-1.5.4-4.2 1-6.5.5-2.2 1.2-4 1.2-4s-.5 1.9-.9 4.2c-.3 2.3-.5 4.9-.7 6.3.2.2-.6.2-.6 0zM824 96.3c1.1.5 2.6 1.3 4.2 2.4 1.6 1.1 3.2 2.4 4.5 3.7 1.3 1.3 2.4 2.7 3.2 3.7.3.5.7 1 .9 1.2.2.3.3.4.3.4s-.1-.1-.3-.4-.5-.7-.9-1.2c-.8-1-1.9-2.3-3.3-3.6-1.4-1.3-3-2.5-4.5-3.5s-3.1-1.8-4.2-2.3c-.6.1-.3-.5.1-.4zm-5.9 14.3c1-.2 2.5-.5 4-.5 1.6-.1 3.4 0 4.9.2 1.6.2 3 .7 4 1 .5.2.9.3 1.2.4s.4.2.4.2-.1 0-.4-.1-.7-.2-1.2-.3c-1-.2-2.4-.5-4-.7-1.5-.1-3.3-.1-4.8 0s-3 .4-3.9.7c-.3-.1-.6-.8-.2-.9zm-3.5 9.7c1.6-.8 4.8-2 7.6-2.6 1.4-.3 2.6-.5 3.6-.7 1-.1 1.5-.2 1.5-.2l-1.5.3c-.9.2-2.2.5-3.5.9-2.7.8-5.7 2.1-7.3 2.8-.4.3-.8-.4-.4-.5zm2.3 6.9c1-1.1 3-2.7 4.8-3.9.9-.7 1.9-1.1 2.4-1.4.7-.3 1.1-.5 1.1-.5s-.4.2-1 .7c-.7.4-1.4 1-2.3 1.6-1.8 1.3-3.6 3.1-4.6 4 0 .2-.5-.4-.4-.5zm5.2 9c.3-.9.9-2 1.6-3.2s1.6-2.4 2.6-3.4c.9-1 1.9-1.9 2.6-2.5.3-.3.7-.5.9-.7.2-.1.3-.2.3-.2s-.1.1-.3.2l-.8.8c-.7.7-1.5 1.5-2.4 2.6s-1.6 2.3-2.3 3.5-1.2 2.3-1.5 3.2c-.1.3-.8 0-.7-.3zm10-2.8c.5-1.3 2.2-4.5 2.2-4.5s-1.1 3.5-1.5 4.8c-.1 0-.7-.3-.7-.3zm3.4-35.9c.7 1.4 1.5 3.9 2.1 6.2.2 1.1.4 2.2.5 3s.2 1.2.2 1.2l-.3-1.2c-.2-.8-.4-1.8-.8-2.8-.7-2.2-1.8-4.7-2.4-6 0-.3.6-.7.7-.4z"/><path class="st1" d="M1074.9 83.5c-1.8 3-4 7.3-6.2 12.1s-4.3 10.3-5.8 15.4-2.6 10-3.3 13.5c-.1.9-.3 1.6-.4 2.4-.1.7-.2 1.3-.2 1.9-.1 1-.2 1.5-.2 1.5s.1-.5.2-1.5c.1-.5.1-1.1.2-1.9.1-.7.2-1.5.3-2.4.5-3.5 1.5-8.4 3.1-13.6 1.5-5.1 3.4-10.6 5.6-15.5s4.5-9.2 6.2-12.3c.6-.8 1.1-.5.5.4zm.8 25.7c-3 4-10.6 14.2-10.6 14.2s7.2-10.5 10.2-14.6c.2-.2.6.1.4.4zm-31.2-27.4c.9 2.3 2 5.5 3.1 9s2.1 7.4 3 11.1c.9 3.6 1.4 7 1.9 9.4.2 1.2.3 2.2.4 3 .1.7.1 1.1.1 1.1s-.1-.3-.2-1.1c-.1-.7-.3-1.6-.5-3-.4-2.4-1.1-5.8-2-9.4s-2-7.4-3.2-10.9c-1.1-3.5-2.3-6.7-3.2-8.9-.2-.8.4-1 .6-.3z"/><path class="st2" d="M954 40.7c.9.8 2.1 2.1 3.1 3.6 1.1 1.5 2 3.4 2.5 5.1.7 1.8.9 3.4 1.1 4.7.1.7.1 1.1.1 1.4v.5-.5c0-.3-.1-.9-.2-1.4-.2-1.2-.5-2.8-1.2-4.6s-1.6-3.5-2.6-4.9c-1.1-1.5-2.2-2.7-3.1-3.5-.2-.2.1-.6.3-.4zm-3.2 5.5c.8.3 1.8 1 2.6 1.8.9.8 1.8 1.9 2.4 3 .7 1.1 1 2.1 1.2 2.8.1.4.2.8.2 1s.1.3.1.3 0-.1-.1-.3c0-.2-.1-.5-.2-.9-.2-.8-.7-1.8-1.3-2.7-.7-1-1.5-2-2.4-2.7-.9-.8-1.9-1.3-2.5-1.6-.4-.4-.2-.8 0-.7zm15.6 2.2c-.8.7-2 2.2-2.6 3.6-.3.8-.7 1.4-.8 2-.1.2-.1.4-.2.7 0 .1-.1.2-.1.2v-.2c0-.1.1-.3.1-.7.1-.5.3-1.3.5-2.1.3-.8.7-1.5 1.2-2.3.4-.7 1-1.3 1.3-1.6.2-.2.7.3.6.4zm4 8.8c-.4-.2-1.2-.3-2-.3s-1.6.2-2.4.5-1.3.9-1.6 1.2c-.2.2-.3.3-.4.5-.1.1-.1.2-.1.2s0-.1.1-.2.2-.3.3-.5c.3-.4.9-1 1.6-1.4.8-.4 1.6-.8 2.4-.8.9-.1 1.6 0 2.2.2.4.2.1.8-.1.6zm-20.2-.7c1 .2 2.7 1 4 1.8 1.4.8 2.4 1.5 2.4 1.5s-1.1-.7-2.5-1.3c-1.4-.7-3.2-1.2-4.2-1.4.1-.2.2-.6.3-.6zM965.3 38c-.7 1.3-1.8 3.7-2.3 5.9-.3 1.1-.4 2.1-.5 2.8-.1.8-.1 1.2-.1 1.2s0-.4.1-1.2.2-1.9.4-3c.4-2.3 1.3-4.8 2.1-6.1-.2 0 .4.2.3.4zm-19.8 12.9c.8.2 2.2.8 3.3 1.4 1.1.6 1.9 1.3 1.9 1.3s-.9-.7-2-1.1c-1.1-.5-2.5-.9-3.3-1.1-.3-.1-.1-.5.1-.5zm131 69.3c-1.1.7-2.5 1.5-4 2.6s-3.1 2.4-4.4 3.7c-1.3 1.3-2.5 2.6-3.3 3.6-.4.4-.7.9-.9 1.2-.2.3-.3.4-.3.4s.1-.1.3-.4c.2-.3.5-.7.9-1.2.8-1 1.9-2.4 3.2-3.7 1.3-1.3 2.8-2.7 4.3-3.9 1.5-1.2 3-2.1 4-2.7.2-.4.5.2.2.4zm-4.6 6.9c-1.8 1.4-6.2 4.7-6.2 4.7s4.2-3.7 5.9-5.1c.1-.2.4.3.3.4zm-17.6-30.5c.5 2.5 1.3 6.9 1.4 10.8.1 2 .1 3.7 0 5 0 .7 0 1.2-.1 1.5v.5-2c0-1.3 0-3.1-.2-5-.2-3.8-1.1-8.3-1.6-10.7-.2-.3.3-.4.5-.1zm5 10.9c-.5 2-2.2 6.8-2.2 6.8s1.1-5 1.6-7c.1-.2.6.1.6.2zm-15.7-3.9c.9 1.5 2.3 4.4 3.3 6.9.4 1.3.9 2.5 1.1 3.4s.3 1.4.3 1.4-.1-.5-.4-1.4-.8-2.1-1.2-3.3c-1-2.5-2.5-5.3-3.5-6.8-.1 0 .3-.4.4-.2z"/><path class="st3" d="M1013 125.9c.9 2.2 2.3 6.1 3.1 9.6.4 1.8.7 3.4.9 4.5.2 1.2.2 2 .2 2s-.1-.8-.3-1.9c-.2-1.2-.5-2.7-1.1-4.5-.9-3.5-2.3-7.3-3.3-9.4-.2-.4.3-.7.5-.3zm8.2-10.7c-.7 3.1-1.6 8.5-2.2 13.2-.3 2.4-.4 4.6-.7 6.1-.1 1.6-.2 2.6-.2 2.6s0-1 .1-2.6.2-3.8.4-6.1c.4-4.7 1.3-10.3 2-13.4.2-.3.7-.2.6.2zm.9 13.3c-.8 1.8-3 5.9-3 5.9s1.8-4.5 2.5-6.1c0-.1.5.1.5.2zm-12.3 5.9c.5 1.8 1.6 6.5 1.6 6.5s-1.6-4.5-2.2-6.2c.1-.3.6-.4.6-.3zm62.3-35.6c-.9 1.6-2 4-3.2 6.7-1.2 2.6-2.3 5.5-3.3 8.2s-1.8 5.3-2.3 7.1c-.2.9-.4 1.6-.7 2.2-.1.5-.2.8-.2.8s.1-.3.2-.9c.1-.5.3-1.3.5-2.2.5-1.9 1.2-4.4 2.1-7.1s2-5.7 3.2-8.3c1.1-2.6 2.2-5 3.1-6.7.4-.5.9-.3.6.2zm-32.2-14.2c1 1.6 2.2 4 3.4 6.8 1.2 2.7 2.4 5.7 3.3 8.5 1 2.8 1.6 5.5 2.2 7.3.2 1 .4 1.8.5 2.3s.2.9.2.9-.1-.3-.2-.9c-.1-.5-.3-1.3-.5-2.3-.5-1.9-1.3-4.5-2.3-7.3-1-2.7-2.2-5.7-3.5-8.4-1.2-2.6-2.5-5-3.4-6.7-.4-.4 0-.7.3-.2z"/></svg>