<svg version="1.1" id="Layer_1" xmlns="http://www.w3.org/2000/svg" x="0" y="0" viewBox="0 0 1304.9 144" xml:space="preserve"><style>.st0{fill:#2b778c}.st1{fill:#e16a69}.st2{fill:#f6ba40}</style><path class="st0" d="M.7 89.6c57.4 6.1 116.1 5.8 173.8 4.1 133.7-4 267.6-22.3 396.6-57.9 35.2-9.7 69.8-20.8 104.2-33.2 1-.4.5-1.8-.4-1.5-136.5 49.7-280.8 76.8-425.6 87.3-79.3 5.6-159.6 7.1-239 .5-3.1-.3-6.3-.5-9.6-.9-.9-.1-.9 1.5 0 1.6z"/><path class="st1" d="m64.4 90.6-29.2-.7L63 140.5l30.6-49.1z"/><path class="st2" d="m140.7 91.2-29.2.4 29.8 49.5 28.6-50.3z"/><path class="st0" d="m218.6 88.9-29.1 1.7 32.1 48.1 26.2-51.6z"/><path class="st1" d="m299 83.3-29.1 2.8 34.1 46.8 24.1-52.5z"/><path class="st2" d="m374.7 74.2-28.9 4 35.9 45.4L403.6 70z"/><path class="st0" d="M451.7 61.7 423 67.2l38 43.6 19.4-54.4z"/><path class="st1" d="m523.7 45.4-28.2 7.3 40.7 41.1 15.9-55.7z"/><path class="st2" d="m597.2 25-27.9 8.4 42.3 39.4 13.6-56.2z"/><path class="st0" d="M674.4.8c50.2 19.9 103.2 34.4 155.5 47.4 121.5 30.1 246.8 47.3 372 47.7 34.2.1 68.2-1.1 102.3-3.8.9-.1.9-1.5 0-1.4-135.5 10.4-272.4-1.5-405.4-28.6-73-14.7-145.8-33.7-215.7-59.4-2.8-1-5.6-2-8.4-3.2-.8-.4-1.1 1-.3 1.3z"/><path class="st1" d="m731.4 17.8-26.1-8.1 12.3 52.6 40-36.4z"/><path class="st2" d="m800.1 37.5-26.4-7.1L788 82.6l38.5-38z"/><path class="st0" d="m870.9 54.9-26.8-5.7 16.9 51.4 36.5-39.9z"/><path class="st1" d="m944.8 70.2-27-4.8 18.9 50.8 35-41.3z"/><path class="st2" d="m1015.3 81-27.1-3.6 20.9 49.8 33.3-42.7z"/><path class="st0" d="m1087.8 89.3-27.2-2.4 23.2 48.9 31.2-44.2z"/><path class="st1" d="m1156.8 92.6-27.3-.6 26.4 47.3 28.3-46.1z"/><path class="st2" d="m1228.2 92.7-27.3.5 28.2 46.2 26.4-47.2z"/></svg>