<?xml version="1.0" encoding="utf-8"?>
<!-- Generator: Adobe Illustrator 26.0.3, SVG Export Plug-In . SVG Version: 6.00 Build 0)  -->
<svg version="1.1" id="Layer_1" xmlns="http://www.w3.org/2000/svg" xmlns:xlink="http://www.w3.org/1999/xlink" x="0px" y="0px"
	 viewBox="0 0 186.4 52.5" style="enable-background:new 0 0 186.4 52.5;" xml:space="preserve">
<style type="text/css">
	.st0{fill:#9458F7;}
	.st1{fill:#FFFFFF;}
	.st2{fill:#FFA732;}
	.st3{fill:url(#SVGID_1_);}
	.st4{fill:url(#SVGID_00000035506522968077549700000011841515113752370869_);}
	.st5{fill:url(#SVGID_00000155842241358213372380000002491954410174779288_);}
	.st6{fill:url(#SVGID_00000093895340462976744660000008596739149930539395_);}
	.st7{fill:url(#SVGID_00000121274753397871492370000001742970594848106158_);}
	.st8{fill:url(#SVGID_00000068674197196769638680000006393489538876554141_);}
	.st9{fill:url(#SVGID_00000102525494415374864100000002552677668290265256_);}
	.st10{fill:url(#SVGID_00000144326561036243267210000017728455773510424465_);}
	.st11{fill:url(#SVGID_00000008828287704753676660000009730983347424945850_);}
</style>
<g>
	<path class="st0" d="M181.7,20.8c-0.2-1-0.8-1.9-1.7-2.5c-0.7-0.5-1.6-0.9-2.6-0.9c-3.4-0.3-6.8-0.5-10.1-0.7c-0.1,0-0.3,0-0.4,0
		c-0.9,0-1.8,0.3-2.6,0.7c0.7-0.6,1.6-1.6,1.9-3.4c0.3-1.6-0.1-3.1-1.1-4.2c-0.9-1-2.1-1.5-3.7-1.6c-0.2,0-0.3,0-0.5,0
		c-1.3,0-2.4,0.3-3.4,1c-0.8,0.6-1.9,1.7-2.2,3.6c0,0,0,0,0,0.1c-0.2,1.5,0.1,2.9,0.9,3.9c-0.1,0-0.1,0.1-0.2,0.2
		c-0.4,0.3-0.8,0.7-1.2,1.3c-0.1-0.4-0.3-0.7-0.5-0.9c-0.6-0.8-1.7-1.8-3.7-1.9c-0.1,0-0.3,0-0.4,0c-1.2,0-2.2,0.3-3.1,1
		c-0.7,0.5-1.6,1.5-2,3.2c0,0,0,0,0,0c-0.5,2.5-1,4.9-1.5,7.3c-0.2,0.9-0.5,1.5-0.9,1.9c-0.2,0.2-0.4,0.3-0.8,0.3
		c0-0.1,0-0.3,0.1-0.4c0.5-2.6,1.1-5.3,1.6-7.9c0,0,0,0,0,0c0.4-2-0.2-3.4-0.8-4.2c-0.6-0.8-1.7-1.7-3.7-1.8c-0.1,0-0.2,0-0.3,0
		c-1.2,0-2.3,0.3-3.2,1c-0.3,0.3-0.7,0.6-1.1,1.1c-0.2-1.3-0.6-2.5-1.2-3.6c-1.1-2.1-2.7-3.8-4.8-5c-2-1.1-4.4-1.7-7-1.8
		c-0.2,0-0.3,0-0.5,0c-2.2,0-4.3,0.4-6.1,1.2c-2,0.9-3.7,2.1-5.1,3.7c-1.4,1.6-2.5,3.4-3.2,5.5c-0.7,2.1-1.1,4.3-1.1,6.7
		c0,2.8,0.5,5.2,1.6,7.3c1.1,2.1,2.8,3.8,4.9,4.9c1.8,1,3.8,1.5,6.1,1.7c0.1,0,0.2,0,0.3,0c0.5,0,0.7,0.1,0.8,0.1c0,0,0,0,0,0.1
		c0.5,1.2,1,2.4,1.5,3.6c0,0,0,0,0,0c0.5,1.1,1.2,1.9,2.1,2.5c0.8,0.5,1.6,0.7,2.5,0.7c0.1,0,0.3,0,0.4,0c0.9-0.1,1.8-0.4,2.6-0.9
		c0.9-0.6,1.5-1.6,1.8-2.6c0.3-1.1,0.2-2.3-0.4-3.5c-0.4-0.8-0.7-1.7-1.1-2.6c0-0.1-0.1-0.2-0.2-0.4c0.7-0.5,1.3-1.1,1.9-1.8
		c0.5-0.6,1-1.2,1.5-1.9c0,0.7,0.2,1.3,0.3,2c0.5,1.7,1.5,3.1,2.9,4.1c1.3,0.8,2.8,1.3,4.5,1.4c0.2,0,0.3,0,0.5,0
		c1.4,0,2.7-0.3,4-0.8c0.6,0.5,1.6,1,2.9,1.1c0.1,0,0.2,0,0.3,0c1.8,0,3.4-0.8,4.3-2.3c0.1,0.2,0.2,0.4,0.3,0.6
		c0.8,1.3,2.1,2,3.7,2.1c0.1,0,0.3,0,0.4,0c1.3,0,2.4-0.4,3.2-1.1c0.3-0.2,0.5-0.5,0.8-0.8c0.3,0.4,0.6,0.8,1,1.1
		c0.7,0.5,1.6,0.9,2.7,0.9c3.4,0.2,6.9,0.5,10.3,0.7c0.2,0,0.3,0,0.4,0c1.2,0,2.2-0.4,3-1.1c1-0.8,1.5-2,1.6-3.4
		c0.1-1.5-0.4-2.5-0.9-3.1c-0.8-0.9-1.9-1.4-3.3-1.6c-0.2,0-0.4,0-0.5,0c1.8-1.7,3.7-3.4,5.5-5.1c0.7-0.7,1.3-1.4,1.6-2.2
		C181.8,22.7,181.9,21.7,181.7,20.8z M124.6,20.4c-0.1,1.7-0.4,3.1-0.9,4.4c-0.5,1.1-1.1,1.9-1.9,2.5c-0.7,0.5-1.5,0.7-2.5,0.7
		c-0.1,0-0.1,0-0.2,0c-1.5,0-2.1-0.5-2.5-0.9c-0.7-0.7-0.8-2.2-0.8-3.3c0-1.7,0.3-3.2,0.8-4.4c0.5-1.1,1.1-1.9,1.8-2.5
		c0.7-0.5,1.5-0.7,2.6-0.7c0.1,0,0.1,0,0.2,0c1.8,0.1,2.4,0.7,2.6,0.9C124.5,17.9,124.6,19.3,124.6,20.4z M163.8,17.7
		c-0.1,0.1-0.3,0.2-0.4,0.4c0,0,0,0,0-0.1c0,0,0,0,0,0C163.5,17.8,163.7,17.8,163.8,17.7z M162.2,29.8c0.4-1.8,0.8-3.6,1.2-5.4
		c0,0,0,0,0,0c0.8,0.7,1.8,1.1,3,1.2c0,0,0.1,0,0.1,0C165.1,27.1,163.7,28.5,162.2,29.8z"/>
	<path class="st1" d="M128.2,9.5c-1.8-1-3.9-1.5-6.3-1.6c-0.2,0-0.3,0-0.5,0c-2,0-3.9,0.4-5.5,1.1c-1.8,0.8-3.3,1.9-4.6,3.3
		c-1.3,1.4-2.2,3.1-2.9,5c-0.7,1.9-1,4-1.1,6.2c0,2.5,0.4,4.7,1.4,6.5c1,1.8,2.4,3.3,4.2,4.3c1.6,0.9,3.5,1.4,5.6,1.5
		c0.1,0,0.1,0,0.2,0c1,0,1.5,0.2,1.7,0.3c0.3,0.2,0.5,0.5,0.7,0.9c0.5,1.2,1,2.4,1.5,3.6c0,0,0,0,0,0c0.3,0.8,0.8,1.4,1.4,1.7
		c0.5,0.3,1.1,0.5,1.7,0.5c0.1,0,0.2,0,0.3,0c0.6,0,1.2-0.3,1.7-0.6c0.6-0.4,1-1,1.1-1.7c0.2-0.7,0.1-1.5-0.3-2.3
		c-0.4-0.9-0.7-1.7-1.1-2.6c-0.3-0.6-0.6-1.1-0.9-1.6c1.1-0.7,2.1-1.5,3-2.5c1.3-1.4,2.3-3,3-4.9c0.7-1.9,1.1-4,1.2-6.2
		c0.1-2.5-0.4-4.7-1.3-6.5C131.4,12,130,10.5,128.2,9.5z M126.6,20.2c-0.1,1.9-0.4,3.6-1,5.1c-0.6,1.4-1.4,2.5-2.5,3.2
		c-1,0.7-2.2,1.1-3.6,1.1c-0.1,0-0.1,0-0.2,0c-1.6,0-2.8-0.5-3.7-1.5c-0.9-0.9-1.3-2.5-1.3-4.5c0-1.9,0.4-3.7,1-5.1
		c0.6-1.4,1.4-2.5,2.5-3.2c1-0.7,2.2-1.1,3.6-1.1c0.1,0,0.2,0,0.2,0c1.7,0,2.9,0.5,3.8,1.5C126.3,16.7,126.7,18.2,126.6,20.2z"/>
	<path class="st1" d="M153.7,18.1c-0.4-0.5-1.1-1.2-2.5-1.2c-0.1,0-0.2,0-0.3,0c-0.8,0-1.6,0.2-2.1,0.6c-0.6,0.5-1.1,1.2-1.3,2.2
		c-0.5,2.5-1,4.9-1.5,7.4c-0.3,1.2-0.7,2.2-1.4,2.9c-0.6,0.6-1.3,0.8-2.2,0.8c-0.1,0-0.1,0-0.2,0c-0.6,0-1-0.2-1.1-0.4
		c-0.1-0.2-0.3-0.8-0.1-2.1c0.5-2.7,1.1-5.4,1.6-8.1c0.2-1.1,0.1-2.1-0.5-2.8c-0.4-0.5-1.1-1.1-2.5-1.1c-0.1,0-0.2,0-0.2,0
		c-0.9,0-1.6,0.2-2.2,0.7c-0.6,0.5-1.1,1.2-1.3,2.2c-0.6,2.8-1.1,5.7-1.7,8.5c-0.4,1.8-0.4,3.4,0,4.7c0.4,1.4,1.2,2.4,2.2,3.1
		c1,0.7,2.2,1,3.7,1.1c0.1,0,0.3,0,0.4,0c1.4,0,2.7-0.3,3.9-1c0.2-0.1,0.3-0.2,0.5-0.3c0.1,0.2,0.2,0.3,0.3,0.5
		c0.5,0.7,1.3,1,2.3,1.1c0.1,0,0.2,0,0.3,0c1.8,0,3-1.1,3.4-2.9c0.9-4.4,1.8-8.8,2.8-13.2C154.3,19.7,154.2,18.8,153.7,18.1z"/>
	<path class="st1" d="M163,21.5c0.2-1.1,0.1-2.1-0.3-2.8c-0.3-0.5-1-1.2-2.4-1.3c-0.1,0-0.2,0-0.3,0c-0.9,0-1.6,0.2-2.2,0.7
		c-0.7,0.5-1.1,1.3-1.4,2.3c-0.9,4.3-1.9,8.7-2.8,12.9c-0.2,1.1-0.1,2,0.3,2.8c0.4,0.6,1,1.3,2.4,1.3c0.1,0,0.2,0,0.3,0
		c0.9,0,1.6-0.2,2.2-0.7c0.6-0.5,1.1-1.3,1.3-2.3C161.1,30.1,162.1,25.7,163,21.5z"/>
	<path class="st1" d="M160.9,16.5c0.1,0,0.3,0,0.4,0c1,0,1.8-0.2,2.5-0.7c0.8-0.6,1.3-1.4,1.5-2.5c0.3-1.4-0.2-2.2-0.6-2.7
		c-0.6-0.6-1.4-1-2.6-1.1c-0.1,0-0.3,0-0.4,0c-1,0-1.8,0.2-2.5,0.7c-0.8,0.6-1.3,1.4-1.5,2.5v0c-0.2,1.3,0.3,2.2,0.7,2.7
		C159,16.1,159.8,16.5,160.9,16.5z"/>
	<path class="st1" d="M180.9,21c-0.1-0.6-0.5-1.1-1-1.5c-0.5-0.4-1.1-0.6-1.8-0.6c-3.4-0.3-6.8-0.5-10.2-0.7c-0.1,0-0.2,0-0.3,0
		c-0.8,0-1.4,0.2-2,0.7c-0.5,0.4-1,1.1-1.1,2.2c-0.1,0.8,0.2,1.5,0.8,2c0.5,0.5,1.2,0.7,2,0.8c1.4,0.1,2.8,0.2,4.1,0.3
		c-2.9,2.7-5.7,5.4-8.6,8c-0.5,0.5-0.9,1-1.1,1.6c-0.2,0.6-0.2,1.2-0.1,1.8c0.2,0.6,0.5,1.1,1,1.5c0.5,0.4,1.1,0.6,1.8,0.6
		c3.5,0.2,7,0.5,10.4,0.7c0.1,0,0.2,0,0.3,0c0.8,0,1.5-0.2,2-0.7c0.6-0.5,1-1.3,1-2.2c0.1-0.9-0.3-1.5-0.5-1.8
		c-0.5-0.6-1.2-0.9-2.2-1c-1.5-0.1-3-0.2-4.5-0.3c2.8-2.6,5.7-5.3,8.5-7.9c0.5-0.5,0.9-1,1.2-1.6C181,22.2,181.1,21.6,180.9,21z"/>
	<path class="st2" d="M127.7,9.9c-1.6-0.9-3.6-1.4-5.8-1.4c-2-0.1-3.9,0.3-5.5,1c-1.6,0.7-3,1.7-4.2,3c-1.2,1.3-2.1,2.8-2.7,4.6
		c-0.6,1.8-1,3.7-1,5.8c0,2.3,0.4,4.3,1.3,5.9c0.9,1.6,2.1,2.9,3.7,3.8c1.5,0.8,3.3,1.3,5.3,1.4c0,0-0.1,0-0.1,0
		c1,0,1.7,0.2,2.3,0.5c0.5,0.3,0.9,0.8,1.2,1.5c0.5,1.2,1,2.4,1.5,3.6c0.2,0.5,0.6,0.9,1,1.2c0.4,0.2,0.8,0.3,1.2,0.3
		c0.4,0,0.8-0.2,1.2-0.4c0.3-0.3,0.6-0.6,0.7-1c0.1-0.4,0-0.9-0.2-1.5c-0.4-0.9-0.7-1.7-1.1-2.6c-0.4-1-0.9-1.7-1.6-2.1
		c-0.1-0.1-0.3-0.2-0.5-0.2c0.1,0,0.2-0.1,0.3-0.1c1.6-0.7,3-1.7,4.1-2.9c1.2-1.3,2.1-2.8,2.7-4.6c0.7-1.8,1-3.7,1.1-5.9
		c0.1-2.3-0.3-4.3-1.2-5.9C130.5,12.1,129.3,10.8,127.7,9.9z M127.8,19.6c-0.1,2.1-0.4,3.9-1.1,5.5c-0.7,1.6-1.6,2.9-2.9,3.7
		c-1.2,0.9-2.7,1.3-4.5,1.3c-1.9,0-3.4-0.7-4.6-1.8c-1.1-1.2-1.6-3-1.6-5.4c0-2.1,0.4-3.9,1.1-5.5c0.7-1.6,1.6-2.8,2.9-3.7
		c1.2-0.9,2.7-1.3,4.5-1.3c2,0,3.5,0.7,4.6,1.9C127.4,15.4,127.9,17.2,127.8,19.6z"/>
	<path class="st2" d="M151.1,17.4c-0.7,0-1.2,0.1-1.6,0.4c-0.4,0.3-0.7,0.8-0.9,1.5c-0.5,2.5-1,4.9-1.5,7.4
		c-0.3,1.5-0.9,2.6-1.7,3.5c-0.9,0.8-1.9,1.2-3.2,1.2c-1,0-1.7-0.4-2.1-1c-0.4-0.6-0.4-1.6-0.2-2.9c0.5-2.7,1.1-5.4,1.6-8
		c0.2-0.8,0.1-1.4-0.3-1.8c-0.3-0.4-0.8-0.7-1.6-0.7c-0.7,0-1.2,0.1-1.6,0.4c-0.4,0.3-0.7,0.8-0.8,1.5c-0.6,2.8-1.1,5.7-1.7,8.5
		c-0.3,1.7-0.3,3,0,4.1c0.3,1.1,0.9,1.9,1.7,2.5c0.8,0.5,1.9,0.8,3.1,0.9c1.4,0.1,2.6-0.2,3.7-0.8c0.8-0.5,1.6-1.1,2.1-1.9
		c0,0.2-0.1,0.5-0.1,0.7c-0.1,0.8,0,1.4,0.3,1.7c0.3,0.4,0.8,0.6,1.5,0.6c1.4,0.1,2.2-0.6,2.5-2c0.9-4.4,1.8-8.8,2.8-13.1
		c0.2-0.8,0.1-1.4-0.2-1.8C152.4,17.7,151.9,17.4,151.1,17.4z"/>
	<path class="st2" d="M160.2,17.9c-0.7,0-1.3,0.1-1.8,0.4c-0.4,0.3-0.7,0.9-0.9,1.6c-0.9,4.3-1.9,8.6-2.8,12.9
		c-0.2,0.8-0.1,1.4,0.2,1.9c0.3,0.5,0.8,0.7,1.4,0.8c0.7,0,1.3-0.1,1.8-0.4c0.4-0.3,0.7-0.9,0.9-1.6c0.9-4.3,1.9-8.6,2.8-12.9
		c0.2-0.8,0.1-1.5-0.2-1.9C161.4,18.2,160.9,17.9,160.2,17.9z"/>
	<path class="st2" d="M161,14.7c0.9,0,1.6-0.1,2.2-0.5c0.5-0.4,0.9-1,1-1.8c0.1-0.7,0-1.3-0.4-1.7c-0.4-0.4-1-0.6-1.8-0.7
		c-0.9-0.1-1.6,0.1-2.1,0.5c-0.5,0.4-0.9,1-1,1.8c-0.1,0.7,0,1.3,0.4,1.7C159.6,14.4,160.2,14.6,161,14.7z"/>
	<path class="st2" d="M179.8,20.7c-0.1-0.3-0.3-0.6-0.6-0.8c-0.3-0.2-0.7-0.4-1.2-0.4c-3.4-0.3-6.8-0.5-10.2-0.7
		c-0.6,0-1.1,0.1-1.5,0.4c-0.4,0.3-0.6,0.8-0.6,1.4c0,0.4,0.1,0.8,0.4,1c0.3,0.3,0.7,0.4,1.3,0.5c2.3,0.2,4.6,0.3,6.9,0.5
		c-3.6,3.3-7.1,6.6-10.6,9.9c-0.4,0.4-0.6,0.7-0.7,1.1c-0.1,0.4-0.2,0.7-0.1,1.1c0.1,0.3,0.3,0.6,0.6,0.8c0.3,0.2,0.7,0.4,1.2,0.4
		c3.5,0.2,7,0.5,10.4,0.8c0.6,0,1.1-0.1,1.5-0.4s0.6-0.8,0.6-1.4c0.1-0.9-0.5-1.4-1.6-1.5c-2.4-0.2-4.8-0.4-7.2-0.5
		c3.5-3.3,7-6.5,10.5-9.8c0.4-0.4,0.7-0.8,0.8-1.2C179.9,21.4,179.9,21,179.8,20.7z"/>
	
		<linearGradient id="SVGID_1_" gradientUnits="userSpaceOnUse" x1="-404.92" y1="-158.1194" x2="-404.92" y2="-190.3674" gradientTransform="matrix(1 0 0 -1 526 -150.0842)">
		<stop  offset="0" style="stop-color:#FF6700"/>
		<stop  offset="1" style="stop-color:#FFA732"/>
	</linearGradient>
	<path class="st3" d="M126.3,40.3c-0.4,0-0.7-0.1-1-0.3c-0.4-0.2-0.7-0.6-0.9-1.1c-0.5-1.2-1-2.4-1.5-3.6c-0.3-0.7-0.7-1.2-1.3-1.5
		c-0.6-0.3-1.3-0.5-2.3-0.5c0,0,0,0,0,0c-2-0.1-3.8-0.6-5.3-1.4c-1.6-0.9-2.9-2.1-3.7-3.7c-0.9-1.6-1.3-3.6-1.3-5.8
		c0-2.1,0.4-4,1-5.8c0.6-1.7,1.5-3.3,2.7-4.6c1.2-1.3,2.6-2.3,4.2-2.9c1.5-0.6,3.2-1,5.1-1c0.1,0,0.3,0,0.4,0
		c2.3,0.1,4.2,0.5,5.9,1.4c1.6,0.9,2.9,2.1,3.7,3.8c0.9,1.6,1.2,3.6,1.2,5.9c-0.1,2.1-0.5,4.1-1.1,5.8c-0.7,1.7-1.6,3.3-2.7,4.5
		c-1.2,1.3-2.6,2.2-4.2,2.9c-0.1,0-0.1,0.1-0.2,0.1c-0.1,0-0.1,0.1-0.1,0.1c0,0.1,0,0.1,0.1,0.2c0.2,0.1,0.3,0.1,0.4,0.2
		c0.6,0.4,1.1,1,1.6,2c0.4,0.9,0.7,1.7,1.1,2.6c0.3,0.5,0.3,1,0.2,1.4c-0.1,0.4-0.3,0.7-0.6,0.9c-0.3,0.2-0.7,0.4-1.1,0.4
		C126.4,40.3,126.4,40.3,126.3,40.3z M121.9,11.6c-1.7,0-3.2,0.4-4.4,1.3c-1.3,0.9-2.3,2.2-3,3.8c-0.7,1.6-1,3.5-1.1,5.6
		c0,2.4,0.5,4.3,1.7,5.5c1.1,1.2,2.7,1.8,4.8,1.9c0.1,0,0.2,0,0.3,0c1.7,0,3.2-0.4,4.4-1.3c1.3-0.9,2.3-2.2,3-3.8
		c0.7-1.6,1.1-3.5,1.2-5.6c0.1-2.4-0.5-4.3-1.6-5.5c-1.2-1.2-2.8-1.9-4.8-1.9C122.1,11.6,122,11.6,121.9,11.6z"/>
	
		<linearGradient id="SVGID_00000180337840375739480970000006697866858856244879_" gradientUnits="userSpaceOnUse" x1="-380.8639" y1="-166.4209" x2="-380.8639" y2="-184.3349" gradientTransform="matrix(1 0 0 -1 526 -150.0842)">
		<stop  offset="0" style="stop-color:#FF6700"/>
		<stop  offset="1" style="stop-color:#FFA732"/>
	</linearGradient>
	<path style="fill:url(#SVGID_00000180337840375739480970000006697866858856244879_);" d="M149,34.3c-0.1,0-0.1,0-0.2,0
		c-0.6,0-1.1-0.2-1.4-0.6c-0.3-0.4-0.4-0.9-0.2-1.6l0.1-0.7c0-0.1,0-0.1-0.1-0.2c0,0,0,0-0.1,0c-0.1,0-0.1,0-0.1,0.1
		c-0.6,0.8-1.3,1.4-2.1,1.9c-1,0.5-2.1,0.8-3.4,0.8c-0.1,0-0.3,0-0.4,0c-1.2-0.1-2.2-0.4-3-0.9c-0.8-0.5-1.4-1.3-1.7-2.4
		c-0.3-1.1-0.3-2.4,0-4.1c0.6-2.8,1.2-5.7,1.7-8.5c0.1-0.7,0.4-1.1,0.8-1.4c0.4-0.3,0.8-0.4,1.4-0.4c0.1,0,0.1,0,0.2,0
		c0.7,0,1.2,0.2,1.5,0.6c0.3,0.4,0.4,1,0.2,1.7c-0.6,2.7-1.1,5.4-1.6,8c-0.3,1.3-0.2,2.3,0.2,3c0.4,0.7,1.2,1.1,2.3,1.1
		c0.1,0,0.2,0,0.3,0c1.2,0,2.3-0.4,3.1-1.2c0.9-0.8,1.5-2,1.8-3.6c0.5-2.5,1-4.9,1.6-7.4c0.1-0.6,0.4-1.1,0.8-1.4
		c0.4-0.3,0.8-0.4,1.4-0.4c0.1,0,0.1,0,0.2,0c0.7,0,1.2,0.3,1.5,0.7c0.3,0.4,0.4,1,0.2,1.7c-0.9,4.3-1.9,8.8-2.8,13.1
		C150.9,33.7,150.2,34.3,149,34.3z"/>
	
		<linearGradient id="SVGID_00000002371619278758894710000006747072411877306515_" gradientUnits="userSpaceOnUse" x1="-365.1869" y1="-159.699" x2="-365.1869" y2="-184.8293" gradientTransform="matrix(1 0 0 -1 526 -150.0842)">
		<stop  offset="0" style="stop-color:#FF6700"/>
		<stop  offset="1" style="stop-color:#FFA732"/>
	</linearGradient>
	<path style="fill:url(#SVGID_00000002371619278758894710000006747072411877306515_);" d="M158,34.7c-0.1,0-0.2,0-0.2,0
		c-0.6,0-1.1-0.3-1.3-0.7c-0.3-0.4-0.3-1-0.2-1.8c0.9-4.3,1.9-8.6,2.9-12.9c0.2-0.7,0.5-1.2,0.9-1.5c0.4-0.3,0.9-0.4,1.5-0.4
		c0.1,0,0.2,0,0.3,0c0.6,0,1.1,0.3,1.4,0.7s0.3,1,0.2,1.8c-1,4.3-1.9,8.6-2.9,12.9c-0.2,0.7-0.4,1.2-0.8,1.5
		C159,34.6,158.5,34.7,158,34.7z M162.7,13.9c-0.1,0-0.2,0-0.3,0c-0.8,0-1.3-0.3-1.7-0.6c-0.3-0.4-0.5-0.9-0.4-1.5
		c0.1-0.7,0.5-1.3,1-1.6c0.5-0.3,1-0.5,1.8-0.5c0.1,0,0.2,0,0.3,0c0.8,0,1.4,0.3,1.7,0.6c0.4,0.4,0.5,0.9,0.3,1.5
		c-0.1,0.7-0.5,1.3-1,1.7C164,13.8,163.4,13.9,162.7,13.9z"/>
	
		<linearGradient id="SVGID_00000008143335358289053580000004840748885238575001_" gradientUnits="userSpaceOnUse" x1="-353.0406" y1="-168.2823" x2="-353.0406" y2="-185.8157" gradientTransform="matrix(1 0 0 -1 526 -150.0842)">
		<stop  offset="0" style="stop-color:#FF6700"/>
		<stop  offset="1" style="stop-color:#FFA732"/>
	</linearGradient>
	<path style="fill:url(#SVGID_00000008143335358289053580000004840748885238575001_);" d="M177,35.7c-0.1,0-0.1,0-0.2,0
		c-3.5-0.3-7.1-0.5-10.6-0.7c-0.5,0-0.8-0.1-1.1-0.4c-0.3-0.2-0.4-0.5-0.5-0.7c-0.1-0.3-0.1-0.6,0-1c0.1-0.4,0.4-0.7,0.7-1
		c3.6-3.3,7.2-6.6,10.8-9.9c0,0,0.1-0.1,0-0.2c0-0.1-0.1-0.1-0.1-0.1c-2.3-0.2-4.7-0.3-7-0.5c-0.5,0-0.9-0.2-1.2-0.4
		c-0.3-0.2-0.4-0.5-0.4-0.9c0-0.6,0.2-1,0.6-1.3c0.3-0.3,0.7-0.4,1.2-0.4c0.1,0,0.1,0,0.2,0c3.5,0.2,7,0.5,10.4,0.7
		c0.5,0,0.9,0.2,1.1,0.4c0.3,0.2,0.5,0.5,0.5,0.7c0.1,0.3,0,0.6-0.1,1c-0.2,0.4-0.4,0.7-0.8,1.1c-3.6,3.2-7.2,6.5-10.8,9.8
		c0,0-0.1,0.1,0,0.2c0,0.1,0.1,0.1,0.1,0.1c2.5,0.2,4.9,0.4,7.4,0.5c0.6,0,1.1,0.2,1.3,0.5c0.2,0.2,0.3,0.5,0.2,0.8
		c0,0.5-0.2,1-0.6,1.3C177.9,35.6,177.5,35.7,177,35.7z"/>
	<path class="st0" d="M97.5,15.3c-0.6-0.7-1.6-1.5-3.5-1.5c-1,0-1.9,0.2-2.7,0.7c-0.6,0.3-1.1,0.8-1.8,1.4c-0.3,0.3-0.6,0.5-0.9,0.8
		c0.2-1.5,0.5-3,0.7-4.4c0,0,0,0,0,0c0.2-1.6-0.1-2.9-0.8-4c-0.9-1.2-2.2-1.9-3.8-1.9h0c-1.4,0-2.6,0.4-3.5,1.2
		C80.5,8,79.7,9,79.4,10.9c-0.2,1.6-0.5,3.1-0.7,4.7c-0.2-0.1-0.3-0.2-0.5-0.3c0,0,0,0-0.1,0c-0.8-0.4-1.8-0.7-2.8-1
		c-1-0.2-1.9-0.3-2.9-0.3c-0.1,0-0.2,0-0.3,0c-2.1,0-3.9,0.5-5.5,1.2c-1.6,0.7-2.8,1.8-3.9,3c-0.1-0.8-0.4-1.5-0.9-2.1c0,0,0,0,0,0
		c0.2-0.1,0.4-0.3,0.6-0.5c0.7-0.6,1.7-1.8,1.8-3.8c0.2-1.6-0.4-3.1-1.5-4.1c-0.9-0.8-2.1-1.3-3.6-1.3c-0.1,0-0.2,0-0.2,0
		c-1.5,0-2.8,0.5-3.8,1.3c-0.8,0.6-1.7,1.8-1.9,3.8c0,0,0,0,0,0.1c-0.1,1.5,0.4,2.9,1.3,3.8c-0.1,0.1-0.1,0.1-0.2,0.2
		c-0.4,0.3-0.7,0.8-1.1,1.4c-0.2-0.4-0.4-0.6-0.6-0.9c-0.6-0.7-1.7-1.6-3.7-1.6c-0.1,0-0.2,0-0.3,0c-1.3,0.1-2.5,0.5-3.4,1.3
		c-0.6,0.6-1.4,1.6-1.7,3.4c0,0,0,0,0,0c-0.3,2.5-0.6,5-0.8,7.5c-0.1,0.9-0.3,1.6-0.7,2c-0.2,0.2-0.3,0.3-0.7,0.4c0-0.1,0-0.3,0-0.4
		c0.3-2.7,0.6-5.4,0.9-8.1c0,0,0,0,0,0c0.2-2.1-0.5-3.4-1.2-4.1c-0.6-0.7-1.7-1.5-3.5-1.5c-0.1,0-0.2,0-0.3,0
		c-1.3,0.1-2.5,0.5-3.3,1.3c-0.3,0.3-0.7,0.7-1,1.3c-0.4-1.3-0.9-2.4-1.5-3.5c-1.3-2-3.1-3.6-5.3-4.5c-1.7-0.8-3.7-1.2-5.9-1.2
		c-0.4,0-0.9,0-1.3,0c-2.4,0.2-4.6,0.8-6.5,1.8c-1.9,1-3.5,2.4-4.8,4.2c-1.2,1.7-2.2,3.6-2.7,5.8c-0.5,2.1-0.7,4.4-0.5,6.8
		c0.2,2.8,1,5.2,2.3,7.1c1.3,2,3.1,3.5,5.3,4.5C14,39.6,15.9,40,18,40c0.2,0,0.3,0,0.5,0c0,0,0.1,0,0.1,0c0.1,0,0.1,0,0.2,0
		c0.1,0,0.3,0,0.4,0c0.2,0,0.4,0,0.5,0c0,0,0,0.1,0,0.1c0.6,1.1,1.2,2.3,1.8,3.4c0,0,0,0,0,0c0.6,1.1,1.4,1.8,2.3,2.3
		c0.7,0.3,1.4,0.5,2.1,0.5c0.3,0,0.5,0,0.8-0.1c0.9-0.2,1.8-0.6,2.5-1.2c0.8-0.7,1.4-1.7,1.5-2.8c0.2-1.1,0-2.3-0.7-3.4
		c-0.4-0.8-0.9-1.6-1.3-2.4c-0.1-0.1-0.1-0.2-0.2-0.3c0.6-0.6,1.2-1.3,1.8-2c0.5-0.6,0.9-1.3,1.3-2.1c0.1,0.7,0.3,1.4,0.5,1.9
		c0.7,1.7,1.8,3,3.3,3.8c1.2,0.6,2.5,0.9,4,0.9c0.2,0,0.4,0,0.5,0c1.6-0.1,3.1-0.5,4.4-1.2c0.6,0.5,1.5,0.8,2.7,0.8
		c0.1,0,0.2,0,0.3,0c2-0.1,3.6-1.1,4.4-2.7c0.1,0.2,0.2,0.4,0.4,0.5c0.8,1.2,2.1,1.8,3.7,1.8c0.1,0,0.1,0,0.2,0
		c1.4,0,2.6-0.5,3.5-1.4c0.9-0.8,1.4-2,1.6-3.4c0-0.2,0.1-0.4,0.1-0.6c0,0,0,0,0,0c0.9,1.7,2.2,3,3.9,3.9c1.5,0.8,3.4,1.2,5.5,1.2
		c0.1,0,0.2,0,0.4,0c1,0,2-0.2,3.1-0.5c1.2-0.3,2.2-0.7,3.1-1.3c0.1,0,0.1-0.1,0.2-0.1c0.8,1,2.1,1.6,3.6,1.6l0.1,0
		c2.7,0,4.7-1.6,5.2-4.3c0.4,0.5,0.8,1,1.2,1.5c0,0,0,0,0,0c0.6,0.7,1.1,1.3,1.6,1.6c0.8,0.7,1.9,1,3.2,1c1.6,0,2.7-0.7,3.3-1.3
		c0.8-0.8,1.3-1.9,1.4-3.1c0.1-0.8-0.1-2.1-1.1-3.5c-1-1.3-2-2.5-3-3.8c1.3-1.3,2.7-2.5,4-3.8c1.2-1.1,1.6-2.3,1.6-3.1
		C98.6,17.5,98.2,16.3,97.5,15.3z M22.9,26.6c-0.4,1.1-0.9,2-1.6,2.6c-0.7,0.6-1.5,0.9-2.6,1c-0.2,0-0.3,0-0.4,0
		c-1.2,0-1.8-0.4-2.1-0.7c-0.8-0.7-1-2.1-1.1-3.2c-0.1-1.7,0-3.2,0.4-4.5c0.4-1.1,0.9-2,1.6-2.6c0.7-0.6,1.6-0.9,2.7-1
		c0.2,0,0.3,0,0.5,0c1,0,1.7,0.2,2.2,0.7c0.7,0.7,1,2.1,1,3.1C23.5,23.8,23.4,25.3,22.9,26.6z M75.2,27.3c-0.7,0-1.4,0.2-2,0.5
		c0,0-0.1,0-0.1,0c-0.4,0.2-0.7,0.3-0.9,0.4c-0.3,0.1-0.5,0.1-0.8,0.1c0,0-0.1,0-0.1,0c-0.7,0-0.9-0.1-1-0.2
		c-0.2-0.3-0.3-0.7-0.4-1.3c0-0.5,0-1.1,0.2-1.6c0.1-0.5,0.3-0.8,0.5-1.2c0.2-0.2,0.4-0.4,0.6-0.6c0.3-0.2,0.7-0.2,1.2-0.3
		c0,0,0.1,0,0.1,0c0.3,0,0.6,0,0.9,0.1c0.3,0.1,0.6,0.2,0.9,0.4c0.7,0.4,1.4,0.5,2.1,0.5c0.3,0,0.6,0,0.9-0.1
		c-0.2,1.2-0.4,2.4-0.5,3.6c-0.3-0.1-0.6-0.2-0.9-0.3C75.7,27.3,75.4,27.3,75.2,27.3z"/>
	<path class="st1" d="M29.6,15c-1.1-1.8-2.7-3.1-4.6-3.9c-1.6-0.7-3.3-1-5.3-1c-0.4,0-0.8,0-1.2,0c-2.2,0.2-4.2,0.7-5.9,1.6
		c-1.7,0.9-3.1,2.2-4.3,3.7c-1.1,1.5-1.9,3.3-2.5,5.3c-0.5,1.9-0.6,4.1-0.5,6.3c0.2,2.5,0.9,4.6,2,6.4c1.1,1.7,2.7,3,4.6,3.9
		c1.5,0.6,3.2,1,5.1,1c0.2,0,0.4,0,0.5,0c0,0,0.1,0,0.1,0s0.1,0,0.1,0c0.2,0,0.4,0,0.5,0c0.6,0,1,0.1,1.2,0.2
		c0.3,0.1,0.6,0.4,0.8,0.8c0.6,1.2,1.2,2.3,1.8,3.5c0,0,0,0,0,0c0.4,0.7,0.9,1.3,1.6,1.6c0.5,0.2,0.9,0.3,1.4,0.3
		c0.2,0,0.4,0,0.5-0.1c0.6-0.1,1.2-0.4,1.7-0.8c0.5-0.5,0.9-1.1,1-1.8c0.1-0.7,0-1.5-0.5-2.3c-0.4-0.8-0.9-1.6-1.3-2.5
		c-0.3-0.6-0.7-1.1-1.1-1.5c1.1-0.8,2-1.7,2.8-2.7c1.1-1.5,2-3.3,2.5-5.2c0.5-1.9,0.7-4.1,0.6-6.3C31.3,18.8,30.7,16.7,29.6,15z
		 M23.9,27c-0.5,1.4-1.2,2.6-2.2,3.5c-1,0.8-2.2,1.3-3.7,1.4c-0.2,0-0.4,0-0.5,0c-1.4,0-2.4-0.4-3.3-1.1c-1-0.9-1.5-2.3-1.7-4.4
		c-0.1-1.9,0-3.7,0.5-5.2c0.5-1.5,1.2-2.6,2.2-3.4c1-0.8,2.2-1.3,3.7-1.4c0.2,0,0.4,0,0.6,0c1.4,0,2.5,0.4,3.4,1.1
		c1,0.9,1.5,2.3,1.6,4.4C24.5,23.8,24.3,25.5,23.9,27z"/>
	<path class="st1" d="M48.8,16.2c-0.1,0-0.1,0-0.2,0c-0.9,0-1.7,0.3-2.3,0.9c-0.6,0.5-1,1.3-1.1,2.3c-0.3,2.5-0.6,5-0.8,7.5
		c-0.1,1.3-0.5,2.3-1.1,3c-0.6,0.6-1.3,1-2.3,1c-0.1,0-0.1,0-0.2,0c-0.8,0-0.9-0.3-1-0.3c-0.1-0.2-0.4-0.8-0.2-2.1
		c0.3-2.7,0.6-5.4,0.9-8.2c0.1-1.2-0.1-2.1-0.7-2.7c-0.4-0.4-1.1-0.9-2.3-0.9c-0.1,0-0.2,0-0.2,0c-1,0-1.7,0.3-2.3,0.9
		c-0.6,0.5-1,1.3-1.1,2.4c-0.3,2.9-0.6,5.7-0.9,8.6c-0.2,1.9,0,3.4,0.5,4.7c0.5,1.3,1.4,2.3,2.5,2.9c0.9,0.5,2,0.8,3.3,0.8
		c0.2,0,0.3,0,0.5,0c1.6-0.1,3-0.5,4.3-1.4c0.2-0.1,0.3-0.2,0.5-0.4c0.1,0.2,0.2,0.3,0.3,0.5c0.5,0.6,1.3,0.9,2.2,0.9
		c0.1,0,0.1,0,0.2,0c1.9-0.1,3.2-1.3,3.4-3.2c0.5-4.4,1-8.9,1.6-13.3c0.1-1.1-0.1-2.1-0.7-2.7C50.8,16.7,50.1,16.2,48.8,16.2z"/>
	<path class="st1" d="M57.8,15.8c-0.1,0-0.1,0-0.1,0c-1,0-1.8,0.3-2.5,0.9c-0.6,0.6-1,1.4-1.1,2.4c-0.5,4.3-1.1,8.8-1.6,13.1
		c-0.1,1.1,0.1,2,0.6,2.7c0.4,0.5,1.1,1.1,2.3,1.1c0,0,0.1,0,0.1,0c1,0,1.9-0.4,2.5-0.9c0.6-0.6,1-1.4,1.1-2.4
		c0.5-4.3,1.1-8.7,1.7-13.1v0c0.1-1.1-0.1-2.1-0.6-2.8C59.8,16.4,59.1,15.8,57.8,15.8z"/>
	<path class="st1" d="M62.3,11.4c0.2-1.4-0.4-2.2-0.9-2.6C60.8,8.2,60,7.9,59,7.9c-0.1,0-0.1,0-0.2,0c-1.1,0-2.1,0.4-2.8,1
		c-0.8,0.6-1.2,1.5-1.3,2.7c0,0,0,0,0,0c-0.1,1.4,0.5,2.1,0.9,2.6c0.6,0.5,1.4,0.8,2.4,0.8c0.1,0,0.1,0,0.2,0c1.2,0,2.1-0.4,2.8-1
		C61.8,13.4,62.2,12.5,62.3,11.4z"/>
	<path class="st1" d="M76.9,29.8c-0.4-0.4-0.9-0.7-1.4-0.8c-0.2,0-0.3-0.1-0.5-0.1c-0.4,0-0.8,0.1-1.2,0.3c0,0,0,0,0,0
		c-0.5,0.3-0.9,0.5-1.3,0.5c-0.4,0.1-0.8,0.2-1.2,0.2c0,0-0.1,0-0.1,0c-1.1,0-1.8-0.3-2.3-0.7c-0.5-0.6-0.8-1.4-0.8-2.5
		c0-0.7,0.1-1.4,0.2-2.1c0.2-0.6,0.4-1.2,0.7-1.8c0.3-0.5,0.7-0.9,1.3-1.2c0.5-0.3,1.2-0.5,2-0.5c0,0,0.1,0,0.1,0
		c0.5,0,0.9,0.1,1.3,0.1c0.4,0.1,0.9,0.3,1.3,0.5c0.4,0.2,0.9,0.4,1.3,0.4c0.2,0,0.4,0,0.6-0.1c0.6-0.2,1-0.5,1.4-0.9
		c0.3-0.4,0.5-0.9,0.6-1.5c0.1-0.6,0-1.2-0.3-1.8c-0.3-0.5-0.8-1-1.5-1.4c0,0,0,0,0,0c-0.7-0.4-1.6-0.6-2.5-0.8
		c-0.8-0.2-1.7-0.3-2.6-0.3c-0.1,0-0.2,0-0.2,0c-1.8,0-3.5,0.4-4.8,1.1c-1.4,0.7-2.5,1.6-3.4,2.7c-0.9,1.1-1.5,2.3-1.9,3.7
		c-0.4,1.3-0.6,2.7-0.5,4.1c0.1,1.7,0.4,3.3,1.2,4.6c0.7,1.4,1.8,2.5,3.3,3.2c1.3,0.7,2.9,1,4.7,1c0.1,0,0.2,0,0.3,0
		c0.9,0,1.8-0.2,2.8-0.4c1-0.3,1.9-0.6,2.6-1.1c0.6-0.4,1.1-0.9,1.3-1.5c0.2-0.5,0.3-1.1,0.2-1.7C77.5,30.7,77.2,30.2,76.9,29.8z"/>
	<path class="st1" d="M96.2,16.2c-0.3-0.4-1-0.9-2.2-0.9c-0.7,0-1.4,0.2-1.9,0.5c-0.5,0.3-0.9,0.6-1.5,1.1c-1.5,1.4-3,2.8-4.5,4.1
		c0.5-3.1,1-6.3,1.4-9.4v0c0.2-1.1,0-2.1-0.5-2.8c-0.4-0.5-1.1-1.2-2.4-1.2h0c-1,0-1.8,0.3-2.5,0.8c-0.6,0.5-1.1,1.3-1.2,2.4
		c-1,6.9-2,13.9-3,20.8c-0.2,1.1,0,2,0.5,2.7c0.4,0.5,1.1,1.1,2.4,1.1l0,0c2,0,3.3-1.2,3.6-3.2c0.2-1.2,0.4-2.3,0.5-3.5
		c1.2,1.5,2.5,3,3.7,4.5c0.5,0.6,1,1.1,1.4,1.4c0.5,0.4,1.3,0.7,2.1,0.7c0.9,0,1.6-0.3,2.1-0.8c0.5-0.5,0.8-1.2,0.9-2
		c0.1-0.8-0.2-1.6-0.8-2.3c-1.3-1.7-2.7-3.4-4-5.1c1.7-1.6,3.5-3.3,5.2-4.9c0.6-0.6,1-1.3,1.1-2.1C96.9,17.5,96.7,16.8,96.2,16.2z"
		/>
	<path class="st2" d="M28.6,15c-1-1.6-2.4-2.7-4-3.5c-1.7-0.7-3.7-1-5.9-0.9c-2,0.1-3.8,0.6-5.4,1.5c-1.6,0.8-2.8,2-3.9,3.4
		c-1,1.4-1.8,3-2.3,4.8c-0.5,1.8-0.6,3.8-0.5,5.9c0.2,2.3,0.8,4.2,1.8,5.8c1,1.6,2.4,2.7,4.1,3.4c1.6,0.7,3.3,1,5.3,0.9
		c1-0.1,1.7,0,2.3,0.3c0.5,0.3,1,0.7,1.3,1.3c0.6,1.2,1.2,2.3,1.8,3.5c0.3,0.5,0.6,0.9,1.1,1.1c0.4,0.2,0.8,0.3,1.3,0.2
		c0.4-0.1,0.8-0.3,1.1-0.5c0.3-0.3,0.5-0.6,0.6-1.1c0.1-0.5,0-0.9-0.4-1.5c-0.4-0.8-0.9-1.7-1.3-2.5c-0.5-0.9-1.1-1.6-1.8-1.9
		c-0.1-0.1-0.3-0.1-0.5-0.2c0.1,0,0.1-0.1,0.2-0.1c1.5-0.8,2.8-1.9,3.9-3.3c1-1.4,1.8-3,2.3-4.8c0.5-1.8,0.7-3.8,0.6-5.9
		C30.2,18.5,29.6,16.6,28.6,15z M25,26.8c-0.5,1.7-1.4,3-2.5,4c-1.2,1-2.6,1.6-4.3,1.7c-1.9,0.1-3.5-0.3-4.7-1.4
		c-1.2-1.1-1.9-2.8-2.1-5.2c-0.2-2.1,0-4,0.5-5.6c0.5-1.6,1.4-3,2.5-4c1.2-1,2.6-1.6,4.4-1.7c2-0.1,3.6,0.4,4.8,1.4
		c1.2,1.1,1.9,2.8,2,5.2C25.7,23.2,25.5,25.1,25,26.8z"/>
	<path class="st2" d="M48.6,16.7c-0.7,0-1.2,0.2-1.6,0.6c-0.4,0.3-0.6,0.9-0.7,1.6c-0.3,2.5-0.6,5-0.8,7.5c-0.2,1.5-0.6,2.7-1.4,3.6
		c-0.8,0.9-1.8,1.4-3.1,1.5c-1.1,0.1-1.8-0.2-2.2-0.8c-0.4-0.6-0.6-1.6-0.4-2.9c0.3-2.7,0.6-5.5,0.9-8.2c0.1-0.8-0.1-1.4-0.4-1.8
		c-0.4-0.4-0.9-0.6-1.6-0.5c-0.7,0-1.2,0.2-1.6,0.6c-0.4,0.4-0.6,0.9-0.7,1.6c-0.3,2.9-0.6,5.7-0.9,8.6c-0.2,1.7,0,3.1,0.4,4.1
		c0.4,1.1,1.1,1.8,2,2.3c0.9,0.5,1.9,0.7,3.1,0.6c1.4-0.1,2.6-0.5,3.6-1.2c0.8-0.5,1.4-1.2,1.9-2.1c0,0.2,0,0.5-0.1,0.7
		c-0.1,0.8,0.1,1.3,0.4,1.7c0.3,0.4,0.8,0.5,1.5,0.5c1.4-0.1,2.1-0.8,2.3-2.2c0.5-4.5,1-8.9,1.6-13.3c0.1-0.8,0-1.4-0.4-1.8
		C49.9,16.9,49.4,16.7,48.6,16.7z"/>
	<path class="st2" d="M58.8,8.5c-0.9,0-1.6,0.3-2.1,0.7c-0.5,0.4-0.8,1-0.9,1.8c0,0.7,0.1,1.2,0.5,1.6c0.4,0.4,1,0.5,1.8,0.5
		c0.9,0,1.6-0.3,2.1-0.7c0.5-0.4,0.8-1,0.9-1.8c0.1-0.7-0.1-1.2-0.5-1.6C60.2,8.6,59.6,8.4,58.8,8.5z"/>
	<path class="st2" d="M57.7,16.4c-0.7,0-1.3,0.2-1.7,0.6c-0.4,0.4-0.7,0.9-0.8,1.7c-0.5,4.4-1.1,8.8-1.6,13.1
		c-0.1,0.8,0,1.4,0.4,1.9c0.3,0.5,0.8,0.7,1.5,0.6c0.7,0,1.3-0.2,1.7-0.6c0.4-0.4,0.6-0.9,0.7-1.7c0.5-4.4,1.1-8.8,1.7-13.1
		c0.1-0.8,0-1.5-0.4-1.9C58.9,16.6,58.4,16.4,57.7,16.4z"/>
	<path class="st2" d="M76.7,17c-0.6-0.3-1.4-0.6-2.2-0.8c-0.8-0.2-1.7-0.3-2.5-0.3c-1.7,0-3.1,0.4-4.4,0.9c-1.2,0.6-2.2,1.4-3,2.4
		c-0.8,1-1.3,2.1-1.7,3.3c-0.4,1.2-0.5,2.5-0.5,3.7c0,1.6,0.4,2.9,1,4.1c0.6,1.2,1.6,2.1,2.8,2.7c1.2,0.6,2.7,0.9,4.5,0.9
		c0.8,0,1.6-0.1,2.5-0.3c0.9-0.2,1.7-0.5,2.3-0.9c0.4-0.3,0.7-0.6,0.8-0.9c0.1-0.3,0.2-0.7,0.1-1c-0.1-0.3-0.2-0.6-0.4-0.8
		c-0.2-0.2-0.5-0.4-0.8-0.5c-0.3-0.1-0.6,0-0.9,0.2c-0.5,0.3-1.1,0.5-1.6,0.7c-0.5,0.1-1,0.2-1.4,0.2c-1.5,0-2.6-0.4-3.3-1.2
		c-0.7-0.8-1-1.9-1.1-3.2c0-0.8,0.1-1.6,0.2-2.4c0.2-0.8,0.5-1.5,0.9-2.2c0.4-0.7,1-1.2,1.7-1.6c0.7-0.4,1.6-0.6,2.6-0.6
		c0.6,0,1.1,0.1,1.7,0.2c0.5,0.1,1.1,0.3,1.6,0.6c0.4,0.2,0.7,0.3,1.1,0.2c0.3-0.1,0.6-0.3,0.8-0.5c0.2-0.3,0.3-0.6,0.4-0.9
		c0-0.4,0-0.7-0.2-1C77.5,17.5,77.1,17.2,76.7,17z"/>
	<path class="st2" d="M95.3,16.3C95,16,94.6,15.8,94,15.8c-0.5,0-1,0.1-1.3,0.3c-0.4,0.2-0.8,0.5-1.3,1c-2.3,2.1-4.6,4.2-6.8,6.3
		c0,0,0,0-0.1,0c0.6-4.2,1.3-8.4,1.9-12.6c0.1-0.8,0-1.5-0.3-1.9c-0.3-0.5-0.8-0.7-1.5-0.7c-0.7,0-1.3,0.2-1.7,0.5
		c-0.4,0.3-0.7,0.9-0.8,1.6c-1,6.9-2,13.9-3,20.8c-0.1,0.8,0,1.4,0.3,1.9c0.3,0.4,0.8,0.7,1.5,0.6c1.5,0,2.3-0.7,2.5-2.2
		c0.3-2,0.6-4,0.9-6c0,0,0,0,0.1,0c1.8,2.2,3.5,4.3,5.3,6.5c0.5,0.6,0.9,1,1.2,1.3c0.3,0.3,0.8,0.4,1.4,0.4c0.6,0,1-0.2,1.3-0.5
		c0.3-0.3,0.5-0.7,0.5-1.2c0-0.5-0.1-1-0.5-1.4c-1.6-2-3.1-4-4.7-5.9c2-1.9,4-3.8,6-5.7c0.5-0.4,0.7-0.9,0.8-1.4
		C95.7,17.1,95.6,16.7,95.3,16.3z"/>
	
		<linearGradient id="SVGID_00000072973546954297296610000000405504074737147053_" gradientUnits="userSpaceOnUse" x1="-509.0644" y1="-160.219" x2="-509.0644" y2="-192.03" gradientTransform="matrix(1 0 0 -1 526 -150.0842)">
		<stop  offset="0" style="stop-color:#FF6700"/>
		<stop  offset="1" style="stop-color:#FFA732"/>
	</linearGradient>
	<path style="fill:url(#SVGID_00000072973546954297296610000000405504074737147053_);" d="M23.8,41.9c-0.3,0-0.6-0.1-0.9-0.2
		c-0.4-0.2-0.7-0.5-1-1c-0.6-1.1-1.2-2.3-1.9-3.5c-0.4-0.7-0.8-1.1-1.4-1.4c-0.5-0.2-1.1-0.3-1.8-0.3c-0.2,0-0.4,0-0.5,0
		c0,0,0,0,0,0c-0.2,0-0.5,0-0.7,0c-1.7,0-3.3-0.3-4.7-0.9c-1.7-0.7-3.1-1.8-4.1-3.4c-1-1.5-1.6-3.5-1.8-5.7c-0.2-2.1,0-4.1,0.5-5.9
		C6,18,6.7,16.4,7.8,15c1-1.4,2.4-2.5,3.9-3.3c1.6-0.8,3.4-1.3,5.4-1.5c0.4,0,0.8,0,1.1,0c1.8,0,3.4,0.3,4.8,0.9
		c1.7,0.7,3.1,1.9,4.1,3.4c1,1.5,1.6,3.5,1.7,5.7c0.1,2.1-0.1,4.1-0.6,5.9c-0.5,1.8-1.3,3.4-2.3,4.7c-1,1.4-2.4,2.5-3.9,3.3
		c-0.1,0-0.1,0.1-0.2,0.1c-0.1,0-0.1,0.1-0.1,0.2c0,0.1,0,0.1,0.1,0.1c0.2,0.1,0.3,0.1,0.5,0.2c0.6,0.3,1.2,0.9,1.7,1.8
		c0.5,0.8,0.9,1.7,1.4,2.5c0.3,0.5,0.4,1,0.3,1.4c-0.1,0.4-0.3,0.7-0.5,1s-0.7,0.4-1.1,0.5C24.1,41.9,23.9,41.9,23.8,41.9z
		 M17.9,13.7c-0.2,0-0.4,0-0.7,0c-1.8,0.1-3.3,0.7-4.6,1.7c-1.2,1-2.1,2.4-2.6,4.1c-0.5,1.7-0.7,3.6-0.6,5.7
		c0.2,2.4,0.9,4.2,2.2,5.3c1.1,1,2.5,1.5,4.2,1.5c0.2,0,0.4,0,0.7,0c1.8-0.1,3.3-0.7,4.5-1.7s2.1-2.4,2.6-4.1
		c0.5-1.7,0.8-3.6,0.6-5.7c-0.1-2.4-0.9-4.2-2.1-5.3C21.1,14.2,19.7,13.7,17.9,13.7z"/>
	
		<linearGradient id="SVGID_00000097493151501071665230000017461708056978500769_" gradientUnits="userSpaceOnUse" x1="-484.7786" y1="-166.364" x2="-484.7786" y2="-184.3908" gradientTransform="matrix(1 0 0 -1 526 -150.0842)">
		<stop  offset="0" style="stop-color:#FF6700"/>
		<stop  offset="1" style="stop-color:#FFA732"/>
	</linearGradient>
	<path style="fill:url(#SVGID_00000097493151501071665230000017461708056978500769_);" d="M37.8,34.3c-1,0-1.9-0.2-2.7-0.6
		c-0.9-0.5-1.5-1.2-1.9-2.2c-0.4-1-0.5-2.4-0.4-4c0.3-2.9,0.6-5.7,0.9-8.6c0.1-0.7,0.3-1.2,0.7-1.5c0.4-0.3,0.9-0.5,1.5-0.5
		c0.1,0,0.1,0,0.2,0c0.6,0,1.1,0.2,1.4,0.5c0.3,0.4,0.5,0.9,0.4,1.7c-0.3,2.7-0.6,5.4-0.9,8.2c-0.1,1.3,0,2.3,0.5,3
		c0.4,0.6,1.1,0.9,2.1,0.9c0.1,0,0.2,0,0.3,0c1.4-0.1,2.5-0.6,3.3-1.5c0.8-0.9,1.3-2.2,1.5-3.7c0.3-2.5,0.6-5,0.9-7.5
		c0.1-0.7,0.3-1.2,0.7-1.5c0.4-0.3,0.9-0.5,1.5-0.5c0.1,0,0.1,0,0.2,0c0.6,0,1.1,0.2,1.4,0.5c0.3,0.4,0.4,0.9,0.4,1.7
		c-0.5,4.4-1.1,8.9-1.6,13.3c-0.2,1.3-0.9,2-2.2,2c0,0-0.1,0-0.1,0c-0.6,0-1-0.2-1.3-0.5c-0.3-0.3-0.5-0.9-0.4-1.6l0.1-0.7
		c0-0.1,0-0.1-0.1-0.2c0,0,0,0,0,0c-0.1,0-0.1,0-0.1,0.1c-0.5,0.8-1.2,1.6-1.9,2.1c-1,0.7-2.3,1.1-3.7,1.2
		C38.1,34.3,37.9,34.3,37.8,34.3z"/>
	
		<linearGradient id="SVGID_00000124856740501927347310000007538796285605625495_" gradientUnits="userSpaceOnUse" x1="-469.3378" y1="-158.0779" x2="-469.3378" y2="-183.6028" gradientTransform="matrix(1 0 0 -1 526 -150.0842)">
		<stop  offset="0" style="stop-color:#FF6700"/>
		<stop  offset="1" style="stop-color:#FFA732"/>
	</linearGradient>
	<path style="fill:url(#SVGID_00000124856740501927347310000007538796285605625495_);" d="M54.6,33.5c-0.6,0-1-0.2-1.3-0.6
		c-0.3-0.4-0.4-1-0.3-1.8c0.5-4.4,1.1-8.8,1.6-13.1c0.1-0.7,0.3-1.2,0.7-1.6c0.4-0.4,0.9-0.5,1.6-0.6c0,0,0.1,0,0.1,0
		c0.6,0,1,0.2,1.3,0.6c0.3,0.4,0.4,1,0.3,1.8c-0.6,4.4-1.2,8.8-1.7,13.1c-0.1,0.7-0.3,1.2-0.7,1.6C56,33.3,55.4,33.5,54.6,33.5
		C54.7,33.5,54.7,33.5,54.6,33.5z M57.3,12.3c-0.7,0-1.2-0.2-1.6-0.5c-0.4-0.3-0.5-0.8-0.5-1.5c0.1-0.7,0.3-1.3,0.8-1.7
		c0.5-0.4,1.2-0.6,2-0.6c0.1,0,0.1,0,0.2,0c0.7,0,1.2,0.2,1.6,0.5c0.4,0.3,0.5,0.8,0.5,1.5c-0.1,0.8-0.3,1.3-0.8,1.7
		c-0.5,0.4-1.2,0.6-2,0.6C57.4,12.3,57.4,12.3,57.3,12.3z"/>
	
		<linearGradient id="SVGID_00000149348038371210743220000014914283951343858871_" gradientUnits="userSpaceOnUse" x1="-456.3133" y1="-165.5339" x2="-456.3133" y2="-183.2366" gradientTransform="matrix(1 0 0 -1 526 -150.0842)">
		<stop  offset="0" style="stop-color:#FF6700"/>
		<stop  offset="1" style="stop-color:#FFA732"/>
	</linearGradient>
	<path style="fill:url(#SVGID_00000149348038371210743220000014914283951343858871_);" d="M70,33.2c-1.7,0-3.1-0.3-4.2-0.9
		c-1.2-0.6-2.1-1.5-2.8-2.6c-0.6-1.1-1-2.5-1-4c0-1.3,0.1-2.5,0.5-3.7c0.4-1.2,0.9-2.3,1.7-3.2c0.8-0.9,1.8-1.7,3-2.3
		c1.2-0.6,2.7-0.9,4.4-0.9c0.1,0,0.1,0,0.2,0c0.8,0,1.6,0.1,2.3,0.3c0.8,0.2,1.6,0.4,2.2,0.7c0.5,0.2,0.8,0.5,0.9,0.8
		c0.2,0.3,0.2,0.6,0.2,0.9c-0.1,0.3-0.2,0.6-0.4,0.8c-0.2,0.2-0.4,0.4-0.7,0.5c-0.1,0-0.2,0-0.3,0c-0.2,0-0.5-0.1-0.7-0.2
		c-0.6-0.3-1.1-0.5-1.7-0.6c-0.5-0.1-1-0.2-1.6-0.2c-0.1,0-0.1,0-0.2,0c-1.1,0-2,0.2-2.7,0.6c-0.7,0.4-1.3,0.9-1.8,1.6
		c-0.4,0.7-0.7,1.4-0.9,2.2c-0.2,0.8-0.3,1.6-0.3,2.5c0,1.4,0.4,2.5,1.1,3.3c0.7,0.8,1.8,1.2,3.3,1.2c0.1,0,0.1,0,0.2,0
		c0.5,0,1-0.1,1.5-0.2c0.5-0.1,1.1-0.4,1.6-0.7c0.2-0.1,0.4-0.2,0.6-0.2c0.1,0,0.2,0,0.2,0c0.3,0.1,0.5,0.2,0.7,0.4
		c0.2,0.2,0.3,0.5,0.4,0.8c0.1,0.3,0,0.6-0.1,0.9c-0.1,0.3-0.4,0.6-0.8,0.8c-0.6,0.4-1.4,0.7-2.3,0.9c-0.9,0.2-1.7,0.4-2.5,0.4
		C70.2,33.2,70.1,33.2,70,33.2z"/>
	
		<linearGradient id="SVGID_00000012458334535441134180000016409655471077862831_" gradientUnits="userSpaceOnUse" x1="-438.799" y1="-157.8512" x2="-438.799" y2="-183.0097" gradientTransform="matrix(1 0 0 -1 526 -150.0842)">
		<stop  offset="0" style="stop-color:#FF6700"/>
		<stop  offset="1" style="stop-color:#FFA732"/>
	</linearGradient>
	<path style="fill:url(#SVGID_00000012458334535441134180000016409655471077862831_);" d="M80.6,32.9c-0.6,0-1.1-0.2-1.4-0.6
		c-0.3-0.4-0.4-1-0.3-1.7c1-6.9,2.1-13.9,3.1-20.8c0.1-0.7,0.4-1.2,0.8-1.5c0.4-0.3,1-0.5,1.7-0.5h0c0.6,0,1.1,0.2,1.4,0.6
		c0.3,0.4,0.4,1,0.3,1.8c-0.7,4.2-1.3,8.4-2,12.6c0,0,0,0.1,0,0.1c0,0,0.1,0.1,0.1,0.1h0.1c0,0,0.1,0,0.1,0c2.3-2.1,4.7-4.2,7-6.3
		c0.5-0.4,0.9-0.8,1.3-1c0.4-0.2,0.8-0.3,1.3-0.3c0.5,0,1,0.2,1.2,0.4c0.3,0.3,0.3,0.7,0.3,1.1c-0.1,0.4-0.3,0.9-0.7,1.3
		c-2.1,1.9-4.1,3.8-6.1,5.7c-0.1,0.1-0.1,0.2,0,0.2c1.6,2,3.2,4,4.8,6c0.4,0.4,0.5,0.9,0.5,1.3c0,0.5-0.2,0.8-0.5,1.1
		c-0.3,0.3-0.7,0.4-1.2,0.4c-0.6,0-1-0.1-1.3-0.4c-0.3-0.3-0.7-0.7-1.2-1.2c-1.8-2.1-3.6-4.3-5.4-6.5c0,0-0.1-0.1-0.1-0.1H84
		c-0.1,0-0.1,0.1-0.2,0.1c-0.3,2-0.6,4-0.9,6C82.8,32.3,82,32.9,80.6,32.9z"/>
</g>
</svg>
