<?xml version="1.0" encoding="utf-8"?>
<!-- Generator: Adobe Illustrator 26.0.3, SVG Export Plug-In . SVG Version: 6.00 Build 0)  -->
<svg version="1.1" id="Layer_1" xmlns="http://www.w3.org/2000/svg" xmlns:xlink="http://www.w3.org/1999/xlink" x="0px" y="0px"
	 viewBox="0 0 1181.6 1339.5" style="enable-background:new 0 0 1181.6 1339.5;" xml:space="preserve">
<style type="text/css">
	.st0{fill-rule:evenodd;clip-rule:evenodd;fill:#FFA732;}
	.st1{fill:#FF6700;}
	.st2{fill:#D0CCFF;}
	.st3{fill:#9458F7;}
	.st4{fill:#FFFFFF;}
	.st5{fill:#FFA732;}
	.st6{fill:url(#SVGID_1_);}
	.st7{fill:url(#SVGID_00000001637119775454348510000018287298056749505665_);}
	.st8{fill:url(#SVGID_00000149342505242166292650000000131566368147235729_);}
	.st9{fill:url(#SVGID_00000015319775687498533200000017853852780754781861_);}
	.st10{fill:url(#SVGID_00000011019825009717135690000014279862923008051088_);}
	.st11{fill:url(#SVGID_00000075853351580944870320000014420001134188967049_);}
	.st12{fill:url(#SVGID_00000100357403280907858430000005630762311036640943_);}
	.st13{fill:url(#SVGID_00000088846324648800530310000000394318729867103656_);}
	.st14{fill:url(#SVGID_00000178906158709420601920000005796163746172890543_);}
</style>
<g>
	<path class="st0" d="M242.1,512.3c-0.5-8.3-0.7-16.6-0.7-25c0-20.8,1.5-41.3,4.3-61.3H163c-21.3,0-39.1,17.4-39.1,38.3
		c0,20.9,17.8,38.3,39.1,38.3h78.2C241.5,505.8,241.8,509.1,242.1,512.3z M531.9,77.5H244.7c-35.6,0-60.4,27.9-60.4,59.2
		c0,34.8,28.4,59.2,60.4,59.2h103.1c1.9,0,3.8,0.1,5.7,0.4C401.6,143.2,462.8,101.9,531.9,77.5z M298.2,272.6H95.5
		c-21.3,0-39.1,17.4-39.1,38.3c0,20.9,17.8,38.3,39.1,38.3h168.4C272.9,322.5,284.4,296.8,298.2,272.6z"/>
	<path class="st1" d="M926.1,643.8c48.9-78.9,66.9-173,50.5-264.4C960.3,288.1,910.7,206,837.5,149C764.3,92,672.5,64.1,580,70.7
		c-92.6,6.6-179.4,47.1-243.9,113.9c-64.4,66.8-101.9,155-105.2,247.7c-3.3,92.7,27.8,183.4,87.3,254.6
		c59.5,71.2,143.3,117.8,235.1,131c91.9,13.1,185.3-8.1,262.4-59.8l-47.5-49.3c-2.5-2.6-5.9-4.4-9.5-4.9c-3.6-0.5-7.3,0.2-10.5,1.9
		c-65.2,35.7-141.4,45.6-213.5,27.7c-72.1-17.8-135-62.1-176-124c-41.1-61.9-57.4-137-45.7-210.4c11.6-73.4,50.4-139.7,108.6-185.9
		s131.7-68.8,205.8-63.4c74.1,5.4,143.5,38.4,194.5,92.5c51,54.1,79.8,125.3,80.7,199.7c0.9,74.3-26.1,146.3-75.6,201.6
		c-3,3.2-4.7,7.4-4.7,11.8c0,4.4,1.7,8.6,4.7,11.8l45.4,45l28.1,28.3c15.3,12.7,56.3,36.4,116-6.3L926.1,643.8z"/>
	<path class="st2" d="M835.4,502.4l-5,5c-15.1,15.1-22.7,35.3-22.7,55.5v7.6c0,42.9-35.3,78.2-78.2,78.2h-7.6
		c-20.2,0-40.4,7.6-55.5,22.7l-5,5c-30.3,27.7-75.7,30.3-105.9,5c2.5,0,2.5-2.5,5-5l5-5c15.1-15.1,35.3-22.7,55.5-22.7h7.6
		c42.9,0,78.2-35.3,78.2-78.2v-7.6c0-20.2,7.6-40.4,22.7-55.5l5-5c30.3-30.3,30.3-80.7,0-111l-5-5c-15.1-15.1-22.7-35.3-22.7-55.5
		v-7.6c0-42.9-35.3-78.2-78.2-78.2H621c-20.2,0-40.4-7.6-55.5-22.7l-5-5c-2.5-2.5-2.5-2.5-5-5c30.3-25.2,75.7-25.2,105.9,5l5,5
		c15.1,15.1,35.3,22.7,55.5,22.7h7.6c42.9,0,78.2,35.3,78.2,78.2v7.6c0,20.2,7.6,40.4,22.7,55.5l5,5
		C865.6,421.7,865.6,472.1,835.4,502.4z"/>
	<path class="st3" d="M605.8,245.1c7.6,0,15.1,2.5,20.2,7.6l5,5c25.2,25.2,55.5,37.8,90.8,37.8h7.6c15.1,0,27.7,12.6,27.7,27.7v7.6
		c0,35.3,12.6,65.6,37.8,90.8l5,5c5,5,7.6,12.6,7.6,20.2c0,7.6-2.5,15.1-7.6,20.2l-5,5c-25.2,25.2-37.8,55.5-37.8,90.8v7.6
		c0,15.1-12.6,27.7-27.7,27.7h-7.6c-35.3,0-65.6,12.6-90.8,37.8l-5,5c-5,5-12.6,7.6-20.2,7.6c-7.6,0-15.1-2.5-20.2-7.6l-5-5
		c-25.2-25.2-55.5-37.8-90.8-37.8h-7.6c-15.1,0-27.7-12.6-27.7-27.7v-7.6c0-35.3-12.6-65.6-37.8-90.8l-5-5c-5-5-7.6-12.6-7.6-20.2
		c0-7.6,2.5-15.1,7.6-20.2l5-5c25.2-25.2,37.8-55.5,37.8-90.8v-7.6c0-15.1,12.6-27.7,27.7-27.7h7.6c35.3,0,65.6-12.6,90.8-37.8l5-5
		C590.7,247.7,598.3,245.1,605.8,245.1z M605.8,194.7c-20.2,0-40.4,7.6-55.5,22.7l-5,5c-15.1,15.1-35.3,22.7-55.5,22.7h-7.6
		c-42.9,0-78.2,35.3-78.2,78.2v7.6c0,20.2-7.6,40.4-22.7,55.5l-5,5c-30.3,30.3-30.3,80.7,0,111l5,5c15.1,15.1,22.7,35.3,22.7,55.5
		v7.6c0,42.9,35.3,78.2,78.2,78.2h7.6c20.2,0,40.4,7.6,55.5,22.7l5,5c15.1,15.1,35.3,22.7,55.5,22.7c20.2,0,40.4-7.6,55.5-22.7l5-5
		c15.1-15.1,35.3-22.7,55.5-22.7h7.6c42.9,0,78.2-35.3,78.2-78.2v-7.6c0-20.2,7.6-40.4,22.7-55.5l5-5c30.3-30.3,30.3-80.7,0-111
		l-5-5c-15.1-15.1-22.7-35.3-22.7-55.5v-7.6c0-42.9-35.3-78.2-78.2-78.2h-7.6c-20.2,0-40.4-7.6-55.5-22.7l-5-5
		C646.2,202.3,626,194.7,605.8,194.7z"/>
	<path class="st1" d="M704.3,341.2c-4.1-2.3-8.6-3.7-13.3-4.3c-4.7-0.5-9.4-0.2-13.9,1.1s-8.7,3.5-12.4,6.4c-3.7,2.9-6.8,6.6-9,10.7
		l-66.5,119.7L551,436.7c-3.3-3.4-7.3-6.2-11.6-8c-4.4-1.9-9.1-2.9-13.8-2.9c-4.8,0-9.5,0.9-13.9,2.7c-4.4,1.8-8.4,4.5-11.8,7.8
		c-3.4,3.4-6,7.4-7.8,11.8c-1.8,4.4-2.7,9.1-2.7,13.9c0,4.8,1,9.5,2.9,13.8c1.9,4.4,4.6,8.3,8,11.6L572,559
		c6.8,6.8,15.9,10.5,25.3,10.5l5-0.4c5.5-0.8,10.7-2.8,15.3-5.9c4.6-3.1,8.4-7.3,11-12.1l89.5-161.2c2.3-4.1,3.7-8.6,4.3-13.3
		c0.5-4.7,0.2-9.4-1.1-13.9c-1.3-4.5-3.5-8.7-6.4-12.4C712,346.6,708.4,343.5,704.3,341.2z"/>
	<path class="st3" d="M1124.5,1116.6c-1.4-6.1-4.9-11.3-10-15.1c-4.4-3.3-9.8-5.2-15.9-5.7c-20.2-1.6-40.7-3.1-60.9-4.5
		c-0.8-0.1-1.5-0.1-2.3-0.1c-5.7,0-10.9,1.5-15.3,4.3c4.5-3.6,9.6-9.9,11.5-20.3c1.9-9.7-0.4-18.6-6.4-25.3
		c-5.3-5.8-12.7-9.1-22-9.7c-0.9-0.1-1.9-0.1-3-0.1c-7.8,0-14.7,2-20.4,6c-5,3.5-11.3,10-13.4,21.9c-0.1,0.2-0.1,0.3-0.1,0.3
		c-1.4,9,0.6,17.3,5.7,23.6c-0.4,0.3-0.8,0.6-1.3,0.9c-2.3,1.7-4.9,4.3-7.2,8c-0.8-2.2-1.9-4.2-3-5.6c-3.4-4.9-10.2-10.9-22.6-11.6
		c-0.8-0.1-1.5-0.1-2.2-0.1c-7.2,0-13.5,1.9-18.6,5.8c-4.2,3.1-9.5,8.9-11.8,19.4c0,0.1,0,0.1,0,0.2c-3.1,14.8-6,29.4-9.1,44.2
		c-1.1,5.3-3,9.2-5.4,11.6c-0.9,0.9-2.2,1.8-4.6,2c0.1-0.8,0.3-1.6,0.4-2.6c3.2-15.9,6.4-31.9,9.6-47.8c0-0.1,0-0.1,0-0.2
		c2.4-12.3-1.4-20.3-4.8-25c-3.6-4.7-10.3-10.3-22.3-10.9c-0.6,0-1.2,0-1.8,0c-7.3,0-13.7,2-19,6c-2,1.5-4.2,3.6-6.4,6.7
		c-1.4-7.8-3.9-15.1-7.3-21.6c-6.7-12.9-16.5-23-29.2-30c-12-6.7-26.3-10.3-42.4-10.7c-1,0-2,0-3.1,0c-13.3,0-25.7,2.4-36.8,7.1
		c-12,5.2-22.4,12.6-30.9,22.2c-8.4,9.3-14.9,20.6-19.4,33.3c-4.3,12.4-6.7,26-6.9,40.5c-0.3,16.7,3,31.5,9.6,43.9
		c6.9,12.8,16.7,22.8,29.2,29.7c10.8,5.8,23.1,9.2,36.9,10.2c0.6,0.1,1.2,0.2,1.8,0.2c2.8,0.1,4.3,0.4,5,0.6
		c0.1,0.2,0.2,0.3,0.3,0.5c3,7.1,5.9,14.2,8.9,21.4c0,0.1,0,0.2,0.1,0.3c2.9,6.6,7.1,11.7,12.7,15c4.7,2.8,9.8,4.2,15,4.2
		c0.8,0,1.5,0,2.4-0.3c5.7-0.4,10.9-2.4,15.5-5.7c5.3-3.8,9-9.3,10.8-15.9c1.8-6.6,1.1-13.7-2.1-20.8c-2.1-5.1-4.3-10.3-6.4-15.3
		c-0.3-0.7-0.6-1.4-0.9-2.1c4.2-3.2,8.1-6.8,11.6-10.8c3.1-3.5,6.1-7.3,8.7-11.3c0.3,4.2,0.9,8.1,2,11.8
		c3.1,10.4,9.1,18.9,17.5,24.4c7.6,5,16.6,7.8,26.9,8.2c1,0.1,1.9,0.1,3,0.1c8.5,0,16.4-1.6,23.8-4.9c3.8,3.2,9.5,6.1,17.6,6.5
		c0.7,0.1,1.4,0.1,2,0.1c11.1,0,20.3-5,25.7-13.6c0.5,1.2,1.1,2.4,1.8,3.6c4.7,7.7,12.5,12.3,22.2,12.9c0.8,0.1,1.6,0.1,2.5,0.1
		c7.6,0,14.2-2.2,19.5-6.4c1.8-1.4,3.3-3,4.7-4.7c1.7,2.5,3.7,4.8,6.3,6.7c4.4,3.3,9.8,5.3,16.1,5.7c20.7,1.4,41.5,2.9,62,4.5
		c0.9,0.1,1.8,0.1,2.6,0.1c7,0,13.5-2.3,18.3-6.7c5.8-5,9.2-12,9.8-20.2c0.8-8.9-2.6-15-5.6-18.5c-4.6-5.5-11.4-8.6-19.9-9.3
		c-1.1-0.1-2.1-0.2-3.2-0.3c11-10.2,22-20.3,33.1-30.4c4.3-4,7.5-8.5,9.5-13.3C1125.3,1128.2,1125.9,1122.2,1124.5,1116.6z
		 M780.9,1114.1c-0.3,10-2.1,18.9-5.3,26.4c-2.8,6.5-6.4,11.4-11.3,14.9c-4.1,3-9.1,4.4-15.3,4.4c-0.3,0-0.7,0-1,0
		c-9-0.3-12.8-3.2-14.9-5.5c-4.2-4.5-4.8-13.1-4.7-19.7c0.2-10.2,1.9-19.1,4.9-26.4c2.7-6.5,6.4-11.4,11.1-14.8
		c4.2-3,9.2-4.4,15.4-4.4c0.3,0,0.7,0,1,0c10.6,0.3,14.3,4.3,15.5,5.7C780.5,1099.2,781.1,1107.7,780.9,1114.1z M1017.1,1097.7
		c-0.8,0.7-1.6,1.4-2.4,2.2c-0.1-0.1-0.2-0.3-0.3-0.3c-0.1-0.1-0.1-0.2-0.2-0.3C1015.3,1098.7,1016.2,1098.2,1017.1,1097.7z
		 M1007.5,1170.9c2.4-10.8,4.7-21.5,7.1-32.2c0.1,0.1,0.2,0.2,0.3,0.3c4.7,4.2,10.7,6.7,18,7.2c0.3,0.1,0.6,0.1,0.8,0.1
		C1024.9,1154.3,1016.2,1162.6,1007.5,1170.9z"/>
	<path class="st4" d="M802.8,1048.7c-10.7-5.9-23.6-9.1-38.2-9.5c-0.9,0-1.9,0-2.8,0c-12.1,0-23.3,2.1-33.2,6.4
		c-10.7,4.6-20,11.2-27.6,19.8c-7.5,8.5-13.5,18.6-17.5,30.2c-4.1,11.4-6.2,24-6.4,37.5c-0.2,15,2.6,28.2,8.5,39.2
		c5.8,11.1,14.4,19.8,25.3,25.7c9.6,5.3,20.9,8.3,33.4,9.1c0.3,0.1,0.7,0.1,1,0.1c5.8,0.1,8.8,1.2,10.3,2c1.8,1.1,3.2,2.9,4.3,5.4
		c3,7.2,6,14.5,9,21.7c0.1,0,0.1,0.1,0.1,0.1c2,4.7,4.9,8.1,8.6,10.3c3.1,1.9,6.5,2.8,10,2.8c0.5,0,1,0,1.6-0.1
		c3.8-0.3,7.3-1.6,10.4-3.8c3.4-2.5,5.8-5.8,6.9-10.2c1.2-4.3,0.6-9-1.6-14c-2.2-5.2-4.4-10.4-6.6-15.6c-1.5-3.6-3.4-6.9-5.5-9.5
		c6.8-4,12.9-9,18.2-14.8c7.5-8.3,13.6-18.3,17.8-29.8c4.2-11.4,6.5-24,7-37.6c0.5-15.1-2.1-28.3-7.8-39.3
		C822.2,1063.6,813.7,1054.8,802.8,1048.7z M793.3,1113.2c-0.4,11.4-2.5,21.7-6.2,30.5c-3.6,8.3-8.6,14.9-14.9,19.5
		c-5.9,4.2-13,6.4-21.4,6.4c-0.4,0-0.8,0-1.3,0c-9.8-0.3-17-3.1-22.4-8.9c-5.3-5.7-7.9-14.9-7.6-27.3c0.2-11.7,2.1-22,5.8-30.7
		c3.5-8.5,8.4-14.8,14.8-19.4c6-4.2,13.1-6.4,21.5-6.4c0.5,0,0.9,0,1.4,0.1c10.2,0.3,17.6,3.2,23,9.1
		C791.2,1091.8,793.6,1100.9,793.3,1113.2z"/>
	<path class="st4" d="M956,1100c-2.1-3.1-6.5-7-14.9-7.4c-0.5-0.1-1.1-0.1-1.6-0.1c-5.1,0-9.3,1.3-12.8,3.8
		c-3.9,2.9-6.6,7.4-7.9,13.4c-3.1,14.8-6.1,29.8-9.2,44.6c-1.5,7.5-4.4,13.2-8.5,17.2c-3.5,3.4-7.7,5-13.1,5c-0.4,0-0.8,0-1.3,0
		c-3.6-0.2-6-1-6.9-2.6c-0.8-1.4-1.8-4.7-0.3-12.5c3.2-16.1,6.4-32.3,9.7-48.5c1.4-6.9,0.3-12.5-2.9-16.8c-2.2-3-6.6-6.5-14.8-6.9
		c-0.5,0-0.9,0-1.4,0c-5.2,0-9.6,1.4-13.1,4c-3.9,3-6.4,7.5-7.7,13.5c-3.5,17-6.9,34-10.3,51c-2.1,11.1-2.1,20.6,0.2,28.3
		c2.5,8.2,7,14.6,13.4,18.8c6.1,4,13.5,6.3,22,6.6c0.8,0.1,1.7,0.1,2.5,0.1c8.6,0,16.5-2,23.7-5.9c1-0.6,2-1.2,3-1.9
		c0.5,1,1.1,2,1.8,2.9c3.1,4,7.9,6.2,14,6.5c0.5,0,1,0,1.5,0c10.8,0,18.3-6.4,20.6-17.4c5.5-26.4,11.1-52.9,16.6-79.1
		C959.8,1109.9,959,1104.3,956,1100z"/>
	<path class="st4" d="M1012.2,1120.4c1.4-6.8,0.8-12.5-2-16.9c-2-3.3-6.2-7.4-14.2-7.9c-0.7-0.1-1.4-0.1-1.9-0.1
		c-5.3,0-9.8,1.4-13.3,4.2c-4.1,3.1-6.8,7.7-8.1,13.7c-5.7,25.9-11.4,52.1-16.9,77.8c-1.4,6.5-0.7,12.1,2,16.6
		c2.1,3.4,6.2,7.5,14.2,8.1c0.7,0.1,1.4,0.1,1.9,0.1c5.3,0,9.8-1.4,13.4-4.3c3.8-3.1,6.4-7.6,7.8-13.6
		C1000.6,1172.2,1006.5,1146.1,1012.2,1120.4z"/>
	<path class="st4" d="M999.6,1090.8c0.8,0.1,1.7,0.1,2.5,0.1c5.8,0,10.9-1.4,14.8-4.2c4.7-3.4,7.8-8.5,9-15.1
		c1.6-8.1-1.2-13.3-3.9-16.3c-3.5-3.8-8.6-6-15.3-6.4c-0.8-0.1-1.6-0.1-2.4-0.1c-5.8,0-10.8,1.4-14.8,4.2c-4.9,3.4-8,8.5-9.2,15.2
		v0.1c-1.3,8.1,1.5,13.1,4.1,16C987.8,1088.1,992.9,1090.3,999.6,1090.8z"/>
	<path class="st4" d="M1120,1118c-0.8-3.6-3-6.8-6.1-9.2c-2.9-2.1-6.5-3.4-10.8-3.7c-20.4-1.5-41-3.1-61.5-4.5
		c-0.6-0.1-1.2-0.1-1.7-0.1c-4.6,0-8.6,1.4-12,4.1c-2.7,2.2-6,6.4-6.4,13.5c-0.3,4.7,1.3,8.9,4.7,12c3,2.7,7,4.2,12,4.6
		c8.2,0.6,16.6,1.2,24.9,1.8c-17.2,16-34.5,32.3-51.5,48.4c-3.1,2.9-5.2,6.1-6.4,9.5c-1.3,3.7-1.4,7.3-0.4,10.8c1,3.6,3.1,6.4,6,8.7
		c2.9,2.1,6.4,3.4,10.8,3.6c20.9,1.4,42,2.9,62.7,4.5c0.7,0.1,1.3,0.1,1.9,0.1c4.7,0,8.7-1.4,11.9-4.1c3.6-3.2,5.8-7.7,6.2-13.1
		c0.4-5.4-1.5-9-3.2-11c-2.8-3.4-7.2-5.3-13.1-5.8c-9-0.7-18.1-1.4-27.2-2c17-15.9,34.2-31.8,51.3-47.4c3.2-3,5.6-6.2,7-9.6
		C1120.5,1125.2,1120.8,1121.5,1120,1118z"/>
	<path class="st5" d="M799.5,1051.2c-9.7-5.4-21.4-8.3-35-8.6c-12.3-0.3-23.4,1.6-33.1,5.8c-9.8,4.2-18.2,10.2-25.2,18
		c-7,7.8-12.4,17-16.1,27.7c-3.8,10.8-5.8,22.5-5.9,35.2c-0.2,13.9,2.4,25.8,7.6,35.7c5.3,9.9,12.7,17.5,22.4,22.8
		c9.2,4.9,19.7,7.7,31.8,8.3c-0.2,0.1-0.3,0.1-0.5,0.2c5.8,0.1,10.4,1.1,13.6,3s5.6,4.8,7.3,8.8c3,7.2,6,14.5,9,21.7
		c1.4,3.2,3.4,5.6,5.8,7c2.4,1.4,4.9,2,7.5,1.8c2.5-0.2,4.9-1,7-2.5c2-1.5,3.5-3.6,4.2-6.3c0.7-2.6,0.3-5.7-1.3-9.2
		c-2.2-5.3-4.4-10.5-6.7-15.6c-2.5-5.8-5.7-10-9.5-12.4c-0.8-0.5-1.9-1-2.8-1.4c0.5-0.2,1-0.4,1.5-0.7c9.7-4.2,18-10,24.9-17.7
		c7-7.7,12.5-16.9,16.4-27.5c4-10.7,6.2-22.4,6.6-35.3c0.5-13.8-1.8-25.8-7-35.7C816.7,1064.2,809.2,1056.6,799.5,1051.2z
		 M800.2,1109.3c-0.3,12.5-2.6,23.5-6.7,33.1c-4.1,9.7-9.8,17.2-17.3,22.6c-7.5,5.4-16.4,8-27,7.7c-11.6-0.3-20.7-4-27.4-11.1
		c-6.5-7.2-9.7-18-9.5-32.4c0.3-12.6,2.4-23.7,6.4-33.3c4-9.6,9.8-17.1,17.3-22.5c7.5-5.3,16.5-7.9,27-7.6
		c12,0.3,21.3,4.1,27.9,11.3C797.6,1084.3,800.7,1095.1,800.2,1109.3z"/>
	<path class="st5" d="M940.5,1095.9c-4.1-0.3-7.4,0.6-9.9,2.5s-4.2,4.8-5.2,9.1c-3.1,14.8-6.1,29.8-9.2,44.6
		c-1.9,9-5.3,15.9-10.5,20.9c-5.2,5-11.7,7.3-19.5,7c-6.3-0.3-10.5-2.4-12.6-6.3c-2.1-3.9-2.5-9.8-1-17.5
		c3.2-16.1,6.4-32.3,9.7-48.4c0.9-4.7,0.4-8.5-1.5-11c-1.9-2.5-5.1-4-9.5-4.2c-4.2-0.2-7.5,0.7-9.9,2.5c-2.5,1.9-4.2,4.9-5,9.2
		c-3.5,17-6.9,34-10.3,51c-2,10-2,18.2,0,24.8c1.9,6.5,5.3,11.5,10.4,14.8c5.1,3.3,11.2,5.1,18.5,5.4c8.4,0.3,15.9-1.4,22.6-5.1
		c5-2.8,9.3-6.6,12.8-11.6c-0.3,1.4-0.5,2.7-0.8,4.1c-0.8,4.7-0.3,8.1,1.6,10.5c1.9,2.3,4.7,3.6,8.8,3.8c8.2,0.4,13.1-3.5,14.8-11.8
		c5.5-26.4,11-52.6,16.6-79c0.9-4.7,0.5-8.5-1.4-11.1C948.2,1097.6,945,1096.2,940.5,1095.9z"/>
	<path class="st5" d="M995.4,1099.1c-4.4-0.3-7.9,0.6-10.6,2.6c-2.6,2-4.5,5.3-5.4,9.6c-5.7,25.9-11.3,51.7-16.9,77.7
		c-0.9,4.7-0.5,8.6,1.2,11.4c1.7,2.9,4.6,4.4,8.6,4.7c4.5,0.3,8-0.6,10.6-2.6c2.5-2,4.3-5.3,5.3-9.6c5.7-25.9,11.4-51.8,17.1-77.7
		c1-4.8,0.7-8.7-1.1-11.5C1002.4,1100.8,999.5,1099.3,995.4,1099.1z"/>
	<path class="st5" d="M1000.1,1079.8c5.3,0.3,9.7-0.7,13-2.9c3.2-2.3,5.3-5.8,6.1-10.6c0.8-4.2,0.1-7.5-2.2-10
		c-2.3-2.5-5.8-3.8-10.7-4.2c-5.3-0.3-9.6,0.6-12.9,2.9c-3.3,2.3-5.3,5.8-6.2,10.6c-0.7,4.2,0.1,7.5,2.3,10
		C991.7,1078.1,995.2,1079.5,1000.1,1079.8z"/>
	<path class="st5" d="M1113.2,1115.8c-0.5-2-1.7-3.7-3.5-5.1c-1.9-1.4-4.2-2.1-7.2-2.4c-20.4-1.6-40.9-3.1-61.4-4.5
		c-3.6-0.3-6.5,0.6-8.8,2.5c-2.3,2-3.6,4.7-3.8,8.4c-0.2,2.5,0.6,4.6,2.4,6.2c1.8,1.6,4.3,2.5,7.7,2.8c13.7,0.9,27.5,2,41.2,3
		c-21.4,19.8-42.6,39.6-63.5,59.5c-2.2,2.1-3.7,4.3-4.5,6.6c-0.8,2.3-0.9,4.4-0.3,6.4c0.6,2,1.7,3.6,3.5,5c1.8,1.4,4.1,2.1,7,2.3
		c20.9,1.4,41.9,2.9,62.7,4.6c3.6,0.3,6.5-0.6,8.8-2.5c2.3-1.9,3.6-4.7,3.8-8.2c0.4-5.5-2.9-8.6-9.8-9.1c-14.5-1.2-29-2.2-43.5-3.2
		c20.9-19.7,42-39.2,63.3-58.7c2.4-2.2,4.2-4.6,5.1-7C1113.5,1120,1113.7,1117.8,1113.2,1115.8z"/>
	
		<linearGradient id="SVGID_1_" gradientUnits="userSpaceOnUse" x1="-134.1294" y1="1105.5383" x2="-134.1294" y2="911.5654" gradientTransform="matrix(1 0 0 -1 894 2145.2632)">
		<stop  offset="0" style="stop-color:#FF6700"/>
		<stop  offset="1" style="stop-color:#FFA732"/>
	</linearGradient>
	<path class="st6" d="M791.5,1233.7c-2.1,0-4.2-0.6-6.1-1.7c-2.3-1.3-4.1-3.6-5.4-6.6c-3-7.2-6.1-14.5-9.2-21.7
		c-1.9-4.2-4.5-7.3-7.9-9.2c-3.3-1.9-8-3-13.9-3.1c-0.1,0-0.2,0-0.3-0.1c-12-0.6-22.6-3.4-31.6-8.1c-9.7-5.2-17.2-12.7-22.5-22.4
		c-5.3-9.8-7.9-21.6-7.6-35.2c0.2-12.6,2.2-24.3,5.9-34.8c3.8-10.5,9.2-19.8,16.3-27.5c7-7.7,15.5-13.7,25.3-17.7
		c9.2-3.8,19.5-5.8,30.8-5.8c0.8,0,1.8,0,2.6,0c13.6,0.3,25.5,3.2,35.3,8.6c9.8,5.3,17.3,12.9,22.5,22.6c5.2,9.8,7.5,21.6,7,35.3
		c-0.4,12.7-2.7,24.4-6.7,34.9c-4,10.4-9.6,19.6-16.5,27.1c-7,7.5-15.4,13.4-25.1,17.5c-0.4,0.2-0.8,0.3-1.3,0.5
		c-0.3,0.2-0.6,0.5-0.6,0.8c0,0.4,0.3,0.8,0.6,0.9c0.9,0.4,1.8,0.8,2.6,1.4c3.7,2.3,6.9,6.3,9.3,12c2.3,5.3,4.5,10.5,6.8,15.7
		c1.5,3.2,1.9,6.1,1.3,8.6c-0.7,2.5-1.9,4.3-3.9,5.7c-1.9,1.4-4.2,2.2-6.6,2.4C792.1,1233.7,791.8,1233.7,791.5,1233.7z
		 M765.1,1061.1c-10.3,0-19.2,2.6-26.6,7.8c-7.8,5.4-13.8,13.1-18,22.9c-4.1,9.7-6.3,21-6.5,33.7c-0.3,14.6,3.1,25.7,10,33.1
		c6.9,7.3,16.4,11.1,28.6,11.4c0.5,0,1,0,1.5,0c10.3,0,19.2-2.6,26.5-7.9c7.7-5.4,13.7-13.1,18-22.9c4.2-9.8,6.5-21,7-33.5
		c0.4-14.5-2.8-25.6-9.7-32.9c-7-7.4-16.7-11.3-29.1-11.6C766.2,1061.1,765.6,1061.1,765.1,1061.1z"/>
	
		<linearGradient id="SVGID_00000125605000577706250980000008878907470253111476_" gradientUnits="userSpaceOnUse" x1="10.5725" y1="1055.5985" x2="10.5725" y2="947.8451" gradientTransform="matrix(1 0 0 -1 894 2145.2632)">
		<stop  offset="0" style="stop-color:#FF6700"/>
		<stop  offset="1" style="stop-color:#FFA732"/>
	</linearGradient>
	<path style="fill:url(#SVGID_00000125605000577706250980000008878907470253111476_);" d="M927.9,1197.4c-0.3,0-0.8,0-1.2,0
		c-3.8-0.2-6.6-1.4-8.3-3.5c-1.7-2.1-2.2-5.4-1.4-9.7l0.8-4c0.1-0.4-0.2-0.8-0.6-1c-0.1-0.1-0.3-0.1-0.3-0.1c-0.3,0-0.6,0.2-0.8,0.4
		c-3.5,4.8-7.7,8.6-12.7,11.4c-6,3.3-12.9,4.9-20.3,4.9c-0.8,0-1.5,0-2.3-0.1c-7.2-0.3-13.4-2.1-18.3-5.3c-4.9-3.2-8.4-8-10.3-14.3
		c-1.9-6.4-1.9-14.7,0-24.4c3.5-17,7-34,10.4-51c0.8-4,2.5-6.9,4.7-8.6c2.1-1.6,5-2.4,8.5-2.4c0.3,0,0.7,0,1,0
		c4.2,0.2,7.2,1.4,9,3.7c1.8,2.3,2.3,5.8,1.4,10.3c-3.3,16.1-6.6,32.3-9.8,48.4c-1.5,7.9-1.1,14,1.2,18.1c2.4,4.2,7,6.5,13.7,6.8
		c0.6,0,1.1,0,1.6,0c7.5,0,13.9-2.5,18.9-7.2c5.3-5.1,9.1-12.3,11-21.4c3.1-14.8,6.2-29.8,9.3-44.6c0.8-3.9,2.5-6.8,4.8-8.5
		c2.1-1.5,4.9-2.3,8.3-2.3c0.4,0,0.8,0,1.3,0c4.3,0.3,7.4,1.5,9.1,4c1.7,2.4,2.1,5.9,1.2,10.3c-5.7,26.1-11.4,52.7-17,79
		C939.4,1193.9,935.1,1197.4,927.9,1197.4z"/>
	
		<linearGradient id="SVGID_00000065061682858285897010000012903609259702122373_" gradientUnits="userSpaceOnUse" x1="104.8693" y1="1096.0256" x2="104.8693" y2="944.8677" gradientTransform="matrix(1 0 0 -1 894 2145.2632)">
		<stop  offset="0" style="stop-color:#FF6700"/>
		<stop  offset="1" style="stop-color:#FFA732"/>
	</linearGradient>
	<path style="fill:url(#SVGID_00000065061682858285897010000012903609259702122373_);" d="M981.7,1200.4c-0.5,0-0.9,0-1.4-0.1
		c-3.8-0.3-6.4-1.6-8.1-4.2c-1.6-2.6-2-6.3-1-10.8c5.6-25.6,11.4-51.7,17.2-77.7c0.9-4.1,2.7-7.1,5.2-9c2.2-1.7,5.2-2.5,8.7-2.5
		c0.5,0,1,0,1.5,0.1c3.9,0.3,6.6,1.6,8.2,4.2c1.6,2.5,1.9,6.2,1,10.9c-5.8,25.6-11.7,51.7-17.5,77.6c-0.9,4.1-2.6,7.1-5.1,9
		C988.1,1199.6,985.2,1200.4,981.7,1200.4z M1010.4,1075.1c-0.7,0-1.4,0-2-0.1c-4.7-0.3-8.1-1.6-10.2-3.8c-2-2.3-2.8-5.3-2.1-9.2
		c0.8-4.5,2.8-7.8,5.9-9.9c2.7-1.9,6.3-2.8,10.6-2.8c0.6,0,1.3,0,1.9,0.1c4.7,0.3,8.1,1.6,10.3,3.9c2.1,2.3,2.8,5.3,1.9,9.2
		c-0.8,4.5-2.8,7.9-5.8,10C1018.3,1074.2,1014.7,1075.1,1010.4,1075.1z"/>
	
		<linearGradient id="SVGID_00000147923608344715995660000003992775745707376305_" gradientUnits="userSpaceOnUse" x1="177.9314" y1="1044.4045" x2="177.9314" y2="938.9398" gradientTransform="matrix(1 0 0 -1 894 2145.2632)">
		<stop  offset="0" style="stop-color:#FF6700"/>
		<stop  offset="1" style="stop-color:#FFA732"/>
	</linearGradient>
	<path style="fill:url(#SVGID_00000147923608344715995660000003992775745707376305_);" d="M1096.2,1206.3c-0.4,0-0.8,0-1.3-0.1
		c-21.2-1.6-42.7-3.1-64-4.5c-2.8-0.2-5-0.8-6.6-2.1c-1.6-1.2-2.6-2.7-3.2-4.5c-0.5-1.8-0.4-3.8,0.3-5.9c0.8-2.1,2.2-4.2,4.3-6.2
		c21.4-19.9,43.2-39.9,64.9-59.5c0.3-0.3,0.4-0.7,0.3-1c-0.2-0.3-0.4-0.6-0.8-0.7c-14-1-28.1-2-42.1-3c-3.2-0.3-5.7-1.1-7.3-2.5
		c-1.5-1.4-2.3-3.2-2.1-5.4c0.3-3.4,1.4-5.9,3.6-7.7c1.9-1.5,4.3-2.3,7.2-2.3c0.3,0,0.8,0,1.1,0c20.8,1.4,41.9,3,62.6,4.5
		c2.9,0.3,5.2,0.9,6.9,2.2c1.7,1.2,2.7,2.7,3.1,4.5c0.4,1.8,0.2,3.8-0.7,6.1c-0.9,2.3-2.6,4.5-5,6.6c-21.6,19.3-43.3,39.1-64.7,58.7
		c-0.3,0.3-0.3,0.7-0.3,1s0.4,0.6,0.8,0.6c14.8,1,29.7,2.1,44.3,3.2c3.7,0.3,6.4,1.3,7.8,3c1.1,1.3,1.5,3,1.4,5.1
		c-0.3,3.3-1.4,5.8-3.6,7.5C1101.4,1205.6,1099,1206.3,1096.2,1206.3z"/>
	<path class="st3" d="M617.8,1083.6c-3.5-4.2-9.8-9.2-20.9-9.2c-6.1,0-11.6,1.4-16.4,4.2c-3.4,1.9-6.8,4.7-10.6,8.2
		c-1.7,1.5-3.5,3.1-5.2,4.7c1.4-8.9,2.7-17.8,4.1-26.6c0.1-0.1,0.1-0.2,0.1-0.3c1.4-9.6-0.3-17.6-4.9-24.2
		c-5.2-7.3-13.2-11.3-22.8-11.3H541c-8.3,0.1-15.3,2.4-20.9,7c-4.1,3.4-9.3,9.7-11,20.7c-1.4,9.4-2.8,18.8-4.2,28.2
		c-1-0.7-2-1.3-3.1-1.9c-0.2,0-0.3-0.1-0.4-0.2c-5-2.5-10.7-4.4-17-5.8c-5.8-1.3-11.6-1.9-17.5-1.9c-0.5,0-1,0-1.5,0
		c-12.4,0.3-23.5,2.7-33,7.3c-9.3,4.5-17.1,10.7-23.2,18.1c-0.8-4.7-2.6-8.7-5.3-12.4c-0.1-0.1-0.1-0.2-0.2-0.3
		c1.4-0.8,2.6-1.8,3.8-2.8c4.5-3.8,10-10.9,11.1-22.6c1-9.7-2.1-18.5-8.7-24.5c-5.6-5-12.8-7.5-21.4-7.5c-0.5,0-0.9,0-1.4,0
		c-9.1,0.3-16.8,3-22.8,8.1c-4.7,3.8-10.3,11-11.4,23c0,0.2,0,0.3,0,0.3c-0.6,9.1,2.1,17.2,7.8,23c-0.4,0.4-0.8,0.8-1.2,1.1
		c-2.1,1.9-4.5,4.7-6.4,8.5c-1-2.1-2.3-3.8-3.4-5.2c-3.7-4.3-10.4-9.5-22-9.5c-0.5,0-1.1,0-1.6,0c-8.1,0.3-14.8,3-20.2,7.7
		c-3.8,3.4-8.6,9.8-10,20.4c0,0.1,0,0.1,0,0.2c-1.8,14.9-3.4,29.9-5.1,44.8c-0.6,5.3-2,9.4-4.3,12c-0.9,1-2,2-4.4,2.5
		c0-0.8,0.1-1.6,0.2-2.6c1.7-16.1,3.4-32.3,5.2-48.5c0-0.1,0-0.1,0-0.2c1.3-12.5-3.1-20.2-7-24.4c-3.6-4-10.3-8.7-21.2-8.7
		c-0.6,0-1.3,0.1-1.9,0.1c-8.1,0.4-14.8,3.1-20.1,7.9c-1.9,1.8-4,4.2-5.8,7.5c-2.1-7.6-5.3-14.7-9.2-20.9
		c-7.8-12.2-18.5-21.4-31.7-27.1c-10.5-4.7-22.4-7-35.4-7c-2.5,0-5.3,0.1-7.9,0.3c-14.5,1-27.6,4.7-39.1,10.9
		c-11.4,6.2-21.2,14.7-28.8,25c-7.5,10.1-13,21.9-16.3,35c-3.2,12.7-4.2,26.4-3.1,40.9c1.3,16.6,5.8,31,13.6,42.8
		c8,12.1,18.7,21.1,31.8,26.8c10.3,4.4,21.9,6.7,34.4,6.7c1,0,2-0.1,3.1-0.1c0.2,0,0.4,0,0.6,0c0.4,0,0.8,0,1.2,0
		c0.8-0.1,1.6-0.1,2.3-0.1c1.4,0,2.4,0.1,2.8,0.2c0.1,0.2,0.2,0.3,0.3,0.5c3.6,6.8,7.2,13.6,10.8,20.4c0.1,0.1,0.1,0.2,0.2,0.3
		c3.5,6.4,8.2,10.9,14.1,13.7c4.1,1.9,8.3,2.9,12.6,2.9c1.6,0,3.3-0.2,5.1-0.4c5.6-0.9,10.6-3.4,14.9-7.1c4.9-4.3,8.1-10.1,9.2-16.8
		c1.2-6.8-0.2-13.7-4-20.5c-2.6-4.9-5.3-9.8-7.9-14.7c-0.4-0.7-0.8-1.4-1.2-2c3.8-3.6,7.4-7.5,10.6-11.8c2.9-3.9,5.5-8.1,7.9-12.4
		c0.7,4.2,1.7,8.1,3.1,11.7c4,10.2,10.9,18,19.7,22.7c7.1,3.7,15.3,5.7,24.2,5.7c1,0,2.1-0.1,3.3-0.2c9.7-0.5,18.5-3,26.3-7.4
		c3.8,2.7,9.2,4.9,16.5,4.9c0.5,0,1.1,0,1.6,0c12-0.6,21.4-6.4,26.3-16c0.6,1.2,1.4,2.3,2.1,3.3c5.1,7,12.9,10.8,22,10.8
		c0.3,0,0.8,0,1.4-0.2c8.6-0.3,15.9-3.1,21.3-8.3c5.3-5.1,8.6-12,9.7-20.5c0.2-1.2,0.3-2.5,0.4-3.6c0,0,0,0.1,0.1,0.1
		c5.4,10.1,13.5,17.9,23.7,23.2c9.2,4.7,20.3,7.2,33,7.2c0.8,0,1.4,0,2.2-0.2c5.8-0.2,12-1,18.6-2.7c7.1-1.8,13.3-4.3,18.4-7.6
		c0.3-0.3,0.7-0.4,0.9-0.7c5.1,6.3,12.6,9.7,21.5,9.7l0.3-0.2c16.4-0.2,28.2-9.9,31.3-25.6c2.5,3,4.8,6,7.3,9c0,0.1,0.1,0.1,0.1,0.2
		c3.6,4.3,6.7,7.5,9.7,9.9c5.1,4.1,11.4,6.1,19,6.1c9.8,0,16.1-4.2,19.8-7.7c5-4.9,8-11.3,8.5-18.5c0.4-5.1-0.4-12.9-6.7-20.8
		c-6-7.5-12-15.2-18.1-22.8c8-7.5,16-15.1,24.1-22.6c7.1-6.7,9.3-13.9,9.9-18.7C624.5,1096.6,622.5,1089.2,617.8,1083.6z
		 M169.6,1151.6c-2.2,6.8-5.4,12-9.9,15.9c-4,3.6-9.2,5.5-15.9,5.9c-0.9,0.1-1.8,0.1-2.6,0.1c-7.3,0-10.8-2.4-12.8-4.2
		c-4.6-4.1-6-12.6-6.5-19.2c-0.8-10.2,0.1-19.2,2.5-26.8c2.1-6.7,5.3-11.9,9.7-15.7c4.2-3.6,9.4-5.5,16.1-5.9
		c0.9-0.1,1.9-0.1,2.7-0.1c5.8,0,10.1,1.4,13.3,4.2c4.5,4.1,5.9,12.5,6.3,18.9C173,1134.8,172,1143.8,169.6,1151.6z M483.7,1155.5
		c-4.1,0-8.1,1-12,3.1c-0.2,0.1-0.3,0.2-0.5,0.3c-2.4,1.4-4.2,2-5.2,2.3c-1.7,0.4-3.2,0.7-4.6,0.7c-0.3,0-0.4,0-0.7,0
		c-4.1,0-5.6-0.8-5.8-0.9c-1.3-1.6-2-4.3-2.1-8.1c-0.1-3.3,0.3-6.7,1-9.8c0.7-2.7,1.6-5.1,3.1-7.3c1-1.4,2.2-2.6,3.9-3.6
		c1.6-0.9,4.2-1.4,7.3-1.5c0.3,0,0.4,0,0.6,0c1.9,0,3.6,0.3,5.3,0.6c1.6,0.4,3.4,1.1,5.3,2.1c4.2,2.2,8.4,3.3,12.6,3.3
		c1.9,0,3.7-0.3,5.5-0.6c-1.1,7.3-2.1,14.6-3.1,21.9c-1.7-0.8-3.6-1.4-5.4-1.9C487.1,1155.6,485.4,1155.5,483.7,1155.5z"/>
	<path class="st4" d="M209.5,1081.4c-6.8-10.6-16-18.5-27.5-23.5c-9.3-4.1-19.9-6.1-31.6-6.1c-2.4,0-4.8,0.1-7.3,0.3
		c-13.1,0.9-25,4.2-35.3,9.8c-10.2,5.6-18.8,13.1-25.7,22.3c-6.8,9.2-11.7,19.8-14.8,31.7c-3,11.7-3.9,24.4-2.9,37.9
		c1.1,15,5.2,27.9,12,38.2c6.9,10.5,16.2,18.3,27.6,23.2c9.2,3.9,19.5,5.9,30.8,5.9c1.1,0,2.2-0.1,3.3-0.1c0.2,0,0.3,0,0.5,0
		c0.2,0,0.3,0,0.5,0c1.1-0.1,2.1-0.1,3.1-0.1c3.9,0,6.1,0.7,7.3,1.2c1.9,0.8,3.6,2.5,4.8,4.9c3.6,7,7.3,13.8,10.9,20.8
		c0.1,0,0.1,0.1,0.1,0.1c2.5,4.5,5.6,7.6,9.5,9.5c2.8,1.3,5.6,1.9,8.5,1.9c1,0,2.1-0.1,3.2-0.4c3.8-0.7,7.2-2.3,10.1-4.8
		c3.2-2.7,5.2-6.4,5.9-10.8c0.8-4.4-0.2-9-2.9-13.7c-2.6-5-5.3-9.9-8-14.9c-1.9-3.6-4-6.5-6.4-9c6.4-4.6,12-10.1,16.8-16.4
		c6.8-9.1,11.8-19.6,15-31.4c3.1-11.7,4.4-24.5,3.6-38.1C219.9,1104.8,216.2,1091.9,209.5,1081.4z M175.1,1153.8
		c-2.8,8.6-7.2,15.7-13.1,20.9c-5.8,5.1-13,7.9-22,8.5c-1.1,0.1-2.2,0.1-3.3,0.1c-8.1,0-14.6-2.3-19.8-6.9
		c-5.8-5.2-9.2-14.1-10.1-26.5c-0.8-11.5,0.2-22,3-31c2.8-8.7,7-15.5,13.1-20.7c5.8-5.1,13.1-7.9,22.2-8.5c1.2-0.1,2.3-0.1,3.4-0.1
		c8.5,0,15.1,2.3,20.3,6.9c5.8,5.3,9,14.1,9.7,26.4C179.2,1134.3,178,1144.8,175.1,1153.8z"/>
	<path class="st4" d="M324.9,1088.8c-0.3,0-0.8,0-1.2,0c-5.7,0.3-10.4,1.9-14,5.2c-3.6,3.2-5.8,8-6.6,14.1
		c-1.7,15.1-3.4,30.2-5.1,45.3c-0.8,7.6-3.1,13.7-6.9,18c-3.4,3.9-7.9,6-13.8,6.3c-0.4,0-0.8,0-1.1,0c-4.7,0-5.7-1.5-6-2
		c-0.8-1.3-2.2-4.6-1.4-12.5c1.7-16.4,3.5-32.7,5.3-49.2c0.7-7-0.8-12.5-4.4-16.4c-2.3-2.5-6.5-5.5-13.8-5.5c-0.4,0-0.9,0-1.4,0
		c-5.8,0.3-10.4,2-14,5.3c-3.6,3.3-5.8,8.1-6.5,14.2c-1.9,17.2-3.7,34.5-5.6,51.8c-1.1,11.2-0.3,20.7,2.7,28.1
		c3.1,8,8.2,13.8,15,17.5c5.7,3.1,12.3,4.6,19.7,4.6c0.9,0,1.9-0.1,2.8,0.1c9.7-0.4,18.2-3.2,25.6-8.3c0.9-0.7,1.9-1.4,2.8-2.1
		c0.6,1,1.3,1.9,2,2.7c3.3,3.4,7.7,5.2,13.3,5.2c0.4,0,0.8,0,1.2,0c11.7-0.5,19.2-7.5,20.4-19.4c3.1-26.6,6.3-53.7,9.4-80.3
		c0.8-6.9-0.6-12.5-4-16.4C336.9,1092.1,332.6,1088.8,324.9,1088.8z"/>
	<path class="st4" d="M379.3,1086.7c-0.3,0-0.6,0-0.8,0c-6,0.3-11,2-14.8,5.5c-3.7,3.4-6,8.3-6.8,14.4c-3.2,26-6.5,52.6-9.7,79
		c-0.7,6.7,0.5,12.2,3.6,16.4c2.3,3.1,6.5,6.7,14.1,6.7c0.3,0,0.6,0,0.8,0c6.2-0.3,11.2-2.1,14.8-5.6c3.6-3.4,5.8-8.2,6.5-14.3
		c3.3-25.9,6.7-52.5,10.1-78.8v-0.1c0.8-6.9-0.4-12.5-3.6-16.6C391.2,1090.3,386.8,1086.7,379.3,1086.7z"/>
	<path class="st4" d="M406.3,1059.7c0.9-8.3-2.4-13.2-5.3-15.9c-3.6-3.3-8.6-5-14.8-5c-0.3,0-0.8,0-1.1,0
		c-6.9,0.3-12.5,2.1-16.8,5.8c-4.6,3.8-7.1,9.2-7.7,16c0,0.1,0,0.1,0,0.2c-0.5,8.1,2.7,12.9,5.5,15.5c3.6,3.3,8.5,5,14.7,5
		c0.3,0,0.8,0,1,0c7-0.2,12.6-2.1,16.9-5.8C403.1,1071.8,405.7,1066.4,406.3,1059.7z"/>
	<path class="st4" d="M494.1,1170.5c-2.3-2.5-5.2-4.3-8.5-5c-0.9-0.3-2-0.3-3-0.3c-2.5,0-5,0.6-7.4,1.9c0,0-0.1,0.1-0.2,0.1
		c-2.8,1.6-5.4,2.7-7.8,3.3c-2.5,0.6-4.8,0.9-7,1c-0.3,0-0.6,0-0.8,0c-6.5,0-11.1-1.5-13.7-4.5c-3.1-3.6-4.6-8.5-4.7-14.9
		c-0.1-4.3,0.3-8.6,1.3-12.6c0.9-3.8,2.5-7.5,4.5-10.7c1.9-3,4.3-5.3,7.5-7.1c3.2-1.8,7.3-2.7,12.2-2.8c0.3,0,0.5,0,0.8,0
		c2.7,0,5.3,0.3,7.7,0.8c2.5,0.6,5.3,1.7,8,3.1c2.6,1.4,5.3,2.1,7.9,2.1c1.2,0,2.4-0.2,3.6-0.5c3.4-0.9,6.3-2.8,8.5-5.6
		c2-2.5,3.3-5.6,3.8-9c0.5-3.7-0.1-7.3-1.9-10.8c-1.8-3.3-4.7-6-8.8-8.2c-0.1,0-0.1-0.1-0.2-0.1c-4.3-2.1-9.3-3.8-14.8-5.1
		c-5.1-1.1-10.3-1.7-15.4-1.7c-0.4,0-0.9,0-1.4,0c-11,0.3-20.9,2.4-29.1,6.4c-8.3,4.1-15.2,9.4-20.5,16.1
		c-5.2,6.5-9.1,14.1-11.4,22.3c-2.3,8.1-3.4,16.4-3.1,24.8c0.3,10.4,2.6,19.8,7,27.8c4.5,8.3,11.1,14.8,19.7,19.2
		c7.8,4.1,17.5,6.1,28.6,6.1c0.6,0,1.3,0,2,0c5.2-0.2,10.7-0.9,16.6-2.5c6.2-1.5,11.4-3.7,15.6-6.4c3.7-2.5,6.4-5.3,7.7-8.7
		c1.4-3.3,1.7-6.7,1-10C497.6,1175.8,496.2,1173,494.1,1170.5z"/>
	<path class="st4" d="M610.2,1088.6c-2-2.5-6-5.5-13.1-5.5c-4.3,0-8.2,0.9-11.4,2.8c-2.7,1.5-5.6,3.8-8.8,6.9
		c-9,8.2-18,16.6-27,24.9c2.9-18.8,5.8-37.7,8.6-56.5v-0.1c0.9-6.8-0.1-12.5-3.1-16.7c-2.3-3.2-6.6-7-14.7-7h-0.2
		c-5.9,0.1-10.9,1.7-14.8,4.7c-3.9,3.2-6.4,8.1-7.4,14.2c-6.2,41.5-12.3,83.7-18.3,125.4c-0.9,6.7,0.2,12.2,3.2,16.4
		c2.3,3.1,6.6,6.9,14.4,6.9l0.1-0.1c12.2-0.2,20.1-7.1,21.8-19c1-7,2.1-14.1,3.1-21.1c7.5,9.1,14.8,18.1,22.2,27.2
		c3.2,3.8,5.9,6.6,8.3,8.6c3.2,2.6,7.5,4,12.8,4c5.2,0,9.5-1.6,12.8-4.8c3.2-3.1,5.1-7.2,5.4-11.9c0.3-4.8-1.2-9.4-4.6-13.6
		c-8-10.2-16.1-20.5-24.2-30.7c10.4-9.9,20.9-19.8,31.5-29.7c3.9-3.7,6.2-8,6.8-12.5C614.2,1096.6,613,1092.2,610.2,1088.6z"/>
	<path class="st5" d="M203.6,1081.8c-6-9.4-14.2-16.4-24.3-20.9c-10.3-4.5-22.1-6.3-35.7-5.3c-12.3,0.8-23.1,3.8-32.5,8.9
		c-9.3,5.1-17.1,11.9-23.4,20.3c-6.3,8.4-10.8,18.1-13.6,29.2c-2.8,10.9-3.7,22.8-2.7,35.5c1.1,13.9,4.7,25.4,10.9,34.8
		c6.2,9.4,14.2,16.3,24.4,20.6c9.4,4,20.1,5.8,32,5.3c5.8-0.4,10.4,0.2,13.7,1.7c3.3,1.5,6,4.2,8.1,8.1c3.6,7,7.3,13.8,10.9,20.8
		c1.7,3.1,3.8,5.3,6.4,6.5c2.5,1.2,5,1.5,7.5,1.1c2.5-0.5,4.7-1.5,6.7-3.2c1.9-1.7,3.1-3.9,3.6-6.6c0.4-2.7-0.3-5.7-2.1-9
		c-2.6-5-5.3-10-7.9-15c-3.1-5.6-6.5-9.4-10.6-11.4c-0.8-0.4-1.8-0.8-2.8-1.1c0.3-0.2,0.8-0.3,1.1-0.6c9.2-5,17-11.7,23.2-20
		c6.2-8.3,10.9-18,13.8-28.9c3-10.9,4.1-22.8,3.4-35.7C213,1102.8,209.6,1091.2,203.6,1081.8z M181.7,1152.3
		c-3.1,10-8.2,18.1-15.2,24.1c-7,6-15.6,9.4-26.1,10.2c-11.6,0.8-21-2-28.2-8.6c-7.3-6.4-11.4-16.9-12.5-31.3
		c-0.9-12.5,0.2-23.8,3.3-33.7c3.1-9.9,8.1-18,15.2-24c7-6.1,15.8-9.5,26.3-10.2c12-0.8,21.6,2.1,28.8,8.6
		c7.2,6.6,11.3,17,12.1,31.3C186.1,1131.1,184.9,1142.3,181.7,1152.3z"/>
	<path class="st5" d="M323.9,1092.1c-4.2,0.2-7.4,1.3-9.7,3.4c-2.4,2-3.8,5.3-4.3,9.5c-1.7,15.1-3.4,30.2-5.1,45.3
		c-1,9.2-3.9,16.4-8.6,21.9c-4.7,5.4-10.9,8.4-18.7,8.7c-6.4,0.3-10.8-1.4-13.2-5.1c-2.5-3.7-3.4-9.5-2.6-17.3
		c1.7-16.4,3.5-32.8,5.3-49.2c0.5-4.8-0.3-8.5-2.5-10.9c-2.1-2.4-5.4-3.5-9.8-3.2c-4.2,0.2-7.4,1.4-9.7,3.5
		c-2.3,2.1-3.6,5.3-4.2,9.6c-1.9,17.2-3.7,34.5-5.6,51.7c-1,10.1-0.3,18.4,2.3,24.8c2.5,6.4,6.4,11,11.8,13.8
		c5.3,2.9,11.6,4.1,18.9,3.7c8.4-0.4,15.8-2.8,21.9-7c4.7-3.2,8.6-7.5,11.6-12.8c-0.1,1.4-0.3,2.7-0.3,4.1
		c-0.3,4.7,0.5,8.1,2.5,10.3c2,2.1,5.1,3.1,9.2,3c8.2-0.4,12.8-4.7,13.7-13.1c3.1-26.8,6.3-53.5,9.4-80.3c0.6-4.8-0.2-8.5-2.3-10.9
		C331.7,1093.1,328.4,1092,323.9,1092.1z"/>
	<path class="st5" d="M385.3,1042.3c-5.3,0.2-9.5,1.6-12.5,4.2c-3,2.5-4.7,6.3-5.2,11.1c-0.3,4.2,0.8,7.5,3.2,9.8
		c2.4,2.2,6,3.3,10.9,3.1c5.3-0.2,9.6-1.6,12.5-4.2c3.1-2.5,4.7-6.3,5.2-11.1c0.4-4.2-0.6-7.5-3.1-9.8
		C393.9,1043.2,390.2,1042.1,385.3,1042.3z"/>
	<path class="st5" d="M378.8,1090.1c-4.4,0.2-7.9,1.4-10.3,3.6c-2.5,2.3-4,5.6-4.6,10c-3.3,26.3-6.5,52.6-9.8,78.9
		c-0.5,4.8,0.3,8.6,2.2,11.3c2,2.7,5,4,9.1,3.8c4.5-0.2,7.9-1.4,10.2-3.6c2.4-2.3,3.8-5.6,4.4-10c3.3-26.4,6.7-52.6,10.1-78.9
		c0.6-4.9-0.1-8.7-2.1-11.4C386,1091.2,382.9,1089.9,378.8,1090.1z"/>
	<path class="st5" d="M492.7,1093.4c-3.8-2-8.2-3.5-13.2-4.6c-5-1.1-10.1-1.6-15.2-1.5c-10.1,0.3-18.8,2.1-26.2,5.7
		c-7.4,3.6-13.4,8.3-18.1,14.2c-4.7,5.8-8.1,12.5-10.2,19.8c-2.1,7.4-3.1,14.8-2.9,22.5c0.3,9.3,2.3,17.5,6.1,24.6
		c3.8,7,9.4,12.4,16.7,16.2c7.3,3.8,16.4,5.6,27.3,5.3c4.7-0.1,9.7-0.8,15-1.9c5.4-1.4,10-3.2,13.6-5.5c2.5-1.6,4.1-3.4,4.9-5.4
		c0.8-2,1-4,0.7-5.8c-0.3-2-1.2-3.6-2.5-5.1c-1.3-1.4-2.8-2.4-4.7-2.8c-1.9-0.4-3.7-0.1-5.7,0.9c-3.3,1.9-6.5,3.2-9.5,4
		c-3,0.8-5.8,1.1-8.5,1.2c-9.2,0.2-15.9-2.2-20-7c-4.1-4.9-6.3-11.4-6.4-19.4c-0.2-5,0.3-9.8,1.4-14.5c1.1-4.7,2.9-9,5.4-13
		c2.5-4,5.9-7.1,10.1-9.5c4.2-2.4,9.3-3.6,15.4-3.7c3.6,0,6.9,0.3,10.1,1c3.2,0.7,6.4,2,9.8,3.7c2.3,1.3,4.4,1.6,6.4,1.1
		c1.9-0.5,3.6-1.5,4.8-3.1c1.3-1.6,2-3.5,2.4-5.6c0.3-2.1-0.1-4.2-1.2-6.3C497.6,1096.7,495.6,1094.9,492.7,1093.4z"/>
	<path class="st5" d="M605,1089.7c-1.7-2-4.2-3-7.8-3c-3.1,0-5.8,0.7-8,2c-2.2,1.3-4.7,3.2-7.5,5.9c-13.8,12.6-27.6,25.3-41.2,38.2
		c-0.2,0-0.3,0-0.4,0c3.8-25.4,7.7-50.7,11.6-76c0.7-4.9,0.1-8.8-1.9-11.5c-1.9-2.7-5-4.1-9.2-4.1c-4.5,0-8,1.1-10.5,3.1
		c-2.5,2-4.2,5.3-4.8,9.7c-6.2,41.7-12.3,83.4-18.3,125.2c-0.6,4.7,0,8.6,1.9,11.2c2,2.6,4.9,4,9,3.9c8.8-0.1,13.7-4.4,14.9-13
		c1.8-12.1,3.6-24.2,5.3-36.4c0.2,0,0.3,0,0.4,0c10.7,13,21.3,25.9,31.8,38.9c2.9,3.4,5.3,5.9,7.3,7.5c2,1.6,4.8,2.5,8.5,2.5
		c3.4,0,6-0.9,8-2.9c1.9-1.9,3.1-4.3,3.2-7.2c0.2-2.9-0.8-5.8-3.1-8.6c-9.4-12-18.8-23.9-28.3-35.8c12-11.4,24.2-22.9,36.3-34.3
		c2.7-2.5,4.2-5.3,4.6-8.1C607.3,1094.1,606.6,1091.6,605,1089.7z"/>
	
		<linearGradient id="SVGID_00000077304635920917319110000012249759829758791315_" gradientUnits="userSpaceOnUse" x1="-760.5718" y1="1092.9038" x2="-760.5718" y2="901.5594" gradientTransform="matrix(1 0 0 -1 894 2145.2632)">
		<stop  offset="0" style="stop-color:#FF6700"/>
		<stop  offset="1" style="stop-color:#FFA732"/>
	</linearGradient>
	<path style="fill:url(#SVGID_00000077304635920917319110000012249759829758791315_);" d="M174.9,1243.7c-1.7,0-3.5-0.4-5.2-1.2
		c-2.4-1.1-4.4-3.1-6-6.1c-3.7-6.9-7.5-13.8-11.2-20.8c-2.2-4-5.1-6.9-8.6-8.5c-2.8-1.3-6.4-1.9-10.9-1.9c-1,0-2.1,0-3.3,0.1
		c-0.1,0-0.2,0-0.2,0c-1.4,0.1-2.7,0.1-4,0.1c-10.4,0-19.9-1.8-28.3-5.3c-10.1-4.2-18.4-11-24.5-20.3c-6.2-9.2-9.8-20.8-10.9-34.3
		c-1-12.5-0.1-24.4,2.7-35.3c2.8-10.9,7.4-20.5,13.6-28.8c6.3-8.3,14.2-15,23.6-20c9.4-5,20.4-8,32.7-8.8c2.3-0.2,4.7-0.3,6.9-0.3
		c10.8,0,20.6,1.9,29.1,5.5c10.2,4.3,18.4,11.3,24.4,20.5c6,9.2,9.5,20.8,10.3,34.4c0.7,12.6-0.4,24.6-3.5,35.4
		c-3,10.8-7.7,20.3-14,28.6c-6.3,8.1-14.2,14.8-23.4,19.7c-0.4,0.3-0.8,0.4-1.3,0.7c-0.3,0.2-0.5,0.5-0.5,0.9c0,0.4,0.3,0.7,0.7,0.8
		c0.9,0.3,1.9,0.7,2.8,1.1c3.9,1.9,7.5,5.6,10.3,11c2.7,5,5.4,10,8.2,15c1.8,3,2.5,5.9,2,8.4c-0.4,2.5-1.5,4.5-3.3,6
		c-1.8,1.5-4,2.5-6.4,3C176.3,1243.6,175.6,1243.7,174.9,1243.7z M139.3,1074c-1.3,0-2.6,0.1-4,0.2c-10.9,0.8-20.1,4.2-27.4,10.3
		c-7.2,6.1-12.5,14.3-15.8,24.4c-3.2,10-4.3,21.4-3.4,34.2c1.1,14.6,5.4,25.3,13,32c6.7,5.8,15.3,8.9,25.5,8.9c1.3,0,2.6-0.1,4-0.2
		c10.9-0.8,20-4.2,27.2-10.4c7.2-6.2,12.5-14.4,15.8-24.5c3.3-10.1,4.6-21.5,3.8-34c-0.8-14.5-5.2-25.2-12.7-31.9
		C158.6,1077,149.9,1074,139.3,1074z"/>
	
		<linearGradient id="SVGID_00000067929253748224071490000015751288371599675312_" gradientUnits="userSpaceOnUse" x1="-614.4919" y1="1055.9323" x2="-614.4919" y2="947.5023" gradientTransform="matrix(1 0 0 -1 894 2145.2632)">
		<stop  offset="0" style="stop-color:#FF6700"/>
		<stop  offset="1" style="stop-color:#FFA732"/>
	</linearGradient>
	<path style="fill:url(#SVGID_00000067929253748224071490000015751288371599675312_);" d="M259,1197.6c-6.2,0-11.7-1.3-16.3-3.6
		c-5.2-2.7-9.1-7.2-11.5-13.3c-2.5-6.2-3.2-14.4-2.2-24.3c1.9-17.2,3.7-34.5,5.7-51.7c0.5-4,1.8-7,4-9c2.2-2,5.3-3.1,9.2-3.2
		c0.3,0,0.8,0,1.1,0c3.6,0,6.4,1,8.2,3c2,2.1,2.8,5.5,2.4,10.1c-1.8,16.4-3.6,32.7-5.3,49.2c-0.8,8.1,0.2,14.1,2.9,18
		c2.5,3.6,6.9,5.5,12.8,5.5c0.5,0,1,0,1.5,0c8.2-0.4,14.9-3.5,19.8-9.1c4.9-5.6,7.9-13.1,9-22.4c1.7-15.1,3.5-30.2,5.2-45.3
		c0.5-4,1.9-7,4.1-8.9c2.2-2,5.3-3,9.2-3.1c0.3,0,0.6,0,0.9,0c3.8,0,6.7,1,8.5,3.1c1.9,2.2,2.6,5.7,2.1,10.3
		c-3.2,26.6-6.4,53.6-9.6,80.3c-0.9,7.9-5.2,12-13.1,12.3c-0.3,0-0.6,0-0.8,0c-3.4,0-6-0.9-7.7-2.7c-1.9-2-2.7-5.2-2.4-9.6l0.4-4.1
		c0.1-0.4-0.3-0.8-0.7-1c-0.1,0-0.2-0.1-0.3-0.1c-0.3,0-0.7,0.2-0.8,0.5c-3.1,5.1-7,9.3-11.6,12.5c-6.3,4.2-13.6,6.5-22,7
		C260.6,1197.6,259.8,1197.6,259,1197.6z"/>
	
		<linearGradient id="SVGID_00000009558744090749584240000001771575989403223467_" gradientUnits="userSpaceOnUse" x1="-521.612" y1="1105.7789" x2="-521.612" y2="952.2421" gradientTransform="matrix(1 0 0 -1 894 2145.2632)">
		<stop  offset="0" style="stop-color:#FF6700"/>
		<stop  offset="1" style="stop-color:#FFA732"/>
	</linearGradient>
	<path style="fill:url(#SVGID_00000009558744090749584240000001771575989403223467_);" d="M360.2,1193c-3.6,0-6.1-1.1-7.9-3.5
		c-1.9-2.5-2.5-6-2-10.6c3.2-26.3,6.6-52.8,9.9-78.9c0.5-4.2,2-7.4,4.3-9.4c2.4-2.1,5.7-3.2,9.9-3.4c0.2,0,0.4,0,0.6,0
		c3.6,0,6.3,1.1,8,3.4c1.9,2.4,2.5,6,2,10.7c-3.5,26.3-7,52.9-10.3,78.9c-0.5,4.2-2,7.4-4.2,9.4c-2.2,2.1-5.5,3.2-9.8,3.4
		C360.6,1193,360.4,1193,360.2,1193z M376.4,1065.7c-4.2,0-7.4-1-9.5-2.9c-2.3-2-3.2-5-3-9c0.4-4.5,2-8.1,5-10.4
		c3-2.5,7-3.7,12.2-3.9c0.3,0,0.6,0,0.9,0c4.2,0,7.5,1,9.7,3c2.3,2,3.2,5,2.8,9c-0.4,4.6-2,8.1-4.9,10.4c-2.9,2.4-7,3.7-12.3,3.9
		C377,1065.7,376.7,1065.7,376.4,1065.7z"/>
	
		<linearGradient id="SVGID_00000003822423863387537880000017668277923937070252_" gradientUnits="userSpaceOnUse" x1="-443.2715" y1="1060.9279" x2="-443.2715" y2="954.4436" gradientTransform="matrix(1 0 0 -1 894 2145.2632)">
		<stop  offset="0" style="stop-color:#FF6700"/>
		<stop  offset="1" style="stop-color:#FFA732"/>
	</linearGradient>
	<path style="fill:url(#SVGID_00000003822423863387537880000017668277923937070252_);" d="M452.6,1190.8c-10.1,0-18.6-1.8-25.5-5.3
		c-7.2-3.6-12.8-9-16.6-15.9c-3.8-6.9-5.8-15-6.1-24.2c-0.2-7.5,0.8-15,2.9-22.2c2.1-7.2,5.6-13.7,10.3-19.5
		c4.7-5.7,10.8-10.4,18.1-13.9c7.4-3.5,16.2-5.3,26.3-5.6c0.4,0,0.8,0,1.3,0c4.7,0,9.4,0.5,14,1.5c5,1.1,9.5,2.6,13.3,4.5
		c2.7,1.4,4.6,3.1,5.6,4.9c1,1.9,1.4,3.7,1.1,5.7c-0.3,1.9-1,3.6-2.2,5.1c-1.2,1.4-2.6,2.4-4.4,2.8c-0.5,0.2-1.1,0.2-1.6,0.2
		c-1.3,0-2.7-0.4-4.2-1.2c-3.4-1.8-6.9-3.1-10.2-3.8c-3.1-0.7-6.3-1-9.6-1c-0.3,0-0.6,0-0.9,0c-6.4,0.1-11.8,1.4-16.2,3.8
		c-4.4,2.5-8,5.7-10.6,9.7c-2.6,4-4.5,8.5-5.7,13.3c-1.1,4.7-1.6,9.7-1.5,14.8c0.2,8.2,2.5,15,6.8,20c4.2,4.8,10.9,7.4,20.1,7.4
		c0.3,0,0.7,0,1.1,0c2.8-0.1,5.8-0.5,8.9-1.3s6.4-2.1,9.9-4.1c1.3-0.7,2.5-1,3.7-1c0.4,0,0.9,0.1,1.4,0.2c1.7,0.3,3.1,1.2,4.2,2.5
		c1.2,1.4,1.9,2.9,2.3,4.6c0.3,1.7,0.2,3.5-0.6,5.3c-0.8,1.8-2.3,3.5-4.7,4.9c-3.6,2.3-8.1,4.1-13.6,5.4s-10.5,2.1-15.2,2.2
		C453.8,1190.8,453.2,1190.8,452.6,1190.8z"/>
	
		<linearGradient id="SVGID_00000057108635071489928750000017781634201405733311_" gradientUnits="userSpaceOnUse" x1="-337.9253" y1="1107.1444" x2="-337.9253" y2="955.8151" gradientTransform="matrix(1 0 0 -1 894 2145.2632)">
		<stop  offset="0" style="stop-color:#FF6700"/>
		<stop  offset="1" style="stop-color:#FFA732"/>
	</linearGradient>
	<path style="fill:url(#SVGID_00000057108635071489928750000017781634201405733311_);" d="M516.1,1189.4c-3.7,0-6.4-1.2-8.1-3.6
		c-1.8-2.5-2.4-6-1.8-10.5c6.1-41.6,12.4-83.8,18.6-125.2c0.7-4.2,2.2-7.2,4.6-9.1c2.5-1.9,5.8-3,10.1-3h0.2c3.9,0,6.6,1.2,8.4,3.6
		c1.9,2.5,2.4,6.2,1.8,10.9c-4,25.3-8,50.8-11.9,76c-0.1,0.3,0,0.6,0.3,0.8c0.2,0.2,0.4,0.3,0.7,0.3h0.4c0.3,0,0.4-0.1,0.7-0.3
		c13.8-12.7,28-25.5,42-38.2c2.8-2.6,5.3-4.6,7.5-5.8c2.1-1.2,4.7-1.8,7.6-1.8c3.3,0,5.8,0.9,7.2,2.6c1.5,1.8,2,4,1.7,6.6
		c-0.3,2.6-1.8,5.2-4.4,7.5c-12.4,11.4-24.8,22.8-37,34.2c-0.3,0.3-0.4,0.9-0.1,1.3c9.7,11.9,19.4,23.9,28.9,35.9
		c2.1,2.6,3.1,5.3,2.9,8c-0.2,2.7-1.2,4.8-3.1,6.6c-1.9,1.8-4.2,2.6-7.5,2.6c-3.5,0-6.2-0.8-8.1-2.2c-2-1.5-4.4-4.1-7.3-7.4
		c-10.7-12.9-21.6-26-32.4-38.9c-0.2-0.3-0.4-0.3-0.8-0.3H537c-0.5,0-0.8,0.3-0.9,0.8c-1.9,12.1-3.6,24.2-5.5,36.4
		C529.3,1185.5,524.7,1189.4,516.1,1189.4z"/>
</g>
</svg>
