<?xml version="1.0" encoding="utf-8"?>
<!-- Generator: Adobe Illustrator 26.0.3, SVG Export Plug-In . SVG Version: 6.00 Build 0)  -->
<svg version="1.1" id="Layer_1" xmlns="http://www.w3.org/2000/svg" xmlns:xlink="http://www.w3.org/1999/xlink" x="0px" y="0px"
	 viewBox="0 0 329.8 261.5" style="enable-background:new 0 0 329.8 261.5;" xml:space="preserve">
<style type="text/css">
	.st0{fill-rule:evenodd;clip-rule:evenodd;fill:#FFA732;}
	.st1{fill:#FF6700;}
	.st2{fill:#D0CCFF;}
	.st3{fill:#9458F7;}
</style>
<g>
	<path class="st0" d="M67.1,152.9c-0.2-2.7-0.2-5.5-0.2-8.3c0-6.9,0.5-13.7,1.4-20.4H40.8c-7.1,0-13,5.8-13,12.7
		c0,7,5.9,12.7,13,12.7h26C66.8,150.7,67,151.8,67.1,152.9z M163.4,8.3H67.9c-11.8,0-20.1,9.3-20.1,19.7c0,11.6,9.5,19.7,20.1,19.7
		h34.3c0.6,0,1.3,0,1.9,0.1C120.1,30.2,140.4,16.4,163.4,8.3z M85.7,73.2H18.3c-7.1,0-13,5.8-13,12.7c0,7,5.9,12.7,13,12.7h56
		C77.3,89.8,81.1,81.3,85.7,73.2z"/>
	<path class="st1" d="M294.5,196.6c16.3-26.2,22.2-57.5,16.8-87.9c-5.4-30.4-21.9-57.7-46.3-76.6c-24.3-18.9-54.8-28.2-85.6-26
		s-59.7,15.7-81.1,37.9c-21.4,22.2-33.9,51.5-35,82.4c-1.1,30.8,9.2,61,29,84.6c19.8,23.7,47.6,39.2,78.2,43.5
		c30.5,4.4,61.6-2.7,87.3-19.9L242,218.2c-0.8-0.9-1.9-1.5-3.2-1.6c-1.2-0.2-2.4,0.1-3.5,0.6c-21.7,11.9-47,15.1-71,9.2
		c-24-5.9-44.9-20.6-58.5-41.2c-13.7-20.6-19.1-45.6-15.2-70c3.9-24.4,16.8-46.5,36.1-61.8s43.8-22.9,68.4-21.1s47.7,12.8,64.7,30.7
		c16.9,18,26.5,41.7,26.8,66.4c0.3,24.7-8.7,48.6-25.1,67c-1,1.1-1.6,2.5-1.6,3.9c0,1.5,0.6,2.9,1.6,3.9l15.1,15l9.3,9.4
		c5.1,4.2,18.7,12.1,38.6-2.1L294.5,196.6z"/>
	<path class="st2" d="M264.3,149.6l-1.7,1.7c-5,5-7.5,11.7-7.5,18.5v2.5c0,14.3-11.7,26-26,26h-2.5c-6.7,0-13.4,2.5-18.5,7.5
		l-1.7,1.7c-10.1,9.2-25.2,10.1-35.2,1.7c0.8,0,0.8-0.8,1.7-1.7l1.7-1.7c5-5,11.7-7.5,18.5-7.5h2.5c14.3,0,26-11.7,26-26v-2.5
		c0-6.7,2.5-13.4,7.5-18.5l1.7-1.7c10.1-10.1,10.1-26.8,0-36.9l-1.7-1.7c-5-5-7.5-11.7-7.5-18.5v-2.5c0-14.3-11.7-26-26-26H193
		c-6.7,0-13.4-2.5-18.5-7.5l-1.7-1.7c-0.8-0.8-0.8-0.8-1.7-1.7c10.1-8.4,25.2-8.4,35.2,1.7l1.7,1.7c5,5,11.7,7.5,18.5,7.5h2.5
		c14.3,0,26,11.7,26,26v2.5c0,6.7,2.5,13.4,7.5,18.5l1.7,1.7C274.4,122.8,274.4,139.5,264.3,149.6z"/>
	<path class="st3" d="M188,64.1c2.5,0,5,0.8,6.7,2.5l1.7,1.7c8.4,8.4,18.4,12.6,30.2,12.6h2.5c5,0,9.2,4.2,9.2,9.2v2.5
		c0,11.7,4.2,21.8,12.6,30.2l1.7,1.7c1.7,1.7,2.5,4.2,2.5,6.7c0,2.5-0.8,5-2.5,6.7l-1.7,1.7c-8.4,8.4-12.6,18.5-12.6,30.2v2.5
		c0,5-4.2,9.2-9.2,9.2h-2.5c-11.7,0-21.8,4.2-30.2,12.6l-1.7,1.7c-1.7,1.7-4.2,2.5-6.7,2.5c-2.5,0-5-0.8-6.7-2.5l-1.7-1.7
		c-8.4-8.4-18.4-12.6-30.2-12.6h-2.5c-5,0-9.2-4.2-9.2-9.2v-2.5c0-11.7-4.2-21.8-12.6-30.2l-1.7-1.7c-1.7-1.7-2.5-4.2-2.5-6.7
		c0-2.5,0.8-5,2.5-6.7l1.7-1.7c8.4-8.4,12.6-18.5,12.6-30.2v-2.5c0-5,4.2-9.2,9.2-9.2h2.5c11.7,0,21.8-4.2,30.2-12.6l1.7-1.7
		C183,64.9,185.5,64.1,188,64.1z M188,47.3c-6.7,0-13.4,2.5-18.5,7.5l-1.7,1.7c-5,5-11.7,7.5-18.4,7.5h-2.5c-14.3,0-26,11.7-26,26
		v2.5c0,6.7-2.5,13.4-7.5,18.5l-1.7,1.7c-10.1,10.1-10.1,26.8,0,36.9l1.7,1.7c5,5,7.5,11.7,7.5,18.5v2.5c0,14.3,11.7,26,26,26h2.5
		c6.7,0,13.4,2.5,18.4,7.5l1.7,1.7c5,5,11.7,7.5,18.5,7.5s13.4-2.5,18.5-7.5l1.7-1.7c5-5,11.7-7.5,18.5-7.5h2.5
		c14.3,0,26-11.7,26-26v-2.5c0-6.7,2.5-13.4,7.5-18.5l1.7-1.7c10.1-10.1,10.1-26.8,0-36.9l-1.7-1.7c-5-5-7.5-11.7-7.5-18.5v-2.5
		c0-14.3-11.7-26-26-26h-2.5c-6.7,0-13.4-2.5-18.5-7.5l-1.7-1.7C201.4,49.8,194.7,47.3,188,47.3z"/>
	<path class="st1" d="M220.7,96c-1.4-0.8-2.9-1.2-4.4-1.4s-3.1-0.1-4.6,0.4c-1.5,0.4-2.9,1.2-4.1,2.1c-1.2,1-2.2,2.2-3,3.5
		l-22.1,39.8l-12.7-12.7c-1.1-1.1-2.4-2-3.9-2.7c-1.5-0.6-3-1-4.6-1c-1.6,0-3.1,0.3-4.6,0.9c-1.5,0.6-2.8,1.5-3.9,2.6
		c-1.1,1.1-2,2.4-2.6,3.9c-0.6,1.5-0.9,3-0.9,4.6c0,1.6,0.3,3.1,1,4.6c0.6,1.5,1.5,2.8,2.7,3.9l23.8,23.8c2.3,2.3,5.3,3.5,8.4,3.5
		l1.6-0.1c1.8-0.3,3.6-0.9,5.1-2c1.5-1,2.8-2.4,3.7-4l29.8-53.6c0.8-1.4,1.2-2.9,1.4-4.4c0.2-1.6,0.1-3.1-0.4-4.6
		c-0.4-1.5-1.2-2.9-2.1-4.1C223.3,97.8,222.1,96.8,220.7,96z"/>
</g>
</svg>
