<?xml version="1.0" encoding="utf-8"?>
<!-- Generator: Adobe Illustrator 26.0.3, SVG Export Plug-In . SVG Version: 6.00 Build 0)  -->
<svg version="1.1" id="Layer_1" xmlns="http://www.w3.org/2000/svg" xmlns:xlink="http://www.w3.org/1999/xlink" x="0px" y="0px"
	 viewBox="0 0 100 100" style="enable-background:new 0 0 100 100;" xml:space="preserve">
<style type="text/css">
	.st0{fill:#FF9900;}
	.st1{fill:#9901FF;}
</style>
<g>
	<path class="st0" d="M36.4,7.6H9.1c-0.2,0-0.6,0.2-1,0.5c-0.4,0.4-0.5,0.8-0.5,1v27.3c0,0.2,0.2,0.6,0.5,1c0.4,0.4,0.8,0.5,1,0.5
		h27.3c0.2,0,0.6-0.2,1-0.5c0.4-0.4,0.5-0.8,0.5-1V9.1c0-0.2-0.2-0.6-0.5-1C37,7.7,36.6,7.6,36.4,7.6z"/>
	<path class="st0" d="M90.9,62.1H63.6c-0.2,0-0.6,0.2-1,0.5c-0.4,0.4-0.5,0.8-0.5,1v27.3c0,0.2,0.2,0.6,0.5,1c0.4,0.4,0.8,0.5,1,0.5
		h27.3c0.2,0,0.6-0.2,1-0.5c0.4-0.4,0.5-0.8,0.5-1V63.6c0-0.2-0.2-0.6-0.5-1C91.5,62.3,91.1,62.1,90.9,62.1z"/>
	<path class="st0" d="M36.4,62.1H9.1c-0.2,0-0.6,0.2-1,0.5c-0.4,0.4-0.5,0.8-0.5,1v27.3c0,0.2,0.2,0.6,0.5,1c0.4,0.4,0.8,0.5,1,0.5
		h27.3c0.2,0,0.6-0.2,1-0.5c0.4-0.4,0.5-0.8,0.5-1V63.6c0-0.2-0.2-0.6-0.5-1C37,62.3,36.6,62.1,36.4,62.1z"/>
	<path class="st1" d="M41.6,58.4c-1.5-1.5-3.4-2.3-5.3-2.3H9.1c-1.9,0-3.8,0.8-5.3,2.3c-1.5,1.5-2.3,3.4-2.3,5.3v27.3
		c0,1.9,0.8,3.8,2.3,5.3c1.5,1.5,3.4,2.3,5.3,2.3h27.3c1.9,0,3.8-0.8,5.3-2.3c1.5-1.5,2.3-3.4,2.3-5.3V63.6
		C43.9,61.8,43.1,59.8,41.6,58.4z M37.9,90.9c0,0.2-0.2,0.6-0.5,1s-0.8,0.5-1,0.5H9.1c-0.2,0-0.6-0.2-1-0.5c-0.4-0.4-0.5-0.8-0.5-1
		V63.6c0-0.2,0.2-0.6,0.5-1c0.4-0.4,0.8-0.5,1-0.5h27.3c0.2,0,0.6,0.2,1,0.5s0.5,0.8,0.5,1V90.9z"/>
	<path class="st1" d="M41.6,3.8c-1.5-1.5-3.4-2.3-5.3-2.3H9.1c-1.9,0-3.8,0.8-5.3,2.3C2.3,5.3,1.5,7.2,1.5,9.1v27.3
		c0,1.9,0.8,3.8,2.3,5.3c1.5,1.5,3.4,2.3,5.3,2.3h27.3c1.9,0,3.8-0.8,5.3-2.3c1.5-1.5,2.3-3.4,2.3-5.3V9.1
		C43.9,7.2,43.1,5.3,41.6,3.8z M37.9,36.4c0,0.2-0.2,0.6-0.5,1c-0.4,0.4-0.8,0.5-1,0.5H9.1c-0.2,0-0.6-0.2-1-0.5
		c-0.4-0.4-0.5-0.8-0.5-1V9.1c0-0.2,0.2-0.6,0.5-1c0.4-0.4,0.8-0.5,1-0.5h27.3c0.2,0,0.6,0.2,1,0.5s0.5,0.8,0.5,1V36.4z"/>
	<path class="st1" d="M96.2,58.4c-1.5-1.5-3.4-2.3-5.3-2.3H63.6c-1.9,0-3.8,0.8-5.3,2.3c-1.5,1.5-2.3,3.4-2.3,5.3v27.3
		c0,1.9,0.8,3.8,2.3,5.3c1.5,1.5,3.4,2.3,5.3,2.3h27.3c1.9,0,3.8-0.8,5.3-2.3c1.5-1.5,2.3-3.4,2.3-5.3V63.6
		C98.5,61.8,97.7,59.8,96.2,58.4z M92.4,90.9c0,0.2-0.2,0.6-0.5,1s-0.8,0.5-1,0.5H63.6c-0.2,0-0.6-0.2-1-0.5c-0.4-0.4-0.5-0.8-0.5-1
		V63.6c0-0.2,0.2-0.6,0.5-1s0.8-0.5,1-0.5h27.3c0.2,0,0.6,0.2,1,0.5s0.5,0.8,0.5,1V90.9z"/>
	<path class="st1" d="M71.3,41.2c0.3,0.6,0.9,0.6,1.1,0.9c0.6,0.3,0.9,0.3,1.4,0.3h1.4c0.3-0.3,0.9-0.6,1.1-0.9l13.4-13.1
		c0.6-0.6,0.9-1.4,0.9-2.6c0-1.1-0.3-2-0.9-2.6c-0.6-0.6-1.4-0.9-2.6-0.9c-1.1,0-2,0.3-2.6,0.9l-6.8,6.8V7.9c0-1.1-0.6-2-1.1-2.6
		c-0.6-0.9-1.4-1.1-2.6-1.1c-1.1,0-2,0.6-2.6,1.1c-0.9,0.6-1.1,1.4-1.1,2.6v22.2l-6.8-6.8c-0.6-0.9-1.4-1.1-2.6-1.1
		c-1.1,0-2,0.6-2.6,1.1c-0.6,0.6-0.9,1.4-0.9,2.6c0,1.1,0.3,2,0.9,2.6L71.3,41.2z"/>
</g>
</svg>
