<?xml version="1.0" encoding="utf-8"?>
<!-- Generator: Adobe Illustrator 26.0.3, SVG Export Plug-In . SVG Version: 6.00 Build 0)  -->
<svg version="1.1" id="Layer_1" xmlns="http://www.w3.org/2000/svg" xmlns:xlink="http://www.w3.org/1999/xlink" x="0px" y="0px"
	 viewBox="0 0 100 100" style="enable-background:new 0 0 100 100;" xml:space="preserve">
<style type="text/css">
	.st0{fill:#FF9900;}
</style>
<g>
	<path class="st0" d="M99,60.6c0,2.5-5,4.1-10.6,5c-3.7-6.9-11-12.3-19.6-15.9c0.8-1.2,1.6-2.1,2.5-3.3h3.3C87.2,46,99,53.7,99,60.6
		z M28.8,46h-3.3C12.9,46,1,53.7,1,60.6c0,2.5,5,4.1,10.6,5c3.7-6.9,11-12.3,19.6-15.9L28.8,46z M50,50.1c9,0,16.3-7.3,16.3-16.3
		S59,17.4,50,17.4s-16.3,7.3-16.3,16.3S41.1,50.1,50,50.1z M50,54.1c-16.7,0-32.7,10.6-32.7,20.4c0,8.1,32.7,8.1,32.7,8.1
		s32.7,0,32.7-8.1C82.7,64.8,66.9,54.1,50,54.1z M73.4,42h1.2c6.9,0,12.3-5.4,12.3-12.3s-5.4-12.3-12.3-12.3c-2.1,0-3.7,0.4-5.4,1.2
		c3.3,4.1,5.4,9.4,5.4,15.2C74.6,36.6,74.2,39.5,73.4,42z M25.6,42h1.2c-0.8-2.5-1.2-5.4-1.2-8.1c0-5.7,2.1-11,5.4-15.2
		c-1.6-0.8-3.3-1.2-5.4-1.2c-6.9,0-12.3,5.4-12.3,12.3S18.6,42,25.6,42z"/>
</g>
</svg>
