<?xml version="1.0" encoding="utf-8"?>
<!-- Generator: Adobe Illustrator 26.0.3, SVG Export Plug-In . SVG Version: 6.00 Build 0)  -->
<svg version="1.1" id="Layer_1" xmlns="http://www.w3.org/2000/svg" xmlns:xlink="http://www.w3.org/1999/xlink" x="0px" y="0px"
	 viewBox="0 0 100 100" style="enable-background:new 0 0 100 100;" xml:space="preserve">
<style type="text/css">
	.st0{fill:#FF3300;}
	.st1{fill:#F5F5F5;}
	.st2{fill:#FFD54F;}
	.st3{fill:#FFCC66;}
</style>
<g>
	<path class="st0" d="M95.1,84.3H4.9c-1.1,0-2.1-0.5-2.7-1.1S1,81.3,1,80.4V19.8c0-1.1,0.5-2.1,1.1-2.7c0.7-0.9,1.8-1.4,2.7-1.4
		h90.2c1.1,0,2.1,0.5,2.7,1.1c0.7,0.7,1.1,1.8,1.1,2.7v60.5c0,1.1-0.5,2.1-1.1,2.7C97.2,84,96.3,84.3,95.1,84.3z"/>
	<path class="st1" d="M15.6,28.3H9.5c-0.2,0-0.5,0-0.5-0.2c0-0.2-0.5-0.2-0.5-0.5v-4.3c0-0.2,0-0.5,0.2-0.5c0.2-0.2,0.5-0.2,0.5-0.2
		h6.4c0.2,0,0.5,0,0.5,0.2c0.2,0,0.5,0.2,0.5,0.5v4.3c0,0.2,0,0.5-0.2,0.5S15.8,28.3,15.6,28.3z M30.7,28.3h-6.4
		c-0.2,0-0.5,0-0.5-0.2c0-0.2-0.2-0.5-0.2-0.5v-4.3c0-0.2,0-0.5,0.2-0.5c0.2-0.2,0.5-0.2,0.5-0.2h6.4c0.2,0,0.5,0,0.5,0.2
		c0.2,0.2,0.2,0.5,0.2,0.5v4.3c0,0.2,0,0.5-0.2,0.5S30.9,28.3,30.7,28.3z M45.8,28.3h-6.4c-0.2,0-0.5,0-0.5-0.2
		c-0.2-0.2-0.2-0.5-0.2-0.5v-4.3c0-0.2,0-0.5,0.2-0.5c0.2-0.2,0.5-0.2,0.5-0.2h6.4c0.2,0,0.5,0,0.5,0.2c0.2,0.2,0.2,0.5,0.2,0.5v4.3
		c0,0.2,0,0.5-0.2,0.5S46,28.3,45.8,28.3z M60.6,28.3h-6.4c-0.2,0-0.5,0-0.5-0.2c0-0.2-0.2-0.5-0.2-0.5v-4.3c0-0.2,0-0.5,0.2-0.5
		c0.2-0.2,0.5-0.2,0.5-0.2h6.4c0.2,0,0.5,0,0.5,0.2c0.2,0.2,0.2,0.5,0.2,0.5v4.3c0,0.2,0,0.5-0.2,0.5S60.9,28.3,60.6,28.3z
		 M75.7,28.3h-6.4c-0.2,0-0.5,0-0.5-0.2c0-0.2-0.2-0.5-0.2-0.5v-4.3c0-0.2,0-0.5,0.2-0.5c0.2-0.5,0.2-0.5,0.5-0.5h6.4
		c0.2,0,0.5,0,0.5,0.2c0.2,0.2,0.2,0.5,0.2,0.5v4.3c0,0.2,0,0.5-0.2,0.5C75.9,27.8,75.9,28.3,75.7,28.3z M90.8,28.3h-6.4
		c-0.2,0-0.5,0-0.5-0.2c0-0.2-0.2-0.5-0.2-0.5v-4.3c0-0.2,0-0.5,0.2-0.5c0.2-0.2,0.5-0.2,0.5-0.2h6.4c0.2,0,0.5,0,0.5,0.2
		c0.2,0.2,0.2,0.5,0.2,0.5v4.3c0,0.2,0,0.5-0.2,0.5C91,28.1,91,28.3,90.8,28.3z M15.6,77.9H9.5c-0.2,0-0.5,0-0.5-0.2
		s-0.2-0.5-0.2-0.5v-4.3c0-0.2,0-0.5,0.2-0.5c0.2,0,0.5-0.2,0.5-0.2h6.4c0.2,0,0.5,0,0.5,0.2c0,0.2,0.2,0,0.2,0.2V77
		c0,0.2,0,0.5-0.2,0.5C16.1,77.4,15.8,77.9,15.6,77.9z M30.7,77.9h-6.4c-0.2,0-0.5,0-0.5-0.2s-0.2-0.5-0.2-0.5v-4.3
		c0-0.2,0-0.5,0.2-0.5s0.5-0.2,0.5-0.2h6.4c0.2,0,0.5,0,0.5,0.2c0,0.2,0.2,0.5,0.2,0.5v4.3c0,0.2,0,0.5-0.2,0.5S30.9,77.9,30.7,77.9
		z M45.8,77.9h-6.4c-0.2,0-0.5,0-0.5-0.2c-0.2-0.2-0.2-0.5-0.2-0.5v-4.3c0-0.2,0-0.5,0.2-0.5c0.2-0.2,0.5-0.2,0.5-0.2h6.4
		c0.2,0,0.5,0,0.5,0.2c0,0.2,0.2,0.5,0.2,0.5v4.3c0,0.2,0,0.5-0.2,0.5S46,77.9,45.8,77.9z M60.6,77.9h-6.4c-0.2,0-0.5,0-0.5-0.2
		s-0.2-0.5-0.2-0.5v-4.3c0-0.2,0-0.5,0.2-0.5s0.5-0.2,0.5-0.2h6.4c0.2,0,0.5,0,0.5,0.2c0,0.2,0.2,0.5,0.2,0.5v4.3
		c0,0.2,0,0.5-0.2,0.5S60.9,77.9,60.6,77.9z M75.7,77.9h-6.4c-0.2,0-0.5,0-0.5-0.2s-0.2-0.5-0.2-0.5v-4.3c0-0.2,0-0.5,0.2-0.5
		s0.5-0.2,0.5-0.2h6.4c0.2,0,0.5,0,0.5,0.2c0,0.2,0.2,0.5,0.2,0.5v4.3c0,0.2,0,0.5-0.2,0.5C75.9,77.6,75.9,77.9,75.7,77.9z
		 M90.8,77.9h-6.4c-0.2,0-0.5,0-0.5-0.2s-0.2-0.5-0.2-0.5v-4.3c0-0.2,0-0.5,0.2-0.5c0.2,0,0.5-0.2,0.5-0.2h6.4c0.2,0,0.5,0,0.5,0.2
		c0,0.2,0.2,0.5,0.2,0.5v4.3c0,0.2,0,0.5-0.2,0.5C91,77.6,91,77.9,90.8,77.9z"/>
	<path class="st2" d="M51,37.7l3.2,6.6c0,0.2,0.2,0.2,0.2,0.5c0.2,0,0.2,0.2,0.5,0.2l7.1,1.1c0.2,0,0.5,0,0.5,0.2
		c0.2,0.2,0.2,0.2,0.2,0.5v0.7c0,0.2-0.2,0.5-0.2,0.5l-4.8,4.8c-0.2,0.2-0.2,0.2-0.2,0.5v0.5l1.1,7.1v0.7c0,0.2-0.2,0.2-0.5,0.5
		c-0.2,0.2-0.5,0.2-0.5,0.2c-0.2,0-0.5,0-0.5-0.2l-6.4-3.4c-0.2,0-0.2-0.2-0.5-0.2s-0.2,0-0.5,0.2l-6.4,3.4c-0.2,0-0.5,0.2-0.5,0.2
		c-0.2,0-0.5,0-0.5-0.2c-0.7-0.2-0.9-0.5-0.9-0.7v-0.7l1.1-7.1V53c0-0.2-0.2-0.2-0.2-0.5l-5.3-5c-0.2,0-0.2-0.2-0.2-0.5v-0.7
		c0-0.2,0.2-0.5,0.2-0.5c0.2-0.2,0.2-0.2,0.5-0.2l7.1-1.1c0.2,0,0.2,0,0.5-0.2c0.2,0,0.2-0.2,0.2-0.5l3.2-6.6c0-0.2,0.2-0.2,0.5-0.5
		c0.2,0,0.5-0.2,0.5-0.2c0.2,0,0.5,0,0.5,0.2C50.1,36.8,51,37.7,51,37.7z"/>
	<path class="st3" d="M64.5,46.1c-0.2-0.5-0.5-0.9-0.7-1.1c-0.5-0.2-0.9-0.5-1.4-0.5l-6.9-0.9l-3.2-6.4c-0.2-0.5-0.5-0.7-0.9-1.1
		c-0.5-0.2-0.9-0.5-1.4-0.5c-0.5,0-0.9,0.2-1.4,0.5c-0.5,0.2-0.7,0.7-0.9,1.1l-3.2,6.4l-6.9,0.9c-0.5,0-0.9,0.2-1.4,0.5
		s-0.7,0.7-0.7,1.1c-0.2,0.5-0.2,0.9,0,1.4c0,0.5,0.5,0.9,0.7,1.1l5,4.8l-1.1,6.9c0,0.5,0,0.9,0.2,1.4c0.2,0.5,0.5,0.9,0.9,1.1
		c0.5,0.2,0.9,0.5,1.4,0.5s0.9,0,1.4-0.2l6.2-3.2l6.2,3.2c0.5,0.2,0.9,0.2,1.4,0.2s0.9-0.2,1.4-0.5s0.7-0.7,0.9-1.1
		c-0.2-0.2-0.2-0.7-0.2-1.1l-1.1-6.9l5-4.8c0.2-0.2,0.7-0.7,0.7-1.1C64.5,47.7,64.5,46.1,64.5,46.1z M56.5,51.6
		c-0.2,0.2-0.5,0.7-0.7,1.1c-0.2,0.5-0.2,0.9,0,1.1l1.1,6.4l-5.7-3c-0.5-0.5-0.7-0.5-1.1-0.5c-0.5,0-0.9,0-1.1,0.2l-5.7,3l1.1-6.4
		v-1.1c-0.2-0.5-0.5-0.7-0.7-1.1l-4.6-4.6l6.4-0.9c0.5,0,0.7-0.2,1.1-0.5c0.2-0.2,0.7-0.5,0.7-0.9l2.7-5.7l2.7,5.7
		c0.2,0.5,0.5,0.7,0.7,0.9c0.2,0.2,0.7,0.5,1.1,0.5l6.4,0.9L56.5,51.6z"/>
</g>
</svg>
