<svg version="1.1" id="Layer_1" xmlns="http://www.w3.org/2000/svg" x="0" y="0" viewBox="0 0 1152 144" xml:space="preserve"><style>.st1{fill:#ff0}</style><linearGradient id="SVGID_1_" gradientUnits="userSpaceOnUse" x1="-253.055" y1="1861.574" x2="-228.05" y2="1861.574" gradientTransform="rotate(-21.124 -4730.305 -42.773)"><stop offset="0" stop-color="#f90"/><stop offset=".134" stop-color="#f9a200"/><stop offset=".357" stop-color="#eabc00"/><stop offset=".426" stop-color="#e5c500"/><stop offset="1" stop-color="#e59e03"/></linearGradient><path d="M155.7 111c0-.1 0-.1 0 0-1.4-3.7-7.8-4.7-14.2-2.2-6.5 2.5-10.5 7.5-9.1 11.2 1.4 3.7 7.8 4.7 14.2 2.2 6.4-2.6 10.5-7.6 9.1-11.2 0-.1 0 .1 0 0z" fill="url(#SVGID_1_)"/><ellipse transform="rotate(-21.124 143.998 115.497)" class="st1" cx="144" cy="115.5" rx="12.5" ry="7.2"/><linearGradient id="SVGID_00000034793209000079856330000001518229572212597406_" gradientUnits="userSpaceOnUse" x1="-253.112" y1="1861.373" x2="-228.555" y2="1861.373" gradientTransform="rotate(-21.124 -4730.305 -42.773)"><stop offset="0" stop-color="#fc0"/><stop offset=".467" stop-color="#f6d100"/><stop offset="1" stop-color="#e5d900"/></linearGradient><path d="M155.2 110.9c1.4 3.7-2.6 8.7-8.9 11.2s-12.6 1.5-14-2.2 2.6-8.7 8.9-11.2c6.4-2.4 12.6-1.4 14 2.2z" fill="url(#SVGID_00000034793209000079856330000001518229572212597406_)"/><linearGradient id="SVGID_00000073695188421496859700000013227642182419660200_" gradientUnits="userSpaceOnUse" x1="574.981" y1="1696.349" x2="592.502" y2="1696.349" gradientTransform="rotate(10.295 9552.653 406.889)"><stop offset="0" stop-color="#f90"/><stop offset=".134" stop-color="#f9a200"/><stop offset=".357" stop-color="#eabc00"/><stop offset=".426" stop-color="#e5c500"/><stop offset="1" stop-color="#e59e03"/></linearGradient><path d="M506.2 73.6c.5-2.8-2.9-5.7-7.7-6.6-4.8-.9-9 .6-9.5 3.4-.5 2.7 3 5.7 7.7 6.5 4.7.8 9-.6 9.5-3.3z" fill="url(#SVGID_00000073695188421496859700000013227642182419660200_)"/><ellipse transform="rotate(-79.7 497.597 72.025)" class="st1" cx="497.6" cy="72" rx="5" ry="8.7"/><linearGradient id="SVGID_00000182510953924983423340000015907896097741742511_" gradientUnits="userSpaceOnUse" x1="574.999" y1="1696.474" x2="592.18" y2="1696.474" gradientTransform="rotate(10.295 9552.653 406.889)"><stop offset="0" stop-color="#fc0"/><stop offset=".467" stop-color="#f6d100"/><stop offset="1" stop-color="#e5d900"/></linearGradient><path d="M505.9 73.6c-.5 2.7-4.6 4.3-9.3 3.4-4.7-.9-8.1-3.8-7.6-6.5s4.6-4.3 9.3-3.4c4.7.9 8.1 3.7 7.6 6.5z" fill="url(#SVGID_00000182510953924983423340000015907896097741742511_)"/><linearGradient id="SVGID_00000178165465557417738000000012036112110548604550_" gradientUnits="userSpaceOnUse" x1="694.512" y1="1669.331" x2="712.033" y2="1669.331" gradientTransform="rotate(10.295 9552.653 406.889)"><stop offset="0" stop-color="#f90"/><stop offset=".134" stop-color="#f9a200"/><stop offset=".357" stop-color="#eabc00"/><stop offset=".426" stop-color="#e5c500"/><stop offset="1" stop-color="#e59e03"/></linearGradient><path d="M628.7 68.4c.5-2.8-2.9-5.7-7.7-6.6-4.8-.9-9 .6-9.5 3.4-.5 2.7 3 5.7 7.7 6.5 4.7.9 8.9-.6 9.5-3.3-.1.1-.1.1 0 0-.1.1-.1.1 0 0-.1 0 0 0 0 0z" fill="url(#SVGID_00000178165465557417738000000012036112110548604550_)"/><ellipse transform="rotate(-79.7 619.955 66.842)" class="st1" cx="620" cy="66.8" rx="5" ry="8.7"/><linearGradient id="SVGID_00000084504982289015904110000007220453581399775670_" gradientUnits="userSpaceOnUse" x1="694.495" y1="1669.474" x2="711.676" y2="1669.474" gradientTransform="rotate(10.295 9552.653 406.889)"><stop offset="0" stop-color="#fc0"/><stop offset=".467" stop-color="#f6d100"/><stop offset="1" stop-color="#e5d900"/></linearGradient><path d="M628.3 68.4c-.5 2.7-4.6 4.3-9.3 3.4s-8.1-3.8-7.6-6.5 4.6-4.3 9.3-3.4 8.1 3.8 7.6 6.5z" fill="url(#SVGID_00000084504982289015904110000007220453581399775670_)"/><linearGradient id="SVGID_00000085937665283081725380000008846266436578146451_" gradientUnits="userSpaceOnUse" x1="-141.066" y1="2487.17" x2="-116.646" y2="2487.17" gradientTransform="rotate(-32.371 -3957.296 384.338)"><stop offset="0" stop-color="#f90"/><stop offset=".134" stop-color="#f9a200"/><stop offset=".357" stop-color="#eabc00"/><stop offset=".426" stop-color="#e5c500"/><stop offset="1" stop-color="#e59e03"/></linearGradient><path d="M412.4 104.1c-2.1-3.3-8.4-3-14.1.6s-8.6 9.2-6.6 12.5c2.1 3.3 8.4 3 14.1-.6 5.8-3.7 8.7-9.3 6.6-12.5.1 0 .1 0 0 0 .1 0 .1 0 0 0z" fill="url(#SVGID_00000085937665283081725380000008846266436578146451_)"/><ellipse transform="rotate(-32.371 402.1 110.581)" class="st1" cx="402.1" cy="110.6" rx="12.2" ry="7"/><linearGradient id="SVGID_00000066498243980805810940000017902755667534848929_" gradientUnits="userSpaceOnUse" x1="-141.077" y1="2487.063" x2="-117.005" y2="2487.063" gradientTransform="rotate(-32.371 -3957.296 384.338)"><stop offset="0" stop-color="#fc0"/><stop offset=".467" stop-color="#f6d100"/><stop offset="1" stop-color="#e5d900"/></linearGradient><path d="M412 104.1c2 3.3-.9 8.9-6.5 12.5s-11.7 3.9-13.8.6c-2-3.3.9-8.9 6.5-12.5s11.8-3.9 13.8-.6z" fill="url(#SVGID_00000066498243980805810940000017902755667534848929_)"/><linearGradient id="SVGID_00000173881232482342620720000010624207028658549675_" gradientUnits="userSpaceOnUse" x1="-455.782" y1="2302.397" x2="-437.273" y2="2302.397" gradientTransform="rotate(-32.371 -3957.296 384.338)"><stop offset="0" stop-color="#f90"/><stop offset=".134" stop-color="#f9a200"/><stop offset=".357" stop-color="#eabc00"/><stop offset=".426" stop-color="#e5c500"/><stop offset="1" stop-color="#e59e03"/></linearGradient><path d="M42.7 119.8c-1.6-2.5-6.3-2.3-10.7.4-4.3 2.7-6.6 7-5 9.4 1.5 2.5 6.3 2.3 10.7-.5 4.4-2.7 6.6-6.9 5-9.3z" fill="url(#SVGID_00000173881232482342620720000010624207028658549675_)"/><ellipse transform="rotate(-32.371 34.906 124.699)" class="st1" cx="34.9" cy="124.7" rx="9.3" ry="5.3"/><linearGradient id="SVGID_00000090977754788324260190000003999203856072134539_" gradientUnits="userSpaceOnUse" x1="-455.75" y1="2302.423" x2="-437.527" y2="2302.423" gradientTransform="rotate(-32.371 -3957.296 384.338)"><stop offset="0" stop-color="#fc0"/><stop offset=".467" stop-color="#f6d100"/><stop offset="1" stop-color="#e5d900"/></linearGradient><path d="M42.4 119.8c1.5 2.5-.6 6.7-4.9 9.4-4.2 2.7-8.9 2.9-10.4.5-1.5-2.5.6-6.7 4.9-9.4 4.1-2.8 8.8-3 10.4-.5z" fill="url(#SVGID_00000090977754788324260190000003999203856072134539_)"/><linearGradient id="SVGID_00000063630094284855806200000000544126650088548509_" gradientUnits="userSpaceOnUse" x1="152.146" y1="2648.564" x2="176.566" y2="2648.564" gradientTransform="rotate(-32.371 -3957.296 384.338)"><stop offset="0" stop-color="#f90"/><stop offset=".134" stop-color="#f9a200"/><stop offset=".357" stop-color="#eabc00"/><stop offset=".426" stop-color="#e5c500"/><stop offset="1" stop-color="#e59e03"/></linearGradient><path d="M746.5 83.4c-2.1-3.3-8.4-3-14.1.6s-8.6 9.2-6.6 12.5c2.1 3.3 8.4 3 14.1-.6 5.7-3.7 8.7-9.2 6.6-12.5 0 .1 0 .1 0 0 0 .1 0 .1 0 0 0 .1 0 0 0 0z" fill="url(#SVGID_00000063630094284855806200000000544126650088548509_)"/><ellipse transform="rotate(-32.371 736.09 89.897)" class="st1" cx="736.1" cy="89.9" rx="12.2" ry="7"/><linearGradient id="SVGID_00000059274114639186105150000011967489081025687732_" gradientUnits="userSpaceOnUse" x1="152.138" y1="2648.403" x2="176.21" y2="2648.403" gradientTransform="rotate(-32.371 -3957.296 384.338)"><stop offset="0" stop-color="#fc0"/><stop offset=".467" stop-color="#f6d100"/><stop offset="1" stop-color="#e5d900"/></linearGradient><path d="M746 83.4c2 3.3-.9 8.9-6.5 12.5s-11.7 3.9-13.8.6c-2-3.3.9-8.9 6.5-12.5s11.8-3.8 13.8-.6z" fill="url(#SVGID_00000059274114639186105150000011967489081025687732_)"/><linearGradient id="SVGID_00000013153670216072896350000013117159207385348488_" gradientUnits="userSpaceOnUse" x1="76.037" y1="2626.906" x2="133.563" y2="2626.906" gradientTransform="rotate(-32.371 -3957.296 384.338)"><stop offset="0" stop-color="#f90"/><stop offset=".134" stop-color="#f9a200"/><stop offset=".357" stop-color="#eabc00"/><stop offset=".426" stop-color="#e5c500"/><stop offset="1" stop-color="#e59e03"/></linearGradient><path d="M695.7 83.5c-4.9-7.8-19.7-7.1-33.2 1.4-13.4 8.5-20.3 21.6-15.5 29.3 0 0 0 .1.1.1 0 0 0 .1.1.1 0 0 0 .1.1.1 0 0 0 .1.1.1 0 0 0 .1.1.1 0 0 0 .1.1.1 0 0 0 .1.1.1 0 0 0 .1.1.1 0 0 0 .1.1.1 0 0 0 .1.1.1s0 .1.1.1c0 0 0 .1.1.1 0 0 0 .1.1.1 0 0 0 .1.1.1s0 .1.1.1c0 0 0 .1.1.1 0 0 0 .1.1.1 0 0 0 .1.1.1s0 .1.1.1c0 0 0 .1.1.1 0 0 0 .1.1.1 0 0 0 .1.1.1 0 0 0 .1.1.1 0 0 0 .1.1.1 0 0 0 .1.1.1 0 0 0 .1.1.1 0 0 0 .1.1.1 0 0 0 .1.1.1s0 .1.1.1c0 0 0 .1.1.1 0 0 0 .1.1.1 0 0 0 .1.1.1s0 .1.1.1c0 0 0 .1.1.1 0 0 0 .1.1.1 0 0 0 .1.1.1 0 0 0 .1.1.1 0 0 0 .1.1.1 0 0 0 .1.1.1 0 0 0 .1.1.1 0 0 0 .1.1.1 0 0 0 .1.1.1s0 .1.1.1c0 0 0 .1.1.1 0 0 0 .1.1.1 0 0 0 .1.1.1s0 .1.1.1c0 0 0 .1.1.1 0 0 0 .1.1.1 0 0 0 .1.1.1 0 0 0 .1.1.1 0 0 0 .1.1.1 0 0 0 .1.1.1 0 0 0 .1.1.1 0 0 0 .1.1.1 0 0 0 .1.1.1 0 0 0 .1.1.1 0 0 0 .1.1.1 0 0 0 .1.1.1 0 0 0 .1.1.1s0 .1.1.1c0 0 0 .1.1.1 0 0 0 .1.1.1 0 0 0 .1.1.1 0 0 0 .1.1.1 0 0 0 .1.1.1 0 0 0 .1.1.1 0 0 0 .1.1.1s0 .1.1.1c0 0 0 .1.1.1 0 0 0 .1.1.1 0 0 0 .1.1.1 0 0 0 .1.1.1 0 0 0 .1.1.1 0 0 0 .1.1.1 0 0 0 .1.1.1 0 0 0 .1.1.1 0 0 0 .1.1.1s0 .1.1.1c0 0 0 .1.1.1 4.9 7.7 19.7 7 33.2-1.4 13.4-8.5 20.3-21.6 15.5-29.3 0 0 0-.1-.1-.1 0 0 0-.1-.1-.1 0 0 0-.1-.1-.1 0 0 0-.1-.1-.1 0 0 0-.1-.1-.1 0 0 0-.1-.1-.1s0-.1-.1-.1c0 0 0-.1-.1-.1 0 0 0-.1-.1-.1 0 0 0-.1-.1-.1s0-.1-.1-.1c0 0 0-.1-.1-.1 0 0 0-.1-.1-.1 0 0 0-.1-.1-.1s0-.1-.1-.1c0 0 0-.1-.1-.1 0 0 0-.1-.1-.1 0 0 0-.1-.1-.1 0 0 0-.1-.1-.1 0 0 0-.1-.1-.1 0 0 0-.1-.1-.1 0 0 0-.1-.1-.1 0 0 0-.1-.1-.1 0 0 0-.1-.1-.1s0-.1-.1-.1c0 0 0-.1-.1-.1 0 0 0-.1-.1-.1 0 0 0-.1-.1-.1 0 0 0-.1-.1-.1 0 0 0-.1-.1-.1 0 0 0-.1-.1-.1 0 0 0-.1-.1-.1 0 0 0-.1-.1-.1 0 0 0-.1-.1-.1 0 0 0-.1-.1-.1 0 0 0-.1-.1-.1 0 0 0-.1-.1-.1 0 0 0-.1-.1-.1 0 0 0-.1-.1-.1 0 0 0-.1-.1-.1 0 0 0-.1-.1-.1 0 0 0-.1-.1-.1s0-.1-.1-.1c0 0 0-.1-.1-.1 0 0 0-.1-.1-.1 0 0 0-.1-.1-.1 0 0 0-.1-.1-.1 0 0 0-.1-.1-.1 0 0 0-.1-.1-.1 0 0 0-.1-.1-.1s0-.1-.1-.1c0 0 0-.1-.1-.1 0 0 0-.1-.1-.1 0 0 0-.1-.1-.1 0 0 0-.1-.1-.1 0 0 0-.1-.1-.1 0 0 0-.1-.1-.1 0 0 0-.1-.1-.1 0 0 0-.1-.1-.1 0 0 0-.1-.1-.1s0-.1-.1-.1c0 0 0-.1-.1-.1 0 0 0-.1-.1-.1 0 0 0-.1-.1-.1s0-.1-.1-.1c0 0 0-.1-.1-.1 0 0 0-.1-.1-.1 0 0 0-.1-.1-.1s0-.1-.1-.1c0 0 0-.1-.1-.1 0 0 0-.1-.1-.1 0 0 0-.1-.1-.1 0 0 0-.1-.1-.1 0 0 0-.1-.1-.1 0 0 0-.1-.1-.1 0 0 0-.1-.1-.1 0 0 0-.1-.1-.1-.3-.1-.3-.2-.3-.3 0 .1 0 .1 0 0z" fill="url(#SVGID_00000013153670216072896350000013117159207385348488_)"/><ellipse transform="rotate(-32.371 671.409 98.888)" class="st1" cx="671.4" cy="98.9" rx="28.7" ry="16.5"/><linearGradient id="SVGID_00000003081406410214601540000000495732470745567625_" gradientUnits="userSpaceOnUse" x1="76.056" y1="2621.145" x2="132.697" y2="2621.145" gradientTransform="rotate(-32.371 -3957.296 384.338)"><stop offset="0" stop-color="#fc0"/><stop offset=".467" stop-color="#f6d100"/><stop offset="1" stop-color="#e5d900"/></linearGradient><path d="M694.7 83.5c4.8 7.7-2 20.8-15.1 29.3-13.2 8.5-27.7 9.2-32.5 1.4-4.8-7.7 2-20.8 15.1-29.3s27.7-9.1 32.5-1.4z" fill="url(#SVGID_00000003081406410214601540000000495732470745567625_)"/><linearGradient id="SVGID_00000148624677792740276540000003567325896651672494_" gradientUnits="userSpaceOnUse" x1="-249.535" y1="2305.772" x2="-235.366" y2="2305.772" gradientTransform="rotate(-32.371 -3957.296 384.338)"><stop offset="0" stop-color="#f90"/><stop offset=".134" stop-color="#f9a200"/><stop offset=".357" stop-color="#eabc00"/><stop offset=".426" stop-color="#e5c500"/><stop offset="1" stop-color="#e59e03"/></linearGradient><path d="M215 14.5c-1.2-1.9-4.9-1.8-8.2.3s-5 5.3-3.8 7.3c1.2 1.9 4.9 1.8 8.2-.4 3.3-2.1 5-5.4 3.8-7.2 0-.1 0 0 0 0z" fill="url(#SVGID_00000148624677792740276540000003567325896651672494_)"/><ellipse transform="rotate(-32.371 208.997 18.306)" class="st1" cx="209" cy="18.3" rx="7.1" ry="4.1"/><linearGradient id="SVGID_00000034087055561534181140000001781318529649879487_" gradientUnits="userSpaceOnUse" x1="-249.542" y1="2305.773" x2="-235.569" y2="2305.773" gradientTransform="rotate(-32.371 -3957.296 384.338)"><stop offset="0" stop-color="#fc0"/><stop offset=".467" stop-color="#f6d100"/><stop offset="1" stop-color="#e5d900"/></linearGradient><path d="M214.7 14.5c1.2 1.9-.5 5.1-3.7 7.3-3.3 2.1-6.8 2.2-8 .4-1.2-1.9.5-5.1 3.7-7.3 3.3-2.2 6.9-2.3 8-.4z" fill="url(#SVGID_00000034087055561534181140000001781318529649879487_)"/><linearGradient id="SVGID_00000065045942062967125640000002172323664212425109_" gradientUnits="userSpaceOnUse" x1="149.293" y1="1740.349" x2="177.405" y2="1740.349" gradientTransform="rotate(10.295 9552.653 406.889)"><stop offset="0" stop-color="#f90"/><stop offset=".134" stop-color="#f9a200"/><stop offset=".357" stop-color="#eabc00"/><stop offset=".426" stop-color="#e5c500"/><stop offset="1" stop-color="#e59e03"/></linearGradient><path d="M90.6 38.8c0-.1 0-.1 0 0 .8-4.4-4.7-9.1-12.4-10.5-7.6-1.4-14.5 1.1-15.2 5.4v8c-.8 4.4 4.7 9.1 12.4 10.4 7.6 1.4 14.5-1.1 15.2-5.4v-7.9z" fill="url(#SVGID_00000065045942062967125640000002172323664212425109_)"/><ellipse transform="rotate(-79.7 76.885 36.276)" class="st1" cx="76.9" cy="36.3" rx="8.1" ry="14.1"/><linearGradient id="SVGID_00000118357185588553544960000010085719680733151636_" gradientUnits="userSpaceOnUse" x1="149.288" y1="1736.466" x2="176.831" y2="1736.466" gradientTransform="rotate(10.295 9552.653 406.889)"><stop offset="0" stop-color="#fc0"/><stop offset=".467" stop-color="#f6d100"/><stop offset="1" stop-color="#e5d900"/></linearGradient><path d="M90 38.7c-.8 4.4-7.5 6.8-15 5.4s-12.8-6-12-10.4 7.5-6.8 15-5.4c7.4 1.4 12.8 6.1 12 10.4z" fill="url(#SVGID_00000118357185588553544960000010085719680733151636_)"/><linearGradient id="SVGID_00000106867774422656566510000006927623519916298168_" gradientUnits="userSpaceOnUse" x1="783.837" y1="565.952" x2="830.326" y2="565.952" gradientTransform="rotate(70.043 1162.636 314.958)"><stop offset="0" stop-color="#f90"/><stop offset=".134" stop-color="#f9a200"/><stop offset=".357" stop-color="#eabc00"/><stop offset=".426" stop-color="#e5c500"/><stop offset="1" stop-color="#e59e03"/></linearGradient><path d="M815.4 87.4c7-2.5 9.1-14.3 4.6-26.4-4.4-12.1-13.5-19.8-20.5-17.3h-.6.3-1.7.7-1.7.7-1.7.7-1.6c-6.9 2.5-9 14.3-4.6 26.4 4.4 12 14.1 21.2 21.1 18.7h7.7c-3.5-1.3-3.5-1.3-3.4-1.4 0 .1 0 0 0 0z" fill="url(#SVGID_00000106867774422656566510000006927623519916298168_)"/><ellipse transform="rotate(-19.957 807.49 65.599)" class="st1" cx="807.4" cy="65.6" rx="13.3" ry="23.2"/><linearGradient id="SVGID_00000065040869647246401020000013654657001699295144_" gradientUnits="userSpaceOnUse" x1="783.788" y1="563.837" x2="830.156" y2="563.837" gradientTransform="rotate(70.043 1162.636 314.958)"><stop offset="0" stop-color="#fc0"/><stop offset=".467" stop-color="#f6d100"/><stop offset="1" stop-color="#e5d900"/></linearGradient><path d="M815 87.4c-6.8 2.5-15.8-5.2-20-17.3-4.3-12-2.3-23.9 4.5-26.4s15.8 5.2 20 17.3c4.3 12.1 2.3 23.9-4.5 26.4z" fill="url(#SVGID_00000065040869647246401020000013654657001699295144_)"/><linearGradient id="SVGID_00000025419734390431910720000017159811501430998204_" gradientUnits="userSpaceOnUse" x1="478.605" y1="1286.559" x2="512.094" y2="1286.559" gradientTransform="rotate(70.043 1162.636 314.958)"><stop offset="0" stop-color="#f90"/><stop offset=".134" stop-color="#f9a200"/><stop offset=".357" stop-color="#eabc00"/><stop offset=".426" stop-color="#e5c500"/><stop offset="1" stop-color="#e59e03"/></linearGradient><path d="M30.3 34c5-1.8 6.5-10.3 3.4-19S23.9.7 18.9 2.5h-8C7.5 5.3 6 13.8 9.1 22.5S18.9 36.8 23.9 35h7.7c-1.4-1-1.4-1-1.3-1-.1 0 0 0 0 0z" fill="url(#SVGID_00000025419734390431910720000017159811501430998204_)"/><ellipse transform="rotate(-19.957 24.6 18.301)" class="st1" cx="24.6" cy="18.3" rx="9.6" ry="16.7"/><linearGradient id="SVGID_00000137837725726966545430000011285346151678937233_" gradientUnits="userSpaceOnUse" x1="478.564" y1="1283.521" x2="512.005" y2="1283.521" gradientTransform="rotate(70.043 1162.636 314.958)"><stop offset="0" stop-color="#fc0"/><stop offset=".467" stop-color="#f6d100"/><stop offset="1" stop-color="#e5d900"/></linearGradient><path d="M30 34c-4.9 1.8-11.4-3.8-14.4-12.5S14 4.3 18.9 2.5 30.3 6.3 33.3 15s1.6 17.2-3.3 19z" fill="url(#SVGID_00000137837725726966545430000011285346151678937233_)"/><linearGradient id="SVGID_00000096049727044185603490000000672885555105075643_" gradientUnits="userSpaceOnUse" x1="527.745" y1="1387.083" x2="546.773" y2="1387.083" gradientTransform="rotate(30.709 2708.407 160.057)"><stop offset="0" stop-color="#f90"/><stop offset=".134" stop-color="#f9a200"/><stop offset=".357" stop-color="#eabc00"/><stop offset=".426" stop-color="#e5c500"/><stop offset="1" stop-color="#e59e03"/></linearGradient><path d="M223.3 111.1c1.5-2.6-.9-6.9-5.4-9.5-4.5-2.7-9.4-2.8-11-.2-1.5 2.6.9 6.9 5.4 9.5 4.5 2.7 9.4 2.8 11 .2-.1.1-.1.1 0 0-.1 0-.1 0 0 0z" fill="url(#SVGID_00000096049727044185603490000000672885555105075643_)"/><ellipse transform="rotate(-59.291 215.168 106.16)" class="st1" cx="215.2" cy="106.2" rx="5.4" ry="9.5"/><linearGradient id="SVGID_00000132794565996778446750000006839285199915325070_" gradientUnits="userSpaceOnUse" x1="527.709" y1="1387.211" x2="546.462" y2="1387.211" gradientTransform="rotate(30.709 2708.407 160.057)"><stop offset="0" stop-color="#fc0"/><stop offset=".467" stop-color="#f6d100"/><stop offset="1" stop-color="#e5d900"/></linearGradient><path d="M222.9 111.1c-1.5 2.6-6.3 2.5-10.8-.2s-6.8-6.9-5.3-9.5 6.3-2.5 10.8.2 6.8 6.9 5.3 9.5z" fill="url(#SVGID_00000132794565996778446750000006839285199915325070_)"/><linearGradient id="SVGID_00000101789365872667864630000004798620271387602614_" gradientUnits="userSpaceOnUse" x1="27.277" y1="2142.924" x2="68.821" y2="2142.924" gradientTransform="rotate(-13.774 -8452.706 2.664)"><stop offset="0" stop-color="#f90"/><stop offset=".134" stop-color="#f9a200"/><stop offset=".357" stop-color="#eabc00"/><stop offset=".426" stop-color="#e5c500"/><stop offset="1" stop-color="#e59e03"/></linearGradient><path d="M332.8 50.4c0-.1 0-.1 0 0-1.6-6.5-11.9-9.4-23-6.7s-18.9 10.1-17.3 16.5v1.5-.6 1.7-.7 1.7-.7 1.7-.7.7c1.5 6.4 11.9 9.4 23 6.7s18.9-10.1 17.3-16.5v-2.6.7-1.7.7-1.7.7-1 .3z" fill="url(#SVGID_00000101789365872667864630000004798620271387602614_)"/><ellipse transform="rotate(-13.775 312.701 55.2)" class="st1" cx="312.7" cy="55.2" rx="20.8" ry="11.9"/><linearGradient id="SVGID_00000098927486861969353420000011907837270200604308_" gradientUnits="userSpaceOnUse" x1="27.235" y1="2140.486" x2="68.028" y2="2140.486" gradientTransform="rotate(-13.774 -8452.706 2.664)"><stop offset="0" stop-color="#fc0"/><stop offset=".467" stop-color="#f6d100"/><stop offset="1" stop-color="#e5d900"/></linearGradient><path d="M332 50.3c1.5 6.4-6.1 13.8-17 16.5s-21-.3-22.6-6.7c-1.5-6.4 6.1-13.8 17-16.5 11-2.7 21 .3 22.6 6.7z" fill="url(#SVGID_00000098927486861969353420000011907837270200604308_)"/><linearGradient id="SVGID_00000156580695850704635410000018245706874944109716_" gradientUnits="userSpaceOnUse" x1="-420.321" y1="-59.718" x2="-401.292" y2="-59.718" gradientTransform="rotate(107.488 -30.328 272.62)"><stop offset="0" stop-color="#f90"/><stop offset=".134" stop-color="#f9a200"/><stop offset=".357" stop-color="#eabc00"/><stop offset=".426" stop-color="#e5c500"/><stop offset="1" stop-color="#e59e03"/></linearGradient><path d="M398.1 18.6c2.9.9 6.5-2.4 8.1-7.4s.5-9.8-2.3-10.7c-2.9-.9-6.5 2.4-8.1 7.4-1.5 5-.5 9.8 2.3 10.7-.1 0-.1 0 0 0-.1 0 0 0 0 0z" fill="url(#SVGID_00000156580695850704635410000018245706874944109716_)"/><ellipse transform="rotate(-72.512 400.89 9.53)" class="st1" cx="400.9" cy="9.5" rx="9.5" ry="5.4"/><linearGradient id="SVGID_00000141413661130884953780000007436442205319880339_" gradientUnits="userSpaceOnUse" x1="-420.28" y1="-59.527" x2="-401.308" y2="-59.527" gradientTransform="rotate(107.488 -30.328 272.62)"><stop offset="0" stop-color="#fc0"/><stop offset=".467" stop-color="#f6d100"/><stop offset="1" stop-color="#e5d900"/></linearGradient><path d="M398 18.6c-2.8-.9-3.8-5.7-2.3-10.7s5.1-8.3 7.9-7.4 3.8 5.7 2.3 10.7-5 8.3-7.9 7.4z" fill="url(#SVGID_00000141413661130884953780000007436442205319880339_)"/><linearGradient id="SVGID_00000156588899255909071640000009583129071249709994_" gradientUnits="userSpaceOnUse" x1="-396.411" y1="-86.236" x2="-377.382" y2="-86.236" gradientTransform="rotate(107.488 -30.328 272.62)"><stop offset="0" stop-color="#f90"/><stop offset=".134" stop-color="#f9a200"/><stop offset=".357" stop-color="#eabc00"/><stop offset=".426" stop-color="#e5c500"/><stop offset="1" stop-color="#e59e03"/></linearGradient><path d="M416.2 49.4c2.9.9 6.5-2.4 8.1-7.4s.5-9.8-2.3-10.7c-2.9-.9-6.5 2.4-8.1 7.4s-.6 9.8 2.3 10.7c-.1 0-.1 0 0 0-.1 0-.1 0 0 0-.1 0 0 0 0 0z" fill="url(#SVGID_00000156588899255909071640000009583129071249709994_)"/><ellipse transform="rotate(-72.512 418.98 40.243)" class="st1" cx="419" cy="40.2" rx="9.5" ry="5.4"/><linearGradient id="SVGID_00000079479652920879470860000000439995711621193641_" gradientUnits="userSpaceOnUse" x1="-396.368" y1="-86.045" x2="-377.396" y2="-86.045" gradientTransform="rotate(107.488 -30.328 272.62)"><stop offset="0" stop-color="#fc0"/><stop offset=".467" stop-color="#f6d100"/><stop offset="1" stop-color="#e5d900"/></linearGradient><path d="M416.1 49.4c-2.8-.9-3.8-5.7-2.3-10.7s5.1-8.3 7.9-7.4S425.5 37 424 42s-5.1 8.3-7.9 7.4z" fill="url(#SVGID_00000079479652920879470860000000439995711621193641_)"/><g id="paper"><linearGradient id="SVGID_00000147218561159211474000000004571244813271822979_" gradientUnits="userSpaceOnUse" x1="-2094.883" y1="724.882" x2="-2077.505" y2="731.207" gradientTransform="rotate(-142.329 -1145.52 56.652)"><stop offset="0" stop-color="#e0fff2"/><stop offset=".216" stop-color="#dbf6ee"/><stop offset=".552" stop-color="#cddee5"/><stop offset=".865" stop-color="#cacee5"/><stop offset=".994" stop-color="#a8bfbd"/></linearGradient><path d="M6 92.2c2.8 4.2 6.9 8.1 11.6 11.1-.2.9-.3 1.9-.5 2.8C11 103.8 5 99.9 0 95.1c2-1 4-1.9 6-2.9z" fill="url(#SVGID_00000147218561159211474000000004571244813271822979_)"/><linearGradient id="SVGID_00000029736757801300577810000012256517473382170530_" gradientUnits="userSpaceOnUse" x1="-2472.839" y1="1132.191" x2="-2455.461" y2="1138.516" gradientTransform="rotate(-142.329 -1145.52 56.652)"><stop offset="0" stop-color="#e0fff2"/><stop offset=".216" stop-color="#dbf6ee"/><stop offset=".552" stop-color="#cddee5"/><stop offset=".865" stop-color="#cacee5"/><stop offset=".994" stop-color="#a8bfbd"/></linearGradient><path d="M554.1.9C556.9 5.1 561 9 565.7 12c-.2.9-.3 1.9-.5 2.8-6.1-2.3-12.1-6.2-17.1-11.1 2-.9 4-1.9 6-2.8z" fill="url(#SVGID_00000029736757801300577810000012256517473382170530_)"/><linearGradient id="SVGID_00000014616483196112984390000015732994736866741933_" gradientUnits="userSpaceOnUse" x1="-277.317" y1="1731.046" x2="-259.927" y2="1737.376" gradientTransform="rotate(-24.558 -3731.237 -887.889)"><stop offset="0" stop-color="#e0fff2"/><stop offset=".216" stop-color="#dbf6ee"/><stop offset=".552" stop-color="#cddee5"/><stop offset=".865" stop-color="#cacee5"/><stop offset=".994" stop-color="#a8bfbd"/></linearGradient><path d="M516.4 58.6c-5 .5-10.4 2.3-15.2 5.1-.7-.6-1.5-1.2-2.2-1.8 4.9-4.3 11.1-7.8 17.8-10-.2 2.3-.3 4.5-.4 6.7z" fill="url(#SVGID_00000014616483196112984390000015732994736866741933_)"/><linearGradient id="SVGID_00000015343299665427269780000010029515470294815120_" gradientUnits="userSpaceOnUse" x1="116.9" y1="1832.25" x2="132.88" y2="1832.25" gradientTransform="translate(0 -1748)"><stop offset="0" stop-color="#e0fff2"/><stop offset=".216" stop-color="#dbf6ee"/><stop offset=".552" stop-color="#cddee5"/><stop offset=".865" stop-color="#cacee5"/><stop offset=".994" stop-color="#a8bfbd"/></linearGradient><path d="M132.9 87.4c-5.3-.7-10.7.3-16-.3v-2.2c5.3-.7 10.7-3.1 16-3.8v6.3z" fill="url(#SVGID_00000015343299665427269780000010029515470294815120_)"/><linearGradient id="SVGID_00000110469095826667808940000003229537581561083284_" gradientUnits="userSpaceOnUse" x1="256.165" y1="1866.65" x2="272.145" y2="1866.65" gradientTransform="translate(0 -1748)"><stop offset="0" stop-color="#e0fff2"/><stop offset=".216" stop-color="#dbf6ee"/><stop offset=".552" stop-color="#cddee5"/><stop offset=".865" stop-color="#cacee5"/><stop offset=".994" stop-color="#a8bfbd"/></linearGradient><path d="M272.1 121.8c-5.3-.7-10.7.3-16-.3v-2.2c5.3-.7 10.7-3.1 16-3.8v6.3z" fill="url(#SVGID_00000110469095826667808940000003229537581561083284_)"/><linearGradient id="SVGID_00000073689748056289945410000001435127362020754354_" gradientUnits="userSpaceOnUse" x1="-750.972" y1="1242.218" x2="-734.989" y2="1242.218" gradientTransform="rotate(-71.367 -1161.588 13.874)"><stop offset="0" stop-color="#e0fff2"/><stop offset=".216" stop-color="#dbf6ee"/><stop offset=".552" stop-color="#cddee5"/><stop offset=".865" stop-color="#cacee5"/><stop offset=".994" stop-color="#a8bfbd"/></linearGradient><path d="M141.7 3.1c-2.3 4.8-3.1 10.2-5.4 15-.7-.2-1.4-.5-2.1-.7 1-5.3.4-11.1 1.5-16.4 1.9.8 4 1.4 6 2.1z" fill="url(#SVGID_00000073689748056289945410000001435127362020754354_)"/><linearGradient id="SVGID_00000048463158695644477440000015878551494205271181_" gradientUnits="userSpaceOnUse" x1="-841.124" y1="1316.209" x2="-825.14" y2="1316.209" gradientTransform="rotate(-71.367 -1161.588 13.874)"><stop offset="0" stop-color="#e0fff2"/><stop offset=".216" stop-color="#dbf6ee"/><stop offset=".552" stop-color="#cddee5"/><stop offset=".865" stop-color="#cacee5"/><stop offset=".994" stop-color="#a8bfbd"/></linearGradient><path d="M183 112.2c-2.3 4.8-3.1 10.2-5.4 15-.7-.2-1.4-.5-2.1-.7 1-5.3.4-11.1 1.5-16.4l6 2.1z" fill="url(#SVGID_00000048463158695644477440000015878551494205271181_)"/><linearGradient id="SVGID_00000095310340828915939210000000181170071169355416_" gradientUnits="userSpaceOnUse" x1="-782.696" y1="1148.029" x2="-766.713" y2="1148.029" gradientTransform="rotate(-71.367 -1161.588 13.874)"><stop offset="0" stop-color="#e0fff2"/><stop offset=".216" stop-color="#dbf6ee"/><stop offset=".552" stop-color="#cddee5"/><stop offset=".865" stop-color="#cacee5"/><stop offset=".994" stop-color="#a8bfbd"/></linearGradient><path d="M42.3 3.1c-2.3 4.8-3.1 10.2-5.4 15-.7-.2-1.4-.5-2.1-.7 1-5.3.4-11.1 1.5-16.4 2 .8 4 1.4 6 2.1z" fill="url(#SVGID_00000095310340828915939210000000181170071169355416_)"/><linearGradient id="SVGID_00000013890324416815870650000003619233904267232180_" gradientUnits="userSpaceOnUse" x1="-1955.628" y1="726.114" x2="-1939.652" y2="726.114" gradientTransform="rotate(-140.767 -1054.564 51.518)"><stop offset="0" stop-color="#e0fff2"/><stop offset=".216" stop-color="#dbf6ee"/><stop offset=".552" stop-color="#cddee5"/><stop offset=".865" stop-color="#cacee5"/><stop offset=".994" stop-color="#a8bfbd"/></linearGradient><path d="M60.2 85.6c2.2 5.7 8.5 6.4 10.8 12.1-.6.7-1.2 1.5-1.8 2.2-3.3-4.4-10.7-3.8-14-8.1 1.7-2.1 3.4-4.1 5-6.2z" fill="url(#SVGID_00000013890324416815870650000003619233904267232180_)"/><linearGradient id="SVGID_00000043416507485484514100000012207996652525733013_" gradientUnits="userSpaceOnUse" x1="-2858.517" y1="-9.365" x2="-2838.694" y2="-9.365" gradientTransform="rotate(144.302 -1159.699 586.776)"><stop offset="0" stop-color="#e0fff2"/><stop offset=".216" stop-color="#dbf6ee"/><stop offset=".552" stop-color="#cddee5"/><stop offset=".865" stop-color="#cacee5"/><stop offset=".994" stop-color="#a8bfbd"/></linearGradient><path d="M548.7 87.1c7.5-.9 10.4-8.2 18-9 .7.9 1.3 1.9 2 2.8-6.3 2.6-7.9 11.6-14.2 14.2-2-2.7-3.9-5.3-5.8-8z" fill="url(#SVGID_00000043416507485484514100000012207996652525733013_)"/><linearGradient id="SVGID_00000001663643175822352650000014153089419685213371_" gradientUnits="userSpaceOnUse" x1="-2997.608" y1="-73.853" x2="-2977.785" y2="-73.853" gradientTransform="rotate(144.302 -1159.699 586.776)"><stop offset="0" stop-color="#e0fff2"/><stop offset=".216" stop-color="#dbf6ee"/><stop offset=".552" stop-color="#cddee5"/><stop offset=".865" stop-color="#cacee5"/><stop offset=".994" stop-color="#a8bfbd"/></linearGradient><path d="M699.3 58.3c7.5-.9 10.4-8.2 18-9 .7.9 1.3 1.9 2 2.8-6.3 2.6-7.9 11.6-14.2 14.2-2-2.7-3.9-5.3-5.8-8z" fill="url(#SVGID_00000001663643175822352650000014153089419685213371_)"/></g><g id="paper1"><linearGradient id="SVGID_00000146473676972955854670000010012460564930508704_" gradientUnits="userSpaceOnUse" x1="-2059.253" y1="697.356" x2="-2041.876" y2="703.681" gradientTransform="scale(1 -1) rotate(37.671 393.088 4023.606)"><stop offset="0" stop-color="#e0fff2"/><stop offset=".216" stop-color="#dbf6ee"/><stop offset=".552" stop-color="#cddee5"/><stop offset=".865" stop-color="#cacee5"/><stop offset=".994" stop-color="#a8bfbd"/></linearGradient><path d="M499 95.1c-5 4.9-11 8.8-17.1 11.1-.2-.9-.3-1.9-.5-2.8 4.7-3 8.8-6.9 11.6-11.1 2 .9 4 1.8 6 2.8z" fill="url(#SVGID_00000146473676972955854670000010012460564930508704_)"/><linearGradient id="SVGID_00000182489711684751309140000009030331539146010787_" gradientUnits="userSpaceOnUse" x1="-1746.606" y1="539.514" x2="-1729.229" y2="545.839" gradientTransform="scale(1 -1) rotate(37.671 393.088 4023.606)"><stop offset="0" stop-color="#e0fff2"/><stop offset=".216" stop-color="#dbf6ee"/><stop offset=".552" stop-color="#cddee5"/><stop offset=".865" stop-color="#cacee5"/><stop offset=".994" stop-color="#a8bfbd"/></linearGradient><path d="M842.9 29c-5 4.9-11 8.8-17.1 11.1-.2-.9-.3-1.9-.5-2.8 4.7-3 8.8-6.9 11.6-11.1 2 .9 4 1.9 6 2.8z" fill="url(#SVGID_00000182489711684751309140000009030331539146010787_)"/><linearGradient id="SVGID_00000093864323566498463820000016647329698093692861_" gradientUnits="userSpaceOnUse" x1="-1140.161" y1="1364.686" x2="-1122.771" y2="1371.015" gradientTransform="scale(-1 1) rotate(-24.558 -3958.247 155.098)"><stop offset="0" stop-color="#e0fff2"/><stop offset=".216" stop-color="#dbf6ee"/><stop offset=".552" stop-color="#cddee5"/><stop offset=".865" stop-color="#cacee5"/><stop offset=".994" stop-color="#a8bfbd"/></linearGradient><path d="M874.3 77.3c6.7 2.2 12.9 5.7 17.8 10-.7.6-1.5 1.2-2.2 1.8-4.8-2.8-10.2-4.6-15.2-5.1-.2-2.3-.3-4.5-.4-6.7z" fill="url(#SVGID_00000093864323566498463820000016647329698093692861_)"/><linearGradient id="SVGID_00000005246735794338072510000001781351749662845373_" gradientUnits="userSpaceOnUse" x1="101.052" y1="1828.95" x2="117.032" y2="1828.95" gradientTransform="matrix(-1 0 0 1 454 -1748)"><stop offset="0" stop-color="#e0fff2"/><stop offset=".216" stop-color="#dbf6ee"/><stop offset=".552" stop-color="#cddee5"/><stop offset=".865" stop-color="#cacee5"/><stop offset=".994" stop-color="#a8bfbd"/></linearGradient><path d="M337 77.8c5.3.7 10.7 3.1 16 3.8v2.2c-5.3.7-10.7-.4-16 .3v-6.3z" fill="url(#SVGID_00000005246735794338072510000001781351749662845373_)"/><linearGradient id="SVGID_00000103985490047210359930000001196560174666718600_" gradientUnits="userSpaceOnUse" x1="-287" y1="1871.25" x2="-271.02" y2="1871.25" gradientTransform="matrix(-1 0 0 1 454 -1748)"><stop offset="0" stop-color="#e0fff2"/><stop offset=".216" stop-color="#dbf6ee"/><stop offset=".552" stop-color="#cddee5"/><stop offset=".865" stop-color="#cacee5"/><stop offset=".994" stop-color="#a8bfbd"/></linearGradient><path d="M725 120.1c5.3.7 10.7 3.1 16 3.8v2.2c-5.3.7-10.7-.4-16 .3v-6.3z" fill="url(#SVGID_00000103985490047210359930000001196560174666718600_)"/><linearGradient id="SVGID_00000071523014590020657660000009404868517993357467_" gradientUnits="userSpaceOnUse" x1="-742.983" y1="1265.812" x2="-727" y2="1265.812" gradientTransform="scale(-1 1) rotate(-71.368 -1388.578 329.952)"><stop offset="0" stop-color="#e0fff2"/><stop offset=".216" stop-color="#dbf6ee"/><stop offset=".552" stop-color="#cddee5"/><stop offset=".865" stop-color="#cacee5"/><stop offset=".994" stop-color="#a8bfbd"/></linearGradient><path d="M293.4 1c1.1 5.3.5 11.1 1.5 16.4-.7.2-1.4.5-2.1.7-2.3-4.8-3.1-10.2-5.4-15 1.9-.7 4-1.3 6-2.1z" fill="url(#SVGID_00000071523014590020657660000009404868517993357467_)"/><linearGradient id="SVGID_00000170252260631893258440000014132018910456032899_" gradientUnits="userSpaceOnUse" x1="-762.35" y1="1337.884" x2="-746.365" y2="1337.884" gradientTransform="scale(-1 1) rotate(-71.368 -1388.578 329.952)"><stop offset="0" stop-color="#e0fff2"/><stop offset=".216" stop-color="#dbf6ee"/><stop offset=".552" stop-color="#cddee5"/><stop offset=".865" stop-color="#cacee5"/><stop offset=".994" stop-color="#a8bfbd"/></linearGradient><path d="M231.3 42.4c1.1 5.3.5 11.1 1.5 16.4-.7.2-1.4.5-2.1.7-2.3-4.8-3.1-10.2-5.4-15l6-2.1z" fill="url(#SVGID_00000170252260631893258440000014132018910456032899_)"/><linearGradient id="SVGID_00000155827972739730187670000016839525551914256298_" gradientUnits="userSpaceOnUse" x1="-788.458" y1="1184.383" x2="-772.475" y2="1184.383" gradientTransform="scale(-1 1) rotate(-71.368 -1388.578 329.952)"><stop offset="0" stop-color="#e0fff2"/><stop offset=".216" stop-color="#dbf6ee"/><stop offset=".552" stop-color="#cddee5"/><stop offset=".865" stop-color="#cacee5"/><stop offset=".994" stop-color="#a8bfbd"/></linearGradient><path d="M385.1 18.1c1.1 5.3.5 11.1 1.5 16.4-.7.2-1.4.5-2.1.7-2.3-4.8-3.1-10.2-5.4-15l6-2.1z" fill="url(#SVGID_00000155827972739730187670000016839525551914256298_)"/><linearGradient id="SVGID_00000125576302588631464600000013087823794280093064_" gradientUnits="userSpaceOnUse" x1="-1867.012" y1="718.78" x2="-1851.036" y2="718.78" gradientTransform="scale(1 -1) rotate(39.233 371.54 3595.747)"><stop offset="0" stop-color="#e0fff2"/><stop offset=".216" stop-color="#dbf6ee"/><stop offset=".552" stop-color="#cddee5"/><stop offset=".865" stop-color="#cacee5"/><stop offset=".994" stop-color="#a8bfbd"/></linearGradient><path d="M472.1 41.4c-3.3 4.4-10.7 3.8-14 8.1-.6-.7-1.2-1.5-1.8-2.2 2.2-5.7 8.5-6.4 10.8-12.1 1.6 2.1 3.3 4.2 5 6.2z" fill="url(#SVGID_00000125576302588631464600000013087823794280093064_)"/><linearGradient id="SVGID_00000119081394452069343080000001564250628042052000_" gradientUnits="userSpaceOnUse" x1="-2082.769" y1="516.898" x2="-2062.946" y2="516.898" gradientTransform="scale(1 -1) rotate(-35.698 -1595.265 -4306.493)"><stop offset="0" stop-color="#e0fff2"/><stop offset=".216" stop-color="#dbf6ee"/><stop offset=".552" stop-color="#cddee5"/><stop offset=".865" stop-color="#cacee5"/><stop offset=".994" stop-color="#a8bfbd"/></linearGradient><path d="M836.6 120.4c-6.3-2.6-7.9-11.6-14.2-14.2.7-.9 1.3-1.9 2-2.8 7.5.8 10.4 8.1 18 9-2 2.7-3.9 5.3-5.8 8z" fill="url(#SVGID_00000119081394452069343080000001564250628042052000_)"/><linearGradient id="SVGID_00000038392046043823998750000014134914934080349099_" gradientUnits="userSpaceOnUse" x1="-2205.358" y1="534.411" x2="-2185.535" y2="534.411" gradientTransform="scale(1 -1) rotate(-35.698 -1595.265 -4306.493)"><stop offset="0" stop-color="#e0fff2"/><stop offset=".216" stop-color="#dbf6ee"/><stop offset=".552" stop-color="#cddee5"/><stop offset=".865" stop-color="#cacee5"/><stop offset=".994" stop-color="#a8bfbd"/></linearGradient><path d="M747.2 34.6C740.9 32 739.3 23 733 20.4c.7-.9 1.3-1.9 2-2.8 7.5.8 10.4 8.1 18 9-1.9 2.7-3.8 5.4-5.8 8z" fill="url(#SVGID_00000038392046043823998750000014134914934080349099_)"/></g><linearGradient id="SVGID_00000134232601434465769650000017472021342642715529_" gradientUnits="userSpaceOnUse" x1="1185.595" y1="1539.452" x2="1203.116" y2="1539.452" gradientTransform="rotate(10.295 9552.653 406.889)"><stop offset="0" stop-color="#f90"/><stop offset=".134" stop-color="#f9a200"/><stop offset=".357" stop-color="#eabc00"/><stop offset=".426" stop-color="#e5c500"/><stop offset="1" stop-color="#e59e03"/></linearGradient><path d="M1135 28.4c.5-2.8-2.9-5.7-7.7-6.6-4.8-.9-9 .6-9.5 3.4-.5 2.7 3 5.7 7.7 6.5s9-.6 9.5-3.3z" fill="url(#SVGID_00000134232601434465769650000017472021342642715529_)"/><ellipse transform="rotate(-79.7 1126.454 26.799)" class="st1" cx="1126.5" cy="26.8" rx="5" ry="8.7"/><linearGradient id="SVGID_00000160156849251438964790000016367420726769867454_" gradientUnits="userSpaceOnUse" x1="1185.613" y1="1539.577" x2="1202.794" y2="1539.577" gradientTransform="rotate(10.295 9552.653 406.889)"><stop offset="0" stop-color="#fc0"/><stop offset=".467" stop-color="#f6d100"/><stop offset="1" stop-color="#e5d900"/></linearGradient><path d="M1134.7 28.4c-.5 2.7-4.6 4.3-9.3 3.4-4.7-.9-8.1-3.8-7.6-6.5s4.6-4.3 9.3-3.4 8.1 3.7 7.6 6.5z" fill="url(#SVGID_00000160156849251438964790000016367420726769867454_)"/><linearGradient id="SVGID_00000073703461909595611650000015238890459281286292_" gradientUnits="userSpaceOnUse" x1="327.791" y1="2807.065" x2="352.212" y2="2807.065" gradientTransform="rotate(-32.371 -3957.296 384.338)"><stop offset="0" stop-color="#f90"/><stop offset=".134" stop-color="#f9a200"/><stop offset=".357" stop-color="#eabc00"/><stop offset=".426" stop-color="#e5c500"/><stop offset="1" stop-color="#e59e03"/></linearGradient><path d="M979.6 123.3c-2.1-3.3-8.4-3-14.1.6s-8.6 9.2-6.6 12.5c2.1 3.3 8.4 3 14.1-.6 5.8-3.7 8.7-9.3 6.6-12.5.1 0 .1 0 0 0 .1 0 .1 0 0 0z" fill="url(#SVGID_00000073703461909595611650000015238890459281286292_)"/><ellipse transform="rotate(-32.371 969.288 129.801)" class="st1" cx="969.3" cy="129.8" rx="12.2" ry="7"/><linearGradient id="SVGID_00000127756939974018432970000012062192254716127406_" gradientUnits="userSpaceOnUse" x1="327.78" y1="2806.957" x2="351.852" y2="2806.957" gradientTransform="rotate(-32.371 -3957.296 384.338)"><stop offset="0" stop-color="#fc0"/><stop offset=".467" stop-color="#f6d100"/><stop offset="1" stop-color="#e5d900"/></linearGradient><path d="M979.2 123.3c2 3.3-.9 8.9-6.5 12.5s-11.7 3.9-13.8.6c-2-3.3.9-8.9 6.5-12.5 5.6-3.6 11.8-3.9 13.8-.6z" fill="url(#SVGID_00000127756939974018432970000012062192254716127406_)"/><linearGradient id="SVGID_00000113345285319676951040000000216545874093524650_" gradientUnits="userSpaceOnUse" x1="408.647" y1="2832.976" x2="466.173" y2="2832.976" gradientTransform="rotate(-32.371 -3957.296 384.338)"><stop offset="0" stop-color="#f90"/><stop offset=".134" stop-color="#f9a200"/><stop offset=".357" stop-color="#eabc00"/><stop offset=".426" stop-color="#e5c500"/><stop offset="1" stop-color="#e59e03"/></linearGradient><path d="M1086.9 79.5c-4.9-7.8-19.7-7.1-33.2 1.4-13.4 8.5-20.3 21.6-15.5 29.3 0 0 0 .1.1.1 0 0 0 .1.1.1 0 0 0 .1.1.1 0 0 0 .1.1.1 0 0 0 .1.1.1 0 0 0 .1.1.1 0 0 0 .1.1.1 0 0 0 .1.1.1 0 0 0 .1.1.1 0 0 0 .1.1.1s0 .1.1.1c0 0 0 .1.1.1 0 0 0 .1.1.1 0 0 0 .1.1.1s0 .1.1.1c0 0 0 .1.1.1 0 0 0 .1.1.1 0 0 0 .1.1.1s0 .1.1.1c0 0 0 .1.1.1 0 0 0 .1.1.1 0 0 0 .1.1.1 0 0 0 .1.1.1 0 0 0 .1.1.1 0 0 0 .1.1.1 0 0 0 .1.1.1 0 0 0 .1.1.1 0 0 0 .1.1.1s0 .1.1.1c0 0 0 .1.1.1 0 0 0 .1.1.1 0 0 0 .1.1.1s0 .1.1.1c0 0 0 .1.1.1 0 0 0 .1.1.1 0 0 0 .1.1.1 0 0 0 .1.1.1 0 0 0 .1.1.1 0 0 0 .1.1.1 0 0 0 .1.1.1 0 0 0 .1.1.1 0 0 0 .1.1.1s0 .1.1.1c0 0 0 .1.1.1 0 0 0 .1.1.1 0 0 0 .1.1.1s0 .1.1.1c0 0 0 .1.1.1 0 0 0 .1.1.1 0 0 0 .1.1.1 0 0 0 .1.1.1 0 0 0 .1.1.1 0 0 0 .1.1.1 0 0 0 .1.1.1 0 0 0 .1.1.1 0 0 0 .1.1.1 0 0 0 .1.1.1 0 0 0 .1.1.1 0 0 0 .1.1.1 0 0 0 .1.1.1s0 .1.1.1c0 0 0 .1.1.1 0 0 0 .1.1.1 0 0 0 .1.1.1 0 0 0 .1.1.1 0 0 0 .1.1.1 0 0 0 .1.1.1 0 0 0 .1.1.1s0 .1.1.1c0 0 0 .1.1.1 0 0 0 .1.1.1 0 0 0 .1.1.1 0 0 0 .1.1.1 0 0 0 .1.1.1 0 0 0 .1.1.1 0 0 0 .1.1.1 0 0 0 .1.1.1 0 0 0 .1.1.1s0 .1.1.1c0 0 0 .1.1.1 4.9 7.7 19.7 7 33.2-1.4 13.4-8.5 20.3-21.6 15.5-29.3 0 0 0-.1-.1-.1 0 0 0-.1-.1-.1 0 0 0-.1-.1-.1 0 0 0-.1-.1-.1 0 0 0-.1-.1-.1 0 0 0-.1-.1-.1s0-.1-.1-.1c0 0 0-.1-.1-.1 0 0 0-.1-.1-.1 0 0 0-.1-.1-.1s0-.1-.1-.1c0 0 0-.1-.1-.1 0 0 0-.1-.1-.1 0 0 0-.1-.1-.1s0-.1-.1-.1c0 0 0-.1-.1-.1 0 0 0-.1-.1-.1 0 0 0-.1-.1-.1 0 0 0-.1-.1-.1 0 0 0-.1-.1-.1 0 0 0-.1-.1-.1 0 0 0-.1-.1-.1 0 0 0-.1-.1-.1 0 0 0-.1-.1-.1s0-.1-.1-.1c0 0 0-.1-.1-.1 0 0 0-.1-.1-.1 0 0 0-.1-.1-.1 0 0 0-.1-.1-.1 0 0 0-.1-.1-.1 0 0 0-.1-.1-.1 0 0 0-.1-.1-.1 0 0 0-.1-.1-.1 0 0 0-.1-.1-.1 0 0 0-.1-.1-.1 0 0 0-.1-.1-.1 0 0 0-.1-.1-.1 0 0 0-.1-.1-.1 0 0 0-.1-.1-.1 0 0 0-.1-.1-.1 0 0 0-.1-.1-.1 0 0 0-.1-.1-.1s0-.1-.1-.1c0 0 0-.1-.1-.1 0 0 0-.1-.1-.1 0 0 0-.1-.1-.1 0 0 0-.1-.1-.1 0 0 0-.1-.1-.1 0 0 0-.1-.1-.1 0 0 0-.1-.1-.1s0-.1-.1-.1c0 0 0-.1-.1-.1 0 0 0-.1-.1-.1 0 0 0-.1-.1-.1 0 0 0-.1-.1-.1 0 0 0-.1-.1-.1 0 0 0-.1-.1-.1 0 0 0-.1-.1-.1 0 0 0-.1-.1-.1 0 0 0-.1-.1-.1s0-.1-.1-.1c0 0 0-.1-.1-.1 0 0 0-.1-.1-.1 0 0 0-.1-.1-.1s0-.1-.1-.1c0 0 0-.1-.1-.1 0 0 0-.1-.1-.1 0 0 0-.1-.1-.1s0-.1-.1-.1c0 0 0-.1-.1-.1 0 0 0-.1-.1-.1 0 0 0-.1-.1-.1 0 0 0-.1-.1-.1 0 0 0-.1-.1-.1 0 0 0-.1-.1-.1 0 0 0-.1-.1-.1 0 0 0-.1-.1-.1-.3-.1-.3-.2-.3-.3 0 .1 0 .1 0 0z" fill="url(#SVGID_00000113345285319676951040000000216545874093524650_)"/><ellipse transform="rotate(-32.371 1062.611 94.905)" class="st1" cx="1062.6" cy="94.9" rx="28.7" ry="16.5"/><linearGradient id="SVGID_00000041975724943935091480000008503269775800412820_" gradientUnits="userSpaceOnUse" x1="408.651" y1="2827.215" x2="465.292" y2="2827.215" gradientTransform="rotate(-32.371 -3957.296 384.338)"><stop offset="0" stop-color="#fc0"/><stop offset=".467" stop-color="#f6d100"/><stop offset="1" stop-color="#e5d900"/></linearGradient><path d="M1085.9 79.5c4.8 7.7-2 20.8-15.1 29.3-13.2 8.5-27.7 9.2-32.5 1.4-4.8-7.7 2-20.8 15.1-29.3s27.7-9.1 32.5-1.4z" fill="url(#SVGID_00000041975724943935091480000008503269775800412820_)"/><linearGradient id="SVGID_00000071555327583207087450000008425272558488421814_" gradientUnits="userSpaceOnUse" x1="631.676" y1="2299.419" x2="673.22" y2="2299.419" gradientTransform="rotate(-13.774 -8452.706 2.664)"><stop offset="0" stop-color="#f90"/><stop offset=".134" stop-color="#f9a200"/><stop offset=".357" stop-color="#eabc00"/><stop offset=".426" stop-color="#e5c500"/><stop offset="1" stop-color="#e59e03"/></linearGradient><path d="M957.1 58.5c0-.1 0-.1 0 0-1.6-6.5-11.9-9.4-23-6.7s-18.9 10.1-17.3 16.5v1.5-.6 1.7-.7 1.7-.7 1.7-.7.7c1.5 6.4 11.9 9.4 23 6.7s18.9-10.1 17.3-16.5v-2.6.7-1.7.7-1.7.7-1 .3z" fill="url(#SVGID_00000071555327583207087450000008425272558488421814_)"/><ellipse transform="rotate(-13.775 936.999 63.198)" class="st1" cx="937" cy="63.2" rx="20.8" ry="11.9"/><linearGradient id="SVGID_00000044174995038961826820000000866286320927217798_" gradientUnits="userSpaceOnUse" x1="631.62" y1="2296.981" x2="672.412" y2="2296.981" gradientTransform="rotate(-13.774 -8452.706 2.664)"><stop offset="0" stop-color="#fc0"/><stop offset=".467" stop-color="#f6d100"/><stop offset="1" stop-color="#e5d900"/></linearGradient><path d="M956.3 58.4c1.5 6.4-6.1 13.8-17 16.5s-21-.3-22.6-6.7c-1.5-6.4 6.1-13.8 17-16.5 11-2.7 21 .3 22.6 6.7z" fill="url(#SVGID_00000044174995038961826820000000866286320927217798_)"/><linearGradient id="SVGID_00000155121625263733690400000000418913553623529108_" gradientUnits="userSpaceOnUse" x1="-600.24" y1="-657.588" x2="-581.212" y2="-657.588" gradientTransform="rotate(107.488 -30.328 272.62)"><stop offset="0" stop-color="#f90"/><stop offset=".134" stop-color="#f9a200"/><stop offset=".357" stop-color="#eabc00"/><stop offset=".426" stop-color="#e5c500"/><stop offset="1" stop-color="#e59e03"/></linearGradient><path d="M1022.4 26.7c2.9.9 6.5-2.4 8.1-7.4s.5-9.8-2.3-10.7c-2.9-.9-6.5 2.4-8.1 7.4-1.5 5-.5 9.8 2.3 10.7-.1 0-.1 0 0 0-.1 0 0 0 0 0z" fill="url(#SVGID_00000155121625263733690400000000418913553623529108_)"/><ellipse transform="rotate(-72.512 1025.297 17.54)" class="st1" cx="1025.3" cy="17.6" rx="9.5" ry="5.4"/><linearGradient id="SVGID_00000038380596407331612690000015103522682333549475_" gradientUnits="userSpaceOnUse" x1="-600.199" y1="-657.397" x2="-581.228" y2="-657.397" gradientTransform="rotate(107.488 -30.328 272.62)"><stop offset="0" stop-color="#fc0"/><stop offset=".467" stop-color="#f6d100"/><stop offset="1" stop-color="#e5d900"/></linearGradient><path d="M1022.3 26.7c-2.8-.9-3.8-5.7-2.3-10.7s5.1-8.3 7.9-7.4c2.8.9 3.8 5.7 2.3 10.7s-5 8.3-7.9 7.4z" fill="url(#SVGID_00000038380596407331612690000015103522682333549475_)"/><linearGradient id="SVGID_00000165925457689346848080000008878893479143789727_" gradientUnits="userSpaceOnUse" x1="-538.802" y1="-670.741" x2="-519.773" y2="-670.741" gradientTransform="rotate(107.488 -30.328 272.62)"><stop offset="0" stop-color="#f90"/><stop offset=".134" stop-color="#f9a200"/><stop offset=".357" stop-color="#eabc00"/><stop offset=".426" stop-color="#e5c500"/><stop offset="1" stop-color="#e59e03"/></linearGradient><path d="M1016.5 89.2c2.9.9 6.5-2.4 8.1-7.4s.5-9.8-2.3-10.7c-2.9-.9-6.5 2.4-8.1 7.4-1.6 5-.6 9.8 2.3 10.7-.1 0-.1 0 0 0-.1 0-.1 0 0 0-.1 0 0 0 0 0z" fill="url(#SVGID_00000165925457689346848080000008878893479143789727_)"/><ellipse transform="rotate(-72.512 1019.278 80.085)" class="st1" cx="1019.3" cy="80.1" rx="9.5" ry="5.4"/><linearGradient id="SVGID_00000049200654443863985510000007462465979287141255_" gradientUnits="userSpaceOnUse" x1="-538.745" y1="-670.551" x2="-519.773" y2="-670.551" gradientTransform="rotate(107.488 -30.328 272.62)"><stop offset="0" stop-color="#fc0"/><stop offset=".467" stop-color="#f6d100"/><stop offset="1" stop-color="#e5d900"/></linearGradient><path d="M1016.4 89.2c-2.8-.9-3.8-5.7-2.3-10.7s5.1-8.3 7.9-7.4c2.8.9 3.8 5.7 2.3 10.7s-5.1 8.3-7.9 7.4z" fill="url(#SVGID_00000049200654443863985510000007462465979287141255_)"/><g id="paper_00000158741341416034924390000001068569814116116411_"><linearGradient id="SVGID_00000137113085506061459250000015299141841757914522_" gradientUnits="userSpaceOnUse" x1="287.208" y1="1997.804" x2="304.598" y2="2004.134" gradientTransform="rotate(-24.558 -3731.237 -887.889)"><stop offset="0" stop-color="#e0fff2"/><stop offset=".216" stop-color="#dbf6ee"/><stop offset=".552" stop-color="#cddee5"/><stop offset=".865" stop-color="#cacee5"/><stop offset=".994" stop-color="#a8bfbd"/></linearGradient><path d="M1140.7 66.6c-5 .5-10.4 2.3-15.2 5.1-.7-.6-1.5-1.2-2.2-1.8 4.9-4.3 11.1-7.8 17.8-10-.2 2.3-.3 4.5-.4 6.7z" fill="url(#SVGID_00000137113085506061459250000015299141841757914522_)"/><linearGradient id="SVGID_00000001649765899845983820000011628400749660256703_" gradientUnits="userSpaceOnUse" x1="880.468" y1="1874.75" x2="896.448" y2="1874.75" gradientTransform="translate(0 -1748)"><stop offset="0" stop-color="#e0fff2"/><stop offset=".216" stop-color="#dbf6ee"/><stop offset=".552" stop-color="#cddee5"/><stop offset=".865" stop-color="#cacee5"/><stop offset=".994" stop-color="#a8bfbd"/></linearGradient><path d="M896.4 129.9c-5.3-.7-10.7.3-16-.3v-2.2c5.3-.7 10.7-3.1 16-3.8v6.3z" fill="url(#SVGID_00000001649765899845983820000011628400749660256703_)"/></g><g id="paper1_00000101079235986484605390000007363651802620544144_"><linearGradient id="SVGID_00000010304605947419002160000012829773072896995252_" gradientUnits="userSpaceOnUse" x1="-1569.986" y1="309.417" x2="-1552.609" y2="315.742" gradientTransform="scale(1 -1) rotate(37.671 393.088 4023.606)"><stop offset="0" stop-color="#e0fff2"/><stop offset=".216" stop-color="#dbf6ee"/><stop offset=".552" stop-color="#cddee5"/><stop offset=".865" stop-color="#cacee5"/><stop offset=".994" stop-color="#a8bfbd"/></linearGradient><path d="M1123.3 103.2c-5 4.9-11 8.8-17.1 11.1-.2-.9-.3-1.9-.5-2.8 4.7-3 8.8-6.9 11.6-11.1 2 .9 4 1.8 6 2.8z" fill="url(#SVGID_00000010304605947419002160000012829773072896995252_)"/><linearGradient id="SVGID_00000083063564734095150650000000643244723242806453_" gradientUnits="userSpaceOnUse" x1="-523.251" y1="1837.05" x2="-507.271" y2="1837.05" gradientTransform="matrix(-1 0 0 1 454 -1748)"><stop offset="0" stop-color="#e0fff2"/><stop offset=".216" stop-color="#dbf6ee"/><stop offset=".552" stop-color="#cddee5"/><stop offset=".865" stop-color="#cacee5"/><stop offset=".994" stop-color="#a8bfbd"/></linearGradient><path d="M961.3 85.9c5.3.7 10.7 3.1 16 3.8v2.2c-5.3.7-10.7-.4-16 .3v-6.3z" fill="url(#SVGID_00000083063564734095150650000000643244723242806453_)"/><linearGradient id="SVGID_00000072254041578158773420000011978898639514978478_" gradientUnits="userSpaceOnUse" x1="-950.076" y1="676.829" x2="-934.093" y2="676.829" gradientTransform="scale(-1 1) rotate(-71.368 -1388.578 329.952)"><stop offset="0" stop-color="#e0fff2"/><stop offset=".216" stop-color="#dbf6ee"/><stop offset=".552" stop-color="#cddee5"/><stop offset=".865" stop-color="#cacee5"/><stop offset=".994" stop-color="#a8bfbd"/></linearGradient><path d="M917.7 9.1c1.1 5.3.5 11.1 1.5 16.4-.7.2-1.4.5-2.1.7-2.3-4.8-3.1-10.2-5.4-15 1.9-.7 4-1.3 6-2.1z" fill="url(#SVGID_00000072254041578158773420000011978898639514978478_)"/><linearGradient id="SVGID_00000096772476239180800900000014385693401690737049_" gradientUnits="userSpaceOnUse" x1="-969.437" y1="748.9" x2="-953.453" y2="748.9" gradientTransform="scale(-1 1) rotate(-71.368 -1388.578 329.952)"><stop offset="0" stop-color="#e0fff2"/><stop offset=".216" stop-color="#dbf6ee"/><stop offset=".552" stop-color="#cddee5"/><stop offset=".865" stop-color="#cacee5"/><stop offset=".994" stop-color="#a8bfbd"/></linearGradient><path d="M855.6 50.5c1.1 5.3.5 11.1 1.5 16.4-.7.2-1.4.5-2.1.7-2.3-4.8-3.1-10.2-5.4-15l6-2.1z" fill="url(#SVGID_00000096772476239180800900000014385693401690737049_)"/><linearGradient id="SVGID_00000042721993021151068230000009126180650723887254_" gradientUnits="userSpaceOnUse" x1="-995.546" y1="595.399" x2="-979.563" y2="595.399" gradientTransform="scale(-1 1) rotate(-71.368 -1388.578 329.952)"><stop offset="0" stop-color="#e0fff2"/><stop offset=".216" stop-color="#dbf6ee"/><stop offset=".552" stop-color="#cddee5"/><stop offset=".865" stop-color="#cacee5"/><stop offset=".994" stop-color="#a8bfbd"/></linearGradient><path d="M1009.4 26.2c1.1 5.3.5 11.1 1.5 16.4-.7.2-1.4.5-2.1.7-2.3-4.8-3.1-10.2-5.4-15l6-2.1z" fill="url(#SVGID_00000042721993021151068230000009126180650723887254_)"/><linearGradient id="SVGID_00000065765466596767242490000017253884472313182381_" gradientUnits="userSpaceOnUse" x1="-1388.547" y1="317.661" x2="-1372.571" y2="317.661" gradientTransform="scale(1 -1) rotate(39.233 371.54 3595.747)"><stop offset="0" stop-color="#e0fff2"/><stop offset=".216" stop-color="#dbf6ee"/><stop offset=".552" stop-color="#cddee5"/><stop offset=".865" stop-color="#cacee5"/><stop offset=".994" stop-color="#a8bfbd"/></linearGradient><path d="M1096.4 49.5c-3.3 4.4-10.7 3.8-14 8.1-.6-.7-1.2-1.5-1.8-2.2 2.2-5.7 8.5-6.4 10.8-12.1 1.6 2.1 3.3 4.2 5 6.2z" fill="url(#SVGID_00000065765466596767242490000017253884472313182381_)"/></g></svg>