<svg version="1.1" id="Layer_1" xmlns="http://www.w3.org/2000/svg" x="0" y="0" viewBox="0 0 1233.8 144" xml:space="preserve"><style>.st0{fill:#951099}.st1{fill:#08deff}.st2{fill:#ffc203}.st3{fill:#ff1a99}.st4{fill:#44ff3c}.st5{fill:#ea00e2}.st6{fill:#c157ff}.st7{fill:#ffd385}.st8{fill:#c480ff}.st9{fill:#ff8080}.st10{fill:#ffc580}.st11{fill:#d8be00}.st12{fill:#ff168a}.st13{fill:#fff124}.st14{fill:#e65100}.st15{fill:#e88800}.st16{fill:#ff61d0}.st17{fill:#00afd8}.st18{fill:#0af4ff}.st19{fill:#fff766}.st20{fill:#2cb700}.st21{fill:#49ff2e}</style><path class="st0" d="M69.1 133.3c.4.7 1.3 1 2 .5l154.1-89.5c.7-.4 1-1.3.5-2-.4-.7-1.3-1-2-.5l-154 89.5c-.7.4-1 1.3-.6 2zm95.6-87.1c-.4-.7-1.3-1-2-.5L1 138.9c-.7.4-1 1.3-.5 2 .4.7 1.3 1 2 .5l161.7-93.3c.6-.2.9-1.2.5-1.9z"/><path class="st1" d="M232.8 108.7c.2.4.1 1-.3 1.2l-52.3 30c-.4.2-1 .1-1.2-.3-.2-.4-.1-1 .3-1.2l52.3-30c.4-.2.9-.1 1.2.3z"/><path class="st2" d="M649.4 2.6c.2.4.1 1-.3 1.2l-52.3 30c-.4.2-1 .1-1.2-.3-.2-.4-.1-1 .3-1.2l52.3-30c.4-.3 1-.1 1.2.3z"/><path class="st3" d="M655.5 15.6c.2.4.1 1-.3 1.2l-30.4 17.9c-.4.2-.9.1-1.2-.3-.2-.4-.1-.9.3-1.2l30.4-17.9c.4-.2.9-.1 1.2.3z"/><path class="st4" d="M263 76.6c.2.4.1.9-.3 1.2l-52.3 30c-.4.2-1 .1-1.2-.3-.2-.4-.1-.9.3-1.2l52.3-30c.5-.2 1-.1 1.2.3z"/><path class="st5" d="M200.6 113.9c.2.4.1.9-.3 1.2L170.8 132c-.4.2-1 .1-1.2-.3-.2-.4-.1-1 .3-1.2l29.5-16.9c.5-.3 1-.2 1.2.3z"/><path class="st6" d="M38.4 77.2c.1.2.1.4-.2.5-.2.1-.4 0-.5-.2L33 66.8c-.1-.2-.1-.4.2-.5.2-.1.4 0 .5.2l4.7 10.7zm6.3 1.3c-.2.2-.5.2-.7.1-.2-.1-.2-.4 0-.6l6.6-6.4c.2-.2.5-.2.7-.1.2.1.2.4 0 .6l-6.6 6.4zm-1.9-5.7c-.1.2-.3.4-.6.4s-.4-.2-.3-.5l1.1-3.8c.1-.2.3-.4.6-.4s.4.2.3.5l-1.1 3.8zm-8.4 10.3c.3 0 .5-.2.5-.5 0-.2-.2-.4-.4-.4l-9.2.5c-.3 0-.5.2-.5.5 0 .2.2.4.4.4l9.2-.5zm-3-5.2c.2.1.5 0 .7-.2.2-.2.1-.5-.1-.6l-3.5-1.8c-.2-.1-.5 0-.7.2-.2.2-.1.5.1.6l3.5 1.8zm11.5 9.6c-.1-.2-.3-.3-.5-.2-.2.1-.3.3-.2.5L47 98.6c.1.2.3.3.5.2.2-.1.3-.3.2-.5l-4.8-10.8zm3.3-5.6c-.3 0-.5.2-.5.5 0 .2.2.4.4.4l9.2-.5c.3 0 .5-.2.5-.5 0-.2-.2-.4-.4-.4l-9.2.5zm3 5.2c-.2-.1-.5 0-.7.2-.2.2-.1.5.1.6l3.5 1.8c.2.1.5 0 .7-.2.2-.2.1-.5-.1-.6l-3.5-1.8zm-13.3-.6c.2-.2.5-.2.7-.1.2.1.2.4 0 .6L30 93.4c-.2.2-.5.2-.7.1-.2-.1-.2-.4 0-.6l6.6-6.4zm1.8 5.7c.1-.2.3-.4.6-.4s.4.2.3.5l-1.1 3.8c-.1.2-.3.4-.6.4s-.4-.2-.3-.5l1.1-3.8z"/><path class="st7" d="M100.5 26.2c.1.3.2.5-.1.7-.4.1-.4-.1-.5-.4l-5.7-15.7c-.1-.3-.2-.5.1-.7.4-.1.4.1.5.4l5.7 15.7zm9.1 2.5c-.3.2-.7.3-1 0-.2-.2-.2-.6.1-.9l10-8.5c.3-.2.7-.3 1 0 .2.2.2.6-.1.9l-10 8.5zm-2-8.3c-.1.3-.5.5-.9.5-.4-.1-.6-.4-.4-.7l1.9-5.3c.1-.3.5-.5.9-.5.4.1.6.4.4.7l-1.9 5.3zM94.5 34.1c.4 0 .7-.3.8-.6 0-.3-.2-.6-.6-.6l-13.1-.1c-.4 0-.7.3-.8.6 0 .3.2.6.6.6l13.1.1zm-3.7-7.7c.3.2.7.1 1-.2.2-.3.2-.7-.1-.8l-4.8-2.8c-.3-.2-.7-.1-1 .2-.2.3-.2.7.1.8l4.8 2.8zm15.2 15c-.1-.3-.2-.6-.5-.4-.4.1-.2.4-.1.7l5.7 15.7c.1.3.2.6.5.4.4-.1.2-.4.1-.7L106 41.4zm5.4-7.8c-.4 0-.7.3-.8.6 0 .3.2.6.6.6l13.1.1c.4 0 .7-.3.8-.6 0-.3-.2-.6-.6-.6l-13.1-.1zm3.7 7.7c-.3-.2-.7-.1-1 .2-.2.3-.2.7.1.8l4.8 2.8c.3.2.7.1 1-.2.2-.3.2-.7-.1-.8l-4.8-2.8zm-18.8-2.2c.3-.2.7-.3 1 0 .2.2.2.6-.1.9l-10 8.5c-.3.2-.7.3-1 0-.2-.2-.2-.6.1-.9l10-8.5zm2.1 8.3c.1-.3.5-.5.9-.5.4.1.6.4.4.7l-1.9 5.3c-.1.3-.5.5-.9.5-.4-.1-.6-.4-.4-.7l1.9-5.3z"/><path class="st8" d="M220.7 46c-.1.2-.4.3-.7.1-.3-.1-.4-.4-.3-.7l6.4-11.1c.1-.2.4-.3.7-.1.3.1.4.4.3.7L220.7 46zm2.9 6.4c-.3 0-.5-.3-.5-.5 0-.3.2-.4.5-.4l9.9 1.6c.3 0 .5.3.5.6s-.2.4-.5.4l-9.9-1.7zm3.8-5.3c-.2.1-.6 0-.7-.3-.1-.2 0-.5.2-.6l4-1.5c.2-.1.6 0 .7.3.1.2.1.5-.2.6l-4 1.5zm-14.5-.8c.2.2.5.3.7.2.2-.1.2-.4.1-.7l-6.4-7.7c-.2-.2-.5-.3-.7-.2-.2.1-.2.4-.1.7l6.4 7.7zm2.7-6c0 .3.3.5.6.5s.5-.2.4-.5l-.7-4.2c0-.3-.3-.5-.6-.5s-.5.2-.4.5l.7 4.2zm-1.1 16.4c.1-.2 0-.5-.3-.7-.3-.1-.6-.1-.7.1l-6.4 11.1c-.1.2 0 .5.3.7.3.1.6.1.7-.1l6.4-11.1zm7.1-.8c-.2-.2-.5-.3-.7-.2-.2.1-.2.4-.1.7l6.4 7.7c.2.2.5.3.7.2.2-.1.2-.4.1-.7l-6.4-7.7zm-2.7 6c0-.3-.3-.5-.6-.5s-.5.2-.4.5l.7 4.2c0 .3.3.5.6.5s.5-.2.4-.5l-.7-4.2zm-8-12.1c.3 0 .5.3.5.5 0 .3-.2.4-.5.4l-9.9-1.6c-.3 0-.5-.3-.5-.5 0-.3.2-.4.5-.4l9.9 1.6zm-3.8 5.3c.2-.1.6 0 .7.3.1.2 0 .5-.2.6l-4 1.5c-.2.1-.6 0-.7-.3-.1-.2-.1-.5.2-.6l4-1.5z"/><path class="st9" d="M566.4 17.3c.1.2.2.4-.1.5-.2.1-.3-.1-.4-.3L561.5 7c-.1-.2-.2-.4.1-.5.2-.1.3.1.4.3l4.4 10.5zm6.3 1.4c-.2.2-.5.2-.7.1-.2-.1-.2-.4 0-.6l6.5-6.1c.2-.2.5-.2.7-.1.2.1.2.4 0 .6l-6.5 6.1zm-1.7-5.6c-.1.2-.3.4-.6.3-.2 0-.4-.2-.3-.5l1.1-3.7c.1-.2.3-.4.6-.3.2 0 .4.2.3.5l-1.1 3.7zm-8.5 9.8c.3 0 .5-.2.5-.4s-.2-.4-.4-.4l-8.9.3c-.3 0-.5.2-.5.4s.2.4.4.4l8.9-.3zm-2.8-5.1c.2.1.5 0 .7-.2.2-.2.1-.5-.1-.6l-3.4-1.8c-.2-.1-.5 0-.7.2-.2.2-.1.5.1.6l3.4 1.8zm10.9 9.7c-.1-.2-.1-.4-.4-.3-.2.1-.1.3-.1.5l4.4 10.6c.1.2.1.4.4.3.2-.1.1-.3.1-.5l-4.4-10.6zm3.5-5.5c-.3 0-.5.2-.5.4s.2.4.4.4l8.9-.3c.3 0 .5-.2.5-.4s-.2-.4-.4-.4l-8.9.3zm2.7 5.1c-.2-.1-.5 0-.7.2-.2.2-.1.5.1.6l3.4 1.8c.2.1.5 0 .7-.2.2-.2.1-.5-.1-.6l-3.4-1.8zm-12.9-.9c.2-.2.5-.2.7-.1.2.1.2.4 0 .6l-6.5 6.1c-.2.2-.5.2-.7.1-.2-.1-.2-.4 0-.6l6.5-6.1zm1.7 5.6c.1-.2.3-.4.6-.3.2 0 .4.2.3.5l-1.1 3.7c-.1.2-.3.4-.6.3-.2 0-.4-.2-.3-.5l1.1-3.7z"/><path class="st10" d="M532.7 117.8c.1.2.2.3-.1.4-.2.1-.3-.1-.4-.3l-4.2-10.1c-.1-.2-.2-.3.1-.4.2-.1.3.1.4.3l4.2 10.1zm6.1 1.3c-.2.2-.5.2-.6.1-.2-.1-.2-.4 0-.6l6.2-5.8c.2-.2.5-.2.6-.1.2.1.2.4 0 .6l-6.2 5.8zm-1.6-5.3c-.1.2-.3.4-.6.3-.2 0-.4-.2-.3-.5l1.1-3.5c.1-.2.3-.4.6-.3.2 0 .4.2.3.5l-1.1 3.5zm-8.1 9.4c.2 0 .5-.2.5-.4s-.2-.4-.4-.4l-8.5.3c-.2 0-.5.2-.5.4s.2.4.4.4l8.5-.3zm-2.7-4.9c.2.1.5 0 .6-.2.1-.2.1-.4-.1-.5l-3.2-1.7c-.2-.1-.5 0-.6.2-.1.2-.1.4.1.5l3.2 1.7zm10.4 9.2c-.1-.2-.1-.4-.4-.3-.2.1-.1.2-.1.4l4.2 10.1c.1.2.1.4.4.3.2-.1.1-.2.1-.4l-4.2-10.1zm3.3-5.2c-.2 0-.5.2-.5.4s.2.4.4.4l8.5-.3c.2 0 .5-.2.5-.4s-.2-.4-.4-.4l-8.5.3zm2.6 4.9c-.2-.1-.5 0-.6.2-.1.2-.1.4.1.5l3.3 1.7c.2.1.5 0 .6-.2.1-.2.1-.4-.1-.5l-3.3-1.7zm-12.3-.9c.2-.2.5-.2.6-.1.2.1.2.4 0 .6l-6.2 5.8c-.2.2-.5.2-.6.1-.2-.1-.2-.4 0-.6l6.2-5.8zm1.6 5.4c.1-.2.3-.4.6-.3.2 0 .4.2.3.5l-1.1 3.5c-.1.2-.3.4-.6.3-.2 0-.4-.2-.3-.5l1.1-3.5z"/><path class="st7" d="M71.4 40.1c0 1.6-1.3 2.9-2.9 2.9-1.6 0-2.9-1.3-2.9-2.9 0-1.6 1.3-2.9 2.9-2.9 1.6-.1 2.9 1.3 2.9 2.9zm502.9 17.8c0 1.6-1.3 2.9-2.9 2.9-1.6 0-2.9-1.3-2.9-2.9 0-1.6 1.3-2.9 2.9-2.9 1.6-.1 2.9 1.2 2.9 2.9z"/><path class="st11" d="M564.6 109.4c0 1.6-1.3 2.9-2.9 2.9-1.6 0-2.9-1.3-2.9-2.9 0-1.6 1.3-2.9 2.9-2.9 1.6 0 2.9 1.3 2.9 2.9z"/><path class="st12" d="M607.7 80.2c0 1.6-1.3 2.9-2.9 2.9-1.6 0-2.9-1.3-2.9-2.9 0-1.6 1.3-2.9 2.9-2.9 1.6 0 2.9 1.3 2.9 2.9z"/><path class="st7" d="M638.3 91.4c0 1.6-1.3 2.9-2.9 2.9-1.6 0-2.9-1.3-2.9-2.9 0-1.6 1.3-2.9 2.9-2.9 1.6-.1 2.9 1.2 2.9 2.9zM71.4 77.7c0 1.6-1.3 2.9-2.9 2.9-1.6 0-2.9-1.3-2.9-2.9 0-1.6 1.3-2.9 2.9-2.9 1.6-.1 2.9 1.3 2.9 2.9zM14.3 89.5c0 1.6-1.3 2.9-2.9 2.9-1.6 0-2.9-1.3-2.9-2.9 0-1.6 1.3-2.9 2.9-2.9 1.6 0 2.9 1.3 2.9 2.9zm695.1-62.9c0 1.6-1.3 2.9-2.9 2.9-1.6 0-2.9-1.3-2.9-2.9 0-1.6 1.3-2.9 2.9-2.9 1.5 0 2.9 1.3 2.9 2.9zM248.3 10c0 1.6-1.3 2.9-2.9 2.9-1.6 0-2.9-1.3-2.9-2.9 0-1.6 1.3-2.9 2.9-2.9 1.6 0 2.9 1.3 2.9 2.9zm-41.1 10.6c0 1.6-1.3 2.9-2.9 2.9-1.6 0-2.9-1.3-2.9-2.9 0-1.6 1.3-2.9 2.9-2.9 1.6-.1 2.9 1.3 2.9 2.9zm-59.9 16.7c0 1.6-1.3 2.9-2.9 2.9-1.6 0-2.9-1.3-2.9-2.9 0-1.6 1.3-2.9 2.9-2.9 1.6 0 2.9 1.3 2.9 2.9zm9.8-24.4c0 1.6-1.3 2.9-2.9 2.9-1.6 0-2.9-1.3-2.9-2.9 0-1.6 1.3-2.9 2.9-2.9 1.5 0 2.9 1.3 2.9 2.9zm100.2 98.9c0 1.6-1.3 2.9-2.9 2.9-1.6 0-2.9-1.3-2.9-2.9 0-1.6 1.3-2.9 2.9-2.9 1.6 0 2.9 1.3 2.9 2.9zM128 129.3c0 1.6-1.3 2.9-2.9 2.9-1.6 0-2.9-1.3-2.9-2.9 0-1.6 1.3-2.9 2.9-2.9 1.6 0 2.9 1.3 2.9 2.9zm101.5 5.5c0 1.6-1.3 2.9-2.9 2.9-1.6 0-2.9-1.3-2.9-2.9 0-1.6 1.3-2.9 2.9-2.9 1.6-.1 2.9 1.3 2.9 2.9z"/><path class="st0" d="m40.9 34.8 2.7 5.5 6 .9-4.4 4.2 1.1 6-5.4-2.8-5.4 2.8 1-6-4.3-4.2 6-.9zM750.4 5.1l2.7 5.5 6 .9-4.3 4.2 1 6-5.4-2.8-5.4 2.8 1-6-4.3-4.2 6-.9zM251.2 53.6l2.7 5.5 6 .9-4.4 4.2 1.1 6-5.4-2.8-5.4 2.8 1-6-4.4-4.2 6.1-.9zM352.1 5.1l2.7 5.5 6.1.9-4.4 4.2 1 6-5.4-2.8-5.3 2.8 1-6-4.4-4.2 6-.9zm249.7 109 2.7 5.4 6 .9-4.3 4.3 1 6-5.4-2.9-5.4 2.9 1-6-4.3-4.3 6-.9zM175.3.7l2.7 5.5 6 .9-4.4 4.2 1.1 6-5.4-2.8-5.4 2.8 1-6-4.4-4.2 6.1-.9z"/><path class="st11" d="M178.7 112.9c.1.7 5.9-16.2 21.9-14.2 17.3 2.2 22.4-14.4 13.7-20.3-9.3-6.3-41-.2-35.6 34.5z"/><path class="st13" d="M214.3 78.4c-1.9-1.3-4.7-2-7.9-2.2 2.5 1.4 6.1 4.4 3.8 9.8-3.4 7.9-25.2-1.7-31.5 26.9.1.7 5.9-16.2 21.9-14.2 17.3 2.2 22.4-14.4 13.7-20.3z"/><path class="st14" d="M158.3 74c-.2.3 1.7-9.3-6.5-12.8-8.8-3.7-6.6-13-.9-13.4 6.2-.4 19.6 11.3 7.4 26.2z"/><path class="st15" d="M151 47.9c1.2-.1 2.8.3 4.3 1.2-1.6 0-4.1.4-4.5 3.6-.6 4.7 12.4 6.2 7.5 21.4-.2.3 1.7-9.3-6.5-12.8-8.7-3.7-6.6-13-.8-13.4z"/><path class="st14" d="M668.2 42.6c.3-.1-4 6.2.8 11.1 5.2 5.3.8 11.3-3.4 9.8-4.6-1.5-10.6-13.9 2.6-20.9z"/><path class="st15" d="M665.5 63.5c-.9-.3-1.9-1.1-2.8-2.1 1.1.5 3.1 1 4.3-1.2 1.8-3.2-7-8.2 1.1-17.6.3-.1-4 6.2.8 11.1 5.2 5.3.9 11.3-3.4 9.8z"/><path class="st12" d="M67.4 143.7c0 .7-8.9-13.8-23.1-8.5-15.5 5.6-23.7-8.6-16.8-15.9 7.2-7.7 37.6-8.7 39.9 24.4z"/><path class="st16" d="M27.4 119.3c1.5-1.6 3.9-2.9 6.8-3.6-2 1.8-4.7 5.4-1.5 9.9 4.7 6.6 22.9-6.8 34.6 18.2 0 .7-8.9-13.8-23.1-8.5-15.4 5.6-23.6-8.7-16.8-16z"/><path class="st17" d="M641.2 36c-.2-.3.3 9.1-7.9 11.3-8.9 2.3-8.1 11.5-2.7 12.7 5.8 1.2 20.1-8 10.6-24z"/><path class="st18" d="M630.6 59.9c1.2.3 2.7.1 4.3-.5-1.5-.2-3.9-1-3.8-4.1.1-4.5 12.7-4.1 10.2-19.3-.2-.3.3 9.1-7.9 11.3-9 2.3-8.2 11.4-2.8 12.6z"/><path class="st0" d="M526.3 11.8c-.4-.7-1.3-1-2-.5L329.1 124.4c-.7.4-1 1.3-.5 2 .4.7 1.3 1 2 .5l195.2-113c.7-.4.9-1.4.5-2.1zm-60.4 5.3c-.4-.7-1.3-1-2-.5l-173 101.3c-.7.4-1 1.3-.5 2 .4.7 1.3 1 2 .5l173-101.3c.6-.4.9-1.3.5-2z"/><path class="st1" d="M461.4 7c.2.4.1 1-.3 1.2l-52.3 30c-.4.2-1 .1-1.2-.3-.2-.4-.1-1 .3-1.2l52.3-30c.4-.2 1-.1 1.2.3z"/><path class="st2" d="M338.8 39.4c.2.4.1 1-.3 1.2l-52.3 30c-.4.2-1 .1-1.2-.3-.2-.4-.1-1 .3-1.2l52.3-30c.4-.3.9-.1 1.2.3z"/><path class="st3" d="M344.8 52.4c.2.4.1 1-.3 1.2l-30.4 17.9c-.4.2-.9.1-1.2-.3-.2-.4-.1-.9.3-1.2l30.4-17.9c.5-.2 1-.1 1.2.3z"/><path class="st5" d="M439.3 7.2c.2.4.1.9-.3 1.2l-29.5 16.9c-.4.2-1 .1-1.2-.3-.2-.4-.1-1 .3-1.2l29.5-16.9c.4-.3.9-.2 1.2.3z"/><path class="st19" d="M493.3 67.9c-.3.3-.4.6-.7.3-.3-.3 0-.4.2-.7l13-14.3c.3-.3.4-.6.7-.3.3.3 0 .4-.2.7l-13 14.3zm2.5 10.6c-.4-.2-.7-.6-.6-1 .1-.4.5-.6.9-.4l14.1 5.6c.4.2.7.6.6 1-.1.4-.5.6-.9.4l-14.1-5.6zm7.3-6.6c-.4.1-.8-.2-.9-.6-.1-.4.1-.8.5-.8l6.4-.9c.4-.1.8.2.9.6.1.4-.1.8-.5.8l-6.4.9zM482 66c.2.4.7.6 1 .5.4-.1.5-.6.3-.9l-6.9-13.4c-.2-.4-.7-.6-1-.5-.4.1-.5.6-.3.9L482 66zm5.9-7.9c0 .4.3.8.7.9.4.1.8-.2.8-.6l.3-6.5c0-.4-.3-.8-.7-.9-.4-.1-.8.2-.8.6l-.3 6.5zm-7.1 23.6c.3-.3.5-.4.2-.7-.3-.3-.4 0-.7.3l-13 14.3c-.3.3-.5.4-.2.7.3.3.4 0 .7-.3l13-14.3zm10.9 1.3c-.2-.4-.7-.6-1-.5-.4.1-.5.6-.3.9l6.9 13.4c.2.4.7.6 1 .5.4-.1.5-.6.3-.9L491.7 83zm-5.8 8c0-.4-.3-.8-.7-.9-.4-.1-.8.2-.8.6l-.3 6.5c0 .4.3.8.7.9.4.1.8-.2.8-.6l.3-6.5zm-8-20.4c.4.2.7.6.6 1-.1.4-.5.6-.9.4l-14.1-5.6c-.4-.2-.7-.6-.6-1 .1-.4.5-.6.9-.4l14.1 5.6zm-7.3 6.5c.4-.1.8.2.9.6.1.4-.1.8-.5.8l-6.4.9c-.4.1-.8-.2-.9-.6-.1-.4.1-.8.5-.8l6.4-.9z"/><path class="st9" d="M281 38.9c.1.2.2.4-.1.5-.2.1-.3-.1-.4-.3l-4.4-10.5c-.1-.2-.2-.4.1-.5.2-.1.3.1.4.3l4.4 10.5zm6.3 1.4c-.2.2-.5.2-.7.1-.2-.1-.2-.4 0-.6l6.5-6.1c.2-.2.5-.2.7-.1.2.1.2.4 0 .6l-6.5 6.1zm-1.6-5.6c-.1.2-.3.4-.6.3-.2 0-.4-.2-.3-.5l1.1-3.7c.1-.2.3-.4.6-.3.2 0 .4.2.3.5l-1.1 3.7zm-8.5 9.8c.3 0 .5-.2.5-.4s-.2-.4-.4-.4l-8.9.3c-.3 0-.5.2-.5.4s.2.4.4.4l8.9-.3zm-2.8-5.1c.2.1.5 0 .7-.2.2-.2.1-.5-.1-.6l-3.4-1.8c-.2-.1-.5 0-.7.2-.2.2-.1.5.1.6l3.4 1.8zm10.9 9.7c-.1-.2-.1-.4-.4-.3-.2.1-.1.3-.1.5l4.4 10.6c.1.2.1.4.4.3.2-.1.1-.3.1-.5l-4.4-10.6zm3.4-5.5c-.3 0-.5.2-.5.4s.2.4.4.4l8.9-.3c.3 0 .5-.2.5-.4s-.2-.4-.4-.4l-8.9.3zm2.8 5.1c-.2-.1-.5 0-.7.2-.2.2-.1.5.1.6l3.4 1.8c.2.1.5 0 .7-.2.2-.2.1-.5-.1-.6l-3.4-1.8zm-12.9-.9c.2-.2.5-.2.7-.1.2.1.2.4 0 .6l-6.5 6.1c-.2.2-.5.2-.7.1-.2-.1-.2-.4 0-.6l6.5-6.1zm1.7 5.6c.1-.2.3-.4.6-.3.2 0 .4.2.3.5l-1.1 3.7c-.1.2-.3.4-.6.3-.2 0-.4-.2-.3-.5l1.1-3.7z"/><path class="st10" d="M386.2 94.7c.1.2.2.3-.1.4-.2.1-.3-.1-.4-.3l-4.2-10.1c-.1-.2-.2-.3.1-.4.2-.1.3.1.4.3l4.2 10.1zm6 1.3c-.2.2-.5.2-.6.1-.2-.1-.2-.4 0-.6l6.2-5.8c.2-.2.5-.2.6-.1.2.1.2.4 0 .6l-6.2 5.8zm-1.6-5.3c-.1.2-.3.4-.6.3-.2 0-.4-.2-.3-.5l1.1-3.5c.1-.2.3-.4.6-.3.2 0 .4.2.3.5l-1.1 3.5zm-8.1 9.3c.2 0 .5-.2.5-.4s-.2-.4-.4-.4l-8.5.3c-.2 0-.5.2-.5.4s.2.4.4.4l8.5-.3zm-2.7-4.9c.2.1.5 0 .6-.2.1-.2.1-.4-.1-.5l-3.2-1.7c-.2-.1-.5 0-.6.2-.1.2-.1.4.1.5l3.2 1.7zm10.4 9.3c-.1-.2-.1-.4-.4-.3-.2.1-.1.2-.1.4l4.2 10.1c.1.2.1.4.4.3.2-.1.1-.2.1-.4l-4.2-10.1zm3.3-5.2c-.2 0-.5.2-.5.4s.2.4.4.4l8.5-.3c.2 0 .5-.2.5-.4s-.2-.4-.4-.4l-8.5.3zm2.7 4.9c-.2-.1-.5 0-.6.2-.1.2-.1.4.1.5l3.3 1.7c.2.1.5 0 .6-.2.1-.2.1-.4-.1-.5l-3.3-1.7zm-12.4-.9c.2-.2.5-.2.6-.1.2.1.2.4 0 .6l-6.2 5.8c-.2.2-.5.2-.6.1-.2-.1-.2-.4 0-.6l6.2-5.8zm1.6 5.4c.1-.2.3-.4.6-.3.2 0 .4.2.3.5l-1.1 3.5c-.1.2-.3.4-.6.3-.2 0-.4-.2-.3-.5l1.1-3.5z"/><path class="st7" d="M310.2 33.5c0 1.6-1.3 2.9-2.9 2.9-1.6 0-2.9-1.3-2.9-2.9 0-1.6 1.3-2.9 2.9-2.9 1.5-.1 2.9 1.3 2.9 2.9z"/><path class="st11" d="M300.4 85c0 1.6-1.3 2.9-2.9 2.9-1.6 0-2.9-1.3-2.9-2.9 0-1.6 1.3-2.9 2.9-2.9 1.6 0 2.9 1.3 2.9 2.9z"/><path class="st12" d="M424.4 96.9c0 1.6-1.3 2.9-2.9 2.9-1.6 0-2.9-1.3-2.9-2.9 0-1.6 1.3-2.9 2.9-2.9 1.5-.1 2.9 1.2 2.9 2.9z"/><path class="st7" d="M455 108c0 1.6-1.3 2.9-2.9 2.9-1.6 0-2.9-1.3-2.9-2.9 0-1.6 1.3-2.9 2.9-2.9 1.6-.1 2.9 1.3 2.9 2.9zm71-64.8c0 1.6-1.3 2.9-2.9 2.9-1.6 0-2.9-1.3-2.9-2.9 0-1.6 1.3-2.9 2.9-2.9 1.6 0 2.9 1.3 2.9 2.9zm-215.8 89.9c0 1.6-1.3 2.9-2.9 2.9-1.6 0-2.9-1.3-2.9-2.9 0-1.6 1.3-2.9 2.9-2.9 1.5-.1 2.9 1.2 2.9 2.9zm64-89.5c0 1.6-1.3 2.9-2.9 2.9-1.6 0-2.9-1.3-2.9-2.9 0-1.6 1.3-2.9 2.9-2.9 1.6 0 2.9 1.3 2.9 2.9zm0 89.5c0 1.6-1.3 2.9-2.9 2.9-1.6 0-2.9-1.3-2.9-2.9 0-1.6 1.3-2.9 2.9-2.9 1.6-.1 2.9 1.2 2.9 2.9zm114.9-117c0 1.6-1.3 2.9-2.9 2.9-1.6 0-2.9-1.3-2.9-2.9s1.3-2.9 2.9-2.9c1.6-.1 2.9 1.3 2.9 2.9z"/><path class="st0" d="m412.6 118.8 2.7 5.4 6 .9-4.3 4.2 1 6-5.4-2.8-5.4 2.8 1.1-6-4.4-4.2 6-.9zM274.1 88.1l2.6 5.5 6.1.9-4.4 4.2 1 6-5.3-2.8-5.4 2.8 1-6-4.4-4.2 6.1-.9zm215.8 30.7 2.7 5.4 6 .9-4.3 4.2 1 6-5.4-2.8-5.4 2.8 1-6-4.3-4.2 6-.9z"/><path class="st14" d="M357.6 79.4c.3-.1-4 6.2.8 11.1 5.2 5.3.8 11.3-3.4 9.8-4.6-1.5-10.6-13.9 2.6-20.9z"/><path class="st15" d="M354.9 100.3c-.9-.3-1.9-1.1-2.8-2.1 1.1.5 3.1 1 4.3-1.2 1.8-3.2-7-8.2 1.1-17.6.3-.1-4 6.2.8 11.1 5.2 5.3.8 11.3-3.4 9.8z"/><path class="st20" d="M421.4 39.6c-.6.1 14.9 5.5 12.9 20.1-2.1 15.8 13.1 20.6 18.6 12.6 5.8-8.5.3-37.5-31.5-32.7z"/><path class="st21" d="M452.9 72.3c1.2-1.7 1.9-4.3 2-7.2-1.3 2.3-4.1 5.6-9 3.5-7.2-3.1 1.7-23.1-24.5-29-.6.1 14.9 5.5 12.9 20.1-2.1 15.8 13.1 20.6 18.6 12.6z"/><path class="st17" d="M330.6 72.8c-.2-.3.3 9.1-7.9 11.3-8.9 2.3-8.1 11.5-2.7 12.7 5.8 1.2 20.1-8 10.6-24z"/><path class="st18" d="M320 96.7c1.2.3 2.7.1 4.3-.5-1.5-.2-3.9-1-3.8-4.1.1-4.5 12.7-4.1 10.2-19.3-.2-.3.3 9.1-7.9 11.3-9 2.2-8.3 11.4-2.8 12.6z"/><path class="st0" d="M741.6 138c.4.6 1.1.8 1.8.5L876.8 61c.6-.4.8-1.1.5-1.8-.4-.6-1.1-.8-1.8-.5L742 136.2c-.6.4-.8 1.2-.4 1.8zm82.8-75.4c-.4-.6-1.1-.8-1.8-.5l-140 80.8c-.6.4-.8 1.1-.5 1.8.4.6 1.1.8 1.8.5l140-80.8c.6-.4.8-1.2.5-1.8z"/><path class="st1" d="M891.3 114.7c.2.4.1.8-.3 1l-45.3 26c-.4.2-.8.1-1-.3-.2-.4-.1-.8.3-1l45.3-26c.4-.2.8 0 1 .3z"/><path class="st4" d="M917.5 86.9c.2.4.1.8-.3 1l-45.3 26c-.4.2-.8.1-1-.3-.2-.4-.1-.8.3-1l45.3-26c.4-.2.8-.1 1 .3z"/><path class="st5" d="M863.5 119.2c.2.4.1.8-.3 1l-25.6 14.7c-.4.2-.8.1-1-.3-.2-.4-.1-.8.3-1l25.6-14.7c.3-.2.8-.1 1 .3z"/><path class="st6" d="M686 105.4c.1.2 0 .4-.2.5-.2.1-.4 0-.5-.2l-4.1-9.3c-.1-.2 0-.4.2-.5.2-.1.4 0 .5.2l4.1 9.3zm5.4 1.2c-.2.2-.4.2-.6.1-.2-.1-.2-.4 0-.5l5.7-5.6c.2-.2.4-.2.6-.1.2.1.2.4 0 .5l-5.7 5.6zm-1.6-5c-.1.2-.3.3-.5.3s-.4-.2-.3-.4l.9-3.3c.1-.2.3-.3.5-.3s.4.2.3.4l-.9 3.3zm-7.3 8.9c.2 0 .4-.2.4-.4s-.2-.4-.4-.3l-7.9.5c-.2 0-.4.2-.4.4s.2.4.4.3l7.9-.5zm-2.6-4.5c.2.1.4 0 .6-.2.1-.2.1-.4-.1-.5l-3.1-1.5c-.2-.1-.4 0-.6.2-.1.2-.1.4.1.5l3.1 1.5zm10 8.4c-.1-.2-.2-.3-.5-.2-.2.1-.2.3-.2.5l4.1 9.3c.1.2.2.3.5.2.2-.1.2-.3.2-.5l-4.1-9.3zm2.8-4.9c-.2 0-.4.2-.4.4s.2.4.4.3l7.9-.5c.2 0 .4-.2.4-.4s-.2-.4-.4-.3l-7.9.5zm2.6 4.5c-.2-.1-.4 0-.6.2-.1.2-.1.4.1.5l3.1 1.5c.2.1.4 0 .6-.2.1-.2.1-.4-.1-.5l-3.1-1.5zm-11.5-.6c.2-.2.4-.2.6-.1.2.1.2.4 0 .5l-5.7 5.6c-.2.2-.4.2-.6.1-.2-.1-.2-.4 0-.5l5.7-5.6zm1.6 5c.1-.2.3-.3.5-.3s.4.2.3.4l-.9 3.3c-.1.2-.3.3-.5.3s-.4-.2-.3-.4l.9-3.3z"/><path class="st7" d="M739.8 61.3c.1.3.2.5-.1.6-.3.1-.4-.1-.5-.4l-4.9-13.6c-.1-.3-.2-.5.1-.6.3-.1.4.1.4.4l5 13.6zm7.9 2.1c-.2.2-.6.2-.8 0-.2-.2-.2-.5.1-.7l8.6-7.3c.2-.2.6-.2.8 0 .2.2.2.5-.1.7l-8.6 7.3zm-1.8-7.2c-.1.3-.4.5-.8.4-.3-.1-.5-.3-.4-.6l1.6-4.6c.1-.3.4-.5.8-.4.3.1.5.3.4.6l-1.6 4.6zm-11.3 11.9c.3 0 .6-.2.7-.5 0-.3-.2-.5-.5-.5l-11.3-.1c-.3 0-.6.2-.7.5 0 .3.2.5.5.5l11.3.1zm-3.2-6.7c.3.2.6.1.8-.2.2-.2.2-.6-.1-.7l-4.2-2.5c-.3-.2-.6-.1-.8.2-.2.2-.2.6.1.7l4.2 2.5zm13.1 13c-.1-.3-.1-.5-.4-.4-.3.1-.2.3-.1.6l4.9 13.6c.1.3.1.5.5.4.3-.1.2-.3.1-.6l-5-13.6zm4.7-6.7c-.3 0-.6.2-.7.5 0 .3.2.5.5.5l11.3.1c.3 0 .6-.2.7-.5 0-.3-.2-.5-.5-.5l-11.3-.1zm3.2 6.6c-.3-.2-.6-.1-.8.2-.2.2-.2.6.1.7l4.2 2.5c.3.2.6.1.8-.2.2-.2.2-.6-.1-.7l-4.2-2.5zm-16.3-1.9c.2-.2.6-.2.8 0 .2.2.2.5-.1.7l-8.6 7.3c-.2.2-.6.2-.8 0-.2-.2-.2-.5.1-.7l8.6-7.3zm1.8 7.2c.1-.3.4-.5.8-.4.3.1.5.3.4.6l-1.6 4.6c-.1.3-.4.5-.8.4-.3-.1-.5-.3-.4-.6l1.6-4.6z"/><path class="st8" d="M880.5 79.8c-.1.2-.4.2-.6.1-.2-.1-.3-.4-.2-.6l5.5-9.6c.1-.2.4-.2.6-.1.2.1.3.4.2.6l-5.5 9.6zm2.5 5.5c-.2 0-.4-.3-.4-.5s.2-.4.5-.3l8.6 1.4c.2 0 .4.3.4.5s-.2.4-.5.3l-8.6-1.4zm3.3-4.6c-.2.1-.5 0-.6-.2-.1-.2 0-.4.2-.5l3.5-1.3c.2-.1.5 0 .6.2.1.2 0 .4-.2.5l-3.5 1.3zm-12.6-.7c.2.2.4.3.6.1.2-.1.2-.4.1-.6l-5.5-6.7c-.2-.2-.4-.3-.6-.1-.2.1-.2.4-.1.6l5.5 6.7zm2.3-5.2c0 .2.3.4.5.4s.4-.2.4-.4l-.6-3.7c0-.2-.3-.4-.5-.4s-.4.2-.4.4l.6 3.7zm-.9 14.2c.1-.2 0-.4-.2-.6-.2-.1-.5-.1-.6.1l-5.5 9.6c-.1.2 0 .4.2.6.2.1.5.1.6-.1l5.5-9.6zm6.1-.7c-.2-.2-.4-.3-.6-.1-.2.1-.2.4-.1.6l5.5 6.7c.2.2.4.3.6.1.2-.1.2-.4.1-.6l-5.5-6.7zm-2.3 5.2c0-.2-.3-.4-.5-.4s-.4.2-.4.4l.6 3.7c0 .2.3.4.5.4s.4-.2.4-.4l-.6-3.7zM872 83c.2 0 .4.3.4.5s-.2.4-.5.3l-8.6-1.4c-.2 0-.4-.3-.4-.5s.2-.4.5-.3L872 83zm-3.3 4.6c.2-.1.5 0 .6.2.1.2 0 .4-.2.5l-3.5 1.3c-.2.1-.5 0-.6-.2-.1-.2 0-.4.2-.5l3.5-1.3z"/><path class="st7" d="M714.6 73.3c0 1.4-1.1 2.6-2.6 2.6-1.4 0-2.6-1.1-2.6-2.6 0-1.4 1.1-2.6 2.6-2.6 1.4 0 2.6 1.2 2.6 2.6zm0 32.5c0 1.4-1.1 2.6-2.6 2.6-1.4 0-2.6-1.1-2.6-2.6 0-1.4 1.1-2.6 2.6-2.6 1.4.1 2.6 1.2 2.6 2.6zm-49.5 10.3c0 1.4-1.1 2.6-2.6 2.6-1.4 0-2.6-1.1-2.6-2.6 0-1.4 1.1-2.6 2.6-2.6s2.6 1.2 2.6 2.6zm167.1-59.7c0 1.4-1.1 2.6-2.6 2.6-1.4 0-2.6-1.1-2.6-2.6 0-1.4 1.1-2.6 2.6-2.6 1.4 0 2.6 1.2 2.6 2.6zm-51.9 14.5c0 1.4-1.1 2.6-2.6 2.6-1.4 0-2.6-1.1-2.6-2.6 0-1.4 1.1-2.6 2.6-2.6s2.6 1.1 2.6 2.6zm8.5-21.2c0 1.4-1.1 2.6-2.6 2.6-1.4 0-2.6-1.1-2.6-2.6 0-1.4 1.1-2.6 2.6-2.6 1.4.1 2.6 1.2 2.6 2.6zm86.8 85.7c0 1.4-1.1 2.6-2.6 2.6-1.4 0-2.6-1.1-2.6-2.6 0-1.4 1.1-2.6 2.6-2.6s2.6 1.2 2.6 2.6zm29.9-94.6c0 1.4-1.1 2.6-2.6 2.6-1.4 0-2.6-1.1-2.6-2.6s1.1-2.6 2.6-2.6c1.4 0 2.6 1.2 2.6 2.6z"/><path class="st0" d="m688.1 68.7 2.4 4.7 5.2.8-3.8 3.7.9 5.2-4.7-2.5-4.6 2.5.8-5.2-3.7-3.7 5.2-.8zM873 11.8l2.4 4.8 5.2.7-3.8 3.7.9 5.2-4.7-2.4-4.6 2.4.9-5.2-3.8-3.7 5.2-.7zm-68.5 27.4 2.4 4.7 5.2.7-3.8 3.7.9 5.2-4.7-2.4-4.6 2.4.8-5.2-3.7-3.7 5.2-.7z"/><path class="st11" d="M807.5 136.3c.1.6 5.1-14.1 18.9-12.3 15 1.9 19.4-12.5 11.8-17.6-7.9-5.4-35.4-.1-30.7 29.9z"/><path class="st13" d="M838.3 106.4c-1.6-1.1-4.1-1.8-6.9-1.9 2.2 1.2 5.3 3.8 3.3 8.5-2.9 6.8-21.9-1.5-27.2 23.3.1.6 5.1-14.1 18.9-12.3 15 1.9 19.5-12.5 11.9-17.6z"/><path class="st14" d="M835.4 30.2c-.2.3 1.4-8.1-5.6-11.1-7.6-3.2-5.8-11.3-.8-11.6 5.4-.4 16.9 9.7 6.4 22.7z"/><path class="st15" d="M829 7.5c1.1-.1 2.4.3 3.8 1-1.4 0-3.6.4-3.9 3.1-.5 4 10.8 5.3 6.5 18.5-.2.3 1.4-8.1-5.6-11.1-7.6-3.1-5.8-11.2-.8-11.5z"/><path class="st12" d="M964.6 52.9c0 .6-7.7-11.9-20-7.4-13.4 4.9-20.5-7.5-14.6-13.8 6.3-6.6 32.7-7.5 34.6 21.2z"/><path class="st16" d="M930 31.8c1.3-1.4 3.4-2.5 5.9-3.2-1.8 1.6-4.1 4.6-1.3 8.5 4.1 5.7 19.9-5.9 30 15.8 0 .6-7.7-11.9-20-7.4-13.4 4.9-20.5-7.5-14.6-13.7z"/><path class="st0" d="M1001.4 117.3c.4.6 1.2.9 1.8.5l175-99.3c.6-.4.9-1.2.5-1.8-.4-.6-1.2-.9-1.8-.5l-175 99.3c-.6.3-.8 1.1-.5 1.8zm54-4.3c.4.6 1.2.9 1.8.5l155.1-89c.6-.4.9-1.2.5-1.8-.4-.6-1.2-.9-1.8-.5l-155.1 89c-.6.4-.8 1.2-.5 1.8z"/><path class="st2" d="M1153 142.9c-.3-.6-.1-1.4.5-1.8l77.9-43.7c.6-.3 1.4-.1 1.8.5.3.6.1 1.4-.5 1.8l-77.9 43.7c-.6.4-1.4.1-1.8-.5z"/><path class="st3" d="M1157 128c-.3-.6-.1-1.4.5-1.8l45.3-26.1c.6-.4 1.4-.1 1.8.5.4.6.1 1.4-.5 1.8l-45.3 26.1c-.7.4-1.5.1-1.8-.5z"/><path class="st19" d="M971.2 102.9c.4-.4.6-.9 1-.4.5.4.1.7-.3 1.1l-19.4 21c-.4.4-.6.9-1 .4-.5-.4-.1-.7.3-1.1l19.4-21zm-3.4-15.8c.6.2 1 .9.8 1.4-.1.6-.7.8-1.3.6l-20.7-8.5c-.6-.2-1-.9-.8-1.4.1-.6.7-.8 1.3-.6l20.7 8.5zm-11 9.7c.6-.1 1.2.3 1.4.9.2.6-.1 1.2-.7 1.2l-9.5 1.3c-.6.1-1.2-.3-1.4-.9-.2-.6.1-1.2.7-1.2l9.5-1.3zm31.1 9c-.3-.6-1-.9-1.5-.7-.5.2-.8.8-.5 1.4l10.1 20c.3.6 1 .9 1.5.7.5-.2.8-.8.5-1.4l-10.1-20zm-8.7 11.7c0-.6-.4-1.2-1.1-1.3-.6-.1-1.1.2-1.2.8l-.5 9.6c0 .6.4 1.2 1.1 1.3.6.1 1.1-.2 1.2-.8l.5-9.6zm10.7-34.9c-.4.4-.8.6-.3 1.1.5.4.7 0 1-.4l19.4-21c.4-.4.8-.6.3-1.1-.5-.4-.7 0-1 .4l-19.4 21zm-16-2.1c.3.6 1 .9 1.5.7.5-.2.7-.8.5-1.4l-10.1-20c-.3-.6-1-.9-1.5-.7-.5.2-.8.8-.5 1.4l10.1 20zm8.7-11.7c0 .6.4 1.2 1.1 1.3.6.1 1.1-.2 1.2-.8l.5-9.6c0-.6-.4-1.2-1.1-1.3-.6-.1-1.1.2-1.2.8l-.5 9.6zm11.5 30.3c-.6-.2-1-.9-.8-1.4.1-.6.8-.8 1.3-.6l20.7 8.5c.6.2 1 .9.8 1.4-.1.6-.8.8-1.3.6l-20.7-8.5zm10.9-9.6c-.6.1-1.2-.3-1.4-.9-.2-.6.1-1.2.7-1.2l9.5-1.3c.6-.1 1.2.3 1.4.9.2.6-.1 1.2-.7 1.2l-9.5 1.3z"/><path class="st10" d="M1133 123.5c-.1-.3-.3-.5.1-.7.3-.1.4.1.5.4l6.1 15c.1.3.3.5-.1.7-.3.1-.4-.1-.5-.4l-6.1-15zm-9-2c.3-.2.7-.3.9-.1.2.2.2.6 0 .8l-9.3 8.6c-.3.2-.7.3-.9.1-.2-.2-.2-.6 0-.8l9.3-8.6zm2.3 7.9c.1-.3.5-.5.8-.5.4.1.6.4.5.7l-1.6 5.2c-.1.3-.5.5-.8.5-.4-.1-.6-.4-.5-.7l1.6-5.2zm12.1-13.8c-.4 0-.7.3-.7.6s.2.6.6.6l12.7-.3c.4 0 .7-.3.7-.6s-.2-.6-.6-.6l-12.7.3zm3.9 7.3c-.3-.2-.7-.1-.9.2-.2.3-.2.6.1.8l4.8 2.6c.3.2.7.1.9-.2.2-.3.2-.6-.1-.8l-4.8-2.6zm-15.2-13.9c.1.3.2.5.5.4.3-.1.2-.4.1-.7l-6.1-15c-.1-.3-.2-.5-.5-.4-.3.1-.2.4-.1.7l6.1 15zm-5 7.7c.4 0 .7-.3.7-.6s-.2-.6-.6-.6l-12.7.3c-.4 0-.7.3-.7.6s.2.6.6.6l12.7-.3zm-3.9-7.2c.3.2.7.1.9-.2.2-.3.2-.6-.1-.8l-4.8-2.6c-.3-.2-.7-.1-.9.2-.2.3-.2.6.1.8l4.8 2.6zm18.3 1.4c-.3.2-.7.3-.9.1-.2-.2-.2-.6 0-.8l9.3-8.6c.3-.2.7-.3.9-.1.2.2.2.6 0 .8l-9.3 8.6zm-2.3-7.9c-.1.3-.5.5-.8.5-.4-.1-.6-.4-.5-.7l1.6-5.2c.1-.3.5-.5.8-.5.4.1.6.4.5.7l-1.6 5.2z"/><path class="st12" d="M1073.8 60.9c0-2.4 2-4.3 4.4-4.3 2.4 0 4.3 2 4.3 4.4 0 2.4-2 4.3-4.4 4.3-2.4 0-4.3-2-4.3-4.4z"/><path class="st7" d="M1028.5 44c0-2.4 2-4.3 4.4-4.3 2.4 0 4.3 2 4.3 4.4 0 2.4-2 4.3-4.4 4.3-2.3 0-4.3-2-4.3-4.4zm-106 95c0-2.4 2-4.3 4.4-4.3 2.4 0 4.3 2 4.3 4.4 0 2.4-2 4.3-4.4 4.3-2.4-.1-4.3-2-4.3-4.4zm226-131.1c0-2.4 2-4.3 4.4-4.3 2.4 0 4.3 2 4.3 4.4 0 2.4-2 4.3-4.4 4.3-2.4 0-4.3-2-4.3-4.4z"/><path class="st0" d="m1091.4 28.6-3.9-8.1-8.9-1.4 6.5-6.2-1.4-8.9 7.9 4.2 8-4.1-1.6 8.9 6.4 6.3-8.9 1.2zm-114.4-1-4-8.1-8.9-1.4 6.5-6.2-1.4-9 7.9 4.3 8.1-4.1-1.6 8.9 6.4 6.3-9 1.2z"/><path class="st14" d="M1172.5 87.6c-.4.2 6-9.1-1-16.4-7.6-7.9-1-16.8 5.2-14.5 6.6 2.3 15.4 20.7-4.2 30.9z"/><path class="st15" d="M1176.7 56.7c1.4.5 2.8 1.6 4.1 3.2-1.6-.8-4.5-1.5-6.4 1.7-2.8 4.7 10.3 12.2-1.9 26-.4.2 6-9.1-1-16.4-7.6-7.9-1.1-16.7 5.2-14.5z"/><path class="st20" d="M1098.4 142.2c.9-.1-21.9-8.4-18.8-30 3.4-23.4-19.1-30.7-27.3-18.9-8.8 12.4-1.1 55.5 46.1 48.9z"/><path class="st21" d="M1052.2 93.3c-1.8 2.5-2.9 6.3-3.1 10.7 1.9-3.4 6.1-8.2 13.4-5 10.7 4.7-2.8 34.2 35.8 43.2.9-.1-21.9-8.4-18.8-30 3.4-23.4-19.1-30.7-27.3-18.9z"/><path class="st17" d="M1209.3 97.8c.3.5-.3-13.5 11.9-16.6 13.2-3.3 12.2-16.9 4.2-18.7-8.6-2-29.9 11.5-16.1 35.3z"/><path class="st18" d="M1225.4 62.5c-1.7-.4-4-.2-6.4.7 2.2.3 5.7 1.5 5.6 6.1-.2 6.7-18.9 5.9-15.3 28.5.3.5-.3-13.5 11.9-16.6 13.2-3.3 12.2-16.9 4.2-18.7z"/></svg>