<svg version="1.1" id="Layer_1" xmlns="http://www.w3.org/2000/svg" xmlns:xlink="http://www.w3.org/1999/xlink" x="0" y="0" viewBox="0 0 1026.9 144" xml:space="preserve"><style>.st6{fill:#73439a}.st7{fill:#ffcb07}.st8{fill:#ee2e7c}.st10{fill:#0fbcec}.st15{fill:#3abca4}</style><linearGradient id="SVGID_1_" gradientUnits="userSpaceOnUse" x1="776.6" y1="1873.6" x2="776.6" y2="2005.038" gradientTransform="rotate(180 512.05 1000.7)"><stop offset="0" stop-color="#dcc7e1"/><stop offset="1" stop-color="#fff"/></linearGradient><circle cx="247.5" cy="65.1" r="62.7" fill="url(#SVGID_1_)"/><linearGradient id="SVGID_00000062169096537537514730000000366861312380556712_" gradientUnits="userSpaceOnUse" x1="520.8" y1="1858.4" x2="520.8" y2="1963.176" gradientTransform="rotate(180 512.05 1000.7)"><stop offset="0" stop-color="#dcc7e1"/><stop offset="1" stop-color="#fff"/></linearGradient><circle cx="503.3" cy="93" r="50" fill="url(#SVGID_00000062169096537537514730000000366861312380556712_)"/><linearGradient id="SVGID_00000139973671448702196650000001672475199984109962_" gradientUnits="userSpaceOnUse" x1="338.9" y1="1878.5" x2="338.9" y2="1973.882" gradientTransform="rotate(180 512.05 1000.7)"><stop offset="0" stop-color="#f9c8dd"/><stop offset="1" stop-color="#fff"/></linearGradient><circle cx="685.2" cy="77.4" r="45.5" fill="url(#SVGID_00000139973671448702196650000001672475199984109962_)"/><linearGradient id="SVGID_00000116200930958852422460000002807859792714808988_" gradientUnits="userSpaceOnUse" x1="69.9" y1="1861.452" x2="69.9" y2="1992.891" gradientTransform="rotate(180 512.05 1000.7)"><stop offset="0" stop-color="#dcc7e1"/><stop offset="1" stop-color="#fff"/></linearGradient><path d="M891.5 77.4c0-34.7 28.1-62.7 62.7-62.7 34.7 0 62.7 28.1 62.7 62.7 0 34.7-28.1 62.7-62.7 62.7s-62.7-28.1-62.7-62.7z" fill="url(#SVGID_00000116200930958852422460000002807859792714808988_)"/><linearGradient id="SVGID_00000137815647542704641780000009715308002094828729_" gradientUnits="userSpaceOnUse" x1="954.2" y1="1861.3" x2="954.2" y2="1992.738" gradientTransform="rotate(180 512.05 1000.7)"><stop offset="0" stop-color="#cdecf7"/><stop offset="1" stop-color="#fff"/></linearGradient><circle cx="69.9" cy="77.4" r="62.7" fill="url(#SVGID_00000137815647542704641780000009715308002094828729_)"/><linearGradient id="SVGID_00000124158706663510771750000003397256956641416109_" gradientUnits="userSpaceOnUse" x1="214.85" y1="1903.2" x2="214.85" y2="2001.106" gradientTransform="rotate(180 214.85 1021.9)"><stop offset="0" stop-color="#f9c8dd"/><stop offset="1" stop-color="#fff"/></linearGradient><path d="M168.1 93.9c0-25.8 20.9-46.7 46.7-46.7s46.8 20.9 46.8 46.7-20.9 46.7-46.7 46.7-46.8-20.9-46.8-46.7z" fill="url(#SVGID_00000124158706663510771750000003397256956641416109_)"/><path transform="rotate(-24.02 524.283 104.482)" class="st6" d="M523.8 62.7h1v83.6h-1z"/><path class="st7" d="M514.6 73.1c.9 2 0 4.3-2 5.2-2 .9-4.3 0-5.2-2-.9-2 0-4.3 2-5.2 1.9-.9 4.3 0 5.2 2z"/><path class="st8" d="M522 45.9c4.9 11-.1 23.9-11 28.8-11 4.9-23.9-.1-28.8-11s.1-23.9 11-28.8c11-4.9 23.9 0 28.8 11z"/><defs><path id="SVGID_00000017492383481210786020000001156328121690400169_" d="M522 45.9c4.9 11-.1 23.9-11 28.8-11 4.9-23.9-.1-28.8-11s.1-23.9 11-28.8c11-4.9 23.9 0 28.8 11z"/></defs><clipPath id="SVGID_00000142143064688245953560000012253924650016587709_"><use xlink:href="#SVGID_00000017492383481210786020000001156328121690400169_" overflow="visible"/></clipPath><g clip-path="url(#SVGID_00000142143064688245953560000012253924650016587709_)"><path class="st7" d="M477.8 55.3h-.2l-.1-3.9h.2c28.1-.4 37.6-17.5 38-18.3l3.4 1.8c-.3.8-10.8 19.9-41.3 20.4zm9.2 20.8h-.2l-.1-3.9h.2c28.1-.4 37.6-17.5 38-18.3l3.4 1.8c-.4.9-10.8 20-41.3 20.4zm-6.8-9.5h-.2l-.1-3.9h.2c30.6-.5 41-19.1 41.4-19.9l3.4 1.8c-.4.9-11.7 21.5-44.7 22zM479 44.7h-.2l-.1-3.9h.2c19.5-.3 26-12.1 26.4-12.6l3.4 1.8c-.3.7-7.8 14.4-29.7 14.7z"/></g><path transform="rotate(-65.965 69.97 102.243)" class="st6" d="M24.4 101.7h91.2v1.1H24.4z"/><path class="st8" d="M80.6 67.9c-1 2.2 0 4.7 2.2 5.6 2.2 1 4.7 0 5.6-2.2 1-2.2 0-4.7-2.2-5.6-2.1-.9-4.6 0-5.6 2.2z"/><path class="st10" d="M72.5 38.2c-5.3 12 .1 26 12 31.4 12 5.3 26-.1 31.4-12 5.3-12-.1-26-12-31.4-12-5.3-26.1 0-31.4 12z"/><defs><path id="SVGID_00000181782686284605508560000016301159943134491071_" d="M72.5 38.2c-5.3 12 .1 26 12 31.4 12 5.3 26-.1 31.4-12 5.3-12-.1-26-12-31.4-12-5.3-26.1 0-31.4 12z"/></defs><clipPath id="SVGID_00000042699907143634783040000016155429981275937948_"><use xlink:href="#SVGID_00000181782686284605508560000016301159943134491071_" overflow="visible"/></clipPath><g clip-path="url(#SVGID_00000042699907143634783040000016155429981275937948_)"><path class="st8" d="M120.7 48.4h.2l.1-4.3h-.2c-30.7-.5-41-19.1-41.5-19.9l-3.7 2c.4.9 11.8 21.7 45.1 22.2zm-10 22.8h.2l.1-4.2h-.2C80 66.5 69.7 47.9 69.3 47l-3.7 2c.4.9 11.8 21.7 45.1 22.2zm7.4-10.4h.2l.1-4.3h-.2C84.8 56.1 73.5 35.7 73 34.9l-3.7 2c.5.9 12.8 23.4 48.8 23.9zm1.3-23.8h.2l.1-4.3h-.2C98.2 32.4 91 19.5 90.7 19L87 21c.3.6 8.6 15.6 32.4 16z"/></g><path transform="rotate(-65.965 839.759 102.201)" class="st6" d="M794.2 101.7h91.2v1.1h-91.2z"/><path class="st8" d="M850.5 67.8c-1 2.2 0 4.7 2.2 5.6s4.7 0 5.6-2.2c1-2.2 0-4.7-2.2-5.6-2.1-.9-4.7.1-5.6 2.2z"/><path d="M842.3 38.2c-5.3 12 .1 26 12 31.4 12 5.3 26-.1 31.4-12s-.1-26-12-31.4-26 0-31.4 12z" fill="#f24c3d"/><defs><path id="SVGID_00000044147574433139690960000009660145894161171589_" d="M842.3 38.2c-5.3 12 .1 26 12 31.4 12 5.3 26-.1 31.4-12s-.1-26-12-31.4-26 0-31.4 12z"/></defs><clipPath id="SVGID_00000116926069338166812890000002199197694310439102_"><use xlink:href="#SVGID_00000044147574433139690960000009660145894161171589_" overflow="visible"/></clipPath><g clip-path="url(#SVGID_00000116926069338166812890000002199197694310439102_)"><path d="M890.6 48.4h.2l.1-4.3h-.2c-30.7-.5-41-19.1-41.5-19.9l-3.7 2c.4.9 11.8 21.7 45.1 22.2zm-10.1 22.8h.2l.1-4.3h-.2c-30.7-.5-41-19.1-41.5-19.9l-3.7 2c.5.9 11.8 21.7 45.1 22.2zm7.4-10.4h.2l.1-4.3h-.2c-33.3-.5-44.7-20.8-45.1-21.7l-3.7 2c.4 1 12.7 23.5 48.7 24zm1.3-23.9h.2l.1-4.3h-.2c-21.2-.3-28.4-13.2-28.7-13.7l-3.7 2c.3.7 8.5 15.7 32.3 16z" fill="#22a699"/></g><path class="st15" d="M56.4 46.6c0-.6.5-1.1 1.1-1.1h5.9c.6 0 1.1.5 1.1 1.1s-.5 1.1-1.1 1.1h-5.9c-.6 0-1.1-.5-1.1-1.1zm-25 .1c0-.6.5-1.1 1.1-1.1h5.9c.6 0 1.1.5 1.1 1.1s-.5 1.1-1.1 1.1h-5.9c-.6 0-1.1-.5-1.1-1.1zM46.9 62v-5.9c0-.6.5-1.1 1.1-1.1s1.1.5 1.1 1.1V62c0 .6-.5 1.1-1.1 1.1s-1.1-.5-1.1-1.1zm-.1-25v-5.9c0-.6.5-1.1 1.1-1.1s1.1.5 1.1 1.1V37c0 .6-.5 1.1-1.1 1.1-.5 0-1-.5-1.1-1.1zm8.3 4.8c0-.4.2-.8.6-1l5.1-2.9c.5-.3 1.2-.1 1.5.4s.1 1.2-.4 1.5l-5.1 2.9c-.5.3-1.2.1-1.5-.4-.2-.1-.2-.3-.2-.5zM33.5 54.4c0-.4.2-.8.6-1l5.1-2.9c.5-.3 1.2-.1 1.5.4s.1 1.2-.4 1.5l-5.1 2.9c-.5.3-1.2.1-1.5-.4-.1-.2-.2-.4-.2-.5zm18.1.4c0-.4.2-.8.6-1 .5-.3 1.2-.1 1.5.4l2.9 5.1c.3.5.1 1.2-.4 1.5s-1.2.1-1.5-.4l-2.9-5.1c-.1-.1-.2-.3-.2-.5zM39.1 33.2c0-.4.2-.8.6-1 .5-.3 1.2-.1 1.5.4l2.9 5.1c.3.5.1 1.2-.4 1.5s-1.2.1-1.5-.4l-2.9-5.1c-.2-.1-.2-.3-.2-.5zm12.5 5.1c0-.2 0-.4.1-.6l2.9-5.1c.3-.5 1-.7 1.5-.4s.7 1 .4 1.5l-2.9 5.1c-.3.5-1 .7-1.5.4-.3-.1-.5-.5-.5-.9zM39.2 59.9c0-.2 0-.4.1-.6l2.9-5.1c.3-.5 1-.7 1.5-.4s.7 1 .4 1.5l-2.9 5.1c-.3.5-1 .7-1.5.4-.3-.2-.5-.5-.5-.9zm15.9-8.6c0-.2 0-.4.1-.6.3-.5 1-.7 1.5-.4l5.1 2.9c.5.3.7 1 .4 1.5s-1 .7-1.5.4l-5.1-2.9c-.3-.1-.5-.5-.5-.9zM33.5 38.9c0-.2 0-.4.1-.6.3-.5 1-.7 1.5-.4l5.1 2.9c.5.3.7 1 .4 1.5s-1 .7-1.5.4L34 39.8c-.3-.1-.5-.5-.5-.9zM48 50.2c-2 0-3.7-1.6-3.7-3.7 0-2 1.6-3.7 3.7-3.7 2 0 3.7 1.6 3.7 3.7-.1 2.1-1.7 3.7-3.7 3.7z"/><path class="st8" d="M169.7 42.6c0-.6.5-1.1 1.1-1.1h5.9c.6 0 1.1.5 1.1 1.1s-.5 1.1-1.1 1.1h-5.9c-.6 0-1.1-.5-1.1-1.1zm-24.9.1c0-.6.5-1.1 1.1-1.1h5.9c.6 0 1.1.5 1.1 1.1s-.5 1.1-1.1 1.1h-5.9c-.6 0-1.1-.5-1.1-1.1zM160.2 58v-5.9c0-.6.5-1.1 1.1-1.1s1.1.5 1.1 1.1V58c0 .6-.5 1.1-1.1 1.1s-1.1-.5-1.1-1.1zm-.1-24.9v-5.9c0-.6.5-1.1 1.1-1.1s1.1.5 1.1 1.1v5.9c0 .6-.5 1.1-1.1 1.1-.6 0-1.1-.5-1.1-1.1zm8.4 4.7c0-.4.2-.8.6-1l5.1-2.9c.5-.3 1.2-.1 1.5.4s.1 1.2-.4 1.5l-5.1 2.9c-.5.3-1.2.1-1.5-.4-.2-.1-.2-.3-.2-.5zm-21.6 12.6c0-.4.2-.8.6-1l5.1-2.9c.5-.3 1.2-.1 1.5.4s.1 1.2-.4 1.5l-5.1 2.9c-.5.3-1.2.1-1.5-.4-.2-.1-.2-.3-.2-.5zm18.1.4c0-.4.2-.8.6-1 .5-.3 1.2-.1 1.5.4l2.9 5.1c.3.5.1 1.2-.4 1.5s-1.2.1-1.5-.4l-2.9-5.1c-.2-.1-.2-.3-.2-.5zm-12.6-21.5c0-.4.2-.8.6-1 .5-.3 1.2-.1 1.5.4l2.9 5.1c.3.5.1 1.2-.4 1.5s-1.2.1-1.5-.4l-2.9-5.1c-.1-.2-.2-.4-.2-.5zm12.5 5c0-.2 0-.4.1-.6l2.9-5.1c.3-.5 1-.7 1.5-.4.5.3.7 1 .4 1.5l-2.9 5.1c-.3.5-1 .7-1.5.4-.3-.1-.5-.5-.5-.9zm-12.4 21.6c0-.2 0-.4.1-.6l2.9-5.1c.3-.5 1-.7 1.5-.4s.7 1 .4 1.5l-2.9 5.1c-.3.5-1 .7-1.5.4-.3-.1-.5-.5-.5-.9zm16-8.5c0-.2 0-.4.1-.6.3-.5 1-.7 1.5-.4l5.1 2.9c.5.3.7 1 .4 1.5s-1 .7-1.5.4l-5.1-2.9c-.3-.2-.5-.6-.5-.9zM146.8 35c0-.2 0-.4.1-.6.3-.5 1-.7 1.5-.4l5.1 2.9c.5.3.7 1 .4 1.5s-1 .7-1.5.4l-5.1-2.9c-.3-.2-.5-.5-.5-.9zm14.5 11.3c-2 0-3.7-1.6-3.7-3.7 0-2 1.6-3.7 3.7-3.7 2 0 3.7 1.6 3.7 3.7 0 2-1.7 3.7-3.7 3.7z"/><path class="st7" d="M301.3 42.2c0-.6.5-1.1 1.1-1.1h5.9c.6 0 1.1.5 1.1 1.1s-.5 1.1-1.1 1.1h-5.9c-.6 0-1.1-.5-1.1-1.1zm-24.9.1c0-.6.5-1.1 1.1-1.1h5.9c.6 0 1.1.5 1.1 1.1s-.5 1.1-1.1 1.1h-5.9c-.6 0-1.1-.5-1.1-1.1zm15.4 15.4v-5.9c0-.6.5-1.1 1.1-1.1s1.1.5 1.1 1.1v5.9c0 .6-.5 1.1-1.1 1.1s-1.1-.5-1.1-1.1zm-.1-24.9v-5.9c0-.6.5-1.1 1.1-1.1s1.1.5 1.1 1.1v5.9c0 .6-.5 1.1-1.1 1.1-.6 0-1.1-.5-1.1-1.1zm8.4 4.6c0-.4.2-.8.6-1l5.1-2.9c.5-.3 1.2-.1 1.5.4s.1 1.2-.4 1.5l-5.1 2.9c-.5.3-1.2.1-1.5-.4-.2-.1-.2-.3-.2-.5zM278.5 50c0-.4.2-.8.6-1l5.1-2.9c.5-.3 1.2-.1 1.5.4s.1 1.2-.4 1.5l-5.1 2.9c-.5.3-1.2.1-1.5-.4-.2-.1-.2-.3-.2-.5zm18.1.4c0-.4.2-.8.6-1 .5-.3 1.2-.1 1.5.4l2.9 5.1c.3.5.1 1.2-.4 1.5s-1.2.1-1.5-.4l-2.9-5.1c-.2-.1-.2-.3-.2-.5zM284 29c0-.4.2-.8.6-1 .5-.3 1.2-.1 1.5.4l2.9 5.1c.3.5.1 1.2-.4 1.5s-1.2.1-1.5-.4l-2.9-5.1c-.1-.2-.2-.4-.2-.5zm12.5 4.9c0-.2 0-.4.1-.6l2.9-5.1c.3-.5 1-.7 1.5-.4.5.3.7 1 .4 1.5l-2.9 5.1c-.3.5-1 .7-1.5.4-.3-.1-.5-.5-.5-.9zm-12.4 21.7c0-.2 0-.4.1-.6l2.9-5.1c.3-.5 1-.7 1.5-.4s.7 1 .4 1.5l-2.9 5.1c-.3.5-1 .7-1.5.4-.3-.1-.5-.5-.5-.9zm16-8.6c0-.2 0-.4.1-.6.3-.5 1-.7 1.5-.4l5.1 2.9c.5.3.7 1 .4 1.5-.3.5-1 .7-1.5.4l-5.1-2.9c-.3-.2-.5-.6-.5-.9zm-21.7-12.4c0-.2 0-.4.1-.6.3-.5 1-.7 1.5-.4l5.1 2.9c.5.3.7 1 .4 1.5-.3.5-1 .7-1.5.4l-5.1-2.9c-.3-.2-.5-.5-.5-.9zM292.9 46c-2 0-3.7-1.6-3.7-3.7 0-2 1.6-3.7 3.7-3.7 2 0 3.7 1.6 3.7 3.7 0 1.9-1.7 3.6-3.7 3.7z"/><path class="st8" d="M400.2 50.8c0-.9.7-1.6 1.6-1.6h8.4c.9 0 1.6.7 1.6 1.6 0 .9-.7 1.6-1.6 1.6h-8.4c-.9 0-1.6-.7-1.6-1.6zm-35.8.1c0-.9.7-1.6 1.6-1.6h8.4c.9 0 1.6.7 1.6 1.6 0 .9-.7 1.6-1.6 1.6H366c-.9 0-1.6-.7-1.6-1.6zm22.1 22v-8.4c0-.9.7-1.6 1.6-1.6s1.6.7 1.6 1.6v8.4c0 .9-.7 1.6-1.6 1.6-.8 0-1.5-.7-1.6-1.6zm0-35.7v-8.4c0-.9.7-1.6 1.6-1.6s1.6.7 1.6 1.6v8.4c0 .9-.7 1.6-1.6 1.6-.9-.1-1.6-.8-1.6-1.6zm11.9 6.8c0-.5.3-1.1.8-1.4l7.3-4.2c.8-.4 1.7-.2 2.2.6.4.8.2 1.7-.6 2.2l-7.3 4.2c-.8.4-1.7.2-2.2-.6-.2-.3-.2-.6-.2-.8zm-31 17.9c0-.5.3-1.1.8-1.4l7.3-4.2c.8-.4 1.7-.2 2.2.6.4.8.2 1.7-.6 2.2l-7.3 4.2c-.8.4-1.7.2-2.2-.6-.1-.3-.2-.6-.2-.8zm26 .7c0-.5.3-1.1.8-1.4.8-.4 1.7-.2 2.2.6l4.2 7.3c.4.8.2 1.7-.6 2.2-.8.4-1.7.2-2.2-.6l-4.2-7.3c-.2-.2-.2-.5-.2-.8zm-18-30.9c0-.5.3-1.1.8-1.4.8-.4 1.7-.2 2.2.6l4.2 7.3c.4.8.2 1.7-.6 2.2-.8.4-1.7.2-2.2-.6l-4.2-7.3c-.1-.3-.2-.6-.2-.8zm18 7.3c0-.3.1-.5.2-.8l4.2-7.3c.4-.8 1.4-1 2.2-.6s1 1.4.6 2.2l-4.2 7.3c-.4.8-1.4 1-2.2.6-.6-.3-.8-.9-.8-1.4zm-17.9 30.9c0-.3.1-.5.2-.8l4.2-7.3c.4-.8 1.4-1 2.2-.6.8.4 1 1.4.6 2.2l-4.2 7.3c-.4.8-1.4 1-2.2.6-.5-.3-.8-.8-.8-1.4zm22.9-12.3c0-.3.1-.5.2-.8.4-.8 1.4-1 2.2-.6l7.3 4.2c.8.4 1 1.4.6 2.2s-1.4 1-2.2.6l-7.3-4.2c-.6-.3-.8-.8-.8-1.4zm-31-17.8c0-.3.1-.5.2-.8.4-.8 1.4-1 2.2-.6l7.3 4.2c.8.4 1 1.4.6 2.2s-1.4 1-2.2.6l-7.3-4.2c-.5-.4-.8-.9-.8-1.4zM388.1 56c-2.9 0-5.2-2.3-5.2-5.2s2.3-5.2 5.2-5.2c2.9 0 5.2 2.3 5.2 5.2.1 2.9-2.3 5.2-5.2 5.2z"/><path class="st15" d="M458.3 41.6c0-.6.5-1.1 1.1-1.1h5.9c.6 0 1.1.5 1.1 1.1s-.5 1.1-1.1 1.1h-5.9c-.6.1-1.1-.4-1.1-1.1zm-24.9.1c0-.6.5-1.1 1.1-1.1h5.9c.6 0 1.1.5 1.1 1.1s-.5 1.1-1.1 1.1h-5.9c-.6.1-1.1-.4-1.1-1.1zm15.4 15.4v-5.9c0-.6.5-1.1 1.1-1.1s1.1.5 1.1 1.1v5.9c0 .6-.5 1.1-1.1 1.1-.6 0-1.1-.5-1.1-1.1zm-.1-25v-5.9c0-.6.5-1.1 1.1-1.1s1.1.5 1.1 1.1v5.9c0 .6-.5 1.1-1.1 1.1-.6 0-1.1-.5-1.1-1.1zm8.3 4.8c0-.4.2-.8.6-1l5.1-2.9c.5-.3 1.2-.1 1.5.4s.1 1.2-.4 1.5l-5.1 2.9c-.5.3-1.2.1-1.5-.4-.1-.1-.2-.3-.2-.5zm-21.5 12.6c0-.4.2-.8.6-1l5.1-2.9c.5-.3 1.2-.1 1.5.4s.1 1.2-.4 1.5l-5.1 2.9c-.5.3-1.2.1-1.5-.4-.2-.2-.2-.4-.2-.5zm18.1.4c0-.4.2-.8.6-1 .5-.3 1.2-.1 1.5.4l2.9 5.1c.3.5.1 1.2-.4 1.5s-1.2.1-1.5-.4l-3-5.1c-.1-.1-.1-.3-.1-.5zM441 28.3c0-.4.2-.8.6-1 .5-.3 1.2-.1 1.5.4l2.9 5.1c.3.5.1 1.2-.4 1.5s-1.2.1-1.5-.4l-2.9-5.1c-.2-.1-.2-.3-.2-.5zm12.5 5.1c0-.2 0-.4.1-.6l2.9-5.1c.3-.5 1-.7 1.5-.4.5.3.7 1 .4 1.5l-2.9 5.1c-.3.5-1 .7-1.5.4-.3-.1-.5-.5-.5-.9zM441.1 55c0-.2 0-.4.1-.6l2.9-5.1c.3-.5 1-.7 1.5-.4s.7 1 .4 1.5l-2.9 5.1c-.3.5-1 .7-1.5.4-.3-.2-.5-.5-.5-.9zm15.9-8.6c0-.2 0-.4.1-.6.3-.5 1-.7 1.5-.4l5.1 2.9c.5.3.7 1 .4 1.5-.3.5-1 .7-1.5.4l-5.1-2.9c-.3-.1-.5-.5-.5-.9zM435.4 34c0-.2 0-.4.1-.6.3-.5 1-.7 1.5-.4l5.1 2.9c.5.3.7 1 .4 1.5-.3.5-1 .7-1.5.4l-5.1-2.9c-.3-.1-.5-.5-.5-.9zm14.5 11.3c-2 0-3.7-1.6-3.7-3.7 0-2 1.6-3.7 3.7-3.7 2 0 3.7 1.6 3.7 3.7s-1.7 3.7-3.7 3.7z"/><path class="st10" d="M111.5 80c0-1 .8-1.7 1.7-1.7h9.3c1 0 1.7.8 1.7 1.7 0 1-.8 1.7-1.7 1.7h-9.3c-.9.1-1.7-.7-1.7-1.7zm-39.2.2c0-1 .8-1.7 1.7-1.7h9.3c1 0 1.7.8 1.7 1.7 0 1-.8 1.7-1.7 1.7H74c-1 .1-1.7-.7-1.7-1.7zm24.2 24.2v-9.3c0-1 .8-1.7 1.7-1.7 1 0 1.7.8 1.7 1.7v9.3c0 1-.8 1.7-1.7 1.7s-1.7-.7-1.7-1.7zm-.1-39.2v-9.3c0-1 .8-1.7 1.7-1.7 1 0 1.7.8 1.7 1.7v9.3c0 1-.8 1.7-1.7 1.7-.9 0-1.7-.8-1.7-1.7zm13 7.5c0-.6.3-1.2.9-1.5l8-4.6c.8-.5 1.9-.2 2.4.6s.2 1.9-.6 2.4l-8 4.6c-.8.5-1.9.2-2.4-.6-.2-.3-.3-.6-.3-.9zM75.5 92.3c0-.6.3-1.2.9-1.5l8-4.6c.8-.5 1.9-.2 2.4.6s.2 1.9-.6 2.4l-8 4.6c-.8.5-1.9.2-2.4-.6-.2-.3-.3-.6-.3-.9zm28.5.8c0-.6.3-1.2.9-1.5.8-.5 1.9-.2 2.4.6l4.6 8c.5.8.2 1.9-.6 2.4s-1.9.2-2.4-.6l-4.6-8c-.2-.3-.3-.6-.3-.9zm-19.7-34c0-.6.3-1.2.9-1.5.8-.5 1.9-.2 2.4.6l4.6 8c.5.8.2 1.9-.6 2.4s-1.9.2-2.4-.6l-4.6-8c-.2-.3-.3-.6-.3-.9zm19.6 8.1c0-.3.1-.6.2-.9l4.6-8c.5-.8 1.5-1.1 2.4-.6.8.5 1.1 1.5.6 2.4l-4.6 8c-.5.8-1.5 1.1-2.4.6-.5-.3-.8-.9-.8-1.5zm-19.5 34c0-.3.1-.6.2-.9l4.6-8c.5-.8 1.5-1.1 2.4-.6.8.5 1.1 1.5.6 2.4l-4.6 8c-.5.8-1.5 1.1-2.4.6-.5-.4-.8-.9-.8-1.5zm25.1-13.6c0-.3.1-.6.2-.9.5-.8 1.5-1.1 2.4-.6l8 4.6c.8.5 1.1 1.5.6 2.4-.5.8-1.5 1.1-2.4.6l-8-4.6c-.5-.3-.8-.9-.8-1.5zM75.4 68c0-.3.1-.6.2-.9.5-.8 1.5-1.1 2.4-.6l8 4.6c.8.5 1.1 1.5.6 2.4-.5.8-1.5 1.1-2.4.6l-8-4.6c-.5-.3-.8-.9-.8-1.5zm22.9 17.9c-3.2 0-5.8-2.6-5.8-5.8 0-3.2 2.6-5.8 5.8-5.8 3.2 0 5.8 2.6 5.8 5.8-.1 3.2-2.7 5.8-5.8 5.8z"/><path class="st6" d="M236.4 63.6c0-1 .8-1.7 1.7-1.7h9.3c1 0 1.7.8 1.7 1.7 0 1-.8 1.7-1.7 1.7h-9.3c-.9.1-1.7-.7-1.7-1.7zm-39.3.1c0-1 .8-1.7 1.7-1.7h9.3c1 0 1.7.8 1.7 1.7 0 1-.8 1.7-1.7 1.7h-9.3c-.9.1-1.7-.7-1.7-1.7zm24.4 24.2v-9.3c0-1 .8-1.7 1.7-1.7 1 0 1.7.8 1.7 1.7v9.3c0 1-.8 1.7-1.7 1.7s-1.7-.7-1.7-1.7zm-.1-39.3v-9.3c0-1 .8-1.7 1.7-1.7 1 0 1.7.8 1.7 1.7v9.3c0 1-.8 1.7-1.7 1.7-.9.1-1.7-.7-1.7-1.7zm13 7.5c0-.6.3-1.2.9-1.5l8-4.6c.8-.5 1.9-.2 2.4.6s.2 1.9-.6 2.4l-8 4.6c-.8.5-1.9.2-2.4-.6-.3-.3-.3-.6-.3-.9zm-33.9 19.8c0-.6.3-1.2.9-1.5l8-4.6c.8-.5 1.9-.2 2.4.6s.2 1.9-.6 2.4l-8 4.6c-.8.5-1.9.2-2.4-.6-.3-.3-.3-.6-.3-.9zm28.5.7c0-.6.3-1.2.9-1.5.8-.5 1.9-.2 2.4.6l4.6 8c.5.8.2 1.9-.6 2.4s-1.9.2-2.4-.6l-4.6-8c-.2-.3-.3-.6-.3-.9zm-19.7-33.9c0-.6.3-1.2.9-1.5.8-.5 1.9-.2 2.4.6l4.6 8c.5.8.2 1.9-.6 2.4s-1.9.2-2.4-.6l-4.6-8c-.3-.3-.3-.6-.3-.9zm19.6 8c0-.3.1-.6.2-.9l4.6-8c.5-.8 1.5-1.1 2.4-.6.8.5 1.1 1.5.6 2.4l-4.6 8c-.5.8-1.5 1.1-2.4.6-.5-.4-.8-.9-.8-1.5zm-19.5 34c0-.3.1-.6.2-.9l4.6-8c.5-.8 1.5-1.1 2.4-.6.8.5 1.1 1.5.6 2.4l-4.6 8c-.5.8-1.5 1.1-2.4.6-.5-.3-.8-.9-.8-1.5zm25-13.6c0-.3.1-.6.2-.9.5-.8 1.5-1.1 2.4-.6l8 4.6c.8.5 1.1 1.5.6 2.4-.5.8-1.5 1.1-2.4.6l-8-4.6c-.5-.3-.8-.9-.8-1.5zm-34-19.5c0-.3.1-.6.2-.9.5-.8 1.5-1.1 2.4-.6l8 4.6c.8.5 1.1 1.5.6 2.4-.5.8-1.5 1.1-2.4.6l-8-4.6c-.5-.3-.8-.9-.8-1.5zm22.7 17.8c-3.2 0-5.8-2.6-5.8-5.8s2.6-5.8 5.8-5.8 5.8 2.6 5.8 5.8c0 3.2-2.6 5.8-5.8 5.8z"/><path class="st7" d="M479.6 99.5c0-1 .8-1.7 1.7-1.7h9.3c1 0 1.7.8 1.7 1.7 0 1-.8 1.7-1.7 1.7h-9.3c-.9.1-1.7-.7-1.7-1.7zm-39.2.1c0-1 .8-1.7 1.7-1.7h9.3c1 0 1.7.8 1.7 1.7 0 1-.8 1.7-1.7 1.7h-9.3c-1 .1-1.7-.7-1.7-1.7zm24.3 24.2v-9.3c0-1 .8-1.7 1.7-1.7 1 0 1.7.8 1.7 1.7v9.3c0 1-.8 1.7-1.7 1.7s-1.7-.8-1.7-1.7zm-.1-39.3v-9.3c0-1 .8-1.7 1.7-1.7 1 0 1.7.8 1.7 1.7v9.3c0 1-.8 1.7-1.7 1.7-.9.1-1.7-.7-1.7-1.7zm13 7.5c0-.6.3-1.2.9-1.5l8-4.6c.8-.5 1.9-.2 2.4.6s.2 1.9-.6 2.4l-8 4.6c-.8.5-1.9.2-2.4-.6-.2-.3-.3-.6-.3-.9zm-34 19.8c0-.6.3-1.2.9-1.5l8-4.6c.8-.5 1.9-.2 2.4.6s.2 1.9-.6 2.4l-8 4.6c-.8.5-1.9.2-2.4-.6-.2-.4-.3-.7-.3-.9zm28.5.7c0-.6.3-1.2.9-1.5.8-.5 1.9-.2 2.4.6l4.6 8c.5.8.2 1.9-.6 2.4s-1.9.2-2.4-.6l-4.6-8c-.1-.3-.3-.6-.3-.9zm-19.6-33.9c0-.6.3-1.2.9-1.5.8-.5 1.9-.2 2.4.6l4.6 8c.5.8.2 1.9-.6 2.4s-1.9.2-2.4-.6l-4.6-8c-.2-.3-.3-.6-.3-.9zm19.6 7.9c0-.3.1-.6.2-.9l4.6-8c.5-.8 1.5-1.1 2.4-.6.8.5 1.1 1.5.6 2.4l-4.6 8c-.5.8-1.5 1.1-2.4.6-.5-.3-.8-.9-.8-1.5zm-19.5 34.1c0-.3.1-.6.2-.9l4.6-8c.5-.8 1.5-1.1 2.4-.6.8.5 1.1 1.5.6 2.4l-4.6 8c-.5.8-1.5 1.1-2.4.6-.5-.4-.8-.9-.8-1.5zm25-13.6c0-.3.1-.6.2-.9.5-.8 1.5-1.1 2.4-.6l8 4.6c.8.5 1.1 1.5.6 2.4-.5.8-1.5 1.1-2.4.6l-8-4.6c-.5-.3-.8-.9-.8-1.5zm-34-19.5c0-.3.1-.6.2-.9.5-.8 1.5-1.1 2.4-.6l8 4.6c.8.5 1.1 1.5.6 2.4-.5.8-1.5 1.1-2.4.6l-8-4.6c-.5-.3-.8-.9-.8-1.5zm22.8 17.8c-3.2 0-5.8-2.6-5.8-5.8 0-3.2 2.6-5.8 5.8-5.8s5.8 2.6 5.8 5.8c-.1 3.2-2.7 5.8-5.8 5.8z"/><path class="st15" d="M584.8 97c0 .6.5 1.1 1.1 1.1h5.9c.6 0 1.1-.5 1.1-1.1s-.5-1.1-1.1-1.1h-5.9c-.6 0-1.1.5-1.1 1.1zm-25 .2c0 .6.5 1.1 1.1 1.1h5.9c.6 0 1.1-.5 1.1-1.1s-.5-1.1-1.1-1.1h-5.9c-.6 0-1.1.5-1.1 1.1zm15.3-15.6v5.9c0 .6.5 1.1 1.1 1.1s1.1-.5 1.1-1.1v-5.9c0-.6-.5-1.1-1.1-1.1s-1.1.5-1.1 1.1zm.2 24.9v5.9c0 .6.5 1.1 1.1 1.1s1.1-.5 1.1-1.1v-5.9c0-.6-.5-1.1-1.1-1.1s-1.1.5-1.1 1.1zm8.2-4.8c0 .4.2.8.6 1l5.1 2.9c.5.3 1.2.1 1.5-.4s.1-1.2-.4-1.5l-5.1-2.9c-.5-.3-1.2-.1-1.5.4-.2.2-.2.3-.2.5zm-21.7-12.2c0 .4.2.8.6 1l5.1 2.9c.5.3 1.2.1 1.5-.4s.1-1.2-.4-1.5l-5.1-2.9c-.5-.3-1.2-.1-1.5.4-.1.1-.2.3-.2.5zm18.1-.8c0 .4.2.8.6 1 .5.3 1.2.1 1.5-.4l2.9-5.1c.3-.5.1-1.2-.4-1.5s-1.2-.1-1.5.4l-2.9 5.1c-.1.2-.2.3-.2.5zm-12.2 21.7c0 .4.2.8.6 1 .5.3 1.2.1 1.5-.4l2.9-5.1c.3-.5.1-1.2-.4-1.5s-1.2-.1-1.5.4l-2.9 5.1c-.2.1-.2.3-.2.5zm12.3-5.2c0 .2 0 .4.1.6l2.9 5.1c.3.5 1 .7 1.5.4.5-.3.7-1 .4-1.5l-2.9-5.1c-.3-.5-1-.7-1.5-.4-.3.2-.5.5-.5.9zm-12.5-21.5c0 .2 0 .4.1.6l2.9 5.1c.3.5 1 .7 1.5.4.5-.3.7-1 .4-1.5l-2.9-5.1c-.3-.5-1-.7-1.5-.4-.3.2-.5.6-.5.9zm15.9 8.5c0 .2 0 .4.1.6.3.5 1 .7 1.5.4l5.1-2.9c.5-.3.7-1 .4-1.5s-1-.7-1.5-.4l-5.1 2.9c-.3.2-.5.5-.5.9zm-21.5 12.7c0 .2 0 .4.1.6.3.5 1 .7 1.5.4l5.1-2.9c.5-.3.7-1 .4-1.5s-1-.7-1.5-.4l-5.1 2.9c-.3.1-.5.5-.5.9zm14.4-11.6c-2 0-3.7 1.6-3.7 3.7 0 2 1.6 3.7 3.7 3.7 2 0 3.7-1.6 3.7-3.7 0-2-1.7-3.7-3.7-3.7z"/><path class="st8" d="M659.6 100.6c0 .6.5 1.1 1.1 1.1h5.9c.6 0 1.1-.5 1.1-1.1s-.5-1.1-1.1-1.1h-5.9c-.6 0-1.1.5-1.1 1.1zm-24.9.2c0 .6.5 1.1 1.1 1.1h5.9c.6 0 1.1-.5 1.1-1.1s-.5-1.1-1.1-1.1h-5.9c-.6 0-1.1.5-1.1 1.1zM650 85.2v5.9c0 .6.5 1.1 1.1 1.1s1.1-.5 1.1-1.1v-5.9c0-.6-.5-1.1-1.1-1.1s-1.1.5-1.1 1.1zm.2 25v5.9c0 .6.5 1.1 1.1 1.1s1.1-.5 1.1-1.1v-5.9c0-.6-.5-1.1-1.1-1.1-.6-.1-1.1.4-1.1 1.1zm8.3-4.8c0 .4.2.8.6 1l5.1 2.9c.5.3 1.2.1 1.5-.4s.1-1.2-.4-1.5l-5.1-2.9c-.5-.3-1.2-.1-1.5.4-.2.1-.2.3-.2.5zm-21.7-12.3c0 .4.2.8.6 1l5.1 2.9c.5.3 1.2.1 1.5-.4s.1-1.2-.4-1.5l-5.1-2.9c-.5-.3-1.2-.1-1.5.4-.2.1-.2.3-.2.5zm18.1-.7c0 .4.2.8.6 1 .5.3 1.2.1 1.5-.4l2.9-5.1c.3-.5.1-1.2-.4-1.5s-1.2-.1-1.5.4l-2.9 5.1c-.2.1-.2.3-.2.5zm-12.4 21.7c0 .4.2.8.6 1 .5.3 1.2.1 1.5-.4l2.9-5.1c.3-.5.1-1.2-.4-1.5s-1.2-.1-1.5.4l-2.9 5.1c-.1.1-.2.3-.2.5zm12.5-5.2c0 .2 0 .4.1.6l2.9 5.1c.3.5 1 .7 1.5.4.5-.3.7-1 .4-1.5l-2.9-5.1c-.3-.5-1-.7-1.5-.4-.3.1-.5.5-.5.9zm-12.7-21.5c0 .2 0 .4.1.6l2.9 5.1c.3.5 1 .7 1.5.4s.7-1 .4-1.5l-2.9-5.1c-.3-.5-1-.7-1.5-.4-.3.1-.5.5-.5.9zm16.1 8.5c0 .2 0 .4.1.6.3.5 1 .7 1.5.4l5.1-2.9c.5-.3.7-1 .4-1.5s-1-.7-1.5-.4l-5.1 2.9c-.3.1-.5.5-.5.9zm-21.5 12.6c0 .2 0 .4.1.6.3.5 1 .7 1.5.4l5.1-2.9c.5-.3.7-1 .4-1.5s-1-.7-1.5-.4l-5.1 2.9c-.3.1-.5.6-.5.9zM651.2 97c-2 0-3.7 1.6-3.7 3.7 0 2 1.6 3.7 3.7 3.7 2 0 3.7-1.6 3.7-3.7s-1.7-3.7-3.7-3.7z"/><path class="st7" d="M791.2 99.5c0 .6.5 1.1 1.1 1.1h5.9c.6 0 1.1-.5 1.1-1.1s-.5-1.1-1.1-1.1h-5.9c-.6 0-1.1.5-1.1 1.1zm-24.9.2c0 .6.5 1.1 1.1 1.1h5.9c.6 0 1.1-.5 1.1-1.1s-.5-1.1-1.1-1.1h-5.9c-.6 0-1.1.5-1.1 1.1zm15.3-15.5v5.9c0 .6.5 1.1 1.1 1.1s1.1-.5 1.1-1.1v-5.9c0-.6-.5-1.1-1.1-1.1s-1.1.5-1.1 1.1zm.2 25v5.9c0 .6.5 1.1 1.1 1.1s1.1-.5 1.1-1.1v-5.9c0-.6-.5-1.1-1.1-1.1-.6-.1-1.1.4-1.1 1.1zm8.3-4.8c0 .4.2.8.6 1l5.1 2.9c.5.3 1.2.1 1.5-.4s.1-1.2-.4-1.5l-5.2-3c-.5-.3-1.2-.1-1.5.4-.1.2-.1.4-.1.6zM768.4 92c0 .4.2.8.6 1l5.1 2.9c.5.3 1.2.1 1.5-.4s.1-1.2-.4-1.5l-5.1-2.9c-.5-.3-1.2-.1-1.5.4-.2.1-.2.3-.2.5zm18.1-.6c0 .4.2.8.6 1 .5.3 1.2.1 1.5-.4l2.9-5.1c.3-.5.1-1.2-.4-1.5s-1.2-.1-1.5.4l-2.9 5.1c-.2.1-.2.3-.2.5zm-12.4 21.7c0 .4.2.8.6 1 .5.3 1.2.1 1.5-.4l2.9-5.1c.3-.5.1-1.2-.4-1.5s-1.2-.1-1.5.4l-2.9 5.1c-.1.1-.2.3-.2.5zm12.5-5.2c0 .2 0 .4.1.6l2.9 5.1c.3.5 1 .7 1.5.4.5-.3.7-1 .4-1.5l-2.9-5.1c-.3-.5-1-.7-1.5-.4-.3.1-.5.5-.5.9zm-12.7-21.5c0 .2 0 .4.1.6l2.9 5.1c.3.5 1 .7 1.5.4.5-.3.7-1 .4-1.5l-2.9-5.1c-.3-.5-1-.7-1.5-.4-.3.1-.5.5-.5.9zm16.1 8.5c0 .2 0 .4.1.6.3.5 1 .7 1.5.4l5.1-2.9c.5-.3.7-1 .4-1.5s-1-.7-1.5-.4l-5.1 2.9c-.3.1-.5.5-.5.9zm-21.5 12.5c0 .2 0 .4.1.6.3.5 1 .7 1.5.4l5.1-2.9c.5-.3.7-1 .4-1.5s-1-.7-1.5-.4l-5.1 2.9c-.3.2-.5.6-.5.9zM782.8 96c-2 0-3.7 1.6-3.7 3.7 0 2 1.6 3.7 3.7 3.7 2 0 3.7-1.6 3.7-3.7s-1.7-3.7-3.7-3.7z"/><path class="st8" d="M890.1 90c0 .9.7 1.6 1.6 1.6l8.4-.1c.9 0 1.6-.7 1.6-1.6s-.7-1.6-1.6-1.6l-8.4.1c-.9 0-1.6.7-1.6 1.6zm-35.8.3c0 .9.7 1.6 1.6 1.6l8.4-.1c.9 0 1.6-.7 1.6-1.6s-.7-1.6-1.6-1.6l-8.4.1c-.9-.1-1.6.7-1.6 1.6zM876.2 68l.1 8.4c0 .9.7 1.6 1.6 1.6.9 0 1.6-.7 1.6-1.6l-.1-8.4c0-.9-.7-1.6-1.6-1.6s-1.6.8-1.6 1.6zm.3 35.8.1 8.4c0 .9.7 1.6 1.6 1.6.9 0 1.6-.7 1.6-1.6l-.1-8.4c0-.9-.7-1.6-1.6-1.6-.9 0-1.6.7-1.6 1.6zm11.8-7c0 .5.3 1.1.8 1.4l7.3 4.1c.8.4 1.7.2 2.2-.6.4-.8.2-1.7-.6-2.2l-7.3-4.1c-.8-.4-1.7-.2-2.2.6-.2.3-.2.6-.2.8zm-31.1-17.6c0 .5.3 1.1.8 1.4l7.3 4.1c.8.4 1.7.2 2.2-.6.4-.8.2-1.7-.6-2.2l-7.3-4.1c-.8-.4-1.7-.2-2.2.6-.1.2-.2.5-.2.8zm26-1c0 .5.3 1.1.8 1.4.8.4 1.7.2 2.2-.6l4.1-7.3c.4-.8.2-1.7-.6-2.2-.8-.4-1.7-.2-2.2.6l-4.1 7.3c-.2.3-.2.5-.2.8zm-17.7 31.2c0 .5.3 1.1.8 1.4.8.4 1.7.2 2.2-.6l4.1-7.4c.4-.8.2-1.7-.6-2.2-.8-.4-1.7-.2-2.2.6l-4.1 7.3c-.1.3-.2.6-.2.9zm17.9-7.6c0 .3.1.5.2.8l4.3 7.3c.4.8 1.4 1 2.2.6s1-1.4.6-2.2l-4.3-7.3c-.4-.8-1.4-1-2.2-.6-.6.4-.8.9-.8 1.4zm-18.2-30.7c0 .3.1.5.2.8l4.3 7.3c.4.8 1.4 1 2.2.6s1-1.4.6-2.2l-4.3-7.3c-.4-.8-1.4-1-2.2-.6-.5.3-.8.8-.8 1.4zm23 12.1c0 .3.1.5.2.8.4.8 1.4 1 2.2.6l7.3-4.3c.8-.4 1-1.4.6-2.2s-1.4-1-2.2-.6l-7.3 4.3c-.6.3-.8.9-.8 1.4zm-30.8 18.1c0 .3.1.5.2.8.4.8 1.4 1 2.2.6l7.3-4.3c.8-.4 1-1.4.6-2.2s-1.4-1-2.2-.6l-7.3 4.3c-.6.3-.8.8-.8 1.4zm20.5-16.4c-2.9 0-5.2 2.3-5.2 5.2 0 2.9 2.3 5.2 5.2 5.2s5.2-2.3 5.2-5.2c.1-3-2.3-5.3-5.2-5.2z"/><path class="st15" d="M948.2 98.5c0 .6.5 1.1 1.1 1.1h5.9c.6 0 1.1-.5 1.1-1.1s-.5-1.1-1.1-1.1h-5.9c-.6 0-1.1.5-1.1 1.1zm-24.9.2c0 .6.5 1.1 1.1 1.1h5.9c.6 0 1.1-.5 1.1-1.1s-.5-1.1-1.1-1.1h-5.9c-.6 0-1.1.5-1.1 1.1zm15.3-15.5v5.9c0 .6.5 1.1 1.1 1.1s1.1-.5 1.1-1.1v-5.9c0-.6-.5-1.1-1.1-1.1s-1.1.5-1.1 1.1zm.2 24.9v5.9c0 .6.5 1.1 1.1 1.1s1.1-.5 1.1-1.1v-5.9c0-.6-.5-1.1-1.1-1.1s-1.1.5-1.1 1.1zm8.2-4.9c0 .4.2.8.6 1l5.1 2.9c.5.3 1.2.1 1.5-.4s.1-1.2-.4-1.5l-5.1-2.9c-.5-.3-1.2-.1-1.5.4-.1.2-.2.4-.2.5zM925.4 91c0 .4.2.8.6 1l5.1 2.9c.5.3 1.2.1 1.5-.4s.1-1.2-.4-1.5l-5.1-2.9c-.5-.3-1.2-.1-1.5.4-.2.1-.2.3-.2.5zm18.1-.7c0 .4.2.8.6 1 .5.3 1.2.1 1.5-.4l2.9-5.1c.3-.5.1-1.2-.4-1.5s-1.2-.1-1.5.4l-2.9 5.1c-.2.2-.2.3-.2.5zM931.1 112c0 .4.2.8.6 1 .5.3 1.2.1 1.5-.4l2.9-5.1c.3-.5.1-1.2-.4-1.5s-1.2-.1-1.5.4l-2.9 5.1c-.2.1-.2.3-.2.5zm12.5-5.2c0 .2 0 .4.1.6l2.9 5.1c.3.5 1 .7 1.5.4.5-.3.7-1 .4-1.5l-2.9-5.1c-.3-.5-1-.7-1.5-.4-.3.2-.5.5-.5.9zm-12.7-21.5c0 .2 0 .4.1.6l2.9 5.1c.3.5 1 .7 1.5.4.5-.3.7-1 .4-1.5l-2.9-5.1c-.3-.5-1-.7-1.5-.4-.3.1-.5.6-.5.9zm16 8.4c0 .2 0 .4.1.6.3.5 1 .7 1.5.4l5.1-2.9c.5-.3.7-1 .4-1.5s-1-.7-1.5-.4l-5.1 2.9c-.3.2-.5.5-.5.9zm-21.4 12.7c0 .2 0 .4.1.6.3.5 1 .7 1.5.4l5.1-2.9c.5-.3.7-1 .4-1.5s-1-.7-1.5-.4l-5.1 2.9c-.3.1-.5.5-.5.9zm14.3-11.5c-2 0-3.7 1.6-3.7 3.7 0 2 1.6 3.7 3.7 3.7 2 0 3.7-1.6 3.7-3.7 0-2-1.7-3.7-3.7-3.7z"/><path class="st10" d="M563.6 38.1c0 1 .8 1.7 1.7 1.7l9.3-.1c1 0 1.7-.8 1.7-1.7 0-1-.8-1.7-1.7-1.7l-9.3.1c-.9-.1-1.7.7-1.7 1.7zm-39.2.3c0 1 .8 1.7 1.7 1.7l9.3-.1c1 0 1.7-.8 1.7-1.7 0-1-.8-1.7-1.7-1.7l-9.3.1c-1-.1-1.7.7-1.7 1.7zm24-24.4.1 9.3c0 1 .8 1.7 1.7 1.7 1 0 1.7-.8 1.7-1.7l-.1-9.3c0-1-.8-1.7-1.7-1.7-.9 0-1.7.8-1.7 1.7z"/><path d="m548.7 53.3.1 9.3c0 1 .8 1.7 1.7 1.7 1 0 1.7-.8 1.7-1.7l-.1-9.3c0-1-.8-1.7-1.7-1.7-.9-.2-1.7.7-1.7 1.7z" fill="#cdecf7"/><path class="st10" d="M561.7 45.7c0 .6.3 1.2.9 1.5l8 4.5c.8.5 1.9.2 2.4-.6s.2-1.9-.6-2.4l-8-4.5c-.8-.5-1.9-.2-2.4.6-.2.3-.3.6-.3.9zm-34.2-19.5c0 .6.3 1.2.9 1.5l8 4.5c.8.5 1.9.2 2.4-.6s.2-1.9-.6-2.4l-8-4.5c-.8-.5-1.9-.2-2.4.6-.2.4-.3.7-.3.9zm28.5-1c0 .6.3 1.2.9 1.5.8.5 1.9.2 2.4-.6l4.5-8c.5-.8.2-1.9-.6-2.4s-1.9-.2-2.4.6l-4.5 8c-.2.3-.3.6-.3.9zm-19.3 34.2c0 .6.3 1.2.9 1.5.8.5 1.9.2 2.4-.6l4.5-8c.5-.8.2-1.9-.6-2.4s-1.9-.2-2.4.6l-4.5 8c-.2.2-.3.6-.3.9zm19.5-8.2c0 .3.1.6.2.9l4.7 8c.5.8 1.5 1.1 2.4.6.8-.5 1.1-1.5.6-2.4l-4.7-8c-.5-.8-1.5-1.1-2.4-.6-.5.3-.8.9-.8 1.5zm-19.8-33.8c0 .3.1.6.2.9l4.7 8c.5.8 1.5 1.1 2.4.6.8-.5 1.1-1.5.6-2.4l-4.7-8c-.5-.8-1.5-1.1-2.4-.6-.6.2-.8.9-.8 1.5zm25.2 13.3c0 .3.1.6.2.9.5.8 1.5 1.1 2.4.6l8-4.7c.8-.5 1.1-1.5.6-2.4-.5-.8-1.5-1.1-2.4-.6l-8 4.7c-.5.3-.8.9-.8 1.5zm-33.9 19.8c0 .3.1.6.2.9.5.8 1.5 1.1 2.4.6l8-4.7c.8-.5 1.1-1.5.6-2.4-.5-.8-1.5-1.1-2.4-.6l-8 4.7c-.5.3-.8.9-.8 1.5zm22.7-18.1c-3.2 0-5.8 2.6-5.8 5.8s2.6 5.8 5.8 5.8 5.8-2.6 5.8-5.8c-.1-3.2-2.7-5.8-5.8-5.8z"/><path class="st6" d="M726.2 78.9c0 1 .8 1.7 1.7 1.7l9.3-.1c1 0 1.7-.8 1.7-1.7 0-1-.8-1.7-1.7-1.7l-9.3.1c-.9-.1-1.7.7-1.7 1.7zm-39.3.3c0 1 .8 1.7 1.7 1.7l9.3-.1c1 0 1.7-.8 1.7-1.7 0-1-.8-1.7-1.7-1.7l-9.3.1c-.9 0-1.7.7-1.7 1.7zM711 54.7l.1 9.3c0 1 .8 1.7 1.7 1.7 1 0 1.7-.8 1.7-1.7l-.1-9.3c0-1-.8-1.7-1.7-1.7-.9 0-1.7.8-1.7 1.7zm.3 39.3.1 9.3c0 1 .8 1.7 1.7 1.7 1 0 1.7-.8 1.7-1.7l-.1-9.3c0-1-.8-1.7-1.7-1.7-.9-.1-1.7.7-1.7 1.7zm12.9-7.6c0 .6.3 1.2.9 1.5l8 4.5c.8.5 1.9.2 2.4-.6s.2-1.9-.6-2.4l-8-4.5c-.8-.5-1.9-.2-2.4.6-.3.3-.3.6-.3.9zM690.1 67c0 .6.3 1.2.9 1.5l8 4.5c.8.5 1.9.2 2.4-.6s.2-1.9-.6-2.4l-8-4.5c-.8-.5-1.9-.2-2.4.6-.3.3-.3.6-.3.9zm28.5-1.1c0 .6.3 1.2.9 1.5.8.5 1.9.2 2.4-.6l4.5-8c.5-.8.2-1.9-.6-2.4s-1.9-.2-2.4.6l-4.5 8c-.2.3-.3.6-.3.9zm-19.4 34.2c0 .6.3 1.2.9 1.5.8.5 1.9.2 2.4-.6l4.5-8c.5-.8.2-1.9-.6-2.4s-1.9-.2-2.4.6l-4.5 8c-.3.3-.3.6-.3.9zm19.6-8.2c0 .3.1.6.2.9l4.7 8c.5.8 1.5 1.1 2.4.6.8-.5 1.1-1.5.6-2.4l-4.7-8c-.5-.8-1.5-1.1-2.4-.6-.5.3-.8.9-.8 1.5zm-19.9-33.8c0 .3.1.6.2.9l4.7 8c.5.8 1.5 1.1 2.4.6.8-.5 1.1-1.5.6-2.4l-4.7-8c-.5-.8-1.5-1.1-2.4-.6-.5.3-.8.9-.8 1.5zm25.2 13.3c0 .3.1.6.2.9.5.8 1.5 1.1 2.4.6l8-4.7c.8-.5 1.1-1.5.6-2.4-.5-.8-1.5-1.1-2.4-.6l-8 4.7c-.5.3-.8.9-.8 1.5zm-33.8 19.8c0 .3.1.6.2.9.5.8 1.5 1.1 2.4.6l8-4.7c.8-.5 1.1-1.5.6-2.4-.5-.8-1.5-1.1-2.4-.6l-8 4.7c-.5.3-.8.9-.8 1.5zm22.5-18c-3.2 0-5.8 2.6-5.8 5.8s2.6 5.8 5.8 5.8 5.8-2.6 5.8-5.8c.1-3.3-2.6-5.9-5.8-5.8z"/><path class="st7" d="M1004.5 58.8c0 1 .8 1.7 1.7 1.7l9.3-.1c1 0 1.7-.8 1.7-1.7s-.8-1.7-1.7-1.7l-9.3.1c-.9 0-1.7.7-1.7 1.7zm-39.2.3c0 1 .8 1.7 1.7 1.7l9.3-.1c1 0 1.7-.8 1.7-1.7s-.8-1.7-1.7-1.7l-9.3.1c-1 0-1.7.7-1.7 1.7zm24-24.5.1 9.3c0 1 .8 1.7 1.7 1.7 1 0 1.7-.8 1.7-1.7l-.1-9.3c0-1-.8-1.7-1.7-1.7-.9 0-1.7.8-1.7 1.7zm.3 39.3.1 9.3c0 1 .8 1.7 1.7 1.7 1 0 1.7-.8 1.7-1.7l-.1-9.3c0-1-.8-1.7-1.7-1.7-.9 0-1.7.7-1.7 1.7zm13-7.6c0 .6.3 1.2.9 1.5l8 4.5c.8.5 1.9.2 2.4-.6s.2-1.9-.6-2.4l-8-4.5c-.8-.5-1.9-.2-2.4.6-.2.3-.3.6-.3.9zM968.4 47c0 .6.3 1.2.9 1.5l8 4.5c.8.5 1.9.2 2.4-.6s.2-1.9-.6-2.4l-8-4.5c-.8-.5-1.9-.2-2.4.6-.2.3-.3.6-.3.9zm28.5-1.2c0 .6.3 1.2.9 1.5.8.5 1.9.2 2.4-.6l4.5-8c.5-.8.2-1.9-.6-2.4s-1.9-.2-2.4.6l-4.5 8c-.2.3-.3.6-.3.9zM977.6 80c0 .6.3 1.2.9 1.5.8.5 1.9.2 2.4-.6l4.5-8c.5-.8.2-1.9-.6-2.4s-1.9-.2-2.4.6l-4.5 8c-.2.3-.3.6-.3.9zm19.5-8.2c0 .3.1.6.2.9l4.7 8c.5.8 1.5 1.1 2.4.6.8-.5 1.1-1.5.6-2.4l-4.7-8c-.5-.8-1.5-1.1-2.4-.6-.5.3-.8.9-.8 1.5zM977.3 38c0 .3.1.6.2.9l4.7 8c.5.8 1.5 1.1 2.4.6.8-.5 1.1-1.5.6-2.4l-4.7-8c-.5-.8-1.5-1.1-2.4-.6-.5.3-.8.9-.8 1.5zm25.2 13.3c0 .3.1.6.2.9.5.8 1.5 1.1 2.4.6l8-4.7c.8-.5 1.1-1.5.6-2.4-.5-.8-1.5-1.1-2.4-.6l-8 4.7c-.5.3-.8.9-.8 1.5zm-33.9 19.9c0 .3.1.6.2.9.5.8 1.5 1.1 2.4.6l8-4.7c.8-.5 1.1-1.5.6-2.4-.5-.8-1.5-1.1-2.4-.6l-8 4.7c-.5.3-.8.9-.8 1.5zm22.7-18.1c-3.2 0-5.8 2.6-5.8 5.8s2.6 5.8 5.8 5.8 5.8-2.6 5.8-5.8c0-3.3-2.7-5.8-5.8-5.8zm-702.2 51 4.3 8.7 9.6 1.3-7 6.8 1.7 9.5-8.6-4.5-8.5 4.5 1.6-9.5-6.9-6.8 9.5-1.3zm707.8 9.6 2.7 5.6 6.3.9-4.5 4.4 1 6.2-5.5-2.9-5.6 2.9 1.1-6.2-4.5-4.4 6.2-.9zm-375-70.9 2.8 5.6 6.2.9-4.5 4.4 1 6.2-5.5-2.9-5.6 2.9 1.1-6.2-4.5-4.4 6.2-.9z"/></svg>