<svg xmlns="http://www.w3.org/2000/svg" xml:space="preserve" id="Layer_1" x="0" y="0" version="1.1" viewBox="0 0 512 512"><style>.st1{fill:#60c}</style><path fill="#f90" fill-rule="evenodd" d="M357.5 209.8C71.1 368.2-48.9 397.2 98.9 263.1-24 384.6 78.2 350.4 347.5 192.8l-2.1 6.4 5 .6-5 5.6 9.9-2.1-4.3 7 6.5-.5z" clip-rule="evenodd"/><path d="m341.4 251 4.5-2c12.5-5.5 20.4-18.1 19.6-31.6v-.4l.4-.1c23.1-5.2 43.6-11.9 60.9-19.8l1.4-.7-.8 1.4c-2.8 4.7-6.2 9.7-10 14.3-19.1 23.3-39 31-71.2 37.8l-4.8 1.1zm25.1-33.2c.6 12.4-6 24.1-16.7 30.4 29.8-6.6 48.7-14.5 66.9-36.7 3.4-4.2 6.5-8.6 9.1-12.8-17 7.6-36.9 14-59.3 19.1zm-2.2-8.9-12.4-21.3.2-.3c46-50.3 87.7-69.7 124-57.7l.4.1-.1.4c-3.5 18.8-14.8 34.9-33.5 48-18.5 12.9-44.8 23.2-78.4 30.6l-.2.2zm-11.2-21.2 11.6 20.1c33.2-7.4 59.3-17.7 77.6-30.4 18.4-12.8 29.5-28.6 33-46.9-35.6-11.7-76.8 7.6-122.2 57.2zm-48.8-2.2 2.9-3.2c19.1-21 36.4-37.5 69.8-43.4 6.7-1 12.1-1.5 17.1-1.5h1.6l-1.3.9c-15.9 10.9-32.1 25.4-48.1 43.2l-.3.3-.4-.2c-11.7-6.9-26.5-6.3-37.7 1.4l-3.6 2.5zm23.6-9.7c6.2 0 12.3 1.6 17.9 4.7 15.5-17.2 31.2-31.3 46.7-42.1-4.4.1-9.3.5-15.3 1.4-29.1 5.1-45.8 17.7-66.8 40.4 5.4-2.8 11.5-4.4 17.5-4.4z" class="st1"/><path d="m394.9 148.9 3.4-2.4c13.9-9.8 26.9-15.9 39.7-18.5l.4-.1.1.4c1.2 3.8 2 8 2.6 13.6l.1.6-.6-.1c-6.7-.8-16.6-1.4-25.5.3l-1 .2c-5.3 1.2-10.7 2.5-15.4 4.3l-3.8 1.7zm42.8-19.7c-11.5 2.4-23.3 7.7-35.8 16.1 3.8-1.2 7.9-2.2 11.9-3.1l1-.2c8.8-1.6 18.5-1.1 25.2-.3-.4-5.2-1.2-9-2.3-12.5z" class="st1"/><path d="m430.3 185.3.6-1.4c6.5-14.1 8.8-28.2 6.8-41.7l-.1-.7.7.1c10.9 1.4 20 4.3 29.4 9.2l.5.2-.3.4c-7.2 12.9-19.1 23.7-36.3 33l-1.3.9zm8.6-42.6c1.8 13.1-.3 26.7-6.4 40.3 16.1-8.9 27.3-19.3 34.3-31.5-9-4.6-17.6-7.4-27.9-8.8z" class="st1"/><path fill="#06c" fill-rule="evenodd" d="M173.3 275.1c9.3-22.8 20.7-49.7 38.3-93.1l24.8 59.6c15.7-8.5 31.2-17 48.2-26.9l-42-93.7h-61.4L97.4 309.9c19.2-7 44.7-19.2 75.9-34.8z" clip-rule="evenodd"/><path fill="#60c" fill-rule="evenodd" d="M157.8 312c-29.8 13.4-55.4 23.4-74.7 29.2l-21.9 49.7h63.9c14.9-35.5 24.2-58.2 32.7-78.9zm90.2-43.3L298.5 391h65.4l-66-148.6c-18 9.2-34.4 17.8-49.9 26.3z" clip-rule="evenodd"/></svg>