<svg class=" tw-w-10 tw-h-12" viewBox="0 0 120 120" fill="none" xmlns="http://www.w3.org/2000/svg">
  <path
    d="M120 60.0001C119.97 75.9406 113.632 91.2166 102.378 102.468C91.1253 113.72 75.8791 120.026 59.9929 120C44.1092 120.022 28.8666 113.715 17.6166 102.463C6.36653 91.212 0.0299464 75.9382 0 60.0001C0.0129746 52.1077 1.57502 44.2952 4.59697 37.0086C7.61893 29.7221 12.0416 23.104 17.6124 17.5325C23.1833 11.961 29.7932 7.54508 37.0649 4.53686C44.3365 1.52864 52.1275 -0.0129334 59.9929 0.000107142C67.8595 -0.0147971 75.652 1.52541 82.9253 4.53279C90.1986 7.54018 96.8102 11.9558 102.383 17.5275C107.955 23.0992 112.379 29.7179 115.402 37.0054C118.425 44.2929 119.987 52.1065 120 60.0001Z"
    fill="url(#paint0_linear_249_188)" />
  <path fill-rule="evenodd" clip-rule="evenodd"
    d="M43.1259 57.9163C40.7014 56.3141 38.6802 54.1696 37.2212 51.6512C35.8062 48.9953 35.1052 46.0153 35.1871 43.0048C35.0883 39.186 36.3903 35.4636 38.8458 32.5442C41.3947 29.6095 44.6758 27.408 48.3525 26.1657C52.3528 24.7448 56.5682 24.0302 60.8116 24.0538C63.5888 24.0254 66.3632 24.2388 69.1036 24.6916C71.0585 25.0018 72.979 25.5002 74.8387 26.1799C76.5441 26.7517 78.089 27.7236 79.3449 29.0148C80.272 30.0932 80.7743 31.4744 80.7575 32.8985C80.8308 34.3786 80.3238 35.8287 79.3449 36.9383C78.8738 37.4375 78.3034 37.8317 77.6707 38.0955C77.038 38.3592 76.357 38.4865 75.6721 38.4691C74.7299 38.468 73.7993 38.2599 72.9458 37.8595C70.8323 36.9125 68.6565 36.1122 66.4337 35.4642C64.3913 34.928 62.287 34.6657 60.1759 34.6845C57.4238 34.5821 54.701 35.2812 52.336 36.6973C51.3381 37.3081 50.521 38.1756 49.9696 39.2099C49.4182 40.2442 49.1525 41.4076 49.2 42.5796C49.1838 44.1189 49.7666 45.6038 50.8246 46.7185C52.0841 48.0227 53.5674 49.0887 55.2036 49.8652C57.0399 50.7724 59.7804 51.9914 63.4249 53.4939C63.8272 53.6249 64.2191 53.7861 64.5974 53.9758C68.1538 55.3784 71.5611 57.1353 74.7681 59.2203C77.3084 60.878 79.4506 63.0808 81.04 65.6697C82.6028 68.3892 83.385 71.4896 83.3001 74.6278C83.4276 78.4668 82.3288 82.2463 80.1642 85.4145C77.9601 88.4176 74.9094 90.6887 71.4061 91.9346C67.186 93.455 62.7236 94.1853 58.2407 94.0892C52.0829 94.3093 45.9538 93.1471 40.3007 90.6873C38.8626 90.0533 37.598 89.0809 36.6138 87.8524C35.7951 86.7113 35.3731 85.3316 35.4131 83.9261C35.372 83.1858 35.4909 82.4454 35.7615 81.7555C36.0321 81.0656 36.4482 80.4426 36.9811 79.929C38.1067 78.952 39.5626 78.4447 41.0494 78.5116C42.7107 78.5288 44.3435 78.9469 45.8099 79.7306C47.6321 80.6519 49.0729 81.3323 50.1183 81.7859C52.799 82.9232 55.6835 83.4972 58.5938 83.4726C61.4333 83.6761 64.2587 82.9174 66.6174 81.3181C67.5031 80.6247 68.2112 79.7293 68.6829 78.7062C69.1546 77.6832 69.3762 76.562 69.3295 75.4357C69.3196 73.8544 68.714 72.3354 67.6344 71.1834C66.1972 69.6861 64.5095 68.4532 62.648 67.5406C60.4443 66.3783 57.3507 64.9609 53.3672 63.2883C49.8025 61.8555 46.3865 60.0752 43.1683 57.9729"
    fill="#CBE6FF" />
  <defs>
    <linearGradient id="paint0_linear_249_188" x1="38.1293" y1="24.7378" x2="98.2304" y2="128.495"
      gradientUnits="userSpaceOnUse">
      <stop stop-color="#00B7F0" />
      <stop offset="1" stop-color="#007CC1" />
    </linearGradient>
  </defs>
</svg>
