<?xml version="1.0" encoding="utf-8"?>
<!-- Generator: Adobe Illustrator 26.0.3, SVG Export Plug-In . SVG Version: 6.00 Build 0)  -->
<svg version="1.1" id="Layer_1" xmlns="http://www.w3.org/2000/svg" xmlns:xlink="http://www.w3.org/1999/xlink" x="0px" y="0px"
	 viewBox="0 0 240 240" style="enable-background:new 0 0 240 240;" xml:space="preserve">
<style type="text/css">
	.st0{fill:#00D954;}
	.st1{fill:#FFFFFF;stroke:#FFFFFF;stroke-width:3;stroke-linecap:round;stroke-linejoin:round;stroke-miterlimit:10;}
	.st2{fill-rule:evenodd;clip-rule:evenodd;fill:#FFFFFF;}
</style>
<g>
	<ellipse class="st0" cx="120" cy="120" rx="119" ry="119"/>
	<path class="st1" d="M55.8,187.3l9.9-37c-5.7-10.1-8.5-21.5-8.5-33c0-37.7,30.6-68.3,68.3-68.3s68.3,30.6,68.3,68.3
		s-30.6,68.3-68.3,68.3c-11.3,0-22.5-2.9-32.5-8.3L55.8,187.3z M94.8,163.5l2.4,1.4c8.6,5.2,18.3,7.8,28.3,7.8
		c30.5,0,55.4-24.9,55.4-55.4S156,61.9,125.5,61.9S70,86.8,70,117.3c0,10.1,2.8,20,8.1,28.8l1.4,2.4L74,169.1L94.8,163.5z"/>
	<path class="st2" d="M150.8,126.8c-2.8-1.7-6.4-3.6-9.8-2.2c-2.6,1-4.2,5.1-5.9,7c-0.9,1.1-1.9,1.2-3.2,0.7
		c-9.5-3.8-16.9-10.2-22.1-18.9c-0.9-1.4-0.7-2.5,0.3-3.7c1.6-1.9,3.6-4,4.1-6.5c0.4-2.5-0.8-5.5-1.8-7.7c-1.3-2.9-2.8-6.9-5.8-8.6
		c-2.7-1.5-6.1-0.7-8.5,1.3c-4.1,3.3-6,8.5-5.9,13.7c0,1.5,0.2,2.9,0.5,4.4c0.8,3.4,2.4,6.5,4.2,9.6c1.3,2.3,2.8,4.5,4.4,6.6
		c5.1,6.9,11.5,13,18.8,17.5c3.7,2.3,7.6,4.3,11.7,5.6c4.6,1.5,8.7,3.1,13.7,2.2c5.2-1,10.3-4.2,12.4-9.2c0.6-1.5,0.9-3.2,0.6-4.7
		C157.9,130.3,153.4,128.3,150.8,126.8z"/>
</g>
</svg>
