<?xml version="1.0" encoding="utf-8"?>
<!-- Generator: Adobe Illustrator 26.0.3, SVG Export Plug-In . SVG Version: 6.00 Build 0)  -->
<svg version="1.1" id="Layer_1" xmlns="http://www.w3.org/2000/svg" xmlns:xlink="http://www.w3.org/1999/xlink" x="0px" y="0px"
	 viewBox="0 0 240 240" style="enable-background:new 0 0 240 240;" xml:space="preserve">
<style type="text/css">
	.st0{fill:#5F98D1;}
	.st1{fill:#FFFFFF;}
</style>
<g>
	<circle class="st0" cx="120" cy="120" r="119"/>
	<path class="st1" d="M42,73.7v92.4l45.1-46.4L42,73.7z M198,73.7v92.4L153.1,120L198,73.7z M45.4,69.6h148.9l-58.6,60.9
		c-4.2,4.3-9.9,6.8-15.9,6.8s-11.8-2.5-15.9-6.8L45.4,69.6L45.4,69.6z"/>
	<path class="st1" d="M139.2,133.7c-5,5.2-12,8.2-19.3,8.2c-7.3,0-14.3-3-19.3-8.2l-9.9-10.3l-45.2,47h148.9l-45.2-47.1L139.2,133.7
		L139.2,133.7z"/>
</g>
</svg>
