<?xml version="1.0" encoding="utf-8"?>
<!-- Generator: Adobe Illustrator 26.0.3, SVG Export Plug-In . SVG Version: 6.00 Build 0)  -->
<svg version="1.1" id="Layer_1" xmlns="http://www.w3.org/2000/svg" xmlns:xlink="http://www.w3.org/1999/xlink" x="0px" y="0px"
	 viewBox="0 0 240 240" style="enable-background:new 0 0 240 240;" xml:space="preserve">
<style type="text/css">
	.st0{fill:#4875B4;}
	.st1{fill:#FFFFFF;}
</style>
<g>
	<g>
		<circle class="st0" cx="120" cy="120" r="119"/>
		<path class="st1" d="M182.6,182.6v-45.9c0-22.5-4.8-39.8-31.1-39.8c-12.6,0-21.1,6.9-24.6,13.5h-0.4V99h-24.9v83.6h25.9v-41.4
			c0-11,2.1-21.5,15.7-21.5c13.6,0,13.5,12.5,13.5,22.2v40.7L182.6,182.6z M59.4,99h26v83.6h-26V99z M72.4,57.4
			c-8.3,0-15.1,6.7-15.2,15c0,8.3,6.7,15.1,15,15.2s15.1-6.7,15.2-15c0,0,0-0.1,0-0.1C87.4,64.1,80.7,57.4,72.4,57.4
			C72.4,57.4,72.4,57.4,72.4,57.4z"/>
	</g>
</g>
</svg>
