<?xml version="1.0" encoding="utf-8"?>
<!-- Generator: Adobe Illustrator 26.0.3, SVG Export Plug-In . SVG Version: 6.00 Build 0)  -->
<svg version="1.1" id="Layer_1" xmlns="http://www.w3.org/2000/svg" xmlns:xlink="http://www.w3.org/1999/xlink" x="0px" y="0px"
	 viewBox="0 0 240 240" style="enable-background:new 0 0 240 240;" xml:space="preserve">
<style type="text/css">
	.st0{fill:url(#SVGID_1_);}
	.st1{fill-rule:evenodd;clip-rule:evenodd;fill:url(#SVGID_00000124143254555081833580000001100978764756041619_);}
	.st2{fill:#FFFFFF;}
	.st3{fill-rule:evenodd;clip-rule:evenodd;fill:#FFFFFF;}
</style>
<g>
	
		<radialGradient id="SVGID_1_" cx="120" cy="122" r="119.5" gradientTransform="matrix(0.9958 0 0 -0.9958 0.5021 241.4895)" gradientUnits="userSpaceOnUse">
		<stop  offset="0" style="stop-color:#0797FD"/>
		<stop  offset="1" style="stop-color:#0091FC"/>
	</radialGradient>
	<circle class="st0" cx="120" cy="120" r="119"/>
	<g>
		<g id="logo_1_">
			<g id="bubble_1_">
				
					<radialGradient id="SVGID_00000064348881648257179540000009467979186973418145_" cx="-420.5297" cy="-130.3459" r="0.2339" gradientTransform="matrix(796.6527 0 0 796.6526 335083.5938 104046.6953)" gradientUnits="userSpaceOnUse">
					<stop  offset="0" style="stop-color:#0797FD"/>
					<stop  offset="1" style="stop-color:#0091FC"/>
				</radialGradient>
				<path style="fill-rule:evenodd;clip-rule:evenodd;fill:url(#SVGID_00000064348881648257179540000009467979186973418145_);" d="
					M68.4,207.3c-1.3,0-2.8-1-2.8-2.7l-0.5-16c-0.1-3.2-1.5-6.1-3.9-8.2c-17.3-15.5-26.8-37.2-26.8-61.2c0-47.2,36.8-82.8,85.5-82.8
					s85.5,35.6,85.5,82.8S168.7,202,120,202c-8.5,0-16.9-1.1-24.9-3.3c-1-0.3-2.1-0.4-3.1-0.4c-1.6,0-3.2,0.3-4.7,1l-17.8,7.8
					C69.2,207.2,68.8,207.3,68.4,207.3z"/>
				<path class="st2" d="M120,40.7c46.2,0,81.1,33.7,81.1,78.4s-34.8,78.3-81.1,78.3c-8.1,0-16.1-1.1-23.7-3.2
					c-1.4-0.4-2.8-0.6-4.3-0.6c-2.3,0-4.4,0.5-6.4,1.4L69.9,202l-0.4-13.6c-0.1-4.4-2.1-8.5-5.4-11.4
					c-16.4-14.6-25.3-35.2-25.3-57.9C39,74.4,73.8,40.7,120,40.7 M120,31.8c-50.6,0-89.8,37.1-89.8,87.3c0,26.2,10.7,48.9,28.3,64.5
					c1.5,1.3,2.4,3.2,2.4,5.2l0.5,16c0.1,4.1,3.5,6.9,7.1,6.9c1,0,2-0.2,2.9-0.6l17.8-7.8c0.9-0.4,1.9-0.6,2.9-0.6
					c0.6,0,1.3,0.1,1.9,0.3c8.2,2.3,17,3.5,26,3.5c50.7,0,89.9-37.1,89.9-87.2S170.7,31.8,120,31.8L120,31.8z"/>
			</g>
			<path id="bolt_1_" class="st3" d="M66.1,144.6l26.4-41.9c4.2-6.6,13.2-8.3,19.5-3.6l21,15.8c1.9,1.5,4.6,1.5,6.5,0l28.3-21.5
				c3.8-2.9,8.7,1.7,6.1,5.7l-26.4,41.9c-4.2,6.6-13.2,8.3-19.5,3.6l-21-15.8c-1.9-1.5-4.6-1.4-6.5,0l-28.4,21.5
				C68.4,153.1,63.5,148.7,66.1,144.6z"/>
		</g>
	</g>
</g>
</svg>
