<?xml version="1.0" encoding="utf-8"?>
<!-- Generator: Adobe Illustrator 26.0.3, SVG Export Plug-In . SVG Version: 6.00 Build 0)  -->
<svg version="1.1" id="Layer_1" xmlns="http://www.w3.org/2000/svg" xmlns:xlink="http://www.w3.org/1999/xlink" x="0px" y="0px"
	 viewBox="0 0 240 240" style="enable-background:new 0 0 240 240;" xml:space="preserve">
<style type="text/css">
	.st0{fill-rule:evenodd;clip-rule:evenodd;fill:url(#SVGID_1_);}
	.st1{fill-rule:evenodd;clip-rule:evenodd;fill:#FFFFFF;}
</style>
<g>
	
		<linearGradient id="SVGID_1_" gradientUnits="userSpaceOnUse" x1="-2339.5381" y1="-5840.9971" x2="-2339.5381" y2="-5840.7607" gradientTransform="matrix(1000 0 0 1000 2339658 5840998)">
		<stop  offset="0" style="stop-color:#2AABEE"/>
		<stop  offset="1" style="stop-color:#229ED9"/>
	</linearGradient>
	<circle class="st0" cx="120" cy="120" r="119"/>
	<path class="st1" d="M54.9,118.7c34.7-15.1,57.8-25.1,69.4-29.9c33-13.7,39.9-16.1,44.4-16.2c1,0,3.2,0.2,4.6,1.4
		c2.1,1.7,2.1,5.4,1.9,7.9c-1.8,18.8-9.5,64.5-13.5,85.6c-1.7,8.9-5,11.9-8.1,12.2c-6.9,0.6-12.2-4.6-18.9-9
		c-10.5-6.9-16.4-11.1-26.6-17.8c-11.7-7.7-4.1-12,2.6-19c1.8-1.8,32.2-29.5,32.8-32c0.1-0.3,0.1-1.5-0.6-2.1
		c-0.7-0.6-1.7-0.4-2.5-0.2c-1.1,0.2-17.8,11.3-50.2,33.2c-4.7,3.3-9.1,4.9-12.9,4.8c-4.2-0.1-12.4-2.4-18.5-4.4
		c-7.5-2.4-13.4-3.7-12.9-7.8C46.3,123.2,49.2,121,54.9,118.7L54.9,118.7z"/>
</g>
</svg>
