<?xml version="1.0" encoding="utf-8"?>
<!-- Generator: Adobe Illustrator 26.0.3, SVG Export Plug-In . SVG Version: 6.00 Build 0)  -->
<svg version="1.1" id="Layer_1" xmlns="http://www.w3.org/2000/svg" xmlns:xlink="http://www.w3.org/1999/xlink" x="0px" y="0px"
	 viewBox="0 0 240 240" style="enable-background:new 0 0 240 240;" xml:space="preserve">
<style type="text/css">
	.st0{fill:#03A9F4;}
	.st1{fill:#FFFFFF;}
</style>
<g>
	<g>
		<circle class="st0" cx="120" cy="120" r="119"/>
		<path class="st1" d="M197.1,72.2c-5.8,2.5-11.9,4.2-18.2,5c6.6-3.9,11.6-10.1,13.9-17.5c-6.2,3.7-13,6.3-20,7.7
			c-11.9-12.7-31.9-13.4-44.7-1.5c-6.4,6-10,14.3-10,23.1c0,2.4,0.2,4.8,0.7,7.2c-25.4-1.2-49.1-13.3-65.2-33.1
			c-8.5,14.4-4.2,33,9.7,42.3c-5-0.1-9.9-1.5-14.3-3.9v0.3c0,15,10.6,28,25.3,31c-2.7,0.7-5.5,1.1-8.3,1c-2,0-4-0.1-6-0.5
			c4.2,12.9,16,21.7,29.5,22c-11.2,8.7-25,13.5-39.1,13.5c-2.5,0-5.1-0.1-7.6-0.4c14.5,9.3,31.3,14.3,48.5,14.2
			c58.2,0,90-48.2,90-89.9c0-1.4,0-2.7-0.1-4.1C187.6,84.1,192.9,78.6,197.1,72.2z"/>
	</g>
</g>
</svg>
