<svg xmlns="http://www.w3.org/2000/svg" xml:space="preserve" id="Promote_Brain" x="0" y="0" version="1.1" viewBox="0 0 588 503"><style>.st0{fill:#ff9f41}.st1{fill:#fe7f00}</style><g id="Logo"><g id="top"><path d="m162.3 126.5.9-2.7v-.3l-3.8-26.2-13.7-56.9-.1.1-.3.2.4-.2c-4.7 2.4-9.3 4.9-13.8 7.6l-1.9 1.1-1.1.7-7.2 4.6-.7.5-1.8 1.2.2-.2-4.4 3.1.3-.2-1.1.8-.8.6-3.3 2.4-.5.4-3 2.3-.6.5-.4.3.2-.1a237 237 0 0 0-90.2 185.7V357c1.9-1.6 3.9-3.1 6-4.6 66.5-48.3 92.7-90.9 130-176 4.2-9.7 6.7-20 7.4-30.5.1-6 1-11.9 2.6-17.6l.7-1.8z" class="st0"/><path d="M556.8 30.5a52.9 52.9 0 0 0-37.5-15.6h-267a227.3 227.3 0 0 0-40.8 3.7l-4.8.9-1.2.2-3.9.8-1.7.4-3.3.8-11.1 3-.3.1-5.9 1.8-1.7.6-4.2 1.4-1.8.7-4.3 1.6-1.4.6c-6 2.4-11.8 4.9-17.6 7.8l-.6.3-5.3 2.7-.5.3-5.6 3.1-.1.1-.4.3-.3.2-.2.1-.4.2-.6.4-.7.4-1.3.8-1.7 1-2.5 1.5-4 2.5-2 1.3-1.7 1.1-1.1.8-1.5 1-1.7 1.2-1.9 1.4-.9.6-1.4 1-1.8 1.4-1.4 1.1-.6.4 1.5 1.2a200 200 0 0 1 35.2 37.1l.1.2 2.9 4 .3.5 2.6 3.8.6.9 2.3 3.4.9 1.4 1.9 3 1.4 2.2 1.4 2.2 2.7 4.5a69.6 69.6 0 0 1 11.7-23.4c3.3-3.7 6.9-7.1 10.6-10.3a41 41 0 0 1 9-5.3c51.6-23.9 130.9 34.5 185.6 109.8 29.5 41.1 50.7 84 59.7 121.9.8 2 1.3 4.1 1.5 6.2v.9c.3.5.4 1 .3 1.5 5.6 30.5 3.1 56.9-10.8 74.3a47.3 47.3 0 0 1-18.8 16.6c21.2 8.9 43.3 16 65.9 21.1a231.7 231.7 0 0 0 34.1-30.7l.9-1 2.3-2.6 2.2-2.5 1.6-1.9 3-3.6.9-1.1a237.1 237.1 0 0 0 50.9-146.7V68c-.2-14-5.8-27.6-15.7-37.5zM404.3 142.6a23 23 0 0 1-24.6 1.2 21.2 21.2 0 0 1-9.9-22.6l3.6-18.3a21.9 21.9 0 0 1 25.4-17.6 22.3 22.3 0 0 1 18.1 25.2l-3.4 18.3a23 23 0 0 1-9.2 13.8zm32.8 67.9a21.9 21.9 0 0 1-20.8-8.7 23.7 23.7 0 0 1 4.9-31.7l14.9-10.9a22 22 0 0 1 30 5.5 22.2 22.2 0 0 1-4.2 30.3c-7.4 5.8-15.2 14.2-24.8 15.5zm84.3 45.3a22.1 22.1 0 0 1-19 18.1 84 84 0 0 1-24.9-3.4 22.4 22.4 0 0 1-13.6-9.3 22.1 22.1 0 0 1 21.1-34.3l18.3 3.5a21.8 21.8 0 0 1 14.6 8.8 21.3 21.3 0 0 1 3.5 16.6z" class="st1"/><path d="M408.9 421.5a71.7 71.7 0 0 1-47.9 2.8 81.2 81.2 0 0 0-31.4-2.5c-89.4 10-138.3 20.9-202 66.3h208.3c50.9 0 100.2-16.4 140.6-46.3a395.2 395.2 0 0 1-65.9-21.1l-1.7.8zm-185.7-110a386.1 386.1 0 0 1-47.5-83.6C142.7 296.6 110.4 341.4 47 388a100 100 0 0 0-12.1 13.1c-5 7.8-7.5 16.9-7.1 26.1.5 8.8 3.9 17.2 9.6 23.9a42 42 0 0 0 45.7 12.8v.2a51 51 0 0 0 13.7-7.1c64.5-46.6 116.9-63 192.1-73.7a407.1 407.1 0 0 1-65.7-71.8z" class="st0"/><path d="M258.1 286a307.4 307.4 0 0 0 85.1 82.7c1.9.6 3.7 2.2 6.2 3.4 2 1.3 4.1 2.4 6.2 3.5 10.2 5.3 29.5 14.9 38.5 2.4 2.8-2.6 3.8-7.6 4.4-15.3 1-11.5-1.9-26.4-7.4-45.4a329 329 0 0 0-49-92.8 374.8 374.8 0 0 0-59.7-64l-1-.6-3.7-2.8-1-.6-2.8-2.2-2.8-2.2-.9-.6c-4.3-3.3-8.8-6.3-13.4-9-22.1-13.3-37.3-15.5-45-13.7h-1c-13.3 5.3-9.9 26.1-8.4 37.2 4.7 29.6 22.1 73.7 55.7 120z" class="st1"/></g></g></svg>