<svg xmlns="http://www.w3.org/2000/svg" xml:space="preserve" id="Layer_1" x="0" y="0" version="1.1" viewBox="0 0 1844 200"><style>.st0{opacity:.25}.st0,.st1{fill-rule:evenodd;clip-rule:evenodd;fill:#acbac9}</style><path d="M1844 200V0h-34.7c28.2 22 39.2 66.1 1.8 121.5-24.6 36.5-23.1 62.2-15.9 78.5h48.8z" class="st0"/><path d="M989.9.3c7.5 72.3 54.2 169.8 261.8 132.3 76.6-13.8 141.7-32.4 199.2-48.9 162-46.3 263.4-75.3 393.1 68.2v.8C1714.4 9 1613 38 1451.1 84.3c-57.5 16.4-122.5 35-199.2 48.9-206 37.2-254-58.2-262.2-130.5v.4c6.4 72.6 51.5 173.6 262.1 135.5 76.6-13.8 141.7-32.4 199.2-48.9 162-46.3 263.4-75.3 393.1 68.2v.8C1714.4 15 1613 43.9 1451.1 90.2c-57.5 16.4-122.5 35-199.2 48.9-208.4 37.6-255.1-60.4-262.5-133 5.5 72.8 48.9 177 262.4 138.4 76.6-13.8 141.7-32.4 199.2-48.9 162-46.3 263.4-75.3 393.1 68.2v.8c-129.6-143.7-231-114.8-392.9-68.5-57.5 16.4-122.5 35-199.2 48.9-208.5 37.7-255.2-60.6-262.5-133.2 5.4 72.8 48.7 177.2 262.4 138.6 76.6-13.8 141.7-32.4 199.2-48.9 162-46.3 263.4-75.3 393.1 68.2v.8c-129.6-143.7-231-114.8-392.9-68.5-57.5 16.4-122.5 35-199.2 48.9-208.5 37.7-255.2-60.6-262.5-133.2 5.4 72.8 48.7 177.2 262.4 138.6 76.6-13.8 141.7-32.4 199.2-48.9 162-46.3 263.4-75.3 393.1 68.2v.8C1714.4 32.8 1613 61.7 1451.1 108c-57.5 16.4-122.5 35-199.2 48.9-208.5 37.7-255.2-60.6-262.5-133.2 5.4 72.8 48.7 177.2 262.4 138.6 76.6-13.8 141.7-32.4 199.2-48.9 162-46.3 263.4-75.3 393.1 68.2v.8C1714.4 38.7 1613 67.7 1451.1 114c-57.5 16.4-122.5 35-199.2 48.9-208.5 37.7-255.2-60.6-262.5-133.2 5.4 72.8 48.7 177.2 262.4 138.6 76.6-13.8 141.7-32.4 199.2-48.9 162-46.3 263.4-75.3 393.1 68.2v.8c-129.6-143.7-231-114.8-392.9-68.5-57.5 16.4-122.5 35-199.2 48.9-208.5 37.7-255.2-60.6-262.5-133.2 5.4 72.8 48.7 177.2 262.4 138.6 76.6-13.8 141.7-32.4 199.2-48.9 162-46.3 263.4-75.3 393.1 68.2v.8c-129.6-143.7-231-114.8-392.9-68.5-57.5 16.4-122.5 35-199.2 48.9-208.5 37.7-255.2-60.6-262.5-133.2 5.4 72.8 48.7 177.2 262.4 138.6 76.6-13.8 141.7-32.4 199.2-48.9 162-46.3 263.4-75.3 393.1 68.2v.8c-129.6-143.7-231-114.8-392.9-68.5-57.5 16.4-122.5 35-199.2 48.9-235.8 42.6-264.9-88.1-264-159.6V.2h1.7zm.7 0c9.4 71.6 59.2 162.8 261.1 126.4 76.6-13.8 141.7-32.4 199.2-48.9 162-46.3 263.4-75.3 393.1 68.2v.8C1714.4 3.1 1613 32 1451.1 78.3c-57.5 16.4-122.5 35-199.2 48.9C1049.3 163.8 999.5 72.1 990.1.3h.5zm.9 0c11.4 70.6 63.9 155.9 260.2 120.4 76.6-13.8 141.7-32.4 199.2-48.9 162-46.3 263.4-75.3 393.1 68.2v.8C1714.4-2.9 1613 26.1 1451.1 72.4c-57.5 16.4-122.5 35-199.2 48.9-197 35.6-249.5-50.1-260.9-120.9h.5zm1.1 0c13.4 69.3 68.3 149 259.2 114.5 76.6-13.8 141.7-32.4 199.2-48.9 162-46.3 263.4-75.3 393.1 68.2v.8C1714.4-8.8 1613 20.1 1451.1 66.4c-57.5 16.4-122.5 35-199.2 48.9-191.5 34.6-246.5-45.5-259.8-115h.5zm1.2 0c15.4 67.8 72.5 142 257.9 108.5 76.6-13.8 141.7-32.4 199.2-48.9 162-46.3 263.4-75.3 393.1 68.2v.8c-129.6-143.7-231-114.8-392.9-68.5-57.5 16.4-122.5 35-199.2 48.9-186.1 33.6-243.2-41-258.6-109h.5zm1.5 0c17.4 66.1 76.4 135.1 256.5 102.6 76.6-13.8 141.7-32.4 199.2-48.9 162-46.3 263.4-75.3 393.1 68.2v.8C1714.4-20.7 1613 8.2 1451.1 54.5c-57.5 16.4-122.5 35-199.2 48.9C1071.2 136 1012.1 66.7 994.7.3h.6zm1.7 0c19.3 64.2 80.1 128.2 254.8 96.6 76.6-13.8 141.7-32.4 199.2-48.9 162-46.3 263.4-75.3 393.1 68.2v.8C1714.4-26.7 1613 2.3 1451.1 48.6c-57.5 16.4-122.5 35-199.2 48.9-175.3 31.7-236.2-32.7-255.4-97.1h.5zm1.9 0c21.3 62.1 83.6 121.3 252.9 90.7 76.6-13.8 141.7-32.4 199.2-48.9 162-46.3 263.4-75.3 393.1 68.2v.8C1714.4-32.6 1613-3.7 1451.1 42.6c-57.5 16.4-122.5 35-199.2 48.9C1082 122.2 1019.6 62.7 998.3.3h.6zm672.1 0c57.6 7.4 112.2 36.8 173 104.1v.8C1781.6 36 1725.7 6.8 1666.4.3h4.6zm-669.9 0c23.2 59.8 86.9 114.3 250.7 84.7 76.6-13.8 141.7-32.4 199.2-48.9 57.7-16.5 107.7-30.8 154.1-35.9h5.2c-47.8 4.5-99.3 19.3-159.1 36.4-57.5 16.4-122.5 35-199.2 48.9-164.5 29.7-228.2-25.1-251.4-85.2h.5zm699.8 0c46.9 12.8 92.9 42.6 143.1 98.1v.8c-51-56.5-97.6-86.4-145.3-98.9h2.2zm-697.4 0c25.1 57.4 89.9 107.4 248.3 78.8 76.6-13.8 141.7-32.4 199.2-48.9 42.2-12.1 80.3-23 115.9-29.9h2.8c-36.3 6.9-75.2 18.1-118.5 30.4-57.5 16.4-122.5 35-199.2 48.9-159 28.7-223.9-21.6-249-79.3h.5zm715.8 0c40.6 15.1 81 43.9 124.7 92.2v.8c-44.2-49-85.1-78-126.3-93h1.6zm-713 0c26.9 54.9 92.6 100.5 245.5 72.8 76.6-13.8 141.7-32.4 199.2-48.9 31.6-9 60.9-17.4 88.6-24h2.3c-28.3 6.6-58.3 15.2-90.7 24.5-57.5 16.4-122.5 35-199.2 48.9-153.5 27.7-219.3-18.2-246.2-73.4h.5z" class="st1"/><path d="M117.3 148.5C52.4 159.5 15.7 125.4 0 104.7V200h368.5c-1.7-2.1-3.4-4.2-5-6.5-63.7-85.7-154.9-60.4-246.2-45" class="st0"/><path d="M.9 151.3v.6c21.9 4.9 48.7 4.8 81.3-3.3 51.8-12.9 103.6-15.3 149.1-7.7 35.7 5.9 67.5 18 92.2 35.9 9.6 7 18.2 14.9 25.5 23.6h.7c-7.4-8.9-16-16.9-25.8-24-24.7-18-56.6-30-92.4-36-45.5-7.5-97.4-5.1-149.3 7.8-32.6 7.9-59.4 8-81.3 3.1m0-7.5v.6c22.5 5.6 50.3 5.9 84.5-2.6 51.8-12.9 103.6-15.3 149.1-7.7 35.7 5.9 67.5 18 92.2 35.9 12 8.7 22.4 18.8 30.6 30.3h.6c-8.4-11.6-18.8-21.9-31-30.7-24.7-18-56.6-30-92.4-36-45.5-7.5-97.4-5.1-149.3 7.8-34.1 8.4-61.8 8.1-84.3 2.4zm0-7.5v.6c23.1 6.4 51.8 7.1 87.6-1.8 51.8-12.9 103.6-15.3 149.1-7.7 35.7 5.9 67.5 18 92.2 35.9 14.3 10.4 26.2 22.7 35.2 37h.6c-9-14.5-21-27-35.5-37.4-24.7-18-56.6-30-92.4-36-45.5-7.5-97.4-5.1-149.3 7.8-35.8 8.8-64.5 8-87.5 1.6zm0-7.6v.6c23.6 7.2 53.3 8.4 90.7-.9 51.8-12.9 103.6-15.3 149.1-7.7 35.7 5.9 67.5 18 92.2 35.9 16.5 12 29.8 26.6 39.1 43.7h.6c-9.3-17.3-22.7-32.1-39.3-44.1-24.7-18-56.6-30-92.4-36-45.5-7.5-97.4-5.1-149.3 7.8-37.5 9.2-67.1 8-90.7.7zm0-7.7v.6c24 8.1 54.7 9.8 93.8.1 51.8-12.9 103.6-15.3 149.1-7.7 35.7 5.9 67.5 18 92.2 35.9 18.6 13.5 33.2 30.4 42.4 50.4h.6c-9.2-20.2-23.9-37.2-42.7-50.8-24.7-18-56.6-30-92.4-36-45.5-7.5-97.4-5.1-149.3 7.8-39 9.6-69.7 7.8-93.7-.3zm0-7.8v.6c24.5 9 56.1 11.4 96.9 1.2 51.8-12.9 103.6-15.3 149.1-7.7 35.7 5.9 67.5 18 92.2 35.9 20.6 15 36.3 34.1 45.2 57.1h.6c-8.9-23.2-24.7-42.5-45.5-57.5-24.7-18-56.6-30-92.4-36-45.5-7.5-97.4-5.1-149.3 7.8-40.7 10-72.3 7.6-96.8-1.4zm0-7.9v.6c24.9 10 57.5 13 100 2.4C152.8 95.4 204.6 93 250 100.5c35.7 5.9 67.5 18 92.2 35.9 22.6 16.4 39.3 37.8 47.6 63.8h.6c-8.3-26.2-25.1-47.7-47.8-64.2-24.7-18-56.6-30-92.4-36-45.5-7.5-97.4-5.1-149.3 7.8-42.6 10.5-75.1 7.5-100-2.5zm0-8v.6c25.3 11 58.8 14.7 103.1 3.7 51.8-12.9 103.6-15.3 149.1-7.7 35.7 5.9 67.5 18 92.2 35.9 24.5 17.8 42 41.4 49.5 70.5h.5c-7.5-29.3-25.1-53-49.7-70.9-24.7-18-56.6-30-92.4-36-45.5-7.5-97.4-5.1-149.3 7.8-44.3 10.9-77.7 7.2-103-3.9zm0-8.1v.6c25.6 12.1 60.1 16.6 106.2 5.1C159 82 210.8 79.6 256.2 87.1c35.7 5.9 67.5 18 92.2 35.9 24.7 17.9 42.2 41.7 49.6 71 .5 2 1 4.1 1.4 6.2h.5c-.4-2.1-.9-4.3-1.4-6.3-7.4-29.5-25.1-53.3-49.8-71.3-24.7-18-56.6-30-92.4-36-45.5-7.5-97.4-5.1-149.3 7.8-46.1 11.4-80.5 6.9-106.1-5.2zm0-8.3v.6c25.9 13.2 61.3 18.6 109.4 6.7 51.8-12.9 103.6-15.3 149.1-7.7 35.7 5.9 67.5 18 92.2 35.9 24.7 17.9 42.2 41.7 49.6 71 1.1 4.2 1.9 8.5 2.5 12.9h.5c-.6-4.5-1.5-8.8-2.6-13.1-7.4-29.5-25.1-53.3-49.8-71.3-24.7-18-56.6-30-92.4-36-45.5-7.5-97.4-5.1-149.3 7.8-48 11.9-83.3 6.5-109.2-6.8zm0-8.3v.6c26.2 14.4 62.5 20.7 112.5 8.3 51.8-12.9 103.6-15.3 149.1-7.7 35.7 5.9 67.5 18 92.2 35.9 24.7 17.9 42.2 41.7 49.6 71 1.6 6.3 2.7 12.8 3.3 19.6h.5c-.6-6.8-1.7-13.4-3.3-19.8-7.4-29.5-25.1-53.3-49.8-71.3-24.7-18-56.6-30-92.4-36-45.5-7.5-97.4-5.1-149.3 7.8-50 12.4-86.2 6-112.4-8.4zm0-8.5v.6c26.4 15.7 63.6 23 115.6 10.1 51.8-12.9 103.6-15.3 149.1-7.7 35.7 5.9 67.5 18 92.2 35.9 24.7 17.9 42.2 41.7 49.6 71 2.1 8.3 3.4 17.1 3.7 26.3h.5c-.4-9.3-1.7-18.1-3.8-26.5-7.4-29.5-25.1-53.3-49.8-71.3-24.7-18-56.6-30-92.4-36-45.5-7.5-97.4-5.1-149.3 7.8C64.4 87.2 27.3 79.8.9 64.1zm0-8.6v.6c26.6 17 64.6 25.4 118.7 12 51.8-12.9 103.6-15.3 149.1-7.7 35.7 5.9 67.5 18 92.2 35.9 24.7 17.9 42.2 41.7 49.6 71 2.6 10.3 3.9 21.3 3.9 33h.5c.1-11.7-1.3-22.8-3.9-33.2-7.4-29.5-25.1-53.3-49.8-71.3-24.7-18-56.6-30-92.4-36-45.5-7.5-97.4-5.1-149.3 7.8C65.4 81 27.5 72.5.9 55.5zm0-8.8v.7c26.7 18.3 65.6 28 121.8 14.1 51.8-12.9 103.6-15.3 149.1-7.7 35.7 5.9 67.5 18 92.2 35.9 24.7 17.9 42.2 41.7 49.6 71 3.1 12.3 4.4 25.5 3.7 39.7h.5c.7-14.2-.6-27.5-3.7-39.9-7.4-29.5-25.1-53.3-49.8-71.3-24.7-18-56.6-30-92.4-36-45.5-7.5-97.4-5.1-149.3 7.8C66.4 74.9 27.6 65.1.9 46.7zm0-9v.7c26.8 19.7 66.4 30.8 124.9 16.3 51.8-12.9 103.6-15.3 149.1-7.7 35.7 5.9 67.5 18 92.2 35.9 24.7 17.9 42.2 41.7 49.6 71 3.6 14.2 4.8 29.7 3.2 46.4h.5c1.5-16.8.4-32.3-3.2-46.6-7.4-29.5-25.1-53.3-49.8-71.3-24.7-18-56.6-30-92.4-36-45.5-7.5-97.4-5.1-149.3 7.8C67.2 68.7 27.6 57.5.9 37.7zm0-9.1v.7C27.7 50.5 68.2 63.1 129 48c51.8-12.9 103.6-15.3 149.1-7.7 35.7 5.9 67.5 18 92.2 35.9 24.7 17.9 42.2 41.7 49.6 71 4 16.1 5 33.8 2.5 53.1h.5c2.6-19.4 1.6-37.2-2.5-53.3-7.4-29.5-25.1-53.3-49.8-71.3-24.7-18-56.6-30-92.4-36-45.5-7.5-97.4-5.1-149.3 7.8C68 62.6 27.6 49.9.9 28.6zm0-9.2v.7C27.6 42.8 68.9 57 132 41.3c51.8-12.9 103.6-15.3 149.1-7.7 35.7 5.9 67.5 18 92.2 35.9 24.7 17.9 42.2 41.7 49.6 71 4.4 17.7 5.2 37.4 1.6 59.1 0 .3-.1.5-.1.8h.5c0-.2.1-.4.1-.7 3.6-21.8 2.9-41.5-1.6-59.3-7.4-29.6-25-53.4-49.8-71.4-24.7-18-56.6-30-92.4-36-45.5-7.5-97.4-5.1-149.3 7.8C68.7 56.5 27.6 42.2.9 19.4zm0-9.5v.7c26.6 24.3 68.6 40.3 134.3 23.9 51.8-12.9 103.6-15.3 149.1-7.7 35.7 5.9 67.5 18 92.2 35.9 24.7 17.9 42.2 41.7 49.6 71 4.4 17.7 5.2 37.4 1.6 59.1-.4 2.6-.8 5-1 7.5h.5c.3-2.4.6-4.8 1-7.4 3.6-21.8 2.9-41.5-1.6-59.3-7.4-29.5-25.1-53.3-49.8-71.3-24.7-18-56.6-30-92.4-36-45.5-7.5-97.4-5.1-149.3 7.8C69.3 50.4 27.4 34.3.9 9.9zM.9.2c26.3 26 68.9 44.1 137.2 27.1C190 14.4 241.9 12 287.4 19.5c35.8 5.9 67.7 18 92.4 36 24.8 18 42.4 41.8 49.8 71.3 4.5 17.7 5.2 37.5 1.6 59.3-.8 4.9-1.3 9.6-1.5 14.1h-.5c.2-4.5.7-9.2 1.5-14.2 3.6-21.7 2.9-41.4-1.6-59.1-7.4-29.3-25-53.1-49.6-71-24.7-17.9-56.4-30-92.2-35.9-45.4-7.5-97.2-5.1-149.1 7.7C70 44.8 27.4 26.9.9 1V.2z" class="st1"/></svg>