<svg xmlns="http://www.w3.org/2000/svg" xml:space="preserve" id="Layer_1" x="0" y="0" version="1.1" viewBox="0 0 1844 200"><style>.st0{opacity:.66;fill:#ecd2ff;enable-background:new}.st1{fill:#d4e8f4}</style><path d="M1825.2 39.8c0 2.9 2.4 5.3 5.3 5.3h13.4v47.6h-30.1c-3.2 0-5.7 2.6-5.7 5.7 0 3.2 2.6 5.7 5.7 5.7h30.1v96h-221.6c.6-.9 1-1.9 1-3 0-2.8-2.3-5.1-5.1-5.1h-96.6c-3.9 0-7.1-3.2-7.1-7v-1c0-3.9 3.2-7.1 7.1-7.1h134.6c2.6 0 4.7-2.1 4.7-4.7s-2.1-4.7-4.7-4.7h-197.5c-2.9 0-5.3-2.4-5.3-5.3s2.4-5.3 5.3-5.3H1583c2.3 0 4.1-1.8 4.1-4.1s-1.8-4.1-4.1-4.1h-141.7c-3.1 0-5.6-2.5-5.6-5.6s2.5-5.6 5.6-5.6h72.6c2 0 3.6-1.6 3.6-3.6s-1.6-3.6-3.6-3.6h-50.5c-3.1 0-5.6-2.5-5.6-5.6s2.5-5.6 5.6-5.6h211.4c2.4 0 4.3-1.9 4.3-4.3s-1.9-4.3-4.3-4.3h-176.9c-2.9 0-5.3-2.4-5.3-5.3s2.4-5.3 5.3-5.3h133.7c1.4 0 2.4-1.1 2.4-2.4 0-1.3-1.1-2.4-2.4-2.4h-180.4c-3.8 0-6.9-3.1-6.9-6.9 0-3.8 3.1-6.9 6.9-6.9h70.8c3.1 0 5.5-2.5 5.5-5.5 0-3.1-2.5-5.5-5.5-5.5h-59.8c-3.1 0-5.6-2.5-5.6-5.6s2.5-5.6 5.6-5.6h92.5c3 0 5.4-2.4 5.4-5.4s-2.4-5.4-5.4-5.4h-47.1c-3.2 0-5.8-2.6-5.8-5.8 0-3.2 2.6-5.8 5.8-5.8h97c2.1 0 3.9-1.7 3.9-3.9 0-2.1-1.7-3.9-3.9-3.9h-131.5c-2.2 0-3.9-1.8-3.9-3.9 0-2.2 1.8-3.9 3.9-3.9h57c2.4 0 4.4-2 4.4-4.4s-2-4.4-4.4-4.4h-32.8c-3.3 0-6-2.7-6-6s2.7-6 6-6H1844v34.4h-13.4c-3-.2-5.4 2.2-5.4 5.1z" class="st0"/><path d="M123.8 37.8c0 2.8-2.3 5.1-5.1 5.1H0v7.6h48.6c2.5 0 4.4 2 4.4 4.4 0 2.4-2 4.4-4.4 4.4H0V88h134.5c3 0 5.4 2.4 5.4 5.4s-2.4 5.4-5.4 5.4H0v8.7h91.1c1.8 0 3.3 1.5 3.3 3.3 0 1.8-1.5 3.3-3.3 3.3H0v33.8h23.1c2.8 0 5 2.2 5 5s-2.2 5-5 5H0v6.3h64.8c2.8 0 5 2.2 5 5s-2.2 5-5 5H0V185c1.4.4 2.4 1.6 2.4 3.2 0 1.5-1 2.8-2.4 3.2v8.7h369.5c.2-.6.3-1.2.3-1.8 0-3.6-2.9-6.5-6.5-6.5h-43.2c-2.7 0-4.9-2.2-4.9-4.9s2.2-4.9 4.9-4.9h91.6c3.7 0 6.7-3 6.7-6.7v-1c0-3.7-3-6.7-6.7-6.7H284c-2.5 0-4.5-2-4.5-4.5s2-4.5 4.5-4.5h187.3c2.8 0 5-2.3 5-5 0-2.8-2.3-5-5-5H353.5c-2.2 0-3.9-1.7-3.9-3.9s1.8-3.9 3.9-3.9h134.4c2.9 0 5.3-2.4 5.3-5.3s-2.4-5.3-5.3-5.3H419c-1.9 0-3.4-1.5-3.4-3.4s1.5-3.4 3.4-3.4h47.9c3 0 5.3-2.4 5.3-5.4s-2.4-5.4-5.3-5.4H266.4c-2.3 0-4.1-1.8-4.1-4.1s1.8-4.1 4.1-4.1h167.8c2.8 0 5-2.2 5-5s-2.3-5-5-5H307.4c-1.3 0-2.3-1-2.3-2.3s1-2.3 2.3-2.3h171.1c3.6 0 6.6-2.9 6.6-6.6 0-3.6-2.9-6.6-6.6-6.6h-67.2c-2.9 0-5.3-2.3-5.3-5.2 0-2.9 2.4-5.2 5.3-5.2H468c2.9 0 5.3-2.4 5.3-5.3s-2.4-5.3-5.3-5.3h-87.7c-2.8 0-5.1-2.3-5.1-5.1s2.3-5.1 5.1-5.1H425c3 0 5.5-2.5 5.5-5.5s-2.5-5.5-5.5-5.5h-92c-2 0-3.7-1.6-3.7-3.7S331 27 333 27h124.7c2.1 0 3.7-1.7 3.7-3.7 0-2.1-1.7-3.7-3.7-3.7h-54.1c-2.3 0-4.2-1.9-4.2-4.2s1.9-4.2 4.2-4.2h31.1c3.2 0 5.7-2.6 5.7-5.7s-2.5-5.7-5.7-5.7L38.8.2c-3 0-5.4 2.4-5.4 5.4s2.4 5.4 5.4 5.4h23.6c2.8 0 5 2.2 5 5s-2.2 5-5 5H0v11.9h118.7c2.8-.2 5.1 2.1 5.1 4.9z" class="st1"/></svg>