<svg xmlns="http://www.w3.org/2000/svg" xml:space="preserve" id="Layer_1" x="0" y="0" version="1.1" viewBox="0 0 124.4 86"><style>.st0{fill:#f90}.st1{fill:#547580}.st2{fill:#9901ff}.st3{fill:#ffd13f}.st4{fill:#4482c3}.st5{fill:#f30}</style><path d="M108.5 83c-2.6 0-5.1-.8-7.2-2.2-2.1-1.4-3.8-3.5-4.7-5.9l-6.3-15.8c-.7-1.7-1.8-3.1-3.4-4.2-1.5-1-3.3-1.6-5.1-1.6H42.6c-1.8 0-3.6.6-5.1 1.6-1.5 1-2.7 2.5-3.4 4.2l-6.3 15.8c-1.2 2.9-3.4 5.3-6.2 6.8s-6.1 1.7-9.1.9c-3.1-.8-5.7-2.7-7.4-5.4-1.7-2.7-2.4-5.8-2-9l7-47.5c.7-4.9 3.2-9.4 7-12.7 3.8-3.2 8.6-5 13.6-5h63.1c5 0 9.8 1.8 13.6 5 3.8 3.2 6.2 7.7 7 12.7l7 47.5c.3 1.8.1 3.7-.4 5.5-.5 1.8-1.4 3.4-2.6 4.8s-2.7 2.5-4.4 3.3c-1.8.8-3.6 1.2-5.5 1.2z" class="st0"/><path d="M41.4 23.8h-5.9v-5.9c0-.8-.3-1.5-.9-2.1-.6-.6-1.3-.9-2.1-.9s-1.5.3-2.1.9c-.6.6-.9 1.3-.9 2.1v5.9h-5.9c-.8 0-1.5.3-2.1.9-.6.6-.9 1.3-.9 2.1s.3 1.5.9 2.1c.6.6 1.3.9 2.1.9h5.9v5.9c0 .8.3 1.5.9 2.1.6.6 1.3.9 2.1.9s1.5-.3 2.1-.9c.6-.6.9-1.3.9-2.1v-5.9h5.9c.8 0 1.5-.3 2.1-.9.6-.6.9-1.3.9-2.1s-.3-1.5-.9-2.1c-.5-.6-1.3-.9-2.1-.9zm11.9 20.7h-3c-.8 0-1.5-.3-2.1-.9-.6-.6-.9-1.3-.9-2.1s.3-1.5.9-2.1c.6-.6 1.3-.9 2.1-.9h3c.8 0 1.5.3 2.1.9.6.6.9 1.3.9 2.1s-.3 1.5-.9 2.1c-.6.6-1.3.9-2.1.9zm20.7 0h-3c-.8 0-1.5-.3-2.1-.9-.6-.6-.9-1.3-.9-2.1s.3-1.5.9-2.1c.6-.6 1.3-.9 2.1-.9h3c.8 0 1.5.3 2.1.9.6.6.9 1.3.9 2.1s-.3 1.5-.9 2.1c-.5.6-1.3.9-2.1.9z" class="st1"/><path d="M91.8 23.8c-.8 0-1.5-.3-2.1-.9-.6-.6-.9-1.3-.9-2.1v-3c0-.8.3-1.5.9-2.1.6-.6 1.3-.9 2.1-.9s1.5.3 2.1.9c.6.6.9 1.3.9 2.1v3c0 .8-.3 1.5-.9 2.1-.6.6-1.3.9-2.1.9z" class="st2"/><path d="M91.8 38.6c-.8 0-1.5-.3-2.1-.9-.6-.6-.9-1.3-.9-2.1v-3c0-.8.3-1.5.9-2.1.6-.6 1.3-.9 2.1-.9s1.5.3 2.1.9c.6.6.9 1.3.9 2.1v3c0 .8-.3 1.5-.9 2.1-.6.6-1.3.9-2.1.9z" class="st3"/><path d="M85.9 29.7h-3c-.8 0-1.5-.3-2.1-.9-.6-.6-.9-1.3-.9-2.1s.3-1.5.9-2.1c.6-.6 1.3-.9 2.1-.9h3c.8 0 1.5.3 2.1.9.6.6.9 1.3.9 2.1s-.3 1.5-.9 2.1c-.6.6-1.3.9-2.1.9z" class="st4"/><path d="M100.7 29.7h-3c-.8 0-1.5-.3-2.1-.9-.6-.6-.9-1.3-.9-2.1s.3-1.5.9-2.1c.6-.6 1.3-.9 2.1-.9h3c.8 0 1.5.3 2.1.9.6.6.9 1.3.9 2.1s-.3 1.5-.9 2.1c-.6.6-1.3.9-2.1.9z" class="st5"/></svg>