<svg xmlns="http://www.w3.org/2000/svg" xml:space="preserve" id="Promote_Brain" x="0" y="0" version="1.1" viewBox="0 0 1161 797"><style>.st0{fill:#ff9f41}.st1{fill:#fe7f00}</style><g id="Logo"><g id="top"><path d="m448.8 145.6.9-2.7v-.3l-3.8-26.2-13.7-56.9-.1.1-.3.2.4-.2c-4.7 2.4-9.3 4.9-13.8 7.6l-1.9 1.1-1.1.7-7.2 4.6-.7.5-1.8 1.2.2-.2-4.4 3.1.3-.2-1.1.8-.8.6-3.3 2.4-.5.4-3 2.3-.6.5-.4.3.2-.1a237 237 0 0 0-90.2 185.7v105.5c1.9-1.6 3.9-3.1 6-4.6 66.5-48.3 92.7-90.9 130-176 4.2-9.7 6.7-20 7.4-30.5.1-6 1-11.9 2.6-17.6l.7-2.1z" class="st0"/><path d="M843.3 49.6A52.9 52.9 0 0 0 805.8 34h-267a227.3 227.3 0 0 0-40.8 3.7l-4.8.9-1.2.2-3.9.8-1.7.4-3.3.8-11.1 3-.3.1-5.9 1.8-1.7.6-4.2 1.4-1.8.7-4.3 1.6-1.4.6c-6 2.4-11.8 4.9-17.6 7.8l-.6.3-5.3 2.7-.5.3-5.6 3.1-.1.1-.4.3-.3.2-.2.1-.4.2-.6.4-.7.4-1.3.8-1.7 1-2.5 1.5-4 2.5-2 1.3-1.7 1.1-1.1.8-1.5 1-1.7 1.2-1.9 1.4-.9.6-1.4 1-1.8 1.4-1.4 1.1-.6.4 1.5 1.2a200 200 0 0 1 35.2 37.1l.1.2 2.9 4 .3.5 2.6 3.8.6.9 2.3 3.4.9 1.4 1.9 3 1.4 2.2 1.4 2.2 2.7 4.5a69.6 69.6 0 0 1 11.7-23.4c3.3-3.7 6.9-7.1 10.6-10.3a41 41 0 0 1 9-5.3c51.6-23.9 130.9 34.5 185.6 109.8 29.5 41.1 50.7 84 59.7 121.9.8 2 1.3 4.1 1.5 6.2v.9c.3.5.4 1 .3 1.5 5.6 30.5 3.1 56.9-10.8 74.3a47.3 47.3 0 0 1-18.8 16.6c21.2 8.9 43.3 16 65.9 21.1a231.7 231.7 0 0 0 34.1-30.7l.9-1 2.3-2.6 2.2-2.5 1.6-1.9 3-3.6.9-1.1A237.1 237.1 0 0 0 859 271.2V87.6c-.2-14.5-5.8-28-15.7-38zM690.8 161.7a23 23 0 0 1-24.6 1.2 21.2 21.2 0 0 1-9.9-22.6l3.6-18.3a21.9 21.9 0 0 1 25.4-17.6 22.3 22.3 0 0 1 18.1 25.2l-3.4 18.3a23 23 0 0 1-9.2 13.8zm32.8 67.9a21.9 21.9 0 0 1-20.8-8.7 23.7 23.7 0 0 1 4.9-31.7l14.9-10.9a22 22 0 0 1 30 5.5 22.2 22.2 0 0 1-4.2 30.3c-7.4 5.8-15.2 14.2-24.8 15.5zm84.3 45.3a22.1 22.1 0 0 1-19 18.1 84 84 0 0 1-24.9-3.4 22.4 22.4 0 0 1-13.6-9.3 22.1 22.1 0 0 1 21.1-34.3l18.3 3.5a21.8 21.8 0 0 1 14.6 8.8 21.3 21.3 0 0 1 3.5 16.6z" class="st1"/><path d="M695.4 440.6a71.7 71.7 0 0 1-47.9 2.8 81.2 81.2 0 0 0-31.4-2.5c-89.4 10-138.3 20.9-202 66.3h208.3c50.9 0 100.2-16.4 140.6-46.3a395.2 395.2 0 0 1-65.9-21.1l-1.7.8zm-185.7-110a386.1 386.1 0 0 1-47.5-83.6c-33 68.7-65.3 113.5-128.7 160.1a100 100 0 0 0-12.1 13.1c-5 7.8-7.5 16.9-7.1 26.1.5 8.8 3.9 17.2 9.6 23.9a42 42 0 0 0 45.7 12.8v.2a51 51 0 0 0 13.7-7.1c64.5-46.6 116.9-63 192.1-73.7a407.1 407.1 0 0 1-65.7-71.8z" class="st0"/><path d="M544.6 305.2a307.4 307.4 0 0 0 85.1 82.7c1.9.6 3.7 2.2 6.2 3.4 2 1.3 4.1 2.4 6.2 3.5 10.2 5.3 29.5 14.9 38.5 2.4 2.8-2.6 3.8-7.6 4.4-15.3 1-11.5-1.9-26.4-7.4-45.4a329 329 0 0 0-49-92.8 374.8 374.8 0 0 0-59.7-64l-1-.6-3.7-2.8-1-.6-2.8-2.2-2.8-2.2-.9-.6c-4.3-3.3-8.8-6.3-13.4-9-22.1-13.3-37.3-15.5-45-13.7h-1c-13.3 5.3-9.9 26.1-8.4 37.2 4.7 29.6 22.1 73.7 55.7 120z" class="st1"/></g><g id="Promote_brain"><path d="M56.6 763H39.2V628a62.8 62.8 0 0 1 34.2-12c12-.1 21.7 3.7 29.2 11.4a53.3 53.3 0 0 1 14 29.8c1.3 6.8 1.3 14 0 21.6a90.1 90.1 0 0 1-6.2 21 38.5 38.5 0 0 1-12.6 16A33 33 0 0 1 78 722c-9.2 0-16.3-3.5-21.4-10.6V763zm0-126.8v28.2c0 10.4.6 18.2 1.8 23.4a26.6 26.6 0 0 0 10.2 15.6c5.1 3.7 10.7 4 17 .8 4.8-2.4 8.5-7.3 11-14.6a65.6 65.6 0 0 0 3-24.6 47.2 47.2 0 0 0-7.6-23.6 21.3 21.3 0 0 0-18.6-9.6c-6.1 0-11.7 1.5-16.8 4.4zm144.6-10.4-9.2 10.4a44.2 44.2 0 0 0-20-5.2c-8.1 0-15.5 2.5-22 7.4V719h-17.4v-90.8a59 59 0 0 1 68.6-2.4zm99.6 42.6c0 14.8-4.1 27.5-12.2 38a39.6 39.6 0 0 1-33 15.6 40.1 40.1 0 0 1-33-15.6 60 60 0 0 1-12.2-38 56 56 0 0 1 12.4-38.2 41.6 41.6 0 0 1 32.8-14.2c13.7 0 24.7 4.9 32.8 14.6a55.7 55.7 0 0 1 12.4 37.8zm-45.2 37.8c8.7 0 15.5-3.7 20.4-11s7.4-16.2 7.4-26.6c0-9.9-2.5-18.5-7.4-25.8s-11.7-11-20.4-11-15.5 3.7-20.4 11-7.4 15.9-7.4 25.8a46 46 0 0 0 7.6 26 23.3 23.3 0 0 0 20.2 11.6zM381 628c9.3-8 20.9-12 34.6-12 9.9 0 17.9 3.5 24.2 10.4a44.5 44.5 0 0 1 11.8 23.8c.8 4.7 1.2 12.7 1.2 24V719h-17.4v-59.6a31.3 31.3 0 0 0-6.4-19.8 20.7 20.7 0 0 0-17.2-7.8c-9.3 0-17.1 2.9-23.4 8.6a94.5 94.5 0 0 1 3.6 28.8V719h-17.4v-50.8c0-21.9-6.8-33.8-20.4-35.8-7.1-1.1-14.3.1-21.6 3.4V719h-17.4v-91c11.3-8 22.1-12 32.4-12 8.1 0 14.7 1 19.6 3 5.1 1.9 9.7 4.9 13.8 9zm176.9 40.4c0 14.8-4.1 27.5-12.2 38a39.6 39.6 0 0 1-33 15.6 40.1 40.1 0 0 1-33-15.6 60 60 0 0 1-12.2-38 56 56 0 0 1 12.4-38.2 41.6 41.6 0 0 1 32.8-14.2c13.7 0 24.7 4.9 32.8 14.6a56.2 56.2 0 0 1 12.4 37.8zm-45.2 37.8c8.7 0 15.5-3.7 20.4-11a46.7 46.7 0 0 0 7.4-26.6c0-9.9-2.5-18.5-7.4-25.8a23.3 23.3 0 0 0-20.4-11c-8.7 0-15.5 3.7-20.4 11a45.2 45.2 0 0 0-7.4 25.8 46 46 0 0 0 7.6 26c5 7.7 11.8 11.6 20.2 11.6zM581 579h17.4v40h11.4v16h-11.4v54c0 5.5.4 8.9 1.2 10.2 2 3.7 5.4 5.6 10.2 5.6V719a37 37 0 0 1-16.8-2.6c-8-4.7-12-11.9-12-21.6V635h-11.2v-16H581v-40zm59.4 100.2a38.3 38.3 0 0 0 7.8 15.8c4.3 5.1 9.7 8.4 16.4 10 10.9 2.5 21.9.9 32.8-5 2 2.3 4.8 5.8 8.4 10.6a54.7 54.7 0 0 1-16.6 8.2A62.3 62.3 0 0 1 670 722a47.4 47.4 0 0 1-44.6-32 62.2 62.2 0 0 1 8.8-57 42.6 42.6 0 0 1 34.2-17c14.4 0 26 5.1 34.8 15.4a36.2 36.2 0 0 1 9 33.6c-1.1 4.3-4.4 7.9-10 11a56.3 56.3 0 0 1-19 5.8c-12.7 1.9-27 1-42.8-2.6zm36.4-12.6c4.8-.4 9.2-1.7 13.2-3.8s5.9-4.8 5.8-8c-.3-6.1-3-11.5-8.2-16a27 27 0 0 0-18.8-7c-7.7 0-14.3 2.9-19.6 8.8a37.4 37.4 0 0 0-9.4 21.6 95 95 0 0 0 37 4.4z" class="st1"/><path d="M728.3 709.8h-.8V569h17.4v57.4a19 19 0 0 1 9.2-7.6c4.3-1.9 8.3-2.8 12.2-2.8a37 37 0 0 1 31.8 16.2 61.1 61.1 0 0 1 11.6 36.6c0 15.9-4.1 28.7-12.2 38.6a42.4 42.4 0 0 1-34.4 14.6 56.5 56.5 0 0 1-34.8-12.2zm16.6-51v43c4.9 2.9 11 4.4 18.2 4.4 19.5-.4 29.2-12.9 29.2-37.4 0-7.9-.9-14.5-2.8-19.8a23.6 23.6 0 0 0-15.8-16c-2.4-.8-4.9-1.2-7.4-1.2a24.5 24.5 0 0 0-12.4 4.2 18.4 18.4 0 0 0-6.2 8.4 44.3 44.3 0 0 0-2.8 14.4zm150.4-33-9.2 10.4a44.2 44.2 0 0 0-20-5.2c-8.1 0-15.5 2.5-22 7.4V719h-17.4v-90.8a59 59 0 0 1 68.6-2.4zm9.9 61.2c0-10.1 3.9-17.9 11.6-23.2a52.7 52.7 0 0 1 31.2-8.2h22.2c0-5.5-.9-10-2.8-13.6a16.6 16.6 0 0 0-7.4-7.8 32.5 32.5 0 0 0-24.6-2.2l-4.4 1.4-3.8 1.6-2.8 1.4-1.8 1-.8.4-9.2-11a68.6 68.6 0 0 1 34.2-10.8c12.1 0 22 3.2 29.6 9.6 7.7 6.4 11.6 16.7 11.6 30.8V710l-1.4 1a26 26 0 0 0-2.4 1.2l-2.6 1.6-3.2 1.6-3.8 1.6a84 84 0 0 1-15.8 4c-2 .3-4.3.5-6.8.6a43.7 43.7 0 0 1-34.4-9.2 30.5 30.5 0 0 1-12.4-25.4zm42.8-15c-5.3 0-9.9.6-13.6 1.8a16 16 0 0 0-11.2 9.4c-.5 1.3-.8 2.7-.8 4 0 6.3 2.7 11.1 8.2 14.6a32 32 0 0 0 16.2 5c8.3 0 16.1-1.9 23.6-5.6V672H948zm56.4-96h19.8v21h-19.8v-21zm18.6 43v100h-17.4V619h17.4zm98.8 100h-17.4v-54.2c0-7.2-.2-11.8-.6-13.8a20.7 20.7 0 0 0-9.4-13.8 28 28 0 0 0-23.8-4.2c-.9.1-2.1.5-3.6 1l-3 1-3.4 1.4-2.8 1.2V719h-17.4v-91c14.5-8 28-12 40.4-12 10.4 0 19.1 2.7 26.2 8.2a36.6 36.6 0 0 1 14 22.8c.5 2.9.8 8.9.8 18v54z" class="st0"/></g></g></svg>